<?xml version="1.0" encoding="UTF-8"?>
<svg width="100%" height="100%" viewBox="0 0 13 26" version="1.1" xmlns="http://www.w3.org/2000/svg" xmlns:xlink="http://www.w3.org/1999/xlink">
    <!-- Generator: Sketch 47.1 (45422) - http://www.bohemiancoding.com/sketch -->
    <title>fb</title>
    <desc>Created with Sketch.</desc>
    <defs></defs>
    <g id="jetskills-landing" stroke="none" stroke-width="1" fill="none" fill-rule="evenodd" opacity="0.9">
        <g transform="translate(-90.000000, -30.000000)" id="create-together" fill-rule="nonzero" fill="#FFFFFF">
            <g>
                <path d="M90.4150835,43.8476 L93.2360739,43.8476 L93.2360739,55.5806452 C93.2360739,55.8122968 93.4218653,56 93.6511574,56 L98.4342476,56 C98.6635397,56 98.8493311,55.8122968 98.8493311,55.5806452 L98.8493311,43.902871 L102.092295,43.902871 C102.303158,43.902871 102.480565,43.7430129 102.504639,43.5314065 L102.997177,39.2118839 C103.010709,39.0930387 102.973435,38.9740258 102.894735,38.884871 C102.815952,38.7956323 102.703215,38.7445548 102.584917,38.7445548 L98.8494971,38.7445548 L98.8494971,36.0368645 C98.8494971,35.2206323 99.2845046,34.806729 100.142565,34.806729 C100.264849,34.806729 102.584917,34.806729 102.584917,34.806729 C102.814209,34.806729 103,34.6189419 103,34.3873742 L103,30.4224581 C103,30.1908065 102.814209,30.0031032 102.584917,30.0031032 L99.2190044,30.0031032 C99.1952617,30.001929 99.1425461,30 99.0648424,30 C98.4808199,30 96.4508126,30.1158258 94.847262,31.6062129 C93.0705387,33.2578 93.3175133,35.2353097 93.3765382,35.5781742 L93.3765382,38.744471 L90.4150835,38.744471 C90.1857914,38.744471 90,38.9321742 90,39.1638258 L90,43.4281613 C90,43.6598129 90.1857914,43.8476 90.4150835,43.8476 Z" id="fb"></path>
            </g>
        </g>
    </g>
</svg>