<?xml version="1.0" encoding="UTF-8"?>
<svg width="100%" height="100%" viewBox="0 0 30 17" version="1.1" xmlns="http://www.w3.org/2000/svg" xmlns:xlink="http://www.w3.org/1999/xlink">
    <!-- Generator: Sketch 47.1 (45422) - http://www.bohemiancoding.com/sketch -->
    <title>vk</title>
    <desc>Created with Sketch.</desc>
    <defs></defs>
    <g id="jetskills-landing" stroke="none" stroke-width="1" fill="none" fill-rule="evenodd" opacity="0.9">
        <g transform="translate(-40.000000, -35.000000)" id="create-together" fill-rule="nonzero" fill="#FFFFFF">
            <g>
                <path d="M69.8408959,50.3528659 C69.8045694,50.2751099 69.7707047,50.210612 69.7392472,50.1589376 C69.218749,49.2278751 68.2240908,48.0850618 66.7558743,46.7301716 L66.7248545,46.6991452 L66.7093172,46.6839309 L66.6936159,46.6683362 L66.6778598,46.6683362 C66.0115082,46.0374307 65.5895403,45.6132226 65.4128313,45.3960381 C65.0895031,44.9823171 65.0170688,44.5635427 65.1937778,44.139226 C65.318623,43.8186384 65.7875857,43.1416008 66.5995717,42.1071896 C67.0266822,41.5589847 67.3649459,41.1196167 67.6147457,40.7885964 C69.4163567,38.4097277 70.1974323,36.889599 69.9578083,36.2276128 L69.8647489,36.0729157 C69.8022169,35.9797822 69.6408263,35.894582 69.3807961,35.8168803 C69.120164,35.7393415 68.7870429,35.726518 68.3808311,35.7781924 L63.8824658,35.8090557 C63.8095939,35.7834087 63.705538,35.7857996 63.5699699,35.8168803 C63.434566,35.847961 63.3668367,35.8635556 63.3668367,35.8635556 L63.2885486,35.9024065 L63.2263995,35.9490819 C63.1743169,35.9799452 63.1170369,36.0342278 63.0545049,36.1118209 C62.9923011,36.1891422 62.9402732,36.2798848 62.8986946,36.3832879 C62.4089427,37.6347207 61.8521179,38.7982364 61.2271808,39.8737806 C60.8418677,40.5151189 60.488012,41.0709309 60.1648479,41.5415426 C59.8421215,42.0119913 59.5713683,42.3586063 59.3528619,42.5807898 C59.1340273,42.8031907 58.936529,42.9813613 58.7591635,43.1159538 C58.5820715,43.2506006 58.4468864,43.3074913 58.3532799,43.2866803 C58.2594546,43.2658693 58.1711001,43.2452212 58.0874505,43.2245732 C57.9417613,43.1314398 57.8245754,43.0047805 57.7362209,42.8444867 C57.6474834,42.6841929 57.5877416,42.4824401 57.5565029,42.2393912 C57.5254284,41.9961793 57.5070463,41.7869823 57.5017943,41.6110938 C57.4969252,41.4354227 57.4991682,41.1869401 57.509727,40.8663525 C57.5205593,40.5456019 57.5254284,40.3285804 57.5254284,40.2147989 C57.5254284,39.8217259 57.5331423,39.395127 57.5486249,38.9348936 C57.564381,38.4746602 57.5771281,38.1100054 57.5877963,37.8413639 C57.5984098,37.5724506 57.6033335,37.2879427 57.6033335,36.9880031 C57.6033335,36.6880635 57.5849514,36.4528391 57.5486249,36.2821127 C57.512736,36.1116035 57.4576444,35.9460934 57.385046,35.7856366 C57.3120099,35.6253427 57.2051092,35.501346 57.0648361,35.4133202 C56.9242896,35.3254031 56.7495501,35.2556346 56.5416025,35.2037972 C55.9896468,35.0797461 55.2868045,35.01264 54.4327476,35.0022074 C52.4960061,34.9815594 51.2515481,35.1057735 50.6996471,35.3746867 C50.4809766,35.4883051 50.2830953,35.6435456 50.1061675,35.8399191 C49.9186809,36.0675363 49.8925302,36.1917504 50.0278794,36.2121811 C50.6527618,36.3051515 51.0951361,36.5275524 51.3554946,36.8791663 L51.44932,37.0654875 C51.5223013,37.1999169 51.5951733,37.4379125 51.6680999,37.7791481 C51.7409171,38.1203838 51.7879119,38.4978621 51.8085918,38.9113658 C51.860565,39.6664854 51.860565,40.312877 51.8085918,40.8505948 C51.7564544,41.3885299 51.7072166,41.8073043 51.6602219,42.1072439 C51.6132271,42.4071835 51.5429812,42.6502324 51.44932,42.8363362 C51.3554946,43.0224944 51.293072,43.1362758 51.2617787,43.1775718 C51.23054,43.2188678 51.2044987,43.2448952 51.1838188,43.2551105 C51.0484696,43.3066219 50.9077042,43.3328666 50.762015,43.3328666 C50.616107,43.3328666 50.4391792,43.2603812 50.230958,43.1155191 C50.0227915,42.970657 49.806747,42.7716753 49.5828244,42.5182481 C49.3589019,42.2647665 49.1063667,41.9105444 48.8251094,41.4555273 C48.544071,41.0005103 48.2524738,40.4627381 47.950482,39.8422109 L47.7006275,39.3921928 C47.5444343,39.1026859 47.3310705,38.6811404 47.0603173,38.1279366 C46.7894,37.5745154 46.5499402,37.0391884 46.3417737,36.5220643 C46.2585618,36.3048798 46.1335525,36.1395327 45.9669647,36.0257512 L45.888786,35.9790759 C45.8368127,35.9377798 45.753382,35.89393 45.6389315,35.8472002 C45.5243168,35.8005249 45.4047237,35.7670533 45.2796597,35.7464597 L40.9998556,35.777323 C40.5625145,35.777323 40.2657747,35.8757271 40.1095267,36.0722636 L40.0469947,36.165234 C40.0157561,36.2170171 40,36.2997178 40,36.4135536 C40,36.527335 40.0312386,36.6669808 40.0937707,36.8323279 C40.7185436,38.2907299 41.3979705,39.6972401 42.1320514,41.052076 C42.8661322,42.4069118 43.5040353,43.4982681 44.0453775,44.3251668 C44.5868292,45.1526632 45.1387302,45.9336472 45.7010805,46.6677385 C46.2634309,47.4021015 46.6356687,47.8727132 46.8177938,48.0794651 C47.0001378,48.2865973 47.1433651,48.4414574 47.2474757,48.5448605 L47.6380408,48.9171225 C47.88795,49.1653877 48.2549357,49.4627191 48.7391621,49.8091167 C49.2234979,50.1557317 49.7596976,50.4969673 50.3480345,50.833367 C50.9364809,51.1692233 51.6210505,51.4432985 52.4021261,51.6552667 C53.1830923,51.8674522 53.9432144,51.9525981 54.682602,51.9115194 L56.4789063,51.9115194 C56.8432113,51.8802757 57.1192166,51.7664943 57.3068126,51.5701208 L57.3689616,51.4923647 C57.410759,51.430638 57.4498757,51.3347334 57.4859834,51.2056833 C57.5225288,51.0764159 57.5406921,50.9339989 57.5406921,50.7790844 C57.5300239,50.3344457 57.5641074,49.9337112 57.6420126,49.5769352 C57.719863,49.2202679 57.8086004,48.9513547 57.907842,48.7702499 C58.0070288,48.589308 58.1189627,48.4366214 58.2435343,48.312842 C58.3683795,48.1887909 58.4573358,48.113643 58.5095279,48.0877786 C58.5613917,48.0617512 58.6028061,48.0440918 58.6340448,48.0334961 C58.883954,47.9507953 59.1780677,48.0308879 59.5168238,48.2741541 C59.8553063,48.517203 60.1727807,48.8173056 60.4697393,49.1739729 C60.7665338,49.5309662 61.1231249,49.9314834 61.5395673,50.3761221 C61.9562832,50.8209238 62.3206429,51.1515638 62.6329199,51.3690743 L62.945197,51.5552325 C63.1537464,51.6794466 63.4244996,51.793228 63.7577848,51.8966311 C64.0904682,51.9999799 64.3819559,52.0258442 64.6322481,51.9741699 L68.6307403,51.9122258 C69.0262292,51.9122258 69.3339654,51.8471846 69.552253,51.7181345 C69.7709783,51.588867 69.9009113,51.44645 69.9428182,51.2915356 C69.9846156,51.1364581 69.9868586,50.9605153 69.9507509,50.7638158 C69.9137132,50.5676053 69.8772225,50.4304047 69.8408959,50.3528659 Z" id="vk"></path>
            </g>
        </g>
    </g>
</svg>