<?xml version="1.0" encoding="UTF-8"?>
<svg width="65px" height="65px" viewBox="0 0 65 65" version="1.1" xmlns="http://www.w3.org/2000/svg" xmlns:xlink="http://www.w3.org/1999/xlink">
    <!-- Generator: Sketch 47.1 (45422) - http://www.bohemiancoding.com/sketch -->
    <title>briefcase</title>
    <desc>Created with Sketch.</desc>
    <defs>
        <linearGradient x1="0%" y1="0%" x2="100%" y2="59.6518555%" id="linearGradient-1">
            <stop stop-color="#36ABEF" offset="0%"></stop>
            <stop stop-color="#2279CD" offset="100%"></stop>
        </linearGradient>
    </defs>
    <g id="jetskills-landing" stroke="none" stroke-width="1" fill="none" fill-rule="evenodd">
        <g transform="translate(-175.000000, -976.000000)" id="you-are-welcome">
            <g transform="translate(175.000000, 850.000000)">
                <g id="briefcase" transform="translate(0.000000, 126.000000)">
                    <path d="M4,14 L61,14 C62.6568542,14 64,15.3431458 64,17 L64,61 C64,62.6568542 62.6568542,64 61,64 L4,64 C2.34314575,64 1,62.6568542 1,61 L1,17 L1,17 C1,15.3431458 2.34314575,14 4,14 L4,14 Z M32,34 C30.3431458,34 29,35.3431458 29,37 L29,50 C29,51.6568542 30.3431458,53 32,53 L33,53 C34.6568542,53 36,51.6568542 36,50 L36,37 C36,35.3431458 34.6568542,34 33,34 L32,34 Z" id="Combined-Shape" fill-opacity="0.2" fill="url(#linearGradient-1)"></path>
                    <path d="M35.75,4.33329102 L29.25,4.33329102 C26.2633008,4.33329102 23.833291,6.76317383 23.833291,9.75 C23.833291,10.3479492 24.3186328,10.833291 24.916582,10.833291 C25.5145313,10.833291 26,10.3479492 26,9.75 C26,7.95818359 27.4581836,6.5 29.25,6.5 L35.75,6.5 C37.5418164,6.5 39,7.95818359 39,9.75 C39,10.3479492 39.4853418,10.833291 40.083291,10.833291 C40.6812402,10.833291 41.166582,10.3479492 41.166582,9.75 C41.166709,6.76330078 38.7366992,4.33329102 35.75,4.33329102 Z" id="Shape" fill="#227ACD" fill-rule="nonzero"></path>
                    <path d="M20.583291,10.833291 C21.1812402,10.833291 21.666582,10.3479492 21.666582,9.75 C21.666582,5.8521582 25.3520313,2.16670898 29.249873,2.16670898 L35.749873,2.16670898 C39.7191895,2.16670898 43.3331641,5.78068359 43.3331641,9.75 C43.3331641,10.3479492 43.8185059,10.833291 44.4164551,10.833291 C45.0144043,10.833291 45.5,10.3479492 45.5,9.75 C45.5,4.55647461 40.9435254,0 35.75,0 L29.25,0 C24.1475,0 19.5,4.6475 19.5,9.75 C19.5,10.3479492 19.9853418,10.833291 20.583291,10.833291 Z" id="Shape" fill="#227ACD" fill-rule="nonzero"></path>
                    <path d="M63.916709,46.583291 C63.3187598,46.583291 62.833418,47.0686328 62.833418,47.666582 L62.833418,59.583291 C62.833418,61.3751074 61.3752344,62.833291 59.583418,62.833291 L5.41670898,62.833291 C3.62489258,62.833291 2.16670898,61.3751074 2.16670898,59.583291 L2.16670898,47.666582 C2.16670898,47.0686328 1.68136719,46.583291 1.08341797,46.583291 C0.48546875,46.583291 0,47.0686328 0,47.666709 L0,59.583418 C0,62.5701172 2.42988281,65 5.41670898,65 L59.583418,65 C62.5701172,65 65,62.5701172 65,59.583291 L65,47.666582 C65,47.0686328 64.5146582,46.583291 63.916709,46.583291 Z" id="Shape" fill="#227ACD" fill-rule="nonzero"></path>
                    <path d="M59.583291,13 L5.41670898,13 C2.42988281,13 0,15.4298828 0,18.416709 L0,40.083418 C0,43.0701172 2.42988281,45.5 5.41670898,45.5 L29.25,45.5 C29.8479492,45.5 30.333291,45.0146582 30.333291,44.416709 L30.333291,34.666709 L34.666582,34.666709 L34.666582,44.416709 C34.666582,45.0146582 35.1519238,45.5 35.749873,45.5 L59.5831641,45.5 C62.5698633,45.5 64.999873,43.0701172 64.999873,40.083291 L64.999873,18.416709 C65,15.4298828 62.5701172,13 59.583291,13 Z M62.833291,40.083291 C62.833291,41.8751074 61.3751074,43.333291 59.583291,43.333291 L36.833291,43.333291 L36.833291,34.666582 C36.833291,33.4716992 35.8615918,32.499873 34.666582,32.499873 L30.333291,32.499873 C29.1384082,32.499873 28.166582,33.4715723 28.166582,34.666582 L28.166582,43.333291 L5.41658203,43.333291 C3.62476562,43.333291 2.16658203,41.8751074 2.16658203,40.083291 L2.16658203,18.416709 C2.16658203,16.6248926 3.62476562,15.166709 5.41658203,15.166709 L10.833291,15.166709 L10.833291,40.083418 C10.833291,40.6813672 11.3186328,41.166709 11.916582,41.166709 C12.5145312,41.166709 12.999873,40.6813672 12.999873,40.083418 L12.999873,15.166709 L51.999873,15.166709 L51.999873,40.083418 C51.999873,40.6813672 52.4852148,41.166709 53.0831641,41.166709 C53.6811133,41.166709 54.1664551,40.6813672 54.1664551,40.083418 L54.1664551,15.166709 L59.5831641,15.166709 C61.3749805,15.166709 62.8331641,16.6248926 62.8331641,18.416709 L62.8331641,40.083291 L62.833291,40.083291 Z" id="Shape" fill="#227ACD" fill-rule="nonzero"></path>
                    <path d="M33.615791,49.833291 C33.615791,49.2353418 33.1315918,48.75 32.5325,48.75 L32.521709,48.75 C31.9237598,48.75 31.44375,49.2353418 31.44375,49.833291 C31.44375,50.4312402 31.9345508,50.916582 32.5325,50.916582 C33.1315918,50.916709 33.615791,50.4313672 33.615791,49.833291 Z" id="Shape" fill="#227ACD" fill-rule="nonzero"></path>
                    <path d="M29.25,47.666709 C28.6520508,47.666709 28.166709,48.1520508 28.166709,48.75 L28.166709,52 C28.166709,53.1948828 29.1384082,54.166709 30.333418,54.166709 L34.666709,54.166709 C35.8615918,54.166709 36.833418,53.1950098 36.833418,52 L36.833418,48.75 C36.833418,48.1520508 36.3480762,47.666709 35.750127,47.666709 C35.1521777,47.666709 34.6668359,48.1520508 34.6668359,48.75 L34.6668359,52 L30.3335449,52 L30.3335449,48.75 C30.333291,48.1520508 29.8479492,47.666709 29.25,47.666709 Z" id="Shape" fill="#227ACD" fill-rule="nonzero"></path>
                </g>
            </g>
        </g>
    </g>
</svg>