<?xml version="1.0" encoding="UTF-8"?>
<svg width="70px" height="65px" viewBox="0 0 70 65" version="1.1" xmlns="http://www.w3.org/2000/svg" xmlns:xlink="http://www.w3.org/1999/xlink">
    <!-- Generator: Sketch 47.1 (45422) - http://www.bohemiancoding.com/sketch -->
    <title>mortarboard</title>
    <desc>Created with Sketch.</desc>
    <defs>
        <linearGradient x1="100%" y1="50%" x2="0%" y2="50%" id="linearGradient-1">
            <stop stop-color="#17C775" offset="0%"></stop>
            <stop stop-color="#26D485" offset="100%"></stop>
        </linearGradient>
        <linearGradient x1="100%" y1="50%" x2="0%" y2="50%" id="linearGradient-2">
            <stop stop-color="#17C775" offset="0%"></stop>
            <stop stop-color="#18C876" offset="8.15824457%"></stop>
            <stop stop-color="#26D485" offset="100%"></stop>
        </linearGradient>
    </defs>
    <g id="jetskills-landing" stroke="none" stroke-width="1" fill="none" fill-rule="evenodd">
        <g transform="translate(-655.000000, -980.000000)" id="you-are-welcome">
            <g transform="translate(175.000000, 850.000000)">
                <g id="mortarboard" transform="translate(480.000000, 130.000000)">
                    <polygon id="Path-5" fill-opacity="0.2" fill="url(#linearGradient-1)" points="35.0170898 1.33691406 68.0673828 15.1166992 35.0170898 29.0166016 1.89746094 15.1767578"></polygon>
                    <path d="M12.7141113,24.682373 L34.9870605,33.7961426 L56.9741211,24.682373 L56.9741211,38.4589636 L53.355957,43.4294434 C51.534668,45.397054 48.9344889,46.8334147 45.5554199,47.7385254 C42.1763509,48.6436361 38.6716715,49.4460449 35.0413818,50.145752 L24.5336914,48.7556152 L15.019043,42.4541016 L12.7141113,38.175293 L12.7141113,24.682373 Z" id="Path-6" fill-opacity="0.2" fill="url(#linearGradient-2)"></path>
                    <path d="M49.0172071,58.0632218 C48.3952197,57.9053452 47.7652092,58.2859623 47.6108682,58.9068619 L46.450523,63.5483787 C46.2938703,64.171454 46.6732636,64.8003766 47.295251,64.9559414 C47.3892155,64.9802824 47.4844038,64.9907531 47.5772803,64.9907531 C48.0971444,64.9907531 48.5694142,64.6391004 48.7017259,64.1123013 L49.8620711,59.4707845 C50.0175,58.8487971 49.6391946,58.2187866 49.0172071,58.0632218 Z" id="Shape" fill="#227ACD" fill-rule="nonzero"></path>
                    <path d="M34.8117155,34.8206904 C34.9625209,34.8206904 35.1134623,34.7917259 35.2550209,34.7325732 L48.0193619,29.4504393 C48.6111611,29.2055335 48.8919665,28.526705 48.6471967,27.9349059 C48.4022908,27.3418828 47.7211506,27.0633891 47.1305753,27.3059833 L34.8117155,32.4046757 L2.32082636,18.9604184 L2.32082636,18.5751778 C2.32082636,17.9346967 1.80096234,17.4148326 1.16048117,17.4148326 C0.52,17.4148326 0,17.9346967 0,18.5751778 L0,19.735523 C0,20.2054812 0.283117155,20.629069 0.717175732,20.807751 L34.368546,34.7324372 C34.5099686,34.79159 34.66091,34.8206904 34.8117155,34.8206904 Z" id="Shape" fill="#227ACD" fill-rule="nonzero"></path>
                    <path d="M48.6157845,46.7088912 C48.3326674,46.1344979 47.6387448,45.897751 47.0620397,46.1820921 C44.858431,47.2717259 41.177636,48.538818 35.9721967,48.7117887 L35.9721967,38.3018619 C35.9721967,37.6613808 35.4523326,37.1415167 34.8118515,37.1415167 C34.1713703,37.1415167 33.6515063,37.6613808 33.6515063,38.3018619 L33.6515063,48.701318 C19.2429916,48.2418305 14.5933159,39.5133368 13.9248222,38.0604916 L13.9248222,30.1791736 C13.9248222,29.5386925 13.4049582,29.0188285 12.764477,29.0188285 C12.1239958,29.0188285 11.6041318,29.5386925 11.6041318,30.1791736 L11.6041318,38.3018619 C11.6041318,38.4492678 11.6320084,38.5954498 11.6865377,38.7334728 C11.8884728,39.235931 16.827113,51.0660669 34.8119874,51.0660669 C41.0978138,51.0660669 45.5027197,49.5412866 48.0903452,48.2625 C48.6655544,47.978295 48.9012134,47.2832845 48.6157845,46.7088912 Z" id="Shape" fill="#227ACD" fill-rule="nonzero"></path>
                    <path d="M52.2175732,59.1888912 C51.5758682,59.1888912 51.057228,59.7087552 51.057228,60.3492364 L51.057228,63.8304079 C51.057228,64.4708891 51.5758682,64.9907531 52.2175732,64.9907531 C52.8592782,64.9907531 53.3779184,64.4708891 53.3779184,63.8304079 L53.3779184,60.3492364 C53.3779184,59.7087552 52.8592782,59.1888912 52.2175732,59.1888912 Z" id="Shape" fill="#227ACD" fill-rule="nonzero"></path>
                    <path d="M68.4630858,17.4148326 C67.8213808,17.4148326 67.3027406,17.9346967 67.3027406,18.5751778 L67.3027406,18.9581067 L53.3780544,24.6892573 L53.3780544,22.5923954 L68.9063912,16.1660983 C69.3403138,15.9874163 69.6235669,15.5638285 69.6235669,15.0938703 C69.6235669,14.6239121 69.3404498,14.2015481 68.9076151,14.0216423 L35.2550209,0.0970920502 C34.9706799,-0.020125523 34.652751,-0.020125523 34.368546,0.0970920502 L0.717175732,14.0217782 C0.283117155,14.2016841 0,14.6240481 0,15.0940063 C0,15.5639644 0.283117155,15.9875523 0.717175732,16.1662343 L34.368546,30.0909205 C34.5101046,30.1500732 34.66091,30.1791736 34.8118515,30.1791736 C34.9627929,30.1791736 35.1135983,30.1502092 35.2551569,30.0909205 L47.4230753,25.0560042 C48.0160983,24.8123222 48.2969038,24.1334937 48.0519979,23.5404707 C47.8070921,22.9486715 47.1282636,22.668954 46.5364644,22.912636 L34.8117155,27.763159 L4.19481172,15.0940063 L34.8117155,2.42485356 L65.4286192,15.0940063 L52.1062029,20.6070397 L39.3453975,15.8424582 C39.4127092,15.6010879 39.4533682,15.3527824 39.4533682,15.0940063 C39.4533682,13.1422385 37.4145711,11.6128347 34.8118515,11.6128347 C32.2091318,11.6128347 30.1703347,13.1422385 30.1703347,15.0940063 C30.1703347,17.0457741 32.2091318,18.5751778 34.8118515,18.5751778 C35.9734205,18.5751778 37.009613,18.2583368 37.8149059,17.7478556 L51.057228,22.6923431 L51.057228,26.4102615 L51.057228,26.4114854 L51.057228,51.2798326 C49.7100418,51.7613494 48.7364017,53.0366004 48.7364017,54.5475105 C48.7364017,56.4667782 50.2983054,58.028682 52.2175732,58.028682 C54.136841,58.028682 55.6987448,56.4667782 55.6987448,54.5475105 C55.6987448,53.0367364 54.7252406,51.7614854 53.3779184,51.2798326 L53.3779184,44.6934833 C56.7093724,42.1788808 57.9034414,38.8300209 57.955659,38.6815272 C57.9974059,38.5596862 58.0194351,38.43091 58.0194351,38.3021339 L58.0194351,30.1794456 C58.0194351,29.5389644 57.500795,29.0191004 56.85909,29.0191004 C56.2173849,29.0191004 55.6987448,29.5389644 55.6987448,30.1794456 L55.6987448,38.0875523 C55.4980335,38.5795397 54.8005753,40.0961611 53.3779184,41.5930649 L53.3779184,27.1992364 L68.9051674,20.8089749 C69.3403138,20.6302929 69.623431,20.2056172 69.623431,19.735659 L69.623431,18.5753138 C69.623431,17.9346967 69.1047908,17.4148326 68.4630858,17.4148326 Z M34.8117155,16.2543515 C33.3949059,16.2543515 32.4908891,15.567364 32.4908891,15.0940063 C32.4908891,14.6205126 33.3947699,13.9336611 34.8117155,13.9336611 C36.2286611,13.9336611 37.1325418,14.6206485 37.1325418,15.0940063 C37.1325418,15.5675 36.2285251,16.2543515 34.8117155,16.2543515 Z M52.2175732,55.7077197 C51.5770921,55.7077197 51.057228,55.1867678 51.057228,54.5473745 C51.057228,53.9079812 51.5770921,53.3870293 52.2175732,53.3870293 C52.8580544,53.3870293 53.3779184,53.9079812 53.3779184,54.5473745 C53.3779184,55.1866318 52.8580544,55.7077197 52.2175732,55.7077197 Z" id="Shape" fill="#227ACD" fill-rule="nonzero"></path>
                    <path d="M56.8242782,58.9068619 C56.6688494,58.2860983 56.0374791,57.906569 55.4179393,58.0632218 C54.7959519,58.2186506 54.4176464,58.8487971 54.5732113,59.4707845 L55.7335565,64.1123013 C55.8658682,64.6391004 56.3381381,64.9907531 56.8580021,64.9907531 C56.9508787,64.9907531 57.045931,64.9802824 57.1400314,64.9559414 C57.7620188,64.8005126 58.1403243,64.171454 57.9847594,63.5483787 L56.8242782,58.9068619 Z" id="Shape" fill="#227ACD" fill-rule="nonzero"></path>
                </g>
            </g>
        </g>
    </g>
</svg>