<?xml version="1.0" encoding="UTF-8"?>
<svg width="65px" height="65px" viewBox="0 0 65 65" version="1.1" xmlns="http://www.w3.org/2000/svg" xmlns:xlink="http://www.w3.org/1999/xlink">
    <!-- Generator: Sketch 47.1 (45422) - http://www.bohemiancoding.com/sketch -->
    <title>medal</title>
    <desc>Created with Sketch.</desc>
    <defs>
        <linearGradient x1="100%" y1="50%" x2="0%" y2="50%" id="linearGradient-1">
            <stop stop-color="#17C775" offset="0%"></stop>
            <stop stop-color="#26D485" offset="100%"></stop>
        </linearGradient>
    </defs>
    <g id="jetskills-landing" stroke="none" stroke-width="1" fill="none" fill-rule="evenodd">
        <g transform="translate(-176.000000, -1121.000000)" id="you-are-welcome">
            <g transform="translate(175.000000, 850.000000)">
                <g id="medal" transform="translate(1.000000, 271.000000)">
                    <path d="M52.640625,25.0302734 L35.4086914,7.45556641 L41.8286133,1.15429688 L63.7631836,23.5478516 C61.0763346,23.5478516 57.8544922,24.5872396 54.0976562,26.6660156 C54.0976562,26.6660156 53.6119792,26.1207682 52.640625,25.0302734 Z" id="Path-8" fill-opacity="0.2" fill="url(#linearGradient-1)" transform="translate(49.585938, 13.910156) scale(-1, 1) translate(-49.585938, -13.910156) "></path>
                    <circle id="Oval-2" fill-opacity="0.2" fill="url(#linearGradient-1)" cx="32" cy="45" r="18"></circle>
                    <path d="M29.9346924,41.8250732 L32.4287109,36.0947266 L35.6268311,41.6779785 L41.1647949,42.7598877 L37.0491943,46.6600342 L38.0997314,52.8537598 L32.2686768,49.3786621 C28.8036702,51.6953939 27.071167,52.8537598 27.071167,52.8537598 C27.071167,52.8537598 27.4676921,50.7891846 28.2607422,46.6600342 L23.9818115,43.347168 L29.9346924,41.8250732 Z" id="Path-3" fill="#FFFFFF"></path>
                    <path d="M40.5612671,41.3007212 C40.0596394,41.2596686 37.4149123,41.0238694 36.160653,40.9126218 L34.1247466,35.8492105 C33.8111501,35.0674366 33.1602632,34.5820273 32.427271,34.5820273 C31.6530994,34.5820273 30.9935965,35.12154 30.7675536,35.8902632 C30.5783821,36.4038012 29.4474074,39.532924 28.949961,40.9114815 L24.2531092,41.3093372 C23.5265789,41.3709162 22.9513353,41.8304776 22.7534211,42.5073392 C22.5435965,43.2242398 22.802076,44.0351559 23.3816277,44.4795127 C23.6854678,44.7130312 25.8933138,46.3316959 26.9885575,47.1328558 L25.6467446,51.7355653 C25.3591228,52.5843665 25.5646394,53.1336355 25.7872612,53.4439376 C26.2997856,54.1586842 27.4794152,54.2278655 28.327076,53.6395712 C28.7595224,53.3390253 31.2366179,51.5690741 32.4184016,50.7245809 C33.5958772,51.5657797 36.055614,53.3216667 36.5065595,53.6352632 C36.8925049,53.9055263 37.3606823,54.0612476 37.789961,54.0612476 C38.297037,54.0612476 38.7544444,53.8461014 39.0430799,53.4709259 C39.2744444,53.1713938 39.503655,52.6361891 39.2820468,51.7906823 C39.0571442,50.9344055 38.4213353,48.368616 38.1164815,47.1317154 L41.4476998,44.5453996 C42.0499318,44.0772222 42.3137329,43.2360234 42.0878168,42.5030312 C41.8749513,41.807924 41.2813353,41.3472222 40.5612671,41.3007212 Z M36.2352827,45.8537622 C35.8979922,46.1154094 35.7465789,46.5522904 35.8481969,46.9663645 C35.8481969,46.9663645 36.4840058,49.5505263 36.9164522,51.2761306 C35.5346004,50.2944152 33.0478752,48.5157212 33.0478752,48.5157212 C32.8608577,48.3805263 32.6391228,48.313499 32.418655,48.313499 C32.1980604,48.313499 31.9774659,48.3805263 31.7894347,48.5157212 C31.7894347,48.5157212 29.4842788,50.1645419 28.0613743,51.1776803 L29.2766082,47.0107115 C29.4042008,46.5739571 29.2441715,46.1046394 28.8776121,45.8353899 C28.8765984,45.8353899 26.7508577,44.2805848 25.5192788,43.3723587 L29.8225828,43.0079532 C30.2442593,42.9722222 30.6053704,42.6954971 30.7481676,42.2976413 C30.7481676,42.2976413 31.86077,39.2183138 32.4706043,37.5327485 L34.4017251,42.334386 C34.554152,42.7117154 34.9044932,42.9723489 35.3088109,43.0079532 C35.3088109,43.0079532 37.915653,43.2404581 39.4315595,43.3733723 L36.2352827,45.8537622 Z" id="Shape" fill="#227ACD" fill-rule="nonzero"></path>
                    <path d="M32.4369006,25.9495712 C21.7058187,25.9495712 12.9749123,34.6804776 12.9749123,45.4115595 C12.9749123,56.1426413 21.7058187,64.8735478 32.4369006,64.8735478 C43.1679825,64.8735478 51.8988889,56.1426413 51.8988889,45.4115595 C51.8988889,34.6804776 43.1679825,25.9495712 32.4369006,25.9495712 Z M32.4369006,62.7110624 C22.8983723,62.7110624 15.1373977,54.9500877 15.1373977,45.4115595 C15.1373977,35.8730312 22.8983723,28.1120565 32.4369006,28.1120565 C41.9754288,28.1120565 49.7364035,35.8730312 49.7364035,45.4115595 C49.7364035,54.9500877 41.9754288,62.7110624 32.4369006,62.7110624 Z" id="Shape" fill="#227ACD" fill-rule="nonzero"></path>
                    <path d="M34.4209844,23.9654873 C34.6318226,24.1763255 34.9086745,24.2822515 35.1853996,24.2822515 C35.4622515,24.2822515 35.7389766,24.1763255 35.9498148,23.9654873 L54.2288791,5.686423 C54.6516959,5.26360624 54.6516959,4.57926901 54.2288791,4.15759259 C53.8072027,3.73477583 53.1227388,3.73477583 52.7000487,4.15759259 L34.4209844,22.4366569 C33.9981676,22.8594737 33.9981676,23.5427973 34.4209844,23.9654873 Z" id="Shape" fill="#227ACD" fill-rule="nonzero"></path>
                    <path d="M18.640625,25.0302734 L1.40869141,7.45556641 L7.82861328,1.15429688 L29.7631836,23.5478516 C27.0763346,23.5478516 23.8544922,24.5872396 20.0976562,26.6660156 C20.0976562,26.6660156 19.6119792,26.1207682 18.640625,25.0302734 Z" id="Path-8" fill-opacity="0.2" fill="url(#linearGradient-1)"></path>
                    <path d="M64.5567836,6.80434698 L58.0694542,0.317017544 C57.867232,0.113781676 57.5926608,0.000253411306 57.305039,0.000253411306 L7.56876218,0.000253411306 C7.28114035,0.000253411306 7.0065692,0.113781676 6.80434698,0.317017544 L0.317017544,6.80434698 C-0.105672515,7.22716374 -0.105672515,7.91048733 0.317017544,8.33317739 L19.2049025,27.2210624 C19.6265789,27.6427388 20.3110429,27.6427388 20.7337329,27.2210624 C21.1554094,26.7982456 21.1554094,26.1139084 20.7337329,25.692232 L2.61038986,7.56876218 L4.32522417,5.85392788 L23.5720663,25.10077 C23.7829045,25.3116082 24.0597563,25.4175341 24.3364815,25.4175341 C24.6133333,25.4175341 24.8900585,25.3116082 25.1008967,25.10077 C25.5225731,24.6780799 25.5225731,23.993616 25.1008967,23.5719396 L5.85405458,4.32509747 L8.01653996,2.16261209 L56.8575146,2.16261209 L59.02,4.32509747 L39.7816472,23.5633236 C39.3589571,23.9861404 39.3589571,24.6694639 39.7816472,25.092154 C39.9924854,25.3029922 40.2693372,25.4089181 40.5460624,25.4089181 C40.8229142,25.4089181 41.0996394,25.3029922 41.3104776,25.092154 L60.5487037,5.85405458 L62.263538,7.56888889 L44.1292982,25.7031287 C43.7076218,26.1258187 43.7076218,26.809269 44.1292982,27.2319591 C44.3412768,27.4427973 44.6180019,27.5487232 44.8937135,27.5487232 C45.1705653,27.5487232 45.4472904,27.4427973 45.659269,27.2319591 L64.5567836,8.33330409 C64.9794737,7.91048733 64.9794737,7.22716374 64.5567836,6.80434698 Z" id="Shape" fill="#227ACD" fill-rule="nonzero"></path>
                    <path d="M43.2492008,8.65006823 L21.6247271,8.65006823 C21.0268031,8.65006823 20.5435478,9.13446394 20.5435478,9.73124756 C20.5435478,10.3280312 21.0268031,10.8124269 21.6247271,10.8124269 L43.2492008,10.8124269 C43.8471248,10.8124269 44.3303801,10.3280312 44.3303801,9.73124756 C44.3303801,9.13446394 43.8469981,8.65006823 43.2492008,8.65006823 Z" id="Shape" fill="#227ACD" fill-rule="nonzero"></path>
                    <path d="M10.6340253,4.14669591 C10.2112086,4.56951267 10.2112086,5.25283626 10.6340253,5.67552632 L28.9358967,23.9773977 C29.1467349,24.1882359 29.4235867,24.2941618 29.7003119,24.2941618 C29.9771637,24.2941618 30.2528752,24.1882359 30.4647271,23.9773977 C30.8864035,23.5545809 30.8864035,22.8702437 30.4647271,22.4485673 L12.1629825,4.14669591 C11.7401657,3.72400585 11.0568421,3.72400585 10.6340253,4.14669591 Z" id="Shape" fill="#227ACD" fill-rule="nonzero"></path>
                </g>
            </g>
        </g>
    </g>
</svg>