<?xml version="1.0" encoding="UTF-8"?>
<svg width="62px" height="62px" viewBox="0 0 62 62" version="1.1" xmlns="http://www.w3.org/2000/svg" xmlns:xlink="http://www.w3.org/1999/xlink">
    <!-- Generator: Sketch 47.1 (45422) - http://www.bohemiancoding.com/sketch -->
    <title>computer</title>
    <desc>Created with Sketch.</desc>
    <defs>
        <linearGradient x1="0%" y1="0%" x2="100%" y2="59.6518555%" id="linearGradient-1">
            <stop stop-color="#36ABEF" offset="0%"></stop>
            <stop stop-color="#2279CD" offset="100%"></stop>
        </linearGradient>
    </defs>
    <g id="jetskills-landing" stroke="none" stroke-width="1" fill="none" fill-rule="evenodd">
        <g transform="translate(-658.000000, -1121.000000)" id="you-are-welcome">
            <g transform="translate(175.000000, 850.000000)">
                <g id="computer" transform="translate(483.000000, 271.000000)">
                    <path d="M4,1 L57,1 L57,1 C59.209139,1 61,2.790861 61,5 L61,35 L61,35 C61,35.5522847 60.5522847,36 60,36 L1,36 L1,36 C0.44771525,36 6.76353751e-17,35.5522847 0,35 L0,5 L0,5 C-2.705415e-16,2.790861 1.790861,1 4,1 Z" id="Rectangle-14" fill-opacity="0.3" fill="url(#linearGradient-1)"></path>
                    <rect id="Rectangle-17" fill="#FFFFFF" x="8" y="10" width="24" height="18"></rect>
                    <path d="M22.2608696,9 L7.84782609,9 C7.37948696,9 7,9.36291892 7,9.81081081 L7,28.1891892 C7,28.6370811 7.37948696,29 7.84782609,29 L32.1521739,29 C32.620513,29 33,28.6370811 33,28.1891892 L33,9.81081081 C33,9.36291892 32.620513,9 32.1521739,9 L25.6521739,9 C25.1838348,9 24.8043478,9.36291892 24.8043478,9.81081081 C24.8043478,10.2587027 25.1838348,10.6216216 25.6521739,10.6216216 L31.3043478,10.6216216 L31.3043478,27.3783784 L8.69565217,27.3783784 L8.69565217,10.6216216 L22.2608696,10.6216216 C22.7292087,10.6216216 23.1086957,10.2587027 23.1086957,9.81081081 C23.1086957,9.36291892 22.7292087,9 22.2608696,9 Z" id="Shape" stroke="#227ACD" stroke-width="0.2" fill="#227ACD" fill-rule="nonzero"></path>
                    <path d="M56.7776341,0.0604878049 L5.16157561,0.0604878049 C2.46321463,0.0604878049 0.197341463,2.29747805 0,5.22206341 L0,32.062922 C0,32.6324146 0.462580488,33.0948439 1.03252683,33.0948439 C1.60201951,33.0948439 2.06444878,32.6324146 2.06444878,32.062922 L2.06278537,5.29238049 C2.16909268,3.73587805 3.35692195,2.12493659 5.16157561,2.12493659 L56.778239,2.12493659 C58.4853561,2.12493659 59.8746098,3.51494634 59.8746098,5.22206341 L59.8746098,42.3860732 C59.8746098,44.1509561 58.5443317,45.4830488 56.778239,45.4830488 L5.16157561,45.4830488 C3.39654146,45.4830488 2.06444878,44.1509561 2.06444878,42.3860732 L2.06444878,37.2244976 L56.778239,37.2244976 C57.1018488,37.2244976 58.0397949,37.2244976 57.9703369,36.0606689 C57.9008789,34.8968403 56.778239,35.1592927 55.3817268,35.1592927 L1.03252683,35.1592927 C0.462580488,35.1592927 0,35.6218732 0,36.1913659 L0,42.3854683 C0,45.2798098 2.26708293,47.5468927 5.16157561,47.5468927 L56.778239,47.5468927 C59.6725805,47.5468927 61.9398146,45.2798098 61.9398146,42.3854683 L61.9398146,5.22145854 C61.9398146,2.37596098 59.6241902,0.0604878049 56.7776341,0.0604878049 Z" id="Fill-1" fill="#227ACD"></path>
                    <path d="M14.9528417,13.1206841 C14.7214876,13.267834 14.5806452,13.5278779 14.5806452,13.8079583 L14.5806452,24.5802807 C14.5806452,24.8603611 14.7214876,25.1204049 14.9528417,25.2675549 C15.0789302,25.3477009 15.22197,25.3882049 15.3654283,25.3882049 C15.4853432,25.3882049 15.6056766,25.3598737 15.7163834,25.3028881 L26.1801592,19.9167269 C26.4459391,19.7798107 26.6139873,19.5001612 26.6139873,19.1941195 C26.6139873,18.8880778 26.4460437,18.6083206 26.1801592,18.4715121 L15.7163834,13.0853509 C15.4731006,12.9600688 15.1843004,12.9734265 14.9528417,13.1206841 Z M16.1502115,15.1152873 L24.0743243,19.1941195 L16.1502115,23.2729517 L16.1502115,15.1152873 Z" id="Shape" stroke="#227ACD" stroke-width="0.2" fill="#227ACD" fill-rule="nonzero"></path>
                    <path d="M40.2603805,55.8062 L37.1640098,55.8062 L37.1640098,50.6446244 C37.1640098,50.0745268 36.7020341,49.6120976 36.1314829,49.6120976 C35.5607805,49.6120976 35.0988049,50.0745268 35.0988049,50.6446244 L35.0988049,56.838122 C35.0988049,57.4080683 35.5607805,57.8706488 36.1314829,57.8706488 L40.2603805,57.8706488 C41.4199317,57.8706488 42.6296878,58.8139561 43.1253854,59.9350976 L18.8138244,59.9350976 C19.3093707,58.8139561 20.5197317,57.8706488 21.678678,57.8706488 L32.0018293,57.8706488 C32.5729854,57.8706488 33.0343561,57.4080683 33.0343561,56.838122 C33.0343561,56.2686293 32.5729854,55.8062 32.0018293,55.8062 L26.8402537,55.8062 L26.8402537,50.6446244 C26.8402537,50.0745268 26.3778244,49.6120976 25.8083317,49.6120976 C25.2382341,49.6120976 24.7758049,50.0745268 24.7758049,50.6446244 L24.7758049,55.8062 L21.678678,55.8062 C19.0258341,55.8062 16.5172537,58.3147805 16.5172537,60.9676244 C16.5172537,61.537722 16.9796829,62.0003024 17.5497805,62.0003024 L44.3900341,62.0003024 C44.9605854,62.0003024 45.4219561,61.537722 45.4219561,60.9676244 C45.422561,58.3147805 42.9138293,55.8062 40.2603805,55.8062 Z" id="Fill-5" fill="#227ACD"></path>
                    <path d="M28.9048537,41.3533951 C28.9048537,42.4923805 29.8310732,43.4179951 30.9699073,43.4179951 C32.1093463,43.4179951 33.0343561,42.4923805 33.0343561,41.3533951 C33.0343561,40.214561 32.1093463,39.2889463 30.9699073,39.2889463 C29.8310732,39.2889463 28.9048537,40.214561 28.9048537,41.3533951 Z" id="Fill-7" fill="#227ACD"></path>
                    <rect id="Rectangle-16" fill="#227ACD" x="38" y="9" width="16" height="2" rx="1"></rect>
                    <rect id="Rectangle-16" fill="#227ACD" x="38" y="15" width="16" height="2" rx="1"></rect>
                    <rect id="Rectangle-16" fill="#227ACD" x="38" y="21" width="16" height="2" rx="1"></rect>
                    <rect id="Rectangle-16" fill="#227ACD" x="38" y="27" width="16" height="2" rx="1"></rect>
                </g>
            </g>
        </g>
    </g>
</svg>