<?xml version="1.0" encoding="UTF-8"?>
<svg width="59px" height="59px" viewBox="0 0 59 59" version="1.1" xmlns="http://www.w3.org/2000/svg" xmlns:xlink="http://www.w3.org/1999/xlink">
    <!-- Generator: Sketch 47.1 (45422) - http://www.bohemiancoding.com/sketch -->
    <title>icon</title>
    <desc>Created with Sketch.</desc>
    <defs>
        <polygon id="path-1" points="0.00863414634 0.0574209246 0.00863414634 58.8567348 58.9427268 58.8567348 58.9427268 0.0574209246"></polygon>
        <linearGradient x1="0%" y1="0%" x2="100%" y2="59.6518555%" id="linearGradient-3">
            <stop stop-color="#36ABEF" offset="0%"></stop>
            <stop stop-color="#2279CD" offset="100%"></stop>
        </linearGradient>
    </defs>
    <g id="jetskills-landing" stroke="none" stroke-width="1" fill="none" fill-rule="evenodd">
        <g transform="translate(-201.000000, -3742.000000)" id="what-in-return">
            <g transform="translate(175.000000, 2886.000000)">
                <g id="5" transform="translate(0.000000, 825.000000)">
                    <g id="icon" transform="translate(26.000000, 31.000000)">
                        <g id="browser">
                            <path d="M27,42.000293 C27,41.447993 26.5531526,41 26.0028494,41 L25.9926207,41 C25.4423175,41 25,41.447993 25,42.000293 C25,42.5518605 25.4521078,43 26.0028494,43 C26.5531526,43 27,42.5524465 27,42.000293 Z" id="Fill-1" fill="#227ACD"></path>
                            <path d="M48.0003662,55 C48.5530653,55 49,54.5519016 49,54.0003845 L49,48.0002014 C49,47.447952 48.5530653,47 48.0003662,47 L37.9996338,47 C37.4469347,47 37,47.447952 37,48.0002014 L37,54.0003845 C37,54.5519016 37.4469347,55 37.9996338,55 C38.5530653,55 38.9998535,54.5519016 38.9998535,54.0003845 L38.9998535,48.9998169 L47.0001465,48.9998169 L47.0001465,54.0003845 C47.0001465,54.5519016 47.4469347,55 48.0003662,55 Z" id="Fill-2" fill="#227ACD"></path>
                            <path d="M43.9998291,18 C44.5532336,18 45,17.5518605 45,17.000293 C45,16.447993 44.5532336,16 43.9998291,16 L40.0003174,16 C39.4469129,16 39,16.447993 39,17.000293 C39,17.5518605 39.4469129,18 40.0003174,18 L43.9998291,18 Z" id="Fill-3" fill="#227ACD"></path>
                            <path d="M33.9998291,55 C34.5525012,55 35,54.5519016 35,54.0003845 L35,48.0002014 C35,47.447952 34.5525012,47 33.9998291,47 L24.0001709,47 C23.4479383,47 23,47.447952 23,48.0002014 L23,54.0003845 C23,54.5519016 23.4479383,55 24.0001709,55 C24.5518176,55 24.9997559,54.5519016 24.9997559,54.0003845 L24.9997559,48.9998169 L32.9995117,48.9998169 L32.9995117,54.0003845 C32.9995117,54.5519016 33.4470106,55 33.9998291,55 Z" id="Fill-4" fill="#227ACD"></path>
                            <g id="Group-8">
                                <mask id="mask-2" fill="white">
                                    <use xlink:href="#path-1"></use>
                                </mask>
                                <g id="Clip-6"></g>
                                <path d="M52.0656293,17.6969854 C52.6092927,17.6969854 53.048339,17.2578589 53.048339,16.7173844 C53.048339,16.1761922 52.6092927,15.7372092 52.0656293,15.7372092 L48.1365171,15.7372092 C47.5928537,15.7372092 47.1539512,16.1761922 47.1539512,16.7173844 C47.1539512,17.2578589 47.5928537,17.6969854 48.1365171,17.6969854 L52.0656293,17.6969854 Z" id="Fill-5" fill="#227ACD" mask="url(#mask-2)"></path>
                                <path d="M54.0303293,0.0574209246 L4.91182195,0.0574209246 C2.20343415,0.0574209246 0,2.25549392 0,4.95729197 L0,10.8373382 C0,11.3783869 0.440197561,11.8175134 0.982565854,11.8175134 L54.0303293,11.8175134 C54.5738488,11.8175134 55.0128951,11.3783869 55.0128951,10.8373382 C55.0128951,10.296146 54.5738488,9.85716302 54.0303293,9.85716302 L1.9645561,9.85716302 L1.9645561,4.95729197 C1.9645561,3.33672993 3.28730732,2.01719708 4.91182195,2.01719708 L54.0309049,2.01719708 C55.6554195,2.01719708 56.9774512,3.33672993 56.9774512,4.95729197 L56.9774512,53.9568637 C56.9774512,55.5774258 55.6554195,56.8962409 54.0309049,56.8962409 L4.91182195,56.8962409 C3.28730732,56.8962409 1.9645561,55.5774258 1.9645561,53.9568637 L1.9645561,14.7568905 C1.9645561,14.2164161 1.52450244,13.7772895 0.982565854,13.7772895 C0.440197561,13.7772895 0,14.2164161 0,14.7568905 L0,53.9562895 C0,56.6585182 2.20343415,58.8567348 4.91182195,58.8567348 L54.0309049,58.8567348 C56.7391488,58.8567348 58.9427268,56.6585182 58.9427268,53.9562895 L58.9427268,4.95729197 C58.9427268,2.25549392 56.7391488,0.0574209246 54.0303293,0.0574209246 Z" id="Fill-7" fill="#227ACD" mask="url(#mask-2)"></path>
                            </g>
                            <path d="M10,22.999764 L10,38.9997965 C10,39.5520471 10.4367516,40 10.9751928,40 L20.7249786,40 C20.9833447,40 21.2309991,39.8948234 21.414669,39.7070289 L28.5250928,32.413659 L31.7357452,35.706801 C32.1167959,36.0982104 32.7333612,36.0982104 33.1142691,35.706801 L38.2748786,30.413838 L43.4360594,35.706801 C43.8171101,36.0982104 44.4335326,36.0982104 44.8145833,35.706801 C45.195634,35.3159775 45.195634,34.6835993 44.8145833,34.2927758 L38.9644262,28.292727 C38.5833754,27.9019035 37.966953,27.9019035 37.5859023,28.292727 L32.4252928,33.5861294 L29.2146404,30.2931339 C28.8330184,29.9023104 28.2170245,29.9023104 27.8359737,30.2931339 L20.3216475,38.000179 L11.9503856,38.000179 L11.9503856,23.9999674 L47.0501857,23.9999674 L47.0501857,38.000179 L26.5751357,38.000179 C26.0368372,38.000179 25.5999429,38.4482784 25.5999429,38.9997965 C25.5999429,39.5520471 26.0368372,40 26.5751357,40 L48.0253785,40 C48.5642482,40 49,39.5520471 49,38.9997965 L49,22.999764 C49,22.4480993 48.5642482,22 48.0253785,22 L10.9751928,22 C10.4367516,22 10,22.4480993 10,22.999764 Z" id="Fill-9" fill="#227ACD"></path>
                            <path d="M35.9998291,18 C36.5530871,18 37,17.5518605 37,17.000293 C37,16.447993 36.5530871,16 35.9998291,16 L32.0001709,16 C31.4469129,16 31,16.447993 31,17.000293 C31,17.5518605 31.4469129,18 32.0001709,18 L35.9998291,18 Z" id="Fill-10" fill="#227ACD"></path>
                            <path d="M18,6.00029295 C18,7.10282701 18.8971401,8 20.0002197,8 C21.1027134,8 22,7.10341292 22,6.00029295 C22,4.89717299 21.1027134,4 20.0002197,4 C18.8971401,4 18,4.89717299 18,6.00029295 Z" id="Fill-11" fill="#227ACD"></path>
                            <path d="M20.9996826,55 C21.5519152,55 22,54.5519016 22,54.0003845 L22,48.0002014 C22,47.447952 21.5519152,47 20.9996826,47 L11.0001709,47 C10.4479383,47 10,47.447952 10,48.0002014 L10,54.0003845 C10,54.5519016 10.4479383,55 11.0001709,55 C11.552257,55 12.0003418,54.5519016 12.0003418,54.0003845 L12.0003418,48.9998169 L20.0000977,48.9998169 L20.0000977,54.0003845 C20.0000977,54.5519016 20.4481824,55 20.9996826,55 Z" id="Fill-12" fill="#227ACD"></path>
                            <path d="M14.9996484,16 L6.99961914,16 C6.44810008,16 6,16.447993 6,17.000293 C6,17.5518605 6.44810008,18 6.99961914,18 L14.9996484,18 C15.5518999,18 16,17.5518605 16,17.000293 C16,16.447993 15.5518999,16 14.9996484,16 Z" id="Fill-13" fill="#227ACD"></path>
                            <path d="M12,6.00029295 C12,7.10282701 12.8966856,8 13.9999268,8 C15.1031679,8 16,7.10341292 16,6.00029295 C16,4.89717299 15.1031679,4 13.9999268,4 C12.8966856,4 12,4.89717299 12,6.00029295 Z" id="Fill-14" fill="#227ACD"></path>
                            <path d="M6,6.00029295 C6,7.10282701 6.89668559,8 7.99992675,8 C9.10331441,8 10,7.10341292 10,6.00029295 C10,4.89717299 9.10331441,4 7.99992675,4 C6.89668559,4 6,4.89717299 6,6.00029295 Z" id="Fill-15" fill="#227ACD"></path>
                            <path d="M35,42.000293 C35,41.447993 34.5529085,41 34.0024847,41 L33.9922537,41 C33.441976,41 33,41.447993 33,42.000293 C33,42.5518605 33.4516223,43 34.0024847,43 C34.5529085,43 35,42.5524465 35,42.000293 Z" id="Fill-16" fill="#227ACD"></path>
                            <path d="M31,42.0002927 C31,41.4479928 30.5530065,41 30.0022649,41 L29.9926207,41 C29.441733,41 29,41.4479928 29,42.0002927 C29,42.5518601 29.4507927,42.9999994 30.0022649,42.9999994 C30.5530065,43.0005854 31,42.5524461 31,42.0002927 Z" id="Fill-17" fill="#227ACD"></path>
                            <path d="M16,29.0000732 C16,30.6542809 17.3457191,32 18.9999268,32 C20.6535485,32 22,30.6542809 22,29.0000732 C22,27.3464515 20.6535485,26 18.9999268,26 C17.3457191,26 16,27.3464515 16,29.0000732 Z M20.0000977,29.0000732 C20.0000977,29.5509875 19.5509875,30.0002441 18.9999268,30.0002441 C18.448866,30.0002441 17.9997559,29.5509875 17.9997559,29.0000732 C17.9997559,28.4490125 18.448866,28.0003418 18.9999268,28.0003418 C19.5509875,27.9999023 20.0000977,28.4490125 20.0000977,29.0000732 Z" id="Fill-18" fill="#227ACD"></path>
                        </g>
                        <rect id="Rectangle-11" fill-opacity="0.3" fill="url(#linearGradient-3)" x="10" y="23" width="38" height="16"></rect>
                        <rect id="Rectangle-12" fill-opacity="0.3" fill="url(#linearGradient-3)" x="2" y="2" width="56" height="9" rx="2"></rect>
                    </g>
                </g>
            </g>
        </g>
    </g>
</svg>