<?xml version="1.0" encoding="UTF-8"?>
<svg width="66px" height="51px" viewBox="0 0 66 51" version="1.1" xmlns="http://www.w3.org/2000/svg" xmlns:xlink="http://www.w3.org/1999/xlink">
    <!-- Generator: Sketch 47.1 (45422) - http://www.bohemiancoding.com/sketch -->
    <title>icon</title>
    <desc>Created with Sketch.</desc>
    <defs>
        <linearGradient x1="0%" y1="0%" x2="100%" y2="59.6518555%" id="linearGradient-1">
            <stop stop-color="#36ABEF" offset="0%"></stop>
            <stop stop-color="#2279CD" offset="100%"></stop>
        </linearGradient>
    </defs>
    <g id="jetskills-landing" stroke="none" stroke-width="1" fill="none" fill-rule="evenodd">
        <g transform="translate(-199.000000, -3070.000000)" id="what-in-return">
            <g transform="translate(175.000000, 2886.000000)">
                <g id="1" transform="translate(0.000000, 135.000000)">
                    <g id="icon" transform="translate(18.000000, 37.000000)">
                        <path d="M21.1087539,44 C21.1087539,44 16.4058359,40.5939413 7,33.7818239 L7.80038321,31.0394601 L70,13 C37.4058359,33.6666667 21.1087539,44 21.1087539,44 Z" id="Path-9" fill-opacity="0.3" fill="url(#linearGradient-1)"></path>
                        <polygon id="Path-10" fill-opacity="0.3" fill="url(#linearGradient-1)" points="29 48.716337 47.9131848 61 50.4522941 60.0718054 71 14"></polygon>
                        <path d="M65.9983054,6.89462378 C65.9963129,6.87259057 65.9872882,6.85161214 65.9833033,6.82957893 C65.973341,6.76758122 65.965254,6.70359115 65.9422821,6.6445234 C65.9412273,6.6385463 65.9352499,6.63256921 65.9323198,6.62448255 C65.92435,6.60350412 65.9093479,6.58545564 65.9003232,6.56447721 C65.8853212,6.53341976 65.8692643,6.50552666 65.8522698,6.47540679 C65.8233205,6.43040278 65.7922616,6.38645356 65.7562801,6.34543429 C65.745263,6.33242532 65.7423329,6.3164864 65.7313158,6.30546979 C65.7172513,6.29046846 65.6982644,6.28648373 65.6852548,6.27241998 C65.6711904,6.26046579 65.6602904,6.24440967 65.646226,6.23245548 C65.6382562,6.22647839 65.6342713,6.21639937 65.6261842,6.21042227 C65.6241918,6.20842991 65.6221993,6.20842991 65.6202068,6.20737513 C65.6162219,6.20432798 65.6142295,6.20139803 65.6111822,6.19835089 C65.5621911,6.16037876 65.505113,6.13635318 65.4501445,6.10939766 C65.4281103,6.09744347 65.4081857,6.08244214 65.3850966,6.07236311 C65.3590774,6.06240129 65.3330582,6.056307 65.3070391,6.04833754 C65.2750425,6.03732093 65.2419911,6.03228142 65.2080021,6.02536675 C65.1579562,6.01540492 65.1080275,6.00333353 65.0579816,6.00040359 C65.025985,5.99841122 64.9959809,6.00438832 64.964922,6.0054431 C64.9609371,6.0054431 64.9569522,6.00649788 64.9529673,6.00649788 C64.9209707,6.00743546 64.8909666,6.00649788 64.8599077,6.01153739 C64.8098618,6.01856927 64.7628632,6.0335706 64.7138721,6.04857193 C64.6798831,6.05853376 64.6478865,6.06861278 64.6138975,6.08255933 C64.5918632,6.09252116 64.5678365,6.0955683 64.5459195,6.10658491 L8.53846364,35.1092045 C6.8882382,35.9642806 5.96315089,37.2543954 6.00112483,38.6504571 C6.0371063,39.9975301 6.98024296,41.1846279 8.60444921,41.9167634 L19.4099097,46.5471363 C19.9129472,46.7651245 20.5061142,46.5301426 20.7230579,46.0220896 C20.9401188,45.5150914 20.7050085,44.9269922 20.1969313,44.709004 L9.40940293,40.0855458 C8.52826693,39.6884792 8.01620479,39.1455012 8.00026512,38.5964289 C7.98420823,38.0053997 8.52932176,37.3663194 9.4585112,36.8852219 L59.2354284,11.1090613 L22.310345,46.2741824 C22.3083525,46.2772295 22.3072977,46.2812142 22.3043676,46.2832066 C22.2373272,46.3482514 22.1923211,46.4292352 22.1463773,46.5092814 C22.1273903,46.5423312 22.0973862,46.5703415 22.0813293,46.6043289 C22.0673821,46.6383163 22.0683198,46.6762884 22.0583575,46.7113306 C22.0303458,46.8023934 22.003389,46.893339 22.0023342,46.9873317 C22.0023342,46.9913165 22.0003417,46.9943636 22.0003417,46.9983483 L22.0003417,64.9999501 C22.0003417,65.09699 22.0163986,65.1909827 22.0423006,65.2819283 C22.0433554,65.2849754 22.0433554,65.2889602 22.044293,65.2929449 C22.0782821,65.4029938 22.1362978,65.5029636 22.2053307,65.5960187 C22.2253725,65.6229743 22.249282,65.6460623 22.2723711,65.6699706 C22.3334341,65.7359531 22.4014121,65.7930285 22.4784148,65.8400248 C22.4984566,65.8530338 22.5094738,65.8720199 22.5293984,65.8819817 C22.5463929,65.8910059 22.5653798,65.8949907 22.5814367,65.9020225 C22.5944463,65.9079996 22.603471,65.9180786 22.6174182,65.9240557 C22.6313654,65.9300328 22.6454298,65.9271029 22.6604319,65.9320252 C22.7724784,65.9730445 22.8865175,66 22.9995016,66 L23.0005565,66 L23.0014941,66 C23.1175256,65.9989452 23.2285173,65.9730445 23.3365789,65.9340176 C23.3645906,65.9240557 23.3915474,65.9119844 23.4186214,65.8989754 C23.5176584,65.8539714 23.6096631,65.7949036 23.6906508,65.7189594 C23.6946357,65.7139199 23.7026055,65.7119275 23.7076453,65.7070052 L23.7176076,65.6970434 C23.7186624,65.6959886 23.7196,65.695051 23.7206549,65.6939962 L33.7089725,55.7061544 C34.0999634,55.3151821 34.0999634,54.6830165 33.7089725,54.2920442 C33.3178644,53.9009547 32.6857858,53.9009547 32.2947949,54.2920442 L27.0471249,59.5394642 L31.8447334,50.5446404 L63.1459235,10.9599855 L53.8666871,54.8179113 C53.6917023,55.6619708 53.2996566,56.269056 52.7335636,56.5730675 C52.1215269,56.9011045 51.3244258,56.883056 50.4152781,56.5210316 L34.9830918,50.4825255 C34.4710297,50.2824687 33.8899347,50.535499 33.6869382,51.0495291 C33.4859342,51.5635592 33.7399142,52.1446266 34.2550236,52.345621 L49.6801777,58.3801423 C50.3842192,58.6621205 51.0833382,58.8032268 51.7454208,58.8032268 C52.4414924,58.8032268 53.0986525,58.6472364 53.6796303,58.3351383 C54.7688026,57.751141 55.5308598,56.6459646 55.8249234,55.2288072 L65.9852958,7.20156515 C65.9932656,7.16160066 65.9892807,7.12058138 65.992328,7.07956211 C65.9953753,7.04557471 66.0002978,7.01357967 65.9993602,6.97853749 C65.9993602,6.95064439 66.0013527,6.92263408 65.9983054,6.89462378 Z M30.2173627,49.3784039 C30.1983757,49.4013747 30.193336,49.4313773 30.1783339,49.4564577 C30.1602846,49.4824756 30.1343826,49.4994693 30.1183257,49.5274796 L24.0005368,60.9984612 L24.0005368,47.426238 L55.4227982,17.5016222 L30.2173627,49.3784039 Z" id="Shape" fill="#227ACD" fill-rule="nonzero" transform="translate(36.000000, 36.000000) rotate(12.000000) translate(-36.000000, -36.000000) "></path>
                    </g>
                </g>
            </g>
        </g>
    </g>
</svg>