<?xml version="1.0" encoding="UTF-8"?>
<svg width="62px" height="62px" viewBox="0 0 62 62" version="1.1" xmlns="http://www.w3.org/2000/svg" xmlns:xlink="http://www.w3.org/1999/xlink">
    <!-- Generator: Sketch 47.1 (45422) - http://www.bohemiancoding.com/sketch -->
    <title>icon</title>
    <desc>Created with Sketch.</desc>
    <defs>
        <linearGradient x1="0%" y1="0%" x2="100%" y2="59.6518555%" id="linearGradient-1">
            <stop stop-color="#36ABEF" offset="0%"></stop>
            <stop stop-color="#2279CD" offset="100%"></stop>
        </linearGradient>
    </defs>
    <g id="jetskills-landing" stroke="none" stroke-width="1" fill="none" fill-rule="evenodd">
        <g transform="translate(-439.000000, -3575.000000)" id="what-in-return">
            <g transform="translate(175.000000, 2886.000000)">
                <g id="4" transform="translate(240.000000, 645.000000)">
                    <g id="icon" transform="translate(24.000000, 44.000000)">
                        <path d="M56.7776341,0.0604878049 L5.16157561,0.0604878049 C2.46321463,0.0604878049 0.197341463,2.29747805 0,5.22206341 L0,32.062922 C0,32.6324146 0.462580488,33.0948439 1.03252683,33.0948439 C1.60201951,33.0948439 2.06444878,32.6324146 2.06444878,32.062922 L2.06278537,5.29238049 C2.16909268,3.73587805 3.35692195,2.12493659 5.16157561,2.12493659 L56.778239,2.12493659 C58.4853561,2.12493659 59.8746098,3.51494634 59.8746098,5.22206341 L59.8746098,42.3860732 C59.8746098,44.1509561 58.5443317,45.4830488 56.778239,45.4830488 L5.16157561,45.4830488 C3.39654146,45.4830488 2.06444878,44.1509561 2.06444878,42.3860732 L2.06444878,37.2244976 L56.778239,37.2244976 C57.1018488,37.2244976 57.4067073,37.0726732 57.602839,36.8133317 C57.7965512,36.5552 57.859761,36.2196439 57.7699366,35.9078293 C55.6818976,28.5960634 51.9042829,23.2248976 51.7967659,23.081239 C51.4140293,22.4173854 50.7365659,21.9117073 49.9408488,21.6931951 C49.1321268,21.4686341 48.2809122,21.5667756 47.6034488,21.9572244 C47.2815024,22.1438293 46.9967561,22.3936439 46.7634244,22.6891268 C46.2867805,22.169839 45.6713171,21.7942098 44.9729854,21.6074537 C44.0036683,21.3481122 42.9941268,21.4810341 42.1300585,21.9820244 C41.4666585,22.3641561 40.9479756,22.9253317 40.6248195,23.6005268 C40.3093756,23.4003122 39.960361,23.2478829 39.5894195,23.1486829 C38.6235805,22.8893415 37.6117707,23.0222634 36.7445268,23.5231024 C36.1231659,23.8816439 35.628678,24.3985122 35.3026488,25.0182098 L29.131078,16.4340829 C27.1798927,13.7706537 25.1745707,14.5178293 24.4030488,14.9645317 C23.5235561,15.4718732 22.9422683,16.2834683 22.7656439,17.2487024 C22.6067122,18.1241122 22.7928634,19.0781561 23.3036829,19.9623366 L31.120522,32.6058 C31.4205415,33.090761 32.056722,33.239561 32.5416829,32.9412049 C33.026039,32.6405805 33.1778634,32.0044 32.877239,31.519439 L25.0758244,18.9031951 C24.8241951,18.4690439 24.7262049,18.0125122 24.7969756,17.6184341 C24.8644195,17.2487024 25.0794537,16.9574537 25.4355756,16.7519463 C25.7221366,16.5859073 26.3971805,16.1966683 27.4599512,17.6462585 L35.4272537,28.7295902 C35.7504098,29.1773512 36.3652683,29.2948488 36.8272439,28.9948293 C37.2886146,28.6964732 37.4362049,28.0869073 37.1603805,27.611322 C36.9353659,27.2220829 36.8756341,26.7678195 36.9920732,26.3330634 C37.1089659,25.8983073 37.3872098,25.535078 37.7764488,25.3100634 C38.165839,25.0861073 38.6188927,25.0253171 39.0548585,25.1416049 C39.4896146,25.2586488 39.8516341,25.5374976 40.0766488,25.9261317 L40.7548683,27.1021659 L40.7548683,27.1033756 C41.0406732,27.5966537 41.6698976,27.7655659 42.1660488,27.4808195 C42.6593268,27.1960732 42.8288439,26.5641268 42.5440976,26.0708488 L42.5428878,26.0684293 C42.318478,25.6791902 42.2587463,25.2261366 42.3757902,24.7925902 C42.492078,24.3578341 42.7709268,23.9956634 43.1613756,23.769439 C43.5512195,23.5456341 44.004878,23.4859024 44.4390293,23.6011317 C44.8737854,23.7180244 45.2359561,23.9968732 45.4621805,24.3861122 L46.4798878,26.1499366 C46.7670537,26.6444244 47.3979415,26.8139415 47.892278,26.5279854 C48.3849512,26.2421805 48.5532585,25.6112927 48.2691171,25.1180146 L48.2691171,25.1168049 C48.1445122,24.9007122 48.1132098,24.6241317 48.1864,24.3578341 C48.2591366,24.0913854 48.423361,23.868639 48.6359756,23.7458488 C48.8404244,23.6283512 49.1144341,23.6052146 49.392678,23.682639 C49.6662341,23.7582488 49.8959366,23.9183902 50.0595561,24.1936098 C50.0944878,24.2432098 53.3367854,28.8631171 55.3817268,35.1592927 L1.03252683,35.1592927 C0.462580488,35.1592927 0,35.6218732 0,36.1913659 L0,42.3854683 C0,45.2798098 2.26708293,47.5468927 5.16157561,47.5468927 L56.778239,47.5468927 C59.6725805,47.5468927 61.9398146,45.2798098 61.9398146,42.3854683 L61.9398146,5.22145854 C61.9398146,2.37596098 59.6241902,0.0604878049 56.7776341,0.0604878049 Z" id="Fill-1" fill="#227ACD"></path>
                        <path d="M22.1577415,12.5013171 L19.2386,9.58081463 C18.8345415,9.17796585 18.181122,9.17796585 17.778878,9.58081463 C17.3748195,9.98305854 17.3748195,10.6375366 17.778878,11.0403854 L20.6981707,13.9608878 C20.8995951,14.1623122 21.1636244,14.2633268 21.4276537,14.2633268 C21.6922878,14.2633268 21.9563171,14.1623122 22.1577415,13.9608878 C22.5605902,13.558039 22.5605902,12.903561 22.1577415,12.5013171 Z" id="Fill-4" fill="#227ACD"></path>
                        <path d="M40.2603805,55.8062 L37.1640098,55.8062 L37.1640098,50.6446244 C37.1640098,50.0745268 36.7020341,49.6120976 36.1314829,49.6120976 C35.5607805,49.6120976 35.0988049,50.0745268 35.0988049,50.6446244 L35.0988049,56.838122 C35.0988049,57.4080683 35.5607805,57.8706488 36.1314829,57.8706488 L40.2603805,57.8706488 C41.4199317,57.8706488 42.6296878,58.8139561 43.1253854,59.9350976 L18.8138244,59.9350976 C19.3093707,58.8139561 20.5197317,57.8706488 21.678678,57.8706488 L32.0018293,57.8706488 C32.5729854,57.8706488 33.0343561,57.4080683 33.0343561,56.838122 C33.0343561,56.2686293 32.5729854,55.8062 32.0018293,55.8062 L26.8402537,55.8062 L26.8402537,50.6446244 C26.8402537,50.0745268 26.3778244,49.6120976 25.8083317,49.6120976 C25.2382341,49.6120976 24.7758049,50.0745268 24.7758049,50.6446244 L24.7758049,55.8062 L21.678678,55.8062 C19.0258341,55.8062 16.5172537,58.3147805 16.5172537,60.9676244 C16.5172537,61.537722 16.9796829,62.0003024 17.5497805,62.0003024 L44.3900341,62.0003024 C44.9605854,62.0003024 45.4219561,61.537722 45.4219561,60.9676244 C45.422561,58.3147805 42.9138293,55.8062 40.2603805,55.8062 Z" id="Fill-5" fill="#227ACD"></path>
                        <path d="M20.6981707,21.2601024 L17.778878,24.1787902 C17.3748195,24.581639 17.3748195,25.2355122 17.778878,25.6385122 C17.9796976,25.8409951 18.2443317,25.9409512 18.5085122,25.9409512 C18.7725415,25.9409512 19.0359659,25.8403902 19.2386,25.6385122 L22.1577415,22.7198244 C22.5605902,22.3175805 22.5605902,21.664161 22.1577415,21.2601024 C21.7542878,20.8578585 21.1004146,20.8578585 20.6981707,21.2601024 Z" id="Fill-6" fill="#227ACD"></path>
                        <path d="M28.9048537,41.3533951 C28.9048537,42.4923805 29.8310732,43.4179951 30.9699073,43.4179951 C32.1093463,43.4179951 33.0343561,42.4923805 33.0343561,41.3533951 C33.0343561,40.214561 32.1093463,39.2889463 30.9699073,39.2889463 C29.8310732,39.2889463 28.9048537,40.214561 28.9048537,41.3533951 Z" id="Fill-7" fill="#227ACD"></path>
                        <path d="M30.9160732,13.9608878 L33.8365756,11.0409902 C34.2400293,10.6387463 34.2400293,9.98426829 33.8365756,9.58141951 C33.4337268,9.17796585 32.7803073,9.17796585 32.3768537,9.58141951 L29.4565024,12.5013171 C29.0536537,12.903561 29.0536537,13.5574341 29.4565024,13.9608878 C29.6579268,14.1623122 29.9219561,14.2633268 30.1859854,14.2633268 C30.4506195,14.2633268 30.7146488,14.1623122 30.9160732,13.9608878 Z" id="Fill-8" fill="#227ACD"></path>
                        <path d="M26.8396488,11.4161659 L26.8396488,7.2865122 C26.8396488,6.71717073 26.3772195,6.25459024 25.807122,6.25459024 C25.2371756,6.25459024 24.7745951,6.71717073 24.7745951,7.2865122 L24.7745951,11.4161659 C24.7745951,11.9855073 25.2371756,12.4480878 25.807122,12.4480878 C26.3772195,12.4480878 26.8396488,11.9861122 26.8396488,11.4161659 Z" id="Fill-9" fill="#227ACD"></path>
                        <path d="M14.4526537,17.6102683 C14.4526537,18.1796098 14.9152341,18.6421902 15.4845756,18.6421902 L19.6130195,18.6421902 C20.1831171,18.6421902 20.6455463,18.1808195 20.6455463,17.6102683 C20.6455463,17.0401707 20.1831171,16.5777415 19.6130195,16.5777415 L15.4845756,16.5777415 C14.9152341,16.5777415 14.4526537,17.0401707 14.4526537,17.6102683 Z" id="Fill-10" fill="#227ACD"></path>
                        <polygon id="Path-12" fill-opacity="0.3" fill="url(#linearGradient-1)" points="1.14550781 36.1870117 60.8603516 36.1870117 60.8603516 44.1889648 58.2939453 46.5703125 4.85534597 46.5703125 2.07226562 44.9580078"></polygon>
                        <polygon id="Path-13" fill-opacity="0.3" fill="url(#linearGradient-1)" points="25.9760742 46.1445312 25.9760742 56.4407658 20.8706055 57.3618164 17.0390625 60.3920898 44.0698242 61.0405273 44.0698242 58.6591797 40.4560547 56.4407658 36.2856445 56.4407658 36.2856445 46.1445312"></polygon>
                    </g>
                </g>
            </g>
        </g>
    </g>
</svg>