<?xml version="1.0" encoding="UTF-8"?>
<svg width="62px" height="62px" viewBox="0 0 62 62" version="1.1" xmlns="http://www.w3.org/2000/svg" xmlns:xlink="http://www.w3.org/1999/xlink">
    <!-- Generator: Sketch 47.1 (45422) - http://www.bohemiancoding.com/sketch -->
    <title>icon</title>
    <desc>Created with Sketch.</desc>
    <defs>
        <linearGradient x1="0%" y1="0%" x2="100%" y2="59.6518555%" id="linearGradient-1">
            <stop stop-color="#36ABEF" offset="0%"></stop>
            <stop stop-color="#2279CD" offset="100%"></stop>
        </linearGradient>
    </defs>
    <g id="jetskills-landing" stroke="none" stroke-width="1" fill="none" fill-rule="evenodd">
        <g transform="translate(-199.000000, -3393.000000)" id="what-in-return">
            <g transform="translate(175.000000, 2886.000000)">
                <g id="3" transform="translate(0.000000, 465.000000)">
                    <g id="icon" transform="translate(24.000000, 42.000000)">
                        <circle id="Oval-5" fill="url(#linearGradient-1)" opacity="0.3" cx="41.5" cy="16.5" r="15.5"></circle>
                        <path d="M41.2527212,33.0030955 C50.3510097,33.0030955 57.7537856,25.6003197 57.7537856,16.5020312 C57.7537856,7.40374269 50.3510097,0.000966861598 41.2527212,0.000966861598 C32.1544327,0.000966861598 24.7516569,7.40374269 24.7516569,16.5020312 C24.7516569,25.6003197 32.1544327,33.0030955 41.2527212,33.0030955 Z M41.2527212,2.06352437 C49.2144639,2.06352437 55.6912281,8.54016764 55.6912281,16.5020312 C55.6912281,24.4638947 49.2145848,30.940538 41.2527212,30.940538 C33.2908577,30.940538 26.8142144,24.4638947 26.8142144,16.5020312 C26.8142144,8.54016764 33.2909786,2.06352437 41.2527212,2.06352437 Z" id="Shape" fill="#227ACD" fill-rule="nonzero"></path>
                        <path d="M61.3263392,43.3163665 C60.1888265,41.3444522 57.6568577,40.6710331 55.7561287,41.7725302 L43.8856062,47.5500117 C42.0405926,48.4730019 40.1780546,48.4730019 36.0960858,48.4730019 C32.1059688,48.4730019 26.0138947,47.4654113 25.9531033,47.4561053 C25.3859181,47.3643743 24.8588577,47.7427797 24.766039,48.3028343 C24.6721326,48.8649435 25.0517466,49.3970799 25.612768,49.4898986 C25.8695906,49.5331657 31.9337466,50.5356803 36.0960858,50.5356803 C40.3780741,50.5356803 42.5274074,50.5356803 44.7983236,49.4002222 L56.722386,43.5928889 C57.198807,43.317575 57.7547524,43.2443353 58.2879766,43.3865848 C58.8191462,43.529922 59.2646277,43.871345 59.5389747,44.3477661 C59.8153762,44.8252749 59.888616,45.3810994 59.7462456,45.9133567 C59.6038752,46.445614 59.2625731,46.8900078 58.7561793,47.1829669 L44.8117388,55.8615166 C44.7828538,55.8810955 41.8074581,57.7549942 35.064807,57.7549942 C29.2192827,57.7549942 20.1860156,52.7778324 20.0559727,52.7066472 C19.963154,52.6613255 17.7261988,51.5670799 13.4071072,51.5670799 C12.8378674,51.5670799 12.3758285,52.0291189 12.3758285,52.5983587 C12.3758285,53.1675984 12.8378674,53.6296374 13.4071072,53.6296374 C17.1580468,53.6296374 19.0906823,54.5320819 19.0947914,54.5320819 L19.0947914,54.5309942 C19.4835906,54.7475712 28.6829162,59.8175517 35.064807,59.8175517 C42.5109708,59.8175517 45.8131657,57.6724483 45.9225419,57.5992086 L59.8164639,48.9515984 C60.7703938,48.4008499 61.4531189,47.5108538 61.7378596,46.4475478 C62.0245341,45.3820663 61.8770877,44.2702963 61.3263392,43.3163665 Z" id="Shape" fill="#227ACD" fill-rule="nonzero"></path>
                        <path d="M41.2527212,21.6586667 C40.1152086,21.6586667 39.1900429,20.7336218 39.1900429,19.5959883 C39.1900429,19.0267485 38.7290916,18.5647096 38.1587641,18.5647096 C37.5884366,18.5647096 37.1274854,19.0267485 37.1274854,19.5959883 C37.1274854,21.5121871 38.4465263,23.1137934 40.2214425,23.5748655 L40.2214425,23.721345 C40.2214425,24.2905848 40.6823938,24.7526238 41.2527212,24.7526238 C41.8230487,24.7526238 42.284,24.2905848 42.284,23.721345 L42.284,23.5748655 C44.0589162,23.1139142 45.3779571,21.5121871 45.3779571,19.5959883 C45.3779571,17.3208421 43.5277466,15.4707524 41.2527212,15.4707524 C40.1152086,15.4707524 39.1900429,14.5457076 39.1900429,13.4080741 C39.1900429,12.2705614 40.1150877,11.3453957 41.2527212,11.3453957 C42.3902339,11.3453957 43.3153996,12.2704405 43.3153996,13.4080741 C43.3153996,13.9773138 43.7763509,14.4393528 44.3466784,14.4393528 C44.9170058,14.4393528 45.3779571,13.9773138 45.3779571,13.4080741 C45.3779571,11.4918752 44.0589162,9.89026901 42.284,9.42919688 L42.284,9.28271735 C42.284,8.71347758 41.8230487,8.2514386 41.2527212,8.2514386 C40.6823938,8.2514386 40.2214425,8.71347758 40.2214425,9.28271735 L40.2214425,9.42919688 C38.4465263,9.89014815 37.1274854,11.4918752 37.1274854,13.4080741 C37.1274854,15.6832203 38.9776959,17.5333099 41.2527212,17.5333099 C42.3902339,17.5333099 43.3153996,18.4583548 43.3153996,19.5959883 C43.3153996,20.733501 42.3903548,21.6586667 41.2527212,21.6586667 Z" id="Shape" fill="#227ACD" fill-rule="nonzero"></path>
                        <path d="M7.21919298,33.0030955 L1.03127875,33.0030955 C0.462038986,33.0030955 -1.33521091e-14,33.4651345 -1.33521091e-14,34.0343743 C-1.33521091e-14,34.603614 0.462038986,35.065653 1.03127875,35.065653 L7.21919298,35.065653 C7.78746589,35.065653 8.25047173,35.5286589 8.25047173,36.0969318 L8.25047173,58.7859103 C8.25047173,59.3541832 7.78746589,59.8171891 7.21919298,59.8171891 L1.03127875,59.8171891 C0.462038986,59.8171891 -1.42108547e-14,60.2792281 -1.42108547e-14,60.8484678 C-1.42108547e-14,61.4177076 0.462038986,61.8797466 1.03127875,61.8797466 L7.21919298,61.8797466 C8.92497856,61.8797466 10.3131501,60.491575 10.3131501,58.7857895 L10.3131501,36.0970526 C10.3131501,34.3912671 8.92497856,33.0030955 7.21919298,33.0030955 Z" id="Shape" fill="#227ACD" fill-rule="nonzero"></path>
                        <path d="M13.4071072,39.1910097 L21.6576998,39.1910097 C22.8612008,39.1910097 24.9063548,40.7256608 26.7111228,42.0786628 C28.9738207,43.77623 31.1117934,45.378924 33.0021287,45.378924 L39.1900429,45.378924 C40.7566004,45.378924 41.5341988,46.0894464 41.5548655,46.1080585 C41.7559727,46.3091657 42.0200468,46.4102027 42.284,46.4102027 C42.5480741,46.4102027 42.8120273,46.3091657 43.0131345,46.1080585 C43.4163158,45.7047563 43.4163158,45.0529708 43.0131345,44.6497895 C42.8770487,44.5137037 41.6105809,43.3162456 39.1900429,43.3162456 L33.0021287,43.3162456 C31.7986277,43.3162456 29.7534737,41.7815945 27.9487057,40.4285926 C25.6860078,38.7310253 23.5480351,37.1283314 21.6576998,37.1283314 L13.4071072,37.1283314 C12.8378674,37.1283314 12.3758285,37.5903704 12.3758285,38.1596101 C12.3758285,38.7288499 12.8378674,39.1910097 13.4071072,39.1910097 Z" id="Shape" fill="#227ACD" fill-rule="nonzero"></path>
                        <path d="M5.15663548,55.1764951 C5.15663548,54.3236023 4.46254971,53.6295166 3.60965692,53.6295166 C2.75676413,53.6295166 2.06267836,54.3236023 2.06267836,55.1764951 C2.06267836,56.0293879 2.75676413,56.7234737 3.60965692,56.7234737 C4.46254971,56.7234737 5.15663548,56.0293879 5.15663548,55.1764951 Z" id="Shape" fill="#227ACD" fill-rule="nonzero"></path>
                    </g>
                </g>
            </g>
        </g>
    </g>
</svg>