<?xml version="1.0" encoding="UTF-8"?>
<svg width="260px" height="76px" viewBox="0 0 260 76" version="1.1" xmlns="http://www.w3.org/2000/svg" xmlns:xlink="http://www.w3.org/1999/xlink">
    <!-- Generator: Sketch 47.1 (45422) - http://www.bohemiancoding.com/sketch -->
    <title>jetskills-logo</title>
    <desc>Created with Sketch.</desc>
    <defs></defs>
    <g id="jetskills-landing" stroke="none" stroke-width="1" fill="none" fill-rule="evenodd">
        <g transform="translate(-510.000000, -120.000000)" id="create-together" fill-rule="nonzero" fill="#FFFFFF">
            <g>
                <g id="jetskills-logo" transform="translate(510.000000, 120.000000)">
                    <path d="M149.67084,12.92 L244.831309,12.92 C253.208746,12.92 260,19.7252718 260,28.12 C260,28.9039097 259.939482,29.6866448 259.818988,30.4611999 L257.363341,46.2465001 C255.924085,55.498267 247.972959,62.32 238.628742,62.32 L150.725538,62.32 L144.983952,68.0734375 C144.272919,68.7859375 143.161931,68.9195314 142.27314,68.3851564 L134.718421,63.8429686 C133.251917,64.6 131.740973,65.2234375 130.18559,65.7132814 L128.052492,74.3078125 C127.785856,75.2875 126.897065,76 125.874956,76 L116.987051,76 C115.964942,76 115.076152,75.2875 114.809514,74.3078125 L112.676417,65.7132814 C111.121034,65.2234375 109.61009,64.6 108.143585,63.8429686 L100.588867,68.3851564 C99.700076,68.9195314 98.5890877,68.7859375 97.8780553,68.0734375 L91.5676428,61.75 C90.8566104,61.0375 90.723292,59.9242186 91.2565663,59.0335936 L95.7893978,51.4632814 C95.0339257,49.99375 94.4117724,48.4796875 93.9229378,46.9210936 L85.3461093,44.7390625 C84.3684398,44.5164061 83.6574074,43.6257811 83.6574074,42.6015625 L83.6574074,33.6953125 C83.6574074,32.6710937 84.3684398,31.7804688 85.3461093,31.5578125 L93.9229378,29.3757812 C94.4117724,27.8171875 95.0339257,26.303125 95.7893978,24.8335938 L91.2565663,17.2632812 C90.723292,16.3726562 90.8566104,15.259375 91.5676428,14.546875 L97.8780553,8.2234375 C98.5890877,7.5109375 99.700076,7.37734375 100.588867,7.91171875 L108.143585,12.4539063 C109.61009,11.696875 111.121034,11.0734375 112.676417,10.5835938 L114.809514,1.6921875 C115.076151,0.7125 115.964942,0 116.987051,0 L125.874956,0 C126.897065,0 127.785856,0.7125 128.052492,1.6921875 L130.18559,10.5835938 C131.740973,11.0734375 133.251917,11.696875 134.718421,12.4539063 L142.27314,7.91171875 C143.161931,7.37734375 144.272919,7.5109375 144.983952,8.2234375 L149.67084,12.92 Z M116.233709,33.3734689 C115.392602,33.1547413 114.707517,32.9360169 114.178434,32.7172893 C113.64935,32.4985616 113.19828,32.1773102 112.825208,31.7535253 C112.452136,31.3297405 112.265604,30.7692593 112.265604,30.0720649 C112.49623,28.9647562 113.113484,28.0830235 114.117386,27.4268406 C115.121288,26.7706576 116.396495,26.442571 117.943047,26.442571 C119.77449,26.442571 121.002216,26.6954711 121.626263,27.2012788 C122.25031,27.7070865 122.918438,28.4657867 123.630665,29.4774021 C124.342893,30.4890175 125.112766,30.9948176 125.940307,30.9948176 C126.79498,30.9948176 127.58181,30.7419175 128.300821,30.2361098 C129.019832,29.7303021 129.467511,29.0536236 129.643872,28.2060539 C129.698137,27.8779624 129.725269,27.6113921 129.725269,27.406335 C129.725269,26.2306738 129.226717,25.1609749 128.229598,24.1972062 C127.23248,23.2334375 125.950489,22.4781549 124.383588,21.9313358 C122.816687,21.3845166 121.198937,21.1111111 119.530289,21.1111111 C117.495353,21.1111111 115.490971,21.4323626 113.517083,22.074875 C111.543195,22.7173875 109.840657,23.7392404 108.409419,25.1404645 C106.97818,26.5416885 106.038732,28.3085714 105.591046,30.441166 C105.428251,31.3980995 105.346855,32.1089537 105.346855,32.5737499 C105.346855,33.9681387 105.784359,35.1984633 106.659382,36.2647607 C107.534405,37.331058 109.043627,38.1717798 111.187093,38.7869512 L118.472128,40.7759959 C120.032246,41.1724399 120.812293,42.0131615 120.812293,43.2981868 C120.812293,43.4622323 120.785161,43.6809567 120.730896,43.9543664 C120.581667,44.6652311 120.225559,45.3282393 119.66256,45.9434111 C119.099561,46.5585826 118.360211,47.0541299 117.44449,47.4300682 C116.528769,47.8060062 115.514708,47.9939724 114.402276,47.9939724 C112.855724,47.9939724 111.692437,47.7547427 110.912377,47.2762761 C110.132319,46.7978092 109.464191,46.0732849 108.907975,45.1026807 C108.35176,44.1320769 107.910863,43.4553981 107.585273,43.0726247 C107.259684,42.6898514 106.696693,42.4984676 105.896285,42.4984676 C105.055178,42.4984676 104.305654,42.7650379 103.647692,43.2981868 C102.989729,43.8313353 102.572573,44.5148491 102.396212,45.348748 C102.341947,45.5401348 102.314815,45.8750566 102.314815,46.3535231 C102.314815,47.4745025 102.704838,48.5476189 103.484897,49.5729046 C104.264956,50.5981908 105.479117,51.4389124 107.127415,52.0950956 C108.775714,52.7512783 110.83436,53.0793651 113.303416,53.0793651 C115.297653,53.0793651 117.13246,52.840135 118.807891,52.3616685 C120.483322,51.8832019 121.924713,51.2167761 123.132109,50.3623712 C124.339504,49.5079662 125.329825,48.4929484 126.103101,47.317287 C126.876377,46.1416261 127.405452,44.8566203 127.690343,43.4622315 C127.853138,42.7787078 127.934534,42.0746887 127.934534,41.3501534 C127.934534,40.3385379 127.734435,39.3987065 127.334231,38.5306313 C126.934027,37.6625558 126.262508,36.8901853 125.319654,36.2134966 C124.3768,35.5368079 123.166032,35.0275902 121.687311,34.6858283 L116.233709,33.3734689 Z M131.207287,49.4293656 C131.12589,49.7574569 131.085192,50.0787084 131.085192,50.3931294 C131.085192,51.1723468 131.336163,51.7875091 131.838114,52.2386346 C132.340065,52.6897606 133.018367,52.91532 133.87304,52.91532 C134.578485,52.91532 135.216089,52.7717824 135.785871,52.4847023 C136.355653,52.1976222 136.840639,51.787514 137.240843,51.2543651 C137.641047,50.7212166 137.908977,50.1128893 138.044639,49.4293656 L139.469087,42.5394789 L144.006972,38.704929 L149.29778,51.110826 C149.609804,51.8080204 149.955738,52.2830624 150.335592,52.5359662 C150.715447,52.78887 151.258089,52.91532 151.963533,52.91532 C152.926736,52.91532 153.808529,52.6487497 154.608937,52.1156012 C155.409346,51.5824523 155.931638,50.7280603 156.17583,49.5523994 C156.17583,48.7731821 155.938425,47.8641089 155.463606,46.8251525 L149.84721,33.9681318 L158.434598,26.442571 C159.302838,25.7453766 159.845479,24.9525008 160.062539,24.0639197 C160.062539,23.1069862 159.811567,22.4029671 159.309616,21.9518414 C158.807666,21.5007156 158.170062,21.2751561 157.396786,21.2751561 C156.827004,21.2751561 156.318277,21.4016061 155.870591,21.6545099 C155.422905,21.9074138 154.914179,22.2867639 154.344397,22.7925716 L141.097028,34.8498732 L143.172653,24.7200994 C143.25405,24.3920079 143.294748,24.0844267 143.294748,23.7973467 C143.294748,23.0317999 143.043776,22.4200552 142.541826,21.9620942 C142.039874,21.5041331 141.361573,21.2751561 140.506899,21.2751561 C139.489431,21.2751561 138.600856,21.5895723 137.841146,22.2184144 C137.081437,22.8472563 136.579493,23.681143 136.335301,24.7200994 L131.207287,49.4293656 Z M159.52998,49.4293656 C159.448583,49.7574569 159.407885,50.0787084 159.407885,50.3931294 C159.407885,51.1723468 159.658857,51.7875091 160.160808,52.2386346 C160.662758,52.6897606 161.34106,52.91532 162.195734,52.91532 C162.901178,52.91532 163.538782,52.7717824 164.108564,52.4847023 C164.678346,52.1976222 165.163332,51.787514 165.563536,51.2543651 C165.96374,50.7212166 166.23167,50.1128893 166.367332,49.4293656 L171.495346,24.7200994 C171.576743,24.3920079 171.617441,24.0844267 171.617441,23.7973467 C171.617441,23.0317999 171.36647,22.4200552 170.864519,21.9620942 C170.362568,21.5041331 169.684266,21.2751561 168.829592,21.2751561 C167.812124,21.2751561 166.923549,21.5895723 166.16384,22.2184144 C165.40413,22.8472563 164.902187,23.681143 164.657994,24.7200994 L159.52998,49.4293656 Z M172.692474,48.2810509 C172.570378,49.046598 172.509331,49.497717 172.509331,49.6344216 C172.509331,51.4525953 173.621746,52.3616685 175.84661,52.3616685 L190.111441,52.3616685 C191.142476,52.3616685 192.044617,52.1053509 192.817893,51.592708 C193.591169,51.0800651 194.072763,50.3589581 194.262691,49.4293656 C194.262691,48.4314208 193.998153,47.6966435 193.46907,47.2250118 C192.939986,46.7533802 192.220986,46.5175683 191.312048,46.5175683 L179.896113,46.5175683 L184.433998,24.7200994 C184.515395,24.3920079 184.556093,24.0844267 184.556093,23.7973467 C184.556093,23.0317999 184.305122,22.4200552 183.803171,21.9620942 C183.30122,21.5041331 182.622918,21.2751561 181.768245,21.2751561 C180.750777,21.2751561 179.862201,21.5895723 179.102491,22.2184144 C178.342782,22.8472563 177.840838,23.681143 177.596646,24.7200994 L172.692474,48.2810509 Z M197.92208,48.2810509 C197.799983,49.046598 197.738936,49.497717 197.738936,49.6344216 C197.738936,51.4525953 198.851352,52.3616685 201.076215,52.3616685 L215.341047,52.3616685 C216.372081,52.3616685 217.274223,52.1053509 218.047499,51.592708 C218.820775,51.0800651 219.302369,50.3589581 219.492296,49.4293656 C219.492296,48.4314208 219.227758,47.6966435 218.698675,47.2250118 C218.169591,46.7533802 217.450592,46.5175683 216.541653,46.5175683 L205.125718,46.5175683 L209.663603,24.7200994 C209.745001,24.3920079 209.785699,24.0844267 209.785699,23.7973467 C209.785699,23.0317999 209.534727,22.4200552 209.032776,21.9620942 C208.530825,21.5041331 207.852523,21.2751561 206.99785,21.2751561 C205.980382,21.2751561 205.091806,21.5895723 204.332097,22.2184144 C203.572388,22.8472563 203.070444,23.681143 202.826252,24.7200994 L197.92208,48.2810509 Z M236.276958,33.3734689 C235.435852,33.1547413 234.750767,32.9360169 234.221683,32.7172893 C233.6926,32.4985616 233.241529,32.1773102 232.868457,31.7535253 C232.495386,31.3297405 232.308853,30.7692593 232.308853,30.0720649 C232.539479,28.9647562 233.156734,28.0830235 234.160636,27.4268406 C235.164537,26.7706576 236.439745,26.442571 237.986296,26.442571 C239.817739,26.442571 241.045466,26.6954711 241.669513,27.2012788 C242.29356,27.7070865 242.961687,28.4657867 243.673915,29.4774021 C244.386142,30.4890175 245.156015,30.9948176 245.983556,30.9948176 C246.838229,30.9948176 247.625059,30.7419175 248.34407,30.2361098 C249.063081,29.7303021 249.51076,29.0536236 249.687121,28.2060539 C249.741386,27.8779624 249.768519,27.6113921 249.768519,27.406335 C249.768519,26.2306738 249.269967,25.1609749 248.272848,24.1972062 C247.275729,23.2334375 245.993738,22.4781549 244.426838,21.9313358 C242.859937,21.3845166 241.242187,21.1111111 239.573539,21.1111111 C237.538602,21.1111111 235.53422,21.4323626 233.560332,22.074875 C231.586444,22.7173875 229.883906,23.7392404 228.452668,25.1404645 C227.021429,26.5416885 226.081981,28.3085714 225.634295,30.441166 C225.4715,31.3980995 225.390104,32.1089537 225.390104,32.5737499 C225.390104,33.9681387 225.827609,35.1984633 226.702631,36.2647607 C227.577654,37.331058 229.086876,38.1717798 231.230342,38.7869512 L238.515377,40.7759959 C240.075495,41.1724399 240.855542,42.0131615 240.855542,43.2981868 C240.855542,43.4622323 240.82841,43.6809567 240.774145,43.9543664 C240.624916,44.6652311 240.268808,45.3282393 239.705809,45.9434111 C239.14281,46.5585826 238.403461,47.0541299 237.48774,47.4300682 C236.572018,47.8060062 235.557957,47.9939724 234.445525,47.9939724 C232.898973,47.9939724 231.735685,47.7547427 230.955627,47.2762761 C230.175568,46.7978092 229.507441,46.0732849 228.951225,45.1026807 C228.395009,44.1320769 227.954112,43.4553981 227.628523,43.0726247 C227.302933,42.6898514 226.739942,42.4984676 225.939534,42.4984676 C225.098427,42.4984676 224.348904,42.7650379 223.690941,43.2981868 C223.032978,43.8313353 222.615822,44.5148491 222.439461,45.348748 C222.385196,45.5401348 222.358064,45.8750566 222.358064,46.3535231 C222.358064,47.4745025 222.748088,48.5476189 223.528147,49.5729046 C224.308205,50.5981908 225.522366,51.4389124 227.170664,52.0950956 C228.818963,52.7512783 230.877609,53.0793651 233.346665,53.0793651 C235.340902,53.0793651 237.175709,52.840135 238.85114,52.3616685 C240.526571,51.8832019 241.967962,51.2167761 243.175358,50.3623712 C244.382753,49.5079662 245.373074,48.4929484 246.14635,47.317287 C246.919626,46.1416261 247.448701,44.8566203 247.733592,43.4622315 C247.896387,42.7787078 247.977783,42.0746887 247.977783,41.3501534 C247.977783,40.3385379 247.777684,39.3987065 247.37748,38.5306313 C246.977276,37.6625558 246.305757,36.8901853 245.362904,36.2134966 C244.420049,35.5368079 243.209281,35.0275902 241.73056,34.6858283 L236.276958,33.3734689 Z" id="Combined-Shape"></path>
                    <path d="M16.8838998,27.5445945 L13.7831848,42.2316959 C13.5656976,43.3157749 13.2428698,44.2304527 12.8146918,44.975757 C12.3865138,45.7210613 11.8699894,46.2766433 11.265103,46.6425201 C10.6602166,47.0083964 9.98397739,47.1913321 9.236365,47.1913321 C7.4013164,47.1913321 6.48380589,46.3986112 6.48380589,44.8131458 C6.48380589,44.4879223 6.52458413,44.1423772 6.60614184,43.7765009 C6.74207136,43.1667062 6.81003511,42.6517766 6.81003511,42.2316959 C6.81003511,40.5920265 6.00806294,39.7722043 4.40409457,39.7722043 C3.72444693,39.7722043 3.09918051,39.9449766 2.52827651,40.290527 C1.95737251,40.6360769 1.47482993,41.1272931 1.08063431,41.7641894 C0.686438693,42.4010857 0.400990976,43.1396034 0.224282594,43.9797645 C0.074760117,44.6573136 0,45.3077513 0,45.9310968 C0,47.7198269 0.618470057,49.2578408 1.85542873,50.5451846 C3.0923874,51.832528 5.2060598,52.4761905 8.19650931,52.4761905 C10.3985676,52.4761905 12.3593216,52.0730548 14.0788301,51.2667709 C15.7983386,50.4604874 17.205188,49.3052828 18.2994207,47.8011234 C19.3936534,46.296964 20.1718382,44.4676083 20.6339986,42.3130015 L24.4060241,24.3648099 C24.4264416,24.2833916 24.4443035,24.2032475 24.4596096,24.1243775 L25.1708091,21.1111111 L13.2063362,21.1111111 L13.2063362,21.1111111 C11.522344,21.1111111 10.0396336,22.2171061 9.56446777,23.8276823 L9.56446777,23.8276823 L8.46787273,27.5445945 L16.8838998,27.5445945 Z M25.9963915,47.7198178 L30.706326,25.5437398 C31.0189639,24.0531313 31.5830629,23.0063333 32.3986401,22.4033144 C33.2142172,21.8002955 34.2676553,21.4987906 35.5589857,21.4987906 L51.6257751,21.4987906 C53.6103463,21.4987906 54.6026169,22.1492282 54.6026169,23.4501229 C54.6026169,23.5991837 54.5754313,23.8634239 54.5210595,24.2428516 C54.3035724,25.2727265 53.8482151,25.9943057 53.1549745,26.4076108 C52.4617339,26.8209159 51.5646128,27.0275654 50.4635837,27.0275654 L37.2309105,27.0275654 L35.8444363,33.6133118 L47.4459632,33.6133118 C49.2674188,33.6133118 50.1781331,34.223097 50.1781331,35.4426858 C50.1781331,35.7814604 50.144151,36.0457007 50.0761864,36.2354145 C49.8858849,37.2246365 49.467908,37.9157265 48.8222427,38.3087049 C48.1765774,38.7016836 47.3440218,38.8981702 46.3245501,38.8981702 L34.7230233,38.8981702 L33.1734345,46.2359924 L46.7527261,46.2359924 C48.7237041,46.2359924 49.7091785,46.8864301 49.7091785,48.1873247 C49.7091785,48.3092835 49.6819929,48.5735237 49.6276211,48.9800536 C49.4237268,50.0099282 48.9785643,50.7315077 48.2921203,51.1448125 C47.6056763,51.5581176 46.6983603,51.7647672 45.5701453,51.7647672 L29.1567372,51.7647672 C28.0693009,51.7647672 27.2435415,51.5547302 26.679434,51.1346495 C26.1153265,50.7145688 25.8332769,50.0234791 25.8332769,49.0613588 C25.8332769,48.8445432 25.8876479,48.3973673 25.9963915,47.7198178 Z M61.5757667,48.8580952 L66.1225866,27.2918083 L59.6591697,27.2918083 C57.6745989,27.2918083 56.6823283,26.3161519 56.6823283,24.3648099 C56.8998154,23.4704448 57.3925524,22.7691917 58.1605545,22.2610297 C58.9285563,21.7528678 59.8290758,21.4987906 60.8621402,21.4987906 L80.6601763,21.4987906 C81.5437184,21.4987906 82.2641339,21.6952769 82.8214452,22.0882555 C83.3787561,22.4812341 83.6574074,23.0368162 83.6574074,23.7550185 C83.6574074,23.8905284 83.6302219,24.0937901 83.57585,24.3648099 C83.3991417,25.2862769 82.9267936,26.0044684 82.1587919,26.5194059 C81.3907901,27.0343434 80.4834741,27.2918083 79.4368168,27.2918083 L72.9734003,27.2918083 L68.4265805,48.8580952 C68.2090931,49.8879702 67.719754,50.7213432 66.9585488,51.3582395 C66.1973436,51.9951358 65.2934258,52.3135793 64.2467682,52.3135793 C63.3904125,52.3135793 62.7107749,52.0899915 62.2078358,51.6428088 C61.7048964,51.1956264 61.4534306,50.5858412 61.4534306,49.8134349 C61.4534306,49.5017622 61.4942089,49.1833187 61.5757667,48.8580952 Z" id="JET"></path>
                </g>
            </g>
        </g>
    </g>
</svg>