<?xml version="1.0" encoding="UTF-8"?>
<svg width="649px" height="649px" viewBox="0 0 649 649" version="1.1" xmlns="http://www.w3.org/2000/svg" xmlns:xlink="http://www.w3.org/1999/xlink">
    <!-- Generator: Sketch 47.1 (45422) - http://www.bohemiancoding.com/sketch -->
    <title>rocket</title>
    <desc>Created with Sketch.</desc>
    <defs>
        <linearGradient x1="0%" y1="0%" x2="100%" y2="59.6518555%" id="linearGradient-1">
            <stop stop-color="#36ABEF" offset="0%"></stop>
            <stop stop-color="#2279CD" offset="100%"></stop>
        </linearGradient>
    </defs>
    <g id="jetskills-landing" stroke="none" stroke-width="1" fill="none" fill-rule="evenodd">
        <g transform="translate(-296.000000, -4250.000000)" id="rocket">
            <g transform="translate(296.000000, 4250.000000)">
                <circle id="circle-bg" fill="#E8F3FC" opacity="0.4" cx="324.5" cy="324.5" r="324.5"></circle>
                <circle id="Oval-7" fill="#E8F3FC" cx="324" cy="324" r="236"></circle>
                <path d="M374.725473,341.309564 L372.695597,341.931694 L371.744896,340.045394 C369.278212,335.157935 364.168115,332 358.724615,332 C353.80566,332 349.265859,334.420088 346.581711,338.475136 L344.97987,340.895847 L342.810241,338.95791 C337.786628,334.470481 331.283381,332 324.498747,332 C317.714739,332 311.211492,334.470481 306.186626,338.95791 L304.016997,340.895847 L302.414529,338.473892 C299.732888,334.420088 295.194966,332 290.275385,332 C284.831885,332 279.721161,335.157935 277.255731,340.045394 L276.304403,341.931694 L274.274527,341.309564 C272.509745,340.767688 270.696081,340.49395 268.884296,340.49395 C258.471079,340.49395 250,348.903291 250,359.239992 C250,360.209894 244.525207,371.686035 245.500977,371.686035 C350.515226,371.686035 403.348234,371.686035 404,371.686035 C404.975769,371.686035 400.615758,360.320295 400,359.239992 C394.706055,349.952148 390.528294,340.49395 380.115704,340.49395 C378.303292,340.49395 376.489628,340.767688 374.725473,341.309564 Z" id="Fill-1" fill-opacity="0.3" fill="url(#linearGradient-1)"></path>
                <polygon id="Path-14" fill-opacity="0.4" fill="url(#linearGradient-1)" transform="translate(347.560859, 235.635458) scale(-1, 1) translate(-347.560859, -235.635458) " points="371.430311 163.326172 371.430311 307.944743 325.691406 307.944743 323.691406 294.96875 328.768202 279.158203 340.647108 265.150391 340.647108 206.861948 350.897108 186.533203"></polygon>
                <polygon id="Path-14" fill-opacity="0.2" fill="url(#linearGradient-1)" points="324 162.321777 324 307.618571 278.261095 307.618571 276.261095 294.642578 281.337891 278.832031 293.216797 264.824219 293.216797 206.535776 303.466797 186.207031"></polygon>
                <path d="M374.725473,341.309564 L372.695597,341.931694 L371.744896,340.045394 C369.278212,335.157935 364.168115,332 358.724615,332 C353.80566,332 349.265859,334.420088 346.581711,338.475136 L344.97987,340.895847 L342.810241,338.95791 C337.786628,334.470481 331.283381,332 324.498747,332 C317.714739,332 311.211492,334.470481 306.186626,338.95791 L304.016997,340.895847 L302.414529,338.473892 C299.732888,334.420088 295.194966,332 290.275385,332 C284.831885,332 279.721161,335.157935 277.255731,340.045394 L276.304403,341.931694 L274.274527,341.309564 C272.509745,340.767688 270.696081,340.49395 268.884296,340.49395 C258.471079,340.49395 250,348.903291 250,359.239992 C250,360.209894 248.394836,361 249.370605,361 C250.348255,361 250.064453,360.430664 252.320801,356.107422 C254.577148,351.78418 260.100586,344.012721 268.884296,344.012721 C271.615447,344.012721 274.250086,344.755546 276.71489,346.219419 C277.223769,346.521775 277.846707,346.550393 278.378774,346.295319 C278.925255,346.037757 279.293753,345.538808 279.376477,344.955249 C280.146689,339.573819 284.831885,335.516905 290.275385,335.516905 C295.99902,335.516905 300.70803,339.813339 301.227563,345.51019 C301.295246,346.259858 301.8317,346.883233 302.563683,347.064273 C303.294414,347.242824 304.065252,346.942957 304.4795,346.313361 C308.912136,339.553289 316.396792,335.516905 324.498747,335.516905 C332.600074,335.516905 340.08473,339.553289 344.521127,346.313983 C344.933494,346.944823 345.70684,347.24469 346.436943,347.06365 C347.167047,346.883233 347.702874,346.26048 347.76993,345.515167 C348.293223,339.812717 353.002233,335.516905 358.724615,335.516905 C364.168115,335.516905 368.853311,339.573819 369.622896,344.953383 C369.706873,345.538808 370.074745,346.037757 370.608065,346.289098 C371.15392,346.548526 371.773097,346.522397 372.277589,346.22253 C374.751167,344.755546 377.386433,344.012721 380.115704,344.012721 C388.575502,344.012721 394.654785,352.191406 399.299561,360.038086 C399.90593,361.062459 401.356823,364.55847 402.334473,364.55847 C403.310242,364.55847 402.334473,364.122123 402.334473,363.152222 C402.334473,352.81552 390.528294,340.49395 380.115704,340.49395 C378.303292,340.49395 376.489628,340.767688 374.725473,341.309564 Z" id="Fill-1" fill="#227ACD"></path>
                <circle id="Oval-6" fill-opacity="0.3" fill="#FFFFFF" cx="323.5" cy="223.5" r="13.5"></circle>
                <path d="M323.501244,234.483642 C317.444802,234.483642 312.516905,229.556883 312.516905,223.500933 C312.516905,217.443739 317.444802,212.516358 323.501244,212.516358 C329.556442,212.516358 334.483095,217.443739 334.483095,223.500933 C334.483095,229.556883 329.556442,234.483642 323.501244,234.483642 M323.501244,209 C315.504998,209 309,215.505138 309,223.500933 C309,231.495484 315.504998,238 323.501244,238 C331.496246,238 338,231.495484 338,223.500933 C338,215.505138 331.496246,209 323.501244,209" id="Fill-4" fill="#227ACD"></path>
                <path d="M324.501062,280 C323.673567,280 323,280.800086 323,281.783644 L323,316.216356 C323,317.199914 323.673567,318 324.501062,318 C325.328025,318 326,317.199914 326,316.216356 L326,281.783644 C326,280.800086 325.328025,280 324.501062,280" id="Fill-6" fill="#227ACD"></path>
                <path d="M278.554261,305.861147 L278.554261,299.056071 C278.554261,285.515711 283.371253,279.615421 288.029774,273.909419 C291.994674,269.052243 295.727528,264.478638 295.727528,256.130583 L295.727528,213.20761 C295.727528,198.22676 302.475719,190.123293 303.945341,188.537558 L324,164.476147 L344.293622,188.798494 C345.363925,189.947869 352.274987,197.963938 352.274987,213.20761 L352.274987,256.130583 C352.274987,264.476123 356.004697,269.04847 359.953247,273.889927 C364.624345,279.607876 369.44511,285.508795 369.44511,299.052927 L369.44511,305.861147 L334.88288,305.861147 C333.90376,305.861147 333.107007,306.659673 333.107007,307.639911 C333.107007,308.61952 333.90376,309.415531 334.88288,309.415531 L352.274987,309.415531 L355.829248,309.415531 L371.223498,309.415531 C372.203247,309.415531 373,308.61952 373,307.639911 L373,299.052927 C373,284.237441 367.537808,277.549943 362.71893,271.649653 C359.018776,267.117546 355.826733,263.20917 355.826733,256.130583 L355.826733,213.20761 C355.826733,196.236732 347.733432,187.275636 347.054274,186.554447 L325.365234,160.562741 C325.071561,160.210635 324.560305,160 323.998742,160 C323.437808,160 322.928439,160.210006 322.634766,160.562112 L301.284048,186.191024 C300.911768,186.565136 292.173267,195.552012 292.173267,213.20761 L292.173267,256.130583 C292.173267,263.2142 288.978709,267.123834 285.279813,271.650282 C280.461563,277.549943 275,284.236812 275,299.052927 L275,307.639911 C275,308.61952 275.797382,309.415531 276.778388,309.415531 L292.173267,309.415531 L295.727528,309.415531 L313.116491,309.415531 C314.096869,309.415531 314.894879,308.61952 314.894879,307.639911 C314.894879,306.659673 314.096869,305.861147 313.116491,305.861147 L278.554261,305.861147 Z" id="Fill-8" fill="#227ACD"></path>
                <path d="M209,372 L209,246 L209,246 C209,234.954305 217.954305,226 229,226 L282,226" id="Path-27" stroke="#227ACD" stroke-width="3.2" stroke-linecap="round" stroke-linejoin="round"></path>
                <path d="M366.629497,226 L421.800128,226 L421.800128,226 C432.845823,226 441.800128,234.954305 441.800128,246 L441.800128,372.548988 L456,372.548988 L456,372.548988 C456.552285,372.548988 457,372.996703 457,373.548988 L457,389.274494 L457,389.274494 C457,398.511736 449.511736,406 440.274494,406 L210.913513,406 L210.913513,406 C199.915488,406 190.999827,397.084339 190.999827,386.086314 C190.999827,386.058652 190.999885,386.030989 191,386.003327 L191,386.003327 L442.086352,386.003327" id="Path-28" stroke="#227ACD" stroke-width="3.2" stroke-linecap="round" stroke-linejoin="round"></path>
                <path d="M282.361893,244 L231,244 L231,244 C228.238576,244 226,246.238576 226,249 L226,367 L226,367 C226,369.761424 228.238576,372 231,372 L418,372 L418,372 C420.761424,372 423,369.761424 423,367 L423,249 L423,249 C423,246.238576 420.761424,244 418,244 L365.569131,244" id="Path-29" stroke="#227ACD" stroke-width="3.2" stroke-linecap="round" stroke-linejoin="round"></path>
                <rect id="Rectangle-15" fill="#227ACD" x="306" y="314" width="3" height="18" rx="1.5"></rect>
                <rect id="Rectangle-15-Copy" fill="#227ACD" x="295" y="307" width="3" height="13" rx="1.5"></rect>
                <rect id="Rectangle-15-Copy-5" fill="#227ACD" x="354" y="307" width="3" height="13" rx="1.5"></rect>
                <rect id="Rectangle-15-Copy-4" fill="#227ACD" x="341" y="307" width="3" height="18" rx="1.5"></rect>
                <rect id="Rectangle-15-Copy-7" fill="#227ACD" x="331" y="325" width="3" height="12" rx="1.5"></rect>
                <rect id="Rectangle-15-Copy-3" fill="#227ACD" x="281" y="307" width="3" height="22" rx="1.5"></rect>
                <rect id="Rectangle-15-Copy-6" fill="#227ACD" x="262" y="330" width="3" height="13" rx="1.5"></rect>
                <rect id="Rectangle-15-Copy-8" fill="#227ACD" x="381" y="331" width="3" height="13" rx="1.5"></rect>
                <rect id="Rectangle-15-Copy-2" fill="#227ACD" x="365" y="315" width="3" height="22" rx="1.5"></rect>
                <path d="M256,347 C250.932447,353.609462 247.599113,361.276129 246,370" id="Path-4" stroke="#227ACD" stroke-width="3.4"></path>
                <path d="M404,348 C399.213179,353.305563 395.879845,360.638896 394,370" id="Path-4" stroke="#227ACD" stroke-width="3.4" transform="translate(399.000000, 359.000000) scale(-1, 1) translate(-399.000000, -359.000000) "></path>
            </g>
        </g>
    </g>
</svg>