<?xml version="1.0" encoding="UTF-8"?>
<svg width="174px" height="51px" viewBox="0 0 174 51" version="1.1" xmlns="http://www.w3.org/2000/svg" xmlns:xlink="http://www.w3.org/1999/xlink">
    <!-- Generator: Sketch 47.1 (45422) - http://www.bohemiancoding.com/sketch -->
    <title>jetskills-logo</title>
    <desc>Created with Sketch.</desc>
    <defs></defs>
    <g id="Page-1" stroke="none" stroke-width="1" fill="none" fill-rule="evenodd">
        <g id="head_2-(portfolio)" transform="translate(-732.000000, -538.000000)" fill-rule="nonzero">
            <g id="Портфолио" transform="translate(685.000000, 235.000000)">
                <g id="Jetskills" transform="translate(0.000000, 228.000000)">
                    <g id="jetskills-logo" transform="translate(47.000000, 75.000000)">
                        <path d="M100.173021,8.67 L163.84984,8.67 L163.84984,8.67 C169.455619,8.67 174,13.2366955 174,18.87 C174,19.3960447 173.959504,19.9213011 173.878876,20.4410684 L172.235674,31.0338356 L172.235674,31.0338356 C171.272594,37.2422581 165.952081,41.82 159.69938,41.82 L100.878774,41.82 L97.0367801,45.6808594 C96.5609914,46.1589844 95.8175713,46.2486329 95.2228354,45.8900392 L90.1675801,42.8419921 C89.1862657,43.35 88.1752146,43.7683594 87.1344266,44.0970704 L85.7070603,49.8644531 C85.5286398,50.521875 84.9339038,51 84.2499573,51 L78.3025979,51 C77.6186517,51 77.0239158,50.521875 76.845495,49.8644531 L75.4181287,44.0970704 C74.3773407,43.7683594 73.3662896,43.35 72.3849751,42.8419921 L67.3297199,45.8900392 C66.7349839,46.2486329 65.9915639,46.1589844 65.5157751,45.6808594 L61.2931499,41.4375 C60.8173611,40.959375 60.7281509,40.2123046 61.0849924,39.6146483 L64.1181458,34.5345704 C63.6126201,33.5484375 63.1963049,32.5324219 62.8692003,31.4865233 L57.1299983,30.0222656 C56.4757888,29.8728514 56,29.2751952 56,28.5878906 L56,22.6113281 C56,21.9240234 56.4757888,21.3263672 57.1299983,21.1769531 L62.8692003,19.7126953 C63.1963049,18.6667969 63.6126201,17.6507812 64.1181458,16.6646484 L61.0849924,11.5845703 C60.7281509,10.9869141 60.8173611,10.2398437 61.2931499,9.76171875 L65.5157751,5.51835937 C65.9915639,5.04023437 66.7349839,4.95058594 67.3297199,5.30917969 L72.3849751,8.35722656 C73.3662896,7.84921875 74.3773407,7.43085937 75.4181287,7.10214844 L76.845495,1.13554687 C77.0239155,0.478125 77.6186514,0 78.3025979,0 L84.2499573,0 C84.9339038,0 85.5286398,0.478125 85.7070603,1.13554687 L87.1344266,7.10214844 C88.1752146,7.43085937 89.1862657,7.84921875 90.1675801,8.35722656 L95.2228354,5.30917969 C95.8175713,4.95058594 96.5609914,5.04023437 97.0367801,5.51835937 L100.173021,8.67 Z" id="Combined-Shape" fill="#FFFFFF"></path>
                        <path d="M11.3020283,18.3074385 L9.22641968,28.1409583 C9.08083443,28.8667865 8.86473455,29.4791948 8.57811357,29.9782017 C8.2914926,30.4772086 7.94573279,30.8491898 7.54082377,31.0941569 C7.13591478,31.3391237 6.68324242,31.4616055 6.18279309,31.4616055 C4.95441744,31.4616055 4.34023885,30.9308515 4.34023885,29.8693279 C4.34023885,29.6515795 4.36753567,29.4202252 4.42213014,29.1752584 C4.51312093,28.7669799 4.55861565,28.4222168 4.55861565,28.1409583 C4.55861565,27.0431432 4.02177805,26.4942441 2.94808677,26.4942441 C2.49313282,26.4942441 2.07458148,26.6099211 1.69242018,26.8412789 C1.31025887,27.0726365 0.987246424,27.4015226 0.723373141,27.8279466 C0.459499858,28.2543706 0.268422072,28.7488337 0.150134049,29.3113504 C0.0500441824,29.7649929 0,30.2004833 0,30.6178345 C0,31.8154509 0.414001871,32.8452041 1.24201804,33.7071251 C2.0700342,34.5690458 3.48491972,35 5.48671702,35 C6.96076779,35 8.27329021,34.7300868 9.42432366,34.190252 C10.5753571,33.6504174 11.5170976,32.8769682 12.2495735,31.8698817 C12.9820493,30.8627953 13.5029638,29.6379787 13.8123324,28.1953952 L16.3373142,16.1784633 C16.3509816,16.1239509 16.3629383,16.0702917 16.3731841,16.0174855 L16.8492589,14 L8.84027904,14 L8.84027904,14 C7.71302011,14 6.72049852,14.7405017 6.40242402,15.8188379 L6.40242402,15.8188379 L5.66836683,18.3074385 L11.3020283,18.3074385 Z M17.401901,31.8154448 L20.554716,16.9677974 C20.7639949,15.9697837 21.141601,15.2689165 21.6875457,14.8651746 C22.2334904,14.4614327 22.9386584,14.2595647 23.8030709,14.2595647 L34.5581282,14.2595647 C35.8865937,14.2595647 36.5508165,14.6950551 36.5508165,15.5660489 C36.5508165,15.6658502 36.5326185,15.8427682 36.4962222,16.096808 C36.3506371,16.7863447 36.0458223,17.2694668 35.5817693,17.5461888 C35.1177163,17.8229108 34.5171863,17.9612697 33.7801609,17.9612697 L24.922252,17.9612697 L23.9941506,22.3706536 L31.7601755,22.3706536 C32.979452,22.3706536 33.5890813,22.7789258 33.5890813,23.5954824 C33.5890813,23.8223037 33.5663337,23.9992217 33.5208384,24.1262416 C33.3934512,24.7885598 33.1136588,25.2512683 32.6814525,25.5143809 C32.2492463,25.7774937 31.6919362,25.9090481 31.0095051,25.9090481 L23.2434804,25.9090481 L22.2061906,30.8219726 L31.2961248,30.8219726 C32.6154911,30.8219726 33.2751645,31.257463 33.2751645,32.1284568 C33.2751645,32.2101124 33.2569666,32.3870303 33.2205702,32.659216 C33.0840841,33.3487526 32.7860937,33.8318749 32.3265903,34.1085966 C31.8670869,34.3853186 31.2597325,34.5236776 30.504509,34.5236776 L19.5174263,34.5236776 C18.7895,34.5236776 18.2367392,34.3830506 17.8591275,34.1017921 C17.4815157,33.8205336 17.2927126,33.3578253 17.2927126,32.7136527 C17.2927126,32.5684872 17.3291084,32.2690875 17.401901,31.8154448 Z M41.2186206,32.5775607 L44.2622472,18.1381894 L39.9356567,18.1381894 C38.6071914,18.1381894 37.9429686,17.4849539 37.9429686,16.1784633 C38.0885538,15.5796551 38.4183903,15.110142 38.9324885,14.7699101 C39.4465864,14.4296782 40.0493913,14.2595647 40.7409213,14.2595647 L53.9936631,14.2595647 C54.5851033,14.2595647 55.0673472,14.3911191 55.4404096,14.6542318 C55.8134717,14.9173445 56,15.2893259 56,15.770187 C56,15.8609155 55.9818021,15.9970062 55.9454057,16.1784633 C55.8271177,16.7954172 55.5109295,17.2762711 54.9968316,17.6210395 C54.4827336,17.9658078 53.8753792,18.1381894 53.1747502,18.1381894 L48.8481599,18.1381894 L45.8045334,32.5775607 C45.658948,33.2670975 45.331386,33.8250694 44.8218376,34.2514934 C44.3122893,34.6779174 43.7072097,34.8911262 43.0065804,34.8911262 C42.4333386,34.8911262 41.9783914,34.7414265 41.6417256,34.4420223 C41.3050596,34.1426183 41.1367292,33.7343461 41.1367292,33.2171935 C41.1367292,33.0085179 41.1640261,32.795309 41.2186206,32.5775607 Z" id="JET" fill="#FFFFFF"></path>
                        <path d="M77.3451063,22.0551636 L81.0066394,22.9172546 C81.999448,23.1417586 82.8123548,23.4762646 83.4453842,23.9207825 C84.0784135,24.3653005 84.5292693,24.8726719 84.7979654,25.4429122 C85.0666612,26.0131523 85.2010071,26.6305291 85.2010071,27.295061 C85.2010071,27.7710095 85.146358,28.2334808 85.0370579,28.6824887 C84.8457828,29.5984651 84.4905631,30.4425875 83.9713879,31.2148812 C83.4522127,31.9871751 82.7873142,32.6539421 81.9766722,33.2152021 C81.1660302,33.7764622 80.1982842,34.2142384 79.0734046,34.5285439 C77.9485249,34.8428494 76.7166411,35 75.3777155,35 C73.7199984,35 72.3378292,34.7844792 71.2311662,34.3534317 C70.1245033,33.9223839 69.3093196,33.3701124 68.7855901,32.6966002 C68.2618607,32.0230883 68,31.3181563 68,30.5817831 C68,30.2674776 68.0182164,30.0474669 68.0546498,29.9217446 C68.1730582,29.373955 68.4531352,28.9249536 68.8948897,28.5747275 C69.336644,28.224501 69.839872,28.0493906 70.4045888,28.0493906 C70.9419807,28.0493906 71.319971,28.1751109 71.538571,28.4265554 C71.757171,28.6779998 72.0531877,29.1225113 72.4266294,29.7601026 C72.8000711,30.3976941 73.2486501,30.8736353 73.7723793,31.1879411 C74.2961087,31.5022466 75.0771367,31.6593969 76.1154871,31.6593969 C76.8623708,31.6593969 77.5432087,31.5359217 78.1580213,31.2889674 C78.7728339,31.0420128 79.2692308,30.716487 79.6472268,30.3123798 C80.0252227,29.9082724 80.264313,29.4727412 80.3645049,29.005773 C80.400938,28.8261696 80.4191545,28.6824892 80.4191545,28.5747275 C80.4191545,27.7305922 79.8954331,27.1783207 78.8479742,26.917896 L73.9568222,25.6112892 C72.5177052,25.2071821 71.5044178,24.6549105 70.9169301,23.954458 C70.3294424,23.2540055 70.0357031,22.4458032 70.0357031,21.5298268 C70.0357031,21.2245013 70.0903521,20.75754 70.1996522,20.1289288 C70.5002275,18.7280238 71.1309703,17.5673555 72.0918997,16.646889 C73.0528291,15.7264226 74.1959082,15.0551657 75.5211711,14.6330981 C76.846434,14.2110306 78.1921707,14 79.558421,14 C80.6787464,14 81.7648992,14.1796005 82.8169121,14.538807 C83.868925,14.8980134 84.7296498,15.3941598 85.3991125,16.0272611 C86.0685752,16.6603624 86.4033016,17.3630494 86.4033016,18.1353432 C86.4033016,18.2700456 86.3850852,18.4451561 86.3486518,18.6606799 C86.2302434,19.2174499 85.9296728,19.6619611 85.446931,19.9942271 C84.9641891,20.326493 84.4359136,20.4926235 83.8620886,20.4926235 C83.30648,20.4926235 82.7895895,20.1603625 82.3114019,19.4958307 C81.8332143,18.8312988 81.3846353,18.3329074 80.965652,18.0006414 C80.5466685,17.6683755 79.7223765,17.502245 78.492751,17.502245 C77.4544006,17.502245 76.59823,17.7177656 75.9242131,18.1488133 C75.2501961,18.579861 74.8357732,19.1590727 74.6809314,19.8864657 C74.6809314,20.3444538 74.8061691,20.7126349 75.0566482,20.9910199 C75.3071276,21.2694048 75.6099751,21.4804354 75.9652004,21.624118 C76.3204254,21.7678006 76.7803895,21.911481 77.3451063,22.0551636 Z M87.3983245,32.6023091 L90.8412583,16.3707505 C91.0052083,15.6882583 91.3422118,15.1404767 91.8522785,14.7273894 C92.3623455,14.314302 92.9589325,14.1077614 93.6420577,14.1077614 C94.215883,14.1077614 94.6712928,14.2581768 95.0083014,14.5590122 C95.3453097,14.8598476 95.5138116,15.2617037 95.5138116,15.7645927 C95.5138116,15.9531761 95.4864869,16.1552267 95.4318369,16.3707505 L94.0382683,23.025016 L102.932514,15.1045542 C103.315064,14.7722883 103.656622,14.5230926 103.957197,14.3569596 C104.257772,14.1908266 104.59933,14.1077614 104.98188,14.1077614 C105.501055,14.1077614 105.92914,14.2559318 106.266149,14.5522771 C106.603157,14.8486224 106.771659,15.3110937 106.771659,15.9397049 C106.625926,16.5234154 106.261597,17.0442569 105.678664,17.502245 L99.9131158,22.4457986 L103.683948,30.8915972 C104.00274,31.5740894 104.162134,32.1712611 104.162134,32.6831303 C103.998184,33.4554239 103.647518,34.0166755 103.110126,34.3669019 C102.572734,34.717128 101.980701,34.8922385 101.334009,34.8922385 C100.860376,34.8922385 100.496048,34.8091733 100.241014,34.6430404 C99.9859811,34.4769075 99.7537219,34.1648516 99.5442301,33.7068634 L95.9919967,25.5574087 L92.9452734,28.076331 L91.988903,32.6023091 C91.8978196,33.051317 91.7179326,33.4509283 91.4492368,33.8011544 C91.1805407,34.1513809 90.8549226,34.4207816 90.4723726,34.609365 C90.0898224,34.7979484 89.661737,34.8922385 89.1881034,34.8922385 C88.6142784,34.8922385 88.1588683,34.7440682 87.82186,34.4477228 C87.4848514,34.1513776 87.3163498,33.7472765 87.3163498,33.2354073 C87.3163498,33.0288635 87.3436744,32.8178329 87.3983245,32.6023091 Z M106.414101,32.6023091 L109.857034,16.3707505 C110.020985,15.6882583 110.357988,15.1404767 110.868055,14.7273894 C111.378122,14.314302 111.974709,14.1077614 112.657834,14.1077614 C113.231659,14.1077614 113.687069,14.2581768 114.024077,14.5590122 C114.361086,14.8598476 114.529588,15.2617037 114.529588,15.7645927 C114.529588,15.9531761 114.502263,16.1552267 114.447613,16.3707505 L111.004679,32.6023091 C110.913596,33.051317 110.733709,33.4509283 110.465013,33.8011544 C110.196317,34.1513809 109.870699,34.4207816 109.488149,34.609365 C109.105599,34.7979484 108.677513,34.8922385 108.20388,34.8922385 C107.630054,34.8922385 107.174644,34.7440682 106.837636,34.4477228 C106.500628,34.1513776 106.332126,33.7472765 106.332126,33.2354073 C106.332126,33.0288635 106.35945,32.8178329 106.414101,32.6023091 Z M115.251362,31.8479793 L118.544009,16.3707505 C118.707959,15.6882583 119.044962,15.1404767 119.555029,14.7273894 C120.065096,14.314302 120.661683,14.1077614 121.344808,14.1077614 C121.918634,14.1077614 122.374043,14.2581768 122.711052,14.5590122 C123.04806,14.8598476 123.216562,15.2617037 123.216562,15.7645927 C123.216562,15.9531761 123.189238,16.1552267 123.134587,16.3707505 L120.087864,30.6895446 L127.752491,30.6895446 C128.362749,30.6895446 128.845484,30.8444499 129.200709,31.1542655 C129.555934,31.4640811 129.733544,31.9467575 129.733544,32.6023091 C129.606027,33.21296 129.282686,33.6866565 128.763511,34.0234124 C128.244336,34.3601684 127.638641,34.5285439 126.946407,34.5285439 L117.369039,34.5285439 C115.875272,34.5285439 115.1284,33.9313722 115.1284,32.7370108 C115.1284,32.6472094 115.169387,32.3508685 115.251362,31.8479793 Z M132.190448,31.8479793 L135.483095,16.3707505 C135.647045,15.6882583 135.984048,15.1404767 136.494115,14.7273894 C137.004182,14.314302 137.600769,14.1077614 138.283894,14.1077614 C138.857719,14.1077614 139.313129,14.2581768 139.650138,14.5590122 C139.987146,14.8598476 140.155648,15.2617037 140.155648,15.7645927 C140.155648,15.9531761 140.128323,16.1552267 140.073673,16.3707505 L137.02695,30.6895446 L144.691577,30.6895446 C145.301835,30.6895446 145.78457,30.8444499 146.139795,31.1542655 C146.49502,31.4640811 146.67263,31.9467575 146.67263,32.6023091 C146.545113,33.21296 146.221772,33.6866565 145.702597,34.0234124 C145.183422,34.3601684 144.577727,34.5285439 143.885493,34.5285439 L134.308125,34.5285439 C132.814358,34.5285439 132.067486,33.9313722 132.067486,32.7370108 C132.067486,32.6472094 132.108472,32.3508685 132.190448,31.8479793 Z M157.941805,22.0551636 L161.603338,22.9172546 C162.596146,23.1417586 163.409053,23.4762646 164.042083,23.9207825 C164.675112,24.3653005 165.125968,24.8726719 165.394664,25.4429122 C165.66336,26.0131523 165.797705,26.6305291 165.797705,27.295061 C165.797705,27.7710095 165.743056,28.2334808 165.633756,28.6824887 C165.442481,29.5984651 165.087262,30.4425875 164.568086,31.2148812 C164.048911,31.9871751 163.384013,32.6539421 162.573371,33.2152021 C161.762729,33.7764622 160.794982,34.2142384 159.670103,34.5285439 C158.545223,34.8428494 157.313339,35 155.974414,35 C154.316697,35 152.934527,34.7844792 151.827865,34.3534317 C150.721202,33.9223839 149.906018,33.3701124 149.382289,32.6966002 C148.858559,32.0230883 148.596698,31.3181563 148.596698,30.5817831 C148.596698,30.2674776 148.614915,30.0474669 148.651348,29.9217446 C148.769757,29.373955 149.049834,28.9249536 149.491588,28.5747275 C149.933342,28.224501 150.43657,28.0493906 151.001287,28.0493906 C151.538679,28.0493906 151.916669,28.1751109 152.135269,28.4265554 C152.353869,28.6779998 152.649886,29.1225113 153.023328,29.7601026 C153.39677,30.3976941 153.845348,30.8736353 154.369078,31.1879411 C154.892807,31.5022466 155.673835,31.6593969 156.712186,31.6593969 C157.459069,31.6593969 158.139907,31.5359217 158.75472,31.2889674 C159.369532,31.0420128 159.865929,30.716487 160.243925,30.3123798 C160.621921,29.9082724 160.861011,29.4727412 160.961203,29.005773 C160.997636,28.8261696 161.015853,28.6824892 161.015853,28.5747275 C161.015853,27.7305922 160.492131,27.1783207 159.444673,26.917896 L154.553521,25.6112892 C153.114403,25.2071821 152.101116,24.6549105 151.513628,23.954458 C150.926141,23.2540055 150.632401,22.4458032 150.632401,21.5298268 C150.632401,21.2245013 150.687051,20.75754 150.796351,20.1289288 C151.096926,18.7280238 151.727668,17.5673555 152.688598,16.646889 C153.649528,15.7264226 154.792607,15.0551657 156.11787,14.6330981 C157.443132,14.2110306 158.788869,14 160.155119,14 C161.275445,14 162.361598,14.1796005 163.413611,14.538807 C164.465623,14.8980134 165.326348,15.3941598 165.995811,16.0272611 C166.665274,16.6603624 167,17.3630494 167,18.1353432 C167,18.2700456 166.981784,18.4451561 166.94535,18.6606799 C166.826942,19.2174499 166.526371,19.6619611 166.043629,19.9942271 C165.560888,20.326493 165.032612,20.4926235 164.458787,20.4926235 C163.903178,20.4926235 163.386288,20.1603625 162.9081,19.4958307 C162.429913,18.8312988 161.981334,18.3329074 161.56235,18.0006414 C161.143367,17.6683755 160.319075,17.502245 159.089449,17.502245 C158.051099,17.502245 157.194928,17.7177656 156.520911,18.1488133 C155.846895,18.579861 155.432471,19.1590727 155.27763,19.8864657 C155.27763,20.3444538 155.402868,20.7126349 155.653347,20.9910199 C155.903826,21.2694048 156.206674,21.4804354 156.561899,21.624118 C156.917124,21.7678006 157.377088,21.911481 157.941805,22.0551636 Z" id="SKILLS" fill="#3E4FF6"></path>
                    </g>
                </g>
            </g>
        </g>
    </g>
</svg>