<svg width="62" height="75" viewBox="0 0 62 75" version="1.1" xmlns="http://www.w3.org/2000/svg" xmlns:xlink="http://www.w3.org/1999/xlink">
<g id="Canvas" fill="none">
<g id="Group">
<g id="Vector">
<path d="M -6.0079e-05 2.98714e-05L -6.0079e-05 25.5718L 5.5984 25.5718L 5.5984 12.7859" stroke-width="2" stroke-miterlimit="10" stroke-linecap="round" stroke-linejoin="round" transform="translate(1 48.3482)" stroke="#F2994A"/>
</g>
<g id="Vector_2">
<path d="M 5.59834 2.98714e-05L 5.59834 25.5718L 3.00395e-05 25.5718L 3.00395e-05 12.7859" stroke-width="2" stroke-miterlimit="10" stroke-linecap="round" stroke-linejoin="round" transform="translate(54.7693 48.3482)" stroke="#F2994A"/>
</g>
<g id="Vector_3">
<path d="M 39.0043 13.3977L 59.3676 13.3977L 29.6531 1.49357e-05L -6.0079e-05 13.3977L 20.3634 13.3977" stroke-width="2" stroke-miterlimit="10" stroke-linecap="round" stroke-linejoin="round" transform="translate(1 34.9505)" stroke="#F2994A"/>
</g>
<g id="Vector_4">
<path d="M 9.76563e-05 8.62591L 9.76563e-05 2.98714e-05" stroke-width="2" stroke-miterlimit="10" stroke-linecap="round" stroke-linejoin="round" transform="translate(30.6531 26.3246)" stroke="#F2994A"/>
</g>
<g id="Vector_5">
<path d="M 4.88281e-05 11.44L 4.88281e-05 2.98714e-05" stroke-width="2" stroke-miterlimit="10" stroke-linecap="round" stroke-linejoin="round" transform="translate(38.1587 26.3246)" stroke="#F2994A"/>
</g>
<g id="Vector_6">
<path d="M 0 15.3553L 0 2.98714e-05" stroke-width="2" stroke-miterlimit="10" stroke-linecap="round" stroke-linejoin="round" transform="translate(45.6643 26.3246)" stroke="#F2994A"/>
</g>
<g id="Vector_7">
<path d="M 0 11.44L 0 2.98714e-05" stroke-width="2" stroke-miterlimit="10" stroke-linecap="round" stroke-linejoin="round" transform="translate(23.2092 26.3246)" stroke="#F2994A"/>
</g>
<g id="Vector_8">
<path d="M 4.88281e-05 15.3553L 4.88281e-05 2.98714e-05" stroke-width="2" stroke-miterlimit="10" stroke-linecap="round" stroke-linejoin="round" transform="translate(15.7036 26.3246)" stroke="#F2994A"/>
</g>
<g id="Vector_9">
<path d="M 14.9496 -1.49357e-05C 6.70584 -1.49357e-05 3.00395e-05 6.66826 3.00395e-05 14.8659L 3.00395e-05 17.8023L 29.8991 17.8023L 29.8991 14.8659C 29.9606 6.66826 23.255 -1.49357e-05 14.9496 -1.49357e-05Z" stroke-width="2" stroke-miterlimit="10" stroke-linecap="round" stroke-linejoin="round" transform="translate(15.7036 8.46103)" stroke="#F2994A"/>
</g>
<g id="Vector_10">
<path d="M 8.67441 6.9741L 4.30652 2.98714e-05L 6.0079e-05 6.9741" stroke-width="2" stroke-miterlimit="10" stroke-linecap="round" stroke-linejoin="round" transform="translate(26.3467 1.854)" stroke="#F2994A"/>
</g>
<g id="Vector_11">
<path d="M 9.76563e-05 2.98714e-05L 9.76563e-05 25.5718" stroke-width="2" stroke-miterlimit="10" stroke-linecap="round" stroke-linejoin="round" transform="translate(13.1199 48.3482)" stroke="#F2994A"/>
</g>
<g id="Vector_12">
<path d="M 9.76563e-05 2.98714e-05L 9.76563e-05 25.5718" stroke-width="2" stroke-miterlimit="10" stroke-linecap="round" stroke-linejoin="round" transform="translate(48.1868 48.3482)" stroke="#F2994A"/>
</g>
<g id="Vector_13">
<path d="M 8.73602 2.98714e-05C 3.87587 2.98714e-05 -6.0079e-05 3.9153 -6.0079e-05 8.68707L -6.0079e-05 20.1271L 17.5334 20.1271L 17.5334 8.68707C 17.5334 3.9153 13.5962 2.98714e-05 8.73602 2.98714e-05Z" stroke-width="2" stroke-miterlimit="10" stroke-linecap="round" stroke-linejoin="round" transform="translate(21.9172 53.2423)" stroke="#F2994A"/>
</g>
</g>
</g>
</svg>

