<svg width="20" height="23" viewBox="0 0 20 23" version="1.1" xmlns="http://www.w3.org/2000/svg" xmlns:xlink="http://www.w3.org/1999/xlink">
<title>Vector</title>
<desc>Created using Figma</desc>
<g id="Canvas" transform="translate(-1356 -769)">
<g id="Vector">
<use xlink:href="#path0_fill" transform="translate(1356 769)" fill="#828282"/>
</g>
</g>
<defs>
<path id="path0_fill" d="M 19 21L 19 20C 19 18.7 18.2 17.6 17 17.2L 17 12L 17 10L 17 7C 17 3.1 13.9 0 10 0L 8.59998 0L 7.09998 1.5L 5 0.100006L 5 3.60001L 3 5.60001L 3 6.60001L 0 9.60001L 0 12.8L 5.29999 14.1L 6.40002 13L 7.29999 13L 5.29999 17.1C 3.99999 17.4 3 18.6 3 20L 3 21L 2 21L 2 23L 20 23L 20 21L 19 21ZM 9.40002 2L 10 2C 11.8 2 13.4 3 14.3 4.5C 13.1 3.6 11.6 3 10 3L 9.29999 3L 8.79999 2.60001L 9.40002 2ZM 5.59998 11L 4.70001 11.9L 2 11.2L 2 10.4L 5 7.39999L 5 6.39999L 7 4.39999L 7 3.89999L 8.70001 5L 10 5C 12.8 5 15 7.2 15 10L 15 12L 15 17L 7.59998 17L 9.90002 12.3C 10.5 11.7 11 10.9 11 10L 11 8L 9 8L 9 10C 9 10.6 8.6 11 8 11L 5.59998 11ZM 5 21L 5 20C 5 19.4 5.4 19 6 19L 16 19C 16.6 19 17 19.4 17 20L 17 21L 5 21Z"/>
</defs>
</svg>
