<svg width="134" height="110" viewBox="0 0 134 110" version="1.1" xmlns="http://www.w3.org/2000/svg" xmlns:xlink="http://www.w3.org/1999/xlink">
<title>&#208;&#177;&#208;&#190;&#208;&#189;&#209;&#131;&#209;&#129; 25%</title>
<desc>Created using Figma</desc>
<g id="Canvas" transform="translate(-646 -2565)">
<g id="&#208;&#177;&#208;&#190;&#208;&#189;&#209;&#131;&#209;&#129; 25%">
<use xlink:href="#path0_fill" transform="translate(626 2555)" fill="#333333"/>
<use xlink:href="#path1_fill" transform="translate(626 2555)" fill="#ED2225"/>
</g>
</g>
<defs>
<path id="path0_fill" d="M 39.4141 16.6172L 27.1797 16.6172L 27.1797 23.1328L 31.2578 23.1328C 34.7109 23.1328 37.4609 24.1172 39.5078 26.0859C 41.5547 28.0391 42.5781 30.6562 42.5781 33.9375C 42.5781 37.2031 41.5781 39.8516 39.5781 41.8828C 37.5781 43.8984 34.9297 44.9375 31.6328 45L 20.2656 45L 20.2656 10.875L 39.4141 10.875L 39.4141 16.6172ZM 27.1797 28.8516L 27.1797 39.2812L 31.3516 39.2812C 32.6953 39.2812 33.75 38.7812 34.5156 37.7812C 35.2969 36.7656 35.6875 35.4688 35.6875 33.8906C 35.6875 32.4063 35.3047 31.2031 34.5391 30.2812C 33.7891 29.3438 32.7422 28.8672 31.3984 28.8516L 27.1797 28.8516ZM 70.5156 31.0078C 70.5156 35.5859 69.4297 39.1406 67.2578 41.6719C 65.1016 44.2031 62.1016 45.4688 58.2578 45.4688C 54.4297 45.4688 51.4219 44.2188 49.2344 41.7188C 47.0469 39.2031 45.9375 35.6875 45.9062 31.1719L 45.9062 25.3359C 45.9062 20.6484 46.9922 16.9922 49.1641 14.3672C 51.3359 11.7266 54.3516 10.4062 58.2109 10.4062C 62.0078 10.4062 65 11.7031 67.1875 14.2969C 69.375 16.875 70.4844 20.5 70.5156 25.1719L 70.5156 31.0078ZM 63.6016 25.2891C 63.6016 22.2109 63.1641 19.9219 62.2891 18.4219C 61.4141 16.9219 60.0547 16.1719 58.2109 16.1719C 56.3828 16.1719 55.0313 16.8984 54.1562 18.3516C 53.2812 19.7891 52.8281 21.9844 52.7969 24.9375L 52.7969 31.0078C 52.7969 33.9922 53.2422 36.1953 54.1328 37.6172C 55.0234 39.0234 56.3984 39.7266 58.2578 39.7266C 60.0547 39.7266 61.3906 39.0391 62.2656 37.6641C 63.1406 36.2734 63.5859 34.125 63.6016 31.2188L 63.6016 25.2891ZM 99.3906 45L 92.5234 45L 92.5234 30.3984L 82.3516 30.3984L 82.3516 45L 75.4609 45L 75.4609 10.875L 82.3516 10.875L 82.3516 24.6797L 92.5234 24.6797L 92.5234 10.875L 99.3906 10.875L 99.3906 45ZM 115.727 26.0391L 120.32 10.875L 127.727 10.875L 118.375 38.2969C 117.313 41.0156 116.164 42.8828 114.93 43.8984C 113.711 44.9141 112.242 45.4453 110.523 45.4922L 109.773 45.4922L 108.133 45.3984L 108.016 39.6797C 108.172 39.7422 108.68 39.7734 109.539 39.7734C 110.414 39.7734 111.07 39.5781 111.508 39.1875C 111.961 38.7969 112.352 37.9219 112.68 36.5625L 113.008 35.3203L 103.258 10.875L 110.641 10.875L 115.727 26.0391ZM 153.953 33.6328C 153.781 37.5234 152.688 40.4688 150.672 42.4688C 148.656 44.4688 145.813 45.4688 142.141 45.4688C 138.281 45.4688 135.32 44.2031 133.258 41.6719C 131.211 39.125 130.188 35.5 130.188 30.7969L 130.188 25.0547C 130.188 20.3672 131.25 16.7578 133.375 14.2266C 135.5 11.6797 138.453 10.4062 142.234 10.4062C 145.953 10.4062 148.773 11.4453 150.695 13.5234C 152.633 15.6016 153.734 18.5859 154 22.4766L 147.086 22.4766C 147.023 20.0703 146.648 18.4141 145.961 17.5078C 145.289 16.5859 144.047 16.125 142.234 16.125C 140.391 16.125 139.086 16.7734 138.32 18.0703C 137.555 19.3516 137.148 21.4688 137.102 24.4219L 137.102 30.8672C 137.102 34.2578 137.477 36.5859 138.227 37.8516C 138.992 39.1172 140.297 39.75 142.141 39.75C 143.953 39.75 145.203 39.3125 145.891 38.4375C 146.578 37.5469 146.969 35.9453 147.062 33.6328L 153.953 33.6328Z"/>
<path id="path1_fill" d="M 57.7109 119L 24.1953 119L 24.1953 111.188L 39.5859 91.6172C 41.5391 88.9089 42.9714 86.5391 43.8828 84.5078C 44.8203 82.4505 45.2891 80.4844 45.2891 78.6094C 45.2891 76.0833 44.8464 74.1042 43.9609 72.6719C 43.1016 71.2396 41.8516 70.5234 40.2109 70.5234C 38.4141 70.5234 36.9818 71.3568 35.9141 73.0234C 34.8724 74.6901 34.3516 77.0339 34.3516 80.0547L 23.2578 80.0547C 23.2578 76.5651 23.974 73.375 25.4062 70.4844C 26.8646 67.5938 28.8958 65.3542 31.5 63.7656C 34.1302 62.151 37.099 61.3438 40.4062 61.3438C 45.4844 61.3438 49.4167 62.75 52.2031 65.5625C 55.0156 68.349 56.4219 72.3203 56.4219 77.4766C 56.4219 80.6797 55.6406 83.9349 54.0781 87.2422C 52.5417 90.5234 49.7422 94.5729 45.6797 99.3906L 38.375 109.82L 57.7109 109.82L 57.7109 119ZM 65.7969 91.0312L 68.6094 62.125L 96.1484 62.125L 96.1484 71.5781L 77.6719 71.5781L 76.6562 83.7656C 78.7917 82.3333 80.9922 81.6172 83.2578 81.6172C 87.9453 81.6172 91.5521 83.2839 94.0781 86.6172C 96.6302 89.9505 97.9062 94.6641 97.9062 100.758C 97.9062 106.461 96.3958 111.057 93.375 114.547C 90.3542 118.036 86.3177 119.781 81.2656 119.781C 78.2708 119.781 75.4974 119.078 72.9453 117.672C 70.3932 116.24 68.375 114.26 66.8906 111.734C 65.4323 109.208 64.6901 106.344 64.6641 103.141L 75.6016 103.141C 75.7839 105.51 76.3698 107.346 77.3594 108.648C 78.349 109.951 79.625 110.602 81.1875 110.602C 83.0104 110.602 84.4167 109.729 85.4062 107.984C 86.3958 106.214 86.8906 103.583 86.8906 100.094C 86.8906 96.8125 86.2917 94.3385 85.0938 92.6719C 83.9219 91.0052 82.2682 90.1719 80.1328 90.1719C 78.0495 90.1719 76.4349 90.888 75.2891 92.3203L 74.5859 93.2969L 65.7969 91.0312ZM 105.211 73.0625C 105.211 69.599 106.161 66.7734 108.062 64.5859C 109.99 62.3984 112.581 61.3047 115.836 61.3047C 119.091 61.3047 121.682 62.3854 123.609 64.5469C 125.562 66.6823 126.539 69.5729 126.539 73.2188L 126.539 76.0703C 126.539 79.5859 125.576 82.4115 123.648 84.5469C 121.721 86.6823 119.143 87.75 115.914 87.75C 112.711 87.75 110.12 86.6823 108.141 84.5469C 106.188 82.4115 105.211 79.5078 105.211 75.8359L 105.211 73.0625ZM 112.398 76.0703C 112.398 77.6328 112.724 78.8828 113.375 79.8203C 114.052 80.7318 114.898 81.1875 115.914 81.1875C 116.956 81.1875 117.776 80.7057 118.375 79.7422C 119 78.7786 119.312 77.5156 119.312 75.9531L 119.312 73.0625C 119.312 71.5521 119 70.3151 118.375 69.3516C 117.75 68.362 116.904 67.8672 115.836 67.8672C 114.794 67.8672 113.961 68.362 113.336 69.3516C 112.711 70.3151 112.398 71.5911 112.398 73.1797L 112.398 76.0703ZM 127.633 105.055C 127.633 101.539 128.609 98.7135 130.562 96.5781C 132.516 94.4167 135.094 93.3359 138.297 93.3359C 141.526 93.3359 144.117 94.4036 146.07 96.5391C 148.023 98.6484 149 101.552 149 105.25L 149 108.102C 149 111.591 148.049 114.417 146.148 116.578C 144.247 118.714 141.656 119.781 138.375 119.781C 135.068 119.781 132.451 118.701 130.523 116.539C 128.596 114.378 127.633 111.513 127.633 107.945L 127.633 105.055ZM 134.859 108.102C 134.859 109.56 135.198 110.784 135.875 111.773C 136.578 112.763 137.411 113.258 138.375 113.258C 140.536 113.258 141.669 111.708 141.773 108.609L 141.773 105.055C 141.773 103.518 141.448 102.281 140.797 101.344C 140.172 100.38 139.339 99.8984 138.297 99.8984C 136.005 99.8984 134.859 101.891 134.859 105.875L 134.859 108.102ZM 117.906 114.742L 112.672 111.773L 135.992 67.3203L 141.266 70.2891L 117.906 114.742Z"/>
</defs>
</svg>
