<svg width="77" height="55" viewBox="0 0 77 55" version="1.1" xmlns="http://www.w3.org/2000/svg" xmlns:xlink="http://www.w3.org/1999/xlink">
<title>Group 2</title>
<desc>Created using Figma</desc>
<g id="Canvas" transform="translate(-1989 -4870)">
<g id="Group 2">
<g id="Group">
<g id="Group">
<g id="Vector">
<use xlink:href="#path0_stroke" transform="translate(2008.46 4914.07)" fill="#EB5757"/>
</g>
<g id="Vector">
<use xlink:href="#path1_stroke" transform="translate(2021.17 4909.6)" fill="#EB5757"/>
</g>
<g id="Vector">
<use xlink:href="#path2_stroke" transform="translate(1990 4906.47)" fill="#EB5757"/>
</g>
<g id="Vector">
<use xlink:href="#path3_stroke" transform="translate(1990 4871)" fill="#EB5757"/>
</g>
</g>
<g id="XMLID 259">
<use xlink:href="#path4_stroke" transform="translate(2045.36 4917.21)" fill="#EB5757"/>
</g>
<g id="XMLID 258">
<use xlink:href="#path5_stroke" transform="translate(2043.25 4890.04)" fill="#EB5757"/>
</g>
<g id="XMLID 257">
<use xlink:href="#path6_stroke" transform="translate(2053.21 4920.11)" fill="#EB5757"/>
</g>
<g id="XMLID 256">
<use xlink:href="#path7_stroke" transform="translate(2051.63 4893.47)" fill="#EB5757"/>
</g>
</g>
<g id="Vector">
<use xlink:href="#path8_fill" transform="translate(2017.47 4879.65)" fill="#EB5757"/>
</g>
<g id="Vector">
<use xlink:href="#path9_stroke" transform="translate(2034.81 4888.71)" fill="#EB5757"/>
</g>
<g id="Vector">
<use xlink:href="#path10_stroke" transform="translate(2008.86 4888.71)" fill="#EB5757"/>
</g>
</g>
</g>
<defs>
<path id="path0_stroke" d="M 22.6685 -8.85778e-07L 23.6634 0.100428L 23.7745 -1L 22.6685 -1L 22.6685 -8.85778e-07ZM 22.9027 4.64403L 21.9225 4.84187L 22.9027 4.64403ZM 26.5347 8.99781L 27.017 8.12178L 27.0033 8.11425L 26.9894 8.10715L 26.5347 8.99781ZM 0.290482 8.99781L -0.164186 8.10715L -0.178101 8.11425L -0.191788 8.12178L 0.290482 8.99781ZM 3.92249 4.64403L 2.94223 4.44619L 2.94103 4.45233L 3.92249 4.64403ZM 4.15675 -8.85778e-07L 4.15675 -1L 3.05073 -1L 3.16181 0.100428L 4.15675 -8.85778e-07ZM 13.354 0.999999L 22.6685 0.999999L 22.6685 -1L 13.354 -1L 13.354 0.999999ZM 22.6685 -8.85778e-07C 21.6735 -0.10043 21.6735 -0.100275 21.6735 -0.100112C 21.6735 -0.100045 21.6735 -0.0998726 21.6735 -0.0997398C 21.6734 -0.0994742 21.6734 -0.0991728 21.6734 -0.0988359C 21.6733 -0.0981621 21.6732 -0.0973461 21.6731 -0.0963889C 21.6729 -0.0944746 21.6727 -0.0919957 21.6724 -0.088961C 21.6718 -0.0828919 21.671 -0.0745986 21.6701 -0.0641524C 21.6682 -0.0432623 21.6656 -0.0137486 21.6626 0.0238159C 21.6565 0.0989236 21.6486 0.20635 21.6408 0.341505C 21.6252 0.611548 21.6099 0.993789 21.6099 1.45124C 21.6098 2.36053 21.6705 3.59312 21.9225 4.84187L 23.883 4.44619C 23.6664 3.37292 23.6098 2.2835 23.6099 1.45127C 23.6099 1.03797 23.6238 0.694584 23.6375 0.456686C 23.6444 0.33787 23.6511 0.245749 23.6561 0.184801C 23.6585 0.154338 23.6605 0.131697 23.6618 0.117439C 23.6625 0.110311 23.6629 0.105283 23.6632 0.102423C 23.6634 0.100993 23.6634 0.100106 23.6635 0.0997708C 23.6635 0.099603 23.6635 0.0995732 23.6635 0.0996823C 23.6635 0.0997368 23.6635 0.0998262 23.6635 0.0999504C 23.6635 0.100012 23.6634 0.100132 23.6634 0.100163C 23.6634 0.100291 23.6634 0.100428 22.6685 -8.85778e-07ZM 21.9225 4.84187C 22.347 6.94521 23.9379 8.79493 26.0801 9.88847L 26.9894 8.10715C 25.2652 7.22697 24.1614 5.82587 23.883 4.44619L 21.9225 4.84187ZM 26.0525 9.87383C 26.0194 9.85564 25.9289 9.79135 25.8703 9.65127C 25.8111 9.50965 25.8122 9.3533 25.8617 9.22104C 25.9638 8.94774 26.1786 8.92661 26.1833 8.92661L 26.1833 10.9266C 26.8325 10.9266 27.4866 10.5862 27.7351 9.92107C 28.0068 9.19397 27.6503 8.4704 27.017 8.12178L 26.0525 9.87383ZM 26.1833 8.92661L 13.4126 8.92661L 13.4126 10.9266L 26.1833 10.9266L 26.1833 8.92661ZM 13.4126 8.92661L 0.641883 8.92661L 0.641883 10.9266L 13.4126 10.9266L 13.4126 8.92661ZM 0.641883 8.92661C 0.646614 8.92661 0.86145 8.94774 0.963569 9.22104C 1.01299 9.3533 1.01413 9.50965 0.954891 9.65127C 0.896298 9.79135 0.805791 9.85564 0.772751 9.87383L -0.191788 8.12178C -0.825035 8.4704 -1.1816 9.19397 -0.909921 9.92107C -0.661393 10.5862 -0.0072405 10.9266 0.641883 10.9266L 0.641883 8.92661ZM 0.74515 9.88847C 2.87766 8.79986 4.47923 7.01021 4.90394 4.83573L 2.94103 4.45233C 2.66277 5.87698 1.56966 7.22204 -0.164186 8.10715L 0.74515 9.88847ZM 4.90272 4.84187C 5.15475 3.59312 5.21538 2.36053 5.21536 1.45124C 5.21536 0.993789 5.19997 0.611548 5.18439 0.341505C 5.1766 0.20635 5.16873 0.0989236 5.16267 0.0238159C 5.15963 -0.0137486 5.15705 -0.0432623 5.15514 -0.0641524C 5.15419 -0.0745986 5.15341 -0.0828919 5.15282 -0.088961C 5.15253 -0.0919957 5.15229 -0.0944746 5.1521 -0.0963889C 5.15201 -0.0973461 5.15193 -0.0981621 5.15186 -0.0988359C 5.15182 -0.0991728 5.15179 -0.0994742 5.15177 -0.0997398C 5.15175 -0.0998726 5.15174 -0.100045 5.15173 -0.100112C 5.15171 -0.100275 5.1517 -0.10043 4.15675 -8.85778e-07C 3.16181 0.100428 3.1618 0.100291 3.16178 0.100163C 3.16178 0.100132 3.16177 0.100012 3.16176 0.0999504C 3.16175 0.0998262 3.16174 0.0997368 3.16174 0.0996823C 3.16172 0.0995732 3.16173 0.099603 3.16174 0.0997708C 3.16178 0.100106 3.16186 0.100993 3.162 0.102423C 3.16228 0.105283 3.16275 0.110311 3.1634 0.117439C 3.1647 0.131697 3.16669 0.154338 3.16915 0.184801C 3.17408 0.245749 3.18086 0.33787 3.18771 0.456686C 3.20144 0.694584 3.21536 1.03797 3.21536 1.45127C 3.21538 2.2835 3.15887 3.37292 2.94225 4.44619L 4.90272 4.84187ZM 4.15675 0.999999L 13.354 0.999999L 13.354 -1L 4.15675 -1L 4.15675 0.999999Z"/>
<path id="path1_stroke" d="M 0.644336 8.85779e-07L 0.807285 -0.986634L 0.726359 -0.999999L 0.644336 -0.999999L 0.644336 8.85779e-07ZM 0.288786 0.638554C 0.288786 0.425893 0.452257 0.277107 0.644336 0.277107L 0.644336 2.27711C 1.53939 2.27711 2.28879 1.54782 2.28879 0.638554L 0.288786 0.638554ZM 0.644336 0.277107C 0.836704 0.277107 1.00003 0.42618 1.00003 0.638554L -0.999971 0.638554C -0.999971 1.54753 -0.251006 2.27711 0.644336 2.27711L 0.644336 0.277107ZM 1.00003 0.638554C 1.00003 0.850929 0.836704 1 0.644336 1L 0.644336 -0.999999C -0.251007 -0.999999 -0.999971 -0.270425 -0.999971 0.638554L 1.00003 0.638554ZM 0.481387 0.986635C 0.443641 0.980401 0.4181 0.965915 0.394531 0.942563C 0.377643 0.92583 0.288786 0.829334 0.288786 0.638554L 2.28879 0.638554C 2.28879 0.157522 2.05345 -0.229225 1.80221 -0.478159C 1.54428 -0.733712 1.19652 -0.922349 0.807285 -0.986634L 0.481387 0.986635Z"/>
<path id="path2_stroke" d="M -1.4302e-05 0L -1.4302e-05 -1L -1.00001 -1L -1.00001 0L -1.4302e-05 0ZM 53.3089 6.6046L 22.5538 6.6046L 22.5538 8.6046L 53.3089 8.6046L 53.3089 6.6046ZM 22.5538 6.6046L 3.16338 6.6046L 3.16338 8.6046L 22.5538 8.6046L 22.5538 6.6046ZM 3.16338 6.6046C 1.94963 6.6046 0.999986 5.65054 0.999986 4.46988L -1.00001 4.46988C -1.00001 6.77224 0.86227 8.6046 3.16338 8.6046L 3.16338 6.6046ZM 0.999986 4.46988L 0.999986 0L -1.00001 0L -1.00001 4.46988L 0.999986 4.46988ZM -1.4302e-05 1L 12.3021 1L 12.3021 -1L -1.4302e-05 -1L -1.4302e-05 1Z"/>
<path id="path3_stroke" d="M -1.4302e-05 35.4688L -1.00001 35.4688L -1.00001 36.4688L -1.4302e-05 36.4688L -1.4302e-05 35.4688ZM 53.2503 34.4688L -1.4302e-05 34.4688L -1.4302e-05 36.4688L 53.2503 36.4688L 53.2503 34.4688ZM 0.999986 35.4688L 0.999986 27.0515L -1.00001 27.0515L -1.00001 35.4688L 0.999986 35.4688ZM 0.999986 27.0515L 0.999986 3.36692L -1.00001 3.36692L -1.00001 27.0515L 0.999986 27.0515ZM 0.999986 3.36692C 0.999986 2.07014 2.06675 1 3.39765 1L 3.39765 -1C 0.979353 -1 -1.00001 0.94848 -1.00001 3.36692L 0.999986 3.36692ZM 3.39765 1L 60.28 1L 60.28 -1L 3.39765 -1L 3.39765 1ZM 60.28 1C 61.611 1 62.6778 2.07017 62.6778 3.36692L 64.6778 3.36692C 64.6778 0.948453 62.6983 -1 60.28 -1L 60.28 1ZM 62.6778 3.36692L 62.6778 19.0405L 64.6778 19.0405L 64.6778 3.36692L 62.6778 3.36692Z"/>
<path id="path4_stroke" d="M 16.6371 -1L 5.72082e-05 -1L 5.72082e-05 1L 16.6371 1L 16.6371 -1Z"/>
<path id="path5_stroke" d="M 20.7377 32.3341L 19.7377 32.3341L 19.7377 32.401L 19.7466 32.4674L 20.7377 32.3341ZM 19.2147 32.9014L 1.58166 32.9014L 1.58166 34.9014L 19.2147 34.9014L 19.2147 32.9014ZM 1.58166 32.9014C 1.24665 32.9014 1 32.644 1 32.3341L -1 32.3341C -1 33.7656 0.15924 34.9014 1.58166 34.9014L 1.58166 32.9014ZM 1 32.3341L 1 16.4283L -1 16.4283L -1 32.3341L 1 32.3341ZM 1 16.4283L 1 1.56736L -1 1.56736L -1 16.4283L 1 16.4283ZM 1 1.56736C 1 1.25743 1.24665 1 1.58166 1L 1.58166 -1C 0.159238 -1 -1 0.135782 -1 1.56736L 1 1.56736ZM 1.58166 1L 10.3688 1L 10.3688 -1L 1.58166 -1L 1.58166 1ZM 10.3688 1L 19.156 1L 19.156 -1L 10.3688 -1L 10.3688 1ZM 19.156 1C 19.491 1 19.7377 1.25743 19.7377 1.56736L 21.7377 1.56736C 21.7377 0.135782 20.5784 -1 19.156 -1L 19.156 1ZM 19.7377 1.56736L 19.7377 32.3341L 21.7377 32.3341L 21.7377 1.56736L 19.7377 1.56736ZM 19.7466 32.4674C 19.759 32.5598 19.7329 32.6476 19.6457 32.734C 19.55 32.8288 19.394 32.9014 19.2147 32.9014L 19.2147 34.9014C 20.5497 34.9014 21.9453 33.81 21.7288 32.2007L 19.7466 32.4674Z"/>
<path id="path6_stroke" d="M 0.527173 1.04491L 0.527173 2.04491L 0.527173 1.04491ZM 2.05449 0.522454C 2.05449 -0.328854 1.36355 -1 0.527173 -1L 0.527173 1C 0.276607 1 0.0544898 0.793258 0.0544898 0.522454L 2.05449 0.522454ZM 0.527173 -1C -0.309561 -1 -1 -0.328501 -1 0.522454L 1 0.522454C 1 0.792906 0.778096 1 0.527173 1L 0.527173 -1ZM -1 0.522454C -1 1.37341 -0.309561 2.04491 0.527173 2.04491L 0.527173 0.0449087C 0.778096 0.0449087 1 0.252003 1 0.522454L -1 0.522454ZM 0.527173 2.04491C 0.947822 2.04491 1.31145 1.85322 1.55575 1.62847C 1.80986 1.3947 2.05449 1.01334 2.05449 0.522454L 0.0544898 0.522454C 0.0544898 0.321821 0.152627 0.201692 0.20166 0.156583C 0.230357 0.130183 0.265231 0.10638 0.309254 0.0872141C 0.351146 0.0689762 0.424786 0.0449087 0.527173 0.0449087L 0.527173 2.04491Z"/>
<path id="path7_stroke" d="M 2.86041e-05 0.999998L 2.05037 0.999998L 2.05037 -1L 2.86041e-05 -1L 2.86041e-05 0.999998ZM 2.05037 0.999998L 4.10071 0.999998L 4.10071 -1L 2.05037 -1L 2.05037 0.999998Z"/>
<path id="path8_fill" d="M 6.9774 12.5969C 6.9774 12.0164 6.80166 11.552 6.39159 11.1457C 5.98152 10.7393 5.33713 10.391 4.34125 10.0427C 3.05246 9.63636 2.05658 9.11391 1.41219 8.47536C 0.767796 7.8368 0.416338 6.96605 0.416338 5.86309C 0.416338 4.81818 0.709301 3.94743 1.35369 3.30887C 1.93951 2.67032 2.81825 2.26397 3.87271 2.08981L 3.87271 -4.42889e-07L 5.39574 -4.42889e-07L 5.39574 2.08981C 6.4502 2.20592 7.27036 2.67032 7.91476 3.36692C 8.50057 4.12158 8.79348 5.05038 8.79348 6.32749L 6.91891 6.32749C 6.91891 5.51479 6.74316 4.87623 6.33309 4.35378C 5.92303 3.83132 5.39571 3.59912 4.63415 3.59912C 3.8726 3.59912 3.28684 3.77327 2.93536 4.17963C 2.58387 4.58598 2.34955 5.10843 2.34955 5.80504C 2.34955 6.44359 2.52529 6.908 2.93536 7.31435C 3.34543 7.7207 4.04846 8.069 5.04434 8.4173C 6.33312 8.82366 7.329 9.34611 7.9734 9.98467C 8.61779 10.6232 8.91061 11.4359 8.91061 12.5389C 8.91061 13.6418 8.55915 14.5126 7.91476 15.1512C 7.27036 15.7897 6.33301 16.1961 5.21997 16.3122L 5.21997 18.1117L 3.69694 18.1117L 3.69694 16.3122C 2.5839 16.1961 1.70512 15.7897 1.00215 15.0931C 0.299175 14.3965 -0.0522831 13.4096 0.00629807 12.0745L 0.00629807 12.0164L 1.82237 12.0164C 1.82237 13.0033 2.05658 13.6999 2.58381 14.1062C 3.11104 14.5126 3.69691 14.7448 4.39989 14.7448C 5.22002 14.7448 5.86444 14.5706 6.33309 14.1643C 6.74316 13.816 6.9774 13.2355 6.9774 12.5969Z"/>
<path id="path9_stroke" d="M 5.72082e-05 -0.999998C -0.552228 -0.999998 -0.999943 -0.552283 -0.999943 1.52588e-06C -0.999943 0.552286 -0.552228 1 5.72082e-05 1L 5.72082e-05 -0.999998ZM 2.22603 1C 2.77831 1 3.22603 0.552286 3.22603 1.52588e-06C 3.22603 -0.552283 2.77831 -0.999998 2.22603 -0.999998L 2.22603 1ZM 5.72082e-05 1L 2.22603 1L 2.22603 -0.999998L 5.72082e-05 -0.999998L 5.72082e-05 1Z"/>
<path id="path10_stroke" d="M 2.86041e-05 -0.999998C -0.552256 -0.999998 -0.999971 -0.552283 -0.999971 1.52588e-06C -0.999971 0.552286 -0.552256 1 2.86041e-05 1L 2.86041e-05 -0.999998ZM 2.1675 1C 2.71979 1 3.1675 0.552286 3.1675 1.52588e-06C 3.1675 -0.552283 2.71979 -0.999998 2.1675 -0.999998L 2.1675 1ZM 2.86041e-05 1L 2.1675 1L 2.1675 -0.999998L 2.86041e-05 -0.999998L 2.86041e-05 1Z"/>
</defs>
</svg>
