<svg width="590" height="494" viewBox="0 0 590 494" fill="none" xmlns="http://www.w3.org/2000/svg">
<path d="M0 151.879V369H574.797V223.211L567.792 208.573L556.698 222.126C556.209 222.723 555.419 222.989 554.665 222.811L533.489 217.806C533.478 217.804 533.467 217.801 533.456 217.798L533.452 217.797L533.436 217.793L518.894 213.944L507.366 217.758C506.343 218.097 505.232 217.575 504.845 216.575L493.931 188.314L483.743 191.55L472.53 206.067C472.122 206.595 471.475 206.888 470.806 206.847C470.136 206.806 469.53 206.437 469.19 205.862L455.577 182.841C455.487 182.69 455.418 182.527 455.372 182.358L449.835 162.376L443.827 143.491L432.775 118.061C432.69 117.866 432.637 117.658 432.618 117.446L422.015 0L418.486 38.8511L413.95 106.89C413.942 107.01 413.923 107.128 413.894 107.244L410.365 121.257C410.281 121.587 410.114 121.892 409.879 122.14L402.316 130.148C402.236 130.232 402.149 130.31 402.055 130.38L393.988 136.385C393.639 136.645 393.214 136.786 392.778 136.786H386.223C385.588 136.786 384.99 136.489 384.609 135.985L380.176 130.118L371.899 122.385L366.518 119.27H362.529L356.422 122.534C356.289 122.605 356.148 122.661 356.003 122.701L341.381 126.705C341.206 126.752 341.025 126.777 340.844 126.777H329.247C329.066 126.777 328.886 126.752 328.711 126.705L314.089 122.701C313.983 122.672 313.88 122.634 313.78 122.589L300.803 116.644L287.33 112.681C287.059 112.602 286.809 112.467 286.595 112.286L272.981 100.775C272.912 100.717 272.847 100.653 272.786 100.586L264.214 91.0773C264.088 90.9369 263.982 90.7796 263.9 90.6099L252.55 67.1783L240.445 79.6223C240.418 79.6505 240.39 79.6779 240.361 79.7044C240.332 79.7309 240.302 79.7565 240.271 79.7812L229.179 88.7895C228.819 89.0821 228.367 89.242 227.902 89.242H217.836L213.755 91.4924L213.725 91.5088L206.162 95.5125C205.624 95.7972 204.985 95.8252 204.424 95.5888L169.293 80.7809L156.558 103.721C156.204 104.358 155.529 104.755 154.795 104.756C154.061 104.758 153.385 104.363 153.029 103.727L148.156 95.0206L135.9 84.3157L129.96 80.2337H123.585L116.714 84.3258L109.831 91.158C109.217 91.7673 108.279 91.9183 107.503 91.533L102.886 89.242H84.4471L66.863 104.271C66.7717 104.349 66.6734 104.419 66.5695 104.48L57.998 109.485C57.851 109.57 57.6935 109.637 57.5295 109.684L46.9412 112.687C46.9026 112.698 46.8637 112.707 46.8246 112.716C46.7895 112.724 46.7542 112.731 46.7187 112.736L23.3858 116.596L0 151.879Z" transform="translate(7 97)" fill="url(#paint0_linear)"/>
<path d="M0 151.879V369H574.797V223.211L567.792 208.573L556.698 222.126C556.209 222.723 555.419 222.989 554.665 222.811L533.489 217.806C533.478 217.804 533.467 217.801 533.456 217.798L533.452 217.797L533.436 217.793L518.894 213.944L507.366 217.758C506.343 218.097 505.232 217.575 504.845 216.575L493.931 188.314L483.743 191.55L472.53 206.067C472.122 206.595 471.475 206.888 470.806 206.847C470.136 206.806 469.53 206.437 469.19 205.862L455.577 182.841C455.487 182.69 455.418 182.527 455.372 182.358L449.835 162.376L443.827 143.491L432.775 118.061C432.69 117.866 432.637 117.658 432.618 117.446L422.015 0L418.486 38.8511L413.95 106.89C413.942 107.01 413.923 107.128 413.894 107.244L410.365 121.257C410.281 121.587 410.114 121.892 409.879 122.14L402.316 130.148C402.236 130.232 402.149 130.31 402.055 130.38L393.988 136.385C393.639 136.645 393.214 136.786 392.778 136.786H386.223C385.588 136.786 384.99 136.489 384.609 135.985L380.176 130.118L371.899 122.385L366.518 119.27H362.529L356.422 122.534C356.289 122.605 356.148 122.661 356.003 122.701L341.381 126.705C341.206 126.752 341.025 126.777 340.844 126.777H329.247C329.066 126.777 328.886 126.752 328.711 126.705L314.089 122.701C313.983 122.672 313.88 122.634 313.78 122.589L300.803 116.644L287.33 112.681C287.059 112.602 286.809 112.467 286.595 112.286L272.981 100.775C272.912 100.717 272.847 100.653 272.786 100.586L264.214 91.0773C264.088 90.9369 263.982 90.7796 263.9 90.6099L252.55 67.1783L240.445 79.6223C240.418 79.6505 240.39 79.6779 240.361 79.7044C240.332 79.7309 240.302 79.7565 240.271 79.7812L229.179 88.7895C228.819 89.0821 228.367 89.242 227.902 89.242H217.836L213.755 91.4924L213.725 91.5088L206.162 95.5125C205.624 95.7972 204.985 95.8252 204.424 95.5888L169.293 80.7809L156.558 103.721C156.204 104.358 155.529 104.755 154.795 104.756C154.061 104.758 153.385 104.363 153.029 103.727L148.156 95.0206L135.9 84.3157L129.96 80.2337H123.585L116.714 84.3258L109.831 91.158C109.217 91.7673 108.279 91.9183 107.503 91.533L102.886 89.242H84.4471L66.863 104.271C66.7717 104.349 66.6734 104.419 66.5695 104.48L57.998 109.485C57.851 109.57 57.6935 109.637 57.5295 109.684L46.9412 112.687C46.9026 112.698 46.8637 112.707 46.8246 112.716C46.7895 112.724 46.7542 112.731 46.7187 112.736L23.3858 116.596L0 151.879Z" transform="translate(7 97)" fill="url(#paint1_linear)"/>
<g filter="url(#filter0_f)">
<path d="M0 175L25 137L49 133L59.5 130L68 125L86 109.5H105.5L110.5 112L117.5 105L125 100.5H132.5L139 105L151.5 116L156.5 125L170 100.5L206.5 116L214 112L218.5 109.5H224.5H229L240 100.5L254 86L266.5 112L275 121.5L288.5 133L302 137L315 143L329.5 147H341L355.5 143L362 139.5H367L373 143L381.5 151L386 157H392.5L400.5 151L408 143L411.5 129L416 61L421.5 0L434 139.5L445 165L451 184L456.5 204L470 227L481.5 212L494 208L505.5 238L517.5 234L532.5 238L553.5 243L566.5 227L576 247" transform="translate(7 82)" stroke="#EF7D00"/>
</g>
<path d="M0 175L25 137L49 133L59.5 130L68 125L86 109.5H105.5L110.5 112L117.5 105L125 100.5H132.5L139 105L151.5 116L156.5 125L170 100.5L206.5 116L214 112L218.5 109.5H224.5H229L240 100.5L254 86L266.5 112L275 121.5L288.5 133L302 137L315 143L329.5 147H341L355.5 143L362 139.5H367L373 143L381.5 151L386 157H392.5L400.5 151L408 143L411.5 129L416 61L421.5 0L434 139.5L445 165L451 184L456.5 204L470 227L481.5 212L494 208L505.5 238L517.5 234L532.5 238L553.5 243L566.5 227L576 247" transform="translate(7 77)" stroke="url(#paint2_linear)" stroke-width="4" stroke-linejoin="round"/>
<line y1="-1" x2="578" y2="-1" transform="translate(7 469)" stroke="#898989" stroke-width="2"/>
<path d="M5.03906 14H3.76758V5.57129L1.21777 6.50781V5.35938L4.84082 3.99902H5.03906V14Z" transform="translate(15 475)" fill="#EF7D00"/>
<path d="M20.1943 14H18.875L13.8643 6.33008V14H12.5449V4.04688H13.8643L18.8887 11.751V4.04688H20.1943V14ZM21.9922 10.2334C21.9922 9.50879 22.1335 8.8571 22.416 8.27832C22.7031 7.69954 23.0996 7.25293 23.6055 6.93848C24.1159 6.62402 24.6969 6.4668 25.3486 6.4668C26.3558 6.4668 27.1693 6.81543 27.7891 7.5127C28.4134 8.20996 28.7256 9.13737 28.7256 10.2949V10.3838C28.7256 11.1038 28.5866 11.751 28.3086 12.3252C28.0352 12.8949 27.641 13.3392 27.126 13.6582C26.6156 13.9772 26.0277 14.1367 25.3623 14.1367C24.3597 14.1367 23.5462 13.7881 22.9219 13.0908C22.3021 12.3936 21.9922 11.4707 21.9922 10.3223V10.2334ZM23.2637 10.3838C23.2637 11.2041 23.4528 11.8626 23.8311 12.3594C24.2139 12.8561 24.7243 13.1045 25.3623 13.1045C26.0049 13.1045 26.5153 12.8538 26.8936 12.3525C27.2718 11.8467 27.4609 11.1403 27.4609 10.2334C27.4609 9.4222 27.2673 8.76595 26.8799 8.26465C26.4971 7.75879 25.9867 7.50586 25.3486 7.50586C24.7243 7.50586 24.2207 7.75423 23.8379 8.25098C23.4551 8.74772 23.2637 9.45866 23.2637 10.3838ZM32.6426 12.2842L34.4746 6.60352H35.7666L33.1143 14H32.1504L29.4707 6.60352H30.7627L32.6426 12.2842ZM46.8477 14H40.3262V13.0908L43.7715 9.2627C44.2819 8.68392 44.6328 8.21452 44.8242 7.85449C45.0202 7.48991 45.1182 7.11393 45.1182 6.72656C45.1182 6.20703 44.9609 5.78092 44.6465 5.44824C44.332 5.11556 43.9128 4.94922 43.3887 4.94922C42.7598 4.94922 42.2699 5.12923 41.9189 5.48926C41.5726 5.84473 41.3994 6.34147 41.3994 6.97949H40.1348C40.1348 6.06348 40.4287 5.32292 41.0166 4.75781C41.609 4.19271 42.3997 3.91016 43.3887 3.91016C44.3138 3.91016 45.0452 4.15397 45.583 4.6416C46.1208 5.12467 46.3896 5.76953 46.3896 6.57617C46.3896 7.55599 45.7653 8.72266 44.5166 10.0762L41.8506 12.9678H46.8477V14ZM54.4287 9.75488C54.4287 11.236 54.1758 12.3366 53.6699 13.0566C53.1641 13.7767 52.3734 14.1367 51.2979 14.1367C50.236 14.1367 49.4499 13.7858 48.9395 13.084C48.429 12.3776 48.1647 11.3249 48.1465 9.92578V8.2373C48.1465 6.77441 48.3994 5.6875 48.9053 4.97656C49.4111 4.26562 50.2041 3.91016 51.2842 3.91016C52.3551 3.91016 53.1436 4.25423 53.6494 4.94238C54.1553 5.62598 54.415 6.68327 54.4287 8.11426V9.75488ZM53.1641 8.02539C53.1641 6.95443 53.0137 6.17513 52.7129 5.6875C52.4121 5.19531 51.9359 4.94922 51.2842 4.94922C50.637 4.94922 50.1654 5.19303 49.8691 5.68066C49.5729 6.16829 49.4202 6.91797 49.4111 7.92969V9.95312C49.4111 11.0286 49.5661 11.8239 49.876 12.3389C50.1904 12.8493 50.6644 13.1045 51.2979 13.1045C51.9222 13.1045 52.3848 12.863 52.6855 12.3799C52.9909 11.8968 53.1504 11.1357 53.1641 10.0967V8.02539ZM60.2051 14H58.9336V5.57129L56.3838 6.50781V5.35938L60.0068 3.99902H60.2051V14ZM68.873 4.04004V5.11328H68.6406C67.6562 5.13151 66.8724 5.42318 66.2891 5.98828C65.7057 6.55339 65.3685 7.34863 65.2773 8.37402C65.8014 7.77246 66.5169 7.47168 67.4238 7.47168C68.2897 7.47168 68.9801 7.77702 69.4951 8.3877C70.0146 8.99837 70.2744 9.78678 70.2744 10.7529C70.2744 11.7783 69.9941 12.5986 69.4336 13.2139C68.8776 13.8291 68.1302 14.1367 67.1914 14.1367C66.2389 14.1367 65.4665 13.7721 64.874 13.043C64.2816 12.3092 63.9854 11.3659 63.9854 10.2129V9.72754C63.9854 7.89551 64.375 6.49642 65.1543 5.53027C65.9382 4.55957 67.1025 4.06283 68.6475 4.04004H68.873ZM67.2119 8.52441C66.779 8.52441 66.3802 8.6543 66.0156 8.91406C65.651 9.17383 65.3981 9.49967 65.2568 9.8916V10.3564C65.2568 11.1768 65.4414 11.8376 65.8105 12.3389C66.1797 12.8402 66.64 13.0908 67.1914 13.0908C67.7611 13.0908 68.2077 12.8812 68.5312 12.4619C68.8594 12.0426 69.0234 11.4935 69.0234 10.8145C69.0234 10.1309 68.8571 9.57943 68.5244 9.16016C68.1963 8.73633 67.7588 8.52441 67.2119 8.52441Z" transform="translate(15 475)" fill="black"/>
<path d="M7.70898 14H1.1875V13.0908L4.63281 9.2627C5.14323 8.68392 5.49414 8.21452 5.68555 7.85449C5.88151 7.48991 5.97949 7.11393 5.97949 6.72656C5.97949 6.20703 5.82227 5.78092 5.50781 5.44824C5.19336 5.11556 4.77409 4.94922 4.25 4.94922C3.62109 4.94922 3.13118 5.12923 2.78027 5.48926C2.43392 5.84473 2.26074 6.34147 2.26074 6.97949H0.996094C0.996094 6.06348 1.29004 5.32292 1.87793 4.75781C2.47038 4.19271 3.26107 3.91016 4.25 3.91016C5.17513 3.91016 5.90658 4.15397 6.44434 4.6416C6.9821 5.12467 7.25098 5.76953 7.25098 6.57617C7.25098 7.55599 6.62663 8.72266 5.37793 10.0762L2.71191 12.9678H7.70898V14Z" transform="translate(104 474)" fill="#EF7D00"/>
<path d="M20.499 14H19.1797L14.1689 6.33008V14H12.8496V4.04688H14.1689L19.1934 11.751V4.04688H20.499V14ZM22.2969 10.2334C22.2969 9.50879 22.4382 8.8571 22.7207 8.27832C23.0078 7.69954 23.4043 7.25293 23.9102 6.93848C24.4206 6.62402 25.0016 6.4668 25.6533 6.4668C26.6605 6.4668 27.474 6.81543 28.0938 7.5127C28.7181 8.20996 29.0303 9.13737 29.0303 10.2949V10.3838C29.0303 11.1038 28.8913 11.751 28.6133 12.3252C28.3398 12.8949 27.9456 13.3392 27.4307 13.6582C26.9202 13.9772 26.3324 14.1367 25.667 14.1367C24.6644 14.1367 23.8509 13.7881 23.2266 13.0908C22.6068 12.3936 22.2969 11.4707 22.2969 10.3223V10.2334ZM23.5684 10.3838C23.5684 11.2041 23.7575 11.8626 24.1357 12.3594C24.5186 12.8561 25.029 13.1045 25.667 13.1045C26.3096 13.1045 26.82 12.8538 27.1982 12.3525C27.5765 11.8467 27.7656 11.1403 27.7656 10.2334C27.7656 9.4222 27.5719 8.76595 27.1846 8.26465C26.8018 7.75879 26.2913 7.50586 25.6533 7.50586C25.029 7.50586 24.5254 7.75423 24.1426 8.25098C23.7598 8.74772 23.5684 9.45866 23.5684 10.3838ZM32.9473 12.2842L34.7793 6.60352H36.0713L33.4189 14H32.4551L29.7754 6.60352H31.0674L32.9473 12.2842ZM44.7871 14H43.5156V5.57129L40.9658 6.50781V5.35938L44.5889 3.99902H44.7871V14ZM53.4551 4.04004V5.11328H53.2227C52.2383 5.13151 51.4544 5.42318 50.8711 5.98828C50.2878 6.55339 49.9505 7.34863 49.8594 8.37402C50.3835 7.77246 51.099 7.47168 52.0059 7.47168C52.8717 7.47168 53.5622 7.77702 54.0771 8.3877C54.5967 8.99837 54.8564 9.78678 54.8564 10.7529C54.8564 11.7783 54.5762 12.5986 54.0156 13.2139C53.4596 13.8291 52.7122 14.1367 51.7734 14.1367C50.821 14.1367 50.0485 13.7721 49.4561 13.043C48.8636 12.3092 48.5674 11.3659 48.5674 10.2129V9.72754C48.5674 7.89551 48.957 6.49642 49.7363 5.53027C50.5202 4.55957 51.6846 4.06283 53.2295 4.04004H53.4551ZM51.7939 8.52441C51.361 8.52441 50.9622 8.6543 50.5977 8.91406C50.2331 9.17383 49.9801 9.49967 49.8389 9.8916V10.3564C49.8389 11.1768 50.0234 11.8376 50.3926 12.3389C50.7617 12.8402 51.222 13.0908 51.7734 13.0908C52.3431 13.0908 52.7897 12.8812 53.1133 12.4619C53.4414 12.0426 53.6055 11.4935 53.6055 10.8145C53.6055 10.1309 53.4391 9.57943 53.1064 9.16016C52.7783 8.73633 52.3408 8.52441 51.7939 8.52441ZM56.4424 13.3369C56.4424 13.1182 56.5062 12.9359 56.6338 12.79C56.766 12.6442 56.9619 12.5713 57.2217 12.5713C57.4814 12.5713 57.6774 12.6442 57.8096 12.79C57.9463 12.9359 58.0146 13.1182 58.0146 13.3369C58.0146 13.5465 57.9463 13.722 57.8096 13.8633C57.6774 14.0046 57.4814 14.0752 57.2217 14.0752C56.9619 14.0752 56.766 14.0046 56.6338 13.8633C56.5062 13.722 56.4424 13.5465 56.4424 13.3369ZM56.4492 7.30078C56.4492 7.08203 56.513 6.89974 56.6406 6.75391C56.7728 6.60807 56.9688 6.53516 57.2285 6.53516C57.4883 6.53516 57.6842 6.60807 57.8164 6.75391C57.9531 6.89974 58.0215 7.08203 58.0215 7.30078C58.0215 7.51042 57.9531 7.68587 57.8164 7.82715C57.6842 7.96842 57.4883 8.03906 57.2285 8.03906C56.9688 8.03906 56.7728 7.96842 56.6406 7.82715C56.513 7.68587 56.4492 7.51042 56.4492 7.30078ZM65.9854 9.75488C65.9854 11.236 65.7324 12.3366 65.2266 13.0566C64.7207 13.7767 63.93 14.1367 62.8545 14.1367C61.7926 14.1367 61.0065 13.7858 60.4961 13.084C59.9857 12.3776 59.7214 11.3249 59.7031 9.92578V8.2373C59.7031 6.77441 59.9561 5.6875 60.4619 4.97656C60.9678 4.26562 61.7607 3.91016 62.8408 3.91016C63.9118 3.91016 64.7002 4.25423 65.2061 4.94238C65.7119 5.62598 65.9717 6.68327 65.9854 8.11426V9.75488ZM64.7207 8.02539C64.7207 6.95443 64.5703 6.17513 64.2695 5.6875C63.9688 5.19531 63.4925 4.94922 62.8408 4.94922C62.1937 4.94922 61.722 5.19303 61.4258 5.68066C61.1296 6.16829 60.9769 6.91797 60.9678 7.92969V9.95312C60.9678 11.0286 61.1227 11.8239 61.4326 12.3389C61.7471 12.8493 62.221 13.1045 62.8545 13.1045C63.4788 13.1045 63.9414 12.863 64.2422 12.3799C64.5475 11.8968 64.707 11.1357 64.7207 10.0967V8.02539ZM73.8467 9.75488C73.8467 11.236 73.5938 12.3366 73.0879 13.0566C72.582 13.7767 71.7913 14.1367 70.7158 14.1367C69.654 14.1367 68.8678 13.7858 68.3574 13.084C67.847 12.3776 67.5827 11.3249 67.5645 9.92578V8.2373C67.5645 6.77441 67.8174 5.6875 68.3232 4.97656C68.8291 4.26562 69.6221 3.91016 70.7021 3.91016C71.7731 3.91016 72.5615 4.25423 73.0674 4.94238C73.5732 5.62598 73.833 6.68327 73.8467 8.11426V9.75488ZM72.582 8.02539C72.582 6.95443 72.4316 6.17513 72.1309 5.6875C71.8301 5.19531 71.3538 4.94922 70.7021 4.94922C70.055 4.94922 69.5833 5.19303 69.2871 5.68066C68.9909 6.16829 68.8382 6.91797 68.8291 7.92969V9.95312C68.8291 11.0286 68.984 11.8239 69.2939 12.3389C69.6084 12.8493 70.0824 13.1045 70.7158 13.1045C71.3402 13.1045 71.8027 12.863 72.1035 12.3799C72.4089 11.8968 72.5684 11.1357 72.582 10.0967V8.02539Z" transform="translate(104 474)" fill="black"/>
<path d="M6.52637 10.6572H7.90723V11.6895H6.52637V14H5.25488V11.6895H0.722656V10.9443L5.17969 4.04688H6.52637V10.6572ZM2.1582 10.6572H5.25488V5.77637L5.10449 6.0498L2.1582 10.6572Z" transform="translate(197 475)" fill="#EF7D00"/>
<path d="M20.499 14H19.1797L14.1689 6.33008V14H12.8496V4.04688H14.1689L19.1934 11.751V4.04688H20.499V14ZM22.2969 10.2334C22.2969 9.50879 22.4382 8.8571 22.7207 8.27832C23.0078 7.69954 23.4043 7.25293 23.9102 6.93848C24.4206 6.62402 25.0016 6.4668 25.6533 6.4668C26.6605 6.4668 27.474 6.81543 28.0938 7.5127C28.7181 8.20996 29.0303 9.13737 29.0303 10.2949V10.3838C29.0303 11.1038 28.8913 11.751 28.6133 12.3252C28.3398 12.8949 27.9456 13.3392 27.4307 13.6582C26.9202 13.9772 26.3324 14.1367 25.667 14.1367C24.6644 14.1367 23.8509 13.7881 23.2266 13.0908C22.6068 12.3936 22.2969 11.4707 22.2969 10.3223V10.2334ZM23.5684 10.3838C23.5684 11.2041 23.7575 11.8626 24.1357 12.3594C24.5186 12.8561 25.029 13.1045 25.667 13.1045C26.3096 13.1045 26.82 12.8538 27.1982 12.3525C27.5765 11.8467 27.7656 11.1403 27.7656 10.2334C27.7656 9.4222 27.5719 8.76595 27.1846 8.26465C26.8018 7.75879 26.2913 7.50586 25.6533 7.50586C25.029 7.50586 24.5254 7.75423 24.1426 8.25098C23.7598 8.74772 23.5684 9.45866 23.5684 10.3838ZM32.9473 12.2842L34.7793 6.60352H36.0713L33.4189 14H32.4551L29.7754 6.60352H31.0674L32.9473 12.2842ZM46.8721 9.75488C46.8721 11.236 46.6191 12.3366 46.1133 13.0566C45.6074 13.7767 44.8167 14.1367 43.7412 14.1367C42.6794 14.1367 41.8932 13.7858 41.3828 13.084C40.8724 12.3776 40.6081 11.3249 40.5898 9.92578V8.2373C40.5898 6.77441 40.8428 5.6875 41.3486 4.97656C41.8545 4.26562 42.6475 3.91016 43.7275 3.91016C44.7985 3.91016 45.5869 4.25423 46.0928 4.94238C46.5986 5.62598 46.8584 6.68327 46.8721 8.11426V9.75488ZM45.6074 8.02539C45.6074 6.95443 45.457 6.17513 45.1562 5.6875C44.8555 5.19531 44.3792 4.94922 43.7275 4.94922C43.0804 4.94922 42.6087 5.19303 42.3125 5.68066C42.0163 6.16829 41.8636 6.91797 41.8545 7.92969V9.95312C41.8545 11.0286 42.0094 11.8239 42.3193 12.3389C42.6338 12.8493 43.1077 13.1045 43.7412 13.1045C44.3656 13.1045 44.8281 12.863 45.1289 12.3799C45.4342 11.8968 45.5938 11.1357 45.6074 10.0967V8.02539ZM54.7334 9.75488C54.7334 11.236 54.4805 12.3366 53.9746 13.0566C53.4688 13.7767 52.6781 14.1367 51.6025 14.1367C50.5407 14.1367 49.7546 13.7858 49.2441 13.084C48.7337 12.3776 48.4694 11.3249 48.4512 9.92578V8.2373C48.4512 6.77441 48.7041 5.6875 49.21 4.97656C49.7158 4.26562 50.5088 3.91016 51.5889 3.91016C52.6598 3.91016 53.4482 4.25423 53.9541 4.94238C54.46 5.62598 54.7197 6.68327 54.7334 8.11426V9.75488ZM53.4688 8.02539C53.4688 6.95443 53.3184 6.17513 53.0176 5.6875C52.7168 5.19531 52.2406 4.94922 51.5889 4.94922C50.9417 4.94922 50.4701 5.19303 50.1738 5.68066C49.8776 6.16829 49.7249 6.91797 49.7158 7.92969V9.95312C49.7158 11.0286 49.8708 11.8239 50.1807 12.3389C50.4951 12.8493 50.9691 13.1045 51.6025 13.1045C52.2269 13.1045 52.6895 12.863 52.9902 12.3799C53.2956 11.8968 53.4551 11.1357 53.4688 10.0967V8.02539ZM56.4424 13.3369C56.4424 13.1182 56.5062 12.9359 56.6338 12.79C56.766 12.6442 56.9619 12.5713 57.2217 12.5713C57.4814 12.5713 57.6774 12.6442 57.8096 12.79C57.9463 12.9359 58.0146 13.1182 58.0146 13.3369C58.0146 13.5465 57.9463 13.722 57.8096 13.8633C57.6774 14.0046 57.4814 14.0752 57.2217 14.0752C56.9619 14.0752 56.766 14.0046 56.6338 13.8633C56.5062 13.722 56.4424 13.5465 56.4424 13.3369ZM56.4492 7.30078C56.4492 7.08203 56.513 6.89974 56.6406 6.75391C56.7728 6.60807 56.9688 6.53516 57.2285 6.53516C57.4883 6.53516 57.6842 6.60807 57.8164 6.75391C57.9531 6.89974 58.0215 7.08203 58.0215 7.30078C58.0215 7.51042 57.9531 7.68587 57.8164 7.82715C57.6842 7.96842 57.4883 8.03906 57.2285 8.03906C56.9688 8.03906 56.7728 7.96842 56.6406 7.82715C56.513 7.68587 56.4492 7.51042 56.4492 7.30078ZM65.9854 9.75488C65.9854 11.236 65.7324 12.3366 65.2266 13.0566C64.7207 13.7767 63.93 14.1367 62.8545 14.1367C61.7926 14.1367 61.0065 13.7858 60.4961 13.084C59.9857 12.3776 59.7214 11.3249 59.7031 9.92578V8.2373C59.7031 6.77441 59.9561 5.6875 60.4619 4.97656C60.9678 4.26562 61.7607 3.91016 62.8408 3.91016C63.9118 3.91016 64.7002 4.25423 65.2061 4.94238C65.7119 5.62598 65.9717 6.68327 65.9854 8.11426V9.75488ZM64.7207 8.02539C64.7207 6.95443 64.5703 6.17513 64.2695 5.6875C63.9688 5.19531 63.4925 4.94922 62.8408 4.94922C62.1937 4.94922 61.722 5.19303 61.4258 5.68066C61.1296 6.16829 60.9769 6.91797 60.9678 7.92969V9.95312C60.9678 11.0286 61.1227 11.8239 61.4326 12.3389C61.7471 12.8493 62.221 13.1045 62.8545 13.1045C63.4788 13.1045 63.9414 12.863 64.2422 12.3799C64.5475 11.8968 64.707 11.1357 64.7207 10.0967V8.02539ZM73.8467 9.75488C73.8467 11.236 73.5938 12.3366 73.0879 13.0566C72.582 13.7767 71.7913 14.1367 70.7158 14.1367C69.654 14.1367 68.8678 13.7858 68.3574 13.084C67.847 12.3776 67.5827 11.3249 67.5645 9.92578V8.2373C67.5645 6.77441 67.8174 5.6875 68.3232 4.97656C68.8291 4.26562 69.6221 3.91016 70.7021 3.91016C71.7731 3.91016 72.5615 4.25423 73.0674 4.94238C73.5732 5.62598 73.833 6.68327 73.8467 8.11426V9.75488ZM72.582 8.02539C72.582 6.95443 72.4316 6.17513 72.1309 5.6875C71.8301 5.19531 71.3538 4.94922 70.7021 4.94922C70.055 4.94922 69.5833 5.19303 69.2871 5.68066C68.9909 6.16829 68.8382 6.91797 68.8291 7.92969V9.95312C68.8291 11.0286 68.984 11.8239 69.2939 12.3389C69.6084 12.8493 70.0824 13.1045 70.7158 13.1045C71.3402 13.1045 71.8027 12.863 72.1035 12.3799C72.4089 11.8968 72.5684 11.1357 72.582 10.0967V8.02539Z" transform="translate(197 475)" fill="black"/>
<path d="M7.61328 4.75781L3.49121 14H2.16504L6.27344 5.08594H0.886719V4.04688H7.61328V4.75781Z" transform="translate(290 474)" fill="#EF7D00"/>
<path d="M20.499 14H19.1797L14.1689 6.33008V14H12.8496V4.04688H14.1689L19.1934 11.751V4.04688H20.499V14ZM22.2969 10.2334C22.2969 9.50879 22.4382 8.8571 22.7207 8.27832C23.0078 7.69954 23.4043 7.25293 23.9102 6.93848C24.4206 6.62402 25.0016 6.4668 25.6533 6.4668C26.6605 6.4668 27.474 6.81543 28.0938 7.5127C28.7181 8.20996 29.0303 9.13737 29.0303 10.2949V10.3838C29.0303 11.1038 28.8913 11.751 28.6133 12.3252C28.3398 12.8949 27.9456 13.3392 27.4307 13.6582C26.9202 13.9772 26.3324 14.1367 25.667 14.1367C24.6644 14.1367 23.8509 13.7881 23.2266 13.0908C22.6068 12.3936 22.2969 11.4707 22.2969 10.3223V10.2334ZM23.5684 10.3838C23.5684 11.2041 23.7575 11.8626 24.1357 12.3594C24.5186 12.8561 25.029 13.1045 25.667 13.1045C26.3096 13.1045 26.82 12.8538 27.1982 12.3525C27.5765 11.8467 27.7656 11.1403 27.7656 10.2334C27.7656 9.4222 27.5719 8.76595 27.1846 8.26465C26.8018 7.75879 26.2913 7.50586 25.6533 7.50586C25.029 7.50586 24.5254 7.75423 24.1426 8.25098C23.7598 8.74772 23.5684 9.45866 23.5684 10.3838ZM32.9473 12.2842L34.7793 6.60352H36.0713L33.4189 14H32.4551L29.7754 6.60352H31.0674L32.9473 12.2842ZM46.8721 9.75488C46.8721 11.236 46.6191 12.3366 46.1133 13.0566C45.6074 13.7767 44.8167 14.1367 43.7412 14.1367C42.6794 14.1367 41.8932 13.7858 41.3828 13.084C40.8724 12.3776 40.6081 11.3249 40.5898 9.92578V8.2373C40.5898 6.77441 40.8428 5.6875 41.3486 4.97656C41.8545 4.26562 42.6475 3.91016 43.7275 3.91016C44.7985 3.91016 45.5869 4.25423 46.0928 4.94238C46.5986 5.62598 46.8584 6.68327 46.8721 8.11426V9.75488ZM45.6074 8.02539C45.6074 6.95443 45.457 6.17513 45.1562 5.6875C44.8555 5.19531 44.3792 4.94922 43.7275 4.94922C43.0804 4.94922 42.6087 5.19303 42.3125 5.68066C42.0163 6.16829 41.8636 6.91797 41.8545 7.92969V9.95312C41.8545 11.0286 42.0094 11.8239 42.3193 12.3389C42.6338 12.8493 43.1077 13.1045 43.7412 13.1045C44.3656 13.1045 44.8281 12.863 45.1289 12.3799C45.4342 11.8968 45.5938 11.1357 45.6074 10.0967V8.02539ZM54.5283 6.64453C54.5283 7.14128 54.3962 7.58333 54.1318 7.9707C53.8721 8.35807 53.5189 8.66113 53.0723 8.87988C53.5918 9.10319 54.002 9.42904 54.3027 9.85742C54.6081 10.2858 54.7607 10.7712 54.7607 11.3135C54.7607 12.1748 54.4691 12.8607 53.8857 13.3711C53.307 13.8815 52.5436 14.1367 51.5957 14.1367C50.6387 14.1367 49.8708 13.8815 49.292 13.3711C48.7178 12.8561 48.4307 12.1702 48.4307 11.3135C48.4307 10.7757 48.5765 10.2904 48.8682 9.85742C49.1644 9.42448 49.5723 9.09635 50.0918 8.87305C49.6497 8.6543 49.3011 8.35124 49.0459 7.96387C48.7907 7.5765 48.6631 7.13672 48.6631 6.64453C48.6631 5.80599 48.932 5.14062 49.4697 4.64844C50.0075 4.15625 50.7161 3.91016 51.5957 3.91016C52.4707 3.91016 53.1771 4.15625 53.7148 4.64844C54.2572 5.14062 54.5283 5.80599 54.5283 6.64453ZM53.4961 11.2861C53.4961 10.7301 53.3184 10.2767 52.9629 9.92578C52.612 9.57487 52.1517 9.39941 51.582 9.39941C51.0124 9.39941 50.5544 9.57259 50.208 9.91895C49.8662 10.2653 49.6953 10.721 49.6953 11.2861C49.6953 11.8512 49.8617 12.2956 50.1943 12.6191C50.5316 12.9427 50.9987 13.1045 51.5957 13.1045C52.1882 13.1045 52.653 12.9427 52.9902 12.6191C53.3275 12.291 53.4961 11.8467 53.4961 11.2861ZM51.5957 4.94922C51.099 4.94922 50.6956 5.10417 50.3857 5.41406C50.0804 5.7194 49.9277 6.13639 49.9277 6.66504C49.9277 7.1709 50.0781 7.58105 50.3789 7.89551C50.6842 8.2054 51.0898 8.36035 51.5957 8.36035C52.1016 8.36035 52.5049 8.2054 52.8057 7.89551C53.111 7.58105 53.2637 7.1709 53.2637 6.66504C53.2637 6.15918 53.1064 5.74674 52.792 5.42773C52.4775 5.10872 52.0788 4.94922 51.5957 4.94922ZM56.4424 13.3369C56.4424 13.1182 56.5062 12.9359 56.6338 12.79C56.766 12.6442 56.9619 12.5713 57.2217 12.5713C57.4814 12.5713 57.6774 12.6442 57.8096 12.79C57.9463 12.9359 58.0146 13.1182 58.0146 13.3369C58.0146 13.5465 57.9463 13.722 57.8096 13.8633C57.6774 14.0046 57.4814 14.0752 57.2217 14.0752C56.9619 14.0752 56.766 14.0046 56.6338 13.8633C56.5062 13.722 56.4424 13.5465 56.4424 13.3369ZM56.4492 7.30078C56.4492 7.08203 56.513 6.89974 56.6406 6.75391C56.7728 6.60807 56.9688 6.53516 57.2285 6.53516C57.4883 6.53516 57.6842 6.60807 57.8164 6.75391C57.9531 6.89974 58.0215 7.08203 58.0215 7.30078C58.0215 7.51042 57.9531 7.68587 57.8164 7.82715C57.6842 7.96842 57.4883 8.03906 57.2285 8.03906C56.9688 8.03906 56.7728 7.96842 56.6406 7.82715C56.513 7.68587 56.4492 7.51042 56.4492 7.30078ZM65.9854 9.75488C65.9854 11.236 65.7324 12.3366 65.2266 13.0566C64.7207 13.7767 63.93 14.1367 62.8545 14.1367C61.7926 14.1367 61.0065 13.7858 60.4961 13.084C59.9857 12.3776 59.7214 11.3249 59.7031 9.92578V8.2373C59.7031 6.77441 59.9561 5.6875 60.4619 4.97656C60.9678 4.26562 61.7607 3.91016 62.8408 3.91016C63.9118 3.91016 64.7002 4.25423 65.2061 4.94238C65.7119 5.62598 65.9717 6.68327 65.9854 8.11426V9.75488ZM64.7207 8.02539C64.7207 6.95443 64.5703 6.17513 64.2695 5.6875C63.9688 5.19531 63.4925 4.94922 62.8408 4.94922C62.1937 4.94922 61.722 5.19303 61.4258 5.68066C61.1296 6.16829 60.9769 6.91797 60.9678 7.92969V9.95312C60.9678 11.0286 61.1227 11.8239 61.4326 12.3389C61.7471 12.8493 62.221 13.1045 62.8545 13.1045C63.4788 13.1045 63.9414 12.863 64.2422 12.3799C64.5475 11.8968 64.707 11.1357 64.7207 10.0967V8.02539ZM73.8467 9.75488C73.8467 11.236 73.5938 12.3366 73.0879 13.0566C72.582 13.7767 71.7913 14.1367 70.7158 14.1367C69.654 14.1367 68.8678 13.7858 68.3574 13.084C67.847 12.3776 67.5827 11.3249 67.5645 9.92578V8.2373C67.5645 6.77441 67.8174 5.6875 68.3232 4.97656C68.8291 4.26562 69.6221 3.91016 70.7021 3.91016C71.7731 3.91016 72.5615 4.25423 73.0674 4.94238C73.5732 5.62598 73.833 6.68327 73.8467 8.11426V9.75488ZM72.582 8.02539C72.582 6.95443 72.4316 6.17513 72.1309 5.6875C71.8301 5.19531 71.3538 4.94922 70.7021 4.94922C70.055 4.94922 69.5833 5.19303 69.2871 5.68066C68.9909 6.16829 68.8382 6.91797 68.8291 7.92969V9.95312C68.8291 11.0286 68.984 11.8239 69.2939 12.3389C69.6084 12.8493 70.0824 13.1045 70.7158 13.1045C71.3402 13.1045 71.8027 12.863 72.1035 12.3799C72.4089 11.8968 72.5684 11.1357 72.582 10.0967V8.02539Z" transform="translate(290 474)" fill="black"/>
<path d="M7.22363 6.64453C7.22363 7.14128 7.09147 7.58333 6.82715 7.9707C6.56738 8.35807 6.21419 8.66113 5.76758 8.87988C6.28711 9.10319 6.69727 9.42904 6.99805 9.85742C7.30339 10.2858 7.45605 10.7712 7.45605 11.3135C7.45605 12.1748 7.16439 12.8607 6.58105 13.3711C6.00228 13.8815 5.23893 14.1367 4.29102 14.1367C3.33398 14.1367 2.56608 13.8815 1.9873 13.3711C1.41309 12.8561 1.12598 12.1702 1.12598 11.3135C1.12598 10.7757 1.27181 10.2904 1.56348 9.85742C1.8597 9.42448 2.26758 9.09635 2.78711 8.87305C2.34505 8.6543 1.99642 8.35124 1.74121 7.96387C1.486 7.5765 1.3584 7.13672 1.3584 6.64453C1.3584 5.80599 1.62728 5.14062 2.16504 4.64844C2.7028 4.15625 3.41146 3.91016 4.29102 3.91016C5.16602 3.91016 5.8724 4.15625 6.41016 4.64844C6.95247 5.14062 7.22363 5.80599 7.22363 6.64453ZM6.19141 11.2861C6.19141 10.7301 6.01367 10.2767 5.6582 9.92578C5.30729 9.57487 4.84701 9.39941 4.27734 9.39941C3.70768 9.39941 3.24967 9.57259 2.90332 9.91895C2.56152 10.2653 2.39062 10.721 2.39062 11.2861C2.39062 11.8512 2.55697 12.2956 2.88965 12.6191C3.22689 12.9427 3.69401 13.1045 4.29102 13.1045C4.88346 13.1045 5.34831 12.9427 5.68555 12.6191C6.02279 12.291 6.19141 11.8467 6.19141 11.2861ZM4.29102 4.94922C3.79427 4.94922 3.39095 5.10417 3.08105 5.41406C2.77572 5.7194 2.62305 6.13639 2.62305 6.66504C2.62305 7.1709 2.77344 7.58105 3.07422 7.89551C3.37956 8.2054 3.78516 8.36035 4.29102 8.36035C4.79688 8.36035 5.2002 8.2054 5.50098 7.89551C5.80632 7.58105 5.95898 7.1709 5.95898 6.66504C5.95898 6.15918 5.80176 5.74674 5.4873 5.42773C5.17285 5.10872 4.77409 4.94922 4.29102 4.94922Z" transform="translate(383 475)" fill="#EF7D00"/>
<path d="M20.499 14H19.1797L14.1689 6.33008V14H12.8496V4.04688H14.1689L19.1934 11.751V4.04688H20.499V14ZM22.2969 10.2334C22.2969 9.50879 22.4382 8.8571 22.7207 8.27832C23.0078 7.69954 23.4043 7.25293 23.9102 6.93848C24.4206 6.62402 25.0016 6.4668 25.6533 6.4668C26.6605 6.4668 27.474 6.81543 28.0938 7.5127C28.7181 8.20996 29.0303 9.13737 29.0303 10.2949V10.3838C29.0303 11.1038 28.8913 11.751 28.6133 12.3252C28.3398 12.8949 27.9456 13.3392 27.4307 13.6582C26.9202 13.9772 26.3324 14.1367 25.667 14.1367C24.6644 14.1367 23.8509 13.7881 23.2266 13.0908C22.6068 12.3936 22.2969 11.4707 22.2969 10.3223V10.2334ZM23.5684 10.3838C23.5684 11.2041 23.7575 11.8626 24.1357 12.3594C24.5186 12.8561 25.029 13.1045 25.667 13.1045C26.3096 13.1045 26.82 12.8538 27.1982 12.3525C27.5765 11.8467 27.7656 11.1403 27.7656 10.2334C27.7656 9.4222 27.5719 8.76595 27.1846 8.26465C26.8018 7.75879 26.2913 7.50586 25.6533 7.50586C25.029 7.50586 24.5254 7.75423 24.1426 8.25098C23.7598 8.74772 23.5684 9.45866 23.5684 10.3838ZM32.9473 12.2842L34.7793 6.60352H36.0713L33.4189 14H32.4551L29.7754 6.60352H31.0674L32.9473 12.2842ZM44.7871 14H43.5156V5.57129L40.9658 6.50781V5.35938L44.5889 3.99902H44.7871V14ZM53.4551 4.04004V5.11328H53.2227C52.2383 5.13151 51.4544 5.42318 50.8711 5.98828C50.2878 6.55339 49.9505 7.34863 49.8594 8.37402C50.3835 7.77246 51.099 7.47168 52.0059 7.47168C52.8717 7.47168 53.5622 7.77702 54.0771 8.3877C54.5967 8.99837 54.8564 9.78678 54.8564 10.7529C54.8564 11.7783 54.5762 12.5986 54.0156 13.2139C53.4596 13.8291 52.7122 14.1367 51.7734 14.1367C50.821 14.1367 50.0485 13.7721 49.4561 13.043C48.8636 12.3092 48.5674 11.3659 48.5674 10.2129V9.72754C48.5674 7.89551 48.957 6.49642 49.7363 5.53027C50.5202 4.55957 51.6846 4.06283 53.2295 4.04004H53.4551ZM51.7939 8.52441C51.361 8.52441 50.9622 8.6543 50.5977 8.91406C50.2331 9.17383 49.9801 9.49967 49.8389 9.8916V10.3564C49.8389 11.1768 50.0234 11.8376 50.3926 12.3389C50.7617 12.8402 51.222 13.0908 51.7734 13.0908C52.3431 13.0908 52.7897 12.8812 53.1133 12.4619C53.4414 12.0426 53.6055 11.4935 53.6055 10.8145C53.6055 10.1309 53.4391 9.57943 53.1064 9.16016C52.7783 8.73633 52.3408 8.52441 51.7939 8.52441ZM56.4424 13.3369C56.4424 13.1182 56.5062 12.9359 56.6338 12.79C56.766 12.6442 56.9619 12.5713 57.2217 12.5713C57.4814 12.5713 57.6774 12.6442 57.8096 12.79C57.9463 12.9359 58.0146 13.1182 58.0146 13.3369C58.0146 13.5465 57.9463 13.722 57.8096 13.8633C57.6774 14.0046 57.4814 14.0752 57.2217 14.0752C56.9619 14.0752 56.766 14.0046 56.6338 13.8633C56.5062 13.722 56.4424 13.5465 56.4424 13.3369ZM56.4492 7.30078C56.4492 7.08203 56.513 6.89974 56.6406 6.75391C56.7728 6.60807 56.9688 6.53516 57.2285 6.53516C57.4883 6.53516 57.6842 6.60807 57.8164 6.75391C57.9531 6.89974 58.0215 7.08203 58.0215 7.30078C58.0215 7.51042 57.9531 7.68587 57.8164 7.82715C57.6842 7.96842 57.4883 8.03906 57.2285 8.03906C56.9688 8.03906 56.7728 7.96842 56.6406 7.82715C56.513 7.68587 56.4492 7.51042 56.4492 7.30078ZM65.9854 9.75488C65.9854 11.236 65.7324 12.3366 65.2266 13.0566C64.7207 13.7767 63.93 14.1367 62.8545 14.1367C61.7926 14.1367 61.0065 13.7858 60.4961 13.084C59.9857 12.3776 59.7214 11.3249 59.7031 9.92578V8.2373C59.7031 6.77441 59.9561 5.6875 60.4619 4.97656C60.9678 4.26562 61.7607 3.91016 62.8408 3.91016C63.9118 3.91016 64.7002 4.25423 65.2061 4.94238C65.7119 5.62598 65.9717 6.68327 65.9854 8.11426V9.75488ZM64.7207 8.02539C64.7207 6.95443 64.5703 6.17513 64.2695 5.6875C63.9688 5.19531 63.4925 4.94922 62.8408 4.94922C62.1937 4.94922 61.722 5.19303 61.4258 5.68066C61.1296 6.16829 60.9769 6.91797 60.9678 7.92969V9.95312C60.9678 11.0286 61.1227 11.8239 61.4326 12.3389C61.7471 12.8493 62.221 13.1045 62.8545 13.1045C63.4788 13.1045 63.9414 12.863 64.2422 12.3799C64.5475 11.8968 64.707 11.1357 64.7207 10.0967V8.02539ZM73.8467 9.75488C73.8467 11.236 73.5938 12.3366 73.0879 13.0566C72.582 13.7767 71.7913 14.1367 70.7158 14.1367C69.654 14.1367 68.8678 13.7858 68.3574 13.084C67.847 12.3776 67.5827 11.3249 67.5645 9.92578V8.2373C67.5645 6.77441 67.8174 5.6875 68.3232 4.97656C68.8291 4.26562 69.6221 3.91016 70.7021 3.91016C71.7731 3.91016 72.5615 4.25423 73.0674 4.94238C73.5732 5.62598 73.833 6.68327 73.8467 8.11426V9.75488ZM72.582 8.02539C72.582 6.95443 72.4316 6.17513 72.1309 5.6875C71.8301 5.19531 71.3538 4.94922 70.7021 4.94922C70.055 4.94922 69.5833 5.19303 69.2871 5.68066C68.9909 6.16829 68.8382 6.91797 68.8291 7.92969V9.95312C68.8291 11.0286 68.984 11.8239 69.2939 12.3389C69.6084 12.8493 70.0824 13.1045 70.7158 13.1045C71.3402 13.1045 71.8027 12.863 72.1035 12.3799C72.4089 11.8968 72.5684 11.1357 72.582 10.0967V8.02539Z" transform="translate(383 475)" fill="black"/>
<path d="M5.41309 14H4.1416V5.57129L1.5918 6.50781V5.35938L5.21484 3.99902H5.41309V14ZM15.3594 9.75488C15.3594 11.236 15.1064 12.3366 14.6006 13.0566C14.0947 13.7767 13.304 14.1367 12.2285 14.1367C11.1667 14.1367 10.3805 13.7858 9.87012 13.084C9.3597 12.3776 9.09538 11.3249 9.07715 9.92578V8.2373C9.07715 6.77441 9.33008 5.6875 9.83594 4.97656C10.3418 4.26562 11.1348 3.91016 12.2148 3.91016C13.2858 3.91016 14.0742 4.25423 14.5801 4.94238C15.0859 5.62598 15.3457 6.68327 15.3594 8.11426V9.75488ZM14.0947 8.02539C14.0947 6.95443 13.9443 6.17513 13.6436 5.6875C13.3428 5.19531 12.8665 4.94922 12.2148 4.94922C11.5677 4.94922 11.096 5.19303 10.7998 5.68066C10.5036 6.16829 10.3509 6.91797 10.3418 7.92969V9.95312C10.3418 11.0286 10.4967 11.8239 10.8066 12.3389C11.1211 12.8493 11.5951 13.1045 12.2285 13.1045C12.8529 13.1045 13.3154 12.863 13.6162 12.3799C13.9215 11.8968 14.0811 11.1357 14.0947 10.0967V8.02539Z" transform="translate(476 475)" fill="#EF7D00"/>
<path d="M28.4297 14H27.1104L22.0996 6.33008V14H20.7803V4.04688H22.0996L27.124 11.751V4.04688H28.4297V14ZM30.2275 10.2334C30.2275 9.50879 30.3688 8.8571 30.6514 8.27832C30.9385 7.69954 31.335 7.25293 31.8408 6.93848C32.3512 6.62402 32.9323 6.4668 33.584 6.4668C34.5911 6.4668 35.4046 6.81543 36.0244 7.5127C36.6488 8.20996 36.9609 9.13737 36.9609 10.2949V10.3838C36.9609 11.1038 36.8219 11.751 36.5439 12.3252C36.2705 12.8949 35.8763 13.3392 35.3613 13.6582C34.8509 13.9772 34.263 14.1367 33.5977 14.1367C32.5951 14.1367 31.7816 13.7881 31.1572 13.0908C30.5374 12.3936 30.2275 11.4707 30.2275 10.3223V10.2334ZM31.499 10.3838C31.499 11.2041 31.6882 11.8626 32.0664 12.3594C32.4492 12.8561 32.9596 13.1045 33.5977 13.1045C34.2402 13.1045 34.7507 12.8538 35.1289 12.3525C35.5072 11.8467 35.6963 11.1403 35.6963 10.2334C35.6963 9.4222 35.5026 8.76595 35.1152 8.26465C34.7324 7.75879 34.222 7.50586 33.584 7.50586C32.9596 7.50586 32.4561 7.75423 32.0732 8.25098C31.6904 8.74772 31.499 9.45866 31.499 10.3838ZM40.8779 12.2842L42.71 6.60352H44.002L41.3496 14H40.3857L37.7061 6.60352H38.998L40.8779 12.2842ZM54.8027 9.75488C54.8027 11.236 54.5498 12.3366 54.0439 13.0566C53.5381 13.7767 52.7474 14.1367 51.6719 14.1367C50.61 14.1367 49.8239 13.7858 49.3135 13.084C48.8031 12.3776 48.5387 11.3249 48.5205 9.92578V8.2373C48.5205 6.77441 48.7734 5.6875 49.2793 4.97656C49.7852 4.26562 50.5781 3.91016 51.6582 3.91016C52.7292 3.91016 53.5176 4.25423 54.0234 4.94238C54.5293 5.62598 54.7891 6.68327 54.8027 8.11426V9.75488ZM53.5381 8.02539C53.5381 6.95443 53.3877 6.17513 53.0869 5.6875C52.7861 5.19531 52.3099 4.94922 51.6582 4.94922C51.0111 4.94922 50.5394 5.19303 50.2432 5.68066C49.9469 6.16829 49.7943 6.91797 49.7852 7.92969V9.95312C49.7852 11.0286 49.9401 11.8239 50.25 12.3389C50.5645 12.8493 51.0384 13.1045 51.6719 13.1045C52.2962 13.1045 52.7588 12.863 53.0596 12.3799C53.3649 11.8968 53.5244 11.1357 53.5381 10.0967V8.02539ZM62.6641 9.75488C62.6641 11.236 62.4111 12.3366 61.9053 13.0566C61.3994 13.7767 60.6087 14.1367 59.5332 14.1367C58.4714 14.1367 57.6852 13.7858 57.1748 13.084C56.6644 12.3776 56.4001 11.3249 56.3818 9.92578V8.2373C56.3818 6.77441 56.6348 5.6875 57.1406 4.97656C57.6465 4.26562 58.4395 3.91016 59.5195 3.91016C60.5905 3.91016 61.3789 4.25423 61.8848 4.94238C62.3906 5.62598 62.6504 6.68327 62.6641 8.11426V9.75488ZM61.3994 8.02539C61.3994 6.95443 61.249 6.17513 60.9482 5.6875C60.6475 5.19531 60.1712 4.94922 59.5195 4.94922C58.8724 4.94922 58.4007 5.19303 58.1045 5.68066C57.8083 6.16829 57.6556 6.91797 57.6465 7.92969V9.95312C57.6465 11.0286 57.8014 11.8239 58.1113 12.3389C58.4258 12.8493 58.8997 13.1045 59.5332 13.1045C60.1576 13.1045 60.6201 12.863 60.9209 12.3799C61.2262 11.8968 61.3857 11.1357 61.3994 10.0967V8.02539ZM64.373 13.3369C64.373 13.1182 64.4368 12.9359 64.5645 12.79C64.6966 12.6442 64.8926 12.5713 65.1523 12.5713C65.4121 12.5713 65.6081 12.6442 65.7402 12.79C65.877 12.9359 65.9453 13.1182 65.9453 13.3369C65.9453 13.5465 65.877 13.722 65.7402 13.8633C65.6081 14.0046 65.4121 14.0752 65.1523 14.0752C64.8926 14.0752 64.6966 14.0046 64.5645 13.8633C64.4368 13.722 64.373 13.5465 64.373 13.3369ZM64.3799 7.30078C64.3799 7.08203 64.4437 6.89974 64.5713 6.75391C64.7035 6.60807 64.8994 6.53516 65.1592 6.53516C65.4189 6.53516 65.6149 6.60807 65.7471 6.75391C65.8838 6.89974 65.9521 7.08203 65.9521 7.30078C65.9521 7.51042 65.8838 7.68587 65.7471 7.82715C65.6149 7.96842 65.4189 8.03906 65.1592 8.03906C64.8994 8.03906 64.7035 7.96842 64.5713 7.82715C64.4437 7.68587 64.3799 7.51042 64.3799 7.30078ZM73.916 9.75488C73.916 11.236 73.6631 12.3366 73.1572 13.0566C72.6514 13.7767 71.8607 14.1367 70.7852 14.1367C69.7233 14.1367 68.9372 13.7858 68.4268 13.084C67.9163 12.3776 67.652 11.3249 67.6338 9.92578V8.2373C67.6338 6.77441 67.8867 5.6875 68.3926 4.97656C68.8984 4.26562 69.6914 3.91016 70.7715 3.91016C71.8424 3.91016 72.6309 4.25423 73.1367 4.94238C73.6426 5.62598 73.9023 6.68327 73.916 8.11426V9.75488ZM72.6514 8.02539C72.6514 6.95443 72.501 6.17513 72.2002 5.6875C71.8994 5.19531 71.4232 4.94922 70.7715 4.94922C70.1243 4.94922 69.6527 5.19303 69.3564 5.68066C69.0602 6.16829 68.9076 6.91797 68.8984 7.92969V9.95312C68.8984 11.0286 69.0534 11.8239 69.3633 12.3389C69.6777 12.8493 70.1517 13.1045 70.7852 13.1045C71.4095 13.1045 71.8721 12.863 72.1729 12.3799C72.4782 11.8968 72.6377 11.1357 72.6514 10.0967V8.02539ZM81.7773 9.75488C81.7773 11.236 81.5244 12.3366 81.0186 13.0566C80.5127 13.7767 79.722 14.1367 78.6465 14.1367C77.5846 14.1367 76.7985 13.7858 76.2881 13.084C75.7777 12.3776 75.5133 11.3249 75.4951 9.92578V8.2373C75.4951 6.77441 75.748 5.6875 76.2539 4.97656C76.7598 4.26562 77.5527 3.91016 78.6328 3.91016C79.7038 3.91016 80.4922 4.25423 80.998 4.94238C81.5039 5.62598 81.7637 6.68327 81.7773 8.11426V9.75488ZM80.5127 8.02539C80.5127 6.95443 80.3623 6.17513 80.0615 5.6875C79.7607 5.19531 79.2845 4.94922 78.6328 4.94922C77.9857 4.94922 77.514 5.19303 77.2178 5.68066C76.9215 6.16829 76.7689 6.91797 76.7598 7.92969V9.95312C76.7598 11.0286 76.9147 11.8239 77.2246 12.3389C77.5391 12.8493 78.013 13.1045 78.6465 13.1045C79.2708 13.1045 79.7334 12.863 80.0342 12.3799C80.3395 11.8968 80.499 11.1357 80.5127 10.0967V8.02539Z" transform="translate(476 475)" fill="black"/>
<line y1="-0.5" x2="6" y2="-0.5" transform="translate(107 468) rotate(90)" stroke="#646464"/>
<line y1="-0.5" x2="6" y2="-0.5" transform="translate(201 468) rotate(90)" stroke="#646464"/>
<line y1="-0.5" x2="6" y2="-0.5" transform="translate(294 468) rotate(90)" stroke="#646464"/>
<line y1="-0.5" x2="6" y2="-0.5" transform="translate(386 468) rotate(90)" stroke="#646464"/>
<line y1="-0.5" x2="6" y2="-0.5" transform="translate(482 468) rotate(90)" stroke="#646464"/>
<line y1="-1" x2="469" y2="-1" transform="translate(583) rotate(90)" stroke="#898989" stroke-width="2"/>
<line y1="-1" x2="469" y2="-1" transform="translate(7) rotate(90)" stroke="#898989" stroke-width="2"/>
<defs>
<filter id="filter0_f" x="0.582275" y="75.9551" width="588.869" height="259.259" filterUnits="userSpaceOnUse" color-interpolation-filters="sRGB">
<feFlood flood-opacity="0" result="BackgroundImageFix"/>
<feBlend mode="normal" in="SourceGraphic" in2="BackgroundImageFix" result="shape"/>
<feGaussianBlur stdDeviation="3" result="effect1_foregroundBlur"/>
</filter>
<linearGradient id="paint0_linear" x2="1" gradientUnits="userSpaceOnUse" gradientTransform="translate(576) scale(576 369) rotate(90)">
<stop stop-color="#F28600"/>
<stop offset="1" stop-color="white" stop-opacity="0.54"/>
</linearGradient>
<linearGradient id="paint1_linear" x2="1" gradientUnits="userSpaceOnUse" gradientTransform="translate(576) scale(576 369) rotate(90)">
<stop stop-color="white"/>
<stop offset="1" stop-color="white" stop-opacity="0"/>
</linearGradient>
<linearGradient id="paint2_linear" x2="1" gradientUnits="userSpaceOnUse" gradientTransform="translate(347.684 137) scale(515.368 221) rotate(90)">
<stop stop-color="#F39200"/>
<stop offset="1" stop-color="#FFC200"/>
</linearGradient>
</defs>
</svg>
