<svg width="64" height="64" viewBox="0 0 64 64" fill="none" xmlns="http://www.w3.org/2000/svg">
<path d="M3.2 0C1.43267 0 0 1.43267 0 3.2V4.26667H2.13333V3.2C2.13333 2.61093 2.61093 2.13333 3.2 2.13333C3.78907 2.13333 4.26667 2.61093 4.26667 3.2V4.26667H6.4V3.2C6.4 1.43267 4.96733 0 3.2 0Z" transform="translate(37.3334 17.0667)" fill="#F28600"/>
<path d="M3.2 0C1.43267 0 0 1.43267 0 3.2V4.26667H2.13333V3.2C2.13333 2.61093 2.61093 2.13333 3.2 2.13333C3.78907 2.13333 4.26667 2.61093 4.26667 3.2V4.26667H6.4V3.2C6.4 1.43267 4.96733 0 3.2 0Z" transform="translate(48 17.0667)" fill="#F28600"/>
<path d="M6.4 0V1.06667C6.4 2.24493 5.44493 3.2 4.26667 3.2C3.0884 3.2 2.13333 2.24493 2.13333 1.06667V0H0V1.06667C0 3.42307 1.91027 5.33333 4.26667 5.33333C6.62307 5.33333 8.53333 3.42307 8.53333 1.06667V0H6.4Z" transform="translate(41.6 24.5334)" fill="#F28600"/>
<path d="M56.5333 34.1333H51.2V32.96C55.0601 31.2093 57.7925 27.6484 58.4843 23.4667H59.7333C61.5007 23.4667 62.9333 22.034 62.9333 20.2667C62.9333 18.4993 61.5007 17.0667 59.7333 17.0667H58.6667V0H42.6667C37.3672 0.00586667 33.0725 4.30053 33.0667 9.6V17.0667H32C30.2327 17.0667 28.8 18.4993 28.8 20.2667C28.8 22.034 30.2327 23.4667 32 23.4667H33.2491C33.9408 27.6484 36.6732 31.2093 40.5333 32.96V34.1333H35.2C31.0783 34.138 27.738 37.4783 27.7333 41.6V42.6667H21.3333V41.6C21.3333 39.8327 19.9007 38.4 18.1333 38.4H13.8667C12.0993 38.4 10.6667 39.8327 10.6667 41.6V42.6667H1.06667C0.4776 42.6667 0 43.1443 0 43.7333V62.9333C0 63.5224 0.4776 64 1.06667 64H62.9333C63.5224 64 64 63.5224 64 62.9333V41.6C63.9953 37.4783 60.6551 34.138 56.5333 34.1333ZM58.6667 19.2H59.7333C60.3224 19.2 60.8 19.6776 60.8 20.2667C60.8 20.8557 60.3224 21.3333 59.7333 21.3333H58.6667V19.2ZM33.0667 21.3333H32C31.4109 21.3333 30.9333 20.8557 30.9333 20.2667C30.9333 19.6776 31.4109 19.2 32 19.2H33.0667V21.3333ZM54.4 36.2667L50.0181 42.1099L49.8208 41.9125L47.3749 39.4667L50.5749 36.2667H54.4ZM47.5584 42.6667L46.4917 43.7333H45.2416L44.1749 42.6667L45.8667 40.9749L47.5584 42.6667ZM44.1749 36.2667H47.5584L45.8667 37.9584L44.1749 36.2667ZM35.2 9.6C35.2047 5.47827 38.5449 2.138 42.6667 2.13333H56.5333V8.53333H46.9333V9.6C46.9333 11.3673 45.5007 12.8 43.7333 12.8H35.2V9.6ZM35.2 21.3333V14.9333H43.7333C46.2669 14.9305 48.45 13.1484 48.96 10.6667H56.5333V21.3333C56.5479 25.7301 53.8475 29.6799 49.7451 31.2619C49.3361 31.4217 49.0668 31.8159 49.0667 32.2549V34.1333H42.6667V32.2549C42.6665 31.8159 42.3972 31.4217 41.9883 31.2619C37.8859 29.6799 35.1855 25.7301 35.2 21.3333ZM41.1584 36.2667L44.3584 39.4667L41.9125 41.9125L41.7152 42.1099L37.3333 36.2667H41.1584ZM12.8 41.6C12.8 41.0109 13.2776 40.5333 13.8667 40.5333H18.1333C18.7224 40.5333 19.2 41.0109 19.2 41.6V42.6667H12.8V41.6ZM29.8667 61.8667H2.13333V54.4H12.8V57.6C12.8 58.1891 13.2776 58.6667 13.8667 58.6667H18.1333C18.7224 58.6667 19.2 58.1891 19.2 57.6V54.4H29.8667V61.8667ZM14.9333 56.5333V54.4H17.0667V56.5333H14.9333ZM29.8667 52.2667H2.13333V44.8H29.8667V52.2667ZM32 61.8667V43.7333C32 43.1443 31.5224 42.6667 30.9333 42.6667H29.8667V41.6C29.8756 38.8551 31.9705 36.5671 34.704 36.3168L40.7467 44.3733C40.9316 44.6217 41.2155 44.7773 41.5243 44.8H41.6C41.8829 44.8 42.1541 44.6875 42.3541 44.4875L42.6667 44.1749L43.6576 45.1659L41.6149 57.424C41.5667 57.7117 41.6384 58.0065 41.8133 58.24L44.5333 61.8667H32ZM43.7941 57.3248L45.7035 45.8667H46.0299L47.9392 57.3248L45.8667 60.0885L43.7941 57.3248ZM61.8667 61.8667H47.2L49.92 58.24C50.0949 58.0065 50.1667 57.7117 50.1184 57.424L48.0757 45.1659L49.0667 44.1749L49.3792 44.4875C49.5792 44.6875 49.8504 44.8 50.1333 44.8H50.2091C50.5179 44.7773 50.8017 44.6217 50.9867 44.3733L57.0293 36.3168C59.7628 36.5671 61.8577 38.8551 61.8667 41.6V61.8667Z" fill="#F28600"/>
</svg>
