<svg width="64" height="75" viewBox="0 0 64 75" fill="none" xmlns="http://www.w3.org/2000/svg">
<path d="M62.8385 12.9508C52.5131 10.1234 42.127 5.72082 32.8029 0.219177C32.3077 -0.0730589 31.6931 -0.0730589 31.1979 0.219177C21.6049 5.87888 11.78 10.0433 1.16146 12.9508C0.475488 13.1385 0 13.7616 0 14.4725V30.5925C0 47.1925 7.66277 58.1806 14.0912 64.4751C21.0119 71.2522 29.0735 75 32.0004 75C34.9271 75 42.9887 71.2522 49.9094 64.4751C56.3377 58.1807 64 47.1926 64 30.5925V14.4724C64 13.7616 63.5245 13.1385 62.8385 12.9508ZM60.8428 30.5923C60.8428 46.0967 53.6957 56.3498 47.6996 62.2212C40.894 68.8855 33.6176 71.8444 32.0004 71.8444C30.3833 71.8444 23.1064 68.8855 16.3007 62.2212C10.3048 56.3497 3.15736 46.0967 3.15736 30.5923V15.67C13.3118 12.7887 22.7684 8.76754 32.0007 3.40579C41.0025 8.62531 50.931 12.8464 60.8428 15.6694V30.5923Z" fill="#F28600"/>
<path d="M11.7569 0.999878C11.4374 0.189089 10.5208 -0.209201 9.70939 0.110281C6.88929 1.22078 3.99474 2.24294 1.1062 3.14851C0.447931 3.35505 0 3.96442 0 4.65378V10.7462C0 11.6175 0.706928 12.3238 1.57861 12.3238C2.45029 12.3238 3.15721 11.6175 3.15721 10.7462V5.80675C5.7485 4.96886 8.33701 4.04206 10.8667 3.04582C11.678 2.72663 12.0766 1.81067 11.7569 0.999878Z" transform="translate(6.25085 14.4937)" fill="#F28600"/>
<path d="M1.58221 3.1651C1.79401 3.1651 2.00904 3.12247 2.21527 3.03253L2.24429 3.01993C3.04298 2.67013 3.40267 1.74098 3.05265 0.943083C2.70234 0.144892 1.76734 -0.216191 0.969534 0.133319L0.94403 0.144306C0.144906 0.493085 -0.215961 1.4215 0.133033 2.21984C0.39203 2.81251 0.973197 3.1651 1.58221 3.1651Z" transform="translate(19.4242 12.6277)" fill="#F28600"/>
<path d="M11.8713 0.257061C11.1418 -0.219451 10.1635 -0.0145202 9.68612 0.714824C8.38527 2.70466 6.85914 4.61013 5.1495 6.37775C3.74355 7.83116 2.22006 9.18585 0.621369 10.4039C-0.0717818 10.9321 -0.205164 11.922 0.323237 12.615C0.634122 13.0221 1.10418 13.2363 1.57967 13.2363C1.91357 13.2363 2.24996 13.131 2.53578 12.913C4.26023 11.5989 5.90333 10.138 7.4192 8.57091C9.26765 6.66017 10.9195 4.59768 12.3293 2.4407C12.8064 1.71121 12.601 0.733574 11.8713 0.257061Z" transform="translate(38.9375 50.6143)" fill="#F28600"/>
<path d="M0.878645 0.216357L0.78806 0.269679C0.0336412 0.706348 -0.224183 1.67139 0.212609 2.42534C0.505319 2.93071 1.03518 3.21283 1.5803 3.21283C1.84853 3.21283 2.12086 3.14443 2.3696 3.00014L2.47411 2.93877C3.22647 2.49844 3.47917 1.53208 3.03857 0.780174C2.59767 0.0285643 1.63057 -0.223535 0.878645 0.216357Z" transform="translate(35.014 63.2761)" fill="#F28600"/>
<path d="M8.76043 11.6338C7.79113 10.6649 6.50201 10.1317 5.13095 10.1317C3.75989 10.1317 2.47062 10.6651 1.50089 11.6338C-0.500295 13.6341 -0.500295 16.889 1.50089 18.8893L10.8224 28.2048C11.7919 29.1733 13.081 29.7067 14.4522 29.7067C15.8234 29.7067 17.1125 29.1733 18.0821 28.2045L37.5415 8.75696C39.5425 6.75614 39.5425 3.5017 37.5412 1.50205C36.5718 0.533202 35.2826 0 33.9113 0C32.5401 0 31.251 0.533348 30.2814 1.50205L14.4521 17.3216L8.76043 11.6338ZM32.514 3.73329C32.887 3.36049 33.3835 3.15527 33.9114 3.15527C34.4397 3.15527 34.9357 3.36049 35.309 3.73329C36.0793 4.50307 36.0793 5.75609 35.3087 6.52616L15.8497 25.9734C15.4766 26.3462 14.9802 26.5514 14.4522 26.5514C13.9242 26.5514 13.4278 26.3462 13.0546 25.9734L3.73336 16.6582C2.96282 15.8881 2.96282 14.6351 3.73307 13.8653C4.10625 13.4925 4.6027 13.287 5.1308 13.287C5.65891 13.287 6.15507 13.4922 6.5281 13.865L13.3358 20.6686C13.632 20.9644 14.0333 21.1306 14.4521 21.1306C14.8708 21.1306 15.2721 20.9645 15.5681 20.6686L32.514 3.73329Z" transform="translate(12.4794 22.6462)" fill="#F28600"/>
</svg>
