<svg width="71" height="72" viewBox="0 0 71 72" fill="none" xmlns="http://www.w3.org/2000/svg">
<path d="M63.5661 16.4187C64.5731 14.3594 65.2627 12.2237 65.2627 10.2345C65.2627 4.59127 60.662 0 55.007 0C51.3459 0 48.1287 1.92586 46.3138 4.8143C44.3244 4.23338 42.272 3.8295 40.204 3.61702C39.614 3.55584 39.0846 3.98517 39.0238 4.57509C38.9629 5.16488 39.3928 5.69222 39.9838 5.75283C41.7996 5.9393 43.6032 6.28186 45.3568 6.77194C44.9658 7.85405 44.7516 9.01969 44.7516 10.2345C44.7516 17.4669 53.8589 26.6386 54.2464 27.0255C54.6608 27.4389 55.3535 27.4389 55.7678 27.0255C56.0126 26.781 59.7342 23.0332 62.4441 18.483C64.6555 21.4266 66.3153 24.6613 67.3904 28.0924L51.7867 29.7315C51.5083 29.7609 51.2521 29.8973 51.0728 30.112C50.9112 30.3055 47.0944 34.8832 45.1398 37.8149C42.929 37.9617 40.9071 38.8084 39.2977 40.1379L39.0949 38.924L37.7083 30.6695C37.666 30.4173 37.535 30.1888 37.339 30.0244L29.0197 23.0581C28.8611 22.9252 28.6672 22.841 28.4616 22.8154L19.9374 21.752C18.89 18.7633 16.4915 16.4045 13.4753 15.4062C19.2054 9.46898 26.8414 6.0037 35.1195 5.61797C35.713 5.59041 36.1715 5.08781 36.1439 4.49564C36.1163 3.90347 35.6127 3.44292 35.0193 3.4733C30.3449 3.69098 25.85 4.83131 21.6594 6.86208C17.5976 8.83055 14.0095 11.5404 10.9945 14.9162C10.7502 14.8988 10.5043 14.8867 10.2555 14.8867C4.60069 14.8867 0 19.478 0 25.1213C0 27.6709 1.13238 30.4613 2.61507 33.0233C2.403 34.5687 2.29492 36.1477 2.29492 37.7177C2.29492 46.875 5.86835 55.4839 12.3566 61.959C18.8448 68.4339 27.4715 72 36.6474 72C45.8234 72 54.45 68.4339 60.9383 61.959C67.4267 55.4839 71 46.8748 71 37.7177C71 29.8928 68.4293 22.5307 63.5661 16.4187ZM55.007 24.7067C52.8582 22.38 46.9029 15.4603 46.9029 10.2345C46.9029 5.77519 50.5384 2.14706 55.007 2.14706C59.4757 2.14706 63.1111 5.77505 63.1111 10.2345C63.1111 15.4605 57.1558 22.3802 55.007 24.7067ZM45.8272 39.9364C50.2957 39.9364 53.9313 43.5644 53.9313 48.0239C53.9313 53.2496 47.976 60.1694 45.8272 62.496C43.6784 60.1694 37.7231 53.2496 37.7231 48.0239C37.7231 43.5645 41.3587 39.9364 45.8272 39.9364ZM2.15133 25.1213C2.15133 20.6619 5.78676 17.0338 10.2554 17.0338C14.7241 17.0338 18.3595 20.6619 18.3595 25.1213C18.3595 30.347 12.4043 37.2668 10.2554 39.5934C8.10647 37.2668 2.15133 30.347 2.15133 25.1213ZM4.44625 37.7177C4.44625 37.1239 4.4633 36.5286 4.49585 35.9346C6.85446 39.2553 9.2979 41.7158 9.49476 41.9122C9.9089 42.3256 10.6021 42.3256 11.0161 41.9122C11.2184 41.7102 13.7971 39.1136 16.2159 35.6491L20.4126 45.0723C20.5024 45.2741 20.6524 45.4432 20.8422 45.5569L27.0372 49.2663L24.2552 57.6797L17.0484 63.1966C9.3909 57.3164 4.44625 48.0831 4.44625 37.7177ZM18.8768 64.5026L25.8272 59.1819C25.9984 59.0508 26.1262 58.8711 26.194 58.6665L29.3496 49.1237C29.5073 48.647 29.3128 48.125 28.8816 47.8668L22.2405 43.8902L17.6141 33.5018C19.233 30.8121 20.5111 27.8305 20.5111 25.1213C20.5111 24.7351 20.4876 24.3544 20.4457 23.9792L27.8799 24.9067L35.6521 31.4149L36.9729 39.278L37.4496 42.1321C36.2686 43.7993 35.5718 45.8312 35.5718 48.024C35.5718 49.4511 35.9273 50.9536 36.4996 52.4493L33.4708 61.0325L23.1934 66.9099C21.6884 66.2162 20.246 65.4103 18.8768 64.5026ZM36.6474 69.8529C32.81 69.8529 29.128 69.1784 25.7122 67.9438L34.8874 62.6968C35.1113 62.5687 35.2815 62.3648 35.3672 62.1219L37.7981 55.2333C40.521 60.2391 44.8035 64.5521 45.0666 64.8148C45.481 65.2282 46.1737 65.2282 46.588 64.8148C46.89 64.5134 52.484 58.88 54.9411 52.9855L63.7358 55.0752C58.0004 63.9584 48.0009 69.8529 36.6474 69.8529ZM55.6514 50.9473C55.9248 49.9556 56.0829 48.9729 56.0829 48.024C56.0829 43.0048 52.4425 38.8209 47.6591 37.9561C49.3109 35.6518 51.6521 32.7863 52.4486 31.821L67.9695 30.1906C68.5512 32.6249 68.8485 35.1444 68.8485 37.7176C68.8485 43.3036 67.4118 48.5608 64.8891 53.1422L55.6514 50.9473Z" fill="#F28600"/>
<path d="M5.66571 0C2.54166 0 0 2.53645 0 5.65411C0 8.77177 2.54166 11.3082 5.66571 11.3082C8.78977 11.3082 11.3314 8.77177 11.3314 5.65411C11.3314 2.53645 8.78977 0 5.66571 0ZM5.66571 9.16102C3.72787 9.16102 2.15161 7.5877 2.15161 5.65411C2.15161 3.72052 3.72801 2.1472 5.66571 2.1472C7.60355 2.1472 9.17982 3.72052 9.17982 5.65411C9.17982 7.5877 7.60355 9.16102 5.66571 9.16102Z" transform="translate(40.1615 42.3696)" fill="#F28600"/>
<path d="M5.66571 0C2.54166 0 0 2.53645 0 5.65411C0 8.77176 2.54166 11.3082 5.66571 11.3082C8.78977 11.3082 11.3314 8.77176 11.3314 5.65411C11.3314 2.53645 8.78977 0 5.66571 0ZM5.66571 9.16102C3.72787 9.16102 2.15161 7.5877 2.15161 5.65411C2.15161 3.72037 3.72801 2.1472 5.66571 2.1472C7.60355 2.1472 9.17981 3.72052 9.17981 5.65411C9.17995 7.5877 7.60355 9.16102 5.66571 9.16102Z" transform="translate(49.3413 4.58057)" fill="#F28600"/>
<path d="M5.66571 0C2.54166 0 0 2.53645 0 5.65411C0 8.77177 2.54166 11.3082 5.66571 11.3082C8.78976 11.3082 11.3314 8.77177 11.3314 5.65411C11.3314 2.53645 8.78976 0 5.66571 0ZM5.66571 9.16116C3.72801 9.16116 2.15161 7.58784 2.15161 5.65425C2.15161 3.72052 3.72815 2.14734 5.66571 2.14734C7.60341 2.14734 9.17981 3.72066 9.17981 5.65425C9.17981 7.58784 7.60341 9.16116 5.66571 9.16116Z" transform="translate(4.58972 19.4673)" fill="#F28600"/>
</svg>
