<svg width="57" height="51" viewBox="0 0 57 51" fill="none" xmlns="http://www.w3.org/2000/svg">
<path d="M55.8957 0H1.10415C0.494407 0 0 0.495002 0 1.10562V14.5121C0 15.1227 0.494407 15.6179 1.10415 15.6179H55.8959C56.5056 15.6179 57 15.1227 57 14.5121V1.10562C56.9999 0.495002 56.5055 0 55.8957 0ZM36.7808 13.4064H2.20819V2.21134H36.7807V13.4064H36.7808ZM54.7917 13.4064H38.989V2.21134H54.7917V13.4064Z" fill="#F28600"/>
<path d="M3.65734 7.32513C4.64315 7.32513 5.53845 6.93192 6.19685 6.29466L9.04016 7.93742C9.21406 8.03787 9.40364 8.08558 9.59079 8.08558C9.97253 8.08558 10.3438 7.88714 10.5483 7.53217C10.853 7.00327 10.672 6.3271 10.1436 6.02196L7.24923 4.34977C7.29164 4.12702 7.31469 3.89736 7.31469 3.66257C7.31469 1.64298 5.67394 0 3.65734 0C1.64075 0 0 1.64309 0 3.66257C0 5.68204 1.64064 7.32513 3.65734 7.32513ZM3.65734 2.21123C4.45646 2.21123 5.1065 2.8622 5.1065 3.66246C5.1065 4.46271 4.45646 5.11368 3.65734 5.11368C2.85823 5.11368 2.20819 4.46271 2.20819 3.66246C2.20819 2.8622 2.85823 2.21123 3.65734 2.21123Z" transform="translate(41.6804 3.66284)" fill="#F28600"/>
<path d="M1.10415 2.21145H13.5255C14.1352 2.21145 14.6296 1.71634 14.6296 1.10573C14.6296 0.495113 14.1352 0 13.5255 0H1.10415C0.494408 0 0 0.495113 0 1.10573C0 1.71634 0.494408 2.21145 1.10415 2.21145Z" transform="translate(4.62354 6.77222)" fill="#F28600"/>
<path d="M1.10415 2.21145H10.3512C10.9609 2.21145 11.4553 1.71634 11.4553 1.10573C11.4553 0.495113 10.9609 0 10.3512 0H1.10415C0.494407 0 0 0.495113 0 1.10573C0 1.71634 0.494407 2.21145 1.10415 2.21145Z" transform="translate(21.7372 6.77222)" fill="#F28600"/>
<path d="M13.5255 2.21145C14.1352 2.21145 14.6296 1.71634 14.6296 1.10573C14.6296 0.495113 14.1352 0 13.5255 0H1.10415C0.494408 0 0 0.495113 0 1.10573C0 1.71634 0.494408 2.21145 1.10415 2.21145H13.5255Z" transform="translate(4.62354 22.6665)" fill="#F28600"/>
<path d="M10.3512 2.21145C10.9609 2.21145 11.4553 1.71634 11.4553 1.10573C11.4553 0.495113 10.9609 0 10.3512 0H1.10415C0.494407 0 0 0.495113 0 1.10573C0 1.71634 0.494407 2.21145 1.10415 2.21145H10.3512Z" transform="translate(21.7371 22.6665)" fill="#F28600"/>
<path d="M1.10415 0C0.812916 0 0.528585 0.117507 0.322962 0.323424C0.11734 0.52934 0 0.814077 0 1.10573C0 1.39738 0.11734 1.68211 0.322962 1.88803C0.528585 2.09395 0.814252 2.21145 1.10415 2.21145C1.39538 2.21145 1.67972 2.09395 1.88534 1.88803C2.09096 1.68211 2.2083 1.39738 2.2083 1.10573C2.2083 0.814077 2.09096 0.52934 1.88534 0.323424C1.67972 0.117507 1.39538 0 1.10415 0Z" transform="translate(0.276001 22.6665)" fill="#F28600"/>
<path d="M51.3414 0H1.10415C0.494407 0 0 0.495113 0 1.10573C0 1.71634 0.494407 2.21145 1.10415 2.21145H51.3413C51.9511 2.21145 52.4455 1.71634 52.4455 1.10573C52.4455 0.495113 51.9512 0 51.3414 0Z" transform="translate(4.00232 28.1951)" fill="#F28600"/>
<path d="M51.3414 0H1.10415C0.494407 0 0 0.495113 0 1.10573C0 1.71634 0.494407 2.21145 1.10415 2.21145H51.3413C51.9511 2.21145 52.4455 1.71634 52.4455 1.10573C52.4455 0.495113 51.9512 0 51.3414 0Z" transform="translate(4.00232 32.0649)" fill="#F28600"/>
<path d="M13.5255 2.21145C14.1352 2.21145 14.6296 1.71634 14.6296 1.10573C14.6296 0.495113 14.1352 0 13.5255 0H1.10415C0.494408 0 0 0.495113 0 1.10573C0 1.71634 0.494408 2.21145 1.10415 2.21145H13.5255Z" transform="translate(4.62354 39.3901)" fill="#F28600"/>
<path d="M10.3512 2.21145C10.9609 2.21145 11.4553 1.71634 11.4553 1.10573C11.4553 0.495113 10.9609 0 10.3512 0H1.10415C0.494407 0 0 0.495113 0 1.10573C0 1.71634 0.494407 2.21145 1.10415 2.21145H10.3512Z" transform="translate(21.7371 39.3901)" fill="#F28600"/>
<path d="M1.10415 0C0.814364 0 0.528585 0.117507 0.322962 0.323424C0.11734 0.52934 0 0.814077 0 1.10573C0 1.39738 0.11734 1.68211 0.322962 1.88803C0.528585 2.09395 0.814252 2.21145 1.10415 2.21145C1.39405 2.21145 1.67972 2.09395 1.88534 1.88803C2.09096 1.68211 2.2083 1.39738 2.2083 1.10573C2.2083 0.814077 2.09096 0.52934 1.88534 0.323424C1.67972 0.117507 1.39538 0 1.10415 0Z" transform="translate(0.276001 39.3901)" fill="#F28600"/>
<path d="M51.3414 0H1.10415C0.494407 0 0 0.495113 0 1.10573C0 1.71634 0.494407 2.21146 1.10415 2.21146H51.3413C51.9511 2.21146 52.4455 1.71634 52.4455 1.10573C52.4455 0.495113 51.9512 0 51.3414 0Z" transform="translate(4.00232 44.9187)" fill="#F28600"/>
<path d="M51.3414 0H1.10415C0.494407 0 0 0.495113 0 1.10573C0 1.71634 0.494407 2.21145 1.10415 2.21145H51.3413C51.9511 2.21145 52.4455 1.71634 52.4455 1.10573C52.4455 0.495113 51.9512 0 51.3414 0Z" transform="translate(4.00232 48.7886)" fill="#F28600"/>
</svg>
