<svg width="189" height="123" viewBox="0 0 189 123" fill="none" xmlns="http://www.w3.org/2000/svg">
<path d="M189 0H0V123H189V0Z" fill="black"/>
<path d="M0.0394749 50.3147L17.7559 1.70623C18.1352 0.682491 19.1216 5.78555e-07 20.2217 5.78555e-07H27.809C28.9092 5.78555e-07 29.8956 0.682491 30.2749 1.70623L40.3661 29.4229H44.2735C45.0702 29.4229 45.791 29.9158 46.0565 30.6742L47.6119 34.9587C47.7637 35.3758 47.4602 35.7929 47.005 35.7929H42.6802L43.6286 38.3332H47.5361C48.3327 38.3332 49.0535 38.8261 49.3191 39.5845L50.8745 43.869C51.0262 44.2861 50.7227 44.7032 50.2675 44.7032H45.9427L47.9534 50.2389C48.1051 50.656 47.8016 51.0731 47.3464 51.0731H39.4556C38.6589 51.0731 37.9381 50.5802 37.6726 49.8218L35.8137 44.6652H11.9516C11.4963 44.6652 11.1928 44.2102 11.3446 43.8311L12.9 39.5466C13.1655 38.7882 13.8863 38.2953 14.683 38.2953H33.4616L32.5132 35.7549H15.1762C14.7209 35.7549 14.4174 35.2999 14.5692 34.9208L16.1246 30.6363C16.3901 29.8779 17.1109 29.385 17.9076 29.385H30.1611L22.6876 8.83446C22.4979 8.26572 21.7013 8.26572 21.4736 8.83446L6.56456 49.8977C6.29901 50.656 5.57821 51.1489 4.78155 51.1489H0.646457C0.191218 51.1489 -0.112271 50.6939 0.0394749 50.3147Z" transform="translate(69.3086 17.9723)" fill="url(#paint0_linear)"/>
<path d="M11.2292 17.3656V17.1381C11.2672 17.1381 11.381 17.1381 11.5707 17.1002C11.7603 17.0623 11.95 17.0244 12.1397 16.9485C12.3294 16.8727 12.5191 16.7589 12.6708 16.6073C12.8226 16.4556 12.8984 16.266 12.8984 16.0764C12.8984 15.9248 12.8605 15.6973 12.7846 15.394C12.7087 15.0906 12.557 14.6736 12.4053 14.2186C12.2535 13.7636 12.0638 13.2327 11.8741 12.664C11.6845 12.0953 11.4568 11.4886 11.2292 10.8819H4.93176C4.70414 11.4886 4.47651 12.0573 4.2489 12.5882C4.02128 13.119 3.79366 13.6877 3.60398 14.2186C3.26255 15.0527 3.1108 15.6594 3.1108 16.0006C3.1108 16.1902 3.18667 16.3798 3.30048 16.4935C3.41429 16.6452 3.60398 16.721 3.79366 16.8348C3.98334 16.9106 4.21096 16.9864 4.43858 17.0244C4.6662 17.0623 4.89382 17.1002 5.0835 17.1381V17.3656H5.78866e-07V17.1002C0.417303 17.0623 0.758732 16.9485 1.06222 16.7589C1.36572 16.5694 1.51746 16.4556 1.5554 16.4177C1.66921 16.3039 1.85889 16.0385 2.08651 15.6215C2.35207 15.2044 2.65556 14.5977 2.99699 13.8015C3.33842 13.0432 3.67985 12.209 4.09715 11.2611C4.51445 10.3132 4.93175 9.32737 5.34906 8.34155C5.76636 7.35573 6.2216 6.332 6.6389 5.30826C7.0562 4.28453 7.4735 3.33662 7.85287 2.46455L7.62525 1.93373C7.89081 1.81998 8.15636 1.66831 8.38398 1.47873C8.6116 1.28915 8.80128 1.13748 8.99097 0.947904C9.18065 0.758323 9.29446 0.568745 9.44621 0.41708C9.56002 0.227499 9.67383 0.113748 9.71176 0H9.90145C10.3946 1.28915 10.8499 2.54038 11.3051 3.71578C11.7603 4.89118 12.1776 6.02867 12.557 7.09032C12.9743 8.18989 13.3537 9.21362 13.733 10.2374C14.1124 11.2611 14.4918 12.2469 14.8711 13.2327C15.0608 13.7256 15.2126 14.1427 15.3643 14.4461C15.5161 14.7873 15.6678 15.1285 15.8575 15.5456C15.8954 15.6215 15.9713 15.7352 16.0851 15.8869C16.1989 16.0385 16.3507 16.1902 16.5403 16.3798C16.73 16.5314 16.9576 16.6831 17.2232 16.8348C17.4888 16.9485 17.7923 17.0244 18.1716 17.0623V17.3277H11.2292V17.3656ZM8.15636 3.07121C8.04255 3.26079 7.92874 3.60203 7.73906 4.05703C7.54938 4.51202 7.32176 5.04285 7.0562 5.6495C6.79065 6.29408 6.48715 6.97657 6.18366 7.77281C5.84223 8.56905 5.5008 9.44112 5.12144 10.3511H11.0016C10.7361 9.6307 10.4705 8.94821 10.167 8.2278C9.90144 7.5074 9.63589 6.82491 9.37033 6.18033C9.10478 5.53576 8.87716 4.9291 8.64954 4.39828C8.45985 3.86745 8.30811 3.41246 8.15636 3.07121Z" transform="translate(17.6025 73.9365)" fill="white"/>
<path d="M14.0365 16.9864V16.721C14.7194 16.6831 15.2884 16.5314 15.7437 16.3039C16.1989 16.0385 16.5024 15.7731 16.6542 15.4319C16.73 15.2423 16.8059 14.9769 16.8818 14.6735C16.9197 14.3702 16.9576 14.0669 16.9956 13.7256C17.0335 12.7019 17.0335 11.6782 17.0335 10.7682C17.0335 9.82028 17.0335 8.83446 17.0335 7.84864V1.13748C16.5024 2.31289 16.0472 3.37454 15.5919 4.36036C15.1746 5.34618 14.7194 6.29408 14.3021 7.20407C13.8848 8.15197 13.4295 9.09988 13.0122 10.0478C12.5949 11.0336 12.1018 12.0952 11.5707 13.2327C11.4948 13.3844 11.381 13.6498 11.2292 13.9911C11.0775 14.3323 10.9637 14.6736 10.8119 15.0148C10.6602 15.356 10.5464 15.6973 10.3946 16.0006C10.2808 16.3039 10.2049 16.4935 10.167 16.5694H10.0153C9.52208 15.394 9.0289 14.2565 8.49779 13.0811C8.00462 11.9436 7.51144 10.8061 7.0562 9.74445C6.60096 8.6828 6.14572 7.69698 5.72842 6.74908C5.31112 5.80117 4.93176 5.00493 4.62826 4.28453C4.28683 3.56412 4.02128 2.95746 3.79366 2.46455C3.56604 1.97164 3.45223 1.63039 3.33842 1.47873C3.33842 2.50246 3.33842 3.45037 3.33842 4.24661C3.33842 5.04285 3.33842 5.83908 3.30048 6.59741C3.30048 7.39365 3.30048 8.18989 3.30048 9.06196C3.30048 9.93403 3.30048 10.9198 3.30048 12.0952C3.30048 12.8536 3.33842 13.4602 3.37635 14.029C3.41429 14.5598 3.5281 15.0148 3.71778 15.394C3.90747 15.7731 4.21096 16.0385 4.59032 16.266C4.96969 16.4935 5.5008 16.6452 6.18366 16.721V16.9485H-5.78866e-07V16.721C0.569048 16.6073 0.98635 16.4556 1.36572 16.2281C1.70714 16.0006 1.9727 15.7352 2.20032 15.356C2.39 14.9769 2.54175 14.5219 2.65556 13.9531C2.76937 13.3844 2.80731 12.7019 2.80731 11.9057C2.84524 11.2232 2.84524 10.4269 2.88318 9.51696C2.88318 8.60697 2.92112 7.62115 2.92112 6.55949C2.92112 6.1045 2.92112 5.72534 2.92112 5.38409C2.92112 5.08076 2.92112 4.77744 2.92112 4.47411C2.92112 4.17078 2.92112 3.86744 2.92112 3.56412C2.92112 3.26079 2.92111 2.88163 2.88318 2.38872C2.88318 1.93372 2.76937 1.59248 2.61762 1.32707C2.42794 1.06165 2.23826 0.834156 2.01064 0.682492C1.78302 0.530827 1.51746 0.417075 1.25191 0.341243C0.986351 0.265411 0.758731 0.227497 0.569048 0.189581V0H5.61461L11.2672 12.8536C11.95 11.3748 12.6329 9.8582 13.3157 8.37947C13.9607 6.90074 14.5676 5.57367 15.0988 4.36036C15.6299 3.14704 16.0472 2.16122 16.3886 1.36498C16.73 0.568745 16.9197 0.113748 16.9576 0H22.0032V0.227499C21.3583 0.227499 20.8651 0.37916 20.5237 0.644573C20.1823 0.909986 19.9546 1.21332 19.8408 1.55456C19.727 1.81998 19.6891 2.23705 19.6511 2.80579C19.6132 3.37453 19.6132 3.94328 19.5753 4.47411C19.5753 5.23243 19.5373 5.95284 19.5373 6.67324C19.5373 7.39365 19.5373 8.11406 19.5373 8.83446C19.5373 9.66862 19.5373 10.5407 19.5373 11.3748C19.5373 12.209 19.5373 13.0811 19.5753 14.029C19.5753 14.3323 19.6132 14.6356 19.6511 14.939C19.6891 15.2423 19.7649 15.4698 19.8408 15.6594C19.8408 15.6973 19.9167 15.7731 20.0305 15.8869C20.1443 16.0006 20.2961 16.1144 20.4858 16.266C20.6754 16.4177 20.903 16.5314 21.2065 16.6073C21.4721 16.721 21.8135 16.7589 22.1929 16.7969V17.0243H14.0365V16.9864Z" transform="translate(44.0444 74.3157)" fill="white"/>
<path d="M11.1913 17.3656V17.1381C11.2292 17.1381 11.343 17.1381 11.5327 17.1002C11.7224 17.0623 11.9121 17.0244 12.1018 16.9485C12.2914 16.8727 12.4811 16.7589 12.6329 16.6073C12.7846 16.4556 12.8605 16.266 12.8605 16.0764C12.8605 15.9248 12.8226 15.6973 12.7467 15.394C12.6708 15.0906 12.5191 14.6736 12.3673 14.2186C12.2156 13.7636 12.0259 13.2327 11.8362 12.664C11.6465 12.0953 11.4189 11.4886 11.1913 10.8819H4.89382C4.6662 11.4886 4.43858 12.0573 4.21096 12.5882C3.98334 13.119 3.75572 13.6877 3.56604 14.2186C3.22461 15.0527 3.07286 15.6594 3.07286 16.0006C3.07286 16.1902 3.14874 16.3798 3.26255 16.4935C3.37636 16.6452 3.56604 16.721 3.75572 16.8348C3.9454 16.9106 4.17303 16.9864 4.40064 17.0244C4.62826 17.0623 4.85588 17.1002 5.04557 17.1381V17.3656H0V17.1002C0.417302 17.0623 0.758733 16.9485 1.06223 16.7589C1.36572 16.5694 1.51747 16.4556 1.5554 16.4177C1.66921 16.3039 1.85889 16.0385 2.08651 15.6215C2.35207 15.2044 2.65556 14.5977 2.99699 13.8015C3.33842 13.0432 3.67985 12.209 4.09715 11.2611C4.51445 10.3132 4.93176 9.32737 5.34906 8.34155C5.76636 7.35573 6.2216 6.332 6.6389 5.30826C7.0562 4.28453 7.4735 3.33662 7.85287 2.46455L7.62525 1.93373C7.89081 1.81998 8.15637 1.66831 8.38398 1.47873C8.6116 1.28915 8.80128 1.13748 8.99097 0.947904C9.18065 0.758323 9.29446 0.568745 9.4462 0.41708C9.56001 0.227499 9.63589 0.113748 9.71176 0H9.90145C10.3946 1.28915 10.8499 2.54038 11.3051 3.71578C11.7603 4.89118 12.1776 6.02867 12.557 7.09032C12.9743 8.18989 13.3537 9.21362 13.733 10.2374C14.1124 11.2611 14.4918 12.2469 14.8711 13.2327C15.0608 13.7256 15.2126 14.1427 15.3643 14.4461C15.5161 14.7873 15.6678 15.1285 15.8575 15.5456C15.8954 15.6215 15.9713 15.7352 16.0851 15.8869C16.1989 16.0385 16.3507 16.1902 16.5403 16.3798C16.73 16.5314 16.9576 16.6831 17.2232 16.8348C17.4888 16.9485 17.7922 17.0244 18.1716 17.0623V17.3277H11.1913V17.3656ZM8.08049 3.07121C7.96668 3.26079 7.85287 3.60203 7.66319 4.05703C7.4735 4.51202 7.24588 5.04285 6.98033 5.6495C6.71477 6.29408 6.41128 6.97657 6.10779 7.77281C5.76636 8.56905 5.42493 9.44112 5.04557 10.3511H10.9257C10.6602 9.6307 10.3946 8.94821 10.0911 8.2278C9.82557 7.5074 9.56002 6.82491 9.29446 6.18033C9.0289 5.53576 8.80129 4.9291 8.57367 4.39828C8.38398 3.86745 8.23224 3.41246 8.08049 3.07121Z" transform="translate(66.958 73.9365)" fill="white"/>
<path d="M13.0122 16.9864C12.8605 16.8348 12.7846 16.721 12.7088 16.6831C12.6329 16.6073 12.557 16.5314 12.4811 16.4177C12.4053 16.3039 12.2915 16.1902 12.1776 16.0006C12.0638 15.811 11.8742 15.5456 11.6086 15.1665C11.3051 14.7115 11.0395 14.3323 10.8119 13.9911C10.5843 13.6498 10.3567 13.2707 10.1291 12.9294C9.90145 12.5882 9.63589 12.2469 9.37033 11.8678C9.10478 11.5265 8.76335 11.1094 8.38398 10.6924C8.08049 10.3132 7.73906 10.0099 7.35969 9.66862C6.98033 9.36529 6.60096 9.17571 6.18366 9.06196C5.88017 8.98613 5.65255 8.98613 5.5008 8.98613C5.34906 8.98613 5.15937 8.98613 4.96969 8.94821C4.96969 9.97195 4.96969 10.844 4.96969 11.6023C4.96969 12.3607 4.96969 13.0052 5.00763 13.4982C5.00763 13.9911 5.04556 14.4461 5.04556 14.7873C5.04556 15.1665 5.15938 15.4319 5.31112 15.6973C5.42493 15.8869 5.69049 16.1144 6.03191 16.3419C6.41128 16.5694 6.90446 16.6831 7.54938 16.721V16.9485H2.31546e-06V16.721C0.379368 16.6452 0.758734 16.5694 1.1381 16.4556C1.51747 16.3419 1.78302 16.1523 1.9727 15.8869C2.04858 15.811 2.12445 15.6594 2.16239 15.4698C2.20032 15.2802 2.23826 15.0527 2.2762 14.8252C2.31413 14.5977 2.31413 14.3323 2.35207 14.0669C2.35207 13.8015 2.39 13.5361 2.39 13.2707C2.39 13.0432 2.39 12.7398 2.39 12.3607C2.39 11.9815 2.39 11.5644 2.42794 11.1094C2.42794 10.6544 2.42794 10.1994 2.42794 9.74445C2.42794 9.25154 2.42794 8.79655 2.42794 8.37947V3.79162C2.42794 3.5262 2.42794 3.22287 2.42794 2.91954C2.42794 2.61621 2.39 2.3508 2.39 2.08539C2.35207 1.81998 2.31413 1.59248 2.2762 1.36498C2.23826 1.13749 2.16238 0.985818 2.04857 0.909985C1.82096 0.644572 1.5554 0.492912 1.2519 0.41708C0.948412 0.341248 0.606987 0.265413 0.189685 0.189581V0C0.303495 0 0.644921 0 1.17603 0C1.70714 0 2.31413 0 2.99699 0C3.67985 0 4.3627 0 5.04556 0C5.72842 0 6.25954 0 6.71477 0C7.777 0 8.72541 0.037915 9.52208 0.0758312C10.3567 0.151663 11.0775 0.341243 11.7603 0.720405C12.4432 1.09957 13.0122 1.59248 13.4295 2.19914C13.8468 2.8058 14.0745 3.60203 14.0745 4.54994C14.0745 5.11868 13.9607 5.64951 13.771 6.1045C13.5434 6.5595 13.2778 6.97657 12.9364 7.31782C12.5949 7.65906 12.1776 7.96239 11.6845 8.2278C11.2292 8.49322 10.6981 8.6828 10.2049 8.87238V8.94821C10.4705 9.09988 10.7361 9.28946 11.0016 9.55487C11.2672 9.82028 11.4948 10.1236 11.7224 10.4649C12.1397 11.0715 12.5949 11.7161 13.0502 12.3986C13.5434 13.0811 13.9607 13.7256 14.34 14.2565C14.9091 15.0906 15.4781 15.6594 16.0472 16.0385C16.6162 16.4177 17.2611 16.6452 17.9819 16.7589V16.9864H13.0122ZM10.6602 2.27497C10.2808 1.66831 9.67382 1.1754 8.95303 0.796242C8.57366 0.606661 8.1943 0.492912 7.777 0.41708C7.3597 0.341248 6.90446 0.30333 6.44922 0.30333C6.10779 0.30333 5.84223 0.303327 5.65255 0.341243C5.46287 0.341243 5.27318 0.379162 5.19731 0.379162C5.19731 0.454994 5.15937 0.568741 5.15937 0.644573C5.15937 0.720406 5.12144 0.796237 5.12144 0.909985C5.12144 1.02373 5.12144 1.1754 5.0835 1.36498C5.0835 1.55456 5.04556 1.85789 5.04556 2.19914C5.04556 2.76788 5.00763 3.37454 5.00763 4.05703C5.00763 4.73952 5.00763 5.42201 5.00763 6.06658C5.00763 6.71116 5.00763 7.2799 5.00763 7.77281C5.00763 8.22781 5.00763 8.53113 5.00763 8.6828C5.65255 8.6828 6.25954 8.64488 6.82859 8.60697C7.39763 8.56905 7.92874 8.4553 8.45985 8.26572C8.95303 8.11406 9.40827 7.88656 9.7497 7.62115C10.1291 7.35574 10.3946 7.0524 10.6222 6.71116C10.8499 6.36991 11.0016 5.99075 11.1154 5.61159C11.2292 5.23243 11.2672 4.81535 11.2672 4.39828C11.2672 3.60204 11.0775 2.88163 10.6602 2.27497Z" transform="translate(85.9641 74.3157)" fill="white"/>
<path d="M12.6329 16.9864C12.557 16.9485 12.4811 16.9106 12.4053 16.8727C12.3294 16.8348 12.2535 16.721 12.1397 16.6073C11.1154 15.4319 10.167 14.3323 9.25653 13.2707C8.34605 12.209 7.39763 11.1474 6.44922 10.0857C6.03192 9.6307 5.76636 9.32737 5.61461 9.25154C5.46287 9.13779 5.34906 9.09988 5.23525 9.09988C5.12144 9.09988 5.00762 9.13779 4.96969 9.17571C4.93175 9.21362 4.89382 9.32737 4.85588 9.44112C4.85588 10.2753 4.85588 11.0336 4.85588 11.7919C4.85588 12.5123 4.85588 13.1569 4.89382 13.6498C4.89382 14.1048 4.93175 14.5219 5.00762 14.939C5.04556 15.3181 5.15938 15.6215 5.31112 15.849C5.42493 16.0006 5.57667 16.1523 5.76636 16.266C5.95604 16.3798 6.14572 16.4556 6.37334 16.5314C6.60096 16.6073 6.82859 16.6452 7.01827 16.6831C7.24589 16.721 7.39763 16.7589 7.58732 16.7589V16.9864H4.63093e-06V16.7589C0.37937 16.6831 0.758736 16.6073 1.1381 16.4935C1.51747 16.3798 1.78302 16.1902 1.9727 15.9627C2.04857 15.849 2.12445 15.7352 2.16238 15.5456C2.20032 15.356 2.23826 15.1285 2.2762 14.901C2.31414 14.6736 2.31413 14.4081 2.31413 14.1048C2.31413 13.8394 2.31413 13.574 2.31413 13.3086C2.31413 13.0811 2.31413 12.7777 2.31413 12.3986C2.31413 12.0194 2.31413 11.6023 2.31413 11.1853C2.31413 10.7303 2.31413 10.2753 2.31413 9.78237C2.31413 9.28946 2.31413 8.83446 2.31413 8.41739V3.82953C2.31413 3.22288 2.2762 2.69205 2.23826 2.16122C2.20032 1.66831 2.08651 1.28915 1.93476 1.06165C1.70714 0.79624 1.44159 0.606657 1.1381 0.454993C0.834609 0.341244 0.455234 0.227497 0.0379319 0.189581V0H7.3597V0.227499C7.0562 0.265415 6.7527 0.303327 6.48715 0.341243C6.22159 0.379159 5.95604 0.530827 5.72842 0.682492C5.5008 0.872073 5.31111 1.13748 5.15937 1.51665C5.00762 1.89581 4.93176 2.38872 4.89382 3.03329C4.89382 3.41245 4.85588 3.7537 4.85588 4.05703C4.85588 4.36036 4.85588 4.73952 4.85588 5.1566C4.85588 5.57368 4.85588 6.06658 4.85588 6.63533C4.85588 7.20407 4.85588 7.92448 4.85588 8.79655C5.12144 8.60697 5.53874 8.34155 5.99398 7.92447C6.48715 7.5074 6.98033 7.0524 7.51144 6.52158C8.04255 5.99075 8.57367 5.45993 9.06684 4.9291C9.59795 4.36036 10.0532 3.90536 10.4326 3.48829C10.6981 3.18496 10.9257 2.84371 11.1534 2.50247C11.381 2.16122 11.4568 1.85789 11.4568 1.59248C11.4568 1.13748 11.3051 0.796242 11.0016 0.606661C10.6981 0.41708 10.3187 0.265413 9.90144 0.189581V0H16.2369V0.227499C15.4402 0.303332 14.6056 0.644576 13.8089 1.25123C12.9743 1.85789 12.1397 2.54038 11.3051 3.33662C10.9637 3.63995 10.6222 3.94328 10.2808 4.32244C9.93938 4.66368 9.59795 5.00493 9.25653 5.34618C8.9151 5.68743 8.57366 6.02867 8.27017 6.332C7.96668 6.67324 7.66319 6.97657 7.39763 7.24199C7.51145 7.39365 7.81493 7.7349 8.27017 8.26572C8.72541 8.79655 9.25652 9.4032 9.90144 10.1236C10.5464 10.844 11.1913 11.6023 11.9121 12.3986C12.6329 13.1948 13.3157 13.9911 13.9986 14.7115C14.1503 14.901 14.34 15.0906 14.5297 15.2802C14.7194 15.4698 14.947 15.6215 15.1367 15.7731C15.3264 15.9248 15.4781 16.0385 15.6299 16.1523C15.7816 16.266 15.8575 16.3419 15.8954 16.3419C16.0851 16.4177 16.3886 16.4935 16.73 16.5694C17.0715 16.6452 17.4888 16.721 17.9061 16.721V16.9485H12.6329V16.9864Z" transform="translate(104.781 74.3157)" fill="white"/>
<path d="M14.4538 16.9864H2.31546e-06V16.7589C0.379368 16.6831 0.758731 16.6073 1.10016 16.4556C1.44159 16.3039 1.70715 16.1144 1.93477 15.849C2.01064 15.7731 2.08652 15.6215 2.12445 15.4319C2.16239 15.2423 2.20032 15.0527 2.23826 14.7873C2.27619 14.5598 2.31414 14.2944 2.31414 14.029C2.31414 13.7636 2.35206 13.4982 2.35206 13.2707C2.35206 13.0432 2.35206 12.7398 2.35206 12.3607C2.35206 11.9815 2.35206 11.5644 2.39 11.1094C2.39 10.6544 2.39 10.1994 2.39 9.74445C2.39 9.25154 2.39 8.79655 2.39 8.37947V3.79162C2.39 3.5262 2.39 3.22287 2.39 2.91954C2.39 2.61621 2.35206 2.3508 2.35206 2.08539C2.31413 1.81998 2.27619 1.59248 2.23826 1.36498C2.20032 1.13749 2.12445 0.985818 2.01064 0.909985C1.78302 0.644572 1.51746 0.492912 1.2519 0.41708C0.986349 0.341248 0.644926 0.265415 0.227624 0.227499V0H13.2778L14.8711 3.90536L14.6435 4.01911C13.3537 2.42664 12.1776 1.36498 11.0395 0.796242C10.774 0.682493 10.2808 0.568741 9.56001 0.454993C8.83922 0.37916 7.96667 0.30333 6.90445 0.30333C6.56302 0.30333 6.2216 0.303327 5.88017 0.341243C5.53874 0.379159 5.27319 0.379164 5.12144 0.41708C5.0835 0.682493 5.04556 1.1754 5.04556 1.97164C5.00762 2.76788 5.00762 3.67786 5.00762 4.7016C5.00762 5.30826 5.00762 5.80117 5.00762 6.21825C5.00762 6.63532 5.00762 6.97657 5.00762 7.20407C5.00762 7.46948 5.00762 7.65907 5.00762 7.81073C5.00762 7.92448 5.00762 8.03823 5.00762 8.07614C5.0835 8.07614 5.23525 8.07614 5.46287 8.07614C5.69049 8.07614 5.95605 8.07614 6.29747 8.03822C6.60097 8.03822 6.90446 8.00031 7.20795 7.96239C7.51144 7.92448 7.777 7.88656 7.96668 7.84864C8.42192 7.73489 8.83922 7.58323 9.14272 7.39365C9.44621 7.20407 9.71177 6.97657 9.90145 6.71116C10.0911 6.44574 10.2429 6.14242 10.3567 5.76325C10.4705 5.42201 10.5843 5.00493 10.6602 4.58786H10.9257V12.0194H10.6602C10.5464 11.5265 10.3567 10.9957 10.0911 10.4649C9.82558 9.93403 9.56002 9.51695 9.29446 9.25154C9.02891 9.02404 8.72542 8.83446 8.38399 8.72072C8.04256 8.56905 7.62525 8.49322 7.13207 8.4553C6.90445 8.4553 6.71477 8.41739 6.52508 8.41739C6.37334 8.41739 6.2216 8.41739 6.06985 8.41739C5.91811 8.41739 5.76636 8.41739 5.61461 8.41739C5.46286 8.41739 5.23524 8.41739 5.00762 8.41739C4.96969 8.64488 4.9697 8.94821 4.9697 9.40321C4.9697 9.82028 4.9697 10.2753 4.9697 10.7303C4.9697 10.9199 4.9697 11.1853 4.9697 11.4507C4.9697 11.7161 4.9697 11.9815 4.9697 12.2469C4.9697 12.5123 4.9697 12.7398 4.9697 12.9673C4.9697 13.1948 4.9697 13.3844 4.9697 13.5361C4.9697 14.029 5.00762 14.5219 5.04556 14.9769C5.0835 15.4319 5.15938 15.7731 5.31112 15.9627C5.46287 16.1902 5.80429 16.3419 6.3354 16.4177C6.86651 16.5314 7.43556 16.5694 8.08049 16.5694C8.34604 16.5694 8.68748 16.5694 9.10478 16.5314C9.52208 16.5314 9.97732 16.4935 10.4326 16.4177C10.9257 16.3419 11.4189 16.2281 11.8362 16.0385C12.2535 15.849 12.6708 15.5835 13.0502 15.2802C13.4295 14.939 13.8089 14.5598 14.1883 14.0669C14.5676 13.574 14.947 13.0052 15.3264 12.3228L15.5919 12.3986L14.4538 16.9864Z" transform="translate(123.521 74.3157)" fill="white"/>
<path d="M17.7543 4.73952C17.6405 4.4741 17.4888 4.17077 17.2991 3.86745C17.1094 3.56412 16.9576 3.26079 16.768 2.99538C16.5783 2.72997 16.4265 2.46455 16.2368 2.23706C16.0472 2.00956 15.8954 1.85789 15.7816 1.74414C15.4402 1.44082 15.0988 1.21332 14.7194 1.09957C14.34 0.985822 13.8468 0.947906 13.2399 0.90999C12.9364 0.90999 12.6708 0.90999 12.4432 0.90999C12.2156 0.90999 11.988 0.90999 11.7983 0.90999C11.6086 0.90999 11.381 0.90999 11.1154 0.90999C10.8878 0.90999 10.5843 0.90999 10.2429 0.90999C10.2429 1.28915 10.2429 1.85789 10.2429 2.50247C10.2429 3.18496 10.2429 3.90536 10.2429 4.62577C10.2429 5.38409 10.2429 6.1045 10.2429 6.82491C10.2429 7.54531 10.2429 8.11405 10.2429 8.60696V13.8394C10.2429 14.2944 10.2429 14.7494 10.2808 15.1665C10.3188 15.5835 10.3946 15.8869 10.5084 16.0385C10.736 16.3798 11.0775 16.6073 11.4948 16.7589C11.9121 16.8727 12.3294 16.9864 12.6708 17.0244V17.2518H5.00762V17.0244C5.42492 16.9864 5.80429 16.9106 6.18366 16.7969C6.56302 16.6831 6.94239 16.4177 7.28382 16.0006C7.35969 15.9248 7.43556 15.7731 7.4735 15.6215C7.51144 15.4319 7.54938 15.2423 7.58732 15.0148C7.62525 14.7873 7.62525 14.5219 7.62525 14.2565C7.62525 13.9911 7.62525 13.7256 7.62525 13.4602C7.62525 13.2327 7.62525 12.9673 7.62525 12.5882C7.62525 12.209 7.62525 11.8298 7.66318 11.3748C7.66318 10.9199 7.66318 10.4649 7.66318 10.0099C7.66318 9.55487 7.66318 9.09988 7.66318 8.64488V0.834153C7.32175 0.834153 7.0562 0.834153 6.79065 0.834153C6.56303 0.834153 6.33541 0.834153 6.10779 0.834153C5.91811 0.834153 5.69049 0.834153 5.46287 0.834153C5.23525 0.834153 4.96969 0.834153 4.6662 0.834153C4.05921 0.834153 3.56604 0.909988 3.18667 1.06165C2.80731 1.1754 2.42795 1.4029 2.12445 1.70623C2.01064 1.81997 1.85889 1.97164 1.66921 2.19914C1.51746 2.42663 1.32778 2.65413 1.1381 2.91954C0.948417 3.18495 0.796673 3.45037 0.60699 3.7537C0.455243 4.05703 0.303497 4.36036 0.227624 4.62577L2.31546e-06 4.54994L0.720795 0.07583C1.10016 0.151662 1.40366 0.227495 1.70715 0.265411C2.01064 0.303327 2.46588 0.341244 3.03493 0.37916C3.64191 0.37916 4.17302 0.417079 4.62826 0.417079C5.0835 0.417079 5.53874 0.417079 5.99398 0.417079C6.44921 0.417079 6.86652 0.417079 7.32176 0.417079C7.77699 0.417079 8.30811 0.417079 8.9151 0.417079C9.48414 0.417079 10.0153 0.417079 10.4705 0.417079C10.9257 0.417079 11.4189 0.417079 11.8362 0.417079C12.2914 0.417079 12.7467 0.417077 13.2019 0.37916C13.6572 0.37916 14.2262 0.37916 14.7953 0.37916C15.3264 0.37916 15.7437 0.303327 16.0851 0.265411C16.4265 0.189578 16.768 0.113747 17.1473 -1.15711e-06L17.9061 4.58786L17.7543 4.73952Z" transform="translate(139.834 74.0123)" fill="white"/>
<path d="M11.2292 14.6735C10.9257 15.2802 10.5084 15.7731 9.93939 16.1902C9.40827 16.6073 8.76335 16.9485 8.00462 17.1381C7.24589 17.3277 6.41128 17.4414 5.53874 17.4414C4.78001 17.4414 4.09715 17.4035 3.56604 17.2898C2.99699 17.2139 2.54175 17.1002 2.20032 16.9485C1.82095 16.7969 1.5554 16.6831 1.36572 16.5694C1.17604 16.4556 1.06223 16.4177 1.02429 16.4177C0.986355 16.4177 0.872539 16.4935 0.720793 16.6831C0.569046 16.8727 0.417298 17.0623 0.303488 17.2139H0.0758778L0 12.5123H0.227622C0.379368 12.9294 0.569049 13.3465 0.758731 13.7636C0.986351 14.1806 1.21397 14.5598 1.47952 14.901C1.74508 15.2423 2.01064 15.5835 2.31413 15.849C2.61763 16.1144 2.88317 16.3039 3.14873 16.4556C3.41429 16.6073 3.75572 16.721 4.21096 16.8727C4.6662 17.0244 5.0835 17.1002 5.5008 17.1002C6.67684 17.1002 7.62525 16.7969 8.34605 16.1523C9.06684 15.5077 9.4462 14.6356 9.4462 13.574C9.4462 13.119 9.37033 12.7398 9.21858 12.3986C9.06684 12.0573 8.87715 11.7919 8.64953 11.5265C8.42191 11.299 8.11843 11.0715 7.777 10.8819C7.43557 10.6924 7.09414 10.5407 6.71478 10.4269C6.33541 10.2753 5.99398 10.1615 5.72842 10.0857C5.46287 9.97195 5.19731 9.89612 4.93175 9.82029C4.70413 9.74445 4.43858 9.6307 4.17302 9.55487C3.90747 9.47904 3.60397 9.36529 3.22461 9.21362C2.80731 9.06196 2.42794 8.83447 2.04857 8.56905C1.66921 8.30364 1.32778 7.96239 1.06222 7.58323C0.796663 7.20407 0.531112 6.78699 0.379366 6.36991C0.189683 5.91492 0.113805 5.45993 0.113805 4.9291C0.113805 4.09494 0.265556 3.33662 0.569049 2.72996C0.872541 2.1233 1.28984 1.59248 1.82095 1.21331C2.35206 0.796237 2.95905 0.49291 3.64191 0.303329C4.32477 0.113748 5.04556 -1.15711e-06 5.80429 -1.15711e-06C6.52509 -1.15711e-06 7.13208 0.0758312 7.62525 0.18958C8.11843 0.303328 8.53573 0.454993 8.87716 0.568741C9.18065 0.720406 9.4462 0.834154 9.59795 0.947903C9.74969 1.06165 9.86351 1.13748 9.86351 1.13748C9.90145 1.13748 10.0153 1.02374 10.167 0.872072C10.3187 0.682491 10.4705 0.49291 10.5843 0.303329H10.8499V4.66369H10.5843C10.3946 4.13286 10.167 3.63995 9.86351 3.10912C9.56002 2.5783 9.21858 2.12331 8.83922 1.74414C8.45985 1.32707 8.00462 1.02373 7.47351 0.758322C6.98033 0.492909 6.41128 0.37916 5.80429 0.37916C5.31112 0.37916 4.85589 0.454995 4.43858 0.60666C4.02128 0.758324 3.64192 0.947904 3.30049 1.25123C2.99699 1.51665 2.73144 1.89581 2.54175 2.31289C2.35207 2.72996 2.27619 3.22288 2.27619 3.7537C2.27619 4.58786 2.54175 5.27034 3.03493 5.76325C3.5281 6.25616 4.17303 6.67324 5.00763 6.97657C5.31112 7.09032 5.61461 7.20407 5.88017 7.31782C6.14572 7.43157 6.41128 7.5074 6.67684 7.58323C6.94239 7.65906 7.20795 7.77281 7.47351 7.84864C7.73907 7.92447 8.04255 8.03822 8.34605 8.15197C9.40827 8.53113 10.2429 9.09988 10.8499 9.8582C11.4568 10.6165 11.7224 11.5265 11.7224 12.664C11.6845 13.4223 11.5327 14.0669 11.2292 14.6735Z" transform="translate(159.713 74.0123)" fill="white"/>
<path d="M4.47652 2.12331C4.09715 2.8058 3.71778 3.5262 3.37635 4.20869V7.12823H2.20032V4.20869C1.82096 3.48829 1.44159 2.8058 1.10016 2.12331C0.720794 1.44082 0.379367 0.720409 1.15773e-06 0.0379185H1.32778L2.20032 1.78206C2.31413 2.00956 2.42794 2.23705 2.50381 2.46455C2.61762 2.69205 2.6935 2.91954 2.80731 3.14704H2.84524L3.49016 1.74415L4.32477 0H5.65255C5.23525 0.758323 4.85588 1.44082 4.47652 2.12331Z" transform="translate(53.2251 97.8237)" fill="#EF7D00"/>
<path d="M2.2762 -2.31422e-06C2.65556 -2.31422e-06 2.99699 0.0758323 3.30048 0.227497C3.60397 0.379161 3.83159 0.568747 4.02127 0.872076C4.13508 1.06166 4.24889 1.32707 4.32477 1.59248C4.40064 1.85789 4.40064 2.19914 4.40064 2.54038C4.40064 2.91955 4.3627 3.26079 4.32477 3.52621C4.24889 3.79162 4.17302 4.05703 4.05921 4.24661C3.86953 4.54994 3.60397 4.81535 3.26254 4.96702C2.92111 5.11868 2.54175 5.19451 2.16238 5.19451C1.78302 5.19451 1.44159 5.11868 1.1381 5.00493C0.834606 4.89119 0.606983 4.66369 0.4173 4.39827C0.151744 3.9812 1.15773e-06 3.37454 1.15773e-06 2.5783C1.15773e-06 2.31289 -2.3149e-06 2.04747 0.0379343 1.78206C0.0758708 1.55456 0.151744 1.32706 0.227617 1.13748C0.4173 0.758321 0.682858 0.492912 1.02429 0.265415C1.40365 0.0758346 1.82096 -2.31422e-06 2.2762 -2.31422e-06ZM2.23826 1.02374C2.04857 1.02374 1.85889 1.06165 1.70715 1.1754C1.5554 1.28915 1.44159 1.4029 1.36571 1.59248C1.28984 1.74415 1.25191 1.8958 1.25191 2.04747C1.21397 2.19913 1.21397 2.38872 1.21397 2.5783C1.21397 2.76788 1.21397 2.95746 1.25191 3.10913C1.28985 3.26079 1.32778 3.41246 1.36571 3.52621C1.44159 3.71579 1.5554 3.82953 1.70715 3.94327C1.85889 4.05702 2.04857 4.09495 2.23826 4.09495C2.46588 4.09495 2.65556 4.01912 2.8073 3.90537C2.99699 3.79162 3.1108 3.60203 3.18667 3.37453C3.22461 3.26078 3.26254 3.14704 3.26254 3.03329C3.26254 2.88162 3.30048 2.69205 3.30048 2.50247C3.30048 2.1233 3.26255 1.81998 3.14874 1.6304C3.07286 1.44082 2.95905 1.28915 2.8073 1.1754C2.57969 1.09957 2.42794 1.02374 2.23826 1.02374Z" transform="translate(58.7261 99.8712)" fill="#EF7D00"/>
<path d="M1.17603 0V2.99537C1.17603 3.33662 1.25191 3.60203 1.40365 3.7537C1.5554 3.90536 1.78302 4.01911 2.12445 4.01911C2.39 4.01911 2.61762 3.94328 2.80731 3.7537C2.99699 3.56412 3.07286 3.33662 3.07286 2.99537V0H4.21096V5.08076H3.07286V4.58786H3.03493C2.88318 4.77744 2.6935 4.9291 2.42794 5.00494C2.20032 5.08077 1.9727 5.1566 1.74508 5.1566C1.21397 5.1566 0.79667 5.00493 0.493178 4.7016C0.189685 4.39827 1.15773e-06 3.94328 1.15773e-06 3.33662V0H1.17603Z" transform="translate(64.2268 99.9091)" fill="#EF7D00"/>
<path d="M2.08651 1.06165C1.82096 1.06165 1.59333 1.13748 1.40365 1.32707C1.21397 1.51665 1.1381 1.74414 1.1381 2.08539V5.11868H0V0.0379185H1.1381V0.644579H1.17604C1.47953 0.189585 1.89683 0 2.39 0C2.57969 0 2.76937 0.0379208 2.92111 0.0758369C3.07286 0.113753 3.22461 0.189585 3.37635 0.265418L2.95905 1.32707C2.80731 1.25123 2.6935 1.1754 2.54175 1.13748C2.35207 1.06165 2.23826 1.06165 2.08651 1.06165Z" transform="translate(69.8032 99.9091)" fill="#EF7D00"/>
<path d="M2.27619 -2.31422e-06C2.65556 -2.31422e-06 2.99699 0.0758323 3.30048 0.227497C3.60398 0.379161 3.83159 0.568747 4.02128 0.872076C4.13509 1.06166 4.2489 1.32707 4.32477 1.59248C4.40064 1.85789 4.40064 2.19914 4.40064 2.54038C4.40064 2.91955 4.36271 3.26079 4.32477 3.52621C4.2489 3.79162 4.17303 4.05703 4.05922 4.24661C3.86953 4.54994 3.60397 4.81535 3.26255 4.96702C2.92112 5.11868 2.54175 5.19451 2.16239 5.19451C1.78302 5.19451 1.44159 5.11868 1.13809 5.00493C0.834602 4.89119 0.606985 4.66369 0.417302 4.39827C0.151746 3.9812 -2.31546e-06 3.37454 -2.31546e-06 2.5783C-2.31546e-06 2.31289 0 2.04747 0.0379366 1.78206C0.0758731 1.55456 0.151746 1.32706 0.227619 1.13748C0.417302 0.758321 0.68286 0.492912 1.02429 0.265415C1.40366 0.0758346 1.82095 -2.31422e-06 2.27619 -2.31422e-06ZM2.23826 1.02374C2.04858 1.02374 1.85889 1.06165 1.70714 1.1754C1.5554 1.28915 1.44159 1.4029 1.36572 1.59248C1.28984 1.74415 1.25191 1.8958 1.25191 2.04747C1.21397 2.19913 1.21397 2.38872 1.21397 2.5783C1.21397 2.76788 1.21397 2.95746 1.25191 3.10913C1.28984 3.26079 1.32778 3.41246 1.36572 3.52621C1.44159 3.71579 1.5554 3.82953 1.70714 3.94327C1.85889 4.05702 2.04858 4.09495 2.23826 4.09495C2.46588 4.09495 2.65556 4.01912 2.80731 3.90537C2.99699 3.79162 3.1108 3.60203 3.18667 3.37453C3.22461 3.26078 3.26255 3.14704 3.26255 3.03329C3.26255 2.88162 3.30048 2.69205 3.30048 2.50247C3.30048 2.1233 3.26254 1.81998 3.14873 1.6304C3.07286 1.44082 2.95905 1.28915 2.80731 1.1754C2.61762 1.09957 2.42794 1.02374 2.23826 1.02374Z" transform="translate(76.2148 99.8712)" fill="#EF7D00"/>
<path d="M3.03493 5.11868V2.1233C3.03493 1.78206 2.95905 1.55456 2.8073 1.36498C2.65556 1.1754 2.42794 1.09956 2.08651 1.09956C1.82096 1.09956 1.5554 1.1754 1.40365 1.36498C1.21397 1.55456 1.1381 1.78206 1.1381 2.1233V5.11868H0V0.0379162H1.1381V0.56874H1.17604C1.32778 0.379159 1.5554 0.227492 1.78302 0.15166C2.01064 0.0379115 2.2762 -2.31422e-06 2.50382 -2.31422e-06C3.03493 -2.31422e-06 3.45223 0.151667 3.75572 0.454996C4.05921 0.758325 4.21096 1.21332 4.21096 1.78206V5.11868H3.03493Z" transform="translate(81.7534 99.8712)" fill="#EF7D00"/>
<path d="M1.44159 7.46948C1.25191 7.46948 1.06222 7.43157 0.87254 7.39365C0.720794 7.35574 0.569049 7.2799 0.417302 7.16616C0.303493 7.05241 0.189682 6.93866 0.113809 6.74908C0.0379354 6.55949 -2.31546e-06 6.36991 -2.31546e-06 6.1045V4.62844e-06H1.17603V5.91492C1.17603 6.1045 1.21397 6.21824 1.28984 6.29408C1.36572 6.36991 1.47953 6.40783 1.66921 6.40783H1.85889V7.43156H1.44159V7.46948Z" transform="translate(87.2163 97.5204)" fill="#EF7D00"/>
<path d="M1.15773e-06 1.06165V2.31422e-06H1.1381V1.06165H1.15773e-06ZM1.15773e-06 7.12823V2.04747H1.1381V7.12823H1.15773e-06Z" transform="translate(90.0237 97.8616)" fill="#EF7D00"/>
<path d="M3.07286 5.11868V2.1233C3.07286 1.78206 2.99699 1.55456 2.84524 1.36498C2.69349 1.1754 2.46588 1.09956 2.12445 1.09956C1.85889 1.09956 1.63127 1.1754 1.44159 1.36498C1.25191 1.55456 1.17603 1.78206 1.17603 2.1233V5.11868H-2.31546e-06V0.0379162H1.17603V0.56874H1.21397C1.36572 0.379159 1.59333 0.227492 1.82095 0.15166C2.04857 0.0379115 2.31413 -2.31422e-06 2.54175 -2.31422e-06C3.07286 -2.31422e-06 3.49016 0.151667 3.79365 0.454996C4.09715 0.758325 4.2489 1.21332 4.2489 1.78206V5.11868H3.07286Z" transform="translate(92.5273 99.8712)" fill="#EF7D00"/>
<path d="M1.17603 2.99538C1.17603 3.14704 1.21397 3.2987 1.25191 3.45037C1.28985 3.60203 1.36572 3.71578 1.44159 3.82953C1.51747 3.94328 1.63127 4.01911 1.78302 4.09494C1.93476 4.17078 2.08651 4.20869 2.27619 4.20869C2.42794 4.20869 2.61762 4.17078 2.84524 4.09494C3.07286 4.01911 3.30048 3.90536 3.49016 3.71578C3.60397 3.86745 3.71778 3.9812 3.83159 4.13286C3.9454 4.28453 4.05921 4.39828 4.17302 4.54994C3.86953 4.81536 3.56603 5.00494 3.2246 5.11869C2.88317 5.23243 2.57969 5.27035 2.23826 5.27035C1.97271 5.27035 1.70715 5.23243 1.44159 5.15659C1.17604 5.08076 0.948419 4.92911 0.720799 4.73952C0.49318 4.54994 0.341424 4.28453 0.189678 3.94328C0.0379319 3.60204 -4.63093e-06 3.18496 -4.63093e-06 2.65414C-4.63093e-06 2.16123 0.0758685 1.74414 0.189678 1.4029C0.341424 1.06165 0.49318 0.796235 0.720799 0.606654C0.948419 0.417073 1.17604 0.265415 1.44159 0.151667C1.70715 0.0758346 1.97271 4.62844e-06 2.23826 4.62844e-06C2.57969 4.62844e-06 2.88318 0.0758369 3.14874 0.189585C3.41429 0.303334 3.64191 0.454994 3.83159 0.682491C4.02127 0.909988 4.17302 1.13748 4.2489 1.44081C4.36271 1.74414 4.40064 2.08539 4.40064 2.42664V2.91954H1.17603V2.99538ZM2.16238 1.13749C1.89683 1.13749 1.66921 1.21331 1.47953 1.4029C1.28985 1.59248 1.21397 1.85789 1.17603 2.19914H3.1108C3.07286 1.85789 2.99699 1.59248 2.80731 1.4029C2.65556 1.21331 2.42794 1.13749 2.16238 1.13749Z" transform="translate(97.8008 99.7953)" fill="#EF7D00"/>
<path d="M4.32476 4.77744C4.32476 5.08077 4.28684 5.38409 4.2489 5.68742C4.21096 5.99075 4.13508 6.29409 3.98334 6.5595C3.86953 6.82491 3.67985 7.01449 3.41429 7.20407C3.18667 7.35573 2.84524 7.46949 2.46587 7.46949C2.23826 7.46949 2.01064 7.43156 1.78302 7.35573C1.5554 7.2799 1.36572 7.12824 1.21397 6.93866H1.17603V7.43157H-2.31546e-06V-2.31422e-06H1.17603V2.84371H1.21397C1.40366 2.65413 1.59334 2.54038 1.82096 2.42663C2.04858 2.3508 2.27619 2.31289 2.46587 2.31289C2.84524 2.31289 3.14873 2.38872 3.37635 2.54038C3.60397 2.69205 3.79365 2.88163 3.9454 3.14705C4.05921 3.37454 4.17302 3.63995 4.21096 3.94328C4.28683 4.17077 4.32476 4.47411 4.32476 4.77744ZM3.1108 4.85327C3.1108 4.66369 3.1108 4.51202 3.07286 4.32244C3.07286 4.13286 2.99699 3.9812 2.95906 3.82953C2.88318 3.67787 2.8073 3.56412 2.65556 3.48829C2.54175 3.41246 2.35207 3.33663 2.12445 3.33663C1.89683 3.33663 1.74509 3.37454 1.63128 3.48829C1.51747 3.60204 1.40365 3.71579 1.32778 3.86745C1.2519 4.01911 1.21397 4.17077 1.21397 4.36036C1.17604 4.54994 1.17603 4.70161 1.17603 4.85327C1.17603 5.00494 1.17604 5.19451 1.21397 5.34618C1.21397 5.53576 1.28984 5.68742 1.32778 5.83908C1.40365 5.99075 1.47953 6.1045 1.63128 6.21825C1.74509 6.33199 1.93477 6.36992 2.16239 6.36992C2.39001 6.36992 2.54175 6.33199 2.6935 6.21825C2.80731 6.1045 2.92111 5.99075 2.99698 5.83908C3.07286 5.68742 3.1108 5.53576 3.1108 5.34618C3.1108 5.19451 3.1108 5.00494 3.1108 4.85327Z" transform="translate(105.805 97.5962)" fill="#EF7D00"/>
<path d="M2.08651 1.06165C1.82095 1.06165 1.59334 1.13748 1.40365 1.32707C1.21397 1.51665 1.13809 1.74414 1.13809 2.08539V5.11868H-4.63093e-06V0.0379185H1.13809V0.644579H1.17603C1.47952 0.189585 1.89683 0 2.39001 0C2.57969 0 2.76937 0.0379208 2.92112 0.0758369C3.07286 0.113753 3.22461 0.189585 3.37636 0.265418L2.95905 1.32707C2.80731 1.25123 2.6935 1.1754 2.54175 1.13748C2.35207 1.06165 2.23825 1.06165 2.08651 1.06165Z" transform="translate(111.268 99.9091)" fill="#EF7D00"/>
<path d="M2.2762 -2.31422e-06C2.65556 -2.31422e-06 2.99699 0.0758323 3.30048 0.227497C3.60397 0.379161 3.83159 0.568747 4.02127 0.872076C4.13508 1.06166 4.2489 1.32707 4.32477 1.59248C4.40064 1.85789 4.40064 2.19914 4.40064 2.54038C4.40064 2.91955 4.36271 3.26079 4.32477 3.52621C4.2489 3.79162 4.17302 4.05703 4.05921 4.24661C3.86953 4.54994 3.60397 4.81535 3.26254 4.96702C2.92111 5.11868 2.54175 5.19451 2.16238 5.19451C1.78302 5.19451 1.44159 5.11868 1.1381 5.00493C0.834609 4.89119 0.60698 4.66369 0.417298 4.39827C0.151742 3.9812 4.63093e-06 3.37454 4.63093e-06 2.5783C4.63093e-06 2.31289 -4.63262e-06 2.04747 0.0379319 1.78206C0.0758685 1.55456 0.151742 1.32706 0.227615 1.13748C0.417298 0.758321 0.682856 0.492912 1.02428 0.265415C1.40365 0.0758346 1.82096 -2.31422e-06 2.2762 -2.31422e-06ZM2.23826 1.02374C2.04858 1.02374 1.8589 1.06165 1.70715 1.1754C1.5554 1.28915 1.44159 1.4029 1.32778 1.59248C1.25191 1.74415 1.21397 1.8958 1.21397 2.04747C1.17603 2.19913 1.17603 2.38872 1.17603 2.5783C1.17603 2.76788 1.17603 2.95746 1.21397 3.10913C1.2519 3.26079 1.28985 3.41246 1.32778 3.52621C1.40366 3.71579 1.51747 3.82953 1.66921 3.94327C1.82096 4.05702 2.01064 4.09495 2.20032 4.09495C2.42794 4.09495 2.61762 4.01912 2.76937 3.90537C2.95905 3.79162 3.07286 3.60203 3.14874 3.37453C3.18667 3.26078 3.22461 3.14704 3.22461 3.03329C3.22461 2.88162 3.26254 2.69205 3.26254 2.50247C3.26254 2.1233 3.22461 1.81998 3.1108 1.6304C3.03492 1.44082 2.92112 1.28915 2.76937 1.1754C2.61762 1.09957 2.42794 1.02374 2.23826 1.02374Z" transform="translate(114.834 99.8712)" fill="#EF7D00"/>
<path d="M3.37636 7.46948C3.1108 7.09032 2.88318 6.71116 2.61763 6.332C2.39001 5.95283 2.12445 5.57367 1.8589 5.19451C1.74509 5.30826 1.63127 5.45992 1.51746 5.57367C1.40365 5.68742 1.28984 5.83909 1.17603 5.95283V7.43156H-4.63093e-06V4.62844e-06H1.17603V4.47411H1.21397L2.20032 3.33662L3.07286 2.38872H4.47652L2.65556 4.36036C2.99698 4.89119 3.33842 5.38409 3.67985 5.91492C4.02128 6.44574 4.36271 6.93865 4.70414 7.46948H3.37636Z" transform="translate(120.373 97.5204)" fill="#EF7D00"/>
<path d="M1.17604 2.99538C1.17604 3.14704 1.21397 3.2987 1.2519 3.45037C1.28984 3.60203 1.36571 3.71578 1.44159 3.82953C1.51746 3.94328 1.63127 4.01911 1.78301 4.09494C1.93476 4.17078 2.08651 4.20869 2.2762 4.20869C2.42794 4.20869 2.61763 4.17078 2.84524 4.09494C3.07286 4.01911 3.30048 3.90536 3.49016 3.71578C3.60397 3.86745 3.71779 3.9812 3.8316 4.13286C3.94541 4.28453 4.05922 4.39828 4.17302 4.54994C3.86953 4.81536 3.56604 5.00494 3.22461 5.11869C2.88318 5.23243 2.57969 5.27035 2.23826 5.27035C1.9727 5.27035 1.70714 5.23243 1.44159 5.15659C1.17603 5.08076 0.948414 4.92911 0.720795 4.73952C0.493175 4.54994 0.341431 4.28453 0.189685 3.94328C0.0758754 3.60204 2.31546e-06 3.18496 2.31546e-06 2.65414C2.31546e-06 2.16123 0.0758754 1.74414 0.189685 1.4029C0.341431 1.06165 0.493175 0.796235 0.720795 0.606654C0.948414 0.417073 1.17603 0.265415 1.44159 0.151667C1.70714 0.0758346 1.9727 4.62844e-06 2.23826 4.62844e-06C2.57969 4.62844e-06 2.88318 0.0758369 3.14873 0.189585C3.41429 0.303334 3.64192 0.454994 3.8316 0.682491C4.02128 0.909988 4.17302 1.13748 4.24889 1.44081C4.3627 1.74414 4.40065 2.08539 4.40065 2.42664V2.91954H1.17604V2.99538ZM2.16238 1.13749C1.89682 1.13749 1.66921 1.21331 1.47953 1.4029C1.28984 1.59248 1.21397 1.85789 1.17604 2.19914H3.11079C3.07286 1.85789 2.99699 1.59248 2.80731 1.4029C2.65556 1.21331 2.42794 1.13749 2.16238 1.13749Z" transform="translate(125.418 99.7953)" fill="#EF7D00"/>
<path d="M2.12445 1.06165C1.8589 1.06165 1.63127 1.13748 1.44159 1.32707C1.2519 1.51665 1.17604 1.74414 1.17604 2.08539V5.11868H2.31546e-06V0.0379185H1.1381V0.644579H1.17604C1.47953 0.189585 1.89683 0 2.39 0C2.57968 0 2.76936 0.0379208 2.92111 0.0758369C3.07286 0.113753 3.22461 0.189585 3.37635 0.265418L2.95905 1.32707C2.8073 1.25123 2.69349 1.1754 2.54175 1.13748C2.39 1.06165 2.23826 1.06165 2.12445 1.06165Z" transform="translate(130.919 99.9091)" fill="#EF7D00"/>
<path d="M3.86953 1.93373C3.86953 2.99538 2.99699 3.86745 1.93477 3.86745C0.872542 3.86745 1.15773e-06 2.99538 1.15773e-06 1.93373C1.15773e-06 0.872073 0.872542 -1.15711e-06 1.93477 -1.15711e-06C2.99699 0.037915 3.86953 0.872073 3.86953 1.93373Z" transform="translate(38.24 82.5435)" fill="white"/>
<defs>
<linearGradient id="paint0_linear" x2="1" gradientUnits="userSpaceOnUse" gradientTransform="translate(51.3431 0.419391) scale(51.784 51.7561) rotate(90)">
<stop stop-color="#F39200"/>
<stop offset="1" stop-color="#F07E00"/>
</linearGradient>
</defs>
</svg>
