<svg width="68" height="68" viewBox="0 0 68 68" version="1.1" xmlns="http://www.w3.org/2000/svg" xmlns:xlink="http://www.w3.org/1999/xlink">
<title>Group</title>
<desc>Created using Figma</desc>
<g id="Canvas" transform="translate(-1843 -681)">
<g id="Group">
<g id="Group">
<g id="XMLID 1">
<g id="XMLID 2">
<g id="Vector">
<use xlink:href="#path0_fill" transform="translate(1893.18 689.84)" fill="#454D54"/>
</g>
<g id="Vector">
<use xlink:href="#path1_fill" transform="translate(1890.78 686.757)" fill="#454D54"/>
</g>
<g id="Vector">
<use xlink:href="#path2_fill" transform="translate(1890.49 688.979)" fill="#454D54"/>
</g>
<g id="Vector">
<use xlink:href="#path3_fill" transform="translate(1890.33 738.378)" fill="#454D54"/>
</g>
<g id="Vector">
<use xlink:href="#path4_fill" transform="matrix(0.4777 -0.8785 0.8785 0.4777 1888.88 690.552)" fill="#454D54"/>
</g>
<g id="Vector">
<use xlink:href="#path5_fill" transform="translate(1887.93 705.027)" fill="#454D54"/>
</g>
<g id="Vector">
<use xlink:href="#path6_fill" transform="translate(1887.41 740.331)" fill="#454D54"/>
</g>
<g id="Vector">
<use xlink:href="#path7_fill" transform="translate(1886.26 686.575)" fill="#454D54"/>
</g>
<g id="Vector">
<use xlink:href="#path8_fill" transform="translate(1885.48 741.52)" fill="#454D54"/>
</g>
<g id="Vector">
<use xlink:href="#path9_fill" transform="translate(1885.16 740.412)" fill="#454D54"/>
</g>
<g id="Vector">
<use xlink:href="#path10_fill" transform="translate(1882.67 685.125)" fill="#454D54"/>
</g>
<g id="Vector">
<use xlink:href="#path11_fill" transform="translate(1882.68 742.104)" fill="#454D54"/>
</g>
<g id="Vector">
<use xlink:href="#path12_fill" transform="translate(1880.4 705.027)" fill="#454D54"/>
</g>
<g id="Vector">
<use xlink:href="#path13_fill" transform="translate(1879.16 684.621)" fill="#454D54"/>
</g>
<g id="Vector">
<use xlink:href="#path14_fill" transform="translate(1879.53 742.768)" fill="#454D54"/>
</g>
<g id="Vector">
<use xlink:href="#path15_fill" transform="translate(1877.73 743.107)" fill="#454D54"/>
</g>
<g id="Vector">
<use xlink:href="#path16_fill" transform="translate(1877.68 741.928)" fill="#454D54"/>
</g>
<g id="Vector">
<use xlink:href="#path17_fill" transform="translate(1875.69 684.4)" fill="#454D54"/>
</g>
<g id="Vector">
<use xlink:href="#path18_fill" transform="translate(1873.4 683.539)" fill="#454D54"/>
</g>
<g id="Vector">
<use xlink:href="#path19_fill" transform="translate(1873.55 684.717)" fill="#454D54"/>
</g>
<g id="Vector">
<use xlink:href="#path20_fill" transform="translate(1872.91 705.027)" fill="#454D54"/>
</g>
<g id="Vector">
<use xlink:href="#path21_fill" transform="translate(1872.47 742.925)" fill="#454D54"/>
</g>
<g id="Vector">
<use xlink:href="#path22_fill" transform="translate(1869.88 683.992)" fill="#454D54"/>
</g>
<g id="Vector">
<use xlink:href="#path23_fill" transform="translate(1867.03 741.701)" fill="#454D54"/>
</g>
<g id="Vector">
<use xlink:href="#path24_fill" transform="translate(1865.39 705.027)" fill="#454D54"/>
</g>
<g id="Vector">
<use xlink:href="#path25_fill" transform="translate(1864.88 686.953)" fill="#454D54"/>
</g>
<g id="Vector">
<use xlink:href="#path26_fill" transform="translate(1863.46 740.521)" fill="#454D54"/>
</g>
<g id="Vector">
<use xlink:href="#path27_fill" transform="translate(1860.32 688.208)" fill="#454D54"/>
</g>
<g id="Vector">
<use xlink:href="#path28_fill" transform="translate(1859.89 737.92)" fill="#454D54"/>
</g>
<g id="Vector">
<use xlink:href="#path29_fill" transform="translate(1852.79 690.248)" fill="#454D54"/>
</g>
<g id="Vector">
<use xlink:href="#path30_fill" transform="translate(1857.37 689.84)" fill="#454D54"/>
</g>
<g id="Vector">
<use xlink:href="#path31_fill" transform="translate(1843 681)" fill="#454D54"/>
</g>
</g>
</g>
</g>
</g>
</g>
<defs>
<path id="path0_fill" d="M -1.38346e-06 3.62667L 3.08267 0L 3.49067 0.272L 0.317334 3.89867L -1.38346e-06 3.62667Z"/>
<path id="path1_fill" d="M 0.0453333 0.136C 0.0906667 0.0453333 0.136001 -8.64665e-08 0.226667 -8.64665e-08C 0.317334 -8.64665e-08 0.362668 -8.64665e-08 0.408001 -8.64665e-08C 0.453335 0.0453332 0.543999 0.0906667 0.543999 0.136C 0.543999 0.226667 0.544 0.272 0.498667 0.362667C 0.453333 0.453333 0.407999 0.498667 0.317333 0.498667C 0.226666 0.498667 0.181332 0.498667 0.135999 0.453333C 0.0906653 0.408 6.91732e-07 0.362667 6.91732e-07 0.317333C 6.91732e-07 0.317333 0 0.226667 0.0453333 0.136Z"/>
<path id="path2_fill" d="M 0.159686 1.67733C 0.658352 0.952 1.70102 1.45067 2.29035 1.768L 2.47169 1.496C 2.83435 0.997333 2.74369 0.725334 2.38102 0.453333C 2.06369 0.226667 1.56502 0.226667 1.56502 0.226667L 1.65569 1.72933e-07C 1.65569 1.72933e-07 2.15435 3.24249e-07 2.56235 0.272C 3.15169 0.68 3.28769 1.088 2.83435 1.72267L 1.92769 2.992C 1.70102 3.30933 1.74635 3.4 1.83702 3.44533C 1.92769 3.49067 2.06369 3.536 2.06369 3.536L 1.97302 3.71733C 1.97302 3.71733 1.65569 3.62667 1.51969 3.536C 1.33835 3.4 1.29302 3.264 1.47435 2.94667C 1.47435 2.94667 1.02102 3.21867 0.477021 2.81067C 0.0236878 2.53867 -0.157648 2.08533 0.159686 1.67733ZM 0.567686 1.904C 0.34102 2.22133 0.431687 2.49333 0.749021 2.72C 1.15702 2.992 1.61035 2.76533 1.61035 2.76533L 2.15435 1.99467C 1.56502 1.67733 0.88502 1.45067 0.567686 1.904Z"/>
<path id="path3_fill" d="M 0.408001 0.784455L 0.634668 1.01112C 0.634668 0.965788 0.679999 0.557787 1.224 0.19512C 1.72267 -0.122213 2.22133 -0.076881 2.584 0.512452L 3.808 2.37112L 3.4 2.64312L 2.22133 0.87512C 1.904 0.421787 1.58667 0.331122 1.224 0.557788C 0.770666 0.829788 0.770666 1.23779 0.770666 1.23779L 2.176 3.41379L 1.768 3.64046L 6.91732e-07 0.965786L 0.408001 0.784455Z"/>
<path id="path4_fill" d="M 3.17333 0L 0 0L 0 0.453334L 3.17333 0.453334L 3.17333 0Z"/>
<path id="path5_fill" d="M 0.408 0C 0.634667 0 0.816001 0.272001 0.816001 0.634667C 0.816001 0.997334 0.634667 1.26933 0.408 1.26933C 0.181333 1.26933 -6.91732e-07 0.997334 -6.91732e-07 0.634667C -6.91732e-07 0.317334 0.181333 0 0.408 0Z"/>
<path id="path6_fill" d="M 0.698296 2.00461C 1.1063 2.82061 1.5143 3.13794 2.0583 2.86594C 2.6023 2.59394 2.64763 2.09527 2.23963 1.23394C 1.83163 0.417941 1.42363 0.100603 0.87963 0.372603C 0.33563 0.644603 0.290296 1.18861 0.698296 2.00461ZM 0.244963 2.23127C -0.208371 1.27927 -0.0270379 0.553937 0.743629 0.145937C 1.55963 -0.21673 2.23963 0.100603 2.69296 1.0526C 3.1463 2.0046 2.96496 2.77527 2.1943 3.13794C 1.3783 3.54594 0.698296 3.18327 0.244963 2.23127Z"/>
<path id="path7_fill" d="M 0.853054 3.17478C 0.0370541 2.85745 -0.234947 2.17745 0.218387 1.13478C 0.626387 0.137451 1.30638 -0.225216 2.16772 0.137451C 2.62105 0.318784 2.89305 0.726784 2.89305 0.726784L 2.75705 0.953451C 2.75705 0.953451 2.53039 0.590784 2.12239 0.409451C 1.53305 0.137451 1.07972 0.409451 0.717053 1.31612C 0.309053 2.26812 0.535718 2.72145 1.03438 2.90278C 1.53305 3.12945 1.89572 2.85745 1.89572 2.85745L 2.03172 3.08412C 2.03172 3.08412 1.57839 3.49212 0.853054 3.17478Z"/>
<path id="path8_fill" d="M 1.04267 3.128L -1.38346e-06 0.136001L 0.407999 0L 1.496 2.992L 1.04267 3.128Z"/>
<path id="path9_fill" d="M 0.453333 0.201481C 0.498667 0.292148 0.498667 0.337481 0.453333 0.428148C 0.408 0.473481 0.362665 0.518816 0.317332 0.56415C 0.271999 0.56415 0.181335 0.56415 0.136001 0.56415C 0.0453347 0.518816 0 0.473479 0 0.382812C 0 0.292145 0 0.246812 0 0.156145C 0.0453333 0.0654787 0.090668 0.0654842 0.136001 0.0201509C 0.181335 0.0201509 0.271999 -0.0251824 0.317332 0.0201509C 0.407999 0.0654842 0.453333 0.156148 0.453333 0.201481Z"/>
<path id="path10_fill" d="M 0 3.08267L 0.816001 1.72933e-07L 1.17867 0.0906668L 1.17867 0.408C 1.224 0.362667 1.58667 0.136 2.176 0.272C 2.76533 0.408 3.03733 0.861333 2.856 1.496L 2.26667 3.62667L 1.81333 3.49067L 2.35733 1.45067C 2.49333 0.906667 2.312 0.634667 1.94933 0.544C 1.45067 0.408 1.13333 0.634667 1.13333 0.634667L 0.453333 3.128L 0 3.08267Z"/>
<path id="path11_fill" d="M 0.345884 3.13324L 0.436549 2.86125C 0.436549 2.86125 0.799216 3.17858 1.34322 3.04258C 1.84188 2.90658 1.97788 2.58925 1.88721 2.27191C 1.66055 1.45591 0.300549 2.22658 0.0285488 1.18391C -0.107451 0.639909 0.255217 0.231909 0.84455 0.0505757C 1.29788 -0.0854243 1.70588 0.0959118 1.70588 0.0959118L 1.70588 0.367915C 1.70588 0.367915 1.29788 0.186579 0.935215 0.322579C 0.527216 0.413245 0.345883 0.685245 0.436549 1.00258C 0.663216 1.81858 2.11388 1.04791 2.38588 2.13591C 2.52188 2.63458 2.29522 3.17858 1.52455 3.35991C 0.70855 3.54124 0.345884 3.13324 0.345884 3.13324Z"/>
<path id="path12_fill" d="M 0.408001 0C 0.634667 0 0.816001 0.272001 0.816001 0.634667C 0.816001 0.997334 0.634667 1.26933 0.408001 1.26933C 0.181334 1.26933 6.44225e-15 0.997334 6.44225e-15 0.634667C 6.44225e-15 0.317334 0.181334 0 0.408001 0Z"/>
<path id="path13_fill" d="M 0.829884 3.26999C 0.285884 3.22466 -0.0767803 2.86199 0.0138864 2.36333C 0.104553 1.50199 1.28322 1.45666 1.96322 1.45666L 2.00855 1.13933C 2.09922 0.549995 1.91789 0.323328 1.41922 0.277995C 1.01122 0.232661 0.557885 0.459328 0.557885 0.459328L 0.557885 0.187328C 0.557885 0.187328 1.01122 -0.0393388 1.46455 0.00599449C 2.14455 0.0966612 2.50722 0.368661 2.37122 1.18466L 2.23522 2.72599C 2.18988 3.08866 2.28055 3.17933 2.37122 3.17933C 2.46188 3.17933 2.64322 3.13399 2.64322 3.13399L 2.64322 3.36066C 2.64322 3.36066 2.32589 3.45133 2.14455 3.40599C 1.91789 3.36066 1.82722 3.26999 1.82722 2.90733C 1.78189 2.90733 1.46455 3.31533 0.829884 3.26999ZM 0.46722 2.36333C 0.421886 2.72599 0.648552 2.95266 0.965886 2.99799C 1.46455 3.04333 1.73655 2.63533 1.73655 2.63533L 1.87255 1.72866C 1.23789 1.68333 0.512553 1.77399 0.46722 2.36333Z"/>
<path id="path14_fill" d="M 1.78061 2.37874C 1.64461 1.51741 0.193946 2.15208 0.0126123 1.06408C -0.0780543 0.520077 0.329946 0.112075 0.919279 0.0214088C 1.37261 -0.0692579 1.78061 0.15741 1.78061 0.15741L 1.73528 0.429406C 1.73528 0.429406 1.37261 0.202738 0.964612 0.293405C 0.556612 0.338738 0.329947 0.610739 0.37528 0.882739C 0.51128 1.74407 2.00728 1.10941 2.18861 2.19741C 2.23395 2.69608 1.96195 3.19474 1.19128 3.33074C 0.420612 3.42141 0.103281 3.0134 0.103281 3.0134L 0.239279 2.78674C 0.239279 2.78674 0.556613 3.14941 1.10061 3.10408C 1.68995 3.01341 1.82595 2.69607 1.78061 2.37874Z"/>
<path id="path15_fill" d="M 0.045332 0.68L -6.91732e-07 0L 0.271999 0L 0.498665 0L 0.634667 3.17333L 0.181333 3.21867L 0.045332 0.68Z"/>
<path id="path16_fill" d="M 0.0906653 0.498667C 0.045332 0.453333 0 0.362669 0 0.317336C 0 0.226669 -1.38481e-06 0.181336 0.0906653 0.0906694C 0.135999 0.0453361 0.181333 -2.76693e-06 0.271999 -2.76693e-06C 0.362666 -2.76693e-06 0.408 0 0.453333 0.0453333C 0.498667 0.0906667 0.543999 0.181333 0.543999 0.272C 0.543999 0.362667 0.543999 0.408 0.498666 0.498667C 0.453333 0.544 0.362665 0.589332 0.317332 0.589332C 0.181332 0.543999 0.135999 0.498667 0.0906653 0.498667Z"/>
<path id="path17_fill" d="M 0.498665 3.30933L 0.045332 3.30933L -6.91732e-07 0.136L 0.362667 0.136L 0.408 0.408C 0.453333 0.362667 0.679999 0.0453333 1.36 0C 1.94933 0 2.312 0.317333 2.35733 0.997333L 2.40267 3.21867L 1.94933 3.21867L 1.904 1.13333C 1.904 0.589333 1.632 0.362667 1.224 0.362667C 0.725335 0.362667 0.453333 0.68 0.453333 0.68L 0.498665 3.30933Z"/>
<path id="path18_fill" d="M 0.0641096 0.0906668C 0.109443 0.0453334 0.154778 -4.32332e-08 0.200111 -4.32332e-08L 0.245444 -4.32332e-08C 0.33611 -4.32332e-08 0.381444 -8.78175e-08 0.426778 0.0453333C 0.472111 0.0906666 0.517443 0.181333 0.517443 0.226667C 0.517443 0.317333 0.517444 0.362667 0.47211 0.453333C 0.426777 0.498667 0.33611 0.544 0.290776 0.544C 0.245443 0.544 0.154779 0.544 0.109446 0.498667C 0.0641124 0.453333 0.018777 0.362667 0.018777 0.317333C -0.0265563 0.226667 0.0187763 0.181333 0.0641096 0.0906668Z"/>
<path id="path19_fill" d="M 0.408001 3.21867L 6.91732e-07 0.0453334L 0.226667 0.0453334L 0.453334 -8.64665e-08L 0.861335 3.128L 0.408001 3.21867Z"/>
<path id="path20_fill" d="M 0.413836 0C 0.640502 0 0.821836 0.272001 0.821836 0.634667C 0.821836 0.997334 0.640502 1.26933 0.413836 1.26933C 0.187169 1.26933 0.00583482 0.997334 0.00583482 0.634667C -0.0394985 0.317334 0.187169 0 0.413836 0Z"/>
<path id="path21_fill" d="M 0 3.17334L 0.271999 2.76693e-06L 0.634667 0.045332L 0.68 0.408C 0.725333 0.362667 1.04267 0.0453347 1.632 0.0906681C 1.99467 0.136001 2.176 0.226668 2.26667 0.544001C 2.35733 0.453335 2.67467 0.181336 3.21867 0.226669C 3.672 0.272003 3.89867 0.498668 3.89867 0.997335C 3.89867 1.04267 3.89867 1.13333 3.89867 1.17867L 3.71733 3.49067L 3.264 3.44533L 3.44533 1.17867C 3.49067 0.679999 3.30933 0.543999 3.03733 0.498665C 2.62933 0.453332 2.35733 0.725331 2.312 0.815997C 2.312 0.906664 2.312 0.951997 2.312 1.04266L 2.13067 3.35467L 1.67733 3.30933L 1.85867 1.04266C 1.904 0.543997 1.768 0.407997 1.45067 0.362664C 1.04267 0.317331 0.770666 0.589333 0.725333 0.634667L 0.543999 3.21867L 0 3.17334Z"/>
<path id="path22_fill" d="M 0.952001 4.57867L -3.45866e-07 0.544L 2.176 -4.32332e-08L 2.26667 0.317333L 0.544 0.725333L 0.906666 2.35733L 2.40267 1.99467L 2.49333 2.26667L 0.997333 2.62933L 1.40533 4.488L 0.952001 4.57867Z"/>
<path id="path23_fill" d="M 0 3.08267L 0.861334 -2.76693e-06L 1.224 0.0906694L 1.17867 0.453331C 1.224 0.407997 1.632 0.136003 2.13067 0.317336C 2.448 0.408003 2.62933 0.589335 2.67467 0.861335C 2.76533 0.816001 3.128 0.589333 3.672 0.725333C 4.17067 0.861333 4.352 1.17866 4.17067 1.81333L 3.536 4.08L 3.08267 3.944L 3.672 1.72267C 3.808 1.224 3.672 1.088 3.4 0.997336C 2.992 0.906669 2.72 1.088 2.62933 1.13333C 2.62933 1.17866 2.584 1.26933 2.584 1.36L 1.94933 3.62666L 1.496 3.49067L 2.08533 1.26933C 2.22133 0.770665 2.08533 0.634669 1.81333 0.544003C 1.40533 0.453336 1.088 0.634664 1.04267 0.679997L 0.453333 3.21867L 0 3.08267Z"/>
<path id="path24_fill" d="M 0.408 0C 0.634666 0 0.861333 0.272001 0.861333 0.634667C 0.861333 0.952001 0.725333 1.17867 0.498667 1.26933C 0.453333 1.26933 0.453333 1.26933 0.408 1.26933C 0.181333 1.26933 6.91732e-07 0.997334 6.91732e-07 0.634667C 6.91732e-07 0.317334 0.181333 0 0.408 0Z"/>
<path id="path25_fill" d="M 0.791154 0.393215C 0.337821 0.619882 0.247154 1.07322 0.564487 1.84388L 1.92449 1.16388C 1.92449 1.16388 1.87915 1.11855 1.87915 1.07322C 1.56182 0.438549 1.19915 0.211882 0.791154 0.393215ZM 0.247154 2.25188C -0.20618 1.29988 -0.0248464 0.483882 0.700487 0.121215C 1.33515 -0.196118 1.96982 0.121215 2.37782 0.937215C 2.46849 1.11855 2.46849 1.20922 2.46849 1.20922L 0.745821 2.02522C 1.15382 2.84122 1.60715 3.02255 2.15115 2.79588C 2.64982 2.56921 2.69515 2.07055 2.69515 2.07055L 2.92182 2.11588C 2.92182 2.11588 2.87649 2.75055 2.19649 3.06788C 1.42582 3.47588 0.700487 3.24922 0.247154 2.25188Z"/>
<path id="path26_fill" d="M 0.211845 1.0902C 0.665179 0.138202 1.34518 -0.22446 2.11585 0.138206C 2.93185 0.500873 3.11318 1.27154 2.65985 2.22354C 2.20651 3.17554 1.52651 3.5382 0.755846 3.17554C -0.0148209 2.81287 -0.196155 2.0422 0.211845 1.0902ZM 0.665179 1.31687C 0.302512 2.13287 0.347845 2.67687 0.891845 2.90354C 1.43585 3.17554 1.88918 2.8582 2.25185 1.99687C 2.61451 1.18087 2.56918 0.636873 2.02518 0.364873C 1.48118 0.18354 1.07318 0.455535 0.665179 1.31687Z"/>
<path id="path27_fill" d="M 1.40533 1.54133C 1.40533 1.54133 1.45067 1.088 1.94933 0.725333C 2.448 0.408 2.94667 0.453334 3.30933 1.04267L 4.53333 2.90133L 4.17067 3.17333L 2.992 1.36C 2.72 0.906666 2.35733 0.861333 2.04 1.088C 1.58667 1.36 1.58667 1.768 1.58667 1.768L 3.03733 3.944L 2.62933 4.216L 3.45866e-07 0.272L 0.362667 -1.72933e-07L 1.40533 1.54133Z"/>
<path id="path28_fill" d="M 0.832999 3.87183C -0.119001 3.23716 -0.255 2.23983 0.425 1.15183C 1.15033 0.0184937 2.193 -0.298844 3.09967 0.290489C 3.64367 0.653156 3.91567 1.24249 3.91567 1.24249L 3.689 1.46916C 3.689 1.46916 3.417 0.879826 2.96367 0.562492C 2.28367 0.109159 1.513 0.38116 0.878334 1.37849C 0.243667 2.37583 0.334333 3.14649 1.05967 3.59982C 1.69433 4.00782 2.37433 3.69049 2.37433 3.69049L 2.41967 3.96249C 2.41967 4.00783 1.69433 4.41583 0.832999 3.87183Z"/>
<path id="path29_fill" d="M 32.8213 16.7733L 32.8213 17.68L 33.2293 17.68L 33.2293 18.36L 33.8187 18.36L 33.5013 32.4133C 33.5013 32.5493 33.6373 32.6853 33.8187 32.6853C 34 32.6853 34.1813 32.5493 34.1813 32.4133L 34.3173 18.36L 34.7253 18.36L 34.544 32.4133C 34.544 32.5493 34.68 32.6853 34.8613 32.6853C 35.0427 32.6853 35.224 32.5493 35.224 32.4133L 35.224 18.36L 35.632 18.36L 35.632 32.4133C 35.632 32.5493 35.768 32.6853 35.9947 32.6853C 36.176 32.6853 36.3573 32.5493 36.312 32.4133L 36.1307 18.36L 36.5387 18.36L 36.6747 32.4133C 36.6747 32.5493 36.856 32.6853 37.0373 32.6853C 37.2187 32.6853 37.4 32.5493 37.3547 32.4133L 37.0827 18.36L 37.672 18.36L 37.672 17.68L 38.08 17.68L 38.08 16.7733L 32.8213 16.7733ZM 37.7627 32.7307L 33.048 32.7307L 33.048 33.1387L 32.8213 33.1387L 32.8213 33.8187L 38.0347 33.8187L 38.0347 33.184L 37.7627 33.184L 37.7627 32.7307ZM 25.3413 33.1387L 25.3413 33.8187L 30.5547 33.8187L 30.5547 33.184L 30.2827 33.184L 30.2827 32.776L 25.568 32.776L 25.568 33.184L 25.3413 33.184L 25.3413 33.1387ZM 25.3413 16.7733L 25.3413 17.68L 25.7493 17.68L 25.7493 18.36L 26.3387 18.36L 26.0667 32.4133C 26.0667 32.5493 26.2027 32.6853 26.384 32.6853C 26.5653 32.6853 26.7467 32.5493 26.7467 32.4133L 26.8827 18.36L 27.2907 18.36L 27.1093 32.4133C 27.1093 32.5493 27.2453 32.6853 27.4267 32.6853C 27.608 32.6853 27.7893 32.5493 27.7893 32.4133L 27.7893 18.36L 28.1973 18.36L 28.1973 32.4133C 28.1973 32.5493 28.3333 32.6853 28.56 32.6853C 28.7413 32.6853 28.9227 32.5493 28.8773 32.4133L 28.696 18.36L 29.104 18.36L 29.24 32.4133C 29.24 32.5493 29.4213 32.6853 29.6027 32.6853C 29.784 32.6853 29.9653 32.5493 29.92 32.4133L 29.648 18.36L 30.2373 18.36L 30.2373 17.68L 30.6453 17.68L 30.6453 16.7733L 25.3413 16.7733ZM 22.848 32.7307L 18.1333 32.7307L 18.1333 33.1387L 17.8613 33.1387L 17.8613 33.8187L 23.0747 33.8187L 23.0747 33.184L 22.848 33.184L 22.848 32.7307ZM 18.3147 18.3147L 18.904 18.3147L 18.632 32.368C 18.632 32.504 18.768 32.64 18.9947 32.64C 19.176 32.64 19.3573 32.504 19.3573 32.368L 19.4933 18.3147L 19.9013 18.3147L 19.72 32.368C 19.72 32.504 19.856 32.64 20.0373 32.64C 20.2187 32.64 20.4 32.504 20.4 32.368L 20.4 18.3147L 20.808 18.3147L 20.808 32.368C 20.808 32.504 20.944 32.64 21.1707 32.64C 21.352 32.64 21.488 32.504 21.488 32.368L 21.3067 18.3147L 21.7147 18.3147L 21.8507 32.368C 21.8507 32.504 22.032 32.64 22.2133 32.64C 22.3947 32.64 22.576 32.504 22.5307 32.368L 22.2587 18.3147L 22.848 18.3147L 22.848 17.6347L 23.256 17.6347L 23.256 16.728L 17.9067 16.728L 17.9067 17.6347L 18.3147 17.6347L 18.3147 18.3147ZM 9.248 14.2347L 39.168 14.2347L 39.168 13.7813L 9.248 13.7813L 9.248 14.2347ZM 10.472 33.8187L 15.6853 33.8187L 15.6853 33.184L 15.4133 33.184L 15.4133 32.776L 10.744 32.776L 10.744 33.184L 10.472 33.184L 10.472 33.8187ZM 9.928 16.32L 13.0107 16.32L 13.1013 16.32L 20.536 16.32L 28.0613 16.32L 35.5413 16.32L 38.488 16.32L 38.488 14.5067L 35.5413 14.5067L 28.016 14.5067L 20.536 14.5067L 13.0107 14.5067L 9.928 14.5067L 9.928 16.32ZM 10.472 17.68L 10.88 17.68L 10.88 18.36L 11.4693 18.36L 11.1973 32.4133C 11.1973 32.5493 11.3333 32.6853 11.5147 32.6853C 11.696 32.6853 11.8773 32.5493 11.8773 32.4133L 12.0133 18.36L 12.4213 18.36L 12.24 32.4133C 12.24 32.5493 12.376 32.6853 12.5573 32.6853C 12.7387 32.6853 12.92 32.5493 12.92 32.4133L 12.92 18.36L 13.328 18.36L 13.328 32.4133C 13.328 32.5493 13.464 32.6853 13.6907 32.6853C 13.872 32.6853 14.0533 32.5493 14.008 32.4133L 13.8267 18.36L 14.2347 18.36L 14.3707 32.4133C 14.3707 32.5493 14.552 32.6853 14.7333 32.6853C 14.9147 32.6853 15.096 32.5493 15.0507 32.4133L 14.7787 18.36L 15.368 18.36L 15.368 17.68L 15.776 17.68L 15.776 16.7733L 10.472 16.7733L 10.472 17.68ZM 7.16267 13.5093L 41.2987 13.5093L 24.3893 5.62133L 7.16267 13.5093ZM 8.52267 34.952L 39.8933 34.952L 39.8933 34.0453L 8.52267 34.0453L 8.52267 34.952ZM 1.72933e-07 24.2533C 1.72933e-07 11.7867 9.384 1.54133 21.488 0.181333C 22.3947 0.0906663 23.3013 -1.72933e-07 24.2533 -1.72933e-07C 37.6267 -1.72933e-07 48.5067 10.8347 48.5067 24.2533C 48.5067 37.3547 38.08 48.0533 25.0693 48.4613C 24.7973 48.4613 24.5253 48.4613 24.2533 48.4613C 10.8347 48.4613 1.72933e-07 37.6267 1.72933e-07 24.2533ZM 7.072 36.312L 41.3893 36.312L 41.3893 35.1333L 7.072 35.1333L 7.072 36.312Z"/>
<path id="path30_fill" d="M 3.62667 4.17067L 1.088 1.31467L 0.181333 2.08533L 3.45866e-07 1.85867L 2.13067 0L 2.312 0.226667L 1.45067 0.997334L 3.98933 3.85333L 3.62667 4.17067Z"/>
<path id="path31_fill" d="M 0.68 34C 0.68 50.728 13.1013 64.6453 29.1947 66.9573C 30.7813 67.184 32.368 67.32 34 67.32C 52.36 67.32 67.32 52.36 67.32 34C 67.32 15.64 52.36 0.68 34 0.68C 32.776 0.68 31.552 0.725333 30.3733 0.861333C 13.6907 2.67467 0.68 16.864 0.68 34ZM 34 68C 15.232 68 0 52.7227 0 34C 0 15.2773 15.2773 0 34 0C 52.768 0 68 15.2773 68 34C 68 52.768 52.768 68 34 68Z"/>
</defs>
</svg>
