<svg width="86" height="75" viewBox="0 0 86 75" version="1.1" xmlns="http://www.w3.org/2000/svg" xmlns:xlink="http://www.w3.org/1999/xlink">
<g id="Canvas" fill="none">
<g id="Group">
<g id="Group_2">
<g id="Group_3">
<g id="Group_4">
<g id="Vector">
<path d="M 21.9629 33.953L 20.548 28.9365C 19.2561 24.4094 16.0569 20.6777 11.812 18.72L 8.30533 17.0683C 6.21362 16.0894 4.67559 14.3153 4.06038 12.1129L 2.33776 6.11765L 2.46085 5.13884C 2.70693 3.12002 1.78411 1.16234 0.0615209 0.0611616L 1.50197e-05 0" stroke-width="2" stroke-miterlimit="10" stroke-linecap="round" transform="translate(17.8109 25.7529)" stroke="#F2994A"/>
</g>
<g id="Vector_2">
<path d="M 20.3634 8.38887C 20.1174 8.45005 19.8712 8.45003 19.6251 8.45003C 15.5648 8.81709 11.6274 6.98179 9.10509 3.73943C 3.93734 -2.86763 -3.00395e-05 1.29237 -3.00395e-05 1.29237C -3.00395e-05 1.29237 4.24497 6.37002 7.13645 11.3865C 9.22816 14.9347 12.5502 17.6877 16.6106 18.6665C 16.8567 18.7277 17.1028 18.7889 17.3489 18.85C 19.9943 19.4006 22.2091 21.1136 23.4395 23.4383" stroke-width="2" stroke-miterlimit="10" stroke-linecap="round" transform="translate(2 41.3452)" stroke="#F2994A"/>
</g>
<g id="Vector_3">
<path d="M 1.78411 23.7977L -1.50197e-05 15.7835L 5.16775 7.46784e-06C 5.16775 7.46784e-06 8.12074 0.734111 7.38249 5.26117L 5.04474 15.5388L 6.64427 22.0236" stroke-width="2" stroke-miterlimit="10" stroke-linecap="round" transform="translate(4.0918 17.6164)" stroke="#F2994A"/>
</g>
<g id="Vector_4">
<path d="M -1.50197e-05 4.28236L 1.415 0C 1.415 0 5.22927 1.40705 3.93734 6.4847L 1.78411 17.6188L 3.50672 23.6141" stroke-width="2" stroke-miterlimit="10" stroke-linecap="round" transform="translate(11.1666 15.047)" stroke="#F2994A"/>
</g>
<g id="Vector_5">
<path d="M 1.50197e-05 0L 0.184533 0.122361C 1.96864 1.46824 2.8915 3.67058 2.46085 5.87293L 1.23043 12.48L 3.01455 18.5977" stroke-width="2" stroke-miterlimit="10" stroke-linecap="round" transform="translate(15.3501 19.3294)" stroke="#F2994A"/>
</g>
</g>
<g id="Vector_6">
<path d="M 15.3187 10.4612L 3.26059 14.1929L 3.00395e-05 6.11765L 17.1028 0L 17.1028 4.0988" stroke-width="2" stroke-miterlimit="10" stroke-linecap="round" stroke-linejoin="round" transform="translate(22.671 59.7059)" stroke="#F2994A"/>
</g>
<g id="Vector_7">
<path d="M -1.50197e-05 5.50586L 15.6878 -2.98714e-05" stroke-width="2" stroke-miterlimit="10" stroke-linecap="round" transform="translate(24.0859 63.8047)" stroke="#F2994A"/>
</g>
</g>
</g>
<g id="Group_5">
<g id="Group_6">
<g id="Vector_8">
<path d="M -1.50197e-05 33.953L 1.415 28.9365C 2.70693 24.4094 5.90599 20.6777 10.1509 18.72L 13.6577 17.0683C 15.7494 16.0894 17.2873 14.3153 17.9025 12.1129L 19.6252 6.11765L 19.5021 5.13884C 19.2561 3.12002 20.1788 1.16234 21.9014 0.0611616L 21.963 0" stroke-width="2" stroke-miterlimit="10" stroke-linecap="round" transform="translate(46.5411 25.7529)" stroke="#F2994A"/>
</g>
<g id="Vector_9">
<path d="M 3.07607 8.38887C 3.32216 8.45005 3.56821 8.45003 3.81429 8.45003C 7.87467 8.81709 11.812 6.98179 14.3343 3.73943C 19.5021 -2.86763 23.4395 1.29237 23.4395 1.29237C 23.4395 1.29237 19.1945 6.37002 16.3031 11.3865C 14.2114 14.9347 10.8892 17.6877 6.82883 18.6665C 6.58275 18.7277 6.33662 18.7889 6.09054 18.85C 3.44514 19.4006 1.23045 21.1136 3.00395e-05 23.4383" stroke-width="2" stroke-miterlimit="10" stroke-linecap="round" transform="translate(60.814 41.3452)" stroke="#F2994A"/>
</g>
<g id="Vector_10">
<path d="M 5.71685 23.7977L 7.50097 15.7835L 2.33321 7.46784e-06C 2.33321 7.46784e-06 -0.619781 0.734111 0.11847 5.26117L 2.45629 15.5388L 0.856765 22.0236" stroke-width="2" stroke-miterlimit="10" stroke-linecap="round" transform="translate(74.7222 17.6164)" stroke="#F2994A"/>
</g>
<g id="Vector_11">
<path d="M 4.20443 4.28236L 2.7895 0C 2.7895 0 -1.02486 1.40705 0.267083 6.4847L 2.42031 17.6188L 0.697774 23.6141" stroke-width="2" stroke-miterlimit="10" stroke-linecap="round" transform="translate(70.944 15.047)" stroke="#F2994A"/>
</g>
<g id="Vector_12">
<path d="M 3.01455 0L 2.82996 0.122361C 1.04585 1.46824 0.123072 3.67058 0.553718 5.87293L 1.78414 12.48L 1.50197e-05 18.5977" stroke-width="2" stroke-miterlimit="10" stroke-linecap="round" transform="translate(67.9504 19.3294)" stroke="#F2994A"/>
</g>
</g>
<g id="Vector_13">
<path d="M 1.7226 10.4612L 13.8422 14.1929L 17.1028 6.11765L -1.50197e-05 0L -1.50197e-05 4.0988" stroke-width="2" stroke-miterlimit="10" stroke-linecap="round" stroke-linejoin="round" transform="translate(46.5411 59.7059)" stroke="#F2994A"/>
</g>
<g id="Vector_14">
<path d="M 15.6878 5.50586L -1.50197e-05 -2.98714e-05" stroke-width="2" stroke-miterlimit="10" stroke-linecap="round" transform="translate(46.5411 63.8047)" stroke="#F2994A"/>
</g>
</g>
<g id="Group_7">
<g id="Vector_15">
<path d="M 8.36684 5.50589L 8.36684 5.26117C 8.36684 3.18116 6.89035 1.46825 4.92168 1.16237L 4.92168 0L 3.44517 0L 3.44517 1.10117C 1.4765 1.46823 1.50197e-05 3.18118 1.50197e-05 5.20001C 1.50197e-05 6.97413 1.16891 8.50352 3.07606 9.23764C 3.32214 9.36 3.56818 9.42119 3.87578 9.48236C 4.30643 9.60472 4.79866 9.78824 5.16778 9.97177C 6.27516 10.5224 6.95183 11.3789 6.95183 12.48C 6.95183 13.9483 5.72147 15.1718 4.24497 15.1718C 2.76847 15.1718 1.53804 14.0094 1.53804 12.5412L 1.53804 12.2965L 0.0615209 12.2965L 0.0615209 12.5412C 0.0615209 14.56 1.59953 16.2729 3.50667 16.5788L 3.50667 17.68L 4.98319 17.68L 4.98319 16.5788C 6.95186 16.2118 8.42834 14.4989 8.42834 12.48C 8.42834 11.5624 8.12076 10.7059 7.44403 9.84941C 6.82882 9.05411 5.90603 8.68708 5.16778 8.38119C 4.98322 8.32002 4.73714 8.25885 4.55257 8.19767C 3.87584 7.95296 3.13755 7.70824 2.58386 7.34118C 1.96865 6.85177 1.53804 6.05646 1.53804 5.26117C 1.53804 3.79293 2.76847 2.56942 4.24497 2.56942C 5.72147 2.56942 6.95183 3.79293 6.95183 5.26117L 6.95183 5.50589L 8.36684 5.50589Z" transform="translate(39.3433 10.4588)" fill="#F2994A"/>
</g>
<g id="Vector_16">
<path d="M 35.878 18.0114C 35.878 27.9588 27.8464 36.0228 17.939 36.0228C 8.03156 36.0228 2.98952e-05 27.9588 2.98952e-05 18.0114C 2.98952e-05 8.06397 8.03156 7.50395e-06 17.939 7.50395e-06C 27.8464 7.50395e-06 35.878 8.06397 35.878 18.0114Z" stroke-width="2" stroke-miterlimit="10" transform="matrix(0.377715 -0.925862 0.927332 0.374091 19.9554 29.2181)" stroke="#F2994A"/>
</g>
<g id="Vector_17">
<path d="M 27.3153 13.5812C 27.3153 21.0819 21.2005 27.1624 13.6576 27.1624C 6.11472 27.1624 1.50197e-05 21.0819 1.50197e-05 13.5812C 1.50197e-05 6.08051 6.11472 -7.46784e-06 13.6576 -7.46784e-06C 21.2005 -7.46784e-06 27.3153 6.08051 27.3153 13.5812Z" stroke-width="2" stroke-miterlimit="10" transform="translate(29.8075 5.74817)" stroke="#F2994A"/>
</g>
</g>
</g>
</g>
</svg>

