<svg width="70" height="82" viewBox="0 0 70 82" version="1.1" xmlns="http://www.w3.org/2000/svg" xmlns:xlink="http://www.w3.org/1999/xlink">
<g id="Canvas" fill="none">
<g id="Group">
<g id="Vector">
<path d="M 1.50197e-05 15.1106C 1.04587 17.5577 3.44515 19.2094 6.27511 19.2094C 7.75161 19.2094 9.16659 18.72 10.274 17.9247C 10.8892 18.72 11.8735 19.2094 12.9809 19.2094C 14.1498 19.2094 15.1956 18.5977 15.8724 17.7412C 16.9182 18.6588 18.2102 19.2094 19.6867 19.2094C 22.8243 19.2094 25.4081 16.64 25.4081 13.52C 25.4081 10.8894 23.624 8.68704 21.1632 8.0141C 21.1632 7.89174 21.2247 7.70824 21.2247 7.58589C 21.2247 5.62824 19.6251 4.09886 17.718 4.09886C 17.4104 4.09886 17.1028 4.16001 16.7952 4.22118L 16.7952 4.16002C 16.7952 2.26355 15.2572 0.734148 13.35 0.734148C 12.3042 0.734148 11.3814 1.22356 10.7662 1.95768C 10.0279 0.795325 8.67443 -1.49357e-05 7.19793 -1.49357e-05C 7.07489 -1.49357e-05 6.95186 -1.49357e-05 6.82882 -1.49357e-05" stroke-width="2" stroke-miterlimit="10" transform="translate(42.8956 59.7906)" stroke="#F2994A"/>
</g>
<g id="Vector_2">
<path d="M 18.6408 -1.49357e-05C 18.5178 -1.49357e-05 18.3332 -1.49357e-05 18.2102 -1.49357e-05C 16.7337 -1.49357e-05 15.3802 0.795325 14.642 1.95768C 14.0267 1.22356 13.104 0.734148 12.0581 0.734148C 10.151 0.734148 8.61295 2.26355 8.61295 4.16002L 8.61295 4.22118C 8.30535 4.16001 7.99774 4.09886 7.69014 4.09886C 5.72147 4.09886 4.1834 5.68942 4.1834 7.58589C 4.1834 7.70824 4.18339 7.89174 4.24491 8.0141C 1.78408 8.62586 3.00395e-05 10.8894 3.00395e-05 13.52C 3.00395e-05 16.64 2.58386 19.2094 5.72143 19.2094C 7.19793 19.2094 8.55143 18.6588 9.53576 17.7412C 10.151 18.6588 11.1968 19.2094 12.4272 19.2094C 13.5346 19.2094 14.5189 18.72 15.1341 17.9247C 16.2415 18.72 17.6565 19.2094 19.133 19.2094C 21.963 19.2094 24.3622 17.4965 25.4081 15.0494" stroke-width="2" stroke-miterlimit="10" transform="translate(0.999878 59.7906)" stroke="#F2994A"/>
</g>
<g id="Vector_3">
<path d="M 6.32983 -1.49357e-05L 2.26947 4.52706C 0.0547153 7.0353 -0.622059 10.5224 0.608358 13.6424C 2.02334 17.313 4.42265 22.513 7.99086 28.0189L 6.69894 16.3342C 6.39133 13.7036 7.92934 11.1953 10.4517 10.2777C 10.5132 10.2777 10.5133 10.2777 10.5748 10.2165L 6.32983 -1.49357e-05Z" stroke-width="2" stroke-miterlimit="10" transform="translate(19.6475 48.7788)" stroke="#F2994A"/>
</g>
<g id="Vector_4">
<path d="M 1.72258 28.5083C 5.5984 11.9906 1.72258 2.98714e-05 1.72258 2.98714e-05C 1.72258 2.98714e-05 -2.15323 11.9906 1.72258 28.5083Z" stroke-width="2" stroke-miterlimit="10" transform="translate(32.9291 48.2894)" stroke="#F2994A"/>
</g>
<g id="Vector_5">
<path d="M 2.82993 0.79528C 2.82993 0.79528 1.04584 0.672972 -1.50197e-05 2.98714e-05" stroke-width="2" stroke-miterlimit="10" transform="translate(30.0991 58.9953)" stroke="#F2994A"/>
</g>
<g id="Vector_6">
<path d="M 4.24492 -1.49357e-05L 8.30529 4.52706C 10.52 7.0353 11.1968 10.5224 9.96639 13.6424C 8.55141 17.313 6.1521 22.513 2.58389 28.0189L 3.87581 16.3342C 4.18342 13.7036 2.64541 11.1953 0.123057 10.2777C 0.0615359 10.2777 0.0614908 10.2777 -3.00395e-05 10.2165L 4.24492 -1.49357e-05Z" stroke-width="2" stroke-miterlimit="10" transform="translate(39.0813 48.7788)" stroke="#F2994A"/>
</g>
<g id="Vector_7">
<path d="M 3.00395e-05 0.79528C 3.00395e-05 0.79528 1.78412 0.672972 2.82997 2.98714e-05" stroke-width="2" stroke-miterlimit="10" transform="translate(36.3744 58.9953)" stroke="#F2994A"/>
</g>
<g id="Vector_8">
<path d="M 2.33109 46.6165C 2.33109 46.6165 -6.77402 18.9647 11.0055 1.49357e-05C 16.973 6.36238 19.8645 13.6424 21.1565 20.6165C 21.1565 20.6165 23.3097 30.4048 21.1565 40.0707C 20.1721 44.6589 19.6799 46.6165 19.6799 46.6165" stroke-width="2" stroke-miterlimit="10" transform="translate(23.6462 2.16229)" stroke="#F2994A"/>
</g>
<g id="Vector_9">
<path d="M 15.1342 -1.49357e-05C 15.1342 -1.49357e-05 12.3657 1.16235 7.56707 1.16235C 2.76844 1.16235 -3.00395e-05 -1.49357e-05 -3.00395e-05 -1.49357e-05" stroke-width="2" stroke-miterlimit="10" transform="translate(27.0847 13.2964)" stroke="#F2994A"/>
</g>
<g id="Vector_10">
<path d="M 10.5816 5.26115C 10.5816 8.16682 8.21282 10.5224 5.29079 10.5224C 2.36877 10.5224 1.50197e-05 8.16682 1.50197e-05 5.26115C 1.50197e-05 2.35548 2.36877 -1.49357e-05 5.29079 -1.49357e-05C 8.21282 -1.49357e-05 10.5816 2.35548 10.5816 5.26115Z" stroke-width="2" stroke-miterlimit="10" transform="translate(29.361 24.3082)" stroke="#F2994A"/>
</g>
</g>
</g>
</svg>

