<?xml version="1.0" encoding="UTF-8"?>
<svg width="65px" height="65px" viewBox="0 0 65 65" version="1.1" xmlns="http://www.w3.org/2000/svg" xmlns:xlink="http://www.w3.org/1999/xlink">
    <!-- Generator: Sketch 47.1 (45422) - http://www.bohemiancoding.com/sketch -->
    <title>icon</title>
    <desc>Created with Sketch.</desc>
    <defs>
        <linearGradient x1="0%" y1="0%" x2="100%" y2="59.6518555%" id="linearGradient-1">
            <stop stop-color="#36ABEF" offset="0%"></stop>
            <stop stop-color="#2279CD" offset="100%"></stop>
        </linearGradient>
    </defs>
    <g id="jetskills-landing" stroke="none" stroke-width="1" fill="none" fill-rule="evenodd">
        <g transform="translate(-521.000000, -3227.000000)" id="what-in-return">
            <g transform="translate(175.000000, 2886.000000)">
                <g id="2" transform="translate(320.000000, 315.000000)">
                    <g id="icon" transform="translate(26.000000, 26.000000)">
                        <g id="megaphone">
                            <polygon id="Path-11" fill-opacity="0.3" fill="url(#linearGradient-1)" points="21.4208984 15.050293 46.5942383 39.7646484 32.9116211 43.7172852 20.152832 56.0209961 5.38623047 41.1252441 13.6425781 32.5761719"></polygon>
                            <path d="M21.3280854,13.3687561 C21.016561,13.0573902 20.5477683,12.9638537 20.1435,13.1371341 C19.7371707,13.307561 19.4752683,13.7075488 19.4808171,14.1473293 C19.4820854,14.2617927 19.5272683,25.6312439 12.2976829,32.859561 L4.64528049,40.5138659 C4.64528049,40.5138659 4.6440122,40.5145 4.6427439,40.5145 C4.64210976,40.5145 4.64210976,40.5170366 4.64210976,40.5170366 L1.58536585,43.5731463 C0.562963415,44.5955488 0,45.9542073 0,47.3991098 C0,48.845122 0.562963415,50.2044146 1.58536585,51.2261829 L2.35078049,51.991122 C1.94143902,52.4004634 1.71663415,52.9434512 1.71663415,53.5225854 C1.71663415,54.1002927 1.94143902,54.6440732 2.35078049,55.0527805 L6.1767439,58.8800122 C7.01952439,59.7215244 8.39435366,59.7227927 9.23729268,58.8787439 L10.0027073,59.6435244 C11.0238415,60.666561 12.3831341,61.2295244 13.8291463,61.2295244 C15.2753171,61.2295244 16.6333415,60.666561 17.6551098,59.6435244 L19.9515122,57.3485488 L26.9704024,64.3668049 C27.3927439,64.7891463 27.9463537,64.9996829 28.5005976,64.9996829 C29.055,64.9996829 29.6092439,64.7891463 30.0309512,64.3668049 L32.0094878,62.3882683 C32.8535366,61.544061 32.8535366,60.1705 32.0094878,59.3264512 L29.8451463,57.1621098 C30.0755,56.6654146 30.3034756,55.9897317 30.3034756,55.2603049 C30.3034756,54.6632561 29.8197805,54.1782927 29.2214634,54.1782927 L25.9300854,54.1782927 C25.3317683,54.1782927 24.8480732,54.6632561 24.8480732,55.2603049 C24.8480732,55.8578293 25.3317683,56.3427927 25.9300854,56.3427927 L27.8380732,56.3427927 C27.7537317,56.5117927 27.6714512,56.6449634 27.6218293,56.7180488 C27.3122073,57.1491098 27.3611951,57.7385488 27.7351829,58.1133293 L30.4792927,60.8579146 L28.5005976,62.8366098 L20.7169268,55.0527805 C20.3105976,54.6466098 19.591,54.6466098 19.1854634,55.0527805 L16.1249146,58.1133293 C14.8992683,59.3394512 12.7585488,59.3394512 11.5322683,58.1133293 L10.0020732,56.5829756 C9.58036585,56.1606341 8.89469512,56.1606341 8.47187805,56.5829756 L7.70693902,57.3479146 L3.88097561,53.5225854 L4.64591463,52.7559024 C5.06952439,52.3329268 5.06952439,51.6480488 4.64591463,51.2255488 L3.11556098,49.6953537 C2.50186585,49.0816585 2.16434146,48.266622 2.16434146,47.3991098 C2.16434146,46.5320732 2.50186585,45.7170366 3.11556098,45.1033415 L5.41434146,42.804561 L16.5547073,53.8643902 C16.7646098,54.0730244 17.0401463,54.1782927 17.3164756,54.1782927 C17.5943902,54.1782927 17.8737317,54.0712805 18.0849024,53.8588415 C18.5059756,53.4333293 18.5035976,52.7484512 18.0780854,52.3284878 L6.94406098,41.2743659 L13.8286707,34.3897561 C19.6325366,28.5876341 21.1305488,20.620061 21.5145244,16.6157439 L44.1598902,39.2604756 C41.9576585,39.574378 38.4643049,40.3076098 34.7889512,41.9822317 L21.7009634,28.8929756 C21.2773537,28.47 20.5924756,28.47 20.1706098,28.8929756 C19.7471585,29.3153171 19.7471585,30.0003537 20.1706098,30.4233293 L32.7482683,43.0014634 C30.7115488,44.1237439 28.6802195,45.5578659 26.8391341,47.400378 L22.2483902,51.991122 C21.8254146,52.4140976 21.8254146,53.0989756 22.2483902,53.5225854 C22.6707317,53.9442927 23.3556098,53.9442927 23.7785854,53.5225854 L28.3693293,48.9305732 C35.6168293,41.682439 46.4697683,41.1944634 46.576939,41.1908171 C47.0073659,41.173378 47.3875366,40.9040244 47.545439,40.5040366 C47.7022317,40.1032561 47.6067927,39.6474634 47.3027195,39.3433902 L21.3280854,13.3687561 Z" id="Fill-1" fill="#227ACD"></path>
                            <path d="M35.7041829,13.062939 C35.1060244,13.062939 34.6223293,13.5464756 34.6223293,14.1447927 C34.6223293,14.7423171 35.1060244,15.2272805 35.7041829,15.2272805 C38.1231341,15.2272805 42.6742439,15.7196951 45.9775122,19.023439 C49.2801463,22.3279756 49.7736707,26.8778171 49.7736707,29.2967683 C49.7736707,29.8938171 50.2573659,30.378622 50.8561585,30.378622 C51.4544756,30.378622 51.9380122,29.8938171 51.9380122,29.2967683 C51.9380122,26.5434634 51.3626829,21.3494878 47.5077073,17.4919756 C43.6527317,13.6382683 38.4574878,13.062939 35.7041829,13.062939 Z" id="Fill-3" fill="#227ACD"></path>
                            <path d="M56.6910976,8.30921951 C51.2352195,2.85460976 43.5745732,-0.156317073 35.6739024,0.075304878 C35.0768537,0.0925853659 34.6067927,0.59054878 34.6223293,1.18807317 C34.6402439,1.78512195 35.1288537,2.26691463 35.7357317,2.2390122 C43.0247683,2.03957317 50.123561,4.80476829 55.1602683,9.83957317 C60.1949146,14.8742195 62.9669268,21.9557317 62.7613049,29.2664878 C62.7464024,29.8640122 63.2158293,30.3619756 63.8135122,30.3779878 C63.8239756,30.3792561 63.8339634,30.3792561 63.8444268,30.3792561 C64.4278415,30.3792561 64.9096341,29.9136341 64.9256463,29.3272073 C65.1468049,21.4232073 62.1457073,13.7627195 56.6910976,8.30921951 Z" id="Fill-4" fill="#227ACD"></path>
                            <path d="M36.0677073,6.56595122 C35.942622,6.56595122 35.8143659,6.56721951 35.6880122,6.56912195 C35.0904878,6.57895122 34.6123415,7.07009756 34.6223293,7.66762195 C34.6315244,8.2597561 35.1133171,8.73346341 35.7041829,8.73346341 L35.7214634,8.73346341 C41.4157805,8.6207439 46.8592927,10.722622 50.5695244,14.4315854 C54.3595,18.223939 56.4383902,23.6303537 56.2674878,29.2633171 C56.2502073,29.8616341 56.7201098,30.3607073 57.3171585,30.3779878 C57.3295244,30.3792561 57.3401463,30.3792561 57.3512439,30.3792561 C57.9333902,30.3792561 58.4151829,29.9160122 58.4324634,29.3289512 C58.6195366,23.1021098 56.3107683,17.1135488 52.0997195,12.9012317 C48.0595732,8.86346341 42.2357317,6.56595122 36.0677073,6.56595122 Z" id="Fill-6" fill="#227ACD"></path>
                        </g>
                    </g>
                </g>
            </g>
        </g>
    </g>
</svg>