<svg width="61" height="44" viewBox="0 0 61 44" version="1.1" xmlns="http://www.w3.org/2000/svg" xmlns:xlink="http://www.w3.org/1999/xlink">
<title>Group</title>
<desc>Created using Figma</desc>
<g id="Canvas" transform="translate(-1458 -1578)">
<g id="Group">
<g id="Group">
<g id="Vector">
<use xlink:href="#path0_stroke" transform="translate(1473.75 1613.13)" fill="#FFFFFF"/>
</g>
<g id="Vector">
<use xlink:href="#path1_stroke" transform="translate(1483.88 1609.59)" fill="#FFFFFF"/>
</g>
<g id="Vector">
<use xlink:href="#path2_stroke" transform="translate(1459 1607.11)" fill="#FFFFFF"/>
</g>
<g id="Vector">
<use xlink:href="#path3_stroke" transform="translate(1459 1579)" fill="#FFFFFF"/>
</g>
</g>
<g id="XMLID 252">
<use xlink:href="#path4_stroke" transform="translate(1503.15 1615.62)" fill="#FFFFFF"/>
</g>
<g id="XMLID 251">
<use xlink:href="#path5_stroke" transform="translate(1501.47 1594.09)" fill="#FFFFFF"/>
</g>
<g id="XMLID 250">
<use xlink:href="#path6_stroke" transform="translate(1509.36 1617.92)" fill="#FFFFFF"/>
</g>
<g id="XMLID 249">
<use xlink:href="#path7_stroke" transform="translate(1508.1 1596.8)" fill="#FFFFFF"/>
</g>
<g id="Vector">
<use xlink:href="#path8_stroke" transform="translate(1493.26 1587)" fill="#FFFFFF"/>
</g>
<g id="Vector">
<use xlink:href="#path9_stroke" transform="translate(1487.29 1593.17)" fill="#FFFFFF"/>
</g>
<g id="Vector">
<use xlink:href="#path10_stroke" transform="translate(1480.89 1593.17)" fill="#FFFFFF"/>
</g>
<g id="Vector">
<use xlink:href="#path11_stroke" transform="translate(1475.2 1593.21)" fill="#FFFFFF"/>
</g>
<g id="Vector">
<use xlink:href="#path12_stroke" transform="translate(1469.13 1593.12)" fill="#FFFFFF"/>
</g>
<g id="Vector">
<use xlink:href="#path13_stroke" transform="translate(1471.23 1589.49)" fill="#FFFFFF"/>
</g>
<g id="Vector">
<use xlink:href="#path14_stroke" transform="translate(1477.16 1596.07)" fill="#FFFFFF"/>
</g>
<g id="Vector">
<use xlink:href="#path15_stroke" transform="translate(1483.41 1589.49)" fill="#FFFFFF"/>
</g>
<g id="Vector">
<use xlink:href="#path16_stroke" transform="translate(1489.39 1595.56)" fill="#FFFFFF"/>
</g>
<g id="Vector">
<use xlink:href="#path17_stroke" transform="translate(1499.61 1583.23)" fill="#FFFFFF"/>
</g>
<g id="Vector">
<use xlink:href="#path18_stroke" transform="translate(1465.35 1596.07)" fill="#FFFFFF"/>
</g>
</g>
</g>
<defs>
<path id="path0_stroke" d="M 18.0613 2.2462e-05L 18.5587 0.0505069C 18.573 -0.0901632 18.5271 -0.230301 18.4323 -0.335207C 18.3375 -0.440113 18.2027 -0.499978 18.0613 -0.499978L 18.0613 2.2462e-05ZM 18.2479 3.68019L 17.7579 3.77963L 18.2479 3.68019ZM 21.1418 7.13036L 21.3819 6.69179C 21.3774 6.6893 21.3728 6.68688 21.3681 6.68453L 21.1418 7.13036ZM 0.231444 7.13036L 0.00508634 6.68453C 0.000457202 6.68688 -0.00413505 6.6893 -0.00868874 6.69179L 0.231444 7.13036ZM 3.12528 3.68019L 2.63525 3.58076L 2.63465 3.58385L 3.12528 3.68019ZM 3.31193 2.2462e-05L 3.31193 -0.499978C 3.17054 -0.499978 3.03575 -0.440113 2.94096 -0.335207C 2.84616 -0.230301 2.80021 -0.0901632 2.81449 0.0505069L 3.31193 2.2462e-05ZM 10.6399 0.500022L 18.0613 0.500022L 18.0613 -0.499978L 10.6399 -0.499978L 10.6399 0.500022ZM 18.0613 2.2462e-05C 17.5639 -0.050462 17.5638 -0.0503817 17.5638 -0.0502944C 17.5638 -0.050256 17.5638 -0.0501615 17.5638 -0.0500845C 17.5638 -0.0499305 17.5638 -0.0497483 17.5638 -0.0495381C 17.5637 -0.0491175 17.5637 -0.0485848 17.5636 -0.0479407C 17.5635 -0.0466525 17.5633 -0.0449187 17.5631 -0.0427464C 17.5627 -0.0384021 17.5621 -0.032303 17.5614 -0.0245058C 17.5599 -0.00891243 17.558 0.0134799 17.5556 0.0422191C 17.551 0.0996866 17.5449 0.1826 17.5388 0.287336C 17.5266 0.496675 17.5146 0.793954 17.5146 1.15007C 17.5146 1.85948 17.5623 2.8155 17.7579 3.77963L 18.738 3.58076C 18.5602 2.7048 18.5146 1.82074 18.5146 1.15008C 18.5146 0.816166 18.5259 0.538418 18.5371 0.345239C 18.5427 0.248715 18.5483 0.173496 18.5524 0.123146C 18.5544 0.0979765 18.5561 0.0790388 18.5572 0.0667793C 18.5578 0.0606501 18.5582 0.056192 18.5585 0.0534608C 18.5586 0.0520953 18.5587 0.0511617 18.5587 0.050667C 18.5588 0.0504197 18.5588 0.0502821 18.5588 0.0502551C 18.5588 0.0502416 18.5588 0.0502558 18.5588 0.0502977C 18.5588 0.0503186 18.5588 0.050371 18.5588 0.0503814C 18.5587 0.0504407 18.5587 0.0505069 18.0613 2.2462e-05ZM 17.7579 3.77963C 18.0749 5.34146 19.2711 6.74133 20.9154 7.57618L 21.3681 6.68453C 19.9319 5.95531 18.9811 4.77906 18.738 3.58076L 17.7579 3.77963ZM 20.9016 7.56892C 20.9245 7.58142 20.9038 7.57715 20.8866 7.53623C 20.8689 7.49436 20.8695 7.44678 20.8838 7.40878C 20.9138 7.32884 20.9567 7.36638 20.8618 7.36638L 20.8618 8.36638C 21.2803 8.36638 21.6732 8.15091 21.8199 7.76047C 21.9787 7.33769 21.7763 6.90772 21.3819 6.69179L 20.9016 7.56892ZM 20.8618 7.36638L 10.6866 7.36638L 10.6866 8.36638L 20.8618 8.36638L 20.8618 7.36638ZM 10.6866 7.36638L 0.511426 7.36638L 0.511426 8.36638L 10.6866 8.36638L 10.6866 7.36638ZM 0.511426 7.36638C 0.416534 7.36638 0.4594 7.32884 0.489431 7.40878C 0.503708 7.44678 0.504278 7.49436 0.48667 7.53623C 0.469462 7.57715 0.448739 7.58142 0.471577 7.56892L -0.00868874 6.69179C -0.40303 6.90772 -0.605517 7.33769 -0.446687 7.76047C -0.300002 8.15091 0.0928918 8.36638 0.511426 8.36638L 0.511426 7.36638ZM 0.457802 7.57618C 2.09725 6.7438 3.29887 5.39094 3.6159 3.77654L 2.63465 3.58385C 2.39158 4.82159 1.44619 5.95284 0.00508634 6.68453L 0.457802 7.57618ZM 3.61529 3.77963C 3.81093 2.8155 3.85864 1.85948 3.85863 1.15007C 3.85862 0.793954 3.84658 0.496675 3.83444 0.287336C 3.82836 0.1826 3.82225 0.0996866 3.81758 0.0422191C 3.81525 0.0134799 3.81328 -0.00891243 3.81185 -0.0245058C 3.81113 -0.032303 3.81055 -0.0384021 3.81013 -0.0427464C 3.80992 -0.0449187 3.80975 -0.0466525 3.80963 -0.0479407C 3.80956 -0.0485848 3.80951 -0.0491175 3.80947 -0.0495381C 3.80945 -0.0497483 3.80943 -0.0499305 3.80941 -0.0500845C 3.80941 -0.0501615 3.8094 -0.050256 3.80939 -0.0502944C 3.80938 -0.0503817 3.80937 -0.050462 3.31193 2.2462e-05C 2.81449 0.0505069 2.81448 0.0504407 2.81447 0.0503814C 2.81447 0.050371 2.81447 0.0503186 2.81446 0.0502977C 2.81446 0.0502558 2.81446 0.0502416 2.81446 0.0502551C 2.81446 0.0502821 2.81448 0.0504197 2.8145 0.050667C 2.81455 0.0511617 2.81464 0.0520953 2.81477 0.0534608C 2.81504 0.056192 2.81546 0.0606501 2.81602 0.0667793C 2.81715 0.0790388 2.81882 0.0979765 2.82086 0.123146C 2.82495 0.173496 2.83052 0.248715 2.83611 0.345239C 2.84732 0.538418 2.85862 0.816166 2.85863 1.15008C 2.85864 1.82074 2.81302 2.7048 2.63526 3.58076L 3.61529 3.77963ZM 3.31193 0.500022L 10.6399 0.500022L 10.6399 -0.499978L 3.31193 -0.499978L 3.31193 0.500022Z"/>
<path id="path1_stroke" d="M 0.51338 -1.1231e-05L 0.594426 -0.493399C 0.567635 -0.4978 0.54053 -0.500011 0.51338 -0.500011L 0.51338 -1.1231e-05ZM 0.526851 0.506001C 0.526851 0.505168 0.526949 0.504225 0.527133 0.503355C 0.527309 0.502525 0.52749 0.502105 0.527485 0.502116C 0.527406 0.502299 0.526535 0.504086 0.524158 0.506429C 0.521783 0.50877 0.519213 0.510366 0.517188 0.511221C 0.515517 0.511927 0.514442 0.51207 0.51338 0.51207L 0.51338 1.51207C 1.0627 1.51207 1.52685 1.06498 1.52685 0.506001L 0.526851 0.506001ZM 0.51338 0.51207C 0.51232 0.51207 0.511263 0.511928 0.509619 0.511233C 0.50762 0.510389 0.505073 0.508809 0.502714 0.506483C 0.500352 0.504154 0.499483 0.502374 0.499401 0.502185C 0.499394 0.502169 0.499572 0.502581 0.499746 0.5034C 0.499927 0.504258 0.500023 0.505186 0.500023 0.506001L -0.499977 0.506001C -0.499977 1.06483 -0.0360873 1.51207 0.51338 1.51207L 0.51338 0.51207ZM 0.500023 0.506001C 0.500023 0.506817 0.499927 0.507747 0.499745 0.50861C 0.49957 0.509433 0.499391 0.50985 0.499395 0.509841C 0.499471 0.509665 0.500332 0.507896 0.502687 0.505574C 0.505039 0.503256 0.507583 0.501677 0.509585 0.500831C 0.511234 0.500135 0.512302 0.499989 0.51338 0.499989L 0.51338 -0.500011C -0.0360148 -0.500011 -0.499977 -0.0529032 -0.499977 0.506001L 0.500023 0.506001ZM 0.432334 0.493377C 0.461193 0.498117 0.4853 0.505884 0.503726 0.514314C 0.522254 0.522792 0.532125 0.530568 0.535843 0.534003C 0.539158 0.537065 0.536011 0.535115 0.532181 0.526831C 0.527938 0.517657 0.526851 0.509281 0.526851 0.506001L 1.52685 0.506001C 1.52685 -0.112888 1.00453 -0.426034 0.594426 -0.493399L 0.432334 0.493377Z"/>
<path id="path2_stroke" d="M 42.4743 6.5263C 42.7505 6.5263 42.9743 6.30245 42.9743 6.0263C 42.9743 5.75016 42.7505 5.5263 42.4743 5.5263L 42.4743 6.5263ZM 0 -2.2462e-05L 0 -0.500022C -0.276142 -0.500022 -0.5 -0.276165 -0.5 -2.2462e-05L 0 -2.2462e-05ZM 9.80176 0.499978C 10.0779 0.499978 10.3018 0.27612 10.3018 -2.2462e-05C 10.3018 -0.276165 10.0779 -0.500022 9.80176 -0.500022L 9.80176 0.499978ZM 42.4743 5.5263L 17.9699 5.5263L 17.9699 6.5263L 42.4743 6.5263L 42.4743 5.5263ZM 17.9699 5.5263L 2.52041 5.5263L 2.52041 6.5263L 17.9699 6.5263L 17.9699 5.5263ZM 2.52041 5.5263C 1.38944 5.5263 0.5 4.63929 0.5 3.54218L -0.5 3.54218C -0.5 5.20519 0.850869 6.5263 2.52041 6.5263L 2.52041 5.5263ZM 0.5 3.54218L 0.5 -2.2462e-05L -0.5 -2.2462e-05L -0.5 3.54218L 0.5 3.54218ZM 0 0.499978L 9.80176 0.499978L 9.80176 -0.500022L 0 -0.500022L 0 0.499978Z"/>
<path id="path3_stroke" d="M 42.4276 28.6073C 42.7037 28.6073 42.9276 28.3834 42.9276 28.1073C 42.9276 27.8312 42.7037 27.6073 42.4276 27.6073L 42.4276 28.6073ZM 0 28.1073L -0.5 28.1073C -0.5 28.3834 -0.276142 28.6073 1.11022e-16 28.6073L 0 28.1073ZM 50.2358 15.0887C 50.2358 15.3649 50.4596 15.5887 50.7358 15.5887C 51.0119 15.5887 51.2358 15.3649 51.2358 15.0887L 50.2358 15.0887ZM 42.4276 27.6073L 0 27.6073L 0 28.6073L 42.4276 28.6073L 42.4276 27.6073ZM 0.5 28.1073L 0.5 21.437L -0.5 21.437L -0.5 28.1073L 0.5 28.1073ZM 0.5 21.437L 0.5 2.66814L -0.5 2.66814L -0.5 21.437L 0.5 21.437ZM 0.5 2.66814C 0.5 1.47903 1.48285 0.499989 2.70718 0.499989L 2.70718 -0.500011C 0.944302 -0.500011 -0.5 0.913104 -0.5 2.66814L 0.5 2.66814ZM 2.70718 0.499989L 48.0286 0.499989L 48.0286 -0.500011L 2.70718 -0.500011L 2.70718 0.499989ZM 48.0286 0.499989C 49.2529 0.499989 50.2358 1.47903 50.2358 2.66814L 51.2358 2.66814C 51.2358 0.913104 49.7915 -0.500011 48.0286 -0.500011L 48.0286 0.499989ZM 50.2358 2.66814L 50.2358 15.0887L 51.2358 15.0887L 51.2358 2.66814L 50.2358 2.66814Z"/>
<path id="path4_stroke" d="M 13.209 -0.500049L 4.55811e-05 -0.500049L 4.55811e-05 0.499951L 13.209 0.499951L 13.209 -0.500049Z"/>
<path id="path5_stroke" d="M 16.5229 25.6232L 16.0229 25.6232L 16.0229 25.6401L 16.0241 25.6569L 16.5229 25.6232ZM 15.3094 26.3653L 1.2602 26.3653L 1.2602 27.3653L 15.3094 27.3653L 15.3094 26.3653ZM 1.2602 26.3653C 0.82938 26.3653 0.5 26.0303 0.5 25.6232L -0.5 25.6232C -0.5 26.5962 0.290776 27.3653 1.2602 27.3653L 1.2602 26.3653ZM 0.5 25.6232L 0.5 13.0186L -0.5 13.0186L -0.5 25.6232L 0.5 25.6232ZM 0.5 13.0186L 0.5 1.24205L -0.5 1.24205L -0.5 13.0186L 0.5 13.0186ZM 0.5 1.24205C 0.5 0.834977 0.82935 0.500011 1.2602 0.500011L 1.2602 -0.499989C 0.290806 -0.499989 -0.5 0.269052 -0.5 1.24205L 0.5 1.24205ZM 1.2602 0.500011L 8.26146 0.500011L 8.26146 -0.499989L 1.2602 -0.499989L 1.2602 0.500011ZM 8.26146 0.500011L 15.2627 0.500011L 15.2627 -0.499989L 8.26146 -0.499989L 8.26146 0.500011ZM 15.2627 0.500011C 15.6936 0.500011 16.0229 0.834977 16.0229 1.24205L 17.0229 1.24205C 17.0229 0.269052 16.2321 -0.499989 15.2627 -0.499989L 15.2627 0.500011ZM 16.0229 1.24205L 16.0229 25.6232L 17.0229 25.6232L 17.0229 1.24205L 16.0229 1.24205ZM 16.0241 25.6569C 16.0494 26.0313 15.7478 26.3653 15.3094 26.3653L 15.3094 27.3653C 16.2713 27.3653 17.0898 26.5951 17.0218 25.5894L 16.0241 25.6569Z"/>
<path id="path6_stroke" d="M 1.34013 0.414008C 1.34013 -0.0988776 0.922835 -0.500022 0.420098 -0.500022L 0.420098 0.499978C 0.384112 0.499978 0.340128 0.466872 0.340128 0.414008L 1.34013 0.414008ZM 0.420098 -0.500022C -0.0824599 -0.500022 -0.500046 -0.0990534 -0.500046 0.414008L 0.499954 0.414008C 0.499954 0.467048 0.455906 0.499978 0.420098 0.499978L 0.420098 -0.500022ZM -0.500046 0.414008C -0.500046 0.92707 -0.0824599 1.32804 0.420098 1.32804L 0.420098 0.328039C 0.455906 0.328039 0.499954 0.360968 0.499954 0.414008L -0.500046 0.414008ZM 0.420098 1.32804C 0.922835 1.32804 1.34013 0.926894 1.34013 0.414008L 0.340128 0.414008C 0.340128 0.361144 0.384112 0.328039 0.420098 0.328039L 0.420098 1.32804Z"/>
<path id="path7_stroke" d="M -2.27906e-05 -0.499951C -0.276165 -0.499951 -0.500023 -0.276094 -0.500023 4.88281e-05C -0.500023 0.276191 -0.276165 0.500049 -2.27906e-05 0.500049L -2.27906e-05 -0.499951ZM 3.31395 0.500049C 3.59009 0.500049 3.81395 0.276191 3.81395 4.88281e-05C 3.81395 -0.276094 3.59009 -0.499951 3.31395 -0.499951L 3.31395 0.500049ZM -2.27906e-05 0.500049L 1.68033 0.500049L 1.68033 -0.499951L -2.27906e-05 -0.499951L -2.27906e-05 0.500049ZM 1.68033 0.500049L 3.31395 0.500049L 3.31395 -0.499951L 1.68033 -0.499951L 1.68033 0.500049Z"/>
<path id="path8_stroke" d="M 0.396664 9.73478L 7.6313 0.304338L 6.83788 -0.304338L -0.396755 9.1261L 0.396664 9.73478Z"/>
<path id="path9_stroke" d="M -0.376484 0.328988L 2.51735 3.64112L 3.27041 2.98317L 0.376575 -0.328965L -0.376484 0.328988Z"/>
<path id="path10_stroke" d="M 0.37178 3.96848L 3.63903 0.334295L 2.89538 -0.334273L -0.371871 3.29991L 0.37178 3.96848Z"/>
<path id="path11_stroke" d="M -0.392245 0.3101L 2.40826 3.85224L 3.1927 3.23204L 0.392199 -0.3101L -0.392245 0.3101Z"/>
<path id="path12_stroke" d="M 0.396687 4.07651L 3.29052 0.304361L 2.4971 -0.304316L -0.396732 3.46784L 0.396687 4.07651Z"/>
<path id="path13_stroke" d="M 4.16748 2.30012C 4.16748 3.28747 3.35335 4.10023 2.33373 4.10023L 2.33373 5.10023C 3.8919 5.10023 5.16748 3.8534 5.16748 2.30012L 4.16748 2.30012ZM 2.33373 4.10023C 1.31411 4.10023 0.499977 3.28747 0.499977 2.30012L -0.500023 2.30012C -0.500023 3.8534 0.775562 5.10023 2.33373 5.10023L 2.33373 4.10023ZM 0.499977 2.30012C 0.499977 1.31277 1.31411 0.500011 2.33373 0.500011L 2.33373 -0.499989C 0.775562 -0.499989 -0.500023 0.746842 -0.500023 2.30012L 0.499977 2.30012ZM 2.33373 0.500011C 3.35335 0.500011 4.16748 1.31277 4.16748 2.30012L 5.16748 2.30012C 5.16748 0.746842 3.8919 -0.499989 2.33373 -0.499989L 2.33373 0.500011Z"/>
<path id="path14_stroke" d="M 4.16746 2.30009C 4.16746 3.28744 3.35333 4.10019 2.33371 4.10019L 2.33371 5.10019C 3.89188 5.10019 5.16746 3.85336 5.16746 2.30009L 4.16746 2.30009ZM 2.33371 4.10019C 1.31408 4.10019 0.499954 3.28744 0.499954 2.30009L -0.500046 2.30009C -0.500046 3.85336 0.775539 5.10019 2.33371 5.10019L 2.33371 4.10019ZM 0.499954 2.30009C 0.499954 1.31273 1.31408 0.499978 2.33371 0.499978L 2.33371 -0.500022C 0.775539 -0.500022 -0.500046 0.746808 -0.500046 2.30009L 0.499954 2.30009ZM 2.33371 0.499978C 3.35333 0.499978 4.16746 1.31273 4.16746 2.30009L 5.16746 2.30009C 5.16746 0.746808 3.89188 -0.500022 2.33371 -0.500022L 2.33371 0.499978Z"/>
<path id="path15_stroke" d="M 4.16753 2.30012C 4.16753 3.28747 3.3534 4.10023 2.33378 4.10023L 2.33378 5.10023C 3.89194 5.10023 5.16753 3.8534 5.16753 2.30012L 4.16753 2.30012ZM 2.33378 4.10023C 1.31415 4.10023 0.500023 3.28747 0.500023 2.30012L -0.499977 2.30012C -0.499977 3.8534 0.775607 5.10023 2.33378 5.10023L 2.33378 4.10023ZM 0.500023 2.30012C 0.500023 1.31277 1.31415 0.500011 2.33378 0.500011L 2.33378 -0.499989C 0.775608 -0.499989 -0.499977 0.746842 -0.499977 2.30012L 0.500023 2.30012ZM 2.33378 0.500011C 3.3534 0.500011 4.16753 1.31277 4.16753 2.30012L 5.16753 2.30012C 5.16753 0.746842 3.89194 -0.499989 2.33378 -0.499989L 2.33378 0.500011Z"/>
<path id="path16_stroke" d="M 4.16755 2.3001C 4.16755 3.28745 3.35342 4.1002 2.3338 4.1002L 2.3338 5.1002C 3.89197 5.1002 5.16755 3.85337 5.16755 2.3001L 4.16755 2.3001ZM 2.3338 4.1002C 1.31417 4.1002 0.500046 3.28745 0.500046 2.3001L -0.499954 2.3001C -0.499954 3.85337 0.775631 5.1002 2.3338 5.1002L 2.3338 4.1002ZM 0.500046 2.3001C 0.500046 1.31274 1.31417 0.499989 2.3338 0.499989L 2.3338 -0.500011C 0.77563 -0.500011 -0.499954 0.746819 -0.499954 2.3001L 0.500046 2.3001ZM 2.3338 0.499989C 3.35342 0.499989 4.16755 1.31274 4.16755 2.3001L 5.16755 2.3001C 5.16755 0.746819 3.89197 -0.500011 2.3338 -0.500011L 2.3338 0.499989Z"/>
<path id="path17_stroke" d="M 4.16751 2.30013C 4.16751 3.28748 3.35338 4.10024 2.33375 4.10024L 2.33375 5.10024C 3.89192 5.10024 5.16751 3.85341 5.16751 2.30013L 4.16751 2.30013ZM 2.33375 4.10024C 1.31413 4.10024 0.5 3.28748 0.5 2.30013L -0.5 2.30013C -0.5 3.85341 0.775585 5.10024 2.33375 5.10024L 2.33375 4.10024ZM 0.5 2.30013C 0.5 1.31278 1.31413 0.500022 2.33375 0.500022L 2.33375 -0.499978C 0.775585 -0.499978 -0.5 0.746853 -0.5 2.30013L 0.5 2.30013ZM 2.33375 0.500022C 3.35338 0.500022 4.16751 1.31278 4.16751 2.30013L 5.16751 2.30013C 5.16751 0.746853 3.89192 -0.499978 2.33375 -0.499978L 2.33375 0.500022Z"/>
<path id="path18_stroke" d="M 4.16755 2.30009C 4.16755 3.28744 3.35342 4.10019 2.3338 4.10019L 2.3338 5.10019C 3.89197 5.10019 5.16755 3.85336 5.16755 2.30009L 4.16755 2.30009ZM 2.3338 4.10019C 1.31417 4.10019 0.500046 3.28744 0.500046 2.30009L -0.499954 2.30009C -0.499954 3.85336 0.77563 5.10019 2.3338 5.10019L 2.3338 4.10019ZM 0.500046 2.30009C 0.500046 1.31273 1.31417 0.499978 2.3338 0.499978L 2.3338 -0.500022C 0.77563 -0.500022 -0.499954 0.746808 -0.499954 2.30009L 0.500046 2.30009ZM 2.3338 0.499978C 3.35342 0.499978 4.16755 1.31273 4.16755 2.30009L 5.16755 2.30009C 5.16755 0.746808 3.89197 -0.500022 2.3338 -0.500022L 2.3338 0.499978Z"/>
</defs>
</svg>
