<?xml version="1.0" standalone="no"?>
<!DOCTYPE svg PUBLIC "-//W3C//DTD SVG 1.1//EN" "http://www.w3.org/Graphics/SVG/1.1/DTD/svg11.dtd" >
<svg xmlns="http://www.w3.org/2000/svg" xmlns:xlink="http://www.w3.org/1999/xlink" version="1.1">
<metadata>
Created by FontForge 20160407 at Mon Jul  4 15:20:21 2016
 By Jimmy Wärting
Copyright (c) 2008-2012 by Jos Buivenga/exljbris. All rights reserved.
</metadata>
<defs>
<font id="MuseoCyrillic-500" horiz-adv-x="577" >
  <font-face 
    font-family="Museo Cyrillic"
    font-weight="500"
    font-stretch="normal"
    units-per-em="1000"
    panose-1="2 0 0 0 0 0 0 0 0 0"
    ascent="772"
    descent="-228"
    x-height="506"
    cap-height="706"
    bbox="-108 -237 1088 892"
    underline-thickness="50"
    underline-position="-100"
    unicode-range="U+0020-FB04"
  />
<missing-glyph horiz-adv-x="510" 
d="M505 0h-500v700h500v-700zM85 650l170 -255l170 255h-340zM455 605l-170 -255l170 -255v510zM55 605v-510l170 255zM255 305l-170 -255h340z" />
    <glyph glyph-name="f_f" unicode="ff" horiz-adv-x="631" 
d="M182 0h-97v428h-63v78h63v17c0 64 21 113 48 138c45 42 103 50 143 50l37 -3v-83c-7 1 -15 2 -25 2c-39 0 -106 -13 -106 -107v-14h218v17c0 64 21 113 48 138c45 42 103 50 143 50l37 -3v-83c-7 1 -16 2 -25 2c-39 0 -106 -13 -106 -107v-14h119v-78h-119v-428h-97v428
h-218v-428z" />
    <glyph glyph-name="fi" unicode="fi" horiz-adv-x="585" 
d="M182 0h-97v428h-63v78h63v17c0 64 21 113 48 138c45 42 103 50 143 50l37 -3v-83c-7 1 -16 2 -27 2c-38 0 -104 -13 -104 -107v-14h255c45 0 64 -19 64 -64v-337c0 -15 7 -22 22 -22h41v-83h-95c-45 0 -65 19 -65 64v342c0 15 -7 22 -22 22h-200v-428zM494 605h-88v101
h88v-101z" />
    <glyph glyph-name="fl" unicode="fl" horiz-adv-x="580" 
d="M182 0h-97v428h-63v78h63v17c0 63 21 112 48 136c13 13 29 23 48 30c39 15 63 17 95 17h154c45 0 65 -19 65 -64v-537c0 -15 7 -22 22 -22h41v-83h-96c-45 0 -64 19 -64 64v537c0 15 -7 22 -22 22h-88c-71 0 -106 -34 -106 -102v-15h120v-78h-120v-428z" />
    <glyph glyph-name="f_f_i" unicode="ffi" horiz-adv-x="899" 
d="M182 0h-97v428h-63v78h63v17c0 64 21 113 48 138c45 42 103 50 143 50l37 -3v-83c-7 1 -16 2 -27 2c-38 0 -104 -13 -104 -107v-14h218v17c0 64 21 113 48 138c45 42 103 50 143 50l37 -3v-83c-7 1 -16 2 -27 2c-38 0 -104 -13 -104 -107v-14h255c45 0 64 -19 64 -64
v-337c0 -15 7 -22 22 -22h41v-83h-96c-45 0 -64 19 -64 64v342c0 15 -7 22 -22 22h-200v-428h-97v428h-218v-428zM808 605h-87v101h87v-101z" />
    <glyph glyph-name="f_f_l" unicode="ffl" horiz-adv-x="894" 
d="M182 0h-97v428h-63v78h63v19c1 165 123 186 189 186l39 -3v-83c-8 1 -17 2 -27 2c-38 0 -104 -14 -104 -106v-15h218v17c0 63 21 112 48 136c45 40 102 48 142 47h155c45 0 64 -19 64 -64v-537c0 -15 7 -22 22 -22h41v-83h-95c-45 0 -64 19 -64 64v537c0 15 -7 22 -22 22
h-88c-71 0 -106 -34 -106 -102v-15h119v-78h-119v-428h-97v428h-218v-428z" />
    <glyph glyph-name="f_j" unicode="fj" horiz-adv-x="586" 
d="M182 0h-97v428h-63v78h63v17c0 64 21 113 48 138c45 42 103 50 143 50l37 -3v-83c-7 1 -16 2 -27 2c-38 0 -104 -13 -104 -107v-14h276c45 0 64 -19 64 -64v-459c0 -64 -22 -114 -50 -139c-45 -42 -104 -51 -144 -50l-34 2v83c6 -1 13 -1 22 -1c39 0 109 12 109 111v417
c0 15 -7 22 -22 22h-221v-428zM515 605h-87v101h87v-101z" />
    <glyph glyph-name=".notdef" horiz-adv-x="510" 
d="M505 0h-500v700h500v-700zM85 650l170 -255l170 255h-340zM455 605l-170 -255l170 -255v510zM55 605v-510l170 255zM255 305l-170 -255h340z" />
    <glyph glyph-name="NULL" horiz-adv-x="0" 
 />
    <glyph glyph-name="CR" horiz-adv-x="333" 
 />
    <glyph glyph-name="space" unicode=" " horiz-adv-x="269" 
 />
    <glyph glyph-name="exclam" unicode="!" horiz-adv-x="268" 
d="M178 194h-87l-7 512h100zM184 0h-99v97h99v-97z" />
    <glyph glyph-name="quotedbl" unicode="&#x22;" horiz-adv-x="345" 
d="M281 530h-77v188h77v-188zM140 530h-76v188h76v-188z" />
    <glyph glyph-name="numbersign" unicode="#" horiz-adv-x="707" 
d="M215 0h-81l34 191h-131l12 74h131l30 168h-130l12 73h130l35 200h81l-35 -200h155l35 200h82l-35 -200h130l-12 -73h-131l-30 -168h130l-12 -74h-130l-33 -191h-82l34 191h-155zM291 433l-30 -168h155l30 168h-155z" />
    <glyph glyph-name="dollar" unicode="$" 
d="M60 112l-7 13l71 59c3 -5 7 -12 28 -37c27 -32 74 -66 143 -68c72 0 121 44 121 105c0 55 -53 94 -121 123c-96 41 -222 96 -220 228c0 47 17 86 51 119s78 54 133 61v94h73v-93c27 -3 52 -9 75 -18c47 -16 90 -57 90 -110v-58h-92v33c0 36 -47 64 -104 64
c-75 0 -124 -39 -124 -91c0 -147 341 -112 341 -349c0 -49 -17 -93 -51 -130s-79 -59 -135 -66v-93h-73v92c-113 14 -178 91 -199 122z" />
    <glyph glyph-name="percent" unicode="%" horiz-adv-x="748" 
d="M193 422c-43 0 -79 14 -108 43s-44 64 -44 105s15 75 44 104c30 29 66 44 108 44c41 0 77 -15 107 -44s45 -63 45 -104s-15 -76 -45 -105s-66 -43 -107 -43zM151 0h-94l540 706h94zM119 570c0 -43 33 -74 74 -74s74 33 74 74s-33 75 -74 75s-74 -34 -74 -75zM404 136
c0 41 15 75 44 104s65 44 107 44s78 -15 107 -44c30 -29 45 -63 45 -104s-15 -76 -45 -105c-29 -29 -65 -43 -107 -43s-78 14 -107 43s-44 64 -44 105zM629 136c0 41 -33 75 -74 75s-73 -34 -73 -75s32 -74 73 -74s74 31 74 74z" />
    <glyph glyph-name="ampersand" unicode="&#x26;" horiz-adv-x="638" 
d="M43 202c0 39 11 75 33 109s52 56 90 67v2c-5 1 -11 3 -32 19c-27 22 -60 64 -60 137c0 55 19 99 58 132s91 50 154 50c28 0 62 -5 78 -8l12 -3l-25 -79c-20 5 -38 7 -54 7c-72 0 -123 -46 -123 -109c0 -45 21 -111 130 -111h127v91h97v-91h90v-86h-90v-94
c0 -156 -90 -247 -239 -247c-72 0 -131 20 -177 61s-69 92 -69 153zM145 203c0 -69 56 -124 144 -124c89 0 142 52 142 160v90h-126c-103 0 -160 -46 -160 -126z" />
    <glyph glyph-name="quotesingle" unicode="'" horiz-adv-x="205" 
d="M141 530h-77v188h77v-188z" />
    <glyph glyph-name="parenleft" unicode="(" horiz-adv-x="271" 
d="M244 -95h-85c-79 121 -118 263 -118 424c0 155 38 290 113 406h85c-73 -123 -110 -256 -110 -399c0 -153 38 -297 115 -431z" />
    <glyph glyph-name="parenright" unicode=")" horiz-adv-x="271" 
d="M112 -95h-85c77 134 115 278 115 431c0 143 -37 276 -111 399h86c75 -116 113 -251 113 -406c0 -160 -39 -301 -118 -424z" />
    <glyph glyph-name="asterisk" unicode="*" horiz-adv-x="483" 
d="M240 447l-77 -118l-72 52l89 110v2l-137 37l27 84l133 -50l-8 142h91l-8 -142l134 50l28 -84l-138 -37v-2l89 -110l-72 -52l-77 118h-2z" />
    <glyph glyph-name="plus" unicode="+" 
d="M248 246h-224v78h224v246h82v-246h223v-78h-223v-246h-82v246z" />
    <glyph glyph-name="comma" unicode="," horiz-adv-x="249" 
d="M99 -101h-75l62 206h97z" />
    <glyph glyph-name="hyphen" unicode="-" horiz-adv-x="410" 
d="M351 242h-292v86h292v-86z" />
    <glyph glyph-name="period" unicode="." horiz-adv-x="217" 
d="M158 0h-99v103h99v-103z" />
    <glyph glyph-name="slash" unicode="/" horiz-adv-x="413" 
d="M123 -42h-86l254 786h86z" />
    <glyph glyph-name="zero" unicode="0" horiz-adv-x="599" 
d="M299 -12c-166 0 -249 122 -249 366c0 243 83 364 249 364c167 0 250 -121 250 -364c0 -244 -83 -366 -250 -366zM299 79c99 0 149 92 149 275c0 182 -50 273 -149 273s-148 -91 -148 -273c0 -183 49 -275 148 -275z" />
    <glyph glyph-name="one" unicode="1" horiz-adv-x="465" 
d="M452 0h-408v86h155v456l1 43h-2c-5 -10 -16 -23 -33 -40l-67 -65l-59 62l168 164h92v-620h153v-86z" />
    <glyph glyph-name="two" unicode="2" horiz-adv-x="570" 
d="M37 81c0 260 359 241 359 433c0 65 -49 112 -124 112c-61 0 -109 -31 -109 -67v-31h-92v60c0 29 12 53 35 74c47 41 110 56 170 56c65 0 118 -19 159 -57c42 -37 63 -86 63 -146c0 -89 -56 -160 -127 -204c-100 -62 -233 -114 -231 -206c0 -13 8 -19 25 -19h251
c15 0 22 7 22 22v45h92v-89c0 -45 -19 -64 -64 -64h-362c-53 0 -67 21 -67 81z" />
    <glyph glyph-name="three" unicode="3" horiz-adv-x="556" 
d="M44 77l-10 10l54 75c5 -6 13 -14 23 -23s30 -20 61 -35s63 -22 95 -22c39 0 73 12 100 36c27 25 41 56 41 93c0 38 -15 68 -45 91c-29 23 -65 35 -108 35h-49l-22 53l147 185c12 17 28 34 36 41l6 5v2c-14 -2 -34 -3 -60 -3h-137c-15 0 -22 -7 -22 -22v-45h-91v89
c0 45 16 64 60 64h372v-63l-185 -224c53 -6 99 -26 139 -61c41 -35 61 -83 61 -146c0 -61 -23 -114 -68 -158s-104 -66 -175 -66c-116 0 -196 62 -223 89z" />
    <glyph glyph-name="four" unicode="4" horiz-adv-x="586" 
d="M351 187h-333v64l319 455h114v-433h110v-86h-110v-187h-100v187zM127 272v-2c19 2 39 3 60 3h165v243l4 72h-2c-11 -22 -23 -42 -35 -59l-156 -212z" />
    <glyph glyph-name="five" unicode="5" horiz-adv-x="548" 
d="M46 77l-9 10l55 73c3 -4 6 -9 26 -28c27 -22 73 -50 138 -50c44 0 80 13 109 40s43 61 43 101c0 43 -16 77 -49 104c-32 27 -71 40 -118 40s-98 -15 -119 -27l-16 -9l-41 19l28 292c4 47 20 64 64 64h247c44 0 63 -19 63 -64v-89h-91v45c0 15 -7 22 -22 22h-148
c-13 0 -20 -7 -22 -22l-14 -129l-5 -37h2c26 14 56 21 91 21c75 0 136 -22 182 -67c47 -44 70 -99 70 -165c0 -64 -24 -119 -71 -165c-47 -45 -108 -68 -183 -68c-116 0 -188 62 -210 89z" />
    <glyph glyph-name="six" unicode="6" horiz-adv-x="571" 
d="M308 -12c-76 0 -139 30 -189 89c-50 60 -75 139 -75 236c0 96 27 191 76 271c51 80 138 134 242 134c49 0 101 -11 122 -22l15 -7l-32 -85c-29 15 -63 23 -100 23c-61 0 -109 -24 -145 -71s-58 -104 -67 -171h2c27 41 92 69 156 69c65 0 119 -22 160 -66s62 -99 62 -164
c0 -69 -21 -126 -64 -170s-97 -66 -163 -66zM149 271c0 -47 16 -91 47 -132c31 -40 69 -60 112 -60c79 0 129 61 129 145c0 87 -56 146 -145 146c-39 0 -72 -10 -101 -30c-28 -20 -42 -43 -42 -69z" />
    <glyph glyph-name="seven" unicode="7" horiz-adv-x="528" 
d="M180 0h-110l299 556l41 65v2c-11 -2 -28 -3 -51 -3h-213c-15 0 -22 -7 -22 -22v-45h-91v89c0 45 16 64 60 64h430v-68z" />
    <glyph glyph-name="eight" unicode="8" horiz-adv-x="579" 
d="M43 202c0 92 75 154 105 174l12 7v2c-5 3 -10 5 -30 22c-26 24 -57 63 -57 122c0 52 20 96 59 133s93 56 161 56c67 0 120 -18 160 -54c41 -35 61 -81 61 -137c0 -31 -7 -60 -22 -88c-14 -28 -28 -48 -42 -61l-22 -19v-2c71 -41 106 -95 106 -162
c0 -57 -23 -105 -70 -146c-46 -41 -104 -61 -175 -61c-68 0 -126 20 -174 59c-48 40 -72 92 -72 155zM287 416c25 -11 43 -17 54 -17c13 0 29 13 47 39c19 26 28 54 28 83c0 64 -50 106 -123 106c-75 0 -122 -43 -122 -100c0 -56 37 -80 116 -111zM144 207
c0 -38 14 -69 42 -93c29 -23 63 -35 103 -35c39 0 72 11 100 34c29 23 43 51 43 85c0 56 -39 84 -118 116c-43 17 -67 26 -73 26c-16 0 -36 -14 -61 -42c-24 -27 -36 -58 -36 -91z" />
    <glyph glyph-name="nine" unicode="9" horiz-adv-x="571" 
d="M88 10l-16 7l32 86c30 -16 64 -24 101 -24c60 0 108 24 145 71s59 105 67 172h-2c-28 -43 -92 -69 -156 -69c-66 0 -120 22 -161 65c-41 44 -62 99 -62 164c0 69 21 126 64 170s97 66 163 66c76 0 139 -30 189 -90c50 -59 75 -138 75 -235c0 -96 -26 -191 -77 -271
c-49 -80 -136 -134 -241 -134c-49 0 -101 11 -121 22zM279 336c39 0 72 10 100 30c29 20 43 43 43 69c0 47 -16 91 -47 131c-31 41 -68 61 -111 61c-80 0 -130 -61 -130 -145c0 -85 56 -146 145 -146z" />
    <glyph glyph-name="colon" unicode=":" horiz-adv-x="217" 
d="M158 403h-99v103h99v-103zM158 0h-99v103h99v-103z" />
    <glyph glyph-name="semicolon" unicode=";" horiz-adv-x="268" 
d="M198 403h-99v103h99v-103zM121 -101h-75l51 206h97z" />
    <glyph glyph-name="less" unicode="&#x3c;" 
d="M509 44l-466 208v66l466 208v-89l-357 -151v-2l357 -151v-89z" />
    <glyph glyph-name="equal" unicode="=" 
d="M527 340h-477v78h477v-78zM527 151h-477v78h477v-78z" />
    <glyph glyph-name="greater" unicode="&#x3e;" 
d="M533 252l-466 -208v89l357 151v2l-357 151v89l466 -208v-66z" />
    <glyph glyph-name="question" unicode="?" horiz-adv-x="463" 
d="M243 194h-94v47c0 150 170 176 170 289c0 56 -50 99 -115 99c-37 0 -80 -18 -100 -31l-14 -11l-53 69c5 5 12 10 21 17s29 17 59 29c31 12 62 18 94 18c59 0 108 -17 148 -51c41 -34 61 -78 61 -132c0 -164 -177 -183 -177 -302v-41zM246 0h-100v97h100v-97z" />
    <glyph glyph-name="at" unicode="@" horiz-adv-x="782" 
d="M413 611c90 0 156 -19 197 -58c42 -38 63 -86 63 -145v-283h72v-73h-273c-61 0 -110 18 -149 55s-58 82 -58 134c0 51 19 95 57 132c39 37 89 55 150 55h108c-3 60 -62 103 -162 103c-77 0 -141 -29 -194 -86s-79 -125 -79 -204c0 -81 26 -149 79 -204s122 -83 205 -83
v-79c-111 0 -202 35 -274 106c-71 70 -107 157 -107 260s35 191 106 262c71 72 157 108 259 108zM363 242c0 -65 49 -117 116 -117h101v236h-99c-69 0 -118 -52 -118 -119z" />
    <glyph glyph-name="A" unicode="A" horiz-adv-x="665" 
d="M67 0h-55v86h14c17 0 28 7 33 22l221 598h105l221 -598c5 -15 16 -22 33 -22h14v-86h-55c-49 0 -66 11 -83 58l-53 145h-259l-53 -145c-17 -47 -34 -58 -83 -58zM304 502l-77 -215h211l-77 215l-28 99h-2c-10 -41 -19 -74 -27 -99z" />
    <glyph glyph-name="B" unicode="B" horiz-adv-x="609" 
d="M98 64v556h-65v86h303c121 0 205 -68 205 -180c0 -73 -37 -127 -88 -152v-2c72 -21 116 -90 116 -171c0 -64 -22 -114 -65 -149s-97 -52 -162 -52h-179c-45 0 -65 19 -65 64zM198 620v-211h138c63 0 103 44 103 107s-40 104 -105 104h-136zM198 327v-219
c0 -15 7 -22 22 -22h127c73 0 119 48 119 120s-48 121 -120 121h-148z" />
    <glyph glyph-name="C" unicode="C" horiz-adv-x="698" 
d="M35 359c0 102 34 187 101 256c68 69 152 103 253 103c95 0 265 -40 265 -153v-69h-92v40c0 27 -18 49 -55 65s-75 24 -116 24c-72 0 -132 -25 -180 -74s-72 -113 -72 -192c0 -77 24 -143 73 -197c49 -53 110 -80 182 -80c111 0 189 61 214 86l9 10l54 -72
c-5 -7 -11 -14 -47 -41c-17 -13 -36 -25 -56 -36c-40 -20 -108 -41 -175 -41c-104 0 -190 35 -257 106s-101 160 -101 265z" />
    <glyph glyph-name="D" unicode="D" horiz-adv-x="714" 
d="M98 64v556h-65v86h286c109 0 195 -31 260 -94c65 -62 98 -148 98 -258c0 -111 -33 -197 -98 -260s-151 -94 -260 -94h-156c-45 0 -65 19 -65 64zM198 620v-512c0 -15 7 -22 22 -22h92c161 0 261 97 261 268c0 169 -101 266 -261 266h-114z" />
    <glyph glyph-name="E" unicode="E" horiz-adv-x="571" 
d="M98 64v556h-65v86h416c45 0 64 -19 64 -64v-89h-92v45c0 15 -7 22 -22 22h-201v-221h248v-86h-248v-205c0 -15 7 -22 22 -22h207c15 0 22 7 22 22v45h91v-89c0 -45 -19 -64 -64 -64h-313c-45 0 -65 19 -65 64z" />
    <glyph glyph-name="F" unicode="F" horiz-adv-x="511" 
d="M198 0h-100v620h-65v86h390c45 0 64 -19 64 -64v-89h-91v45c0 15 -7 22 -22 22h-176v-232h242v-86h-242v-302z" />
    <glyph glyph-name="G" unicode="G" horiz-adv-x="728" 
d="M35 356c0 102 34 188 102 257c68 70 153 105 254 105c50 0 96 -7 138 -22s72 -29 89 -44l25 -21l-57 -73c-6 5 -14 12 -25 19c-10 7 -32 17 -66 30c-33 13 -67 19 -102 19c-71 0 -132 -26 -181 -77s-73 -115 -73 -193c0 -81 24 -147 73 -198s110 -76 183 -76
c100 0 169 55 193 79l8 9v71c0 15 -7 22 -22 22h-43v86h92c45 0 65 -19 65 -64v-285h-88v44l1 30h-2c-4 -4 -9 -10 -37 -30c-14 -10 -29 -19 -45 -26c-31 -15 -86 -30 -138 -30c-97 0 -178 34 -245 103c-66 69 -99 157 -99 265z" />
    <glyph glyph-name="H" unicode="H" horiz-adv-x="757" 
d="M199 0h-100v598c0 15 -7 22 -22 22h-43v86h101c45 0 64 -19 64 -64v-247h359v247c0 45 20 64 65 64h100v-86h-43c-15 0 -22 -7 -22 -22v-598h-100v310h-359v-310z" />
    <glyph glyph-name="I" unicode="I" horiz-adv-x="318" 
d="M275 0h-233v86h69v534h-69v86h233v-86h-68v-534h68v-86z" />
    <glyph glyph-name="J" unicode="J" horiz-adv-x="511" 
d="M16 203v35h100v-27c0 -91 49 -129 112 -129c61 0 110 40 110 125v391c0 15 -7 22 -22 22h-173v86h230c45 0 65 -19 65 -64v-439c0 -71 -21 -125 -62 -161s-91 -54 -149 -54s-108 18 -149 54c-41 37 -62 90 -62 161z" />
    <glyph glyph-name="K" unicode="K" horiz-adv-x="612" 
d="M199 0h-100v598c0 15 -7 22 -22 22h-43v86h101c45 0 64 -19 64 -64v-233h67c29 0 49 8 58 24l157 273h112l-171 -293c-12 -21 -27 -38 -34 -43l-6 -3v-2c13 -3 27 -18 40 -44l106 -212c7 -15 24 -23 50 -23h19v-86h-55c-57 0 -77 9 -98 53l-122 245c-9 17 -30 26 -63 26
h-60v-324z" />
    <glyph glyph-name="L" unicode="L" horiz-adv-x="541" 
d="M98 64v534c0 15 -7 22 -22 22h-43v86h101c45 0 64 -19 64 -64v-534c0 -15 7 -22 22 -22h196c15 0 22 7 22 22v45h91v-89c0 -45 -19 -64 -64 -64h-302c-45 0 -65 19 -65 64z" />
    <glyph glyph-name="M" unicode="M" horiz-adv-x="862" 
d="M112 0h-89v86h33c13 0 21 7 22 22l48 598h103l166 -373l35 -90h2c12 34 24 64 35 90l166 373h103l48 -598c1 -15 9 -22 22 -22h34v-86h-89c-45 0 -61 17 -65 64l-28 373l-2 104h-2c-14 -44 -27 -79 -38 -104l-143 -310h-84l-142 310c-11 21 -25 63 -33 87l-5 18h-2
c1 -42 0 -77 -2 -105l-29 -373c-3 -45 -20 -64 -64 -64z" />
    <glyph glyph-name="N" unicode="N" horiz-adv-x="757" 
d="M135 0h-101v86h43c15 0 22 7 22 22v598h91l314 -447l59 -96h2c-5 38 -7 70 -7 96v383c0 45 20 64 65 64h100v-86h-43c-15 0 -22 -7 -22 -22v-598h-90l-315 447l-58 96h-2c4 -38 6 -70 6 -96v-383c0 -45 -19 -64 -64 -64z" />
    <glyph glyph-name="O" unicode="O" horiz-adv-x="793" 
d="M34 358c0 101 35 187 104 256c70 69 156 104 258 104s188 -35 258 -104s105 -155 105 -256c0 -104 -35 -192 -105 -263s-156 -107 -258 -107s-188 36 -258 107c-69 71 -104 159 -104 263zM138 358c0 -77 25 -143 75 -196s111 -80 183 -80s133 27 183 80
c51 53 76 119 76 196c0 75 -25 139 -76 190c-50 51 -111 77 -183 77s-133 -26 -183 -77s-75 -115 -75 -190z" />
    <glyph glyph-name="P" unicode="P" horiz-adv-x="585" 
d="M198 0h-100v620h-65v86h311c65 0 119 -20 160 -61c41 -40 62 -93 62 -160s-21 -121 -62 -162s-95 -62 -160 -62h-146v-261zM198 620v-273h130c84 0 135 53 135 138c0 84 -50 135 -134 135h-131z" />
    <glyph glyph-name="Q" unicode="Q" horiz-adv-x="793" 
d="M34 357c0 102 35 188 104 257s155 104 257 104c103 0 189 -35 259 -104s105 -155 105 -257c0 -87 -28 -165 -83 -232l81 -79l-60 -64l-81 81c-62 -50 -136 -75 -221 -75c-102 0 -188 36 -257 107s-104 159 -104 262zM138 357c0 -77 25 -143 74 -196
c50 -53 111 -79 183 -79c55 0 110 20 133 36l16 13l-78 76l60 65l77 -79c35 47 52 102 52 164c0 76 -25 139 -75 190s-112 77 -185 77s-134 -26 -183 -77s-74 -114 -74 -190z" />
    <glyph glyph-name="R" unicode="R" horiz-adv-x="622" 
d="M198 0h-100v620h-65v86h309c63 0 113 -19 152 -56s59 -88 59 -151c0 -53 -14 -96 -41 -129c-27 -32 -56 -51 -87 -58v-2c12 -6 22 -17 30 -32l85 -169c8 -15 25 -23 51 -23h13v-86h-49c-59 0 -76 9 -99 53l-96 190c-16 32 -29 38 -69 38h-93v-281zM198 620v-253h131
c76 0 121 48 121 128c0 79 -45 125 -120 125h-132z" />
    <glyph glyph-name="S" unicode="S" horiz-adv-x="525" 
d="M38 82l-9 11l58 71c4 -4 8 -10 32 -30c33 -25 83 -55 146 -55c67 0 120 42 120 105c0 53 -53 93 -120 122c-96 41 -222 95 -220 223c0 54 21 99 63 135c43 36 97 54 163 54c29 0 57 -4 86 -12c29 -7 55 -21 78 -42c24 -21 36 -46 36 -76v-58h-92v33c0 36 -50 64 -109 64
c-73 0 -124 -40 -124 -95c0 -72 86 -97 170 -138c30 -14 57 -29 82 -44c51 -29 89 -88 89 -161c0 -56 -20 -104 -61 -143s-95 -58 -163 -58c-56 0 -113 17 -148 37s-64 42 -77 57z" />
    <glyph glyph-name="T" unicode="T" horiz-adv-x="632" 
d="M366 0h-100v620h-141c-15 0 -22 -7 -22 -22v-45h-90v93c0 45 15 60 60 60h486c45 0 60 -15 60 -60v-93h-89v45c0 15 -7 22 -22 22h-142v-620z" />
    <glyph glyph-name="U" unicode="U" horiz-adv-x="720" 
d="M91 247v351c0 15 -7 22 -22 22h-43v86h100c45 0 65 -19 65 -64v-391c0 -105 65 -169 169 -169c103 0 169 65 169 170v390c0 45 19 64 64 64h101v-86h-43c-15 0 -22 -7 -22 -22v-351c0 -77 -25 -140 -74 -188c-49 -47 -114 -71 -194 -71c-81 0 -146 24 -196 71
c-49 48 -74 111 -74 188z" />
    <glyph glyph-name="V" unicode="V" horiz-adv-x="667" 
d="M386 0h-106l-221 598c-6 15 -17 22 -34 22h-14v86h57c51 0 66 -11 82 -58l155 -435l27 -97h2c9 39 18 72 27 97l155 435c17 47 32 58 83 58h57v-86h-14c-17 0 -28 -7 -34 -22z" />
    <glyph glyph-name="W" unicode="W" horiz-adv-x="967" 
d="M337 0h-117l-154 598c-4 15 -16 22 -35 22h-15v86h58c52 0 75 -13 86 -58l110 -454l13 -75h2c5 24 10 49 17 75l143 510h89l132 -510l15 -75h2c3 25 8 50 14 75l110 454c11 45 33 58 86 58h58v-86h-15c-19 0 -31 -7 -35 -22l-154 -598h-117l-120 446l-20 97h-2
c-6 -34 -13 -66 -22 -96z" />
    <glyph glyph-name="X" unicode="X" horiz-adv-x="595" 
d="M124 0h-112l222 364l-142 231c-13 21 -23 25 -47 25h-25v86h58c51 0 70 -10 95 -54l79 -134l45 -83h2c13 29 28 57 43 83l80 134c25 44 45 54 94 54h59v-86h-26c-21 0 -36 -8 -46 -25l-143 -231l223 -364h-113l-129 215l-44 80h-2c-14 -28 -28 -55 -43 -81z" />
    <glyph glyph-name="Y" unicode="Y" horiz-adv-x="606" 
d="M353 0h-100v308l-179 287c-9 17 -24 25 -43 25h-20v86h46c49 0 68 -9 95 -54l107 -178l43 -79h2c13 27 28 53 43 79l106 178c27 45 46 54 95 54h47v-86h-20c-19 0 -34 -8 -44 -25l-178 -287v-308z" />
    <glyph glyph-name="Z" unicode="Z" horiz-adv-x="600" 
d="M506 0h-474v66l348 490c16 23 35 47 46 58l7 7v2c-13 -2 -30 -3 -53 -3h-227c-15 0 -22 -7 -22 -22v-45h-91v89c0 45 19 64 64 64h452v-65l-348 -491c-16 -23 -37 -47 -46 -56l-7 -8v-2c13 1 30 2 53 2h249c15 0 22 7 22 22v45h91v-89c0 -45 -19 -64 -64 -64z" />
    <glyph glyph-name="bracketleft" unicode="[" horiz-adv-x="282" 
d="M78 -31v702c0 45 19 64 64 64h102v-73h-59c-15 0 -22 -7 -22 -22v-639c0 -15 7 -22 22 -22h59v-74h-102c-45 0 -64 19 -64 64z" />
    <glyph glyph-name="backslash" unicode="\" horiz-adv-x="413" 
d="M376 -42h-86l-254 786h86z" />
    <glyph glyph-name="bracketright" unicode="]" horiz-adv-x="282" 
d="M39 -95v74h58c15 0 22 7 22 22v639c0 15 -7 22 -22 22h-58v73h101c45 0 65 -19 65 -64v-702c0 -45 -20 -64 -65 -64h-101z" />
    <glyph glyph-name="asciicircum" unicode="^" horiz-adv-x="613" 
d="M157 247h-88l200 459h63l200 -459h-88l-144 352z" />
    <glyph glyph-name="underscore" unicode="_" horiz-adv-x="565" 
d="M14 -78v78h538v-78h-538z" />
    <glyph glyph-name="grave" unicode="`" horiz-adv-x="379" 
d="M254 755h-76l-95 127h98z" />
    <glyph glyph-name="a" unicode="a" horiz-adv-x="529" 
d="M28 138c0 118 102 177 306 177h22v7c0 85 -33 119 -112 119c-19 0 -37 -3 -56 -9c-18 -5 -27 -15 -27 -30v-29h-92v51c0 37 30 66 70 78c41 12 74 16 103 16c156 0 211 -73 211 -198v-215c0 -15 7 -22 22 -22h41v-83h-92c-41 0 -62 19 -62 58l1 30h-2
c2 0 -43 -100 -163 -100c-47 0 -87 13 -120 40s-50 64 -50 110zM125 147c0 -44 35 -82 95 -82c40 0 73 17 98 50s38 70 38 111v19h-26c-137 0 -205 -33 -205 -98z" />
    <glyph glyph-name="b" unicode="b" horiz-adv-x="583" 
d="M159 0h-92v601c0 15 -7 22 -22 22h-41v83h95c45 0 65 -19 65 -64v-165l-2 -42h2c3 4 4 10 23 29c24 24 68 54 139 54c67 0 121 -24 162 -73s61 -113 61 -192s-22 -143 -65 -192s-99 -73 -166 -73c-90 0 -139 53 -154 76l-5 9h-2c1 -11 2 -23 2 -38v-35zM161 251
c0 -49 12 -91 37 -127c25 -35 61 -53 106 -53c41 0 76 16 104 48c28 33 42 77 42 133c0 109 -58 181 -143 181c-83 0 -146 -61 -146 -182z" />
    <glyph glyph-name="c" unicode="c" horiz-adv-x="530" 
d="M33 253c0 75 25 138 75 189c51 51 116 76 197 76c62 0 182 -26 182 -111v-52h-88v28c0 17 -10 29 -31 38c-20 9 -41 14 -63 14c-50 0 -92 -17 -125 -51c-33 -33 -49 -77 -49 -130c0 -55 17 -99 52 -132c35 -32 77 -48 127 -48c28 0 55 6 81 17c27 12 46 24 58 35l18 18
l41 -69c-4 -5 -7 -10 -34 -30c-33 -26 -90 -57 -171 -57c-79 0 -144 25 -195 75c-50 50 -75 113 -75 190z" />
    <glyph glyph-name="d" unicode="d" horiz-adv-x="601" 
d="M35 253c0 80 21 144 63 192c43 49 98 73 165 73c94 0 137 -50 151 -70l5 -8h2c-1 10 -1 21 -1 34v127c0 15 -7 22 -22 22h-41v83h95c45 0 65 -19 65 -64v-537c0 -15 7 -22 22 -22h41v-83h-93c-41 0 -62 18 -62 54l1 26h-2c-3 -5 -4 -11 -23 -32c-24 -27 -68 -60 -143 -60
c-68 0 -122 24 -163 73c-40 49 -60 113 -60 192zM133 253c0 -109 59 -181 144 -181c83 0 145 61 145 182c0 49 -12 92 -37 127s-60 53 -106 53c-41 0 -76 -16 -104 -49s-42 -77 -42 -132z" />
    <glyph glyph-name="e" unicode="e" horiz-adv-x="539" 
d="M33 253c0 79 24 143 72 192s109 73 182 73c69 0 122 -23 160 -68c39 -45 58 -101 58 -169c0 -11 -1 -25 -3 -41h-369c3 -53 21 -94 54 -124c33 -29 74 -44 121 -44c67 0 114 35 140 52l9 7l41 -71c-11 -9 -25 -19 -40 -28s-38 -19 -68 -29c-29 -10 -59 -15 -88 -15
c-79 0 -143 25 -194 75c-50 51 -75 114 -75 190zM137 310h271c-3 84 -54 133 -123 133c-76 0 -135 -50 -148 -133z" />
    <glyph glyph-name="f" unicode="f" horiz-adv-x="316" 
d="M182 0h-97v428h-63v78h63v17c0 64 21 113 48 138c45 42 103 50 143 50l37 -3v-83c-7 1 -15 2 -25 2c-38 0 -106 -12 -106 -106v-15h120v-78h-120v-428z" />
    <glyph glyph-name="g" unicode="g" horiz-adv-x="594" 
d="M82 -168l32 78c42 -23 88 -34 138 -34c96 0 161 45 161 141v34l1 32h-2c-31 -51 -81 -77 -150 -77s-124 24 -165 73s-62 111 -62 186s20 135 59 182c40 47 94 71 163 71c100 0 146 -50 159 -71l4 -8h2c-1 5 -1 11 -1 16c0 34 19 51 57 51h94v-83h-41
c-15 0 -22 -7 -22 -20v-382c0 -167 -126 -231 -255 -231c-60 0 -117 14 -172 42zM281 90c79 0 134 51 134 174c0 113 -48 170 -143 170c-87 0 -138 -63 -138 -167c0 -107 56 -177 147 -177z" />
    <glyph glyph-name="h" unicode="h" horiz-adv-x="605" 
d="M164 0h-97v601c0 15 -7 22 -22 22h-41v83h95c43 0 65 -21 65 -62v-197l-2 -42h2c13 29 36 55 69 78s72 35 118 35c116 0 174 -65 174 -194v-219c0 -15 7 -22 22 -22h41v-83h-96c-45 0 -64 19 -64 64v238c0 81 -20 127 -95 127c-76 0 -140 -52 -161 -125
c-5 -18 -8 -40 -8 -67v-237z" />
    <glyph glyph-name="i" unicode="i" horiz-adv-x="265" 
d="M173 605h-87v101h87v-101zM84 64v337c0 15 -7 22 -22 22h-41v83h95c45 0 65 -19 65 -64v-337c0 -15 7 -22 22 -22h41v-83h-96c-45 0 -64 19 -64 64z" />
    <glyph glyph-name="j" unicode="j" horiz-adv-x="245" 
d="M173 605h-87v101h87v-101zM84 -11v412c0 15 -7 22 -22 22h-41v83h96c45 0 64 -19 64 -64v-459c0 -64 -22 -114 -50 -139c-45 -42 -104 -51 -144 -50l-34 2v83c6 -1 13 -1 22 -1c39 0 109 12 109 111z" />
    <glyph glyph-name="k" unicode="k" horiz-adv-x="513" 
d="M164 0h-97v601c0 15 -7 22 -22 22h-41v83h95c47 0 65 -14 65 -58v-328h45c24 0 41 7 52 22l117 164h112l-138 -188c-13 -19 -27 -32 -34 -36l-4 -2v-2c11 -4 23 -17 34 -38l75 -137c7 -13 22 -20 44 -20h30v-83h-70c-47 0 -62 8 -83 47l-93 170c-7 14 -24 21 -50 21h-37
v-238z" />
    <glyph glyph-name="l" unicode="l" horiz-adv-x="249" 
d="M67 64v537c0 15 -7 22 -22 22h-40v83h95c45 0 64 -19 64 -64v-537c0 -15 7 -22 22 -22h41v-83h-95c-45 0 -65 19 -65 64z" />
    <glyph glyph-name="m" unicode="m" horiz-adv-x="934" 
d="M182 0h-97v401c0 15 -7 22 -22 22h-41v83h93c43 0 64 -19 64 -56v-19l-1 -29h2c13 31 35 58 67 81c33 23 68 35 106 35c84 0 135 -38 153 -115h2c14 32 37 59 70 81c33 23 70 34 109 34c111 0 167 -65 167 -194v-219c0 -15 7 -22 22 -22h41v-83h-96c-45 0 -64 19 -64 64
v239c0 81 -20 127 -89 127c-33 0 -63 -13 -89 -38s-43 -56 -52 -92c-6 -21 -9 -44 -9 -69v-231h-97v303c0 80 -18 127 -87 127s-125 -58 -145 -134c-5 -19 -7 -40 -7 -65v-231z" />
    <glyph glyph-name="n" unicode="n" horiz-adv-x="623" 
d="M182 0h-97v401c0 15 -7 22 -22 22h-41v83h93c43 0 64 -19 64 -56v-19l-2 -29h2c13 29 36 55 68 79c33 25 74 37 123 37c115 0 173 -65 173 -194v-219c0 -15 7 -22 22 -22h41v-83h-96c-45 0 -64 19 -64 64v238c0 81 -20 127 -95 127c-76 0 -139 -51 -160 -124
c-6 -17 -9 -40 -9 -68v-237z" />
    <glyph glyph-name="o" unicode="o" horiz-adv-x="611" 
d="M305 518c77 0 141 -25 194 -75s79 -113 79 -189s-27 -139 -80 -190s-117 -76 -193 -76s-140 25 -193 76s-79 114 -79 190s26 139 79 189s117 75 193 75zM305 72c49 0 90 17 123 51c34 35 51 78 51 131c0 52 -17 95 -51 129c-33 34 -74 51 -123 51c-48 0 -89 -17 -123 -51
s-51 -77 -51 -129s17 -95 51 -130s75 -52 123 -52z" />
    <glyph glyph-name="p" unicode="p" horiz-adv-x="601" 
d="M182 -200h-97v601c0 15 -7 22 -22 22h-41v83h91c41 0 62 -17 62 -51l-1 -27h2c3 5 4 11 23 31c24 28 70 59 145 59c68 0 122 -24 162 -73c41 -49 61 -113 61 -192s-22 -143 -65 -192s-98 -73 -165 -73c-87 0 -137 51 -150 72l-5 9h-2c1 -12 2 -27 2 -44v-225zM179 251
c0 -49 13 -91 38 -127c26 -35 61 -53 106 -53c83 0 145 70 145 181c0 109 -58 181 -143 181c-83 0 -146 -61 -146 -182z" />
    <glyph glyph-name="q" unicode="q" horiz-adv-x="602" 
d="M35 253c0 80 21 144 63 192c43 49 98 73 165 73c94 0 145 -54 158 -77l5 -9h2c-1 7 -1 16 -1 26c0 32 21 48 62 48h91v-83h-41c-15 0 -22 -7 -22 -22v-601h-97v229l2 44h-2c-3 -4 -4 -10 -23 -30c-24 -24 -67 -55 -139 -55c-68 0 -122 24 -163 73c-40 49 -60 113 -60 192
zM133 253c0 -109 59 -181 144 -181c83 0 145 61 145 182c0 49 -12 92 -37 127s-60 53 -106 53c-41 0 -76 -16 -104 -49s-42 -77 -42 -132z" />
    <glyph glyph-name="r" unicode="r" horiz-adv-x="376" 
d="M182 0h-97v401c0 15 -7 22 -22 22h-41v83h93c43 0 64 -20 64 -59v-32l-2 -35h2c25 77 85 132 160 132l26 -2v-96c-9 2 -18 3 -28 3c-64 0 -119 -44 -143 -119c-8 -26 -12 -56 -12 -91v-207z" />
    <glyph glyph-name="s" unicode="s" horiz-adv-x="449" 
d="M36 68l-8 9l49 65c3 -4 7 -9 27 -26c28 -23 70 -49 127 -49c49 0 87 24 87 65c0 33 -44 58 -97 78c-77 29 -179 72 -178 166c0 92 79 142 188 142c39 0 77 -8 112 -24c36 -15 54 -40 54 -74v-48h-87v25c0 27 -40 43 -76 43c-59 0 -95 -21 -95 -60c0 -35 43 -60 98 -80
c79 -27 179 -65 179 -164c0 -45 -18 -81 -53 -108s-79 -40 -133 -40c-108 0 -172 56 -194 80z" />
    <glyph glyph-name="t" unicode="t" horiz-adv-x="328" 
d="M83 185v243h-66v78h68v139h95v-139h122v-78h-122v-232c0 -101 72 -114 108 -114l23 2v-86c-9 -1 -21 -2 -34 -2c-32 0 -59 2 -96 18c-51 22 -98 70 -98 171z" />
    <glyph glyph-name="u" unicode="u" horiz-adv-x="617" 
d="M80 182v219c0 15 -7 22 -22 22h-41v83h95c45 0 64 -19 64 -62v-240c0 -80 22 -126 95 -126c50 0 90 19 120 56s45 82 45 135v237h97v-401c0 -15 7 -22 22 -22h41v-83h-93c-43 0 -64 19 -64 56v19l1 29h-2c-13 -29 -36 -56 -69 -80s-72 -36 -117 -36
c-115 0 -172 62 -172 194z" />
    <glyph glyph-name="v" unicode="v" horiz-adv-x="534" 
d="M323 0h-112l-156 403c-5 13 -15 20 -31 20h-10v83h50c45 0 62 -11 77 -51l109 -291l18 -66h2c5 25 11 47 18 66l108 291c15 40 33 51 77 51h47v-83h-10c-17 0 -27 -7 -32 -20z" />
    <glyph glyph-name="w" unicode="w" horiz-adv-x="845" 
d="M303 0h-109l-133 403c-5 13 -16 20 -32 20h-14v83h61c45 0 63 -11 76 -54l89 -301l12 -54h2c4 19 9 37 14 54l109 353h90l109 -353l13 -54h2c3 19 8 37 13 54l89 301c13 43 30 54 75 54h61v-83h-14c-16 0 -26 -7 -31 -20l-133 -403h-109l-105 325l-14 55h-2
c-4 -19 -9 -38 -14 -55z" />
    <glyph glyph-name="x" unicode="x" horiz-adv-x="505" 
d="M130 0h-110l171 260l-97 144c-9 13 -23 19 -42 19h-29v83h62c47 0 62 -8 89 -51l61 -98l16 -32h2c6 13 12 23 17 32l61 98c27 43 42 51 89 51h62v-83h-29c-19 0 -33 -6 -42 -18l-97 -145l171 -260h-110l-106 165l-16 27h-2l-15 -27z" />
    <glyph glyph-name="y" unicode="y" horiz-adv-x="543" 
d="M121 -210c-44 0 -89 21 -106 38l-13 12l40 70c1 -4 33 -36 74 -36c39 0 68 24 89 73l23 55l-173 401c-6 13 -16 20 -31 20h-13v83h57c41 0 57 -11 73 -51l114 -285l18 -61h2c5 23 11 44 17 61l106 285c13 40 32 51 73 51h58v-83h-13c-15 0 -26 -7 -32 -20l-199 -494
c-32 -77 -92 -119 -164 -119z" />
    <glyph glyph-name="z" unicode="z" horiz-adv-x="515" 
d="M421 0h-384v56l259 320l41 47v2c-10 -1 -26 -2 -48 -2h-139c-15 0 -22 -7 -22 -22v-34h-89v75c0 45 20 64 65 64h361v-56l-259 -321l-42 -46v-2c11 1 27 2 49 2h161c15 0 22 7 22 22v34h89v-75c0 -45 -19 -64 -64 -64z" />
    <glyph glyph-name="braceleft" unicode="{" horiz-adv-x="323" 
d="M110 77v96c0 80 -54 105 -76 107l-9 2v86s85 7 85 111v84c0 60 19 106 42 129c41 38 90 46 120 45l23 -1v-74h-14c-17 0 -31 -4 -52 -17c-20 -12 -34 -43 -34 -88v-103c0 -77 -52 -115 -73 -124l-8 -3v-2c-1 0 81 -25 81 -127v-115c0 -45 14 -76 34 -88
c21 -13 35 -17 52 -17h14v-74c-6 -1 -14 -2 -23 -2c-24 0 -45 1 -78 16c-44 20 -84 64 -84 159z" />
    <glyph glyph-name="bar" unicode="|" horiz-adv-x="239" 
d="M162 -159h-85v951h85v-951z" />
    <glyph glyph-name="braceright" unicode="}" horiz-adv-x="323" 
d="M28 -96v74h14c17 0 31 4 51 17c21 12 35 43 35 88v115c0 81 51 116 72 124l9 3v2c1 0 -81 27 -81 127v103c0 45 -14 76 -35 88c-20 13 -34 17 -51 17h-14v74c6 1 14 1 23 1c24 0 45 -1 77 -16c45 -20 85 -63 85 -158v-84c0 -81 54 -107 76 -109l9 -2v-86s-85 -7 -85 -109
v-96c0 -60 -19 -107 -43 -130c-39 -38 -89 -47 -119 -45z" />
    <glyph glyph-name="asciitilde" unicode="~" horiz-adv-x="591" 
d="M138 204h-80c0 113 52 169 140 169c47 0 87 -25 107 -49s52 -49 85 -49c47 0 66 43 66 94h79c0 -113 -46 -169 -139 -169c-47 0 -87 24 -107 48c-20 25 -52 49 -85 49c-47 0 -66 -44 -66 -93z" />
    <glyph glyph-name="uni00A0" unicode="&#xa0;" horiz-adv-x="269" 
 />
    <glyph glyph-name="exclamdown" unicode="&#xa1;" horiz-adv-x="243" 
d="M171 409h-100v97h100v-97zM172 -200h-101l7 512h87z" />
    <glyph glyph-name="cent" unicode="&#xa2;" 
d="M336 -38h-73v111c-63 9 -112 39 -149 91c-37 53 -55 116 -55 189c0 74 18 137 55 189c37 53 86 83 149 92v110h73v-110c84 -13 145 -64 182 -155l-89 -34c-27 66 -69 99 -126 99c-91 0 -145 -79 -145 -191c0 -115 53 -190 145 -190c57 0 99 33 126 99l89 -35
c-35 -81 -97 -145 -182 -154v-111z" />
    <glyph glyph-name="sterling" unicode="&#xa3;" 
d="M473 0h-427v86h61v233h-44v70h44v136c0 55 20 101 61 138s93 55 156 55c60 0 121 -27 148 -48l19 -16l-57 -69c-32 29 -68 43 -109 43c-72 0 -118 -46 -118 -107v-132h184v-70h-184v-233h216c15 0 22 7 22 22v45h92v-89c0 -45 -19 -64 -64 -64z" />
    <glyph glyph-name="currency" unicode="&#xa4;" horiz-adv-x="617" 
d="M228 0h-100v170h-71v70h71v70h-71v79h71v237h-65v80h297c66 0 119 -18 160 -53s62 -83 62 -144s-21 -110 -62 -146c-41 -35 -94 -53 -160 -53h-132v-70h250v-70h-250v-170zM228 626v-237h116c84 0 135 48 135 120s-50 117 -134 117h-117z" />
    <glyph glyph-name="yen" unicode="&#xa5;" horiz-adv-x="617" 
d="M258 204h-160v63h160v41l-27 44h-136v63h94v2l-112 181c-9 15 -23 22 -44 22h-17v86h44c51 0 71 -9 98 -54l106 -178l43 -78h2c13 26 28 52 43 78l107 178c25 45 46 54 97 54h44v-86h-17c-21 0 -36 -7 -45 -22l-111 -181v-2h91v-63h-132l-28 -44v-41h160v-63h-160v-204
h-100v204z" />
    <glyph glyph-name="section" unicode="&#xa7;" horiz-adv-x="437" 
d="M217 111h-79l-71 390c-4 15 -6 31 -6 46c0 100 73 171 189 171c52 0 104 -22 125 -38l16 -13l-46 -64c-27 23 -58 34 -95 34c-63 0 -106 -36 -106 -101c0 -14 2 -27 5 -40zM62 -24l-16 13l44 67c28 -25 60 -37 97 -37c61 0 106 38 106 105c0 13 -2 28 -6 45l-66 376h79
l70 -390c3 -13 5 -28 5 -45c0 -51 -17 -92 -51 -124s-80 -48 -137 -48c-52 0 -104 21 -125 38z" />
    <glyph glyph-name="dieresis" unicode="&#xa8;" horiz-adv-x="501" 
d="M380 781h-73v101h73v-101zM216 781h-74v101h74v-101z" />
    <glyph glyph-name="copyright" unicode="&#xa9;" horiz-adv-x="803" 
d="M399 718c100 0 185 -36 254 -107c70 -71 105 -157 105 -258s-35 -188 -105 -259c-69 -71 -154 -106 -254 -106c-98 0 -182 35 -251 106s-104 158 -104 259s35 187 104 258s153 107 251 107zM399 56c81 0 148 29 203 86s83 128 83 211s-28 154 -83 211s-122 86 -203 86
c-79 0 -146 -29 -200 -86s-81 -128 -81 -211s27 -154 81 -211s121 -86 200 -86zM210 352c0 55 18 102 54 141c37 39 84 59 143 59c89 0 144 -62 157 -89l6 -10l-61 -33l-12 17c-5 7 -16 17 -33 28c-17 12 -36 18 -55 18c-75 0 -124 -59 -124 -131c0 -75 47 -131 124 -131
c40 0 77 27 90 47l10 16l61 -33c-3 -5 -5 -11 -25 -35c-24 -30 -70 -64 -138 -64c-59 0 -106 19 -143 58c-36 39 -54 87 -54 142z" />
    <glyph glyph-name="ordfeminine" unicode="&#xaa;" horiz-adv-x="440" 
d="M176 383c-60 0 -109 38 -109 99c0 71 61 107 184 107h14c-1 49 -18 66 -61 66c-29 0 -43 -6 -43 -17v-19h-69v40c0 50 82 57 113 57c88 0 132 -42 132 -126v-126c0 -7 3 -10 10 -10h28v-65h-58c-28 0 -43 12 -46 37l-1 10h-2c-2 -4 -5 -9 -10 -15c-8 -12 -43 -38 -82 -38
zM190 442c44 0 72 43 75 96h-11c-75 0 -113 -18 -113 -53c0 -24 18 -43 49 -43zM378 265h-312v57h312v-57z" />
    <glyph glyph-name="guillemotleft" unicode="&#xab;" horiz-adv-x="549" 
d="M407 77l-164 205l164 206h97l-164 -206l164 -205h-97zM302 77h-97l-164 205l164 206h97l-164 -206z" />
    <glyph glyph-name="logicalnot" unicode="&#xac;" horiz-adv-x="604" 
d="M458 340h-396v78h477v-267h-81v189z" />
    <glyph glyph-name="uni00AD" unicode="&#xad;" horiz-adv-x="410" 
d="M351 242h-292v86h292v-86z" />
    <glyph glyph-name="registered" unicode="&#xae;" horiz-adv-x="803" 
d="M399 718c100 0 185 -36 254 -107c70 -71 105 -157 105 -258s-35 -188 -105 -259c-69 -71 -154 -106 -254 -106c-98 0 -182 35 -251 106s-104 158 -104 259s35 187 104 258s153 107 251 107zM399 56c81 0 148 29 203 86s83 128 83 211s-28 154 -83 211s-122 86 -203 86
c-79 0 -146 -29 -200 -86s-81 -128 -81 -211s27 -154 81 -211s121 -86 200 -86zM348 166h-71v323h-33v54h179c72 0 119 -46 119 -115c0 -53 -34 -91 -69 -100v-2c8 -2 15 -9 21 -20l39 -75c5 -9 13 -13 24 -13h11v-52h-39c-29 0 -42 4 -54 28l-51 99c-7 13 -18 19 -35 19
h-41v-146zM348 489v-125h60c39 0 61 24 61 64c0 39 -23 61 -60 61h-61z" />
    <glyph glyph-name="overscore" unicode="&#xaf;" horiz-adv-x="464" 
d="M362 784h-254v68h254v-68z" />
    <glyph glyph-name="degree" unicode="&#xb0;" horiz-adv-x="384" 
d="M192 422c-42 0 -78 14 -108 43c-29 29 -44 64 -44 105s15 75 44 104c30 29 66 44 108 44c41 0 77 -15 107 -44s45 -63 45 -104s-15 -76 -45 -105s-66 -43 -107 -43zM139 517c29 -28 77 -28 105 0c29 29 29 77 0 106c-28 29 -76 29 -105 0c-28 -29 -28 -77 0 -106z" />
    <glyph glyph-name="plusminus" unicode="&#xb1;" 
d="M248 246h-224v78h224v246h82v-246h223v-78h-223v-246h-82v246zM40 -173v78h497v-78h-497z" />
    <glyph glyph-name="twosuperior" unicode="&#xb2;" horiz-adv-x="376" 
d="M296 266h-218c-36 0 -48 12 -48 59c0 41 13 74 41 99c28 27 46 38 83 59c21 11 36 21 47 28c21 15 45 43 45 74c0 35 -26 59 -66 59c-33 0 -58 -16 -58 -35v-24h-71v44c0 27 14 48 43 63s58 23 87 23c84 0 142 -53 142 -130c0 -41 -13 -72 -45 -100
c-15 -13 -28 -23 -38 -30l-47 -27c-19 -11 -33 -19 -43 -26c-20 -13 -42 -38 -42 -63c0 -4 3 -6 9 -6h148c4 0 6 2 6 7v34h71v-62c0 -31 -15 -46 -46 -46z" />
    <glyph glyph-name="threesuperior" unicode="&#xb3;" horiz-adv-x="376" 
d="M187 258c-28 0 -55 7 -81 20s-45 27 -57 40l-18 20l52 49l14 -16c6 -7 18 -15 36 -26s36 -16 54 -16c41 0 76 31 76 72s-36 67 -81 67h-35l-12 44l85 106l21 23v2c-11 -1 -22 -2 -33 -2h-76c-6 0 -9 -3 -9 -10v-26h-71v53c0 36 11 48 47 48h233v-51l-105 -127
c61 -8 113 -60 113 -128c0 -41 -15 -75 -45 -102s-66 -40 -108 -40z" />
    <glyph glyph-name="acute" unicode="&#xb4;" horiz-adv-x="388" 
d="M195 755h-76l73 127h98z" />
    <glyph glyph-name="mu" unicode="&#xb5;" horiz-adv-x="655" 
d="M191 -200h-86v601c0 15 -7 22 -22 22h-41v83h95c45 0 64 -19 64 -62v-240c0 -80 22 -126 95 -126c50 0 90 19 120 56s45 82 45 135v237h97v-401c0 -15 7 -22 22 -22h41v-83h-93c-43 0 -64 19 -64 56v19l1 29h-2c-3 -7 -5 -13 -26 -40c-26 -35 -77 -76 -160 -76
c-40 0 -72 13 -83 24l-8 7h-2c5 -33 7 -59 7 -78v-141z" />
    <glyph glyph-name="mu" unicode="&#x3bc;" horiz-adv-x="655" 
d="M191 -200h-86v601c0 15 -7 22 -22 22h-41v83h95c45 0 64 -19 64 -62v-240c0 -80 22 -126 95 -126c50 0 90 19 120 56s45 82 45 135v237h97v-401c0 -15 7 -22 22 -22h41v-83h-93c-43 0 -64 19 -64 56v19l1 29h-2c-3 -7 -5 -13 -26 -40c-26 -35 -77 -76 -160 -76
c-40 0 -72 13 -83 24l-8 7h-2c5 -33 7 -59 7 -78v-141z" />
    <glyph glyph-name="paragraph" unicode="&#xb6;" horiz-adv-x="592" 
d="M347 -50h-75v291c-65 0 -120 22 -167 67s-70 101 -70 166s23 119 69 164c47 45 103 68 168 68h271v-86h-196v-670zM484 -50h-75v613h75v-613z" />
    <glyph glyph-name="middot" unicode="&#xb7;" horiz-adv-x="217" 
d="M158 239h-99v103h99v-103z" />
    <glyph glyph-name="cedilla" unicode="&#xb8;" horiz-adv-x="416" 
d="M149 -87l-17 -1l28 111l49 -10v-8l-11 -55c41 -5 71 -32 71 -73c0 -57 -43 -84 -102 -84c-19 0 -39 2 -48 5l-7 2v58c13 -5 28 -7 43 -7c31 0 47 10 47 31s-18 31 -53 31z" />
    <glyph glyph-name="onesuperior" unicode="&#xb9;" horiz-adv-x="376" 
d="M329 266h-261v67h93v241l1 33h-2c-3 -7 -7 -12 -12 -17l-40 -38l-46 49l109 105h66v-373h92v-67z" />
    <glyph glyph-name="ordmasculine" unicode="&#xba;" horiz-adv-x="466" 
d="M61 552c0 47 17 87 50 118s74 47 121 47c48 0 89 -16 122 -47s50 -71 50 -118c0 -49 -17 -89 -50 -121c-33 -31 -74 -47 -122 -47s-89 16 -122 47c-33 32 -49 72 -49 121zM232 449c56 0 99 43 99 103c0 59 -43 101 -99 101c-55 0 -98 -42 -98 -101c0 -60 43 -103 98 -103
zM390 265h-313v57h313v-57z" />
    <glyph glyph-name="guillemotright" unicode="&#xbb;" horiz-adv-x="549" 
d="M344 77h-97l164 205l-164 206h97l164 -206zM142 77h-97l164 205l-164 206h97l164 -206z" />
    <glyph glyph-name="onequarter" unicode="&#xbc;" horiz-adv-x="874" 
d="M341 0h-80l287 706h80zM312 266h-258v67h93v241l1 33h-2c-3 -7 -7 -12 -12 -17l-40 -38l-46 49l109 105h66v-373h89v-67zM696 113h-203v46l192 282h87v-261h66v-67h-66v-113h-76v113zM575 181v-2c9 1 15 1 20 1h102v137l1 36h-2c-4 -9 -9 -18 -15 -27l-92 -129z" />
    <glyph glyph-name="onehalf" unicode="&#xbd;" horiz-adv-x="866" 
d="M327 0h-81l287 706h80zM309 266h-258v67h93v241l1 33h-2c-3 -7 -7 -12 -12 -17l-40 -38l-46 49l108 105h67v-373h89v-67zM516 59c0 41 13 73 41 100s44 36 83 59c29 16 43 25 63 41c20 17 29 36 29 60c0 35 -26 60 -66 60c-33 0 -58 -16 -58 -35v-24h-71v43
c0 27 14 48 43 63s58 23 87 23c84 0 142 -53 142 -129c0 -41 -13 -73 -45 -101c-15 -13 -28 -23 -38 -30l-47 -27c-19 -11 -33 -19 -43 -26c-20 -13 -42 -38 -42 -62c0 -5 3 -7 9 -7h148c4 0 6 2 6 7v34h71v-61c0 -31 -15 -47 -46 -47h-218c-36 0 -48 14 -48 59z" />
    <glyph glyph-name="threequarters" unicode="&#xbe;" horiz-adv-x="877" 
d="M343 0h-81l287 706h80zM196 258c-28 0 -55 7 -81 20s-45 27 -57 40l-18 20l52 49l14 -16c6 -7 18 -15 36 -26s36 -16 53 -16c43 0 77 31 77 72s-36 67 -81 67h-35l-12 44l84 106l22 23v2c-11 -1 -22 -2 -33 -2h-76c-7 0 -10 -3 -10 -10v-26h-70v53c0 36 11 48 47 48h233
v-51l-105 -127c61 -8 113 -60 113 -128c0 -41 -15 -75 -45 -102s-66 -40 -108 -40zM699 113h-203v46l192 282h87v-261h66v-67h-66v-113h-76v113zM578 181v-2c9 1 15 1 20 1h102v137l1 36h-2c-4 -9 -9 -18 -15 -27l-91 -129z" />
    <glyph glyph-name="questiondown" unicode="&#xbf;" horiz-adv-x="457" 
d="M314 409h-100v97h100v-97zM40 -28c0 61 27 111 62 143c51 49 115 90 115 160v37h94v-43c0 -56 -27 -104 -60 -136c-48 -44 -109 -89 -109 -153c0 -56 49 -100 114 -100c37 0 80 19 100 32l14 11l53 -69c-4 -4 -7 -7 -30 -22c-30 -19 -78 -42 -144 -42
c-59 0 -108 17 -149 51c-40 33 -60 77 -60 131z" />
    <glyph glyph-name="Agrave" unicode="&#xc0;" horiz-adv-x="665" 
d="M67 0h-55v86h14c17 0 28 7 33 22l221 598h105l221 -598c5 -15 16 -22 33 -22h14v-86h-55c-49 0 -66 11 -83 58l-53 145h-259l-53 -145c-17 -47 -34 -58 -83 -58zM304 502l-77 -215h211l-77 215l-28 99h-2c-10 -41 -19 -74 -27 -99zM369 755h-76l-95 127h98z" />
    <glyph glyph-name="Aacute" unicode="&#xc1;" horiz-adv-x="665" 
d="M67 0h-55v86h14c17 0 28 7 33 22l221 598h105l221 -598c5 -15 16 -22 33 -22h14v-86h-55c-49 0 -66 11 -83 58l-53 145h-259l-53 -145c-17 -47 -34 -58 -83 -58zM304 502l-77 -215h211l-77 215l-28 99h-2c-10 -41 -19 -74 -27 -99zM369 755h-76l73 127h98z" />
    <glyph glyph-name="Acircumflex" unicode="&#xc2;" horiz-adv-x="665" 
d="M67 0h-55v86h14c17 0 28 7 33 22l221 598h105l221 -598c5 -15 16 -22 33 -22h14v-86h-55c-49 0 -66 11 -83 58l-53 145h-259l-53 -145c-17 -47 -34 -58 -83 -58zM304 502l-77 -215h211l-77 215l-28 99h-2c-10 -41 -19 -74 -27 -99zM279 755h-78l87 127h89l88 -127h-79
l-52 80h-2z" />
    <glyph glyph-name="Atilde" unicode="&#xc3;" horiz-adv-x="665" 
d="M67 0h-55v86h14c17 0 28 7 33 22l221 598h105l221 -598c5 -15 16 -22 33 -22h14v-86h-55c-49 0 -66 11 -83 58l-53 145h-259l-53 -145c-17 -47 -34 -58 -83 -58zM304 502l-77 -215h211l-77 215l-28 99h-2c-10 -41 -19 -74 -27 -99zM228 756h-66c0 85 34 127 103 127
c60 0 93 -68 128 -68c28 0 41 32 41 65h65c0 -85 -34 -127 -103 -127c-59 0 -92 68 -128 68c-28 0 -40 -30 -40 -65z" />
    <glyph glyph-name="Adieresis" unicode="&#xc4;" horiz-adv-x="665" 
d="M67 0h-55v86h14c17 0 28 7 33 22l221 598h105l221 -598c5 -15 16 -22 33 -22h14v-86h-55c-49 0 -66 11 -83 58l-53 145h-259l-53 -145c-17 -47 -34 -58 -83 -58zM304 502l-77 -215h211l-77 215l-28 99h-2c-10 -41 -19 -74 -27 -99zM452 781h-73v101h73v-101zM288 781h-74
v101h74v-101z" />
    <glyph glyph-name="Aring" unicode="&#xc5;" horiz-adv-x="665" 
d="M67 0h-55v86h14c17 0 28 7 33 22l221 598h105l221 -598c5 -15 16 -22 33 -22h14v-86h-55c-49 0 -66 11 -83 58l-53 145h-259l-53 -145c-17 -47 -34 -58 -83 -58zM304 502l-77 -215h211l-77 215l-28 99h-2c-10 -41 -19 -74 -27 -99zM333 743c-45 0 -81 30 -81 74
c0 45 36 75 81 75c44 0 81 -30 81 -75c0 -44 -37 -74 -81 -74zM367 817c0 46 -68 46 -68 0c-4 -43 72 -43 68 0z" />
    <glyph glyph-name="AE" unicode="&#xc6;" horiz-adv-x="863" 
d="M58 0h-48v86h11c17 0 28 7 34 22l237 598h448c45 0 64 -19 64 -64v-89h-91v45c0 15 -7 22 -22 22h-195v-221h242v-86h-242v-205c0 -15 9 -22 26 -22h196c15 0 22 7 22 22v45h92v-89c0 -45 -19 -64 -64 -64h-301c-52 0 -72 15 -72 64v249h-159l-95 -255
c-17 -47 -34 -58 -83 -58zM352 620l-83 -221h126v221h-43z" />
    <glyph glyph-name="Ccedilla" unicode="&#xc7;" horiz-adv-x="698" 
d="M345 -87l-18 -1l20 78c-93 10 -168 49 -226 118c-57 69 -86 153 -86 251c0 102 34 187 101 256c68 69 152 103 253 103c96 0 266 -41 266 -153v-69h-92v40c0 27 -18 49 -55 65s-76 24 -117 24c-71 0 -131 -25 -179 -74s-72 -113 -72 -192c0 -77 24 -143 72 -197
c48 -53 108 -80 180 -80c41 0 81 8 118 24c38 16 65 32 82 48l26 23l54 -71c-5 -7 -10 -13 -45 -40c-17 -13 -36 -24 -55 -35c-39 -20 -106 -42 -171 -43l-7 -38c41 -5 71 -32 71 -73c0 -57 -45 -84 -102 -84c-19 0 -39 2 -48 5l-7 2v58c13 -5 28 -7 43 -7c31 0 47 10 47 31
s-18 31 -53 31z" />
    <glyph glyph-name="Egrave" unicode="&#xc8;" horiz-adv-x="571" 
d="M98 64v556h-65v86h416c45 0 64 -19 64 -64v-89h-92v45c0 15 -7 22 -22 22h-201v-221h248v-86h-248v-205c0 -15 7 -22 22 -22h207c15 0 22 7 22 22v45h91v-89c0 -45 -19 -64 -64 -64h-313c-45 0 -65 19 -65 64zM327 755h-76l-95 127h98z" />
    <glyph glyph-name="Eacute" unicode="&#xc9;" horiz-adv-x="571" 
d="M98 64v556h-65v86h416c45 0 64 -19 64 -64v-89h-92v45c0 15 -7 22 -22 22h-201v-221h248v-86h-248v-205c0 -15 7 -22 22 -22h207c15 0 22 7 22 22v45h91v-89c0 -45 -19 -64 -64 -64h-313c-45 0 -65 19 -65 64zM327 755h-76l73 127h98z" />
    <glyph glyph-name="Ecircumflex" unicode="&#xca;" horiz-adv-x="571" 
d="M98 64v556h-65v86h416c45 0 64 -19 64 -64v-89h-92v45c0 15 -7 22 -22 22h-201v-221h248v-86h-248v-205c0 -15 7 -22 22 -22h207c15 0 22 7 22 22v45h91v-89c0 -45 -19 -64 -64 -64h-313c-45 0 -65 19 -65 64zM237 755h-78l87 127h89l88 -127h-79l-52 80h-2z" />
    <glyph glyph-name="Edieresis" unicode="&#xcb;" horiz-adv-x="571" 
d="M98 64v556h-65v86h416c45 0 64 -19 64 -64v-89h-92v45c0 15 -7 22 -22 22h-201v-221h248v-86h-248v-205c0 -15 7 -22 22 -22h207c15 0 22 7 22 22v45h91v-89c0 -45 -19 -64 -64 -64h-313c-45 0 -65 19 -65 64zM410 781h-73v101h73v-101zM246 781h-74v101h74v-101z" />
    <glyph glyph-name="Igrave" unicode="&#xcc;" horiz-adv-x="318" 
d="M275 0h-233v86h69v534h-69v86h233v-86h-68v-534h68v-86zM196 755h-76l-95 127h98z" />
    <glyph glyph-name="Iacute" unicode="&#xcd;" horiz-adv-x="318" 
d="M275 0h-233v86h69v534h-69v86h233v-86h-68v-534h68v-86zM195 755h-76l73 127h98z" />
    <glyph glyph-name="Icircumflex" unicode="&#xce;" horiz-adv-x="318" 
d="M105 755h-78l87 127h89l88 -127h-79l-52 80h-2zM275 0h-233v86h69v534h-69v86h233v-86h-68v-534h68v-86z" />
    <glyph glyph-name="Idieresis" unicode="&#xcf;" horiz-adv-x="318" 
d="M275 0h-233v86h69v534h-69v86h233v-86h-68v-534h68v-86zM278 781h-73v101h73v-101zM114 781h-74v101h74v-101z" />
    <glyph glyph-name="Eth" unicode="&#xd0;" horiz-adv-x="716" 
d="M100 64v248h-48v82h48v226h-65v86h286c109 0 195 -31 260 -94c65 -62 98 -148 98 -258c0 -111 -33 -197 -98 -260s-151 -94 -260 -94h-156c-45 0 -65 19 -65 64zM200 312v-204c0 -15 7 -22 22 -22h92c161 0 261 97 261 268c0 169 -101 266 -261 266h-114v-226h144v-82
h-144z" />
    <glyph glyph-name="Ntilde" unicode="&#xd1;" horiz-adv-x="757" 
d="M135 0h-101v86h43c15 0 22 7 22 22v598h91l314 -447l59 -96h2c-5 38 -7 70 -7 96v383c0 45 20 64 65 64h100v-86h-43c-15 0 -22 -7 -22 -22v-598h-90l-315 447l-58 96h-2c4 -38 6 -70 6 -96v-383c0 -45 -19 -64 -64 -64zM284 756h-66c0 85 34 127 103 127
c60 0 93 -68 128 -68c28 0 41 32 41 65h65c0 -85 -34 -127 -103 -127c-59 0 -92 68 -128 68c-28 0 -40 -30 -40 -65z" />
    <glyph glyph-name="Ograve" unicode="&#xd2;" horiz-adv-x="793" 
d="M34 358c0 101 35 187 104 256c70 69 156 104 258 104s188 -35 258 -104s105 -155 105 -256c0 -104 -35 -192 -105 -263s-156 -107 -258 -107s-188 36 -258 107c-69 71 -104 159 -104 263zM138 358c0 -77 25 -143 75 -196s111 -80 183 -80s133 27 183 80
c51 53 76 119 76 196c0 75 -25 139 -76 190c-50 51 -111 77 -183 77s-133 -26 -183 -77s-75 -115 -75 -190zM430 755h-76l-95 127h98z" />
    <glyph glyph-name="Oacute" unicode="&#xd3;" horiz-adv-x="793" 
d="M34 358c0 101 35 187 104 256c70 69 156 104 258 104s188 -35 258 -104s105 -155 105 -256c0 -104 -35 -192 -105 -263s-156 -107 -258 -107s-188 36 -258 107c-69 71 -104 159 -104 263zM138 358c0 -77 25 -143 75 -196s111 -80 183 -80s133 27 183 80
c51 53 76 119 76 196c0 75 -25 139 -76 190c-50 51 -111 77 -183 77s-133 -26 -183 -77s-75 -115 -75 -190zM430 755h-76l73 127h98z" />
    <glyph glyph-name="Ocircumflex" unicode="&#xd4;" horiz-adv-x="793" 
d="M340 755h-78l87 127h89l88 -127h-79l-52 80h-2zM34 358c0 101 35 187 104 256c70 69 156 104 258 104s188 -35 258 -104s105 -155 105 -256c0 -104 -35 -192 -105 -263s-156 -107 -258 -107s-188 36 -258 107c-69 71 -104 159 -104 263zM138 358c0 -77 25 -143 75 -196
s111 -80 183 -80s133 27 183 80c51 53 76 119 76 196c0 75 -25 139 -76 190c-50 51 -111 77 -183 77s-133 -26 -183 -77s-75 -115 -75 -190z" />
    <glyph glyph-name="Otilde" unicode="&#xd5;" horiz-adv-x="793" 
d="M289 756h-66c0 85 34 127 103 127c60 0 93 -68 128 -68c28 0 41 32 41 65h65c0 -85 -34 -127 -103 -127c-59 0 -92 68 -128 68c-28 0 -40 -30 -40 -65zM34 358c0 101 35 187 104 256c70 69 156 104 258 104s188 -35 258 -104s105 -155 105 -256
c0 -104 -35 -192 -105 -263s-156 -107 -258 -107s-188 36 -258 107c-69 71 -104 159 -104 263zM138 358c0 -77 25 -143 75 -196s111 -80 183 -80s133 27 183 80c51 53 76 119 76 196c0 75 -25 139 -76 190c-50 51 -111 77 -183 77s-133 -26 -183 -77s-75 -115 -75 -190z" />
    <glyph glyph-name="Odieresis" unicode="&#xd6;" horiz-adv-x="793" 
d="M34 358c0 101 35 187 104 256c70 69 156 104 258 104s188 -35 258 -104s105 -155 105 -256c0 -104 -35 -192 -105 -263s-156 -107 -258 -107s-188 36 -258 107c-69 71 -104 159 -104 263zM138 358c0 -77 25 -143 75 -196s111 -80 183 -80s133 27 183 80
c51 53 76 119 76 196c0 75 -25 139 -76 190c-50 51 -111 77 -183 77s-133 -26 -183 -77s-75 -115 -75 -190zM513 781h-73v101h73v-101zM349 781h-74v101h74v-101z" />
    <glyph glyph-name="multiply" unicode="&#xd7;" 
d="M83 0l-54 55l206 230l-206 230l54 55l205 -228l205 228l55 -55l-208 -230l208 -230l-55 -55l-205 227z" />
    <glyph glyph-name="Oslash" unicode="&#xd8;" horiz-adv-x="793" 
d="M161 -25l-50 34l48 66c-79 69 -125 170 -125 283c0 101 35 187 104 256c70 69 156 104 258 104c68 0 131 -17 188 -51l47 65l49 -34l-47 -65c79 -68 126 -166 126 -275c0 -104 -35 -192 -105 -263s-156 -107 -258 -107c-69 0 -132 18 -188 53zM218 157l309 431
c-41 25 -84 37 -131 37c-72 0 -133 -26 -183 -77s-75 -115 -75 -190c0 -81 27 -148 80 -201zM573 550l-309 -431c40 -25 84 -37 132 -37c72 0 133 27 183 80c51 53 76 119 76 196s-27 141 -82 192z" />
    <glyph glyph-name="Ugrave" unicode="&#xd9;" horiz-adv-x="720" 
d="M91 247v351c0 15 -7 22 -22 22h-43v86h100c45 0 65 -19 65 -64v-391c0 -105 65 -169 169 -169c103 0 169 65 169 170v390c0 45 19 64 64 64h101v-86h-43c-15 0 -22 -7 -22 -22v-351c0 -77 -25 -140 -74 -188c-49 -47 -114 -71 -194 -71c-81 0 -146 24 -196 71
c-49 48 -74 111 -74 188zM391 755h-76l-95 127h98z" />
    <glyph glyph-name="Uacute" unicode="&#xda;" horiz-adv-x="720" 
d="M91 247v351c0 15 -7 22 -22 22h-43v86h100c45 0 65 -19 65 -64v-391c0 -105 65 -169 169 -169c103 0 169 65 169 170v390c0 45 19 64 64 64h101v-86h-43c-15 0 -22 -7 -22 -22v-351c0 -77 -25 -140 -74 -188c-49 -47 -114 -71 -194 -71c-81 0 -146 24 -196 71
c-49 48 -74 111 -74 188zM397 755h-76l73 127h98z" />
    <glyph glyph-name="Ucircumflex" unicode="&#xdb;" horiz-adv-x="720" 
d="M91 247v351c0 15 -7 22 -22 22h-43v86h100c45 0 65 -19 65 -64v-391c0 -105 65 -169 169 -169c103 0 169 65 169 170v390c0 45 19 64 64 64h101v-86h-43c-15 0 -22 -7 -22 -22v-351c0 -77 -25 -140 -74 -188c-49 -47 -114 -71 -194 -71c-81 0 -146 24 -196 71
c-49 48 -74 111 -74 188zM307 755h-78l87 127h89l88 -127h-79l-52 80h-2z" />
    <glyph glyph-name="Udieresis" unicode="&#xdc;" horiz-adv-x="720" 
d="M91 247v351c0 15 -7 22 -22 22h-43v86h100c45 0 65 -19 65 -64v-391c0 -105 65 -169 169 -169c103 0 169 65 169 170v390c0 45 19 64 64 64h101v-86h-43c-15 0 -22 -7 -22 -22v-351c0 -77 -25 -140 -74 -188c-49 -47 -114 -71 -194 -71c-81 0 -146 24 -196 71
c-49 48 -74 111 -74 188zM480 781h-73v101h73v-101zM316 781h-74v101h74v-101z" />
    <glyph glyph-name="Yacute" unicode="&#xdd;" horiz-adv-x="606" 
d="M353 0h-100v308l-179 287c-9 17 -24 25 -43 25h-20v86h46c49 0 68 -9 95 -54l107 -178l43 -79h2c13 27 28 53 43 79l106 178c27 45 46 54 95 54h47v-86h-20c-19 0 -34 -8 -44 -25l-178 -287v-308zM340 755h-76l73 127h98z" />
    <glyph glyph-name="Thorn" unicode="&#xde;" horiz-adv-x="585" 
d="M199 0h-100v598c0 15 -7 22 -22 22h-43v86h101c45 0 64 -19 64 -64v-56h146c65 0 118 -20 159 -61c41 -40 62 -93 62 -160s-21 -121 -62 -162s-95 -62 -160 -62h-145v-141zM199 500v-273h130c83 0 134 53 134 138c0 84 -50 135 -133 135h-131z" />
    <glyph glyph-name="germandbls" unicode="&#xdf;" horiz-adv-x="590" 
d="M117 0h-92v83h37c15 0 22 7 22 22v425c0 58 21 104 64 137c43 34 94 51 152 51c55 0 100 -16 136 -47c37 -31 55 -69 55 -114c0 -94 -101 -122 -101 -181c0 -66 179 -104 179 -236c0 -49 -17 -86 -50 -113c-33 -26 -73 -39 -121 -39c-57 0 -114 21 -135 38l-16 12l27 75
c33 -27 71 -41 112 -41c48 0 85 23 85 72c0 84 -179 119 -179 229c0 81 100 111 100 183c0 43 -35 78 -95 78c-63 0 -116 -40 -116 -111v-459c0 -45 -19 -64 -64 -64z" />
    <glyph glyph-name="agrave" unicode="&#xe0;" horiz-adv-x="529" 
d="M28 138c0 118 102 177 306 177h22v7c0 85 -33 119 -112 119c-19 0 -37 -3 -56 -9c-18 -5 -27 -15 -27 -30v-29h-92v51c0 37 30 66 70 78c41 12 74 16 103 16c156 0 211 -73 211 -198v-215c0 -15 7 -22 22 -22h41v-83h-92c-41 0 -62 19 -62 58l1 30h-2
c2 0 -43 -100 -163 -100c-47 0 -87 13 -120 40s-50 64 -50 110zM125 147c0 -44 35 -82 95 -82c40 0 73 17 98 50s38 70 38 111v19h-26c-137 0 -205 -33 -205 -98zM293 580h-76l-95 127h98z" />
    <glyph glyph-name="aacute" unicode="&#xe1;" horiz-adv-x="529" 
d="M28 138c0 118 102 177 306 177h22v7c0 85 -33 119 -112 119c-19 0 -37 -3 -56 -9c-18 -5 -27 -15 -27 -30v-29h-92v51c0 37 30 66 70 78c41 12 74 16 103 16c156 0 211 -73 211 -198v-215c0 -15 7 -22 22 -22h41v-83h-92c-41 0 -62 19 -62 58l1 30h-2
c2 0 -43 -100 -163 -100c-47 0 -87 13 -120 40s-50 64 -50 110zM125 147c0 -44 35 -82 95 -82c40 0 73 17 98 50s38 70 38 111v19h-26c-137 0 -205 -33 -205 -98zM293 580h-76l73 127h98z" />
    <glyph glyph-name="acircumflex" unicode="&#xe2;" horiz-adv-x="529" 
d="M28 138c0 118 102 177 306 177h22v7c0 85 -33 119 -112 119c-19 0 -37 -3 -56 -9c-18 -5 -27 -15 -27 -30v-29h-92v51c0 37 30 66 70 78c41 12 74 16 103 16c156 0 211 -73 211 -198v-215c0 -15 7 -22 22 -22h41v-83h-92c-41 0 -62 19 -62 58l1 30h-2
c2 0 -43 -100 -163 -100c-47 0 -87 13 -120 40s-50 64 -50 110zM125 147c0 -44 35 -82 95 -82c40 0 73 17 98 50s38 70 38 111v19h-26c-137 0 -205 -33 -205 -98zM203 580h-78l87 127h89l88 -127h-79l-52 80h-2z" />
    <glyph glyph-name="atilde" unicode="&#xe3;" horiz-adv-x="529" 
d="M28 138c0 118 102 177 306 177h22v7c0 85 -33 119 -112 119c-19 0 -37 -3 -56 -9c-18 -5 -27 -15 -27 -30v-29h-92v51c0 37 30 66 70 78c41 12 74 16 103 16c156 0 211 -73 211 -198v-215c0 -15 7 -22 22 -22h41v-83h-92c-41 0 -62 19 -62 58l1 30h-2
c2 0 -43 -100 -163 -100c-47 0 -87 13 -120 40s-50 64 -50 110zM125 147c0 -44 35 -82 95 -82c40 0 73 17 98 50s38 70 38 111v19h-26c-137 0 -205 -33 -205 -98zM153 581h-66c0 85 34 127 103 127c60 0 93 -68 128 -68c28 0 41 32 41 65h65c0 -85 -34 -127 -103 -127
c-59 0 -92 68 -128 68c-28 0 -40 -30 -40 -65z" />
    <glyph glyph-name="adieresis" unicode="&#xe4;" horiz-adv-x="529" 
d="M28 138c0 118 102 177 306 177h22v7c0 85 -33 119 -112 119c-19 0 -37 -3 -56 -9c-18 -5 -27 -15 -27 -30v-29h-92v51c0 37 30 66 70 78c41 12 74 16 103 16c156 0 211 -73 211 -198v-215c0 -15 7 -22 22 -22h41v-83h-92c-41 0 -62 19 -62 58l1 30h-2
c2 0 -43 -100 -163 -100c-47 0 -87 13 -120 40s-50 64 -50 110zM125 147c0 -44 35 -82 95 -82c40 0 73 17 98 50s38 70 38 111v19h-26c-137 0 -205 -33 -205 -98zM377 606h-73v101h73v-101zM213 606h-74v101h74v-101z" />
    <glyph glyph-name="aring" unicode="&#xe5;" horiz-adv-x="529" 
d="M28 138c0 118 102 177 306 177h22v7c0 85 -33 119 -112 119c-19 0 -37 -3 -56 -9c-18 -5 -27 -15 -27 -30v-29h-92v51c0 37 30 66 70 78c41 12 74 16 103 16c156 0 211 -73 211 -198v-215c0 -15 7 -22 22 -22h41v-83h-92c-41 0 -62 19 -62 58l1 30h-2
c2 0 -43 -100 -163 -100c-47 0 -87 13 -120 40s-50 64 -50 110zM125 147c0 -44 35 -82 95 -82c40 0 73 17 98 50s38 70 38 111v19h-26c-137 0 -205 -33 -205 -98zM257 568c-45 0 -81 30 -81 74c0 45 36 75 81 75c44 0 81 -30 81 -75c0 -44 -37 -74 -81 -74zM291 642
c0 46 -68 46 -68 0c-4 -43 72 -43 68 0z" />
    <glyph glyph-name="ae" unicode="&#xe6;" horiz-adv-x="849" 
d="M29 141c0 115 99 172 298 172h29v11c0 85 -33 117 -112 117c-19 0 -38 -3 -56 -9c-18 -5 -27 -15 -27 -30v-29h-92v51c0 23 10 41 29 56c40 29 90 38 146 38c88 0 145 -30 172 -89h2c41 59 101 89 180 89c67 0 119 -22 158 -67s59 -101 59 -168l-2 -41h-364
c5 -109 74 -170 169 -170c52 0 107 25 130 45l18 15l41 -70l-24 -21c-11 -8 -33 -19 -67 -33c-34 -13 -69 -20 -104 -20c-101 0 -174 42 -217 126h-2c-7 -19 -20 -40 -49 -71s-81 -54 -142 -54c-49 0 -90 13 -123 40s-50 65 -50 112zM453 313h263c-4 80 -55 127 -119 127
c-76 0 -129 -46 -144 -127zM127 147c0 -45 35 -81 96 -81c39 0 71 17 96 50c25 34 38 71 38 112v14h-47c-122 0 -183 -32 -183 -95z" />
    <glyph glyph-name="ccedilla" unicode="&#xe7;" horiz-adv-x="532" 
d="M33 253c0 75 25 138 76 189s116 76 196 76c25 0 50 -3 75 -9c26 -6 50 -18 73 -36c23 -17 34 -39 34 -66v-52h-87v28c0 17 -10 29 -31 38s-42 14 -64 14c-49 0 -91 -17 -124 -51s-49 -77 -49 -130c0 -55 17 -99 52 -132c35 -32 77 -48 127 -48c56 0 114 29 138 52l18 18
l42 -69c-4 -4 -7 -10 -34 -30c-33 -26 -90 -57 -171 -57l-8 -38c43 -5 72 -32 72 -73c0 -57 -45 -84 -102 -84c-19 0 -40 2 -48 5l-7 2v58c13 -5 27 -7 42 -7c32 0 48 10 48 31s-18 31 -53 31l-18 -1l21 81c-65 11 -118 40 -158 87c-40 48 -60 106 -60 173z" />
    <glyph glyph-name="egrave" unicode="&#xe8;" horiz-adv-x="539" 
d="M33 253c0 79 24 143 72 192s109 73 182 73c69 0 122 -23 160 -68c39 -45 58 -101 58 -169c0 -11 -1 -25 -3 -41h-369c3 -53 21 -94 54 -124c33 -29 74 -44 121 -44c67 0 114 35 140 52l9 7l41 -71c-11 -9 -25 -19 -40 -28s-38 -19 -68 -29c-29 -10 -59 -15 -88 -15
c-79 0 -143 25 -194 75c-50 51 -75 114 -75 190zM137 310h271c-3 84 -54 133 -123 133c-76 0 -135 -50 -148 -133zM330 559h-76l-95 127h98z" />
    <glyph glyph-name="eacute" unicode="&#xe9;" horiz-adv-x="539" 
d="M33 253c0 79 24 143 72 192s109 73 182 73c69 0 122 -23 160 -68c39 -45 58 -101 58 -169c0 -11 -1 -25 -3 -41h-369c3 -53 21 -94 54 -124c33 -29 74 -44 121 -44c67 0 114 35 140 52l9 7l41 -71c-11 -9 -25 -19 -40 -28s-38 -19 -68 -29c-29 -10 -59 -15 -88 -15
c-79 0 -143 25 -194 75c-50 51 -75 114 -75 190zM137 310h271c-3 84 -54 133 -123 133c-76 0 -135 -50 -148 -133zM319 580h-76l73 127h98z" />
    <glyph glyph-name="ecircumflex" unicode="&#xea;" horiz-adv-x="539" 
d="M33 253c0 79 24 143 72 192s109 73 182 73c69 0 122 -23 160 -68c39 -45 58 -101 58 -169c0 -11 -1 -25 -3 -41h-369c3 -53 21 -94 54 -124c33 -29 74 -44 121 -44c67 0 114 35 140 52l9 7l41 -71c-11 -9 -25 -19 -40 -28s-38 -19 -68 -29c-29 -10 -59 -15 -88 -15
c-79 0 -143 25 -194 75c-50 51 -75 114 -75 190zM137 310h271c-3 84 -54 133 -123 133c-76 0 -135 -50 -148 -133zM228 580h-78l87 127h89l88 -127h-79l-52 80h-2z" />
    <glyph glyph-name="edieresis" unicode="&#xeb;" horiz-adv-x="539" 
d="M33 253c0 79 24 143 72 192s109 73 182 73c69 0 122 -23 160 -68c39 -45 58 -101 58 -169c0 -11 -1 -25 -3 -41h-369c3 -53 21 -94 54 -124c33 -29 74 -44 121 -44c67 0 114 35 140 52l9 7l41 -71c-11 -9 -25 -19 -40 -28s-38 -19 -68 -29c-29 -10 -59 -15 -88 -15
c-79 0 -143 25 -194 75c-50 51 -75 114 -75 190zM137 310h271c-3 84 -54 133 -123 133c-76 0 -135 -50 -148 -133zM401 606h-73v101h73v-101zM237 606h-74v101h74v-101z" />
    <glyph glyph-name="igrave" unicode="&#xec;" horiz-adv-x="265" 
d="M84 64v337c0 15 -7 22 -22 22h-41v83h95c45 0 65 -19 65 -64v-337c0 -15 7 -22 22 -22h41v-83h-96c-45 0 -64 19 -64 64zM161 579h-76l-95 127h98z" />
    <glyph glyph-name="iacute" unicode="&#xed;" horiz-adv-x="265" 
d="M161 579h-76l73 127h99zM84 64v337c0 15 -7 22 -22 22h-41v83h95c45 0 65 -19 65 -64v-337c0 -15 7 -22 22 -22h41v-83h-96c-45 0 -64 19 -64 64z" />
    <glyph glyph-name="icircumflex" unicode="&#xee;" horiz-adv-x="265" 
d="M71 579h-78l87 127h89l88 -127h-79l-52 81h-2zM84 64v337c0 15 -7 22 -22 22h-41v83h95c45 0 65 -19 65 -64v-337c0 -15 7 -22 22 -22h41v-83h-96c-45 0 -64 19 -64 64z" />
    <glyph glyph-name="idieresis" unicode="&#xef;" horiz-adv-x="265" 
d="M229 605h-73v101h73v-101zM90 605h-74v101h74v-101zM84 64v337c0 15 -7 22 -22 22h-41v83h95c45 0 65 -19 65 -64v-337c0 -15 7 -22 22 -22h41v-83h-96c-45 0 -64 19 -64 64z" />
    <glyph glyph-name="eth" unicode="&#xf0;" horiz-adv-x="562" 
d="M34 235c0 63 21 117 63 162c43 46 101 69 174 69c48 0 93 -17 110 -32l13 -10h2c-20 53 -56 98 -109 133l-180 -80l-10 62l123 55c-41 21 -84 36 -129 46l27 79c77 -17 146 -44 207 -80l139 61l10 -61l-93 -42c96 -80 144 -187 144 -322c0 -71 -19 -137 -58 -194
c-39 -56 -109 -93 -196 -93c-72 0 -130 24 -173 73s-64 107 -64 174zM133 233c0 -44 12 -82 37 -114c25 -31 60 -47 104 -47c50 0 88 19 113 56c26 38 39 81 39 130c0 76 -56 130 -141 130c-49 0 -86 -15 -113 -46c-26 -30 -39 -66 -39 -109z" />
    <glyph glyph-name="ntilde" unicode="&#xf1;" horiz-adv-x="623" 
d="M218 581h-66c0 85 34 127 103 127c60 0 93 -68 128 -68c28 0 41 32 41 65h65c0 -85 -34 -127 -103 -127c-59 0 -92 68 -128 68c-28 0 -40 -30 -40 -65zM182 0h-97v401c0 15 -7 22 -22 22h-41v83h93c43 0 64 -19 64 -56v-19l-2 -29h2c13 29 36 55 68 79
c33 25 74 37 123 37c115 0 173 -65 173 -194v-219c0 -15 7 -22 22 -22h41v-83h-96c-45 0 -64 19 -64 64v238c0 81 -20 127 -95 127c-76 0 -139 -51 -160 -124c-6 -17 -9 -40 -9 -68v-237z" />
    <glyph glyph-name="ograve" unicode="&#xf2;" horiz-adv-x="611" 
d="M305 518c77 0 141 -25 194 -75s79 -113 79 -189s-27 -139 -80 -190s-117 -76 -193 -76s-140 25 -193 76s-79 114 -79 190s26 139 79 189s117 75 193 75zM305 72c49 0 90 17 123 51c34 35 51 78 51 131c0 52 -17 95 -51 129c-33 34 -74 51 -123 51c-48 0 -89 -17 -123 -51
s-51 -77 -51 -129s17 -95 51 -130s75 -52 123 -52zM342 580h-76l-95 127h98z" />
    <glyph glyph-name="oacute" unicode="&#xf3;" horiz-adv-x="611" 
d="M305 518c77 0 141 -25 194 -75s79 -113 79 -189s-27 -139 -80 -190s-117 -76 -193 -76s-140 25 -193 76s-79 114 -79 190s26 139 79 189s117 75 193 75zM305 72c49 0 90 17 123 51c34 35 51 78 51 131c0 52 -17 95 -51 129c-33 34 -74 51 -123 51c-48 0 -89 -17 -123 -51
s-51 -77 -51 -129s17 -95 51 -130s75 -52 123 -52zM342 580h-76l73 127h98z" />
    <glyph glyph-name="ocircumflex" unicode="&#xf4;" horiz-adv-x="611" 
d="M251 580h-78l87 127h89l88 -127h-79l-52 80h-2zM305 518c77 0 141 -25 194 -75s79 -113 79 -189s-27 -139 -80 -190s-117 -76 -193 -76s-140 25 -193 76s-79 114 -79 190s26 139 79 189s117 75 193 75zM305 72c49 0 90 17 123 51c34 35 51 78 51 131c0 52 -17 95 -51 129
c-33 34 -74 51 -123 51c-48 0 -89 -17 -123 -51s-51 -77 -51 -129s17 -95 51 -130s75 -52 123 -52z" />
    <glyph glyph-name="otilde" unicode="&#xf5;" horiz-adv-x="611" 
d="M201 581h-66c0 85 34 127 103 127c60 0 93 -68 128 -68c28 0 41 32 41 65h65c0 -85 -34 -127 -103 -127c-59 0 -92 68 -128 68c-28 0 -40 -30 -40 -65zM305 518c77 0 141 -25 194 -75s79 -113 79 -189s-27 -139 -80 -190s-117 -76 -193 -76s-140 25 -193 76
s-79 114 -79 190s26 139 79 189s117 75 193 75zM305 72c49 0 90 17 123 51c34 35 51 78 51 131c0 52 -17 95 -51 129c-33 34 -74 51 -123 51c-48 0 -89 -17 -123 -51s-51 -77 -51 -129s17 -95 51 -130s75 -52 123 -52z" />
    <glyph glyph-name="odieresis" unicode="&#xf6;" horiz-adv-x="611" 
d="M305 518c77 0 141 -25 194 -75s79 -113 79 -189s-27 -139 -80 -190s-117 -76 -193 -76s-140 25 -193 76s-79 114 -79 190s26 139 79 189s117 75 193 75zM305 72c49 0 90 17 123 51c34 35 51 78 51 131c0 52 -17 95 -51 129c-33 34 -74 51 -123 51c-48 0 -89 -17 -123 -51
s-51 -77 -51 -129s17 -95 51 -130s75 -52 123 -52zM424 606h-73v101h73v-101zM260 606h-74v101h74v-101z" />
    <glyph glyph-name="divide" unicode="&#xf7;" 
d="M335 435h-95v91h95v-91zM540 246h-505v78h505v-78zM335 44h-95v91h95v-91z" />
    <glyph glyph-name="oslash" unicode="&#xf8;" horiz-adv-x="611" 
d="M139 -38l-48 35l38 52c-64 51 -96 119 -96 205c0 76 26 139 79 189s117 75 193 75c50 0 95 -11 135 -34l40 56l48 -34l-39 -54c59 -53 89 -119 89 -198c0 -76 -27 -139 -80 -190s-117 -76 -193 -76c-47 0 -89 10 -127 30zM183 124l206 288c-26 15 -54 22 -84 22
c-48 0 -89 -17 -123 -51s-51 -77 -51 -129c0 -51 17 -94 52 -130zM433 374l-203 -284c23 -12 48 -18 75 -18c49 0 90 17 123 51c34 35 51 78 51 131c0 48 -15 88 -46 120z" />
    <glyph glyph-name="ugrave" unicode="&#xf9;" horiz-adv-x="618" 
d="M80 182v219c0 15 -7 22 -22 22h-41v83h95c45 0 64 -19 64 -62v-240c0 -80 22 -126 95 -126c50 0 90 19 120 56s45 82 45 135v237h97v-401c0 -15 7 -22 22 -22h41v-83h-93c-43 0 -64 19 -64 56v19l1 29h-2c-13 -29 -36 -56 -69 -80s-72 -36 -117 -36
c-115 0 -172 62 -172 194zM337 580h-76l-95 127h98z" />
    <glyph glyph-name="uacute" unicode="&#xfa;" horiz-adv-x="618" 
d="M80 182v219c0 15 -7 22 -22 22h-41v83h95c45 0 64 -19 64 -62v-240c0 -80 22 -126 95 -126c50 0 90 19 120 56s45 82 45 135v237h97v-401c0 -15 7 -22 22 -22h41v-83h-93c-43 0 -64 19 -64 56v19l1 29h-2c-13 -29 -36 -56 -69 -80s-72 -36 -117 -36
c-115 0 -172 62 -172 194zM337 580h-76l73 127h98z" />
    <glyph glyph-name="ucircumflex" unicode="&#xfb;" horiz-adv-x="618" 
d="M80 182v219c0 15 -7 22 -22 22h-41v83h95c45 0 64 -19 64 -62v-240c0 -80 22 -126 95 -126c50 0 90 19 120 56s45 82 45 135v237h97v-401c0 -15 7 -22 22 -22h41v-83h-93c-43 0 -64 19 -64 56v19l1 29h-2c-13 -29 -36 -56 -69 -80s-72 -36 -117 -36
c-115 0 -172 62 -172 194zM247 580h-78l87 127h89l88 -127h-79l-52 80h-2z" />
    <glyph glyph-name="udieresis" unicode="&#xfc;" horiz-adv-x="618" 
d="M80 182v219c0 15 -7 22 -22 22h-41v83h95c45 0 64 -19 64 -62v-240c0 -80 22 -126 95 -126c50 0 90 19 120 56s45 82 45 135v237h97v-401c0 -15 7 -22 22 -22h41v-83h-93c-43 0 -64 19 -64 56v19l1 29h-2c-13 -29 -36 -56 -69 -80s-72 -36 -117 -36
c-115 0 -172 62 -172 194zM420 606h-73v101h73v-101zM256 606h-74v101h74v-101z" />
    <glyph glyph-name="yacute" unicode="&#xfd;" horiz-adv-x="543" 
d="M2 -160l40 70c0 -1 32 -36 74 -36c39 0 68 24 89 73l23 55l-173 401c-6 13 -16 20 -31 20h-13v83h57c41 0 57 -11 73 -51l114 -285l18 -61h2c5 23 11 44 17 61l106 285c13 40 32 51 73 51h58v-83h-13c-15 0 -26 -7 -32 -20l-199 -494c-32 -77 -92 -119 -164 -119
c-44 0 -89 21 -106 38zM307 580h-76l73 127h98z" />
    <glyph glyph-name="thorn" unicode="&#xfe;" horiz-adv-x="584" 
d="M165 -200h-97v801c0 15 -7 22 -22 22h-41v83h95c45 0 65 -19 65 -64v-163l-2 -44h2c32 55 85 83 159 83c68 0 122 -25 163 -74s62 -112 62 -191c0 -78 -21 -142 -62 -191s-95 -74 -163 -74c-95 0 -141 51 -154 72l-5 9h-2c1 -12 2 -27 2 -44v-225zM162 253
c0 -62 14 -108 41 -137c28 -29 63 -44 106 -44s77 17 103 50s39 77 39 131c0 108 -57 181 -142 181c-87 0 -147 -56 -147 -181z" />
    <glyph glyph-name="ydieresis" unicode="&#xff;" horiz-adv-x="543" 
d="M2 -160l40 70c0 -1 32 -36 74 -36c39 0 68 24 89 73l23 55l-173 401c-6 13 -16 20 -31 20h-13v83h57c41 0 57 -11 73 -51l114 -285l18 -61h2c5 23 11 44 17 61l106 285c13 40 32 51 73 51h58v-83h-13c-15 0 -26 -7 -32 -20l-199 -494c-32 -77 -92 -119 -164 -119
c-44 0 -89 21 -106 38zM389 606h-73v101h73v-101zM225 606h-74v101h74v-101z" />
    <glyph glyph-name="Amacron" unicode="&#x100;" horiz-adv-x="665" 
d="M67 0h-55v86h14c17 0 28 7 33 22l221 598h105l221 -598c5 -15 16 -22 33 -22h14v-86h-55c-49 0 -66 11 -83 58l-53 145h-259l-53 -145c-17 -47 -34 -58 -83 -58zM304 502l-77 -215h211l-77 215l-28 99h-2c-10 -41 -19 -74 -27 -99zM460 784h-254v68h254v-68z" />
    <glyph glyph-name="amacron" unicode="&#x101;" horiz-adv-x="529" 
d="M28 138c0 118 102 177 306 177h22v7c0 85 -33 119 -112 119c-19 0 -37 -3 -56 -9c-18 -5 -27 -15 -27 -30v-29h-92v51c0 37 30 66 70 78c41 12 74 16 103 16c156 0 211 -73 211 -198v-215c0 -15 7 -22 22 -22h41v-83h-92c-41 0 -62 19 -62 58l1 30h-2
c2 0 -43 -100 -163 -100c-47 0 -87 13 -120 40s-50 64 -50 110zM125 147c0 -44 35 -82 95 -82c40 0 73 17 98 50s38 70 38 111v19h-26c-137 0 -205 -33 -205 -98zM384 609h-254v68h254v-68z" />
    <glyph glyph-name="Abreve" unicode="&#x102;" horiz-adv-x="665" 
d="M67 0h-55v86h14c17 0 28 7 33 22l221 598h105l221 -598c5 -15 16 -22 33 -22h14v-86h-55c-49 0 -66 11 -83 58l-53 145h-259l-53 -145c-17 -47 -34 -58 -83 -58zM304 502l-77 -215h211l-77 215l-28 99h-2c-10 -41 -19 -74 -27 -99zM332 751c-68 0 -128 44 -128 117v14h67
v-13c-6 -80 128 -80 123 1v12h66v-14c0 -73 -59 -117 -128 -117z" />
    <glyph glyph-name="abreve" unicode="&#x103;" horiz-adv-x="529" 
d="M28 138c0 118 102 177 306 177h22v7c0 85 -33 119 -112 119c-19 0 -37 -3 -56 -9c-18 -5 -27 -15 -27 -30v-29h-92v51c0 37 30 66 70 78c41 12 74 16 103 16c156 0 211 -73 211 -198v-215c0 -15 7 -22 22 -22h41v-83h-92c-41 0 -62 19 -62 58l1 30h-2
c2 0 -43 -100 -163 -100c-47 0 -87 13 -120 40s-50 64 -50 110zM125 147c0 -44 35 -82 95 -82c40 0 73 17 98 50s38 70 38 111v19h-26c-137 0 -205 -33 -205 -98zM256 576c-68 0 -128 44 -128 117v14h67v-13c-6 -80 128 -80 123 1v12h66v-14c0 -73 -59 -117 -128 -117z" />
    <glyph glyph-name="Aogonek" unicode="&#x104;" horiz-adv-x="665" 
d="M67 0h-55v86h14c17 0 28 7 33 22l221 598h105l221 -598c5 -15 16 -22 33 -22h14v-86c-43 -36 -64 -66 -64 -89s23 -37 42 -41l14 -2l-23 -75c-7 0 -13 1 -40 9c-35 10 -76 35 -76 86c0 43 23 80 68 113v2c-32 4 -46 18 -59 55l-53 145h-259l-53 -145
c-17 -47 -34 -58 -83 -58zM304 502l-77 -215h211l-77 215l-28 99h-2c-10 -41 -19 -74 -27 -99z" />
    <glyph glyph-name="aogonek" unicode="&#x105;" horiz-adv-x="529" 
d="M28 142c0 115 102 173 307 173h21v8c0 85 -33 118 -112 118c-19 0 -38 -3 -56 -9c-18 -5 -27 -15 -27 -30v-29h-92v51c0 37 29 66 70 78s74 16 105 16c155 0 209 -74 209 -198v-215c0 -15 7 -22 22 -22h41v-83c-43 -33 -65 -63 -65 -89c0 -23 23 -37 42 -41l14 -2
l-23 -75c-7 0 -13 1 -40 9c-35 10 -76 35 -76 86c0 40 22 77 66 110v2h-18c-39 0 -55 24 -55 55v5l2 28h-2c-27 -56 -80 -100 -160 -100c-48 0 -89 14 -123 41c-33 27 -50 65 -50 113zM127 147c0 -44 35 -81 95 -81c39 0 71 17 96 50c25 34 38 71 38 111v18h-25
c-136 0 -204 -33 -204 -98z" />
    <glyph glyph-name="Cacute" unicode="&#x106;" horiz-adv-x="698" 
d="M35 359c0 102 34 187 101 256c68 69 152 103 253 103c95 0 265 -40 265 -153v-69h-92v40c0 27 -18 49 -55 65s-75 24 -116 24c-72 0 -132 -25 -180 -74s-72 -113 -72 -192c0 -77 24 -143 73 -197c49 -53 110 -80 182 -80c111 0 189 61 214 86l9 10l54 -72
c-5 -7 -11 -14 -47 -41c-17 -13 -36 -25 -56 -36c-40 -20 -108 -41 -175 -41c-104 0 -190 35 -257 106s-101 160 -101 265zM422 755h-76l73 127h98z" />
    <glyph glyph-name="cacute" unicode="&#x107;" horiz-adv-x="530" 
d="M33 253c0 75 25 138 75 189c51 51 116 76 197 76c62 0 182 -26 182 -111v-52h-88v28c0 17 -10 29 -31 38c-20 9 -41 14 -63 14c-50 0 -92 -17 -125 -51c-33 -33 -49 -77 -49 -130c0 -55 17 -99 52 -132c35 -32 77 -48 127 -48c28 0 55 6 81 17c27 12 46 24 58 35l18 18
l41 -69c-4 -5 -7 -10 -34 -30c-33 -26 -90 -57 -171 -57c-79 0 -144 25 -195 75c-50 50 -75 113 -75 190zM325 580h-76l73 127h98z" />
    <glyph glyph-name="Ccircumflex" unicode="&#x108;" horiz-adv-x="698" 
d="M35 359c0 102 34 187 101 256c68 69 152 103 253 103c95 0 265 -40 265 -153v-69h-92v40c0 27 -18 49 -55 65s-75 24 -116 24c-72 0 -132 -25 -180 -74s-72 -113 -72 -192c0 -77 24 -143 73 -197c49 -53 110 -80 182 -80c111 0 189 61 214 86l9 10l54 -72
c-5 -7 -11 -14 -47 -41c-17 -13 -36 -25 -56 -36c-40 -20 -108 -41 -175 -41c-104 0 -190 35 -257 106s-101 160 -101 265zM331 755h-78l87 127h89l88 -127h-79l-52 80h-2z" />
    <glyph glyph-name="ccircumflex" unicode="&#x109;" horiz-adv-x="530" 
d="M33 253c0 75 25 138 75 189c51 51 116 76 197 76c62 0 182 -26 182 -111v-52h-88v28c0 17 -10 29 -31 38c-20 9 -41 14 -63 14c-50 0 -92 -17 -125 -51c-33 -33 -49 -77 -49 -130c0 -55 17 -99 52 -132c35 -32 77 -48 127 -48c28 0 55 6 81 17c27 12 46 24 58 35l18 18
l41 -69c-4 -5 -7 -10 -34 -30c-33 -26 -90 -57 -171 -57c-79 0 -144 25 -195 75c-50 50 -75 113 -75 190zM234 580h-78l87 127h89l88 -127h-79l-52 80h-2z" />
    <glyph glyph-name="Cdotaccent" unicode="&#x10a;" horiz-adv-x="698" 
d="M35 359c0 102 34 187 101 256c68 69 152 103 253 103c95 0 265 -40 265 -153v-69h-92v40c0 27 -18 49 -55 65s-75 24 -116 24c-72 0 -132 -25 -180 -74s-72 -113 -72 -192c0 -77 24 -143 73 -197c49 -53 110 -80 182 -80c111 0 189 61 214 86l9 10l54 -72
c-5 -7 -11 -14 -47 -41c-17 -13 -36 -25 -56 -36c-40 -20 -108 -41 -175 -41c-104 0 -190 35 -257 106s-101 160 -101 265zM428 781h-87v101h87v-101z" />
    <glyph glyph-name="cdotaccent" unicode="&#x10b;" horiz-adv-x="530" 
d="M33 253c0 75 25 138 75 189c51 51 116 76 197 76c62 0 182 -26 182 -111v-52h-88v28c0 17 -10 29 -31 38c-20 9 -41 14 -63 14c-50 0 -92 -17 -125 -51c-33 -33 -49 -77 -49 -130c0 -55 17 -99 52 -132c35 -32 77 -48 127 -48c28 0 55 6 81 17c27 12 46 24 58 35l18 18
l41 -69c-4 -5 -7 -10 -34 -30c-33 -26 -90 -57 -171 -57c-79 0 -144 25 -195 75c-50 50 -75 113 -75 190zM331 606h-87v101h87v-101z" />
    <glyph glyph-name="Ccaron" unicode="&#x10c;" horiz-adv-x="698" 
d="M35 359c0 102 34 187 101 256c68 69 152 103 253 103c95 0 265 -40 265 -153v-69h-92v40c0 27 -18 49 -55 65s-75 24 -116 24c-72 0 -132 -25 -180 -74s-72 -113 -72 -192c0 -77 24 -143 73 -197c49 -53 110 -80 182 -80c111 0 189 61 214 86l9 10l54 -72
c-5 -7 -11 -14 -47 -41c-17 -13 -36 -25 -56 -36c-40 -20 -108 -41 -175 -41c-104 0 -190 35 -257 106s-101 160 -101 265zM430 755h-89l-88 127h79l52 -81h2l52 81h80z" />
    <glyph glyph-name="ccaron" unicode="&#x10d;" horiz-adv-x="530" 
d="M33 253c0 75 25 138 75 189c51 51 116 76 197 76c62 0 182 -26 182 -111v-52h-88v28c0 17 -10 29 -31 38c-20 9 -41 14 -63 14c-50 0 -92 -17 -125 -51c-33 -33 -49 -77 -49 -130c0 -55 17 -99 52 -132c35 -32 77 -48 127 -48c28 0 55 6 81 17c27 12 46 24 58 35l18 18
l41 -69c-4 -5 -7 -10 -34 -30c-33 -26 -90 -57 -171 -57c-79 0 -144 25 -195 75c-50 50 -75 113 -75 190zM333 580h-89l-88 127h79l52 -81h2l52 81h80z" />
    <glyph glyph-name="Dcaron" unicode="&#x10e;" horiz-adv-x="714" 
d="M382 755h-89l-88 127h79l52 -81h2l52 81h80zM98 64v556h-65v86h286c109 0 195 -31 260 -94c65 -62 98 -148 98 -258c0 -111 -33 -197 -98 -260s-151 -94 -260 -94h-156c-45 0 -65 19 -65 64zM198 620v-512c0 -15 7 -22 22 -22h92c161 0 261 97 261 268
c0 169 -101 266 -261 266h-114z" />
    <glyph glyph-name="dcaron" unicode="&#x10f;" horiz-adv-x="601" 
d="M35 253c0 80 21 144 63 192c43 49 98 73 165 73c94 0 137 -50 151 -70l5 -8h2c-1 10 -1 21 -1 34v127c0 15 -7 22 -22 22h-41v83h95c45 0 65 -19 65 -64v-537c0 -15 7 -22 22 -22h41v-83h-93c-41 0 -62 18 -62 54l1 26h-2c-3 -5 -4 -11 -23 -32c-24 -27 -68 -60 -143 -60
c-68 0 -122 24 -163 73c-40 49 -60 113 -60 192zM133 253c0 -109 59 -181 144 -181c83 0 145 61 145 182c0 49 -12 92 -37 127s-60 53 -106 53c-41 0 -76 -16 -104 -49s-42 -77 -42 -132zM571 706h79c4 -18 6 -34 6 -49c0 -27 -8 -58 -24 -92h-69c13 33 19 60 19 82
c0 19 -4 39 -11 59z" />
    <glyph glyph-name="Dcroat" unicode="&#x110;" horiz-adv-x="716" 
d="M100 64v248h-48v82h48v226h-65v86h286c109 0 195 -31 260 -94c65 -62 98 -148 98 -258c0 -111 -33 -197 -98 -260s-151 -94 -260 -94h-156c-45 0 -65 19 -65 64zM200 312v-204c0 -15 7 -22 22 -22h92c161 0 261 97 261 268c0 169 -101 266 -261 266h-114v-226h144v-82
h-144z" />
    <glyph glyph-name="dslash" unicode="&#x111;" horiz-adv-x="601" 
d="M35 253c0 80 21 144 63 192c43 49 98 73 165 73c94 0 137 -50 151 -70l5 -8h2c-1 10 -1 21 -1 34v89h-129v63h129v80h97v-80h77v-63h-77v-458c0 -15 7 -22 22 -22h41v-83h-93c-41 0 -62 18 -62 54l1 26h-2c-3 -5 -4 -11 -23 -32c-24 -27 -68 -60 -143 -60
c-68 0 -122 24 -163 73c-40 49 -60 113 -60 192zM133 253c0 -109 59 -181 144 -181c83 0 145 61 145 182c0 49 -12 92 -37 127s-60 53 -106 53c-41 0 -76 -16 -104 -49s-42 -77 -42 -132z" />
    <glyph glyph-name="Emacron" unicode="&#x112;" horiz-adv-x="571" 
d="M98 64v556h-65v86h416c45 0 64 -19 64 -64v-89h-92v45c0 15 -7 22 -22 22h-201v-221h248v-86h-248v-205c0 -15 7 -22 22 -22h207c15 0 22 7 22 22v45h91v-89c0 -45 -19 -64 -64 -64h-313c-45 0 -65 19 -65 64zM418 784h-254v68h254v-68z" />
    <glyph glyph-name="emacron" unicode="&#x113;" horiz-adv-x="539" 
d="M33 253c0 79 24 143 72 192s109 73 182 73c69 0 122 -23 160 -68c39 -45 58 -101 58 -169c0 -11 -1 -25 -3 -41h-369c3 -53 21 -94 54 -124c33 -29 74 -44 121 -44c67 0 114 35 140 52l9 7l41 -71c-11 -9 -25 -19 -40 -28s-38 -19 -68 -29c-29 -10 -59 -15 -88 -15
c-79 0 -143 25 -194 75c-50 51 -75 114 -75 190zM137 310h271c-3 84 -54 133 -123 133c-76 0 -135 -50 -148 -133zM409 609h-254v68h254v-68z" />
    <glyph glyph-name="Ebreve" unicode="&#x114;" horiz-adv-x="571" 
d="M98 64v556h-65v86h416c45 0 64 -19 64 -64v-89h-92v45c0 15 -7 22 -22 22h-201v-221h248v-86h-248v-205c0 -15 7 -22 22 -22h207c15 0 22 7 22 22v45h91v-89c0 -45 -19 -64 -64 -64h-313c-45 0 -65 19 -65 64zM290 751c-68 0 -128 44 -128 117v14h67v-13
c-6 -80 128 -80 123 1v12h66v-14c0 -73 -59 -117 -128 -117z" />
    <glyph glyph-name="ebreve" unicode="&#x115;" horiz-adv-x="539" 
d="M33 253c0 79 24 143 72 192s109 73 182 73c69 0 122 -23 160 -68c39 -45 58 -101 58 -169c0 -11 -1 -25 -3 -41h-369c3 -53 21 -94 54 -124c33 -29 74 -44 121 -44c67 0 114 35 140 52l9 7l41 -71c-11 -9 -25 -19 -40 -28s-38 -19 -68 -29c-29 -10 -59 -15 -88 -15
c-79 0 -143 25 -194 75c-50 51 -75 114 -75 190zM137 310h271c-3 84 -54 133 -123 133c-76 0 -135 -50 -148 -133zM282 576c-68 0 -128 44 -128 117v14h67v-13c-6 -80 128 -80 123 1v12h66v-14c0 -73 -59 -117 -128 -117z" />
    <glyph glyph-name="Edotaccent" unicode="&#x116;" horiz-adv-x="571" 
d="M98 64v556h-65v86h416c45 0 64 -19 64 -64v-89h-92v45c0 15 -7 22 -22 22h-201v-221h248v-86h-248v-205c0 -15 7 -22 22 -22h207c15 0 22 7 22 22v45h91v-89c0 -45 -19 -64 -64 -64h-313c-45 0 -65 19 -65 64zM334 781h-87v101h87v-101z" />
    <glyph glyph-name="edotaccent" unicode="&#x117;" horiz-adv-x="539" 
d="M33 253c0 79 24 143 72 192s109 73 182 73c69 0 122 -23 160 -68c39 -45 58 -101 58 -169c0 -11 -1 -25 -3 -41h-369c3 -53 21 -94 54 -124c33 -29 74 -44 121 -44c67 0 114 35 140 52l9 7l41 -71c-11 -9 -25 -19 -40 -28s-38 -19 -68 -29c-29 -10 -59 -15 -88 -15
c-79 0 -143 25 -194 75c-50 51 -75 114 -75 190zM137 310h271c-3 84 -54 133 -123 133c-76 0 -135 -50 -148 -133zM325 606h-87v101h87v-101z" />
    <glyph glyph-name="Eogonek" unicode="&#x118;" horiz-adv-x="571" 
d="M98 64v556h-65v86h416c45 0 64 -19 64 -64v-89h-92v45c0 15 -7 22 -22 22h-201v-221h248v-86h-248v-205c0 -15 7 -22 22 -22h207c15 0 22 7 22 22v45h91v-89c0 -23 -7 -41 -22 -56l-22 -18l-22 -20c-16 -16 -31 -38 -31 -59c0 -23 22 -37 41 -41l14 -2l-23 -75
c-7 0 -13 1 -40 9c-35 10 -76 35 -76 86c0 40 22 77 65 110v2h-261c-45 0 -65 19 -65 64z" />
    <glyph glyph-name="eogonek" unicode="&#x119;" horiz-adv-x="540" 
d="M33 253c0 79 24 143 72 192s109 73 182 73c69 0 122 -22 160 -67c39 -45 58 -101 58 -170c0 -9 -1 -22 -3 -38h-369c3 -53 21 -95 54 -126c33 -30 74 -45 121 -45c67 0 114 35 140 52l9 7l41 -71c-6 -6 -22 -19 -49 -38c-52 -37 -85 -71 -85 -111c0 -23 23 -37 42 -41
l13 -2l-23 -75c-7 0 -13 1 -40 9c-35 10 -76 35 -76 86c0 34 19 68 56 101v2c-11 -2 -22 -3 -34 -3c-79 0 -143 25 -194 75c-50 51 -75 114 -75 190zM137 307h271c-3 85 -54 135 -123 135c-76 0 -135 -51 -148 -135z" />
    <glyph glyph-name="Ecaron" unicode="&#x11a;" horiz-adv-x="571" 
d="M98 64v556h-65v86h416c45 0 64 -19 64 -64v-89h-92v45c0 15 -7 22 -22 22h-201v-221h248v-86h-248v-205c0 -15 7 -22 22 -22h207c15 0 22 7 22 22v45h91v-89c0 -45 -19 -64 -64 -64h-313c-45 0 -65 19 -65 64zM335 755h-89l-88 127h79l52 -81h2l52 81h80z" />
    <glyph glyph-name="ecaron" unicode="&#x11b;" horiz-adv-x="539" 
d="M33 253c0 79 24 143 72 192s109 73 182 73c69 0 122 -23 160 -68c39 -45 58 -101 58 -169c0 -11 -1 -25 -3 -41h-369c3 -53 21 -94 54 -124c33 -29 74 -44 121 -44c67 0 114 35 140 52l9 7l41 -71c-11 -9 -25 -19 -40 -28s-38 -19 -68 -29c-29 -10 -59 -15 -88 -15
c-79 0 -143 25 -194 75c-50 51 -75 114 -75 190zM137 310h271c-3 84 -54 133 -123 133c-76 0 -135 -50 -148 -133zM327 580h-89l-88 127h79l52 -81h2l52 81h80z" />
    <glyph glyph-name="Gcircumflex" unicode="&#x11c;" horiz-adv-x="728" 
d="M35 356c0 102 34 188 102 257c68 70 153 105 254 105c50 0 96 -7 138 -22s72 -29 89 -44l25 -21l-57 -73c-6 5 -14 12 -25 19c-10 7 -32 17 -66 30c-33 13 -67 19 -102 19c-71 0 -132 -26 -181 -77s-73 -115 -73 -193c0 -81 24 -147 73 -198s110 -76 183 -76
c100 0 169 55 193 79l8 9v71c0 15 -7 22 -22 22h-43v86h92c45 0 65 -19 65 -64v-285h-88v44l1 30h-2c-4 -4 -9 -10 -37 -30c-14 -10 -29 -19 -45 -26c-31 -15 -86 -30 -138 -30c-97 0 -178 34 -245 103c-66 69 -99 157 -99 265zM334 755h-78l87 127h89l88 -127h-79l-52 80
h-2z" />
    <glyph glyph-name="gcircumflex" unicode="&#x11d;" horiz-adv-x="593" 
d="M82 -168l32 78c42 -23 88 -34 138 -34c96 0 161 45 161 141v34l1 32h-2c-31 -51 -81 -77 -150 -77s-124 24 -165 73s-62 111 -62 186s20 135 59 182c40 47 94 71 163 71c100 0 146 -50 159 -71l4 -8h2c-1 5 -1 11 -1 16c0 34 19 51 57 51h94v-83h-41
c-15 0 -22 -7 -22 -20v-382c0 -167 -126 -231 -255 -231c-60 0 -117 14 -172 42zM281 90c79 0 134 51 134 174c0 113 -48 170 -143 170c-87 0 -138 -63 -138 -167c0 -107 56 -177 147 -177zM244 580h-78l87 127h89l88 -127h-79l-52 80h-2z" />
    <glyph glyph-name="Gbreve" unicode="&#x11e;" horiz-adv-x="728" 
d="M35 356c0 102 34 188 102 257c68 70 153 105 254 105c50 0 96 -7 138 -22s72 -29 89 -44l25 -21l-57 -73c-6 5 -14 12 -25 19c-10 7 -32 17 -66 30c-33 13 -67 19 -102 19c-71 0 -132 -26 -181 -77s-73 -115 -73 -193c0 -81 24 -147 73 -198s110 -76 183 -76
c100 0 169 55 193 79l8 9v71c0 15 -7 22 -22 22h-43v86h92c45 0 65 -19 65 -64v-285h-88v44l1 30h-2c-4 -4 -9 -10 -37 -30c-14 -10 -29 -19 -45 -26c-31 -15 -86 -30 -138 -30c-97 0 -178 34 -245 103c-66 69 -99 157 -99 265zM387 751c-68 0 -128 44 -128 117v14h67v-13
c0 -40 28 -60 61 -60c35 0 62 21 62 61v12h66v-14c0 -73 -59 -117 -128 -117z" />
    <glyph glyph-name="gbreve" unicode="&#x11f;" horiz-adv-x="593" 
d="M82 -168l32 78c42 -23 88 -34 138 -34c96 0 161 45 161 141v34l1 32h-2c-31 -51 -81 -77 -150 -77s-124 24 -165 73s-62 111 -62 186s20 135 59 182c40 47 94 71 163 71c100 0 146 -50 159 -71l4 -8h2c-1 5 -1 11 -1 16c0 34 19 51 57 51h94v-83h-41
c-15 0 -22 -7 -22 -20v-382c0 -167 -126 -231 -255 -231c-60 0 -117 14 -172 42zM281 90c79 0 134 51 134 174c0 113 -48 170 -143 170c-87 0 -138 -63 -138 -167c0 -107 56 -177 147 -177zM297 576c-68 0 -128 44 -128 117v14h67v-13c0 -40 28 -60 61 -60c35 0 62 21 62 61
v12h66v-14c0 -73 -59 -117 -128 -117z" />
    <glyph glyph-name="Gdotaccent" unicode="&#x120;" horiz-adv-x="728" 
d="M35 356c0 102 34 188 102 257c68 70 153 105 254 105c50 0 96 -7 138 -22s72 -29 89 -44l25 -21l-57 -73c-6 5 -14 12 -25 19c-10 7 -32 17 -66 30c-33 13 -67 19 -102 19c-71 0 -132 -26 -181 -77s-73 -115 -73 -193c0 -81 24 -147 73 -198s110 -76 183 -76
c100 0 169 55 193 79l8 9v71c0 15 -7 22 -22 22h-43v86h92c45 0 65 -19 65 -64v-285h-88v44l1 30h-2c-4 -4 -9 -10 -37 -30c-14 -10 -29 -19 -45 -26c-31 -15 -86 -30 -138 -30c-97 0 -178 34 -245 103c-66 69 -99 157 -99 265zM431 781h-87v101h87v-101z" />
    <glyph glyph-name="gdotaccent" unicode="&#x121;" horiz-adv-x="593" 
d="M82 -168l32 78c42 -23 88 -34 138 -34c96 0 161 45 161 141v34l1 32h-2c-31 -51 -81 -77 -150 -77s-124 24 -165 73s-62 111 -62 186s20 135 59 182c40 47 94 71 163 71c100 0 146 -50 159 -71l4 -8h2c-1 5 -1 11 -1 16c0 34 19 51 57 51h94v-83h-41
c-15 0 -22 -7 -22 -20v-382c0 -167 -126 -231 -255 -231c-60 0 -117 14 -172 42zM281 90c79 0 134 51 134 174c0 113 -48 170 -143 170c-87 0 -138 -63 -138 -167c0 -107 56 -177 147 -177zM341 606h-87v101h87v-101z" />
    <glyph glyph-name="Gcommaaccent" unicode="&#x122;" horiz-adv-x="728" 
d="M35 356c0 102 34 188 102 257c68 70 153 105 254 105c50 0 96 -7 138 -22s72 -29 89 -44l25 -21l-57 -73c-6 5 -14 12 -25 19c-10 7 -32 17 -66 30c-33 13 -67 19 -102 19c-71 0 -132 -26 -181 -77s-73 -115 -73 -193c0 -81 24 -147 73 -198s110 -76 183 -76
c100 0 169 55 193 79l8 9v71c0 15 -7 22 -22 22h-43v86h92c45 0 65 -19 65 -64v-285h-88v44l1 30h-2c-4 -4 -9 -10 -37 -30c-14 -10 -29 -19 -45 -26c-31 -15 -86 -30 -138 -30c-97 0 -178 34 -245 103c-66 69 -99 157 -99 265zM340 -59h79c4 -18 6 -34 6 -49
c0 -27 -8 -58 -24 -92h-69c13 33 19 60 19 82c0 19 -4 39 -11 59z" />
    <glyph glyph-name="gcommaaccent" unicode="&#x123;" horiz-adv-x="593" 
d="M324 565h-79c-4 18 -6 34 -6 49c0 27 8 58 24 92h69c-13 -33 -19 -60 -19 -82c0 -19 4 -39 11 -59zM82 -168l32 78c42 -23 88 -34 138 -34c96 0 161 45 161 141v34l1 32h-2c-31 -51 -81 -77 -150 -77s-124 24 -165 73s-62 111 -62 186s20 135 59 182c40 47 94 71 163 71
c100 0 146 -50 159 -71l4 -8h2c-1 5 -1 11 -1 16c0 34 19 51 57 51h94v-83h-41c-15 0 -22 -7 -22 -20v-382c0 -167 -126 -231 -255 -231c-60 0 -117 14 -172 42zM281 90c79 0 134 51 134 174c0 113 -48 170 -143 170c-87 0 -138 -63 -138 -167c0 -107 56 -177 147 -177z" />
    <glyph glyph-name="Hcircumflex" unicode="&#x124;" horiz-adv-x="757" 
d="M199 0h-100v598c0 15 -7 22 -22 22h-43v86h101c45 0 64 -19 64 -64v-247h359v247c0 45 20 64 65 64h100v-86h-43c-15 0 -22 -7 -22 -22v-598h-100v310h-359v-310zM325 755h-78l87 127h89l88 -127h-79l-52 80h-2z" />
    <glyph glyph-name="hcircumflex" unicode="&#x125;" horiz-adv-x="605" 
d="M164 0h-97v601c0 15 -7 22 -22 22h-41v83h95c43 0 65 -21 65 -62v-197l-2 -42h2c13 29 36 55 69 78s72 35 118 35c116 0 174 -65 174 -194v-219c0 -15 7 -22 22 -22h41v-83h-96c-45 0 -64 19 -64 64v238c0 81 -20 127 -95 127c-76 0 -140 -52 -161 -125
c-5 -18 -8 -40 -8 -67v-237zM65 755h-78l87 127h89l88 -127h-79l-52 80h-2z" />
    <glyph glyph-name="Hbar" unicode="&#x126;" horiz-adv-x="760" 
d="M200 0h-100v514h-65v68h65v124h100v-124h360v124h100v-124h65v-68h-65v-514h-100v310h-360v-310zM200 514v-119h360v119h-360z" />
    <glyph glyph-name="hbar" unicode="&#x127;" horiz-adv-x="605" 
d="M164 0h-97v563h-76v63h76v80h97v-80h128v-63h-128v-116l-2 -42h2c5 17 22 39 51 66s80 47 136 47c116 0 174 -65 174 -194v-219c0 -15 7 -22 22 -22h41v-83h-96c-45 0 -64 19 -64 64v238c0 80 -20 127 -95 127c-50 0 -91 -18 -122 -55s-47 -82 -47 -137v-237z" />
    <glyph glyph-name="Itilde" unicode="&#x128;" horiz-adv-x="318" 
d="M55 756h-66c0 85 34 127 103 127c60 0 93 -68 128 -68c28 0 41 32 41 65h65c0 -85 -34 -127 -103 -127c-59 0 -92 68 -128 68c-28 0 -40 -30 -40 -65zM275 0h-233v86h69v534h-69v86h233v-86h-68v-534h68v-86z" />
    <glyph glyph-name="itilde" unicode="&#x129;" horiz-adv-x="265" 
d="M41 581h-64c0 85 31 127 92 127c57 0 75 -66 103 -66c23 0 34 21 34 63h64c0 -85 -31 -127 -92 -127c-57 0 -75 65 -103 65c-23 0 -34 -21 -34 -62zM84 64v337c0 15 -7 22 -22 22h-41v83h95c45 0 65 -19 65 -64v-337c0 -15 7 -22 22 -22h41v-83h-96c-45 0 -64 19 -64 64z
" />
    <glyph glyph-name="Imacron" unicode="&#x12a;" horiz-adv-x="318" 
d="M275 0h-233v86h69v534h-69v86h233v-86h-68v-534h68v-86zM286 784h-254v68h254v-68z" />
    <glyph glyph-name="imacron" unicode="&#x12b;" horiz-adv-x="265" 
d="M241 609h-231v68h231v-68zM84 64v337c0 15 -7 22 -22 22h-41v83h95c45 0 65 -19 65 -64v-337c0 -15 7 -22 22 -22h41v-83h-96c-45 0 -64 19 -64 64z" />
    <glyph glyph-name="Ibreve" unicode="&#x12c;" horiz-adv-x="318" 
d="M159 751c-68 0 -128 44 -128 117v14h67v-13c0 -40 28 -60 61 -60c35 0 62 21 62 61v12h66v-14c0 -73 -59 -117 -128 -117zM275 0h-233v86h69v534h-69v86h233v-86h-68v-534h68v-86z" />
    <glyph glyph-name="ibreve" unicode="&#x12d;" horiz-adv-x="265" 
d="M125 575c-69 0 -129 45 -129 118v13h67v-12c0 -40 27 -61 62 -61c33 0 61 21 61 61v12h67v-13c0 -73 -60 -118 -128 -118zM84 64v337c0 15 -7 22 -22 22h-41v83h95c45 0 65 -19 65 -64v-337c0 -15 7 -22 22 -22h41v-83h-96c-45 0 -64 19 -64 64z" />
    <glyph glyph-name="Iogonek" unicode="&#x12e;" horiz-adv-x="318" 
d="M192 0h-150v86h69v534h-69v86h233v-86h-68v-534h68v-86c-43 -36 -64 -66 -64 -89s23 -37 42 -41l14 -2l-23 -75c-7 0 -13 1 -40 9c-35 10 -76 35 -76 86c0 39 21 76 64 110v2z" />
    <glyph glyph-name="iogonek" unicode="&#x12f;" horiz-adv-x="265" 
d="M173 605h-87v101h87v-101zM84 81v320c0 15 -7 22 -22 22h-41v83h95c45 0 65 -19 65 -64v-337c0 -15 7 -22 22 -22h41v-83c-43 -35 -64 -64 -64 -89c0 -23 23 -37 42 -41l13 -2l-23 -75c-7 0 -13 1 -40 9c-35 10 -76 35 -76 86c0 41 22 77 65 110v2h-20
c-38 0 -57 27 -57 81z" />
    <glyph glyph-name="Idot" unicode="&#x130;" horiz-adv-x="318" 
d="M275 0h-233v86h69v534h-69v86h233v-86h-68v-534h68v-86zM201 781h-87v101h87v-101z" />
    <glyph glyph-name="dotlessi" unicode="&#x131;" horiz-adv-x="265" 
d="M84 64v337c0 15 -7 22 -22 22h-41v83h95c45 0 65 -19 65 -64v-337c0 -15 7 -22 22 -22h41v-83h-96c-45 0 -64 19 -64 64z" />
    <glyph glyph-name="IJ" unicode="&#x132;" horiz-adv-x="675" 
d="M364 -5v91c58 0 138 23 138 154v358c0 15 -7 22 -22 22h-112v86h170c45 0 64 -19 64 -64v-403c0 -97 -30 -166 -79 -199s-98 -45 -159 -45zM275 0h-233v86h69v534h-69v86h233v-86h-68v-534h68v-86z" />
    <glyph glyph-name="ij" unicode="&#x133;" horiz-adv-x="509" 
d="M173 605h-87v101h87v-101zM84 64v337c0 15 -7 22 -22 22h-41v83h95c45 0 65 -19 65 -64v-337c0 -15 7 -22 22 -22h41v-83h-96c-45 0 -64 19 -64 64zM437 605h-87v101h87v-101zM348 -11v412c0 15 -7 22 -22 22h-41v83h96c45 0 64 -19 64 -64v-459c0 -64 -22 -114 -50 -139
c-45 -42 -104 -51 -144 -50l-34 2v83c6 -1 13 -1 22 -1c39 0 109 12 109 111z" />
    <glyph glyph-name="Jcircumflex" unicode="&#x134;" horiz-adv-x="511" 
d="M229 755h-78l87 127h89l88 -127h-79l-52 80h-2zM16 203v35h100v-27c0 -91 49 -129 112 -129c61 0 110 40 110 125v391c0 15 -7 22 -22 22h-173v86h230c45 0 65 -19 65 -64v-439c0 -71 -21 -125 -62 -161s-91 -54 -149 -54s-108 18 -149 54c-41 37 -62 90 -62 161z" />
    <glyph glyph-name="jcircumflex" unicode="&#x135;" horiz-adv-x="243" 
d="M52 579h-79l88 127h88l88 -127h-79l-53 82zM84 -12v416c0 15 -8 22 -25 22h-38v80h93c47 0 65 -14 65 -58v-465c0 -64 -22 -114 -49 -139c-13 -13 -30 -24 -49 -32c-37 -16 -63 -18 -94 -18l-34 2v81c6 -1 13 -1 22 -1c39 0 109 13 109 112z" />
    <glyph glyph-name="Kcommaaccent" unicode="&#x136;" horiz-adv-x="612" 
d="M199 0h-100v598c0 15 -7 22 -22 22h-43v86h101c45 0 64 -19 64 -64v-233h67c29 0 49 8 58 24l157 273h112l-171 -293c-12 -21 -27 -38 -34 -43l-6 -3v-2c13 -3 27 -18 40 -44l106 -212c7 -15 24 -23 50 -23h19v-86h-55c-57 0 -77 9 -98 53l-122 245c-9 17 -30 26 -63 26
h-60v-324zM280 -59h79c4 -18 6 -34 6 -49c0 -27 -8 -58 -24 -92h-69c13 33 19 60 19 82c0 19 -4 39 -11 59z" />
    <glyph glyph-name="kcommaaccent" unicode="&#x137;" horiz-adv-x="513" 
d="M164 0h-97v601c0 15 -7 22 -22 22h-41v83h95c47 0 65 -14 65 -58v-328h45c24 0 41 7 52 22l117 164h112l-138 -188c-13 -19 -27 -32 -34 -36l-4 -2v-2c11 -4 23 -17 34 -38l75 -137c7 -13 22 -20 44 -20h30v-83h-70c-47 0 -62 8 -83 47l-93 170c-7 14 -24 21 -50 21h-37
v-238zM224 -59h79c4 -18 6 -34 6 -49c0 -27 -8 -58 -24 -92h-69c13 33 19 60 19 82c0 19 -4 39 -11 59z" />
    <glyph glyph-name="kgreenlandic" unicode="&#x138;" horiz-adv-x="529" 
d="M182 0h-97v401c0 15 -7 22 -22 22h-41v83h96c47 0 64 -14 64 -58v-148h45c25 0 43 7 53 21l122 185h110l-143 -207c-13 -19 -27 -31 -32 -35l-4 -2v-2c10 -4 21 -17 32 -39l65 -118c7 -13 22 -20 44 -20h35v-83h-74c-47 0 -63 8 -84 47l-82 150c-7 13 -23 20 -49 20h-38
v-217z" />
    <glyph glyph-name="Lacute" unicode="&#x139;" horiz-adv-x="541" 
d="M98 64v534c0 15 -7 22 -22 22h-43v86h101c45 0 64 -19 64 -64v-534c0 -15 7 -22 22 -22h196c15 0 22 7 22 22v45h91v-89c0 -45 -19 -64 -64 -64h-302c-45 0 -65 19 -65 64zM194 755h-76l73 127h98z" />
    <glyph glyph-name="lacute" unicode="&#x13a;" horiz-adv-x="249" 
d="M67 64v537c0 15 -7 22 -22 22h-40v83h95c45 0 64 -19 64 -64v-537c0 -15 7 -22 22 -22h41v-83h-95c-45 0 -65 19 -65 64zM140 755h-76l73 127h98z" />
    <glyph glyph-name="Lcommaaccent" unicode="&#x13b;" horiz-adv-x="541" 
d="M98 64v534c0 15 -7 22 -22 22h-43v86h101c45 0 64 -19 64 -64v-534c0 -15 7 -22 22 -22h196c15 0 22 7 22 22v45h91v-89c0 -45 -19 -64 -64 -64h-302c-45 0 -65 19 -65 64zM270 -59h79c4 -18 6 -34 6 -49c0 -27 -8 -58 -24 -92h-69c13 33 19 60 19 82c0 19 -4 39 -11 59z
" />
    <glyph glyph-name="lcommaaccent" unicode="&#x13c;" horiz-adv-x="249" 
d="M67 64v537c0 15 -7 22 -22 22h-40v83h95c45 0 64 -19 64 -64v-537c0 -15 7 -22 22 -22h41v-83h-95c-45 0 -65 19 -65 64zM89 -59h79c4 -18 6 -34 6 -49c0 -27 -8 -58 -24 -92h-69c13 33 19 60 19 82c0 19 -4 39 -11 59z" />
    <glyph glyph-name="Lcaron" unicode="&#x13d;" horiz-adv-x="542" 
d="M98 64v534c0 15 -7 22 -22 22h-43v86h101c45 0 64 -19 64 -64v-534c0 -15 7 -22 22 -22h196c15 0 22 7 22 22v45h91v-89c0 -45 -19 -64 -64 -64h-302c-45 0 -65 19 -65 64zM283 706h79c4 -18 6 -34 6 -49c0 -27 -8 -58 -24 -92h-69c13 33 19 60 19 82c0 19 -4 39 -11 59z
" />
    <glyph glyph-name="lcaron" unicode="&#x13e;" horiz-adv-x="249" 
d="M67 64v537c0 15 -7 22 -22 22h-40v83h95c45 0 64 -19 64 -64v-537c0 -15 7 -22 22 -22h41v-83h-95c-45 0 -65 19 -65 64zM220 706h79c4 -18 6 -34 6 -49c0 -27 -8 -58 -24 -92h-69c13 33 19 60 19 82c0 19 -4 39 -11 59z" />
    <glyph glyph-name="Ldot" unicode="&#x13f;" horiz-adv-x="542" 
d="M98 64v534c0 15 -7 22 -22 22h-43v86h101c45 0 64 -19 64 -64v-534c0 -15 7 -22 22 -22h196c15 0 22 7 22 22v45h91v-89c0 -45 -19 -64 -64 -64h-302c-45 0 -65 19 -65 64zM409 327h-99v103h99v-103z" />
    <glyph glyph-name="ldot" unicode="&#x140;" horiz-adv-x="340" 
d="M67 64v537c0 15 -7 22 -22 22h-40v83h95c45 0 64 -19 64 -64v-537c0 -15 7 -22 22 -22h41v-83h-95c-45 0 -65 19 -65 64zM334 327h-99v103h99v-103z" />
    <glyph glyph-name="Lslash" unicode="&#x141;" horiz-adv-x="544" 
d="M101 64v239l-63 -36v97l63 36v198c0 15 -7 22 -22 22h-43v86h101c45 0 64 -19 64 -64v-185l104 60v-97l-104 -60v-252c0 -15 7 -22 22 -22h195c15 0 22 7 22 22v45h92v-89c0 -45 -20 -64 -65 -64h-302c-45 0 -64 19 -64 64z" />
    <glyph glyph-name="lslash" unicode="&#x142;" horiz-adv-x="264" 
d="M79 64v257l-75 -43v97l75 44v182c0 15 -7 22 -22 22h-41v83h96c45 0 64 -19 64 -64v-168l78 45v-97l-78 -46v-271c0 -15 7 -22 22 -22h41v-83h-96c-45 0 -64 19 -64 64z" />
    <glyph glyph-name="Nacute" unicode="&#x143;" horiz-adv-x="757" 
d="M135 0h-101v86h43c15 0 22 7 22 22v598h91l314 -447l59 -96h2c-5 38 -7 70 -7 96v383c0 45 20 64 65 64h100v-86h-43c-15 0 -22 -7 -22 -22v-598h-90l-315 447l-58 96h-2c4 -38 6 -70 6 -96v-383c0 -45 -19 -64 -64 -64zM425 755h-76l73 127h98z" />
    <glyph glyph-name="nacute" unicode="&#x144;" horiz-adv-x="623" 
d="M182 0h-97v401c0 15 -7 22 -22 22h-41v83h93c43 0 64 -19 64 -56v-19l-2 -29h2c13 29 36 55 68 79c33 25 74 37 123 37c115 0 173 -65 173 -194v-219c0 -15 7 -22 22 -22h41v-83h-96c-45 0 -64 19 -64 64v238c0 81 -20 127 -95 127c-76 0 -139 -51 -160 -124
c-6 -17 -9 -40 -9 -68v-237zM359 580h-76l73 127h98z" />
    <glyph glyph-name="Ncommaaccent" unicode="&#x145;" horiz-adv-x="757" 
d="M135 0h-101v86h43c15 0 22 7 22 22v598h91l314 -447l59 -96h2c-5 38 -7 70 -7 96v383c0 45 20 64 65 64h100v-86h-43c-15 0 -22 -7 -22 -22v-598h-90l-315 447l-58 96h-2c4 -38 6 -70 6 -96v-383c0 -45 -19 -64 -64 -64zM335 -59h79c4 -18 6 -34 6 -49
c0 -27 -8 -58 -24 -92h-69c13 33 19 60 19 82c0 19 -4 39 -11 59z" />
    <glyph glyph-name="ncommaaccent" unicode="&#x146;" horiz-adv-x="623" 
d="M182 0h-97v401c0 15 -7 22 -22 22h-41v83h93c43 0 64 -19 64 -56v-19l-2 -29h2c13 29 36 55 68 79c33 25 74 37 123 37c115 0 173 -65 173 -194v-219c0 -15 7 -22 22 -22h41v-83h-96c-45 0 -64 19 -64 64v238c0 81 -20 127 -95 127c-76 0 -139 -51 -160 -124
c-6 -17 -9 -40 -9 -68v-237zM284 -59h79c4 -18 6 -34 6 -49c0 -27 -8 -58 -24 -92h-69c13 33 19 60 19 82c0 19 -4 39 -11 59z" />
    <glyph glyph-name="Ncaron" unicode="&#x147;" horiz-adv-x="757" 
d="M135 0h-101v86h43c15 0 22 7 22 22v598h91l314 -447l59 -96h2c-5 38 -7 70 -7 96v383c0 45 20 64 65 64h100v-86h-43c-15 0 -22 -7 -22 -22v-598h-90l-315 447l-58 96h-2c4 -38 6 -70 6 -96v-383c0 -45 -19 -64 -64 -64zM433 755h-89l-88 127h79l52 -81h2l52 81h80z" />
    <glyph glyph-name="ncaron" unicode="&#x148;" horiz-adv-x="623" 
d="M182 0h-97v401c0 15 -7 22 -22 22h-41v83h93c43 0 64 -19 64 -56v-19l-2 -29h2c13 29 36 55 68 79c33 25 74 37 123 37c115 0 173 -65 173 -194v-219c0 -15 7 -22 22 -22h41v-83h-96c-45 0 -64 19 -64 64v238c0 81 -20 127 -95 127c-76 0 -139 -51 -160 -124
c-6 -17 -9 -40 -9 -68v-237zM367 580h-89l-88 127h79l52 -81h2l52 81h80z" />
    <glyph glyph-name="napostrophe" unicode="&#x149;" horiz-adv-x="623" 
d="M182 0h-97v401c0 15 -7 22 -22 22h-41v83h93c43 0 64 -19 64 -56v-19l-2 -29h2c13 29 36 55 68 79c33 25 74 37 123 37c115 0 173 -65 173 -194v-219c0 -15 7 -22 22 -22h41v-83h-96c-45 0 -64 19 -64 64v238c0 81 -20 127 -95 127c-76 0 -139 -51 -160 -124
c-6 -17 -9 -40 -9 -68v-237zM-33 706h79c4 -18 6 -34 6 -49c0 -27 -8 -58 -24 -92h-69c13 33 19 60 19 82c0 19 -4 39 -11 59z" />
    <glyph glyph-name="Eng" unicode="&#x14a;" horiz-adv-x="757" 
d="M135 0h-101v86h43c15 0 22 7 22 22v598h91l314 -447l59 -96h2c-5 38 -7 70 -7 96v383c0 45 20 64 65 64h100v-86h-43c-15 0 -22 -7 -22 -22v-571c0 -87 -29 -152 -76 -185s-97 -47 -156 -47v91c33 0 63 10 90 31c28 20 42 51 42 92v7l-305 431l-58 96h-2
c4 -38 6 -70 6 -96v-383c0 -45 -19 -64 -64 -64z" />
    <glyph glyph-name="eng" unicode="&#x14b;" horiz-adv-x="600" 
d="M182 0h-97v401c0 15 -7 22 -22 22h-41v83h93c43 0 64 -19 64 -56v-19l-2 -29h2c13 29 36 55 68 79c33 25 74 37 123 37c115 0 173 -65 173 -194v-344c0 -64 -22 -114 -50 -139c-45 -42 -104 -51 -144 -50l-34 2v83c6 -1 13 -1 22 -1c39 0 109 13 109 112v315
c0 81 -20 127 -95 127c-76 0 -140 -52 -161 -125c-5 -18 -8 -40 -8 -67v-237z" />
    <glyph glyph-name="Omacron" unicode="&#x14c;" horiz-adv-x="793" 
d="M34 358c0 101 35 187 104 256c70 69 156 104 258 104s188 -35 258 -104s105 -155 105 -256c0 -104 -35 -192 -105 -263s-156 -107 -258 -107s-188 36 -258 107c-69 71 -104 159 -104 263zM138 358c0 -77 25 -143 75 -196s111 -80 183 -80s133 27 183 80
c51 53 76 119 76 196c0 75 -25 139 -76 190c-50 51 -111 77 -183 77s-133 -26 -183 -77s-75 -115 -75 -190zM521 784h-254v68h254v-68z" />
    <glyph glyph-name="omacron" unicode="&#x14d;" horiz-adv-x="611" 
d="M305 518c77 0 141 -25 194 -75s79 -113 79 -189s-27 -139 -80 -190s-117 -76 -193 -76s-140 25 -193 76s-79 114 -79 190s26 139 79 189s117 75 193 75zM305 72c49 0 90 17 123 51c34 35 51 78 51 131c0 52 -17 95 -51 129c-33 34 -74 51 -123 51c-48 0 -89 -17 -123 -51
s-51 -77 -51 -129s17 -95 51 -130s75 -52 123 -52zM432 609h-254v68h254v-68z" />
    <glyph glyph-name="Obreve" unicode="&#x14e;" horiz-adv-x="793" 
d="M34 358c0 101 35 187 104 256c70 69 156 104 258 104s188 -35 258 -104s105 -155 105 -256c0 -104 -35 -192 -105 -263s-156 -107 -258 -107s-188 36 -258 107c-69 71 -104 159 -104 263zM138 358c0 -77 25 -143 75 -196s111 -80 183 -80s133 27 183 80
c51 53 76 119 76 196c0 75 -25 139 -76 190c-50 51 -111 77 -183 77s-133 -26 -183 -77s-75 -115 -75 -190zM393 751c-68 0 -128 44 -128 117v14h67v-13c0 -40 28 -60 61 -60c35 0 62 21 62 61v12h66v-14c0 -73 -59 -117 -128 -117z" />
    <glyph glyph-name="obreve" unicode="&#x14f;" horiz-adv-x="611" 
d="M305 518c77 0 141 -25 194 -75s79 -113 79 -189s-27 -139 -80 -190s-117 -76 -193 -76s-140 25 -193 76s-79 114 -79 190s26 139 79 189s117 75 193 75zM305 72c49 0 90 17 123 51c34 35 51 78 51 131c0 52 -17 95 -51 129c-33 34 -74 51 -123 51c-48 0 -89 -17 -123 -51
s-51 -77 -51 -129s17 -95 51 -130s75 -52 123 -52zM305 576c-68 0 -128 44 -128 117v14h67v-13c0 -40 28 -60 61 -60c35 0 62 21 62 61v12h66v-14c0 -73 -59 -117 -128 -117z" />
    <glyph glyph-name="Ohungarumlaut" unicode="&#x150;" horiz-adv-x="793" 
d="M34 358c0 101 35 187 104 256c70 69 156 104 258 104s188 -35 258 -104s105 -155 105 -256c0 -104 -35 -192 -105 -263s-156 -107 -258 -107s-188 36 -258 107c-69 71 -104 159 -104 263zM138 358c0 -77 25 -143 75 -196s111 -80 183 -80s133 27 183 80
c51 53 76 119 76 196c0 75 -25 139 -76 190c-50 51 -111 77 -183 77s-133 -26 -183 -77s-75 -115 -75 -190zM503 755h-75l72 127h99zM358 755h-83l69 127h84z" />
    <glyph glyph-name="ohungarumlaut" unicode="&#x151;" horiz-adv-x="611" 
d="M305 518c77 0 141 -25 194 -75s79 -113 79 -189s-27 -139 -80 -190s-117 -76 -193 -76s-140 25 -193 76s-79 114 -79 190s26 139 79 189s117 75 193 75zM305 72c49 0 90 17 123 51c34 35 51 78 51 131c0 52 -17 95 -51 129c-33 34 -74 51 -123 51c-48 0 -89 -17 -123 -51
s-51 -77 -51 -129s17 -95 51 -130s75 -52 123 -52zM415 580h-75l72 127h99zM270 580h-83l69 127h84z" />
    <glyph glyph-name="OE" unicode="&#x152;" horiz-adv-x="938" 
d="M382 715c19 0 45 -2 77 -5s54 -4 66 -4h290c45 0 64 -19 64 -64v-89h-91v45c0 15 -7 22 -22 22h-195v-221h241v-86h-241v-227h222c15 0 22 7 22 22v45h92v-89c0 -45 -18 -64 -61 -64h-320c-12 0 -34 -1 -67 -4c-32 -3 -58 -5 -77 -5c-99 0 -181 35 -248 105
s-100 156 -100 258s33 188 100 257s149 104 248 104zM139 354c0 -78 22 -143 67 -194s104 -76 176 -76c36 0 66 3 89 8v522c-23 5 -53 8 -89 8c-72 0 -131 -25 -176 -76s-67 -115 -67 -192z" />
    <glyph glyph-name="oe" unicode="&#x153;" horiz-adv-x="988" 
d="M304 518c99 0 177 -45 222 -120h2c42 80 112 120 209 120c69 0 122 -23 160 -68c39 -45 58 -101 58 -169l-3 -41h-370c8 -108 82 -168 175 -168c52 0 107 25 131 45l17 15l42 -70l-25 -21c-10 -8 -32 -19 -66 -33c-34 -13 -69 -20 -104 -20c-103 0 -177 41 -222 123h-2
c-48 -82 -123 -123 -224 -123c-76 0 -140 24 -193 73c-52 49 -78 113 -78 191s26 142 78 191c53 50 117 75 193 75zM587 311h268c-4 81 -52 130 -119 130c-77 0 -136 -47 -149 -130zM131 252c0 -53 17 -97 50 -130c34 -33 75 -50 123 -50c49 0 90 17 124 50
c34 34 51 78 51 133c0 53 -17 96 -52 129c-34 33 -75 50 -123 50s-89 -17 -123 -51c-33 -33 -50 -77 -50 -131z" />
    <glyph glyph-name="Racute" unicode="&#x154;" horiz-adv-x="622" 
d="M198 0h-100v620h-65v86h309c63 0 113 -19 152 -56s59 -88 59 -151c0 -53 -14 -96 -41 -129c-27 -32 -56 -51 -87 -58v-2c12 -6 22 -17 30 -32l85 -169c8 -15 25 -23 51 -23h13v-86h-49c-59 0 -76 9 -99 53l-96 190c-16 32 -29 38 -69 38h-93v-281zM198 620v-253h131
c76 0 121 48 121 128c0 79 -45 125 -120 125h-132zM319 755h-76l73 127h98z" />
    <glyph glyph-name="racute" unicode="&#x155;" horiz-adv-x="376" 
d="M182 0h-97v401c0 15 -7 22 -22 22h-41v83h93c43 0 64 -20 64 -59v-32l-2 -35h2c25 77 85 132 160 132l26 -2v-96c-9 2 -18 3 -28 3c-64 0 -119 -44 -143 -119c-8 -26 -12 -56 -12 -91v-207zM236 580h-76l73 127h98z" />
    <glyph glyph-name="Rcommaaccent" unicode="&#x156;" horiz-adv-x="622" 
d="M198 0h-100v620h-65v86h309c63 0 113 -19 152 -56s59 -88 59 -151c0 -53 -14 -96 -41 -129c-27 -32 -56 -51 -87 -58v-2c12 -6 22 -17 30 -32l85 -169c8 -15 25 -23 51 -23h13v-86h-49c-59 0 -76 9 -99 53l-96 190c-16 32 -29 38 -69 38h-93v-281zM198 620v-253h131
c76 0 121 48 121 128c0 79 -45 125 -120 125h-132zM296 -59h79c4 -18 6 -34 6 -49c0 -27 -8 -58 -24 -92h-69c13 33 19 60 19 82c0 19 -4 39 -11 59z" />
    <glyph glyph-name="rcommaaccent" unicode="&#x157;" horiz-adv-x="376" 
d="M182 0h-97v401c0 15 -7 22 -22 22h-41v83h93c43 0 64 -20 64 -59v-32l-2 -35h2c25 77 85 132 160 132l26 -2v-96c-9 2 -18 3 -28 3c-64 0 -119 -44 -143 -119c-8 -26 -12 -56 -12 -91v-207zM98 -59h79c4 -18 6 -34 6 -49c0 -27 -8 -58 -24 -92h-69c13 33 19 60 19 82
c0 19 -4 39 -11 59z" />
    <glyph glyph-name="Rcaron" unicode="&#x158;" horiz-adv-x="622" 
d="M198 0h-100v620h-65v86h309c63 0 113 -19 152 -56s59 -88 59 -151c0 -53 -14 -96 -41 -129c-27 -32 -56 -51 -87 -58v-2c12 -6 22 -17 30 -32l85 -169c8 -15 25 -23 51 -23h13v-86h-49c-59 0 -76 9 -99 53l-96 190c-16 32 -29 38 -69 38h-93v-281zM198 620v-253h131
c76 0 121 48 121 128c0 79 -45 125 -120 125h-132zM327 755h-89l-88 127h79l52 -81h2l52 81h80z" />
    <glyph glyph-name="rcaron" unicode="&#x159;" horiz-adv-x="376" 
d="M244 580h-89l-88 127h79l52 -81h2l52 81h80zM182 0h-97v401c0 15 -7 22 -22 22h-41v83h93c43 0 64 -20 64 -59v-32l-2 -35h2c25 77 85 132 160 132l26 -2v-96c-9 2 -18 3 -28 3c-64 0 -119 -44 -143 -119c-8 -26 -12 -56 -12 -91v-207z" />
    <glyph glyph-name="Sacute" unicode="&#x15a;" horiz-adv-x="525" 
d="M38 82l-9 11l58 71c4 -4 8 -10 32 -30c33 -25 83 -55 146 -55c67 0 120 42 120 105c0 53 -53 93 -120 122c-96 41 -222 95 -220 223c0 54 21 99 63 135c43 36 97 54 163 54c29 0 57 -4 86 -12c29 -7 55 -21 78 -42c24 -21 36 -46 36 -76v-58h-92v33c0 36 -50 64 -109 64
c-73 0 -124 -40 -124 -95c0 -72 86 -97 170 -138c30 -14 57 -29 82 -44c51 -29 89 -88 89 -161c0 -56 -20 -104 -61 -143s-95 -58 -163 -58c-56 0 -113 17 -148 37s-64 42 -77 57zM304 755h-76l73 127h98z" />
    <glyph glyph-name="sacute" unicode="&#x15b;" horiz-adv-x="449" 
d="M36 68l-8 9l49 65c3 -4 7 -9 27 -26c28 -23 70 -49 127 -49c49 0 87 24 87 65c0 33 -44 58 -97 78c-77 29 -179 72 -178 166c0 92 79 142 188 142c39 0 77 -8 112 -24c36 -15 54 -40 54 -74v-48h-87v25c0 27 -40 43 -76 43c-59 0 -95 -21 -95 -60c0 -35 43 -60 98 -80
c79 -27 179 -65 179 -164c0 -45 -18 -81 -53 -108s-79 -40 -133 -40c-108 0 -172 56 -194 80zM263 580h-76l73 127h98z" />
    <glyph glyph-name="Scircumflex" unicode="&#x15c;" horiz-adv-x="525" 
d="M38 82l-9 11l58 71c4 -4 8 -10 32 -30c33 -25 83 -55 146 -55c67 0 120 42 120 105c0 53 -53 93 -120 122c-96 41 -222 95 -220 223c0 54 21 99 63 135c43 36 97 54 163 54c29 0 57 -4 86 -12c29 -7 55 -21 78 -42c24 -21 36 -46 36 -76v-58h-92v33c0 36 -50 64 -109 64
c-73 0 -124 -40 -124 -95c0 -72 86 -97 170 -138c30 -14 57 -29 82 -44c51 -29 89 -88 89 -161c0 -56 -20 -104 -61 -143s-95 -58 -163 -58c-56 0 -113 17 -148 37s-64 42 -77 57zM214 755h-78l87 127h89l88 -127h-79l-52 80h-2z" />
    <glyph glyph-name="scircumflex" unicode="&#x15d;" horiz-adv-x="449" 
d="M36 68l-8 9l49 65c3 -4 7 -9 27 -26c28 -23 70 -49 127 -49c49 0 87 24 87 65c0 33 -44 58 -97 78c-77 29 -179 72 -178 166c0 92 79 142 188 142c39 0 77 -8 112 -24c36 -15 54 -40 54 -74v-48h-87v25c0 27 -40 43 -76 43c-59 0 -95 -21 -95 -60c0 -35 43 -60 98 -80
c79 -27 179 -65 179 -164c0 -45 -18 -81 -53 -108s-79 -40 -133 -40c-108 0 -172 56 -194 80zM173 580h-78l87 127h89l88 -127h-79l-52 80h-2z" />
    <glyph glyph-name="Scedilla" unicode="&#x15e;" horiz-adv-x="526" 
d="M51 70l-21 23l58 71c4 -4 8 -10 32 -30c32 -25 82 -55 145 -55c68 0 121 42 121 105c-1 148 -340 124 -341 345c0 53 21 98 63 134c43 37 97 55 163 55c29 0 57 -4 86 -12c29 -7 55 -21 79 -42s36 -46 36 -76v-58h-92v33c0 36 -52 64 -109 64c-75 0 -124 -40 -124 -95
c0 -72 86 -97 170 -138c30 -14 57 -29 82 -44c51 -29 89 -88 89 -161c0 -53 -19 -99 -56 -137s-86 -59 -148 -63l-8 -39c43 -5 72 -32 72 -73c0 -57 -45 -84 -102 -84c-19 0 -40 2 -48 5l-7 2v58c13 -5 27 -7 42 -7c32 0 48 10 48 31s-18 31 -53 31l-18 -1l20 78
c-39 4 -75 15 -108 32s-57 33 -71 48z" />
    <glyph glyph-name="scedilla" unicode="&#x15f;" horiz-adv-x="450" 
d="M44 59l-16 18l49 65c3 -4 7 -9 27 -26c28 -23 70 -49 127 -49c49 0 87 24 87 65c0 33 -44 58 -97 78c-77 29 -179 72 -178 166c0 92 79 142 188 142c39 0 77 -8 112 -24c36 -15 54 -40 54 -74v-48h-87v25c0 27 -40 43 -76 43c-59 0 -95 -21 -95 -60c0 -35 43 -60 98 -80
c79 -27 179 -65 179 -164c0 -85 -73 -143 -174 -148l-8 -38c41 -5 71 -32 71 -73c0 -57 -43 -84 -102 -84c-19 0 -39 2 -48 5l-7 2v58c13 -5 28 -7 43 -7c31 0 47 10 47 31s-18 31 -53 31l-17 -1l20 79c-64 9 -123 44 -144 68z" />
    <glyph glyph-name="Scaron" unicode="&#x160;" horiz-adv-x="525" 
d="M38 82l-9 11l58 71c4 -4 8 -10 32 -30c33 -25 83 -55 146 -55c67 0 120 42 120 105c0 53 -53 93 -120 122c-96 41 -222 95 -220 223c0 54 21 99 63 135c43 36 97 54 163 54c29 0 57 -4 86 -12c29 -7 55 -21 78 -42c24 -21 36 -46 36 -76v-58h-92v33c0 36 -50 64 -109 64
c-73 0 -124 -40 -124 -95c0 -72 86 -97 170 -138c30 -14 57 -29 82 -44c51 -29 89 -88 89 -161c0 -56 -20 -104 -61 -143s-95 -58 -163 -58c-56 0 -113 17 -148 37s-64 42 -77 57zM312 755h-89l-88 127h79l52 -81h2l52 81h80z" />
    <glyph glyph-name="scaron" unicode="&#x161;" horiz-adv-x="449" 
d="M36 68l-8 9l49 65c3 -4 7 -9 27 -26c28 -23 70 -49 127 -49c49 0 87 24 87 65c0 33 -44 58 -97 78c-77 29 -179 72 -178 166c0 92 79 142 188 142c39 0 77 -8 112 -24c36 -15 54 -40 54 -74v-48h-87v25c0 27 -40 43 -76 43c-59 0 -95 -21 -95 -60c0 -35 43 -60 98 -80
c79 -27 179 -65 179 -164c0 -45 -18 -81 -53 -108s-79 -40 -133 -40c-108 0 -172 56 -194 80zM271 580h-89l-88 127h79l52 -81h2l52 81h80z" />
    <glyph glyph-name="Tcommaaccent" unicode="&#x162;" horiz-adv-x="632" 
d="M288 0h-22v620h-141c-15 0 -22 -7 -22 -22v-45h-90v93c0 45 15 60 60 60h486c45 0 60 -15 60 -60v-93h-89v45c0 15 -7 22 -22 22h-142v-620h-24l-10 -50c41 -5 71 -32 71 -73c0 -57 -44 -84 -101 -84c-19 0 -40 2 -49 5l-7 2v58c13 -5 28 -7 43 -7c31 0 47 10 47 31
s-17 31 -52 31l-18 -1z" />
    <glyph glyph-name="tcommaaccent" unicode="&#x163;" horiz-adv-x="328" 
d="M83 185v243h-66v78h68v139h95v-139h122v-78h-122v-232c0 -101 72 -114 108 -114l23 2v-86c-9 -1 -21 -2 -34 -2c-19 0 -36 2 -53 5l-10 -51c43 -5 72 -32 72 -73c0 -57 -45 -84 -102 -84c-19 0 -40 2 -48 5l-7 2v58c13 -5 27 -7 42 -7c32 0 48 10 48 31s-18 31 -53 31
l-18 -1l27 104c-61 29 -92 85 -92 169z" />
    <glyph glyph-name="Tcaron" unicode="&#x164;" horiz-adv-x="632" 
d="M361 755h-89l-88 127h79l52 -81h2l52 81h80zM366 0h-100v620h-141c-15 0 -22 -7 -22 -22v-45h-90v93c0 45 15 60 60 60h486c45 0 60 -15 60 -60v-93h-89v45c0 15 -7 22 -22 22h-142v-620z" />
    <glyph glyph-name="tcaron" unicode="&#x165;" horiz-adv-x="328" 
d="M83 185v243h-66v78h68v139h95v-139h122v-78h-122v-232c0 -101 72 -114 108 -114l23 2v-86c-9 -1 -21 -2 -34 -2c-32 0 -59 2 -96 18c-51 22 -98 70 -98 171zM243 706h79c4 -18 6 -34 6 -49c0 -27 -8 -58 -24 -92h-69c13 33 19 60 19 82c0 19 -4 39 -11 59z" />
    <glyph glyph-name="Tbar" unicode="&#x166;" horiz-adv-x="646" 
d="M372 0h-100v310h-154v76h154v234h-141c-15 0 -22 -7 -22 -22v-45h-90v93c0 45 16 60 61 60h485c45 0 60 -15 60 -60v-93h-89v45c0 15 -7 22 -22 22h-142v-234h161v-76h-161v-310z" />
    <glyph glyph-name="tbar" unicode="&#x167;" horiz-adv-x="331" 
d="M84 185v74h-66v68h66v101h-66v78h68v139h95v-139h121v-78h-121v-101h121v-68h-121v-66c0 -97 69 -111 107 -111l23 2v-86c-9 -1 -20 -2 -34 -2c-31 0 -58 2 -95 18c-51 22 -98 70 -98 171z" />
    <glyph glyph-name="Utilde" unicode="&#x168;" horiz-adv-x="720" 
d="M256 756h-66c0 85 34 127 103 127c60 0 93 -68 128 -68c28 0 41 32 41 65h65c0 -85 -34 -127 -103 -127c-59 0 -92 68 -128 68c-28 0 -40 -30 -40 -65zM91 247v351c0 15 -7 22 -22 22h-43v86h100c45 0 65 -19 65 -64v-391c0 -105 65 -169 169 -169c103 0 169 65 169 170
v390c0 45 19 64 64 64h101v-86h-43c-15 0 -22 -7 -22 -22v-351c0 -77 -25 -140 -74 -188c-49 -47 -114 -71 -194 -71c-81 0 -146 24 -196 71c-49 48 -74 111 -74 188z" />
    <glyph glyph-name="utilde" unicode="&#x169;" horiz-adv-x="618" 
d="M197 581h-66c0 85 34 127 103 127c60 0 93 -68 128 -68c28 0 41 32 41 65h65c0 -85 -34 -127 -103 -127c-59 0 -92 68 -128 68c-28 0 -40 -30 -40 -65zM80 182v219c0 15 -7 22 -22 22h-41v83h95c45 0 64 -19 64 -62v-240c0 -80 22 -126 95 -126c50 0 90 19 120 56
s45 82 45 135v237h97v-401c0 -15 7 -22 22 -22h41v-83h-93c-43 0 -64 19 -64 56v19l1 29h-2c-13 -29 -36 -56 -69 -80s-72 -36 -117 -36c-115 0 -172 62 -172 194z" />
    <glyph glyph-name="Umacron" unicode="&#x16a;" horiz-adv-x="720" 
d="M91 247v351c0 15 -7 22 -22 22h-43v86h100c45 0 65 -19 65 -64v-391c0 -105 65 -169 169 -169c103 0 169 65 169 170v390c0 45 19 64 64 64h101v-86h-43c-15 0 -22 -7 -22 -22v-351c0 -77 -25 -140 -74 -188c-49 -47 -114 -71 -194 -71c-81 0 -146 24 -196 71
c-49 48 -74 111 -74 188zM488 784h-254v68h254v-68z" />
    <glyph glyph-name="umacron" unicode="&#x16b;" horiz-adv-x="618" 
d="M80 182v219c0 15 -7 22 -22 22h-41v83h95c45 0 64 -19 64 -62v-240c0 -80 22 -126 95 -126c50 0 90 19 120 56s45 82 45 135v237h97v-401c0 -15 7 -22 22 -22h41v-83h-93c-43 0 -64 19 -64 56v19l1 29h-2c-13 -29 -36 -56 -69 -80s-72 -36 -117 -36
c-115 0 -172 62 -172 194zM428 609h-254v68h254v-68z" />
    <glyph glyph-name="Ubreve" unicode="&#x16c;" horiz-adv-x="720" 
d="M91 247v351c0 15 -7 22 -22 22h-43v86h100c45 0 65 -19 65 -64v-391c0 -105 65 -169 169 -169c103 0 169 65 169 170v390c0 45 19 64 64 64h101v-86h-43c-15 0 -22 -7 -22 -22v-351c0 -77 -25 -140 -74 -188c-49 -47 -114 -71 -194 -71c-81 0 -146 24 -196 71
c-49 48 -74 111 -74 188zM360 751c-68 0 -128 44 -128 117v14h67v-13c-6 -80 128 -80 123 1v12h66v-14c0 -73 -59 -117 -128 -117z" />
    <glyph glyph-name="ubreve" unicode="&#x16d;" horiz-adv-x="618" 
d="M80 182v219c0 15 -7 22 -22 22h-41v83h95c45 0 64 -19 64 -62v-240c0 -80 22 -126 95 -126c50 0 90 19 120 56s45 82 45 135v237h97v-401c0 -15 7 -22 22 -22h41v-83h-93c-43 0 -64 19 -64 56v19l1 29h-2c-13 -29 -36 -56 -69 -80s-72 -36 -117 -36
c-115 0 -172 62 -172 194zM300 576c-68 0 -128 44 -128 117v14h67v-13c-6 -80 128 -80 123 1v12h66v-14c0 -73 -59 -117 -128 -117z" />
    <glyph glyph-name="Uring" unicode="&#x16e;" horiz-adv-x="720" 
d="M91 247v351c0 15 -7 22 -22 22h-43v86h100c45 0 65 -19 65 -64v-391c0 -105 65 -169 169 -169c103 0 169 65 169 170v390c0 45 19 64 64 64h101v-86h-43c-15 0 -22 -7 -22 -22v-351c0 -77 -25 -140 -74 -188c-49 -47 -114 -71 -194 -71c-81 0 -146 24 -196 71
c-49 48 -74 111 -74 188zM360 743c-45 0 -81 30 -81 74c0 45 36 75 81 75c44 0 81 -30 81 -75c0 -44 -37 -74 -81 -74zM394 817c0 46 -68 46 -68 0c-4 -43 72 -43 68 0z" />
    <glyph glyph-name="uring" unicode="&#x16f;" horiz-adv-x="618" 
d="M80 182v219c0 15 -7 22 -22 22h-41v83h95c45 0 64 -19 64 -62v-240c0 -80 22 -126 95 -126c50 0 90 19 120 56s45 82 45 135v237h97v-401c0 -15 7 -22 22 -22h41v-83h-93c-43 0 -64 19 -64 56v19l1 29h-2c-13 -29 -36 -56 -69 -80s-72 -36 -117 -36
c-115 0 -172 62 -172 194zM301 568c-45 0 -81 30 -81 74c0 45 36 75 81 75c44 0 81 -30 81 -75c0 -44 -37 -74 -81 -74zM335 642c0 46 -68 46 -68 0c-4 -43 72 -43 68 0z" />
    <glyph glyph-name="Uhungarumlaut" unicode="&#x170;" horiz-adv-x="720" 
d="M91 247v351c0 15 -7 22 -22 22h-43v86h100c45 0 65 -19 65 -64v-391c0 -105 65 -169 169 -169c103 0 169 65 169 170v390c0 45 19 64 64 64h101v-86h-43c-15 0 -22 -7 -22 -22v-351c0 -77 -25 -140 -74 -188c-49 -47 -114 -71 -194 -71c-81 0 -146 24 -196 71
c-49 48 -74 111 -74 188zM470 755h-75l72 127h99zM325 755h-83l69 127h84z" />
    <glyph glyph-name="uhungarumlaut" unicode="&#x171;" horiz-adv-x="618" 
d="M80 182v219c0 15 -7 22 -22 22h-41v83h95c45 0 64 -19 64 -62v-240c0 -80 22 -126 95 -126c50 0 90 19 120 56s45 82 45 135v237h97v-401c0 -15 7 -22 22 -22h41v-83h-93c-43 0 -64 19 -64 56v19l1 29h-2c-13 -29 -36 -56 -69 -80s-72 -36 -117 -36
c-115 0 -172 62 -172 194zM410 580h-75l72 127h99zM265 580h-83l69 127h84z" />
    <glyph glyph-name="Uogonek" unicode="&#x172;" horiz-adv-x="722" 
d="M91 247v351c0 15 -7 22 -22 22h-43v86h100c45 0 65 -19 65 -64v-391c0 -105 65 -169 169 -169c103 0 169 65 169 170v390c0 45 19 64 64 64h101v-86h-43c-15 0 -22 -7 -22 -22v-355c0 -99 -47 -176 -140 -230c-57 -33 -86 -67 -86 -102c0 -23 23 -37 42 -41l14 -2
l-23 -75c-7 0 -13 1 -40 9c-35 10 -76 35 -76 86c0 39 17 72 52 100v2c-7 -1 -14 -1 -21 -1c-77 0 -139 24 -188 72c-48 48 -72 110 -72 186z" />
    <glyph glyph-name="uogonek" unicode="&#x173;" horiz-adv-x="618" 
d="M80 182v219c0 15 -7 22 -22 22h-41v83h96c52 0 64 -22 64 -83v-219c0 -81 21 -126 94 -126c50 0 90 19 120 56s45 82 45 135v237h97v-401c0 -15 7 -22 22 -22h41v-83c-43 -35 -64 -64 -64 -89c0 -23 23 -37 42 -41l13 -2l-23 -75c-7 0 -13 1 -40 9c-35 10 -76 35 -76 86
c0 40 22 77 67 111v2h-19c-38 0 -57 18 -57 55v19l2 29h-3c-3 -7 -5 -13 -26 -40c-26 -35 -75 -76 -159 -76c-116 0 -173 61 -173 194z" />
    <glyph glyph-name="Wcircumflex" unicode="&#x174;" horiz-adv-x="967" 
d="M337 0h-117l-154 598c-4 15 -16 22 -35 22h-15v86h58c52 0 75 -13 86 -58l110 -454l13 -75h2c5 24 10 49 17 75l143 510h89l132 -510l15 -75h2c3 25 8 50 14 75l110 454c11 45 33 58 86 58h58v-86h-15c-19 0 -31 -7 -35 -22l-154 -598h-117l-120 446l-20 97h-2
c-6 -34 -13 -66 -22 -96zM435 755h-78l87 127h89l88 -127h-79l-52 80h-2z" />
    <glyph glyph-name="wcircumflex" unicode="&#x175;" horiz-adv-x="845" 
d="M303 0h-109l-133 403c-5 13 -16 20 -32 20h-14v83h61c45 0 63 -11 76 -54l89 -301l12 -54h2c4 19 9 37 14 54l109 353h90l109 -353l13 -54h2c3 19 8 37 13 54l89 301c13 43 30 54 75 54h61v-83h-14c-16 0 -26 -7 -31 -20l-133 -403h-109l-105 325l-14 55h-2
c-4 -19 -9 -38 -14 -55zM369 580h-78l87 127h89l88 -127h-79l-52 80h-2z" />
    <glyph glyph-name="Ycircumflex" unicode="&#x176;" horiz-adv-x="606" 
d="M353 0h-100v308l-179 287c-9 17 -24 25 -43 25h-20v86h46c49 0 68 -9 95 -54l107 -178l43 -79h2c13 27 28 53 43 79l106 178c27 45 46 54 95 54h47v-86h-20c-19 0 -34 -8 -44 -25l-178 -287v-308zM249 755h-78l87 127h89l88 -127h-79l-52 80h-2z" />
    <glyph glyph-name="ycircumflex" unicode="&#x177;" horiz-adv-x="543" 
d="M2 -160l40 70c0 -1 32 -36 74 -36c39 0 68 24 89 73l23 55l-173 401c-6 13 -16 20 -31 20h-13v83h57c41 0 57 -11 73 -51l114 -285l18 -61h2c5 23 11 44 17 61l106 285c13 40 32 51 73 51h58v-83h-13c-15 0 -26 -7 -32 -20l-199 -494c-32 -77 -92 -119 -164 -119
c-44 0 -89 21 -106 38zM216 580h-78l87 127h89l88 -127h-79l-52 80h-2z" />
    <glyph glyph-name="Ydieresis" unicode="&#x178;" horiz-adv-x="606" 
d="M353 0h-100v308l-179 287c-9 17 -24 25 -43 25h-20v86h46c49 0 68 -9 95 -54l107 -178l43 -79h2c13 27 28 53 43 79l106 178c27 45 46 54 95 54h47v-86h-20c-19 0 -34 -8 -44 -25l-178 -287v-308zM423 781h-73v101h73v-101zM259 781h-74v101h74v-101z" />
    <glyph glyph-name="Zacute" unicode="&#x179;" horiz-adv-x="600" 
d="M506 0h-474v66l348 490c16 23 35 47 46 58l7 7v2c-13 -2 -30 -3 -53 -3h-227c-15 0 -22 -7 -22 -22v-45h-91v89c0 45 19 64 64 64h452v-65l-348 -491c-16 -23 -37 -47 -46 -56l-7 -8v-2c13 1 30 2 53 2h249c15 0 22 7 22 22v45h91v-89c0 -45 -19 -64 -64 -64zM346 755
h-76l73 127h98z" />
    <glyph glyph-name="zacute" unicode="&#x17a;" horiz-adv-x="515" 
d="M421 0h-384v56l259 320l41 47v2c-10 -1 -26 -2 -48 -2h-139c-15 0 -22 -7 -22 -22v-34h-89v75c0 45 20 64 65 64h361v-56l-259 -321l-42 -46v-2c11 1 27 2 49 2h161c15 0 22 7 22 22v34h89v-75c0 -45 -19 -64 -64 -64zM300 580h-76l73 127h98z" />
    <glyph glyph-name="Zdotaccent" unicode="&#x17b;" horiz-adv-x="600" 
d="M506 0h-474v66l348 490c16 23 35 47 46 58l7 7v2c-13 -2 -30 -3 -53 -3h-227c-15 0 -22 -7 -22 -22v-45h-91v89c0 45 19 64 64 64h452v-65l-348 -491c-16 -23 -37 -47 -46 -56l-7 -8v-2c13 1 30 2 53 2h249c15 0 22 7 22 22v45h91v-89c0 -45 -19 -64 -64 -64zM353 781
h-87v101h87v-101z" />
    <glyph glyph-name="zdotaccent" unicode="&#x17c;" horiz-adv-x="515" 
d="M421 0h-384v56l259 320l41 47v2c-10 -1 -26 -2 -48 -2h-139c-15 0 -22 -7 -22 -22v-34h-89v75c0 45 20 64 65 64h361v-56l-259 -321l-42 -46v-2c11 1 27 2 49 2h161c15 0 22 7 22 22v34h89v-75c0 -45 -19 -64 -64 -64zM307 606h-87v101h87v-101z" />
    <glyph glyph-name="Zcaron" unicode="&#x17d;" horiz-adv-x="600" 
d="M506 0h-474v66l348 490c16 23 35 47 46 58l7 7v2c-13 -2 -30 -3 -53 -3h-227c-15 0 -22 -7 -22 -22v-45h-91v89c0 45 19 64 64 64h452v-65l-348 -491c-16 -23 -37 -47 -46 -56l-7 -8v-2c13 1 30 2 53 2h249c15 0 22 7 22 22v45h91v-89c0 -45 -19 -64 -64 -64zM354 755
h-89l-88 127h79l52 -81h2l52 81h80z" />
    <glyph glyph-name="zcaron" unicode="&#x17e;" horiz-adv-x="515" 
d="M421 0h-384v56l259 320l41 47v2c-10 -1 -26 -2 -48 -2h-139c-15 0 -22 -7 -22 -22v-34h-89v75c0 45 20 64 65 64h361v-56l-259 -321l-42 -46v-2c11 1 27 2 49 2h161c15 0 22 7 22 22v34h89v-75c0 -45 -19 -64 -64 -64zM308 580h-89l-88 127h79l52 -81h2l52 81h80z" />
    <glyph glyph-name="longs" unicode="&#x17f;" horiz-adv-x="262" 
d="M182 0h-97v428h-63v78h63v17c0 64 21 113 48 138c45 42 103 50 143 50l37 -3v-83c-7 1 -15 2 -25 2c-39 0 -106 -13 -106 -107v-520z" />
    <glyph glyph-name="florin" unicode="&#x192;" 
d="M74 -54l8 84c7 -1 15 -2 24 -2c37 0 107 13 115 111l18 211h-75v78h83l8 95c16 167 141 188 207 188l37 -3l-8 -83c-7 1 -15 2 -25 2c-37 0 -107 -13 -115 -111l-8 -88h105v-78h-112l-19 -218c-5 -64 -32 -113 -61 -138c-47 -41 -105 -51 -145 -50z" />
    <glyph glyph-name="Scommaaccent" unicode="&#x218;" horiz-adv-x="525" 
d="M38 82l-9 11l58 71c4 -4 8 -10 32 -30c33 -25 83 -55 146 -55c67 0 120 42 120 105c0 53 -53 93 -120 122c-96 41 -222 95 -220 223c0 54 21 99 63 135c43 36 97 54 163 54c29 0 57 -4 86 -12c29 -7 55 -21 78 -42c24 -21 36 -46 36 -76v-58h-92v33c0 36 -50 64 -109 64
c-73 0 -124 -40 -124 -95c0 -72 86 -97 170 -138c30 -14 57 -29 82 -44c51 -29 89 -88 89 -161c0 -56 -20 -104 -61 -143s-95 -58 -163 -58c-56 0 -113 17 -148 37s-64 42 -77 57zM222 -59h79c4 -18 6 -34 6 -49c0 -27 -8 -58 -24 -92h-69c13 33 19 60 19 82
c0 19 -4 39 -11 59z" />
    <glyph glyph-name="scommaaccent" unicode="&#x219;" horiz-adv-x="449" 
d="M36 68l-8 9l49 65c3 -4 7 -9 27 -26c28 -23 70 -49 127 -49c49 0 87 24 87 65c0 33 -44 58 -97 78c-77 29 -179 72 -178 166c0 92 79 142 188 142c39 0 77 -8 112 -24c36 -15 54 -40 54 -74v-48h-87v25c0 27 -40 43 -76 43c-59 0 -95 -21 -95 -60c0 -35 43 -60 98 -80
c79 -27 179 -65 179 -164c0 -45 -18 -81 -53 -108s-79 -40 -133 -40c-108 0 -172 56 -194 80zM185 -59h79c4 -18 6 -34 6 -49c0 -27 -8 -58 -24 -92h-69c13 33 19 60 19 82c0 19 -4 39 -11 59z" />
    <glyph glyph-name="uni021A" unicode="&#x21a;" horiz-adv-x="632" 
d="M366 0h-100v620h-141c-15 0 -22 -7 -22 -22v-45h-90v93c0 45 15 60 60 60h486c45 0 60 -15 60 -60v-93h-89v45c0 15 -7 22 -22 22h-142v-620zM273 -59h79c4 -18 6 -34 6 -49c0 -27 -8 -58 -24 -92h-69c13 33 19 60 19 82c0 19 -4 39 -11 59z" />
    <glyph glyph-name="uni021B" unicode="&#x21b;" horiz-adv-x="328" 
d="M83 185v243h-66v78h68v139h95v-139h122v-78h-122v-232c0 -101 72 -114 108 -114l23 2v-86c-9 -1 -21 -2 -34 -2c-32 0 -59 2 -96 18c-51 22 -98 70 -98 171zM151 -59h79c4 -18 6 -34 6 -49c0 -27 -8 -58 -24 -92h-69c13 33 19 60 19 82c0 19 -4 39 -11 59z" />
    <glyph glyph-name="circumflex" unicode="&#x2c6;" horiz-adv-x="485" 
d="M189 755h-78l87 127h89l88 -127h-79l-52 80h-2z" />
    <glyph glyph-name="caron" unicode="&#x2c7;" horiz-adv-x="488" 
d="M287 755h-89l-88 127h79l52 -81h2l52 81h80z" />
    <glyph glyph-name="breve" unicode="&#x2d8;" horiz-adv-x="501" 
d="M243 751c-68 0 -128 44 -128 117v14h67v-13c0 -40 28 -60 61 -60c35 0 62 21 62 61v12h66v-14c0 -73 -59 -117 -128 -117z" />
    <glyph glyph-name="dotaccent" unicode="&#x2d9;" horiz-adv-x="256" 
d="M171 781h-87v101h87v-101z" />
    <glyph glyph-name="ring" unicode="&#x2da;" horiz-adv-x="380" 
d="M190 743c-45 0 -81 30 -81 74c0 45 36 75 81 75c44 0 81 -30 81 -75c0 -44 -37 -74 -81 -74zM224 817c0 46 -68 46 -68 0c-4 -43 72 -43 68 0z" />
    <glyph glyph-name="ogonek" unicode="&#x2db;" horiz-adv-x="361" 
d="M108 -112c0 59 58 109 82 123l9 6l69 -7l-22 -16c-8 -7 -19 -19 -34 -36c-14 -18 -21 -34 -21 -47c0 -23 23 -37 42 -41l14 -2l-23 -75c-7 0 -13 1 -40 9c-35 10 -76 35 -76 86z" />
    <glyph glyph-name="tilde" unicode="&#x2dc;" horiz-adv-x="519" 
d="M158 756h-66c0 85 34 127 103 127c60 0 93 -68 128 -68c28 0 41 32 41 65h65c0 -85 -34 -127 -103 -127c-59 0 -92 68 -128 68c-28 0 -40 -30 -40 -65z" />
    <glyph glyph-name="hungarumlaut" unicode="&#x2dd;" horiz-adv-x="535" 
d="M327 755h-75l72 127h99zM182 755h-83l69 127h84z" />
    <glyph glyph-name="uni0400" unicode="&#x400;" horiz-adv-x="571" 
d="M98 64v556h-65v86h416c45 0 64 -19 64 -64v-89h-92v45c0 15 -7 22 -22 22h-201v-221h248v-86h-248v-205c0 -15 7 -22 22 -22h207c15 0 22 7 22 22v45h91v-89c0 -45 -19 -64 -64 -64h-313c-45 0 -65 19 -65 64zM361 755h-76l-95 127h98z" />
    <glyph glyph-name="uni0401" unicode="&#x401;" horiz-adv-x="571" 
d="M98 64v556h-65v86h416c45 0 64 -19 64 -64v-89h-92v45c0 15 -7 22 -22 22h-201v-221h248v-86h-248v-205c0 -15 7 -22 22 -22h207c15 0 22 7 22 22v45h91v-89c0 -45 -19 -64 -64 -64h-313c-45 0 -65 19 -65 64zM422 781h-73v101h73v-101zM258 781h-74v101h74v-101z" />
    <glyph glyph-name="uni0402" unicode="&#x402;" horiz-adv-x="747" 
d="M331 0h-100v624h-112c-15 0 -22 -7 -22 -22v-49h-83v93c0 45 16 60 61 60h485v-82h-229v-201l-1 -31h2c56 27 114 41 175 41c141 0 221 -86 221 -214c0 -72 -21 -129 -62 -170s-95 -61 -160 -61c-12 0 -44 2 -47 2v84c4 -1 15 -2 34 -2c37 0 69 11 96 33s41 58 41 108
c0 81 -48 132 -143 132c-51 0 -109 -18 -136 -31l-20 -10v-304z" />
    <glyph glyph-name="uni0403" unicode="&#x403;" horiz-adv-x="514" 
d="M198 0h-100v620h-65v86h404c45 0 64 -19 64 -64v-89h-91v45c0 15 -7 22 -22 22h-190v-620zM310 755h-76l73 127h98z" />
    <glyph glyph-name="uni0404" unicode="&#x404;" horiz-adv-x="694" 
d="M510 309h-368c8 -67 35 -123 81 -166c47 -43 104 -65 171 -65c41 0 79 8 116 23s63 31 80 46l25 23l52 -68c-5 -7 -10 -13 -46 -40c-17 -13 -36 -24 -56 -34c-39 -20 -106 -40 -173 -40c-104 0 -190 36 -257 107s-101 159 -101 262s34 188 101 257s151 104 250 104
c101 0 269 -40 269 -153v-65h-92v40c0 27 -18 49 -55 64c-37 16 -76 24 -117 24c-68 0 -125 -22 -171 -66s-72 -101 -79 -171h370v-82z" />
    <glyph glyph-name="uni0405" unicode="&#x405;" horiz-adv-x="525" 
d="M38 82l-9 11l58 71c4 -4 8 -10 32 -30c33 -25 83 -55 146 -55c67 0 120 42 120 105c0 53 -53 93 -120 122c-96 41 -222 95 -220 223c0 54 21 99 63 135c43 36 97 54 163 54c29 0 57 -4 86 -12c29 -7 55 -21 78 -42c24 -21 36 -46 36 -76v-58h-92v33c0 36 -50 64 -109 64
c-73 0 -124 -40 -124 -95c0 -72 86 -97 170 -138c30 -14 57 -29 82 -44c51 -29 89 -88 89 -161c0 -56 -20 -104 -61 -143s-95 -58 -163 -58c-56 0 -113 17 -148 37s-64 42 -77 57z" />
    <glyph glyph-name="uni0406" unicode="&#x406;" horiz-adv-x="315" 
d="M274 0h-233v86h69v534h-69v86h233v-86h-68v-534h68v-86z" />
    <glyph glyph-name="uni0407" unicode="&#x407;" horiz-adv-x="315" 
d="M274 0h-233v86h69v534h-69v86h233v-86h-68v-534h68v-86zM277 781h-73v101h73v-101zM113 781h-74v101h74v-101z" />
    <glyph glyph-name="uni0408" unicode="&#x408;" horiz-adv-x="511" 
d="M16 203v35h100v-27c0 -91 49 -129 112 -129c61 0 110 40 110 125v391c0 15 -7 22 -22 22h-173v86h230c45 0 65 -19 65 -64v-439c0 -71 -21 -125 -62 -161s-91 -54 -149 -54s-108 18 -149 54c-41 37 -62 90 -62 161z" />
    <glyph glyph-name="uni0409" unicode="&#x409;" horiz-adv-x="933" 
d="M10 -7v91c39 4 71 24 94 59c47 72 63 189 63 380v97h-66v86h391c45 0 65 -19 65 -64v-227h124c113 0 232 -50 232 -202c0 -69 -22 -122 -66 -159c-44 -36 -101 -54 -170 -54h-156c-45 0 -64 19 -64 64v534c0 15 -7 22 -22 22h-169v-97c0 -55 -1 -103 -4 -146
c-5 -84 -18 -171 -43 -230c-39 -90 -99 -148 -209 -154zM557 331v-225c0 -15 7 -22 22 -22h103c81 0 128 49 128 126s-46 121 -127 121h-126z" />
    <glyph glyph-name="uni040A" unicode="&#x40a;" horiz-adv-x="1002" 
d="M199 0h-100v598c0 15 -7 22 -22 22h-43v86h101c45 0 64 -19 64 -64v-230h328v294h100v-294h127c64 0 118 -16 162 -48c45 -32 67 -82 67 -150c0 -69 -22 -122 -66 -159s-100 -55 -169 -55h-157c-45 0 -64 19 -64 64v264h-328v-328zM627 328v-222c0 -15 7 -22 22 -22h105
c79 0 126 51 126 128c0 72 -46 116 -125 116h-128z" />
    <glyph glyph-name="uni040B" unicode="&#x40b;" horiz-adv-x="783" 
d="M331 0h-100v624h-112c-15 0 -22 -7 -22 -22v-49h-83v93c0 45 16 60 61 60h485v-82h-229v-205l-2 -32h2c58 31 119 47 182 47c133 0 199 -74 199 -206v-124c0 -12 7 -18 22 -18h43v-86h-100c-45 0 -65 19 -65 64v143c0 92 -37 137 -121 137c-59 0 -113 -17 -160 -50v-294z
" />
    <glyph glyph-name="uni040C" unicode="&#x40c;" horiz-adv-x="612" 
d="M199 0h-100v598c0 15 -7 22 -22 22h-43v86h101c45 0 64 -19 64 -64v-233h67c29 0 49 8 58 24l157 273h112l-171 -293c-12 -21 -27 -38 -34 -43l-6 -3v-2c13 -3 27 -18 40 -44l106 -212c7 -15 24 -23 50 -23h19v-86h-55c-57 0 -77 9 -98 53l-122 245c-9 17 -30 26 -63 26
h-60v-324zM355 755h-76l73 127h98z" />
    <glyph glyph-name="uni040D" unicode="&#x40d;" horiz-adv-x="763" 
d="M198 0h-99v598c0 15 -7 22 -22 22h-43v86h101c45 0 64 -19 64 -64v-387l-6 -101h2c25 43 46 77 63 102l308 450h98v-598c0 -15 7 -22 22 -22h43v-86h-100c-45 0 -65 19 -65 64v388l6 103h-2c-23 -43 -43 -78 -60 -103zM429 755h-76l-95 127h98z" />
    <glyph glyph-name="uni040E" unicode="&#x40e;" horiz-adv-x="622" 
d="M82 36l46 74c24 -21 49 -31 74 -31c41 0 60 24 80 79l-219 440c-7 15 -18 22 -33 22h-20v86h61c45 0 60 -13 81 -58l143 -305l37 -87h2c8 25 18 54 30 87l111 305c17 47 32 58 83 58h54v-86h-16c-17 0 -28 -7 -34 -21l-192 -486c-33 -83 -85 -125 -156 -125
c-56 0 -112 28 -132 48zM312 739c-41 0 -76 11 -105 34s-43 55 -43 94v15h78v-14c0 -41 33 -66 70 -66c39 0 71 24 71 67v13h77v-15c0 -39 -14 -71 -43 -94s-64 -34 -105 -34z" />
    <glyph glyph-name="uni040F" unicode="&#x40f;" horiz-adv-x="740" 
d="M98 64v534c0 15 -7 22 -22 22h-43v86h101c45 0 64 -19 64 -64v-534c0 -15 7 -22 22 -22h300c15 0 22 7 22 22v534c0 45 19 64 64 64h101v-86h-43c-15 0 -22 -7 -22 -22v-534c0 -45 -20 -64 -65 -64h-162v-140h-90v140h-162c-45 0 -65 19 -65 64z" />
    <glyph glyph-name="uni0410" unicode="&#x410;" horiz-adv-x="665" 
d="M67 0h-55v86h14c17 0 28 7 33 22l221 598h105l221 -598c5 -15 16 -22 33 -22h14v-86h-55c-49 0 -66 11 -83 58l-53 145h-259l-53 -145c-17 -47 -34 -58 -83 -58zM304 502l-77 -215h211l-77 215l-28 99h-2c-10 -41 -19 -74 -27 -99z" />
    <glyph glyph-name="uni0411" unicode="&#x411;" horiz-adv-x="594" 
d="M98 64v556h-65v86h413c45 0 64 -19 64 -64v-89h-91v45c0 15 -7 22 -22 22h-199v-204h131c66 0 122 -17 168 -51s69 -85 69 -154c0 -68 -22 -120 -67 -157c-45 -36 -101 -54 -170 -54h-166c-45 0 -65 19 -65 64zM198 332v-226c0 -15 7 -22 22 -22h115c79 0 128 49 128 125
s-49 123 -128 123h-137z" />
    <glyph glyph-name="uni0412" unicode="&#x412;" horiz-adv-x="615" 
d="M98 64v556h-65v86h309c121 0 205 -68 205 -180c0 -73 -37 -127 -88 -152v-2c72 -21 116 -90 116 -171c0 -64 -22 -114 -65 -149s-97 -52 -162 -52h-185c-45 0 -65 19 -65 64zM197 620v-211h146c63 0 103 44 103 107s-39 104 -104 104h-145zM197 327v-219
c0 -15 7 -22 22 -22h135c73 0 119 48 119 120s-47 121 -119 121h-157z" />
    <glyph glyph-name="uni0413" unicode="&#x413;" horiz-adv-x="514" 
d="M198 0h-100v620h-65v86h404c45 0 64 -19 64 -64v-89h-91v45c0 15 -7 22 -22 22h-190v-620z" />
    <glyph glyph-name="uni0414" unicode="&#x414;" horiz-adv-x="722" 
d="M10 -140v163c0 45 18 63 63 63h16c88 124 109 280 109 475v59h-64v86h415c45 0 64 -19 64 -64v-556h22c45 0 63 -18 63 -63v-163h-92v118c0 15 -7 22 -21 22h-462c-14 0 -21 -7 -21 -22v-118h-92zM193 86h321v512c0 15 -7 22 -22 22h-198v-65c0 -211 -34 -367 -101 -469z
" />
    <glyph glyph-name="uni0415" unicode="&#x415;" horiz-adv-x="571" 
d="M98 64v556h-65v86h416c45 0 64 -19 64 -64v-89h-92v45c0 15 -7 22 -22 22h-201v-221h248v-86h-248v-205c0 -15 7 -22 22 -22h207c15 0 22 7 22 22v45h91v-89c0 -45 -19 -64 -64 -64h-313c-45 0 -65 19 -65 64z" />
    <glyph glyph-name="uni0416" unicode="&#x416;" horiz-adv-x="884" 
d="M117 0h-110l188 320c12 21 30 38 39 42l6 4v2c-13 5 -26 19 -39 44l-102 185c-8 15 -25 23 -50 23h-20v86h50c56 0 72 -9 96 -53l119 -218c13 -23 29 -28 61 -28h39v299h96v-299h37c31 0 52 9 63 28l119 218c24 44 40 53 96 53h50v-86h-20c-25 0 -42 -8 -51 -23
l-101 -185c-12 -21 -26 -37 -33 -41l-6 -3v-2c16 -7 31 -23 44 -46l189 -320h-110l-172 297c-11 19 -30 29 -57 29h-48v-326h-96v326h-48c-27 0 -46 -10 -57 -29z" />
    <glyph glyph-name="uni0417" unicode="&#x417;" horiz-adv-x="529" 
d="M20 82l59 70c36 -39 99 -75 163 -75c83 0 146 49 146 126c0 73 -56 118 -131 118h-84v82h72c68 0 122 48 122 116c0 65 -42 110 -121 110c-61 0 -111 -30 -111 -67v-29h-92v55c0 29 12 54 35 75c48 41 111 55 176 55c136 0 214 -73 214 -184c0 -72 -34 -125 -102 -160v-2
c77 -21 125 -88 125 -173c0 -62 -23 -113 -69 -152c-45 -39 -105 -59 -178 -59c-96 0 -175 41 -224 94z" />
    <glyph glyph-name="uni0418" unicode="&#x418;" horiz-adv-x="763" 
d="M198 0h-99v598c0 15 -7 22 -22 22h-43v86h101c45 0 64 -19 64 -64v-387l-6 -101h2c25 43 46 77 63 102l308 450h98v-598c0 -15 7 -22 22 -22h43v-86h-100c-45 0 -65 19 -65 64v388l6 103h-2c-23 -43 -43 -78 -60 -103z" />
    <glyph glyph-name="uni0419" unicode="&#x419;" horiz-adv-x="763" 
d="M198 0h-99v598c0 15 -7 22 -22 22h-43v86h101c45 0 64 -19 64 -64v-387l-6 -101h2c25 43 46 77 63 102l308 450h98v-598c0 -15 7 -22 22 -22h43v-86h-100c-45 0 -65 19 -65 64v388l6 103h-2c-23 -43 -43 -78 -60 -103zM378 739c-41 0 -76 11 -105 34s-43 55 -43 94v15h78
v-14c0 -41 33 -66 70 -66c39 0 71 24 71 67v13h77v-15c0 -39 -14 -71 -43 -94s-64 -34 -105 -34z" />
    <glyph glyph-name="uni041A" unicode="&#x41a;" horiz-adv-x="612" 
d="M199 0h-100v598c0 15 -7 22 -22 22h-43v86h101c45 0 64 -19 64 -64v-233h67c29 0 49 8 58 24l157 273h112l-171 -293c-12 -21 -27 -38 -34 -43l-6 -3v-2c13 -3 27 -18 40 -44l106 -212c7 -15 24 -23 50 -23h19v-86h-55c-57 0 -77 9 -98 53l-122 245c-9 17 -30 26 -63 26
h-60v-324z" />
    <glyph glyph-name="uni041B" unicode="&#x41b;" horiz-adv-x="683" 
d="M10 -5v91c116 16 161 160 161 456v78h-66v86h415c45 0 64 -19 64 -64v-534c0 -15 7 -22 22 -22h43v-86h-101c-45 0 -64 19 -64 64v534c0 15 -7 22 -22 22h-196v-79c0 -356 -69 -535 -256 -546z" />
    <glyph glyph-name="uni041C" unicode="&#x41c;" horiz-adv-x="862" 
d="M112 0h-89v86h33c13 0 21 7 22 22l48 598h103l166 -373l35 -90h2c12 34 24 64 35 90l166 373h103l48 -598c1 -15 9 -22 22 -22h34v-86h-89c-45 0 -61 17 -65 64l-28 373l-2 104h-2c-14 -44 -27 -79 -38 -104l-143 -310h-84l-142 310c-11 21 -25 63 -33 87l-5 18h-2
c1 -42 0 -77 -2 -105l-29 -373c-3 -45 -20 -64 -64 -64z" />
    <glyph glyph-name="uni041D" unicode="&#x41d;" horiz-adv-x="757" 
d="M199 0h-100v598c0 15 -7 22 -22 22h-43v86h101c45 0 64 -19 64 -64v-247h359v247c0 45 20 64 65 64h100v-86h-43c-15 0 -22 -7 -22 -22v-598h-100v310h-359v-310z" />
    <glyph glyph-name="uni041E" unicode="&#x41e;" horiz-adv-x="793" 
d="M34 358c0 101 35 187 104 256c70 69 156 104 258 104s188 -35 258 -104s105 -155 105 -256c0 -104 -35 -192 -105 -263s-156 -107 -258 -107s-188 36 -258 107c-69 71 -104 159 -104 263zM138 358c0 -77 25 -143 75 -196s111 -80 183 -80s133 27 183 80
c51 53 76 119 76 196c0 75 -25 139 -76 190c-50 51 -111 77 -183 77s-133 -26 -183 -77s-75 -115 -75 -190z" />
    <glyph glyph-name="uni041F" unicode="&#x41f;" horiz-adv-x="745" 
d="M198 0h-100v620h-65v86h549c45 0 64 -19 64 -64v-534c0 -15 7 -22 22 -22h43v-86h-100c-45 0 -65 19 -65 64v534c0 15 -7 22 -22 22h-326v-620z" />
    <glyph glyph-name="uni0420" unicode="&#x420;" horiz-adv-x="585" 
d="M198 0h-100v620h-65v86h311c65 0 119 -20 160 -61c41 -40 62 -93 62 -160s-21 -121 -62 -162s-95 -62 -160 -62h-146v-261zM198 620v-273h130c84 0 135 53 135 138c0 84 -50 135 -134 135h-131z" />
    <glyph glyph-name="uni0421" unicode="&#x421;" horiz-adv-x="698" 
d="M35 359c0 102 34 187 101 256c68 69 152 103 253 103c95 0 265 -40 265 -153v-69h-92v40c0 27 -18 49 -55 65s-75 24 -116 24c-72 0 -132 -25 -180 -74s-72 -113 -72 -192c0 -77 24 -143 73 -197c49 -53 110 -80 182 -80c111 0 189 61 214 86l9 10l54 -72
c-5 -7 -11 -14 -47 -41c-17 -13 -36 -25 -56 -36c-40 -20 -108 -41 -175 -41c-104 0 -190 35 -257 106s-101 160 -101 265z" />
    <glyph glyph-name="uni0422" unicode="&#x422;" horiz-adv-x="632" 
d="M366 0h-100v620h-141c-15 0 -22 -7 -22 -22v-45h-90v93c0 45 15 60 60 60h486c45 0 60 -15 60 -60v-93h-89v45c0 15 -7 22 -22 22h-142v-620z" />
    <glyph glyph-name="uni0423" unicode="&#x423;" horiz-adv-x="622" 
d="M82 36l46 74c24 -21 49 -31 74 -31c41 0 60 24 80 79l-219 440c-7 15 -18 22 -33 22h-20v86h61c45 0 60 -13 81 -58l143 -305l37 -87h2c8 25 18 54 30 87l111 305c17 47 32 58 83 58h54v-86h-16c-17 0 -28 -7 -34 -21l-192 -486c-33 -83 -85 -125 -156 -125
c-56 0 -112 28 -132 48z" />
    <glyph glyph-name="uni0424" unicode="&#x424;" horiz-adv-x="820" 
d="M31 376c0 89 30 160 89 213c60 53 140 80 240 80v81h100v-81c99 0 179 -27 238 -81c60 -53 90 -124 90 -212c0 -90 -30 -162 -89 -216s-139 -81 -239 -81v-91h-100v91c-100 0 -180 27 -240 81c-59 54 -89 126 -89 216zM460 584v-420c140 0 225 80 225 212
c0 129 -85 208 -225 208zM134 376c0 -132 85 -212 226 -212v420c-141 0 -226 -79 -226 -208z" />
    <glyph glyph-name="uni0425" unicode="&#x425;" horiz-adv-x="595" 
d="M124 0h-112l222 364l-142 231c-13 21 -23 25 -47 25h-25v86h58c51 0 70 -10 95 -54l79 -134l45 -83h2c13 29 28 57 43 83l80 134c25 44 45 54 94 54h59v-86h-26c-21 0 -36 -8 -46 -25l-143 -231l223 -364h-113l-129 215l-44 80h-2c-14 -28 -28 -55 -43 -81z" />
    <glyph glyph-name="uni0426" unicode="&#x426;" horiz-adv-x="751" 
d="M98 64v534c0 15 -7 22 -22 22h-43v86h101c45 0 64 -19 64 -64v-534c0 -15 7 -22 22 -22h323v620h100v-620h19c45 0 63 -18 63 -63v-163h-90v118c0 15 -7 22 -20 22h-452c-45 0 -65 19 -65 64z" />
    <glyph glyph-name="uni0427" unicode="&#x427;" horiz-adv-x="651" 
d="M296 270c-145 0 -217 74 -217 206v122c0 15 -7 22 -22 22h-43v86h101c45 0 64 -19 64 -64v-144c0 -92 41 -137 140 -137c57 0 107 16 150 48v297h100v-706h-100v286l2 33h-2c-59 -33 -116 -49 -173 -49z" />
    <glyph glyph-name="uni0428" unicode="&#x428;" horiz-adv-x="1015" 
d="M98 64v534c0 15 -7 22 -22 22h-43v86h101c45 0 64 -19 64 -64v-534c0 -15 7 -22 22 -22h237v620h100v-620h238c15 0 22 7 22 22v534c0 45 19 64 64 64h101v-86h-43c-15 0 -22 -7 -22 -22v-534c0 -45 -20 -64 -65 -64h-689c-45 0 -65 19 -65 64z" />
    <glyph glyph-name="uni0429" unicode="&#x429;" horiz-adv-x="1029" 
d="M98 64v534c0 15 -7 22 -22 22h-43v86h101c45 0 64 -19 64 -64v-534c0 -15 7 -22 22 -22h237v620h100v-620h259v620h100v-620h28c45 0 63 -18 63 -63v-163h-90v118c0 15 -7 22 -20 22h-734c-45 0 -65 19 -65 64z" />
    <glyph glyph-name="uni042A" unicode="&#x42a;" horiz-adv-x="734" 
d="M245 64v556h-120c-15 0 -22 -7 -22 -22v-45h-89v93c0 45 15 60 60 60h336v-86h-65v-184h143c66 0 120 -18 162 -55c43 -36 64 -90 64 -161s-23 -126 -68 -164c-45 -37 -103 -56 -174 -56h-163c-45 0 -64 19 -64 64zM345 350v-242c0 -15 7 -22 22 -22h111
c81 0 133 49 133 133s-50 131 -133 131h-133z" />
    <glyph glyph-name="uni042B" unicode="&#x42b;" horiz-adv-x="855" 
d="M656 64v642h100v-598c0 -15 7 -22 22 -22h43v-86h-101c-45 0 -64 19 -64 64zM98 64v534c0 15 -7 22 -22 22h-43v86h101c45 0 64 -19 64 -64v-202h135c65 0 119 -18 161 -55c43 -37 64 -90 64 -160c0 -73 -22 -129 -67 -168c-45 -38 -103 -57 -174 -57h-154
c-45 0 -65 19 -65 64zM198 354v-246c0 -15 7 -22 22 -22h103c81 0 132 51 132 136c0 84 -51 132 -132 132h-125z" />
    <glyph glyph-name="uni042C" unicode="&#x42c;" horiz-adv-x="583" 
d="M98 64v534c0 15 -7 22 -22 22h-43v86h101c45 0 64 -19 64 -64v-202h139c132 0 225 -74 225 -215c0 -73 -22 -129 -67 -168c-45 -38 -103 -57 -174 -57h-158c-45 0 -65 19 -65 64zM198 354v-246c0 -15 7 -22 22 -22h107c81 0 132 51 132 138c0 83 -49 130 -132 130h-129z
" />
    <glyph glyph-name="uni042D" unicode="&#x42d;" horiz-adv-x="695" 
d="M28 97l52 70c18 -20 48 -40 89 -60c41 -19 86 -29 133 -29c68 0 125 22 172 66s73 100 80 167h-364v82h364c-5 69 -30 125 -76 169c-45 44 -102 66 -171 66c-42 0 -82 -8 -120 -24c-37 -15 -56 -37 -56 -64v-40h-92v65c0 45 27 82 81 110c55 29 116 43 185 43
c105 0 191 -34 256 -102c66 -67 99 -152 99 -254c0 -105 -34 -193 -101 -266c-67 -72 -153 -108 -257 -108c-59 0 -113 11 -163 34c-49 23 -86 48 -111 75z" />
    <glyph glyph-name="uni042E" unicode="&#x42e;" horiz-adv-x="1057" 
d="M199 0h-100v598c0 15 -7 22 -22 22h-43v86h101c45 0 64 -19 64 -64v-247h120c7 93 44 170 110 231c67 61 146 92 239 92c100 0 184 -35 252 -104c69 -69 103 -155 103 -256c0 -104 -34 -192 -103 -263c-68 -71 -152 -107 -252 -107c-91 0 -170 30 -235 91
s-103 138 -112 231h-122v-310zM418 358c0 -77 24 -143 73 -196s108 -80 177 -80c70 0 129 27 178 80s73 119 73 196c0 75 -24 139 -73 190s-108 77 -178 77c-69 0 -128 -26 -177 -77s-73 -115 -73 -190z" />
    <glyph glyph-name="uni042F" unicode="&#x42f;" horiz-adv-x="623" 
d="M68 0h-49v86h13c25 0 42 8 51 23l93 157c9 15 23 27 30 31l6 3v2c-18 0 -149 45 -149 192c0 65 21 116 64 154c43 39 98 58 165 58h298v-86h-65v-620h-100v271h-84c-39 0 -52 -6 -72 -42l-103 -175c-13 -22 -25 -37 -38 -44c-12 -7 -32 -10 -60 -10zM303 357h122v263
h-122c-84 0 -137 -49 -137 -130s57 -133 137 -133z" />
    <glyph glyph-name="uni0430" unicode="&#x430;" horiz-adv-x="529" 
d="M28 138c0 118 102 177 306 177h22v7c0 85 -33 119 -112 119c-19 0 -37 -3 -56 -9c-18 -5 -27 -15 -27 -30v-29h-92v51c0 37 30 66 70 78c41 12 74 16 103 16c156 0 211 -73 211 -198v-215c0 -15 7 -22 22 -22h41v-83h-92c-41 0 -62 19 -62 58l1 30h-2
c2 0 -43 -100 -163 -100c-47 0 -87 13 -120 40s-50 64 -50 110zM125 147c0 -44 35 -82 95 -82c40 0 73 17 98 50s38 70 38 111v19h-26c-137 0 -205 -33 -205 -98z" />
    <glyph glyph-name="uni0431" unicode="&#x431;" horiz-adv-x="569" 
d="M288 -12c-181 0 -243 142 -243 310c0 87 12 156 37 207s70 90 135 119l111 49c47 20 58 30 58 53v24h94v-44c0 -31 -8 -53 -23 -67c-15 -13 -42 -28 -81 -43l-119 -51c-77 -33 -117 -93 -119 -179h1c41 63 99 94 176 94c64 0 116 -21 156 -64c41 -42 61 -98 61 -169
c0 -72 -23 -130 -69 -174c-45 -43 -104 -65 -175 -65zM147 227c0 -96 62 -156 143 -156s142 59 142 154c0 96 -60 154 -140 154c-85 0 -145 -64 -145 -152z" />
    <glyph glyph-name="uni0432" unicode="&#x432;" horiz-adv-x="519" 
d="M83 55v368h-63v83h272c104 0 168 -46 168 -130c0 -54 -24 -91 -71 -110v-2c61 -13 96 -63 96 -120c0 -92 -73 -144 -186 -144h-160c-40 0 -56 16 -56 55zM180 438v-145h95c56 0 87 29 87 74c0 47 -30 71 -90 71h-92zM180 228v-139c0 -13 6 -20 19 -20h84
c69 0 103 27 103 80c0 51 -38 79 -103 79h-103z" />
    <glyph glyph-name="uni0433" unicode="&#x433;" horiz-adv-x="439" 
d="M182 0h-97v423h-63v83h335c47 0 65 -17 65 -62v-77h-81v34c0 15 -7 22 -22 22h-137v-423z" />
    <glyph glyph-name="uni0434" unicode="&#x434;" horiz-adv-x="590" 
d="M10 -120v138c0 44 17 63 61 63h8c56 65 84 171 84 319v23h-62v83h335c45 0 64 -19 64 -64v-361h16c44 0 61 -19 61 -63v-138h-89v98c0 15 -7 22 -21 22h-347c-14 0 -21 -7 -21 -22v-98h-89zM177 81h226v320c0 15 -7 22 -22 22h-126v-22c0 -147 -26 -254 -78 -320z" />
    <glyph glyph-name="uni0435" unicode="&#x435;" horiz-adv-x="539" 
d="M33 253c0 79 24 143 72 192s109 73 182 73c69 0 122 -22 160 -67c39 -45 58 -101 58 -170c0 -13 -1 -25 -3 -38h-369c3 -53 21 -95 54 -126c33 -30 74 -45 121 -45c55 0 104 20 149 59l41 -71c-48 -44 -125 -72 -196 -72c-79 0 -143 25 -194 75c-50 51 -75 114 -75 190z
M137 307h271c-3 85 -54 135 -123 135c-76 0 -135 -51 -148 -135z" />
    <glyph glyph-name="uni0436" unicode="&#x436;" horiz-adv-x="753" 
d="M129 0h-113l121 208c15 25 37 42 49 46l9 3v2c-16 5 -29 18 -40 40l-52 104c-6 13 -21 20 -45 20h-26v83h60c49 0 66 -7 85 -47l65 -131c11 -20 30 -30 58 -30h30v208h94v-208h29c28 0 47 10 58 30l65 131c19 40 36 47 85 47h60v-83h-26c-27 0 -37 -4 -45 -20l-52 -104
c-9 -20 -25 -34 -34 -37l-6 -3v-2c22 -5 41 -21 58 -49l122 -208h-113l-100 176c-16 27 -40 40 -71 40h-30v-216h-94v216h-30c-31 0 -55 -13 -72 -40z" />
    <glyph glyph-name="uni0437" unicode="&#x437;" horiz-adv-x="441" 
d="M23 62l46 64c39 -39 84 -59 134 -59c60 0 105 29 105 84c0 51 -34 76 -103 76h-64v67h51c66 0 99 26 99 77c0 49 -35 74 -88 74c-41 0 -82 -17 -82 -49v-23h-81v47c0 32 17 56 50 73s74 25 121 25c109 0 178 -49 178 -137c0 -59 -32 -98 -75 -114v-2
c53 -13 91 -56 91 -120c0 -49 -19 -88 -57 -116c-37 -27 -84 -41 -139 -41c-71 0 -133 25 -186 74z" />
    <glyph glyph-name="uni0438" unicode="&#x438;" horiz-adv-x="619" 
d="M180 0h-96v401c0 15 -7 22 -21 22h-40v83h89c45 0 64 -18 64 -63v-241c0 -33 -1 -57 -4 -70h2c7 13 22 37 47 70l218 304h96v-401c0 -15 7 -22 21 -22h40v-83h-89c-45 0 -64 19 -64 64v240c0 26 1 50 4 71h-2c-5 -13 -21 -36 -47 -71z" />
    <glyph glyph-name="uni0439" unicode="&#x439;" horiz-adv-x="619" 
d="M180 0h-96v401c0 15 -7 22 -21 22h-40v83h89c45 0 64 -18 64 -63v-241c0 -33 -1 -57 -4 -70h2c7 13 22 37 47 70l218 304h96v-401c0 -15 7 -22 21 -22h40v-83h-89c-45 0 -64 19 -64 64v240c0 26 1 50 4 71h-2c-5 -13 -21 -36 -47 -71zM308 564c-41 0 -76 11 -105 34
s-43 55 -43 94v15h78v-14c0 -41 33 -66 70 -66c39 0 71 24 71 67v13h77v-15c0 -39 -14 -71 -43 -94s-64 -34 -105 -34z" />
    <glyph glyph-name="uni043A" unicode="&#x43a;" horiz-adv-x="533" 
d="M182 0h-97v401c0 15 -7 22 -22 22h-41v83h96c45 0 64 -19 64 -64v-135h42c25 0 43 8 53 23l121 176h109l-139 -201c-13 -19 -27 -32 -34 -35l-4 -3v-2c13 -5 25 -17 38 -38l74 -124c8 -13 23 -20 44 -20h30v-83h-70c-48 0 -63 8 -84 47l-90 157c-8 13 -24 20 -49 20h-41
v-224z" />
    <glyph glyph-name="uni043B" unicode="&#x43b;" horiz-adv-x="545" 
d="M13 -3v86c43 1 77 43 94 106s25 128 25 195v39h-63v83h327c45 0 64 -19 64 -64v-337c0 -15 7 -22 22 -22h41v-83h-95c-45 0 -65 19 -65 64v337c0 15 -7 22 -22 22h-116v-40c0 -25 -1 -49 -3 -74c-4 -48 -13 -116 -34 -168c-28 -78 -82 -146 -175 -144z" />
    <glyph glyph-name="uni043C" unicode="&#x43c;" horiz-adv-x="727" 
d="M93 0h-74v83h26c12 0 18 6 19 19l35 404h106l132 -290l26 -63h1l27 63l131 290h106l35 -404c1 -13 7 -19 19 -19h26v-83h-74c-40 0 -52 16 -55 55l-19 239l-2 90h-2c-8 -25 -18 -50 -30 -76l-118 -247h-92l-116 247l-29 77h-2c0 -40 -1 -70 -2 -91l-19 -239
c-3 -39 -15 -55 -55 -55z" />
    <glyph glyph-name="uni043D" unicode="&#x43d;" horiz-adv-x="620" 
d="M182 0h-97v401c0 15 -7 22 -22 22h-41v83h96c45 0 64 -19 64 -64v-143h256v207h97v-401c0 -15 7 -22 22 -22h40v-83h-95c-45 0 -64 19 -64 64v154h-256v-218z" />
    <glyph glyph-name="uni043E" unicode="&#x43e;" horiz-adv-x="611" 
d="M305 518c77 0 141 -25 194 -75s79 -113 79 -189s-27 -139 -80 -190s-117 -76 -193 -76s-140 25 -193 76s-79 114 -79 190s26 139 79 189s117 75 193 75zM305 72c49 0 90 17 123 51c34 35 51 78 51 131c0 52 -17 95 -51 129c-33 34 -74 51 -123 51c-48 0 -89 -17 -123 -51
s-51 -77 -51 -129s17 -95 51 -130s75 -52 123 -52z" />
    <glyph glyph-name="uni043F" unicode="&#x43f;" horiz-adv-x="607" 
d="M182 0h-97v423h-63v83h437c45 0 64 -19 64 -64v-337c0 -15 7 -22 22 -22h41v-83h-96c-45 0 -64 19 -64 64v337c0 15 -7 22 -22 22h-222v-423z" />
    <glyph glyph-name="uni0440" unicode="&#x440;" horiz-adv-x="601" 
d="M182 -200h-97v601c0 15 -7 22 -22 22h-41v83h91c41 0 62 -17 62 -51l-1 -27h2c3 5 4 11 23 31c24 28 70 59 145 59c68 0 122 -24 162 -73c41 -49 61 -113 61 -192s-22 -143 -65 -192s-98 -73 -165 -73c-87 0 -137 51 -150 72l-5 9h-2c1 -12 2 -27 2 -44v-225zM179 251
c0 -49 13 -91 38 -127c26 -35 61 -53 106 -53c83 0 145 70 145 181c0 109 -58 181 -143 181c-83 0 -146 -61 -146 -182z" />
    <glyph glyph-name="uni0441" unicode="&#x441;" horiz-adv-x="530" 
d="M33 253c0 75 25 138 75 189c51 51 116 76 197 76c62 0 182 -26 182 -111v-52h-88v28c0 17 -10 29 -31 38c-20 9 -41 14 -63 14c-50 0 -92 -17 -125 -51c-33 -33 -49 -77 -49 -130c0 -55 17 -99 52 -132c35 -32 77 -48 127 -48c28 0 55 6 81 17c27 12 46 24 58 35l18 18
l41 -69c-4 -5 -7 -10 -34 -30c-33 -26 -90 -57 -171 -57c-79 0 -144 25 -195 75c-50 50 -75 113 -75 190z" />
    <glyph glyph-name="uni0442" unicode="&#x442;" horiz-adv-x="532" 
d="M314 0h-96v423h-98c-15 0 -22 -7 -22 -22v-34h-80v77c0 44 19 62 64 62h368c45 0 64 -18 64 -62v-77h-80v34c0 15 -7 22 -22 22h-98v-423z" />
    <glyph glyph-name="uni0443" unicode="&#x443;" horiz-adv-x="543" 
d="M122 -210c-44 0 -89 21 -106 38l-13 12l40 70c1 -4 33 -36 74 -36c39 0 68 24 89 73l23 55l-173 401c-6 13 -16 20 -31 20h-13v83h57c41 0 57 -11 73 -51l114 -285l18 -61h2c5 23 11 44 17 61l106 285c13 40 32 51 73 51h58v-83h-13c-15 0 -26 -7 -32 -20l-199 -494
c-32 -77 -92 -119 -164 -119z" />
    <glyph glyph-name="uni0444" unicode="&#x444;" horiz-adv-x="733" 
d="M318 506v95c0 15 -7 22 -22 22h-41v83h96c45 0 64 -19 64 -64v-136c85 -1 154 -24 206 -70s78 -107 78 -182s-26 -136 -79 -183c-52 -47 -120 -70 -205 -71v-200h-97v200c-85 1 -153 24 -206 71c-52 47 -78 108 -78 183s26 136 78 182s121 69 206 70zM415 426v-347
c113 0 185 71 185 175c0 103 -72 172 -185 172zM132 254c0 -104 73 -175 186 -175v347c-113 0 -186 -69 -186 -172z" />
    <glyph glyph-name="uni0445" unicode="&#x445;" horiz-adv-x="506" 
d="M130 0h-110l171 260l-97 144c-9 13 -23 19 -42 19h-29v83h62c47 0 62 -8 89 -51l61 -98l16 -32h2c6 13 12 23 17 32l61 98c27 43 42 51 89 51h62v-83h-29c-19 0 -33 -6 -42 -18l-97 -145l171 -260h-110l-106 165l-16 27h-2l-15 -27z" />
    <glyph glyph-name="uni0446" unicode="&#x446;" horiz-adv-x="606" 
d="M84 63v338c0 15 -7 22 -22 22h-41v83h96c45 0 64 -19 64 -64v-339c0 -15 7 -22 21 -22h216v425h97v-425h16c44 0 62 -19 62 -63v-138h-90v98c0 15 -7 22 -20 22h-335c-45 0 -64 18 -64 63z" />
    <glyph glyph-name="uni0447" unicode="&#x447;" horiz-adv-x="541" 
d="M238 176c-105 0 -162 53 -162 152v73c0 15 -8 22 -23 22h-36v83h91c47 0 63 -23 63 -64v-87c0 -59 23 -95 96 -95c40 0 78 12 113 36v210h97v-506h-97v183l1 32h-1c-39 -26 -87 -39 -142 -39z" />
    <glyph glyph-name="uni0448" unicode="&#x448;" horiz-adv-x="829" 
d="M84 64v337c0 15 -7 22 -22 22h-41v83h96c45 0 64 -19 64 -64v-339c0 -15 7 -22 21 -22h163v425h97v-425h165c14 0 21 7 21 22v339c0 45 19 64 64 64h96v-83h-41c-15 0 -22 -7 -22 -22v-337c0 -45 -19 -64 -64 -64h-533c-45 0 -64 19 -64 64z" />
    <glyph glyph-name="uni0449" unicode="&#x449;" horiz-adv-x="836" 
d="M84 64v337c0 15 -7 22 -22 22h-41v83h96c45 0 64 -19 64 -64v-341c0 -15 7 -22 21 -22h163v427h97v-427h186v427h97v-427h21c44 0 61 -19 61 -63v-136h-89v98c0 15 -7 22 -22 22h-568c-45 0 -64 19 -64 64z" />
    <glyph glyph-name="uni044A" unicode="&#x44a;" horiz-adv-x="597" 
d="M193 55v351c0 15 -7 22 -20 22h-56c-14 0 -21 -7 -21 -22v-38h-78v76c0 45 19 62 64 62h144c45 0 64 -19 64 -64v-120h102c116 0 185 -63 185 -162c0 -97 -74 -160 -185 -160h-143c-40 0 -56 16 -56 55zM290 252v-162c0 -13 6 -20 19 -20h71c61 0 99 36 99 91
c0 56 -36 91 -99 91h-90z" />
    <glyph glyph-name="uni044B" unicode="&#x44b;" horiz-adv-x="724" 
d="M542 64v442h97v-401c0 -15 7 -22 22 -22h40v-83h-95c-45 0 -64 19 -64 64zM84 55v346c0 15 -7 22 -22 22h-41v83h96c43 0 64 -19 64 -58v-127h100c115 0 182 -62 182 -161c0 -97 -74 -160 -182 -160h-142c-39 0 -55 16 -55 55zM181 251v-161c0 -13 6 -20 19 -20h69
c60 0 96 36 96 91c0 56 -35 90 -96 90h-88z" />
    <glyph glyph-name="uni044C" unicode="&#x44c;" horiz-adv-x="485" 
d="M84 55v346c0 15 -7 22 -22 22h-41v83h96c42 0 63 -19 64 -58v-127h102c113 0 180 -62 180 -161c0 -97 -73 -160 -180 -160h-144c-39 0 -55 16 -55 55zM181 251v-161c0 -13 6 -20 19 -20h71c59 0 95 36 95 91c0 56 -34 90 -95 90h-90z" />
    <glyph glyph-name="uni044D" unicode="&#x44d;" horiz-adv-x="530" 
d="M26 64l38 69c43 -44 97 -66 160 -66c46 0 85 14 118 42s53 64 59 109h-238v68h239c-12 93 -85 153 -170 153c-28 0 -54 -5 -78 -15c-23 -9 -35 -22 -35 -38v-25h-83v42c0 32 18 59 55 81c37 23 85 34 143 34c77 0 140 -25 189 -76c49 -50 74 -113 74 -188
c0 -77 -25 -141 -76 -191c-50 -50 -114 -75 -193 -75c-82 0 -149 25 -202 76z" />
    <glyph glyph-name="uni044E" unicode="&#x44e;" horiz-adv-x="829" 
d="M182 0h-97v401c0 15 -7 22 -22 22h-41v83h96c45 0 64 -19 64 -64v-149h94c7 66 35 120 82 162c48 42 106 63 173 63c75 0 137 -25 188 -75s77 -113 77 -189s-26 -139 -77 -190s-113 -76 -187 -76c-67 0 -125 21 -174 64c-48 43 -76 98 -83 165h-93v-217zM366 254
c0 -53 16 -96 48 -131c32 -34 71 -51 118 -51s86 17 117 51c32 35 48 78 48 131c0 52 -16 95 -48 129c-31 34 -70 51 -117 51s-86 -17 -118 -51s-48 -77 -48 -129z" />
    <glyph glyph-name="uni044F" unicode="&#x44f;" horiz-adv-x="524" 
d="M68 0h-46v83h16c22 0 38 7 47 20l57 79c8 11 17 20 26 26v2c-67 16 -112 66 -112 142c0 92 70 154 170 154h276v-83h-63v-423h-97v184h-56c-27 0 -34 -5 -54 -34l-74 -103c-15 -21 -28 -34 -38 -39s-27 -8 -52 -8zM257 254h85v185h-88c-64 0 -101 -36 -101 -92
s41 -93 104 -93z" />
    <glyph glyph-name="uni0450" unicode="&#x450;" horiz-adv-x="539" 
d="M33 253c0 79 24 143 72 192s109 73 182 73c69 0 122 -23 160 -68c39 -45 58 -101 58 -169c0 -11 -1 -25 -3 -41h-369c3 -53 21 -94 54 -124c33 -29 74 -44 121 -44c67 0 114 35 140 52l9 7l41 -71c-11 -9 -25 -19 -40 -28s-38 -19 -68 -29c-29 -10 -59 -15 -88 -15
c-79 0 -143 25 -194 75c-50 51 -75 114 -75 190zM137 310h271c-3 84 -54 133 -123 133c-76 0 -135 -50 -148 -133zM337 580h-76l-95 127h98z" />
    <glyph glyph-name="uni0451" unicode="&#x451;" horiz-adv-x="539" 
d="M33 253c0 79 24 143 72 192s109 73 182 73c69 0 122 -23 160 -68c39 -45 58 -101 58 -169c0 -11 -1 -25 -3 -41h-369c3 -53 21 -94 54 -124c33 -29 74 -44 121 -44c67 0 114 35 140 52l9 7l41 -71c-11 -9 -25 -19 -40 -28s-38 -19 -68 -29c-29 -10 -59 -15 -88 -15
c-79 0 -143 25 -194 75c-50 51 -75 114 -75 190zM137 310h271c-3 84 -54 133 -123 133c-76 0 -135 -50 -148 -133zM400 606h-73v101h73v-101zM236 606h-74v101h74v-101z" />
    <glyph glyph-name="uni0452" unicode="&#x452;" horiz-adv-x="584" 
d="M164 0h-97v553h-63v71h63v82h97v-82h206v-71h-206v-164l-2 -42h2c28 60 85 113 176 113c120 0 185 -66 185 -194v-287c0 -79 -30 -134 -75 -158c-44 -24 -79 -31 -119 -31l-34 3v83c6 -1 13 -2 22 -2c39 0 109 13 109 112v258c0 84 -36 126 -107 126
c-75 0 -128 -48 -149 -124c-5 -18 -8 -40 -8 -67v-179z" />
    <glyph glyph-name="uni0453" unicode="&#x453;" horiz-adv-x="439" 
d="M182 0h-97v423h-63v83h335c47 0 65 -17 65 -62v-77h-81v34c0 15 -7 22 -22 22h-137v-423zM262 580h-76l73 127h98z" />
    <glyph glyph-name="uni0454" unicode="&#x454;" horiz-adv-x="529" 
d="M33 253c0 75 25 138 75 189c51 51 116 76 197 76c62 0 182 -26 182 -111v-46h-83v26c0 16 -11 29 -33 38c-22 10 -45 15 -70 15c-92 0 -162 -59 -173 -151h243v-68h-243c12 -93 86 -154 178 -154c60 0 121 27 146 50l18 17l38 -67c-4 -4 -7 -9 -34 -28
c-33 -23 -90 -51 -171 -51c-79 0 -144 25 -195 75c-50 50 -75 113 -75 190z" />
    <glyph glyph-name="uni0455" unicode="&#x455;" horiz-adv-x="449" 
d="M36 68l-8 9l49 65c3 -4 7 -9 27 -26c28 -23 70 -49 127 -49c49 0 87 24 87 65c0 33 -44 58 -97 78c-77 29 -179 72 -178 166c0 92 79 142 188 142c39 0 77 -8 112 -24c36 -15 54 -40 54 -74v-48h-87v25c0 27 -40 43 -76 43c-59 0 -95 -21 -95 -60c0 -35 43 -60 98 -80
c79 -27 179 -65 179 -164c0 -45 -18 -81 -53 -108s-79 -40 -133 -40c-108 0 -172 56 -194 80z" />
    <glyph glyph-name="uni0456" unicode="&#x456;" horiz-adv-x="265" 
d="M173 605h-87v101h87v-101zM84 64v337c0 15 -7 22 -22 22h-41v83h95c45 0 65 -19 65 -64v-337c0 -15 7 -22 22 -22h41v-83h-96c-45 0 -64 19 -64 64z" />
    <glyph glyph-name="uni0457" unicode="&#x457;" horiz-adv-x="265" 
d="M229 605h-73v101h73v-101zM90 605h-74v101h74v-101zM84 64v337c0 15 -7 22 -22 22h-41v83h95c45 0 65 -19 65 -64v-337c0 -15 7 -22 22 -22h41v-83h-96c-45 0 -64 19 -64 64z" />
    <glyph glyph-name="uni0458" unicode="&#x458;" horiz-adv-x="245" 
d="M173 605h-87v101h87v-101zM84 -11v412c0 15 -7 22 -22 22h-41v83h96c45 0 64 -19 64 -64v-459c0 -64 -22 -114 -50 -139c-45 -42 -104 -51 -144 -50l-34 2v83c6 -1 13 -1 22 -1c39 0 109 12 109 111z" />
    <glyph glyph-name="uni0459" unicode="&#x459;" horiz-adv-x="742" 
d="M10 -4v86c91 3 125 176 125 306v35h-63v83h299c43 0 64 -19 64 -58v-130h100c119 0 187 -60 187 -160c0 -95 -67 -158 -187 -158h-142c-39 0 -55 16 -55 55v350c0 15 -7 22 -22 22h-89v-36c0 -65 -4 -124 -23 -200c-24 -107 -84 -192 -194 -195zM435 247v-157
c0 -13 6 -20 19 -20h71c64 0 102 35 102 88c0 55 -36 89 -103 89h-89z" />
    <glyph glyph-name="uni045A" unicode="&#x45a;" horiz-adv-x="819" 
d="M182 0h-97v401c0 15 -7 22 -22 22h-41v83h96c45 0 64 -19 64 -64v-128h236v192h97v-191h100c115 0 183 -61 183 -154c0 -100 -72 -161 -183 -161h-142c-39 0 -55 16 -55 55v182h-236v-237zM515 242v-152c0 -13 6 -20 19 -20h71c63 0 98 34 98 89c0 52 -35 83 -98 83h-90z
" />
    <glyph glyph-name="uni045B" unicode="&#x45b;" horiz-adv-x="607" 
d="M164 0h-97v553h-63v71h63v82h97v-82h206v-71h-206v-163l-2 -42h2c13 29 36 55 69 78s72 35 118 35c116 0 174 -65 174 -194v-162c0 -15 7 -22 22 -22h41v-83h-96c-45 0 -64 19 -64 64v181c0 81 -20 127 -95 127c-76 0 -140 -52 -161 -125c-5 -18 -8 -40 -8 -67v-180z" />
    <glyph glyph-name="uni045C" unicode="&#x45c;" horiz-adv-x="533" 
d="M182 0h-97v401c0 15 -7 22 -22 22h-41v83h96c45 0 64 -19 64 -64v-135h42c25 0 43 8 53 23l121 176h109l-139 -201c-13 -19 -27 -32 -34 -35l-4 -3v-2c13 -5 25 -17 38 -38l74 -124c8 -13 23 -20 44 -20h30v-83h-70c-48 0 -63 8 -84 47l-90 157c-8 13 -24 20 -49 20h-41
v-224zM306 580h-76l73 127h98z" />
    <glyph glyph-name="uni045D" unicode="&#x45d;" horiz-adv-x="619" 
d="M180 0h-96v401c0 15 -7 22 -21 22h-40v83h89c45 0 64 -18 64 -63v-241c0 -33 -1 -57 -4 -70h2c7 13 22 37 47 70l218 304h96v-401c0 -15 7 -22 21 -22h40v-83h-89c-45 0 -64 19 -64 64v240c0 26 1 50 4 71h-2c-5 -13 -21 -36 -47 -71zM370 580h-76l-95 127h98z" />
    <glyph glyph-name="uni045E" unicode="&#x45e;" horiz-adv-x="543" 
d="M122 -210c-44 0 -89 21 -106 38l-13 12l40 70c1 -4 33 -36 74 -36c39 0 68 24 89 73l23 55l-173 401c-6 13 -16 20 -31 20h-13v83h57c41 0 57 -11 73 -51l114 -285l18 -61h2c5 23 11 44 17 61l106 285c13 40 32 51 73 51h58v-83h-13c-15 0 -26 -7 -32 -20l-199 -494
c-32 -77 -92 -119 -164 -119zM274 564c-41 0 -76 11 -105 34s-43 55 -43 94v15h78v-14c0 -41 33 -66 70 -66c39 0 71 24 71 67v13h77v-15c0 -39 -14 -71 -43 -94s-64 -34 -105 -34z" />
    <glyph glyph-name="uni045F" unicode="&#x45f;" horiz-adv-x="591" 
d="M84 63v338c0 15 -7 22 -22 22h-41v83h96c45 0 64 -19 64 -64v-339c0 -15 7 -22 21 -22h187c14 0 21 7 21 22v339c0 45 20 64 65 64h95v-83h-41c-15 0 -22 -7 -22 -22v-338c0 -45 -18 -63 -63 -63h-105v-120h-87v120h-104c-45 0 -64 18 -64 63z" />
    <glyph glyph-name="uni0462" unicode="&#x462;" horiz-adv-x="679" 
d="M188 64v461h-176v87h176v94h100v-94h194v-87h-194v-111h141c65 0 120 -17 164 -50c45 -33 67 -82 67 -149c0 -69 -22 -123 -67 -160s-99 -55 -164 -55h-176c-45 0 -65 19 -65 64zM288 330v-224c0 -15 7 -22 22 -22h117c79 0 130 48 130 129c0 76 -51 117 -130 117h-139z
" />
    <glyph glyph-name="uni0463" unicode="&#x463;" horiz-adv-x="537" 
d="M131 55v404h-121v73h121v174h97v-174h165v-73h-165v-134h105c115 0 185 -64 185 -160c0 -103 -74 -165 -185 -165h-147c-39 0 -55 16 -55 55zM228 255v-165c0 -13 6 -20 19 -20h74c61 0 99 38 99 93c0 57 -36 92 -99 92h-93z" />
    <glyph glyph-name="uni0472" unicode="&#x472;" horiz-adv-x="793" 
d="M34 358c0 102 34 187 103 256s156 104 259 104s190 -35 259 -104s104 -154 104 -256c0 -105 -35 -193 -104 -264s-156 -106 -259 -106s-190 35 -259 106s-103 159 -103 264zM655 317h-517c9 -69 37 -127 85 -172s106 -67 173 -67s125 22 173 67s77 103 86 172zM137 396
h518c-9 67 -37 123 -86 167c-48 44 -106 66 -173 66s-125 -22 -174 -66c-48 -44 -76 -100 -85 -167z" />
    <glyph glyph-name="uni0473" unicode="&#x473;" horiz-adv-x="609" 
d="M32 254c0 75 26 138 79 188c53 51 117 76 193 76c77 0 141 -25 194 -75s79 -113 79 -189s-26 -139 -79 -190s-117 -76 -193 -76s-141 25 -194 76s-79 114 -79 190zM483 225h-356c7 -47 27 -86 60 -115s73 -44 118 -44s85 15 118 44c33 30 53 68 60 115zM127 287h355
c-7 45 -27 82 -60 110c-33 29 -72 43 -117 43s-84 -14 -117 -43c-33 -28 -54 -65 -61 -110z" />
    <glyph glyph-name="uni0474" unicode="&#x474;" horiz-adv-x="692" 
d="M382 0h-106l-262 706h112l175 -493l27 -97h2c9 39 18 72 27 97l140 414c11 34 25 56 40 65s41 14 78 14h66v-86h-22c-24 0 -40 -3 -49 -9c-9 -5 -16 -18 -23 -39z" />
    <glyph glyph-name="uni0475" unicode="&#x475;" horiz-adv-x="562" 
d="M318 0h-108l-195 506h106l128 -342l18 -66h2c5 25 11 47 18 66l86 249c24 71 55 93 127 93h52v-84h-26c-43 0 -58 -11 -74 -56z" />
    <glyph glyph-name="uni048A" unicode="&#x48a;" horiz-adv-x="792" 
d="M198 0h-99v598c0 15 -7 22 -22 22h-43v86h101c45 0 64 -19 64 -64v-387l-6 -101h2c25 43 46 77 63 102l308 450h98v-598c0 -15 7 -22 22 -22h87v-57l-72 -169h-73l40 140h-39c-45 0 -65 19 -65 64v388l6 103h-2c-23 -43 -43 -78 -60 -103zM388 739c-41 0 -76 11 -105 34
s-43 55 -43 94v15h78v-14c0 -41 33 -66 70 -66c39 0 71 24 71 67v13h77v-15c0 -39 -14 -71 -43 -94s-64 -34 -105 -34z" />
    <glyph glyph-name="uni048B" unicode="&#x48b;" horiz-adv-x="645" 
d="M180 0h-96v401c0 15 -7 22 -21 22h-40v83h89c45 0 64 -18 64 -63v-241c0 -33 -1 -57 -4 -70h2c7 13 22 37 47 70l218 304h96v-401c0 -15 7 -22 21 -22h72v-54l-63 -149h-69l33 120h-22c-45 0 -64 19 -64 64v240c0 26 1 50 4 71h-2c-5 -13 -21 -36 -47 -71zM312 564
c-41 0 -76 11 -105 34s-43 55 -43 94v15h78v-14c0 -41 33 -66 70 -66c39 0 71 24 71 67v13h77v-15c0 -39 -14 -71 -43 -94s-64 -34 -105 -34z" />
    <glyph glyph-name="uni048C" unicode="&#x48c;" horiz-adv-x="661" 
d="M168 64v506h-159v77h158v103h101v-103h183v-77h-183v-140h137c67 0 123 -18 169 -53s69 -88 69 -158s-23 -124 -68 -162s-100 -57 -165 -57h-178c-45 0 -64 19 -64 64zM268 346v-240c0 -15 7 -22 22 -22h117c81 0 133 52 133 133c0 80 -54 129 -137 129h-135z" />
    <glyph glyph-name="uni048D" unicode="&#x48d;" horiz-adv-x="537" 
d="M131 55v404h-121v73h121v174h97v-174h165v-73h-165v-134h105c115 0 185 -64 185 -160c0 -103 -74 -165 -185 -165h-146c-40 0 -56 16 -56 55zM228 255v-165c0 -13 6 -20 19 -20h74c61 0 99 38 99 93c0 57 -36 92 -99 92h-93z" />
    <glyph glyph-name="uni048E" unicode="&#x48e;" horiz-adv-x="610" 
d="M198 0h-100v620h-65v86h320c65 0 118 -20 159 -61c41 -40 62 -93 62 -160c0 -69 -22 -124 -66 -166l61 -81l-54 -44l-66 86c-27 -13 -59 -19 -96 -19h-155v-261zM398 347l-67 88l56 44l67 -90c17 23 26 53 26 90c0 88 -52 141 -139 141h-143v-282h142c21 0 41 3 58 9z
" />
    <glyph glyph-name="uni048F" unicode="&#x48f;" horiz-adv-x="612" 
d="M182 -200h-97v601c0 15 -7 22 -22 22h-41v83h91c41 0 62 -17 62 -51l-1 -27h2c3 5 4 11 23 31c24 28 70 59 145 59c68 0 122 -24 162 -73c41 -49 61 -113 61 -192c0 -76 -20 -138 -60 -187l54 -65l-54 -47l-55 65c-34 -21 -72 -31 -115 -31c-87 0 -137 51 -150 72l-5 9
h-2c1 -12 2 -27 2 -44v-225zM396 86l-69 84l54 47l66 -79c19 32 28 70 28 113c0 55 -14 99 -42 132s-64 50 -107 50c-83 0 -147 -62 -147 -183c0 -50 13 -93 38 -129c26 -36 62 -54 107 -54c27 0 51 6 72 19z" />
    <glyph glyph-name="uni0490" unicode="&#x490;" horiz-adv-x="501" 
d="M198 0h-100v620h-65v86h341c15 0 22 7 22 22v50h92v-94c0 -45 -20 -64 -65 -64h-225v-620z" />
    <glyph glyph-name="uni0491" unicode="&#x491;" horiz-adv-x="417" 
d="M182 0h-97v423h-62v83h277c15 0 22 7 22 22v45h82v-88c0 -44 -19 -62 -64 -62h-158v-423z" />
    <glyph glyph-name="uni0492" unicode="&#x492;" horiz-adv-x="512" 
d="M201 0h-100v302h-65v76h65v242h-65v86h395c45 0 65 -19 65 -64v-89h-92v45c0 15 -7 22 -22 22h-181v-242h154v-76h-154v-302z" />
    <glyph glyph-name="uni0493" unicode="&#x493;" horiz-adv-x="442" 
d="M85 197h-62v69h62v157h-63v83h335c47 0 65 -17 65 -62v-77h-81v34c0 15 -7 22 -22 22h-137v-157h129v-69h-129v-197h-97v197z" />
    <glyph glyph-name="uni0494" unicode="&#x494;" horiz-adv-x="606" 
d="M198 0h-100v624h-65v82h412c45 0 63 -17 63 -62v-81h-83v39c0 15 -7 22 -22 22h-205v-236c41 19 87 29 137 29c161 0 241 -95 241 -284c0 -212 -95 -311 -255 -311v81c102 0 153 77 153 230c0 140 -49 198 -158 198c-38 0 -77 -9 -118 -28v-303z" />
    <glyph glyph-name="uni0495" unicode="&#x495;" horiz-adv-x="507" 
d="M182 0h-97v423h-62v83h343c47 0 64 -11 64 -55v-84h-81v37c0 13 -6 19 -18 19h-149v-178c36 17 73 26 112 26c64 0 111 -20 141 -60c31 -39 46 -88 46 -147c0 -117 -50 -207 -150 -271l-48 69c69 41 104 105 104 192c0 80 -33 136 -113 136c-33 0 -63 -9 -92 -26v-164z
" />
    <glyph glyph-name="uni0496" unicode="&#x496;" horiz-adv-x="922" 
d="M117 0h-110l188 320c12 21 30 38 39 42l6 4v2c-13 5 -26 19 -39 44l-102 185c-8 15 -25 23 -50 23h-20v86h50c56 0 72 -9 96 -53l119 -218c13 -23 29 -28 61 -28h39v299h96v-299h37c31 0 52 9 63 28l119 218c24 44 40 53 96 53h50v-86h-20c-25 0 -42 -8 -51 -23
l-101 -185c-12 -21 -26 -37 -33 -41l-6 -3v-2c16 -7 31 -23 44 -46l138 -234h37c45 0 63 -18 63 -63v-163h-90v118c0 13 -6 21 -17 22h-52l-172 297c-11 19 -30 29 -57 29h-48v-326h-96v326h-48c-27 0 -46 -10 -57 -29z" />
    <glyph glyph-name="uni0497" unicode="&#x497;" horiz-adv-x="781" 
d="M129 0h-113l121 208c15 25 37 42 49 46l9 3v2c-16 5 -29 18 -40 40l-52 104c-6 13 -21 20 -45 20h-26v83h60c49 0 66 -7 85 -47l65 -131c11 -20 30 -30 58 -30h30v208h94v-208h29c28 0 47 10 58 30l65 131c19 40 36 47 85 47h60v-83h-26c-27 0 -37 -4 -45 -20l-52 -104
c-9 -20 -25 -34 -34 -37l-6 -3v-2c22 -5 41 -21 58 -49l74 -127h23c44 0 61 -19 61 -63v-138h-89v98c0 15 -6 22 -19 22h-41l-100 176c-16 27 -40 40 -71 40h-30v-216h-94v216h-30c-31 0 -55 -13 -72 -40z" />
    <glyph glyph-name="uni0498" unicode="&#x498;" horiz-adv-x="530" 
d="M20 82l59 70c36 -39 99 -75 163 -75c83 0 146 49 146 126c0 73 -56 118 -131 118h-84v82h72c68 0 122 48 122 116c0 65 -42 110 -121 110c-61 0 -111 -30 -111 -67v-29h-92v55c0 29 12 54 35 75c48 41 111 55 176 55c136 0 214 -73 214 -184c0 -72 -34 -125 -102 -160v-2
c77 -21 125 -88 125 -173c0 -108 -76 -187 -192 -206v-133h-90v130c-78 8 -141 39 -189 92z" />
    <glyph glyph-name="uni0499" unicode="&#x499;" horiz-adv-x="442" 
d="M23 62l46 64c39 -39 84 -59 134 -59c60 0 105 29 105 84c0 51 -34 76 -103 76h-64v67h51c66 0 99 26 99 77c0 49 -35 74 -88 74c-41 0 -82 -17 -82 -49v-23h-81v47c0 32 17 56 50 73s74 25 121 25c109 0 178 -49 178 -137c0 -59 -32 -98 -75 -114v-2
c53 -13 91 -56 91 -120c0 -81 -57 -135 -141 -151v-114h-87v110c-59 6 -110 30 -154 72z" />
    <glyph glyph-name="uni049A" unicode="&#x49a;" horiz-adv-x="633" 
d="M199 0h-100v598c0 15 -7 22 -22 22h-43v86h101c45 0 64 -19 64 -64v-233h67c29 0 49 8 58 24l157 273h112l-171 -293c-12 -21 -27 -38 -34 -43l-6 -3v-2c14 -3 27 -18 40 -44l117 -235h30c45 0 62 -18 62 -63v-163h-89v118c0 15 -7 22 -21 22h-51l-148 298
c-8 17 -29 26 -63 26h-60v-324z" />
    <glyph glyph-name="uni049B" unicode="&#x49b;" horiz-adv-x="538" 
d="M182 0h-97v401c0 15 -7 22 -22 22h-41v83h96c47 0 64 -14 64 -58v-137h45c25 0 42 8 53 23l118 172h109l-136 -197c-13 -19 -28 -31 -33 -35l-5 -2v-2c11 -5 22 -18 33 -39l88 -150h21c37 0 56 -21 56 -63v-138h-89v98c0 15 -5 22 -16 22h-37l-120 208
c-7 13 -24 20 -49 20h-38v-228z" />
    <glyph glyph-name="uni049C" unicode="&#x49c;" horiz-adv-x="698" 
d="M345 202h-74v122h-72v-324h-100v598c0 15 -7 22 -22 22h-43v86h101c45 0 64 -19 64 -64v-233h72v120h74v-120h10c30 0 49 8 58 24l153 273h112l-168 -293c-11 -21 -26 -38 -34 -43l-6 -3v-2c14 -3 27 -18 40 -44l103 -212c7 -15 24 -23 50 -23h20v-86h-56
c-57 0 -77 9 -98 53l-119 245c-11 21 -28 26 -63 26h-2v-122z" />
    <glyph glyph-name="uni049D" unicode="&#x49d;" horiz-adv-x="595" 
d="M306 114h-70v114h-54v-228h-97v401c0 15 -7 22 -22 22h-41v83h95c47 0 65 -14 65 -58v-136h54v92h70v-92c22 0 38 7 47 21l110 173h109l-129 -197c-13 -19 -26 -31 -33 -35l-4 -2v-2c12 -7 23 -20 34 -41l62 -126c8 -16 17 -20 44 -20h30v-83h-70c-47 0 -63 8 -84 47
l-79 161c-7 11 -20 18 -37 19v-113z" />
    <glyph glyph-name="uni049E" unicode="&#x49e;" horiz-adv-x="620" 
d="M102 525h-82v75h82v106h100v-106h94v-75h-94v-116h72c29 0 49 8 58 24l156 273h112l-171 -293c-11 -21 -26 -38 -34 -43l-6 -3v-2c14 -3 27 -18 40 -44l106 -212c7 -15 24 -23 50 -23h20v-86h-56c-29 0 -49 3 -62 10s-25 21 -36 43l-122 245c-8 17 -29 26 -63 26h-64
v-324h-100v525z" />
    <glyph glyph-name="uni049F" unicode="&#x49f;" horiz-adv-x="524" 
d="M76 528h-70v69h70v109h97v-109h117v-69h-117v-208h45c24 0 41 7 52 22l117 164h112l-138 -188c-13 -19 -28 -32 -33 -36l-5 -2v-2c11 -4 23 -17 34 -38l75 -137c7 -13 22 -20 44 -20h30v-83h-70c-47 0 -63 8 -84 47l-92 170c-7 14 -24 21 -50 21h-37v-238h-97v528z" />
    <glyph glyph-name="uni04A0" unicode="&#x4a0;" horiz-adv-x="756" 
d="M346 0h-100v620h-119c-15 0 -22 -7 -22 -22v-45h-92v94c0 44 17 59 62 59h336v-86h-65v-211h64c29 0 49 8 58 24l156 273h112l-171 -293c-11 -21 -26 -38 -34 -43l-6 -3v-2c14 -3 27 -18 40 -44l106 -212c7 -15 24 -23 50 -23h20v-86h-56c-29 0 -49 3 -62 10
s-25 21 -36 43l-122 245c-8 17 -29 26 -63 26h-56v-324z" />
    <glyph glyph-name="uni04A1" unicode="&#x4a1;" horiz-adv-x="638" 
d="M291 0h-97v408c0 13 -6 20 -18 20h-61c-12 0 -18 -7 -18 -20v-40h-79v83c0 44 17 55 64 55h145c47 0 64 -14 64 -58v-141h39c25 0 42 8 52 23l120 176h111l-140 -201c-13 -19 -28 -32 -33 -35l-5 -3v-2c13 -5 26 -17 38 -38l75 -124c7 -13 22 -20 44 -20h29v-83h-70
c-47 0 -63 8 -84 47l-90 157c-8 13 -24 20 -48 20h-38v-224z" />
    <glyph glyph-name="uni04A2" unicode="&#x4a2;" horiz-adv-x="781" 
d="M199 0h-100v598c0 15 -7 22 -22 22h-43v86h101c45 0 64 -19 64 -64v-247h359v247c0 45 20 64 65 64h100v-86h-43c-15 0 -22 -7 -22 -22v-512h35c45 0 63 -18 63 -63v-163h-90v118c0 15 -7 22 -21 22h-87v310h-359v-310z" />
    <glyph glyph-name="uni04A3" unicode="&#x4a3;" horiz-adv-x="633" 
d="M512 0h-74v219h-256v-219h-97v401c0 15 -7 22 -22 22h-41v83h96c45 0 64 -19 64 -64v-142h256v206h97v-425h24c43 0 60 -19 60 -63v-138h-89v98c0 15 -6 22 -18 22z" />
    <glyph glyph-name="uni04A4" unicode="&#x4a4;" horiz-adv-x="941" 
d="M199 0h-100v598c0 15 -7 22 -22 22h-43v86h101c45 0 64 -19 64 -64v-247h336v225h-65v86h397c45 0 62 -17 62 -62v-91h-92v45c0 15 -7 22 -22 22h-180v-620h-100v310h-336v-310z" />
    <glyph glyph-name="uni04A5" unicode="&#x4a5;" horiz-adv-x="757" 
d="M182 0h-97v401c0 15 -7 22 -22 22h-41v83h96c45 0 64 -19 64 -64v-153h232v139h-62v78h323c47 0 64 -11 64 -55v-80h-80v37c0 13 -6 20 -19 20h-129v-428h-97v207h-232v-207z" />
    <glyph glyph-name="uni04A6" unicode="&#x4a6;" horiz-adv-x="993" 
d="M199 0h-100v620h-66v86h494c45 0 64 -19 64 -64v-240c41 19 87 29 136 29c161 0 242 -98 242 -294c0 -210 -85 -315 -256 -315v81c102 0 153 78 153 234c0 149 -49 212 -158 212c-31 0 -70 -9 -117 -27v-322h-100v598c0 15 -7 22 -22 22h-270v-620z" />
    <glyph glyph-name="uni04A7" unicode="&#x4a7;" horiz-adv-x="813" 
d="M181 0h-97v423h-57v83h510v-83h-56v-148c36 17 73 26 110 26c70 0 121 -22 153 -65c33 -43 49 -98 49 -165c0 -119 -50 -212 -150 -278l-48 69c69 45 104 114 104 209c0 97 -42 146 -127 146c-32 0 -62 -8 -91 -24v-193h-97v423h-203v-423z" />
    <glyph glyph-name="uni04A8" unicode="&#x4a8;" horiz-adv-x="907" 
d="M35 364c0 100 34 189 85 245c52 57 108 93 167 110l34 -90c-51 -17 -94 -49 -131 -95c-37 -45 -55 -103 -55 -173c0 -79 23 -145 68 -200c46 -55 110 -82 193 -82c37 0 73 6 109 17c-97 73 -156 182 -156 313c0 91 26 164 77 217s112 80 183 80c75 0 136 -26 183 -78
s71 -123 71 -212c0 -121 -66 -237 -170 -320c33 -9 71 -14 115 -14h46v-82h-48c-73 0 -140 13 -201 39c-67 -34 -137 -51 -210 -51c-106 0 -193 34 -260 103s-100 160 -100 273zM451 410c0 -117 52 -215 144 -272c100 64 166 168 166 277c0 132 -65 201 -153 201
c-41 0 -77 -18 -109 -53s-48 -86 -48 -153z" />
    <glyph glyph-name="uni04A9" unicode="&#x4a9;" horiz-adv-x="765" 
d="M33 261c0 67 18 123 55 166c37 44 80 74 129 91l33 -79c-68 -27 -125 -92 -125 -180c0 -53 17 -99 51 -136s84 -55 150 -55c29 0 58 4 88 12c-81 57 -121 132 -121 223c0 61 20 112 61 153s94 62 157 62s113 -19 151 -57s57 -87 57 -146c0 -86 -42 -163 -125 -231
c23 -5 48 -7 77 -7h54v-77h-50c-58 0 -114 10 -167 30c-58 -28 -119 -42 -182 -42c-92 0 -164 26 -216 77c-51 51 -77 117 -77 196zM386 305c0 -81 44 -148 116 -188c75 44 124 113 124 193s-45 130 -117 130c-35 0 -65 -13 -88 -39c-23 -25 -35 -57 -35 -96z" />
    <glyph glyph-name="uni04AA" unicode="&#x4aa;" horiz-adv-x="698" 
d="M35 359c0 102 34 187 101 256c68 69 152 103 253 103c95 0 265 -40 265 -153v-69h-92v40c0 27 -18 49 -55 65s-75 24 -116 24c-72 0 -132 -25 -180 -74s-72 -113 -72 -192c0 -77 24 -143 73 -197c49 -53 110 -80 182 -80c111 0 189 61 214 86l9 10l54 -72
c-5 -5 -9 -12 -41 -36c-15 -12 -32 -23 -49 -33c-33 -20 -93 -42 -150 -47v-130h-90v132c-91 12 -165 52 -222 120c-56 69 -84 151 -84 247z" />
    <glyph glyph-name="uni04AB" unicode="&#x4ab;" horiz-adv-x="532" 
d="M33 253c0 75 25 138 75 189c51 51 116 76 197 76c62 0 182 -26 182 -111v-52h-88v28c0 17 -10 29 -31 38c-20 9 -41 14 -63 14c-50 0 -92 -17 -125 -51c-33 -33 -49 -77 -49 -130c0 -55 17 -99 52 -132c35 -32 77 -48 127 -48c28 0 55 6 81 17c27 12 46 24 58 35l18 18
l41 -69l-20 -21c-9 -8 -28 -20 -58 -35c-29 -15 -60 -25 -93 -29v-110h-87v113c-65 11 -118 40 -158 87c-39 48 -59 106 -59 173z" />
    <glyph glyph-name="uni04AC" unicode="&#x4ac;" horiz-adv-x="636" 
d="M356 0h-90v620h-141c-15 0 -22 -7 -22 -22v-45h-90v93c0 45 15 60 60 60h486c45 0 60 -15 60 -60v-93h-89v45c0 15 -7 22 -22 22h-142v-534h35c45 0 62 -18 62 -63v-163h-89v118c0 13 -6 21 -18 22z" />
    <glyph glyph-name="uni04AD" unicode="&#x4ad;" horiz-adv-x="536" 
d="M293 0h-75v423h-98c-15 0 -22 -7 -22 -22v-34h-80v77c0 44 19 62 64 62h368c45 0 64 -18 64 -62v-77h-80v34c0 15 -7 22 -22 22h-98v-342h26c43 0 60 -19 60 -63v-138h-89v98c0 15 -6 22 -18 22z" />
    <glyph glyph-name="uni04AE" unicode="&#x4ae;" horiz-adv-x="606" 
d="M353 0h-100v308l-179 287c-9 17 -24 25 -43 25h-20v86h46c49 0 68 -9 95 -54l107 -178l43 -79h2c13 27 28 53 43 79l106 178c27 45 46 54 95 54h47v-86h-20c-19 0 -34 -8 -44 -25l-178 -287v-308z" />
    <glyph glyph-name="uni04AF" unicode="&#x4af;" horiz-adv-x="533" 
d="M219 -200v223l-165 380c-6 13 -16 20 -31 20h-10v83h50c44 0 61 -12 77 -51l106 -268l20 -62h2c7 23 14 44 21 62l105 268c16 40 33 51 77 51h50v-83h-10c-15 0 -26 -7 -32 -20l-164 -380v-223h-96z" />
    <glyph glyph-name="uni04B0" unicode="&#x4b0;" horiz-adv-x="605" 
d="M253 233h-121v73h121v2l-178 287c-10 17 -25 25 -44 25h-20v86h46c51 0 68 -9 95 -54l107 -177l43 -80h2c13 27 28 53 43 80l106 177c28 45 46 54 95 54h47v-86h-20c-20 0 -35 -8 -44 -25l-178 -287v-2h119v-73h-119v-233h-100v233z" />
    <glyph glyph-name="uni04B1" unicode="&#x4b1;" horiz-adv-x="534" 
d="M219 0h-116v71h95l-144 332c-6 13 -16 20 -31 20h-10v83h50c44 0 61 -12 77 -51l106 -268l20 -62h2c7 23 14 44 21 62l105 268c16 40 33 51 77 51h50v-83h-10c-15 0 -26 -7 -32 -20l-144 -332h97v-71h-117v-200h-96v200z" />
    <glyph glyph-name="uni04B2" unicode="&#x4b2;" horiz-adv-x="627" 
d="M124 0h-112l222 364l-142 231c-13 21 -23 25 -47 25h-25v86h58c51 0 70 -10 95 -54l79 -134l45 -83h2c13 29 28 57 43 83l80 134c25 44 45 54 94 54h59v-86h-26c-21 0 -36 -8 -46 -25l-143 -231l170 -278h37c45 0 62 -18 62 -63v-163h-89v118c0 13 -6 21 -18 22h-52
l-129 215l-44 80h-2c-14 -28 -28 -55 -43 -81z" />
    <glyph glyph-name="uni04B3" unicode="&#x4b3;" horiz-adv-x="527" 
d="M130 0h-110l171 260l-97 144c-9 13 -23 19 -42 19h-29v83h62c47 0 62 -8 89 -51l61 -98l16 -32h2c6 13 12 23 17 32l61 98c27 43 42 51 89 51h62v-83h-29c-19 0 -33 -6 -42 -18l-97 -145l117 -179h25c43 0 60 -19 60 -63v-138h-90v98c0 14 -5 21 -14 22h-37l-106 165
l-16 27h-2l-15 -27z" />
    <glyph glyph-name="uni04B4" unicode="&#x4b4;" horiz-adv-x="919" 
d="M249 64v556h-124c-15 0 -22 -7 -22 -22v-45h-89v93c0 45 15 60 60 60h446c45 0 61 -15 61 -60v-93h-86v45c0 15 -7 22 -22 22h-124v-512c0 -15 7 -22 22 -22h337v620h100v-620h24c45 0 62 -18 62 -63v-163h-89v118c0 15 -7 22 -21 22h-470c-45 0 -65 19 -65 64z" />
    <glyph glyph-name="uni04B5" unicode="&#x4b5;" horiz-adv-x="746" 
d="M193 63v364h-89c-13 0 -19 -7 -19 -20v-36h-68v79c0 44 17 56 64 56h318c47 0 64 -12 64 -56v-79h-68v36c0 13 -6 20 -18 20h-87v-324c0 -15 7 -22 21 -22h245v425h97v-425h15c44 0 61 -19 61 -63v-138h-89v98c0 15 -7 22 -21 22h-362c-45 0 -64 18 -64 63z" />
    <glyph glyph-name="uni04B6" unicode="&#x4b6;" horiz-adv-x="688" 
d="M296 270c-145 0 -217 74 -217 206v122c0 15 -7 22 -22 22h-43v86h101c45 0 64 -19 64 -64v-144c0 -92 41 -137 140 -137c57 0 107 16 150 48v297h100v-620h35c45 0 63 -16 63 -63v-163h-89v118c0 13 -6 21 -18 22h-91v286l2 33h-2c-59 -33 -116 -49 -173 -49z" />
    <glyph glyph-name="uni04B7" unicode="&#x4b7;" horiz-adv-x="575" 
d="M238 176c-105 0 -162 53 -162 152v73c0 15 -8 22 -23 22h-36v83h91c47 0 63 -23 63 -64v-87c0 -59 23 -95 96 -95c40 0 78 12 113 36v210h97v-425h24c43 0 60 -19 60 -63v-138h-89v98c0 13 -5 21 -15 22h-77v183l1 32h-1c-39 -26 -87 -39 -142 -39z" />
    <glyph glyph-name="uni04B8" unicode="&#x4b8;" horiz-adv-x="668" 
d="M292 273h-3c-139 0 -211 72 -211 203v122c0 15 -7 22 -22 22h-43v86h101c45 0 64 -19 64 -64v-141c0 -86 38 -132 114 -138v138h74v-136c48 7 88 22 121 45v296h100v-706h-100v287l2 33h-2c-35 -19 -76 -33 -121 -41v-111h-74v105z" />
    <glyph glyph-name="uni04B9" unicode="&#x4b9;" horiz-adv-x="569" 
d="M253 178h-7c-108 0 -171 59 -171 158v65c0 15 -7 22 -22 22h-37v83h92c42 0 63 -22 63 -65v-79c0 -56 19 -93 82 -101v122h70v-119c31 6 59 17 84 32v210h97v-506h-97v187l2 31h-2c-27 -15 -55 -25 -84 -31v-88h-70v79z" />
    <glyph glyph-name="uni04BA" unicode="&#x4ba;" horiz-adv-x="656" 
d="M199 0h-100v598c0 15 -7 22 -22 22h-43v86h101c45 0 64 -19 64 -64v-197l-2 -33h2c55 31 115 46 180 46c136 0 202 -73 202 -206v-144c0 -15 7 -22 22 -22h43v-86h-101c-45 0 -64 19 -64 64v167c0 92 -38 137 -125 137c-61 0 -124 -23 -157 -47v-321z" />
    <glyph glyph-name="uni04BB" unicode="&#x4bb;" horiz-adv-x="605" 
d="M164 0h-97v601c0 15 -7 22 -22 22h-41v83h95c43 0 65 -21 65 -62v-197l-2 -42h2c13 29 36 55 69 78s72 35 118 35c116 0 174 -65 174 -194v-219c0 -15 7 -22 22 -22h41v-83h-96c-45 0 -64 19 -64 64v238c0 81 -20 127 -95 127c-76 0 -140 -52 -161 -125
c-5 -18 -8 -40 -8 -67v-237z" />
    <glyph glyph-name="uni04BC" unicode="&#x4bc;" horiz-adv-x="849" 
d="M192 344h-3c-103 0 -165 61 -165 170c0 35 2 63 7 83l8 39h91l-9 -40c-5 -21 -7 -46 -7 -73c0 -59 24 -101 79 -101h4c13 89 49 160 108 214c59 55 130 82 213 82c89 0 160 -30 212 -89c53 -59 79 -138 79 -239l-3 -47h-510c1 -81 25 -146 72 -193s105 -71 173 -71
c35 0 69 6 104 19c69 27 92 47 111 64l48 -76c-8 -8 -14 -15 -49 -38c-17 -11 -36 -20 -55 -28c-39 -16 -105 -32 -170 -32c-96 0 -176 33 -240 99c-64 67 -97 152 -98 257zM298 422h411c0 59 -16 108 -49 148s-80 60 -142 60c-61 0 -111 -20 -150 -61s-63 -90 -70 -147z
" />
    <glyph glyph-name="uni04BD" unicode="&#x4bd;" horiz-adv-x="657" 
d="M421 -12c-77 0 -140 24 -190 72c-49 48 -75 108 -78 181c-88 0 -132 50 -132 149c0 23 4 48 11 74h80c-8 -24 -12 -47 -12 -69c0 -55 19 -83 58 -84c11 63 40 114 85 151s100 56 163 56c69 0 122 -23 160 -68c39 -45 58 -101 58 -169l-2 -41h-370
c5 -105 79 -168 175 -168c52 0 106 25 129 45l18 15l42 -70l-24 -21c-11 -8 -33 -19 -67 -33c-34 -13 -69 -20 -104 -20zM256 310h270c-3 81 -55 131 -120 131c-77 0 -137 -48 -150 -131z" />
    <glyph glyph-name="uni04BE" unicode="&#x4be;" horiz-adv-x="849" 
d="M192 344h-3c-103 0 -165 61 -165 170c0 35 2 63 7 83l8 39h91l-9 -40c-5 -21 -7 -46 -7 -73c0 -59 24 -101 79 -101h4c13 89 49 160 108 214c59 55 130 82 213 82c89 0 160 -30 212 -89c53 -59 79 -138 79 -239l-3 -47h-510c1 -81 25 -146 72 -193s105 -71 173 -71
c35 0 69 6 104 19c69 27 92 47 111 64l48 -76c-8 -8 -13 -14 -44 -34c-40 -27 -105 -55 -197 -63v-129h-89v133c-83 13 -150 51 -202 114c-52 64 -79 143 -80 237zM298 422h411c0 59 -16 108 -49 148s-80 60 -142 60c-61 0 -111 -20 -150 -61s-63 -90 -70 -147z" />
    <glyph glyph-name="uni04BF" unicode="&#x4bf;" horiz-adv-x="659" 
d="M448 -11v-109h-87v114c-60 12 -109 41 -147 86c-37 45 -57 99 -60 161c-88 0 -132 50 -132 149c0 23 4 48 11 74h80c-8 -24 -12 -47 -12 -69c0 -55 19 -83 58 -84c11 63 40 114 85 151s100 56 163 56c69 0 122 -23 160 -68c39 -45 58 -101 58 -169l-2 -41h-370
c5 -105 79 -168 175 -168c52 0 106 25 130 45l17 15l42 -70c-5 -5 -12 -11 -21 -18s-29 -18 -58 -31s-59 -21 -90 -24zM257 310h270c-3 81 -55 131 -120 131c-77 0 -137 -48 -150 -131z" />
    <glyph glyph-name="uni04C0" unicode="&#x4c0;" horiz-adv-x="318" 
d="M275 0h-233v86h69v534h-69v86h233v-86h-68v-534h68v-86z" />
    <glyph glyph-name="uni04C1" unicode="&#x4c1;" horiz-adv-x="884" 
d="M117 0h-110l188 320c12 21 30 38 39 42l6 4v2c-13 5 -26 19 -39 44l-102 185c-8 15 -25 23 -50 23h-20v86h50c56 0 72 -9 96 -53l119 -218c13 -23 29 -28 61 -28h39v299h96v-299h37c31 0 52 9 63 28l119 218c24 44 40 53 96 53h50v-86h-20c-25 0 -42 -8 -51 -23
l-101 -185c-12 -21 -26 -37 -33 -41l-6 -3v-2c16 -7 31 -23 44 -46l189 -320h-110l-172 297c-11 19 -30 29 -57 29h-48v-326h-96v326h-48c-27 0 -46 -10 -57 -29zM444 739c-41 0 -76 11 -105 34s-43 55 -43 94v15h78v-14c0 -41 33 -66 70 -66c39 0 71 24 71 67v13h77v-15
c0 -39 -14 -71 -43 -94s-64 -34 -105 -34z" />
    <glyph glyph-name="uni04C2" unicode="&#x4c2;" horiz-adv-x="753" 
d="M129 0h-113l121 208c15 25 37 42 49 46l9 3v2c-16 5 -29 18 -40 40l-52 104c-6 13 -21 20 -45 20h-26v83h60c49 0 66 -7 85 -47l65 -131c11 -20 30 -30 58 -30h30v208h94v-208h29c28 0 47 10 58 30l65 131c19 40 36 47 85 47h60v-83h-26c-27 0 -37 -4 -45 -20l-52 -104
c-9 -20 -25 -34 -34 -37l-6 -3v-2c22 -5 41 -21 58 -49l122 -208h-113l-100 176c-16 27 -40 40 -71 40h-30v-216h-94v216h-30c-31 0 -55 -13 -72 -40zM378 564c-41 0 -76 11 -105 34s-43 55 -43 94v15h78v-14c0 -41 33 -66 70 -66c39 0 71 24 71 67v13h77v-15
c0 -39 -14 -71 -43 -94s-64 -34 -105 -34z" />
    <glyph glyph-name="uni04C3" unicode="&#x4c3;" horiz-adv-x="633" 
d="M199 0h-100v598c0 15 -7 22 -22 22h-43v86h101c45 0 64 -19 64 -64v-233h67c29 0 49 8 58 24l161 273h112l-158 -266c-13 -22 -27 -39 -42 -50v-1c83 -25 140 -76 164 -133c24 -56 31 -96 31 -140c0 -91 -22 -162 -67 -215s-105 -79 -180 -79v83c80 0 144 64 144 212
c0 135 -83 207 -216 207h-74v-324z" />
    <glyph glyph-name="uni04C4" unicode="&#x4c4;" horiz-adv-x="531" 
d="M182 0h-97v401c0 15 -7 22 -22 22h-41v83h96c43 0 64 -19 64 -58v-147h33c25 0 44 10 58 30l118 175h110l-132 -191c-11 -16 -22 -28 -33 -35v-2c59 -16 100 -45 124 -87s36 -88 36 -137c0 -124 -68 -213 -153 -261l-46 70c70 37 105 100 105 191c0 103 -62 163 -170 163
h-50v-217z" />
    <glyph glyph-name="uni04C5" unicode="&#x4c5;" horiz-adv-x="711" 
d="M10 -5v91c116 16 161 160 161 456v78h-66v86h415c45 0 64 -19 64 -64v-534c0 -15 7 -22 22 -22h87v-57l-73 -169h-72l40 140h-40c-45 0 -64 19 -64 64v534c0 15 -7 22 -22 22h-196v-79c0 -356 -69 -535 -256 -546z" />
    <glyph glyph-name="uni04C6" unicode="&#x4c6;" horiz-adv-x="570" 
d="M13 -3v86c43 1 77 43 94 106s25 128 25 195v39h-63v83h327c45 0 64 -19 64 -64v-337c0 -15 7 -22 22 -22h76v-54l-63 -149h-69l33 120h-31c-45 0 -65 19 -65 64v337c0 15 -7 22 -22 22h-116v-40c0 -25 -1 -49 -3 -74c-4 -48 -13 -116 -34 -168
c-28 -78 -82 -146 -175 -144z" />
    <glyph glyph-name="uni04C7" unicode="&#x4c7;" horiz-adv-x="763" 
d="M199 0h-100v598c0 15 -7 22 -22 22h-43v86h101c45 0 64 -19 64 -64v-247h366v247c0 45 19 64 64 64h101v-86h-43c-15 0 -22 -7 -22 -22v-547c0 -96 -27 -162 -71 -191c-44 -31 -84 -39 -136 -39v84c71 0 107 48 107 145v260h-366v-310z" />
    <glyph glyph-name="uni04C8" unicode="&#x4c8;" horiz-adv-x="621" 
d="M182 0h-97v401c0 15 -7 22 -22 22h-41v83h96c45 0 64 -19 64 -64v-142h256v142c0 45 20 64 65 64h96v-83h-41c-15 0 -22 -7 -22 -22v-353c0 -66 -13 -118 -38 -155s-63 -71 -113 -100l-50 71c68 37 103 84 103 183v170h-256v-217z" />
    <glyph glyph-name="uni04C9" unicode="&#x4c9;" horiz-adv-x="787" 
d="M199 0h-100v598c0 15 -7 22 -22 22h-43v86h101c45 0 64 -19 64 -64v-247h359v247c0 45 20 64 65 64h100v-86h-43c-15 0 -22 -7 -22 -22v-512h110v-57l-72 -169h-73l43 140h-108v310h-359v-310z" />
    <glyph glyph-name="uni04CA" unicode="&#x4ca;" horiz-adv-x="633" 
d="M182 0h-97v401c0 15 -7 22 -22 22h-41v83h96c45 0 64 -19 64 -64v-143h256v207h97v-401c0 -15 7 -22 22 -22h58v-54l-63 -149h-68l33 120h-15c-45 0 -64 19 -64 64v154h-256v-218z" />
    <glyph glyph-name="uni04CB" unicode="&#x4cb;" horiz-adv-x="650" 
d="M296 270c-145 0 -217 74 -217 206v122c0 15 -7 22 -22 22h-43v86h101c45 0 64 -19 64 -64v-144c0 -92 41 -137 140 -137c57 0 107 16 150 48v297h100v-706h-108c-14 0 -21 -7 -21 -22v-118h-89v163c0 45 17 63 62 63h56v200l2 33h-2c-59 -33 -116 -49 -173 -49z" />
    <glyph glyph-name="uni04CC" unicode="&#x4cc;" horiz-adv-x="541" 
d="M294 -120v129c0 44 16 62 60 62h25v121l2 31h-2c-39 -25 -87 -38 -142 -38c-105 0 -162 53 -162 152v64c0 15 -7 22 -22 22h-37v83h92c47 0 63 -23 63 -64v-79c0 -59 21 -95 96 -95c40 0 77 12 112 37v201h97v-506h-79c-9 -1 -14 -8 -14 -22v-98h-89z" />
    <glyph glyph-name="uni04CD" unicode="&#x4cd;" horiz-adv-x="892" 
d="M112 0h-89v86h33c13 0 21 7 22 22l48 598h103l166 -373l35 -90h2c12 34 24 64 35 90l166 373h103l48 -598c1 -15 9 -22 22 -22h89v-57l-72 -169h-72l39 140h-39c-45 0 -61 17 -65 64l-28 373l-2 104h-2c-14 -44 -27 -79 -38 -104l-143 -310h-84l-142 310
c-11 21 -25 63 -33 87l-5 18h-2c1 -42 0 -77 -2 -105l-29 -373c-3 -45 -20 -64 -64 -64z" />
    <glyph glyph-name="uni04CE" unicode="&#x4ce;" horiz-adv-x="758" 
d="M93 0h-74v83h26c12 0 18 6 19 19l35 404h106l132 -290l26 -63h1l27 63l131 290h106l35 -404c1 -13 7 -19 19 -19h76v-54l-63 -149h-69l33 120h-25c-40 0 -52 16 -55 55l-19 239l-2 90h-2c-8 -25 -18 -50 -30 -76l-118 -247h-92l-116 247l-29 77h-2c0 -40 -1 -70 -2 -91
l-19 -239c-3 -39 -15 -55 -55 -55z" />
    <glyph glyph-name="uni04CF" unicode="&#x4cf;" horiz-adv-x="318" 
d="M275 0h-233v83h69v540h-69v83h233v-83h-68v-540h68v-83z" />
    <glyph glyph-name="uni04D0" unicode="&#x4d0;" horiz-adv-x="665" 
d="M67 0h-55v86h14c17 0 28 7 33 22l221 598h105l221 -598c5 -15 16 -22 33 -22h14v-86h-55c-49 0 -66 11 -83 58l-53 145h-259l-53 -145c-17 -47 -34 -58 -83 -58zM304 502l-77 -215h211l-77 215l-28 99h-2c-10 -41 -19 -74 -27 -99zM331 739c-41 0 -76 11 -105 34
s-43 55 -43 94v15h78v-14c0 -41 33 -66 70 -66c39 0 71 24 71 67v13h77v-15c0 -39 -14 -71 -43 -94s-64 -34 -105 -34z" />
    <glyph glyph-name="uni04D1" unicode="&#x4d1;" horiz-adv-x="529" 
d="M28 138c0 118 102 177 306 177h22v7c0 85 -33 119 -112 119c-19 0 -37 -3 -56 -9c-18 -5 -27 -15 -27 -30v-29h-92v51c0 37 30 66 70 78c41 12 74 16 103 16c156 0 211 -73 211 -198v-215c0 -15 7 -22 22 -22h41v-83h-92c-41 0 -62 19 -62 58l1 30h-2
c2 0 -43 -100 -163 -100c-47 0 -87 13 -120 40s-50 64 -50 110zM125 147c0 -44 35 -82 95 -82c40 0 73 17 98 50s38 70 38 111v19h-26c-137 0 -205 -33 -205 -98zM265 564c-41 0 -76 11 -105 34s-43 55 -43 94v15h78v-14c0 -41 33 -66 70 -66c39 0 71 24 71 67v13h77v-15
c0 -39 -14 -71 -43 -94s-64 -34 -105 -34z" />
    <glyph glyph-name="uni04D2" unicode="&#x4d2;" horiz-adv-x="665" 
d="M67 0h-55v86h14c17 0 28 7 33 22l221 598h105l221 -598c5 -15 16 -22 33 -22h14v-86h-55c-49 0 -66 11 -83 58l-53 145h-259l-53 -145c-17 -47 -34 -58 -83 -58zM304 502l-77 -215h211l-77 215l-28 99h-2c-10 -41 -19 -74 -27 -99zM451 781h-73v101h73v-101zM287 781h-74
v101h74v-101z" />
    <glyph glyph-name="uni04D3" unicode="&#x4d3;" horiz-adv-x="529" 
d="M28 138c0 118 102 177 306 177h22v7c0 85 -33 119 -112 119c-19 0 -37 -3 -56 -9c-18 -5 -27 -15 -27 -30v-29h-92v51c0 37 30 66 70 78c41 12 74 16 103 16c156 0 211 -73 211 -198v-215c0 -15 7 -22 22 -22h41v-83h-92c-41 0 -62 19 -62 58l1 30h-2
c2 0 -43 -100 -163 -100c-47 0 -87 13 -120 40s-50 64 -50 110zM125 147c0 -44 35 -82 95 -82c40 0 73 17 98 50s38 70 38 111v19h-26c-137 0 -205 -33 -205 -98zM375 606h-73v101h73v-101zM211 606h-74v101h74v-101z" />
    <glyph glyph-name="uni04D4" unicode="&#x4d4;" horiz-adv-x="863" 
d="M58 0h-48v86h11c17 0 28 7 34 22l237 598h448c45 0 64 -19 64 -64v-89h-91v45c0 15 -7 22 -22 22h-195v-221h242v-86h-242v-205c0 -15 9 -22 26 -22h196c15 0 22 7 22 22v45h92v-89c0 -45 -19 -64 -64 -64h-301c-52 0 -72 15 -72 64v249h-159l-95 -255
c-17 -47 -34 -58 -83 -58zM352 620l-83 -221h126v221h-43z" />
    <glyph glyph-name="uni04D5" unicode="&#x4d5;" horiz-adv-x="849" 
d="M29 141c0 115 99 172 298 172h29v11c0 85 -33 117 -112 117c-19 0 -38 -3 -56 -9c-18 -5 -27 -15 -27 -30v-29h-92v51c0 23 10 41 29 56c40 29 90 38 146 38c88 0 145 -30 172 -89h2c41 59 101 89 180 89c67 0 119 -22 158 -67s59 -101 59 -168l-2 -41h-364
c5 -109 74 -170 169 -170c52 0 107 25 130 45l18 15l41 -70l-24 -21c-11 -8 -33 -19 -67 -33c-34 -13 -69 -20 -104 -20c-101 0 -174 42 -217 126h-2c-7 -19 -20 -40 -49 -71s-81 -54 -142 -54c-49 0 -90 13 -123 40s-50 65 -50 112zM453 313h263c-4 80 -55 127 -119 127
c-76 0 -129 -46 -144 -127zM127 147c0 -45 35 -81 96 -81c39 0 71 17 96 50c25 34 38 71 38 112v14h-47c-122 0 -183 -32 -183 -95z" />
    <glyph glyph-name="uni04D6" unicode="&#x4d6;" horiz-adv-x="571" 
d="M98 64v556h-65v86h416c45 0 64 -19 64 -64v-89h-92v45c0 15 -7 22 -22 22h-201v-221h248v-86h-248v-205c0 -15 7 -22 22 -22h207c15 0 22 7 22 22v45h91v-89c0 -45 -19 -64 -64 -64h-313c-45 0 -65 19 -65 64zM302 739c-41 0 -76 11 -105 34s-43 55 -43 94v15h78v-14
c0 -41 33 -66 70 -66c39 0 71 24 71 67v13h77v-15c0 -39 -14 -71 -43 -94s-64 -34 -105 -34z" />
    <glyph glyph-name="uni04D7" unicode="&#x4d7;" horiz-adv-x="539" 
d="M33 253c0 79 24 143 72 192s109 73 182 73c69 0 122 -23 160 -68c39 -45 58 -101 58 -169c0 -11 -1 -25 -3 -41h-369c3 -53 21 -94 54 -124c33 -29 74 -44 121 -44c67 0 114 35 140 52l9 7l41 -71c-11 -9 -25 -19 -40 -28s-38 -19 -68 -29c-29 -10 -59 -15 -88 -15
c-79 0 -143 25 -194 75c-50 51 -75 114 -75 190zM137 310h271c-3 84 -54 133 -123 133c-76 0 -135 -50 -148 -133zM281 564c-41 0 -76 11 -105 34s-43 55 -43 94v15h78v-14c0 -41 33 -66 70 -66c39 0 71 24 71 67v13h77v-15c0 -39 -14 -71 -43 -94s-64 -34 -105 -34z" />
    <glyph glyph-name="uni04D8" unicode="&#x4d8;" horiz-adv-x="694" 
d="M38 339l3 50h513c-3 71 -27 128 -70 172s-98 66 -165 66c-36 0 -71 -6 -106 -18c-69 -23 -95 -43 -111 -58l-49 74c11 9 14 14 50 35c19 11 37 21 56 28c39 15 105 30 170 30c97 0 176 -34 237 -103s92 -155 92 -259c0 -107 -29 -196 -88 -265s-136 -103 -233 -103
c-185 0 -299 126 -299 351zM553 310h-415c0 -149 66 -233 205 -233c62 0 112 21 151 64s58 99 59 169z" />
    <glyph glyph-name="uni04D9" unicode="&#x4d9;" horiz-adv-x="541" 
d="M34 235l3 45h370c-3 47 -20 85 -51 114s-68 44 -112 44c-55 0 -115 -23 -142 -42l-19 -15l-38 69c68 45 138 68 210 68c75 0 136 -25 182 -75c46 -49 69 -112 69 -189c0 -81 -23 -146 -70 -194c-46 -48 -105 -72 -177 -72c-71 0 -127 23 -166 68s-59 105 -59 179z
M404 210h-269c3 -100 53 -145 126 -145c77 0 138 52 143 145z" />
    <glyph glyph-name="uni04DA" unicode="&#x4da;" horiz-adv-x="694" 
d="M462 780h-74v101h74v-101zM297 780h-74v101h74v-101zM38 339l3 50h513c-3 71 -27 128 -70 172s-98 66 -165 66c-36 0 -71 -6 -106 -18c-69 -23 -95 -43 -111 -58l-49 74c11 9 14 14 50 35c19 11 37 21 56 28c39 15 105 30 170 30c97 0 176 -34 237 -103s92 -155 92 -259
c0 -107 -29 -196 -88 -265s-136 -103 -233 -103c-185 0 -299 126 -299 351zM553 310h-415c0 -149 66 -233 205 -233c62 0 112 21 151 64s58 99 59 169z" />
    <glyph glyph-name="uni04DB" unicode="&#x4db;" horiz-adv-x="540" 
d="M34 235l3 45h370c-3 47 -20 85 -51 114s-68 44 -112 44c-55 0 -115 -23 -142 -42l-19 -15l-38 69c68 45 138 68 210 68c75 0 136 -25 182 -75c46 -49 69 -112 69 -189c0 -81 -23 -146 -70 -194c-46 -48 -105 -72 -177 -72c-71 0 -127 23 -166 68s-59 105 -59 179z
M404 210h-269c3 -100 53 -145 126 -145c77 0 138 52 143 145zM375 606h-73v101h73v-101zM211 606h-74v101h74v-101z" />
    <glyph glyph-name="uni04DC" unicode="&#x4dc;" horiz-adv-x="884" 
d="M117 0h-110l188 320c12 21 30 38 39 42l6 4v2c-13 5 -26 19 -39 44l-102 185c-8 15 -25 23 -50 23h-20v86h50c56 0 72 -9 96 -53l119 -218c13 -23 29 -28 61 -28h39v299h96v-299h37c31 0 52 9 63 28l119 218c24 44 40 53 96 53h50v-86h-20c-25 0 -42 -8 -51 -23
l-101 -185c-12 -21 -26 -37 -33 -41l-6 -3v-2c16 -7 31 -23 44 -46l189 -320h-110l-172 297c-11 19 -30 29 -57 29h-48v-326h-96v326h-48c-27 0 -46 -10 -57 -29zM564 781h-73v101h73v-101zM400 781h-74v101h74v-101z" />
    <glyph glyph-name="uni04DD" unicode="&#x4dd;" horiz-adv-x="753" 
d="M129 0h-113l121 208c15 25 37 42 49 46l9 3v2c-16 5 -29 18 -40 40l-52 104c-6 13 -21 20 -45 20h-26v83h60c49 0 66 -7 85 -47l65 -131c11 -20 30 -30 58 -30h30v208h94v-208h29c28 0 47 10 58 30l65 131c19 40 36 47 85 47h60v-83h-26c-27 0 -37 -4 -45 -20l-52 -104
c-9 -20 -25 -34 -34 -37l-6 -3v-2c22 -5 41 -21 58 -49l122 -208h-113l-100 176c-16 27 -40 40 -71 40h-30v-216h-94v216h-30c-31 0 -55 -13 -72 -40zM496 606h-73v101h73v-101zM332 606h-74v101h74v-101z" />
    <glyph glyph-name="uni04DE" unicode="&#x4de;" horiz-adv-x="529" 
d="M20 82l59 70c36 -39 99 -75 163 -75c83 0 146 49 146 126c0 73 -56 118 -131 118h-84v82h72c68 0 122 48 122 116c0 65 -42 110 -121 110c-61 0 -111 -30 -111 -67v-29h-92v55c0 29 12 54 35 75c48 41 111 55 176 55c136 0 214 -73 214 -184c0 -72 -34 -125 -102 -160v-2
c77 -21 125 -88 125 -173c0 -62 -23 -113 -69 -152c-45 -39 -105 -59 -178 -59c-96 0 -175 41 -224 94zM380 781h-73v101h73v-101zM216 781h-74v101h74v-101z" />
    <glyph glyph-name="uni04DF" unicode="&#x4df;" horiz-adv-x="441" 
d="M23 62l46 64c39 -39 84 -59 134 -59c60 0 105 29 105 84c0 51 -34 76 -103 76h-64v67h51c66 0 99 26 99 77c0 49 -35 74 -88 74c-41 0 -82 -17 -82 -49v-23h-81v47c0 32 17 56 50 73s74 25 121 25c109 0 178 -49 178 -137c0 -59 -32 -98 -75 -114v-2
c53 -13 91 -56 91 -120c0 -49 -19 -88 -57 -116c-37 -27 -84 -41 -139 -41c-71 0 -133 25 -186 74zM335 606h-73v101h73v-101zM171 606h-74v101h74v-101z" />
    <glyph glyph-name="uni04E0" unicode="&#x4e0;" horiz-adv-x="505" 
d="M24 54l41 75c39 -32 100 -55 152 -55c93 0 155 52 155 128c0 65 -32 102 -111 111c-17 3 -65 4 -145 4v65l184 203l42 38l-1 2c-19 -1 -40 -2 -63 -2h-132c-15 0 -22 -7 -22 -22v-34h-85v76c0 45 19 63 64 63h346v-79l-191 -207l-28 -25v-2c37 -1 65 -3 84 -7
c103 -19 155 -78 155 -179c0 -67 -23 -120 -70 -159c-46 -39 -105 -58 -177 -58c-73 0 -139 21 -198 64z" />
    <glyph glyph-name="uni04E1" unicode="&#x4e1;" horiz-adv-x="472" 
d="M5 -146l41 75c39 -32 100 -55 152 -55c93 0 155 52 155 128c0 65 -32 102 -111 111c-17 3 -65 4 -145 4v65l184 203l42 38l-1 2c-19 -1 -40 -2 -63 -2h-132c-15 0 -22 -7 -22 -22v-34h-85v76c0 45 19 63 64 63h346v-79l-191 -207l-28 -25v-2c37 -1 65 -3 84 -7
c103 -19 155 -78 155 -179c0 -67 -23 -119 -70 -158c-46 -39 -105 -59 -177 -59c-73 0 -139 21 -198 64z" />
    <glyph glyph-name="uni04E2" unicode="&#x4e2;" horiz-adv-x="763" 
d="M198 0h-99v598c0 15 -7 22 -22 22h-43v86h101c45 0 64 -19 64 -64v-387l-6 -101h2c25 43 46 77 63 102l308 450h98v-598c0 -15 7 -22 22 -22h43v-86h-100c-45 0 -65 19 -65 64v388l6 103h-2c-23 -43 -43 -78 -60 -103zM515 785h-254v68h254v-68z" />
    <glyph glyph-name="uni04E3" unicode="&#x4e3;" horiz-adv-x="619" 
d="M180 0h-96v401c0 15 -7 22 -21 22h-40v83h89c45 0 64 -18 64 -63v-241c0 -33 -1 -57 -4 -70h2c7 13 22 37 47 70l218 304h96v-401c0 -15 7 -22 21 -22h40v-83h-89c-45 0 -64 19 -64 64v240c0 26 1 50 4 71h-2c-5 -13 -21 -36 -47 -71zM439 610h-254v68h254v-68z" />
    <glyph glyph-name="uni04E4" unicode="&#x4e4;" horiz-adv-x="763" 
d="M198 0h-99v598c0 15 -7 22 -22 22h-43v86h101c45 0 64 -19 64 -64v-387l-6 -101h2c25 43 46 77 63 102l308 450h98v-598c0 -15 7 -22 22 -22h43v-86h-100c-45 0 -65 19 -65 64v388l6 103h-2c-23 -43 -43 -78 -60 -103zM501 781h-73v101h73v-101zM337 781h-74v101h74v-101
z" />
    <glyph glyph-name="uni04E5" unicode="&#x4e5;" horiz-adv-x="619" 
d="M180 0h-96v401c0 15 -7 22 -21 22h-40v83h89c45 0 64 -18 64 -63v-241c0 -33 -1 -57 -4 -70h2c7 13 22 37 47 70l218 304h96v-401c0 -15 7 -22 21 -22h40v-83h-89c-45 0 -64 19 -64 64v240c0 26 1 50 4 71h-2c-5 -13 -21 -36 -47 -71zM432 606h-73v101h73v-101zM268 606
h-74v101h74v-101z" />
    <glyph glyph-name="uni04E6" unicode="&#x4e6;" horiz-adv-x="793" 
d="M34 358c0 101 35 187 104 256c70 69 156 104 258 104s188 -35 258 -104s105 -155 105 -256c0 -104 -35 -192 -105 -263s-156 -107 -258 -107s-188 36 -258 107c-69 71 -104 159 -104 263zM138 358c0 -77 25 -143 75 -196s111 -80 183 -80s133 27 183 80
c51 53 76 119 76 196c0 75 -25 139 -76 190c-50 51 -111 77 -183 77s-133 -26 -183 -77s-75 -115 -75 -190zM514 781h-73v101h73v-101zM350 781h-74v101h74v-101z" />
    <glyph glyph-name="uni04E7" unicode="&#x4e7;" horiz-adv-x="609" 
d="M305 518c77 0 141 -25 194 -75s79 -113 79 -189s-27 -139 -80 -190s-117 -76 -193 -76s-140 25 -193 76s-79 114 -79 190s26 139 79 189s117 75 193 75zM305 72c49 0 90 17 123 51c34 35 51 78 51 131c0 52 -17 95 -51 129c-33 34 -74 51 -123 51c-48 0 -89 -17 -123 -51
s-51 -77 -51 -129s17 -95 51 -130s75 -52 123 -52zM424 605h-73v101h73v-101zM260 605h-74v101h74v-101z" />
    <glyph glyph-name="uni04E8" unicode="&#x4e8;" horiz-adv-x="793" 
d="M34 358c0 102 34 187 103 256s156 104 259 104s190 -35 259 -104s104 -154 104 -256c0 -105 -35 -193 -104 -264s-156 -106 -259 -106s-190 35 -259 106s-103 159 -103 264zM655 317h-517c9 -69 37 -127 85 -172s106 -67 173 -67s125 22 173 67s77 103 86 172zM137 396
h518c-9 67 -37 123 -86 167c-48 44 -106 66 -173 66s-125 -22 -174 -66c-48 -44 -76 -100 -85 -167z" />
    <glyph glyph-name="uni04E9" unicode="&#x4e9;" horiz-adv-x="609" 
d="M32 254c0 75 26 138 79 188c53 51 117 76 193 76c77 0 141 -25 194 -75s79 -113 79 -189s-26 -139 -79 -190s-117 -76 -193 -76s-141 25 -194 76s-79 114 -79 190zM483 225h-356c7 -47 27 -86 60 -115s73 -44 118 -44s85 15 118 44c33 30 53 68 60 115zM127 287h355
c-7 45 -27 82 -60 110c-33 29 -72 43 -117 43s-84 -14 -117 -43c-33 -28 -54 -65 -61 -110z" />
    <glyph glyph-name="uni04EA" unicode="&#x4ea;" horiz-adv-x="793" 
d="M34 358c0 102 34 187 103 256s156 104 259 104s190 -35 259 -104s104 -154 104 -256c0 -105 -35 -193 -104 -264s-156 -106 -259 -106s-190 35 -259 106s-103 159 -103 264zM655 317h-517c9 -69 37 -127 85 -172s106 -67 173 -67s125 22 173 67s77 103 86 172zM137 396
h518c-9 67 -37 123 -86 167c-48 44 -106 66 -173 66s-125 -22 -174 -66c-48 -44 -76 -100 -85 -167zM351 781h-74v101h74v-101zM515 781h-73v101h73v-101z" />
    <glyph glyph-name="uni04EB" unicode="&#x4eb;" horiz-adv-x="611" 
d="M32 254c0 75 26 138 79 188c53 51 117 76 193 76c77 0 141 -25 194 -75s79 -113 79 -189s-26 -139 -79 -190s-117 -76 -193 -76s-141 25 -194 76s-79 114 -79 190zM483 225h-356c7 -47 27 -86 60 -115s73 -44 118 -44s85 15 118 44c33 30 53 68 60 115zM127 287h355
c-7 45 -27 82 -60 110c-33 29 -72 43 -117 43s-84 -14 -117 -43c-33 -28 -54 -65 -61 -110zM263 585h-74v101h74v-101zM427 585h-73v101h73v-101z" />
    <glyph glyph-name="uni04EC" unicode="&#x4ec;" horiz-adv-x="695" 
d="M28 97l52 70c18 -20 48 -40 89 -60c41 -19 86 -29 133 -29c68 0 125 22 172 66s73 100 80 167h-364v82h364c-5 69 -30 125 -76 169c-45 44 -102 66 -171 66c-42 0 -82 -8 -120 -24c-37 -15 -56 -37 -56 -64v-40h-92v65c0 45 27 82 81 110c55 29 116 43 185 43
c105 0 191 -34 256 -102c66 -67 99 -152 99 -254c0 -105 -34 -193 -101 -266c-67 -72 -153 -108 -257 -108c-59 0 -113 11 -163 34c-49 23 -86 48 -111 75zM440 781h-73v101h73v-101zM276 781h-74v101h74v-101z" />
    <glyph glyph-name="uni04ED" unicode="&#x4ed;" horiz-adv-x="530" 
d="M26 64l38 69c43 -44 97 -66 160 -66c46 0 85 14 118 42s53 64 59 109h-238v68h239c-12 93 -85 153 -170 153c-28 0 -54 -5 -78 -15c-23 -9 -35 -22 -35 -38v-25h-83v42c0 32 18 59 55 81c37 23 85 34 143 34c77 0 140 -25 189 -76c49 -50 74 -113 74 -188
c0 -77 -25 -141 -76 -191c-50 -50 -114 -75 -193 -75c-82 0 -149 25 -202 76zM370 606h-73v101h73v-101zM206 606h-74v101h74v-101z" />
    <glyph glyph-name="uni04EE" unicode="&#x4ee;" horiz-adv-x="622" 
d="M82 36l46 74c24 -21 49 -31 74 -31c41 0 60 24 80 79l-219 440c-7 15 -18 22 -33 22h-20v86h61c45 0 60 -13 81 -58l143 -305l37 -87h2c8 25 18 54 30 87l111 305c17 47 32 58 83 58h54v-86h-16c-17 0 -28 -7 -34 -21l-192 -486c-33 -83 -85 -125 -156 -125
c-56 0 -112 28 -132 48zM445 785h-254v68h254v-68z" />
    <glyph glyph-name="uni04EF" unicode="&#x4ef;" horiz-adv-x="543" 
d="M3 -160l41 70c0 -1 32 -36 73 -36c39 0 68 24 89 73l24 55l-174 401c-6 13 -16 20 -31 20h-13v83h57c41 0 57 -11 73 -51l114 -285l18 -61h2c5 23 11 44 17 61l106 285c13 39 32 51 73 51h58v-83h-12c-16 0 -27 -7 -33 -20l-199 -494c-31 -76 -92 -119 -164 -119
c-44 0 -89 21 -106 38zM402 610h-254v68h254v-68z" />
    <glyph glyph-name="uni04F0" unicode="&#x4f0;" horiz-adv-x="622" 
d="M82 36l46 74c24 -21 49 -31 74 -31c41 0 60 24 80 79l-219 440c-7 15 -18 22 -33 22h-20v86h61c45 0 60 -13 81 -58l143 -305l37 -87h2c8 25 18 54 30 87l111 305c17 47 32 58 83 58h54v-86h-16c-17 0 -28 -7 -34 -21l-192 -486c-33 -83 -85 -125 -156 -125
c-56 0 -112 28 -132 48zM436 781h-73v101h73v-101zM272 781h-74v101h74v-101z" />
    <glyph glyph-name="uni04F1" unicode="&#x4f1;" horiz-adv-x="543" 
d="M3 -160l40 70c0 -1 32 -36 74 -36c39 0 68 24 89 73l23 55l-173 401c-6 13 -16 20 -31 20h-13v83h57c41 0 57 -11 73 -51l114 -285l18 -61h2c5 23 11 44 17 61l106 285c13 40 32 51 73 51h58v-83h-13c-15 0 -26 -7 -32 -20l-199 -494c-32 -77 -92 -119 -164 -119
c-44 0 -89 21 -106 38zM391 606h-73v101h73v-101zM227 606h-74v101h74v-101z" />
    <glyph glyph-name="uni04F2" unicode="&#x4f2;" horiz-adv-x="622" 
d="M82 36l46 74c24 -21 49 -31 74 -31c41 0 60 24 80 79l-219 440c-7 15 -18 22 -33 22h-20v86h61c45 0 60 -13 81 -58l143 -305l37 -87h2c8 25 18 54 30 87l111 305c17 47 32 58 83 58h54v-86h-16c-17 0 -28 -7 -34 -21l-192 -486c-33 -83 -85 -125 -156 -125
c-56 0 -112 28 -132 48zM422 755h-75l72 127h99zM277 755h-83l69 127h84z" />
    <glyph glyph-name="uni04F3" unicode="&#x4f3;" horiz-adv-x="543" 
d="M3 -160l40 70c0 -1 32 -36 74 -36c39 0 68 24 89 73l23 55l-173 401c-6 13 -16 20 -31 20h-13v83h57c41 0 57 -11 73 -51l114 -285l18 -61h2c5 23 11 44 17 61l106 285c13 40 32 51 73 51h58v-83h-13c-15 0 -26 -7 -32 -20l-199 -494c-32 -77 -92 -119 -164 -119
c-44 0 -89 21 -106 38zM379 580h-75l72 127h99zM234 580h-83l69 127h84z" />
    <glyph glyph-name="uni04F4" unicode="&#x4f4;" horiz-adv-x="651" 
d="M296 270c-145 0 -217 74 -217 206v122c0 15 -7 22 -22 22h-43v86h101c45 0 64 -19 64 -64v-144c0 -92 41 -137 140 -137c57 0 107 16 150 48v297h100v-706h-100v286l2 33h-2c-59 -33 -116 -49 -173 -49zM427 781h-73v101h73v-101zM263 781h-74v101h74v-101z" />
    <glyph glyph-name="uni04F5" unicode="&#x4f5;" horiz-adv-x="541" 
d="M238 176c-105 0 -162 53 -162 152v73c0 15 -8 22 -23 22h-36v83h91c47 0 63 -23 63 -64v-87c0 -59 23 -95 96 -95c40 0 78 12 113 36v210h97v-506h-97v183l1 32h-1c-39 -26 -87 -39 -142 -39zM387 606h-73v101h73v-101zM223 606h-74v101h74v-101z" />
    <glyph glyph-name="uni04F6" unicode="&#x4f6;" horiz-adv-x="517" 
d="M186 0h-88v620h-65v86h404c45 0 64 -19 64 -64v-89h-91v45c0 15 -7 22 -22 22h-190v-534h35c45 0 63 -18 63 -63v-163h-90v118c0 15 -7 22 -20 22z" />
    <glyph glyph-name="uni04F7" unicode="&#x4f7;" horiz-adv-x="441" 
d="M159 0h-74v423h-63v83h335c47 0 65 -17 65 -62v-77h-81v34c0 15 -7 22 -22 22h-137v-342h24c44 0 61 -19 61 -63v-138h-90v98c0 15 -6 22 -18 22z" />
    <glyph glyph-name="uni04F8" unicode="&#x4f8;" horiz-adv-x="855" 
d="M656 64v642h100v-598c0 -15 7 -22 22 -22h43v-86h-101c-45 0 -64 19 -64 64zM98 64v534c0 15 -7 22 -22 22h-43v86h101c45 0 64 -19 64 -64v-202h135c65 0 119 -18 161 -55c43 -37 64 -90 64 -160c0 -73 -22 -129 -67 -168c-45 -38 -103 -57 -174 -57h-154
c-45 0 -65 19 -65 64zM198 354v-246c0 -15 7 -22 22 -22h103c81 0 132 51 132 136c0 84 -51 132 -132 132h-125zM549 781h-73v101h73v-101zM385 781h-74v101h74v-101z" />
    <glyph glyph-name="uni04F9" unicode="&#x4f9;" horiz-adv-x="724" 
d="M542 64v442h97v-401c0 -15 7 -22 22 -22h40v-83h-95c-45 0 -64 19 -64 64zM84 55v346c0 15 -7 22 -22 22h-41v83h96c43 0 64 -19 64 -58v-127h100c115 0 182 -62 182 -161c0 -97 -74 -160 -182 -160h-142c-39 0 -55 16 -55 55zM181 251v-161c0 -13 6 -20 19 -20h69
c60 0 96 36 96 91c0 56 -35 90 -96 90h-88zM479 606h-73v101h73v-101zM315 606h-74v101h74v-101z" />
    <glyph glyph-name="uni0524" unicode="&#x524;" horiz-adv-x="766" 
d="M199 0h-100v620h-66v86h559c45 0 64 -19 64 -64v-556h33c47 0 63 -16 63 -63v-163h-89v118c0 15 -7 22 -21 22h-86v598c0 15 -7 22 -22 22h-335v-620z" />
    <glyph glyph-name="uni0525" unicode="&#x525;" horiz-adv-x="618" 
d="M181 0h-97v423h-57v83h433c45 0 65 -19 65 -64v-361h23c44 0 62 -19 62 -62v-139h-90v98c0 15 -7 22 -20 22h-72v401c0 15 -7 22 -22 22h-225v-423z" />
    <glyph glyph-name="uni1E9E" unicode="&#x1e9e;" horiz-adv-x="638" 
d="M133 0h-100v86h43c15 0 22 7 22 22v398c0 58 19 106 57 143c38 38 86 57 145 57h273v-67l-139 -203l-24 -33v-2l25 -1c48 -4 88 -25 119 -64c32 -38 48 -82 48 -131c0 -57 -20 -105 -61 -145s-90 -60 -148 -60h-94v86h88c33 0 61 12 82 35s32 51 32 84
c0 65 -46 117 -113 117h-88v69l113 169c17 27 33 49 40 56l5 5v2c-5 -2 -20 -3 -44 -3h-110c-61 0 -106 -48 -106 -112v-444c0 -45 -20 -64 -65 -64z" />
    <glyph glyph-name="endash" unicode="&#x2013;" horiz-adv-x="647" 
d="M587 246h-527v78h527v-78z" />
    <glyph glyph-name="emdash" unicode="&#x2014;" horiz-adv-x="847" 
d="M787 246h-727v78h727v-78z" />
    <glyph glyph-name="quoteleft" unicode="&#x2018;" horiz-adv-x="222" 
d="M140 522h-92l66 195h69z" />
    <glyph glyph-name="quoteright" unicode="&#x2019;" horiz-adv-x="217" 
d="M123 523h-70l43 195h92z" />
    <glyph glyph-name="quotesinglbase" unicode="&#x201a;" horiz-adv-x="238" 
d="M109 -90h-70l43 195h92z" />
    <glyph glyph-name="quotedblleft" unicode="&#x201c;" horiz-adv-x="360" 
d="M279 522h-92l65 195h70zM140 522h-92l66 195h69z" />
    <glyph glyph-name="quotedblright" unicode="&#x201d;" horiz-adv-x="355" 
d="M261 523h-69l43 195h91zM123 523h-70l43 195h92z" />
    <glyph glyph-name="quotedblbase" unicode="&#x201e;" horiz-adv-x="377" 
d="M247 -90h-69l43 195h91zM109 -90h-70l43 195h92z" />
    <glyph glyph-name="dagger" unicode="&#x2020;" horiz-adv-x="426" 
d="M258 -50h-93v479h-121v77h121v200h93v-200h124v-77h-124v-479z" />
    <glyph glyph-name="daggerdbl" unicode="&#x2021;" horiz-adv-x="435" 
d="M169 171h-121v78h121v180h-121v77h121v200h93v-200h124v-77h-124v-180h124v-78h-124v-221h-93v221z" />
    <glyph glyph-name="bullet" unicode="&#x2022;" horiz-adv-x="456" 
d="M337 181c-30 -30 -66 -45 -109 -45s-79 15 -110 45c-30 30 -45 67 -45 110s15 80 45 110c31 30 67 45 110 45s79 -15 109 -46c30 -30 45 -66 45 -109s-15 -79 -45 -110z" />
    <glyph glyph-name="ellipsis" unicode="&#x2026;" horiz-adv-x="736" 
d="M677 0h-99v103h99v-103zM418 0h-100v103h100v-103zM158 0h-99v103h99v-103z" />
    <glyph glyph-name="perthousand" unicode="&#x2030;" horiz-adv-x="1102" 
d="M48 570c0 41 15 75 44 104s65 44 107 44s78 -15 107 -44c30 -29 45 -63 45 -104s-15 -76 -45 -105c-29 -29 -65 -43 -107 -43s-78 14 -107 43s-44 64 -44 105zM157 0h-94l540 706h94zM273 570c0 41 -33 75 -74 75s-74 -34 -74 -75c0 -43 33 -74 74 -74s74 31 74 74z
M808 31c-29 29 -44 64 -44 105s15 75 44 104c30 29 66 44 108 44s78 -15 107 -44c30 -29 45 -63 45 -104s-15 -76 -45 -105c-29 -29 -65 -43 -107 -43s-78 14 -108 43zM410 136c0 41 15 75 44 104s65 44 107 44s78 -15 107 -44c30 -29 45 -63 45 -104s-15 -76 -45 -105
c-29 -29 -65 -43 -107 -43s-78 14 -107 43s-44 64 -44 105zM842 136c0 -43 31 -74 74 -74c64 -4 100 84 52 127c-41 48 -130 11 -126 -53zM561 62c43 0 75 33 75 74s-34 75 -75 75s-73 -34 -73 -75s32 -74 73 -74z" />
    <glyph glyph-name="guilsinglleft" unicode="&#x2039;" horiz-adv-x="348" 
d="M302 77h-97l-164 205l164 206h97l-164 -206z" />
    <glyph glyph-name="guilsinglright" unicode="&#x203a;" horiz-adv-x="348" 
d="M142 77h-97l164 205l-164 206h97l164 -206z" />
    <glyph glyph-name="fraction" unicode="&#x2044;" horiz-adv-x="150" 
d="M259 706l-286 -706h-81l287 706h80z" />
    <glyph glyph-name="Euro" unicode="&#x20ac;" 
d="M95 258h-70v63h60c-1 12 -2 23 -2 33l2 39h-60v64h71c21 77 62 140 124 188c62 49 134 73 215 73c32 0 67 -5 83 -9l12 -3l-23 -91c-23 7 -48 11 -74 11c-111 0 -199 -66 -232 -169h277l-13 -64h-278c-2 -11 -3 -24 -3 -37l3 -35h265l-13 -63h-235c15 -53 44 -96 86 -128
s91 -48 146 -48c31 0 66 6 82 10l11 4l20 -91c-33 -11 -71 -17 -114 -17c-85 0 -158 25 -219 74c-61 50 -102 115 -121 196z" />
    <glyph glyph-name="numero" unicode="&#x2116;" horiz-adv-x="1069" 
d="M141 0h-100v86h43c15 0 22 7 22 22v598h90l315 -447l58 -96h2c-4 38 -6 70 -6 96v383c0 45 20 64 65 64h100v-86h-43c-15 0 -22 -7 -22 -22v-598h-90l-315 447l-59 96h-2c5 -38 7 -70 7 -96v-383c0 -45 -20 -64 -65 -64zM746 470c0 39 14 73 41 100c28 27 62 41 102 41
s74 -14 101 -41c28 -27 42 -61 42 -100c0 -40 -14 -74 -42 -101c-27 -27 -61 -41 -101 -41s-74 14 -102 41c-27 27 -41 61 -41 101zM821 471c0 -41 29 -72 68 -72s69 31 69 72c0 39 -30 69 -69 69s-68 -30 -68 -69zM1022 197h-261v69h261v-69z" />
    <glyph glyph-name="trademark" unicode="&#x2122;" horiz-adv-x="1002" 
d="M500 266h-58v67h23c7 0 10 3 11 9l28 364h70l104 -230l14 -42h2c3 16 8 30 13 42l104 230h70l29 -364c0 -6 3 -9 10 -9h24v-67h-59c-36 0 -48 9 -49 45l-17 218l1 30h-2l-95 -212h-61l-95 212h-2l1 -30l-17 -218c-1 -36 -13 -45 -49 -45zM286 266h-76v373h-76
c-6 0 -9 -3 -9 -9v-30h-67v61c0 35 10 45 47 45h286c36 0 47 -10 47 -45v-61h-66v30c0 6 -3 9 -9 9h-77v-373z" />
    <glyph glyph-name="minus" unicode="&#x2212;" 
d="M547 246h-517v78h517v-78z" />
    <glyph glyph-name="infinity" unicode="&#x221e;" horiz-adv-x="460" 
d="M412 349c0 -50 -18 -93 -53 -129c-35 -35 -78 -53 -128 -53s-93 18 -129 53c-35 36 -53 79 -53 129s18 93 53 128c36 35 79 53 129 53s93 -18 128 -53s53 -77 53 -128z" />
    </font>
</defs>
</svg>
