<?xml version="1.0" encoding="utf-8"?><svg xmlns="http://www.w3.org/2000/svg" xmlns:xlink="http://www.w3.org/1999/xlink"><symbol viewBox="0 0 30 30" id="fb" xmlns="http://www.w3.org/2000/svg"><path d="M25.142 0H4.858A4.866 4.866 0 0 0 0 4.858v20.284A4.866 4.866 0 0 0 4.858 30h20.284A4.866 4.866 0 0 0 30 25.142V4.858A4.866 4.866 0 0 0 25.142 0zm2.617 25.142a2.615 2.615 0 0 1-2.617 2.617h-4.957l.02-9.2h3.43a.587.587 0 0 0 .595-.535l.377-3.193a.605.605 0 0 0-.595-.674h-3.827V11.48c0-1.209.337-2.042 2.082-2.042h1.606a.618.618 0 0 0 .615-.614V6.127a.618.618 0 0 0-.615-.615h-2.617c-3.212.02-5.393 1.963-5.393 5.552v3.093h-2.578a.618.618 0 0 0-.615.615l.02 3.192c0 .337.278.615.615.615h2.577l-.02 9.18H4.879a2.615 2.615 0 0 1-2.618-2.617V4.858A2.615 2.615 0 0 1 4.878 2.24h20.284a2.615 2.615 0 0 1 2.617 2.617v20.284h-.02z"/></symbol><symbol viewBox="0 0 30 30" id="inst" xmlns="http://www.w3.org/2000/svg"><path d="M21.279 30H8.72A8.715 8.715 0 0 1 0 21.279V8.72C0 3.9 3.9 0 8.721 0H21.3C26.1 0 30 3.9 30 8.721V21.3c0 4.8-3.9 8.7-8.721 8.7zM8.72 2.336A6.365 6.365 0 0 0 2.357 8.7v12.579a6.365 6.365 0 0 0 6.364 6.364H21.3a6.365 6.365 0 0 0 6.364-6.364V8.72A6.365 6.365 0 0 0 21.3 2.357H8.721v-.021zM15 23.079c-4.457 0-8.079-3.622-8.079-8.079 0-4.457 3.622-8.079 8.079-8.079 4.457 0 8.079 3.622 8.079 8.079 0 4.457-3.622 8.079-8.079 8.079zm0-13.822a5.743 5.743 0 1 0 0 11.487 5.743 5.743 0 0 0 0-11.487zm7.029-2.464c0 .643.514 1.178 1.178 1.178.664 0 1.179-.514 1.179-1.178 0-.664-.515-1.179-1.179-1.179s-1.178.536-1.178 1.179z"/></symbol><symbol viewBox="0 0 71 40" id="logo" xmlns="http://www.w3.org/2000/svg"><path d="M13.504 6.639c.67-1.462 1.594-2.756 2.768-3.967A13.924 13.924 0 0 1 19.124.501h.041V.459h.042H.294v23.382H5.41l2.097-9.227h5.074a15.831 15.831 0 0 1-.21-2.464 13.5 13.5 0 0 1 .378-3.215H7.507V6.64h5.997zM51.038.46a8.46 8.46 0 0 1 1.72 1.21c1.55 1.336 2.473 3.006 2.725 4.969h1.51v17.16l-6.962-9.102c2.684-1.336 4.278-3.758 4.278-6.722 0-.46-.042-.919-.126-1.336-.252-1.587-1.048-2.923-2.306-4.05C50.493 1.336 48.689.668 46.509.5c-.336-.042-.713-.042-1.049-.042H33.634a13.536 13.536 0 0 1 2.935 2.213c2.6 2.589 3.942 5.762 3.942 9.478s-1.3 6.89-3.942 9.52a13.106 13.106 0 0 1-2.893 2.171h7.758v-8.35h1.007l6.248 8.35H64.29V6.64h5.494L71.042.46H51.038zm-6.333 9.811h-3.27V6.514h3.27c1.342 0 2.265.71 2.265 1.878-.042 1.128-.923 1.88-2.265 1.88z"/><path d="M38.96 12.15c0-3.382-1.174-6.221-3.565-8.6C33.005 1.21 30.027 0 26.421 0c-3.607 0-6.627 1.21-9.017 3.59-2.39 2.339-3.565 5.178-3.565 8.56 0 3.34 1.175 6.222 3.565 8.602 2.39 2.38 5.41 3.59 9.017 3.59 3.606 0 6.626-1.169 8.974-3.549 2.39-2.38 3.565-5.26 3.565-8.643zm-8.807 4.05c-.965 1.044-2.223 1.587-3.732 1.587-1.51 0-2.768-.543-3.733-1.587-.964-1.085-1.468-2.421-1.468-4.05 0-1.628.504-2.964 1.468-4.008.965-1.086 2.223-1.587 3.733-1.587 1.51 0 2.767.543 3.732 1.587.965 1.044 1.468 2.38 1.468 4.008 0 1.629-.503 2.965-1.468 4.05zM3.187 30.438h6.249v-2.797H0V40h3.187v-5.094h4.697v-2.672H3.187v-1.796zm10.443-2.881L8.387 40h3.355l1.049-2.63h4.613L18.452 40h3.44l-5.2-12.443H13.63zm.21 7.307l1.3-3.298 1.3 3.298h-2.6zM29.608 32.4l-3.146-4.76h-3.187V40h3.188v-7.557l2.306 3.34h1.761l2.223-3.34V40h3.187V27.64h-3.187l-3.145 4.76zm11.952-4.76h-3.187v12.402h3.187V27.64zm5.661 0h-3.187V40h9.184v-2.797h-5.997V27.64zm10.82 4.093l-2.767-4.092h-3.65l4.782 6.89V40h3.187v-5.553l4.78-6.806H60.81l-2.768 4.092z"/></symbol><symbol viewBox="0 0 24 24" id="telegram" xmlns="http://www.w3.org/2000/svg"><path d="M12.56 17.361c-.85.85-1.75 1.65-2.6 2.5-.3.3-.65.45-1.05.45-.3 0-.45-.15-.55-.4-.65-2-1.3-4.05-1.95-6.05-.05-.2-.15-.3-.35-.35-1.55-.5-3.1-1-4.6-1.5-.25-.1-.45-.15-.7-.3-.3-.2-.35-.55-.1-.8.25-.25.55-.45.9-.55 1.9-.75 3.75-1.45 5.65-2.2l14.4-5.55c.9-.35 1.6.15 1.5 1.15-.05.65-.2 1.25-.35 1.85-1.05 4.9-2.1 9.8-3.1 14.7-.25 1.15-1.05 1.45-2 .75-1.6-1.2-3.2-2.35-4.8-3.55-.15-.05-.2-.1-.3-.15zm-3.6 1.5h.05c0-.05 0-.1.05-.15.1-1.1.2-2.2.3-3.35 0-.25.1-.4.3-.6 1.5-1.3 2.95-2.65 4.4-4 1.65-1.45 3.25-2.95 4.9-4.4.05-.05.1-.25.2-.35-.15 0-.3-.1-.45-.05-.2.05-.4.15-.55.25-3.6 2.3-7.2 4.55-10.8 6.8-.2.15-.25.25-.15.45.25.75.5 1.55.75 2.3.3 1.05.65 2.05 1 3.1z"/></symbol><symbol viewBox="0 0 24 24" id="viber" xmlns="http://www.w3.org/2000/svg"><path d="M21.348 2.34C20.73 1.793 18.243.042 12.702.017c0 0-6.538-.382-9.725 2.45C1.203 4.183.578 6.697.515 9.816c-.067 3.12-.153 8.958 5.664 10.542h.003l-.003 2.417s-.037.98.628 1.178c.803.241 1.276-.5 2.046-1.304.42-.44 1.004-1.088 1.443-1.581 3.975.324 7.035-.418 7.381-.526.804-.252 5.348-.818 6.084-6.656.763-6.018-.371-9.829-2.413-11.547zm.673 11.115c-.625 4.877-4.31 5.186-4.987 5.395-.29.09-2.975.738-6.352.522 0 0-2.517 2.94-3.302 3.706-.123.12-.268.17-.365.145-.133-.033-.17-.188-.17-.415.003-.324.022-4.015.022-4.015-.004 0-.004 0 0 0-4.917-1.322-4.63-6.296-4.574-8.9.055-2.604.561-4.736 2.06-6.17 2.696-2.362 8.248-2.01 8.248-2.01 4.69.022 6.936 1.387 7.457 1.845 1.725 1.437 2.606 4.869 1.963 9.897z"/><path d="M14.981 9.987a.307.307 0 0 1-.312-.288c-.052-1.03-.554-1.535-1.577-1.589a.31.31 0 0 1-.298-.32.312.312 0 0 1 .332-.288c1.353.068 2.104.817 2.171 2.164a.309.309 0 0 1-.297.317c-.008.004-.015.004-.019.004z"/><path d="M16.588 10.509h-.008a.307.307 0 0 1-.305-.31c.026-1.037-.282-1.876-.937-2.568-.654-.691-1.55-1.066-2.733-1.149a.309.309 0 0 1-.29-.324.31.31 0 0 1 .335-.28c1.33.09 2.39.543 3.15 1.343.758.8 1.13 1.808 1.1 2.992a.306.306 0 0 1-.312.296z"/><path d="M18.235 11.132a.307.307 0 0 1-.312-.303c-.015-1.83-.58-3.288-1.688-4.333-1.109-1.044-2.507-1.58-4.162-1.591a.308.308 0 0 1-.312-.307.31.31 0 0 1 .312-.302h.004c1.818.01 3.365.605 4.593 1.765 1.23 1.163 1.86 2.766 1.874 4.765a.3.3 0 0 1-.309.306zM13.17 13.75s.443.036.677-.248l.461-.562c.223-.281.762-.457 1.29-.173.294.162.822.475 1.15.71.35.248 1.067.828 1.067.828.342.277.42.688.19 1.12 0 .004-.004.007-.004.007a4.69 4.69 0 0 1-.963 1.15l-.008.006c-.33.267-.658.422-.978.458-.037.007-.085.01-.141.007a1.37 1.37 0 0 1-.416-.061l-.012-.015c-.494-.133-1.316-.471-2.688-1.203a15.89 15.89 0 0 1-2.258-1.444c-.33-.252-.67-.54-1.015-.871l-.033-.033-.034-.032-.033-.033-.034-.032a11.69 11.69 0 0 1-.9-.983c-.498-.605-1-1.326-1.491-2.187-.755-1.329-1.105-2.125-1.242-2.604l-.015-.01a1.159 1.159 0 0 1-.063-.404c-.004-.054 0-.1.007-.137.037-.31.197-.626.472-.947l.008-.007a4.716 4.716 0 0 1 1.186-.933c.004 0 .008-.003.008-.003.446-.224.87-.148 1.156.183.004.004.599.695.856 1.034.241.32.569.828.732 1.113.294.511.112 1.033-.178 1.25l-.58.446c-.294.23-.257.656-.257.656s.863 3.158 4.083 3.954z"/></symbol><symbol viewBox="0 0 30 30" id="vk" xmlns="http://www.w3.org/2000/svg"><path d="M19.26 30h-8.52C2.299 30 0 27.7 0 19.273v-8.526C0 2.3 2.299 0 10.74 0h8.52C27.682 0 30 2.3 30 10.747v8.526C29.98 27.7 27.682 30 19.26 30zM10.74 2.24c-7.134 0-8.481 1.349-8.481 8.487v8.526c0 7.138 1.347 8.487 8.48 8.487h8.521c7.134 0 8.481-1.349 8.481-8.487v-8.526c0-7.138-1.347-8.486-8.48-8.486H10.74z"/><path d="M23.837 10.687c.14-.436 0-.753-.614-.753h-2.02c-.516 0-.754.277-.873.575 0 0-1.03 2.498-2.477 4.124-.475.476-.693.635-.93.635-.14 0-.318-.159-.318-.595v-4.005c0-.516-.159-.754-.594-.754h-3.17c-.318 0-.516.238-.516.476 0 .496.733.615.812 1.983v2.974c0 .654-.119.773-.376.773-.694 0-2.358-2.518-3.349-5.413-.198-.575-.396-.793-.892-.793H6.46c-.595 0-.694.278-.694.575 0 .535.694 3.192 3.19 6.722 1.665 2.419 4.043 3.708 6.163 3.708 1.288 0 1.446-.298 1.446-.793V18.3c0-.595.12-.694.535-.694.298 0 .813.159 2.022 1.309 1.367 1.368 1.605 2.003 2.377 2.003h2.021c.595 0 .852-.298.714-.853-.179-.575-.832-1.388-1.704-2.38-.476-.555-1.17-1.15-1.387-1.447-.297-.396-.218-.555 0-.892-.04 0 2.437-3.49 2.694-4.66z"/></symbol><symbol viewBox="0 0 24 24" id="whatsapp" xmlns="http://www.w3.org/2000/svg"><path d="M12.217 23.351c-2.097 0-3.976-.504-5.711-1.441L0 24l2.096-6.27C1.012 16 .434 13.91.434 11.676.434 5.189 5.71 0 12.217 0 18.723 0 24 5.19 24 11.676S18.723 23.35 12.217 23.35zm0-21.477c-5.422 0-9.904 4.396-9.904 9.802 0 2.162.723 4.108 1.88 5.765l-1.23 3.676 3.832-1.225c1.59 1.009 3.47 1.657 5.422 1.657 5.494 0 9.903-4.396 9.903-9.801 0-5.406-4.41-9.874-9.903-9.874zm6 12.468c-.072-.144-.29-.216-.578-.36-.29-.144-1.735-.865-1.952-.937-.29-.072-.506-.072-.65.216-.218.289-.724.937-.94 1.153-.145.217-.362.217-.651.072-.29-.144-1.23-.432-2.313-1.441-.868-.793-1.446-1.658-1.59-1.946-.145-.288 0-.432.144-.576.144-.145.289-.36.434-.505.144-.144.216-.288.289-.504.072-.217.072-.36 0-.505-.073-.144-.651-1.586-.868-2.09-.217-.577-.506-.505-.65-.505h-.579c-.217 0-.506.072-.795.36-.29.217-1.012.938-1.012 2.307 0 1.442 1.012 2.739 1.157 2.955.144.216 2.024 3.171 4.915 4.324 2.964 1.154 2.964.793 3.47.721.506-.072 1.735-.72 1.952-1.37.29-.648.29-1.225.217-1.369z"/></symbol></svg>