<svg width="8" height="89" viewBox="0 0 8 89" version="1.1" xmlns="http://www.w3.org/2000/svg" xmlns:xlink="http://www.w3.org/1999/xlink">
<title>Vector 4</title>
<desc>Created using Figma</desc>
<g id="Canvas" transform="translate(-1482 -508)">
<g id="Vector 4">
<use xlink:href="#path0_stroke" transform="matrix(1 4.57211e-08 -4.57211e-08 1 1486 509)" fill="#87FFEC"/>
</g>
</g>
<defs>
<path id="path0_stroke" d="M 0.353553 -0.353553C 0.158291 -0.548816 -0.158291 -0.548816 -0.353553 -0.353553L -3.53553 2.82843C -3.7308 3.02369 -3.7308 3.34027 -3.53553 3.53553C -3.34027 3.7308 -3.02369 3.7308 -2.82843 3.53553L 0 0.707107L 2.82843 3.53553C 3.02369 3.7308 3.34027 3.7308 3.53553 3.53553C 3.7308 3.34027 3.7308 3.02369 3.53553 2.82843L 0.353553 -0.353553ZM -0.353553 87.3536C -0.158291 87.5488 0.158291 87.5488 0.353553 87.3536L 3.53553 84.1716C 3.7308 83.9763 3.7308 83.6597 3.53553 83.4645C 3.34027 83.2692 3.02369 83.2692 2.82843 83.4645L 0 86.2929L -2.82843 83.4645C -3.02369 83.2692 -3.34027 83.2692 -3.53553 83.4645C -3.7308 83.6597 -3.7308 83.9763 -3.53553 84.1716L -0.353553 87.3536ZM -0.5 0L -0.5 0.494318L 0.5 0.494318L 0.5 0L -0.5 0ZM -0.5 10.3807L -0.5 11.3693L 0.5 11.3693L 0.5 10.3807L -0.5 10.3807ZM -0.5 21.2557L -0.5 22.2443L 0.5 22.2443L 0.5 21.2557L -0.5 21.2557ZM -0.5 32.1307L -0.5 33.1193L 0.5 33.1193L 0.5 32.1307L -0.5 32.1307ZM -0.5 43.0057L -0.5 43.9943L 0.5 43.9943L 0.5 43.0057L -0.5 43.0057ZM -0.5 53.8807L -0.5 54.8693L 0.5 54.8693L 0.5 53.8807L -0.5 53.8807ZM -0.5 64.7557L -0.5 65.7443L 0.5 65.7443L 0.5 64.7557L -0.5 64.7557ZM -0.5 75.6307L -0.5 76.6193L 0.5 76.6193L 0.5 75.6307L -0.5 75.6307ZM -0.5 86.5057L -0.5 87L 0.5 87L 0.5 86.5057L -0.5 86.5057Z"/>
</defs>
</svg>
