<svg width="91" height="91" viewBox="0 0 91 91" version="1.1" xmlns="http://www.w3.org/2000/svg" xmlns:xlink="http://www.w3.org/1999/xlink">
<title>Group</title>
<desc>Created using Figma</desc>
<g id="Canvas" transform="translate(-1356 -2482)">
<g id="Group">
<g id="Group">
<g id="XMLID 1">
<g id="XMLID 2">
<g id="Vector">
<use xlink:href="#path0_fill" transform="translate(1423.16 2493.83)" fill="#454D54"/>
</g>
<g id="Vector">
<use xlink:href="#path1_fill" transform="translate(1419.94 2489.7)" fill="#454D54"/>
</g>
<g id="Vector">
<use xlink:href="#path2_fill" transform="translate(1419.55 2492.68)" fill="#454D54"/>
</g>
<g id="Vector">
<use xlink:href="#path3_fill" transform="translate(1419.34 2558.79)" fill="#454D54"/>
</g>
<g id="Vector">
<use xlink:href="#path4_fill" transform="matrix(0.4777 -0.8785 0.8785 0.4777 1417.4 2494.78)" fill="#454D54"/>
</g>
<g id="Vector">
<use xlink:href="#path5_fill" transform="translate(1416.12 2514.15)" fill="#454D54"/>
</g>
<g id="Vector">
<use xlink:href="#path6_fill" transform="translate(1415.43 2561.4)" fill="#454D54"/>
</g>
<g id="Vector">
<use xlink:href="#path7_fill" transform="translate(1413.89 2489.46)" fill="#454D54"/>
</g>
<g id="Vector">
<use xlink:href="#path8_fill" transform="translate(1412.84 2562.99)" fill="#454D54"/>
</g>
<g id="Vector">
<use xlink:href="#path9_fill" transform="translate(1412.42 2561.51)" fill="#454D54"/>
</g>
<g id="Vector">
<use xlink:href="#path10_fill" transform="translate(1409.08 2487.52)" fill="#454D54"/>
</g>
<g id="Vector">
<use xlink:href="#path11_fill" transform="translate(1409.11 2563.77)" fill="#454D54"/>
</g>
<g id="Vector">
<use xlink:href="#path12_fill" transform="translate(1406.05 2514.15)" fill="#454D54"/>
</g>
<g id="Vector">
<use xlink:href="#path13_fill" transform="translate(1404.39 2486.85)" fill="#454D54"/>
</g>
<g id="Vector">
<use xlink:href="#path14_fill" transform="translate(1404.88 2564.66)" fill="#454D54"/>
</g>
<g id="Vector">
<use xlink:href="#path15_fill" transform="translate(1402.47 2565.11)" fill="#454D54"/>
</g>
<g id="Vector">
<use xlink:href="#path16_fill" transform="translate(1402.41 2563.54)" fill="#454D54"/>
</g>
<g id="Vector">
<use xlink:href="#path17_fill" transform="translate(1399.74 2486.55)" fill="#454D54"/>
</g>
<g id="Vector">
<use xlink:href="#path18_fill" transform="translate(1396.68 2485.4)" fill="#454D54"/>
</g>
<g id="Vector">
<use xlink:href="#path19_fill" transform="translate(1396.89 2486.97)" fill="#454D54"/>
</g>
<g id="Vector">
<use xlink:href="#path20_fill" transform="translate(1396.03 2514.15)" fill="#454D54"/>
</g>
<g id="Vector">
<use xlink:href="#path21_fill" transform="translate(1395.43 2564.87)" fill="#454D54"/>
</g>
<g id="Vector">
<use xlink:href="#path22_fill" transform="translate(1391.98 2486)" fill="#454D54"/>
</g>
<g id="Vector">
<use xlink:href="#path23_fill" transform="translate(1388.15 2563.23)" fill="#454D54"/>
</g>
<g id="Vector">
<use xlink:href="#path24_fill" transform="translate(1385.97 2514.15)" fill="#454D54"/>
</g>
<g id="Vector">
<use xlink:href="#path25_fill" transform="translate(1385.27 2489.97)" fill="#454D54"/>
</g>
<g id="Vector">
<use xlink:href="#path26_fill" transform="translate(1383.38 2561.65)" fill="#454D54"/>
</g>
<g id="Vector">
<use xlink:href="#path27_fill" transform="translate(1379.17 2491.65)" fill="#454D54"/>
</g>
<g id="Vector">
<use xlink:href="#path28_fill" transform="translate(1378.61 2558.17)" fill="#454D54"/>
</g>
<g id="Vector">
<use xlink:href="#path29_fill" transform="translate(1369.1 2494.38)" fill="#454D54"/>
</g>
<g id="Vector">
<use xlink:href="#path30_fill" transform="translate(1375.23 2493.83)" fill="#454D54"/>
</g>
<g id="Vector">
<use xlink:href="#path31_fill" transform="translate(1356 2482)" fill="#454D54"/>
</g>
</g>
</g>
</g>
</g>
</g>
<defs>
<path id="path0_fill" d="M -1.8514e-06 4.85333L 4.12533 0L 4.67133 0.364L 0.424668 5.21733L -1.8514e-06 4.85333Z"/>
<path id="path1_fill" d="M 0.0606667 0.182C 0.121333 0.0606667 0.182001 -1.15712e-07 0.303334 -1.15712e-07C 0.424668 -1.15712e-07 0.485335 -1.15712e-07 0.546002 -1.15712e-07C 0.606669 0.0606666 0.727999 0.121333 0.727999 0.182C 0.727999 0.303333 0.728 0.364 0.667333 0.485333C 0.606667 0.606667 0.545999 0.667333 0.424666 0.667333C 0.303332 0.667333 0.242665 0.667333 0.181998 0.606667C 0.121331 0.546 9.257e-07 0.485333 9.257e-07 0.424666C 9.257e-07 0.424666 0 0.303333 0.0606667 0.182Z"/>
<path id="path2_fill" d="M 0.213697 2.24467C 0.88103 1.274 2.27637 1.94133 3.06503 2.366L 3.3077 2.002C 3.79303 1.33467 3.6717 0.970667 3.18636 0.606667C 2.7617 0.303334 2.09436 0.303334 2.09436 0.303334L 2.2157 2.31425e-07C 2.2157 2.31425e-07 2.88303 4.33922e-07 3.42903 0.364C 4.2177 0.91 4.3997 1.456 3.79303 2.30533L 2.5797 4.004C 2.27636 4.42867 2.33703 4.55 2.45837 4.61067C 2.5797 4.67133 2.7617 4.732 2.7617 4.732L 2.64036 4.97467C 2.64036 4.97467 2.2157 4.85333 2.0337 4.732C 1.79103 4.55 1.73036 4.368 1.97303 3.94333C 1.97303 3.94333 1.36637 4.30733 0.638367 3.76133C 0.0316999 3.39733 -0.21097 2.79067 0.213697 2.24467ZM 0.759698 2.548C 0.456365 2.97267 0.577699 3.33667 1.00237 3.64C 1.54837 4.004 2.15503 3.70067 2.15503 3.70067L 2.88303 2.66933C 2.09436 2.24467 1.18436 1.94133 0.759698 2.548Z"/>
<path id="path3_fill" d="M 0.546002 1.04979L 0.849335 1.35312C 0.849335 1.29245 0.909999 0.74645 1.638 0.261117C 2.30533 -0.16355 2.97267 -0.102885 3.458 0.685782L 5.096 3.17312L 4.55 3.53711L 2.97267 1.17112C 2.548 0.56445 2.12333 0.443119 1.638 0.746452C 1.03133 1.11045 1.03133 1.65645 1.03133 1.65645L 2.912 4.56845L 2.366 4.87179L 9.257e-07 1.29245L 0.546002 1.04979Z"/>
<path id="path4_fill" d="M 4.24667 0L 0 0L 0 0.606667L 4.24667 0.606667L 4.24667 0Z"/>
<path id="path5_fill" d="M 0.546 0C 0.849333 0 1.092 0.364001 1.092 0.849334C 1.092 1.33467 0.849333 1.69867 0.546 1.69867C 0.242667 1.69867 -9.257e-07 1.33467 -9.257e-07 0.849334C -9.257e-07 0.424668 0.242667 0 0.546 0Z"/>
<path id="path6_fill" d="M 0.934485 2.68263C 1.48048 3.77463 2.02648 4.1993 2.75448 3.8353C 3.48248 3.4713 3.54315 2.80397 2.99715 1.6513C 2.45115 0.559303 1.90515 0.134631 1.17715 0.498631C 0.449152 0.862631 0.388485 1.59063 0.934485 2.68263ZM 0.327818 2.98597C -0.278849 1.71197 -0.0361831 0.741298 0.99515 0.195298C 2.08715 -0.290036 2.99715 0.134631 3.60382 1.40863C 4.21049 2.68263 3.96782 3.71397 2.93649 4.1993C 1.84449 4.7453 0.934485 4.25997 0.327818 2.98597Z"/>
<path id="path7_fill" d="M 1.14159 4.24861C 0.0495871 3.82394 -0.314414 2.91394 0.292253 1.51861C 0.838253 0.183942 1.74825 -0.301391 2.90092 0.183942C 3.50758 0.426609 3.87159 0.972608 3.87159 0.972608L 3.68958 1.27594C 3.68958 1.27594 3.38625 0.790608 2.84025 0.547942C 2.05158 0.183942 1.44492 0.547942 0.959585 1.76127C 0.413585 3.03527 0.716917 3.64194 1.38425 3.88461C 2.05158 4.18794 2.53692 3.82394 2.53692 3.82394L 2.71892 4.12727C 2.71892 4.12727 2.11225 4.67327 1.14159 4.24861Z"/>
<path id="path8_fill" d="M 1.39533 4.186L -1.8514e-06 0.182002L 0.545999 0L 2.002 4.004L 1.39533 4.186Z"/>
<path id="path9_fill" d="M 0.606667 0.26963C 0.667333 0.390963 0.667333 0.45163 0.606667 0.572963C 0.546 0.63363 0.485331 0.694298 0.424665 0.754965C 0.363998 0.754965 0.242669 0.754965 0.182002 0.754965C 0.0606685 0.694298 0 0.633626 0 0.512293C 0 0.390959 0 0.330293 0 0.208959C 0.0606667 0.0876259 0.121335 0.0876333 0.182002 0.0269667C 0.242669 0.0269667 0.363998 -0.0337 0.424665 0.0269667C 0.545998 0.0876333 0.606667 0.208963 0.606667 0.26963Z"/>
<path id="path10_fill" d="M 0 4.12533L 1.092 2.31425e-07L 1.57733 0.121333L 1.57733 0.546C 1.638 0.485333 2.12334 0.182 2.912 0.364C 3.70067 0.546 4.06467 1.15267 3.822 2.002L 3.03333 4.85333L 2.42667 4.67133L 3.15466 1.94133C 3.33666 1.21333 3.094 0.849333 2.60867 0.728C 1.94134 0.546 1.51667 0.849333 1.51667 0.849333L 0.606667 4.186L 0 4.12533Z"/>
<path id="path11_fill" d="M 0.462874 4.19302L 0.584206 3.82902C 0.584206 3.82902 1.06954 4.25369 1.79754 4.07169C 2.46487 3.88969 2.64687 3.46502 2.52554 3.04035C 2.2222 1.94835 0.402205 2.97968 0.038205 1.58435C -0.143795 0.856349 0.34154 0.310349 1.13021 0.0676822C 1.73687 -0.114318 2.28287 0.128353 2.28287 0.128353L 2.28287 0.492356C 2.28287 0.492356 1.73687 0.249686 1.25154 0.431686C 0.705538 0.553019 0.462873 0.917019 0.584206 1.34169C 0.887539 2.43369 2.82887 1.40235 3.19287 2.85835C 3.37487 3.52569 3.07154 4.25368 2.04021 4.49635C 0.948207 4.73902 0.462874 4.19302 0.462874 4.19302Z"/>
<path id="path12_fill" d="M 0.546001 0C 0.849334 0 1.092 0.364001 1.092 0.849334C 1.092 1.33467 0.849334 1.69867 0.546001 1.69867C 0.242668 1.69867 8.62125e-15 1.33467 8.62125e-15 0.849334C 8.62125e-15 0.424668 0.242668 0 0.546001 0Z"/>
<path id="path13_fill" d="M 1.11058 4.37602C 0.38258 4.31535 -0.10275 3.83002 0.0185833 3.16269C 0.139917 2.01002 1.71725 1.94936 2.62725 1.94936L 2.68791 1.52469C 2.80925 0.736022 2.56658 0.432689 1.89925 0.372022C 1.35325 0.311356 0.746581 0.614689 0.746581 0.614689L 0.746581 0.250688C 0.746581 0.250688 1.35325 -0.0526446 1.95991 0.00802204C 2.86991 0.129355 3.35525 0.493356 3.17325 1.58536L 2.99125 3.64802C 2.93058 4.13336 3.05191 4.25469 3.17325 4.25469C 3.29458 4.25469 3.53725 4.19402 3.53725 4.19402L 3.53725 4.49735C 3.53725 4.49735 3.11258 4.61869 2.86992 4.55802C 2.56658 4.49735 2.44525 4.37602 2.44525 3.89069C 2.38458 3.89069 1.95991 4.43669 1.11058 4.37602ZM 0.62525 3.16269C 0.564583 3.64802 0.867916 3.95136 1.29258 4.01202C 1.95992 4.07269 2.32391 3.52669 2.32391 3.52669L 2.50592 2.31336C 1.65658 2.25269 0.685917 2.37402 0.62525 3.16269Z"/>
<path id="path14_fill" d="M 2.38288 3.18331C 2.20088 2.03065 0.259545 2.87999 0.0168783 1.42399C -0.104455 0.695985 0.441545 0.149983 1.23021 0.02865C 1.83688 -0.0926833 2.38288 0.210652 2.38288 0.210652L 2.32221 0.574646C 2.32221 0.574646 1.83688 0.271311 1.29088 0.392644C 0.744877 0.453311 0.441547 0.817313 0.502213 1.18131C 0.684214 2.33398 2.68621 1.48465 2.92888 2.94065C 2.98955 3.60799 2.62554 4.27532 1.59421 4.45732C 0.562877 4.57865 0.138214 4.03264 0.138214 4.03264L 0.320212 3.72931C 0.320212 3.72931 0.744879 4.21465 1.47288 4.15399C 2.26155 4.03265 2.44355 3.60798 2.38288 3.18331Z"/>
<path id="path15_fill" d="M 0.0606648 0.91L -9.257e-07 0L 0.363998 0L 0.667331 0L 0.849333 4.24667L 0.242667 4.30734L 0.0606648 0.91Z"/>
<path id="path16_fill" d="M 0.121331 0.667333C 0.0606648 0.606667 0 0.485337 0 0.42467C 0 0.303337 -1.85321e-06 0.24267 0.121331 0.121337C 0.181998 0.0606704 0.242666 -3.7028e-06 0.363999 -3.7028e-06C 0.485332 -3.7028e-06 0.546 0 0.606667 0.0606667C 0.667333 0.121333 0.727998 0.242667 0.727998 0.364C 0.727998 0.485333 0.727999 0.546 0.667332 0.667333C 0.606666 0.728 0.485332 0.788665 0.424665 0.788665C 0.242665 0.727998 0.181998 0.667333 0.121331 0.667333Z"/>
<path id="path17_fill" d="M 0.667331 4.42867L 0.0606648 4.42867L -9.257e-07 0.182L 0.485334 0.182L 0.546 0.546C 0.606667 0.485333 0.909999 0.0606667 1.82 0C 2.60867 0 3.094 0.424667 3.15467 1.33467L 3.21533 4.30733L 2.60867 4.30733L 2.548 1.51667C 2.548 0.788667 2.184 0.485333 1.638 0.485333C 0.970669 0.485333 0.606666 0.91 0.606666 0.91L 0.667331 4.42867Z"/>
<path id="path18_fill" d="M 0.0857938 0.121333C 0.14646 0.0606668 0.207129 -5.78563e-08 0.267796 -5.78563e-08L 0.328461 -5.78563e-08C 0.449795 -5.78563e-08 0.510462 -1.17521e-07 0.571129 0.0606666C 0.631796 0.121333 0.69246 0.242667 0.69246 0.303333C 0.69246 0.424667 0.692461 0.485333 0.631795 0.606667C 0.571128 0.667333 0.449794 0.728 0.389127 0.728C 0.32846 0.728 0.207131 0.728 0.146464 0.667333C 0.0857975 0.606667 0.025128 0.485334 0.025128 0.424667C -0.0355386 0.303333 0.0251271 0.242667 0.0857938 0.121333Z"/>
<path id="path19_fill" d="M 0.546002 4.30733L 9.257e-07 0.0606668L 0.303334 0.0606668L 0.606668 -1.15712e-07L 1.15267 4.186L 0.546002 4.30733Z"/>
<path id="path20_fill" d="M 0.553809 0C 0.857143 0 1.09981 0.364001 1.09981 0.849334C 1.09981 1.33467 0.857143 1.69867 0.553809 1.69867C 0.250476 1.69867 0.00780836 1.33467 0.00780836 0.849334C -0.0528583 0.424668 0.250476 0 0.553809 0Z"/>
<path id="path21_fill" d="M 0 4.24667L 0.363999 3.7028e-06L 0.849334 0.0606648L 0.91 0.546C 0.970667 0.485333 1.39533 0.0606685 2.184 0.121335C 2.66933 0.182002 2.912 0.303335 3.03333 0.728002C 3.15467 0.606669 3.57933 0.24267 4.30733 0.303337C 4.914 0.364004 5.21733 0.667335 5.21733 1.33467C 5.21733 1.39534 5.21733 1.51666 5.21733 1.57733L 4.97466 4.67134L 4.368 4.61066L 4.61067 1.57733C 4.67133 0.909998 4.42866 0.727998 4.06466 0.667331C 3.51866 0.606665 3.15467 0.970663 3.094 1.092C 3.094 1.21333 3.094 1.274 3.094 1.39533L 2.85133 4.48933L 2.24466 4.42866L 2.48733 1.39533C 2.548 0.727996 2.366 0.545996 1.94133 0.48533C 1.39533 0.424663 1.03133 0.788667 0.970666 0.849333L 0.727998 4.30733L 0 4.24667Z"/>
<path id="path22_fill" d="M 1.274 6.12733L -4.6285e-07 0.728L 2.912 -5.78562e-08L 3.03333 0.424667L 0.728 0.970666L 1.21333 3.15467L 3.21533 2.66933L 3.33667 3.03333L 1.33467 3.51867L 1.88067 6.006L 1.274 6.12733Z"/>
<path id="path23_fill" d="M 0 4.12533L 1.15267 -3.7028e-06L 1.638 0.121337L 1.57733 0.606663C 1.638 0.545996 2.184 0.182004 2.85133 0.42467C 3.276 0.546004 3.51867 0.788669 3.57933 1.15267C 3.70067 1.092 4.186 0.788667 4.914 0.970667C 5.58133 1.15267 5.824 1.57733 5.58133 2.42666L 4.732 5.46L 4.12533 5.278L 4.914 2.30533C 5.096 1.638 4.914 1.456 4.55 1.33467C 4.004 1.21334 3.64 1.456 3.51867 1.51666C 3.51867 1.57733 3.458 1.69866 3.458 1.82L 2.60867 4.85333L 2.002 4.67134L 2.79067 1.69866C 2.97267 1.03133 2.79067 0.849337 2.42667 0.728004C 1.88067 0.60667 1.456 0.84933 1.39533 0.909996L 0.606667 4.30733L 0 4.12533Z"/>
<path id="path24_fill" d="M 0.546 0C 0.849333 0 1.15267 0.364001 1.15267 0.849334C 1.15267 1.274 0.970667 1.57733 0.667333 1.69867C 0.606667 1.69867 0.606666 1.69867 0.546 1.69867C 0.242666 1.69867 9.257e-07 1.33467 9.257e-07 0.849334C 9.257e-07 0.424668 0.242666 0 0.546 0Z"/>
<path id="path25_fill" d="M 1.05875 0.526215C 0.452083 0.829548 0.33075 1.43622 0.755417 2.46755L 2.57542 1.55755C 2.57542 1.55755 2.51475 1.49688 2.51475 1.43621C 2.09008 0.586881 1.60475 0.283548 1.05875 0.526215ZM 0.33075 3.01355C -0.275917 1.73955 -0.0332503 0.647548 0.937416 0.162214C 1.78675 -0.262452 2.63608 0.162214 3.18208 1.25421C 3.30342 1.49688 3.30342 1.61821 3.30342 1.61821L 0.998084 2.71022C 1.54408 3.80222 2.15075 4.04488 2.87875 3.74155C 3.54608 3.43821 3.60675 2.77088 3.60675 2.77088L 3.91008 2.83155C 3.91008 2.83155 3.84942 3.68088 2.93942 4.10555C 1.90808 4.65155 0.937416 4.34822 0.33075 3.01355Z"/>
<path id="path26_fill" d="M 0.283499 1.45895C 0.890166 0.184947 1.80017 -0.300381 2.8315 0.184952C 3.9235 0.670286 4.16617 1.70161 3.5595 2.97561C 2.95283 4.24961 2.04283 4.73495 1.0115 4.24962C -0.0198338 3.76428 -0.262501 2.73295 0.283499 1.45895ZM 0.890166 1.76228C 0.404832 2.85428 0.465499 3.58228 1.1935 3.88561C 1.9215 4.24961 2.52817 3.82495 3.0135 2.67228C 3.49883 1.58028 3.43817 0.852286 2.71017 0.488286C 1.98217 0.245619 1.43617 0.609614 0.890166 1.76228Z"/>
<path id="path27_fill" d="M 1.88067 2.06267C 1.88067 2.06267 1.94133 1.456 2.60867 0.970667C 3.276 0.546 3.94333 0.606667 4.42867 1.39533L 6.06667 3.88267L 5.58133 4.24667L 4.004 1.82C 3.64 1.21333 3.15467 1.15267 2.73 1.456C 2.12333 1.82 2.12333 2.366 2.12333 2.366L 4.06467 5.278L 3.51867 5.642L 4.6285e-07 0.364L 0.485333 -2.31425e-07L 1.88067 2.06267Z"/>
<path id="path28_fill" d="M 1.11475 5.18142C -0.159251 4.33208 -0.34125 2.99742 0.568751 1.54142C 1.53942 0.0247489 2.93475 -0.399923 4.14808 0.388743C 4.87608 0.874077 5.24009 1.66275 5.24009 1.66275L 4.93675 1.96608C 4.93675 1.96608 4.57275 1.17741 3.96608 0.752747C 3.05608 0.14608 2.02475 0.510082 1.17542 1.84475C 0.326084 3.17942 0.447416 4.21075 1.41808 4.81741C 2.26742 5.36341 3.17742 4.93874 3.17742 4.93874L 3.23808 5.30275C 3.23808 5.36341 2.26742 5.90942 1.11475 5.18142Z"/>
<path id="path29_fill" d="M 43.9227 22.4467L 43.9227 23.66L 44.4687 23.66L 44.4687 24.57L 45.2573 24.57L 44.8327 43.3767C 44.8327 43.5587 45.0147 43.7407 45.2573 43.7407C 45.5 43.7407 45.7427 43.5587 45.7427 43.3767L 45.9247 24.57L 46.4707 24.57L 46.228 43.3767C 46.228 43.5587 46.41 43.7407 46.6527 43.7407C 46.8953 43.7407 47.138 43.5587 47.138 43.3767L 47.138 24.57L 47.684 24.57L 47.684 43.3767C 47.684 43.5587 47.866 43.7407 48.1693 43.7407C 48.412 43.7407 48.6547 43.5587 48.594 43.3767L 48.3513 24.57L 48.8973 24.57L 49.0793 43.3767C 49.0793 43.5587 49.322 43.7407 49.5647 43.7407C 49.8073 43.7407 50.05 43.5587 49.9893 43.3767L 49.6253 24.57L 50.414 24.57L 50.414 23.66L 50.96 23.66L 50.96 22.4467L 43.9227 22.4467ZM 50.5353 43.8013L 44.226 43.8013L 44.226 44.3473L 43.9227 44.3473L 43.9227 45.2573L 50.8993 45.2573L 50.8993 44.408L 50.5353 44.408L 50.5353 43.8013ZM 33.9127 44.3473L 33.9127 45.2573L 40.8893 45.2573L 40.8893 44.408L 40.5253 44.408L 40.5253 43.862L 34.216 43.862L 34.216 44.408L 33.9127 44.408L 33.9127 44.3473ZM 33.9127 22.4467L 33.9127 23.66L 34.4587 23.66L 34.4587 24.57L 35.2473 24.57L 34.8833 43.3767C 34.8833 43.5587 35.0653 43.7407 35.308 43.7407C 35.5507 43.7407 35.7933 43.5587 35.7933 43.3767L 35.9753 24.57L 36.5213 24.57L 36.2787 43.3767C 36.2787 43.5587 36.4607 43.7407 36.7033 43.7407C 36.946 43.7407 37.1887 43.5587 37.1887 43.3767L 37.1887 24.57L 37.7347 24.57L 37.7347 43.3767C 37.7347 43.5587 37.9167 43.7407 38.22 43.7407C 38.4627 43.7407 38.7053 43.5587 38.6447 43.3767L 38.402 24.57L 38.948 24.57L 39.13 43.3767C 39.13 43.5587 39.3727 43.7407 39.6153 43.7407C 39.858 43.7407 40.1007 43.5587 40.04 43.3767L 39.676 24.57L 40.4647 24.57L 40.4647 23.66L 41.0107 23.66L 41.0107 22.4467L 33.9127 22.4467ZM 30.576 43.8013L 24.2667 43.8013L 24.2667 44.3473L 23.9027 44.3473L 23.9027 45.2573L 30.8793 45.2573L 30.8793 44.408L 30.576 44.408L 30.576 43.8013ZM 24.5093 24.5093L 25.298 24.5093L 24.934 43.316C 24.934 43.498 25.116 43.68 25.4193 43.68C 25.662 43.68 25.9047 43.498 25.9047 43.316L 26.0867 24.5093L 26.6327 24.5093L 26.39 43.316C 26.39 43.498 26.572 43.68 26.8147 43.68C 27.0573 43.68 27.3 43.498 27.3 43.316L 27.3 24.5093L 27.846 24.5093L 27.846 43.316C 27.846 43.498 28.028 43.68 28.3313 43.68C 28.574 43.68 28.756 43.498 28.756 43.316L 28.5133 24.5093L 29.0593 24.5093L 29.2413 43.316C 29.2413 43.498 29.484 43.68 29.7267 43.68C 29.9693 43.68 30.212 43.498 30.1513 43.316L 29.7873 24.5093L 30.576 24.5093L 30.576 23.5993L 31.122 23.5993L 31.122 22.386L 23.9633 22.386L 23.9633 23.5993L 24.5093 23.5993L 24.5093 24.5093ZM 12.376 19.0493L 52.416 19.0493L 52.416 18.4427L 12.376 18.4427L 12.376 19.0493ZM 14.014 45.2573L 20.9907 45.2573L 20.9907 44.408L 20.6267 44.408L 20.6267 43.862L 14.378 43.862L 14.378 44.408L 14.014 44.408L 14.014 45.2573ZM 13.286 21.84L 17.4113 21.84L 17.5327 21.84L 27.482 21.84L 37.5527 21.84L 47.5627 21.84L 51.506 21.84L 51.506 19.4133L 47.5627 19.4133L 37.492 19.4133L 27.482 19.4133L 17.4113 19.4133L 13.286 19.4133L 13.286 21.84ZM 14.014 23.66L 14.56 23.66L 14.56 24.57L 15.3487 24.57L 14.9847 43.3767C 14.9847 43.5587 15.1667 43.7407 15.4093 43.7407C 15.652 43.7407 15.8947 43.5587 15.8947 43.3767L 16.0767 24.57L 16.6227 24.57L 16.38 43.3767C 16.38 43.5587 16.562 43.7407 16.8047 43.7407C 17.0473 43.7407 17.29 43.5587 17.29 43.3767L 17.29 24.57L 17.836 24.57L 17.836 43.3767C 17.836 43.5587 18.018 43.7407 18.3213 43.7407C 18.564 43.7407 18.8067 43.5587 18.746 43.3767L 18.5033 24.57L 19.0493 24.57L 19.2313 43.3767C 19.2313 43.5587 19.474 43.7407 19.7167 43.7407C 19.9593 43.7407 20.202 43.5587 20.1413 43.3767L 19.7773 24.57L 20.566 24.57L 20.566 23.66L 21.112 23.66L 21.112 22.4467L 14.014 22.4467L 14.014 23.66ZM 9.58533 18.0787L 55.2673 18.0787L 32.6387 7.52267L 9.58533 18.0787ZM 11.4053 46.774L 53.3867 46.774L 53.3867 45.5607L 11.4053 45.5607L 11.4053 46.774ZM 2.31425e-07 32.4567C 2.31425e-07 15.7733 12.558 2.06267 28.756 0.242666C 29.9693 0.121333 31.1827 -2.31425e-07 32.4567 -2.31425e-07C 50.3533 -2.31425e-07 64.9133 14.4993 64.9133 32.4567C 64.9133 49.9893 50.96 64.3067 33.5487 64.8527C 33.1847 64.8527 32.8207 64.8527 32.4567 64.8527C 14.4993 64.8527 2.31425e-07 50.3533 2.31425e-07 32.4567ZM 9.464 48.594L 55.3887 48.594L 55.3887 47.0167L 9.464 47.0167L 9.464 48.594Z"/>
<path id="path30_fill" d="M 4.85333 5.58133L 1.456 1.75933L 0.242666 2.79067L 4.6285e-07 2.48733L 2.85133 0L 3.094 0.303333L 1.94133 1.33467L 5.33867 5.15667L 4.85333 5.58133Z"/>
<path id="path31_fill" d="M 0.91 45.5C 0.91 67.886 17.5327 86.5107 39.0693 89.6047C 41.1927 89.908 43.316 90.09 45.5 90.09C 70.07 90.09 90.09 70.07 90.09 45.5C 90.09 20.93 70.07 0.91 45.5 0.91C 43.862 0.91 42.224 0.970667 40.6467 1.15267C 18.3213 3.57933 0.91 22.568 0.91 45.5ZM 45.5 91C 20.384 91 0 70.5553 0 45.5C 0 20.4447 20.4447 0 45.5 0C 70.616 0 91 20.4447 91 45.5C 91 70.616 70.616 91 45.5 91Z"/>
</defs>
</svg>
