<svg width="166" height="108" viewBox="0 0 166 108" version="1.1" xmlns="http://www.w3.org/2000/svg" xmlns:xlink="http://www.w3.org/1999/xlink">
<title>Group 2</title>
<desc>Created using Figma</desc>
<g id="Canvas" transform="translate(-2135 512)">
<g id="Group 2">
<g id="Group">
<g id="Vector">
<use xlink:href="#path0_fill" transform="translate(2135 -512)"/>
</g>
<g id="Group">
<g id="Vector">
<use xlink:href="#path1_fill" transform="translate(2195.87 -496.219)" fill="url(#paint1_linear)"/>
</g>
<g id="Group">
<g id="Vector">
<use xlink:href="#path2_fill" transform="translate(2150.46 -447.08)" fill="#FFFFFF"/>
</g>
<g id="Vector">
<use xlink:href="#path3_fill" transform="translate(2173.68 -446.747)" fill="#FFFFFF"/>
</g>
<g id="Vector">
<use xlink:href="#path4_fill" transform="translate(2193.81 -447.08)" fill="#FFFFFF"/>
</g>
<g id="Vector">
<use xlink:href="#path5_fill" transform="translate(2210.5 -446.747)" fill="#FFFFFF"/>
</g>
<g id="Vector">
<use xlink:href="#path6_fill" transform="translate(2227.03 -446.747)" fill="#FFFFFF"/>
</g>
<g id="Vector">
<use xlink:href="#path7_fill" transform="translate(2243.49 -446.747)" fill="#FFFFFF"/>
</g>
<g id="Vector">
<use xlink:href="#path8_fill" transform="translate(2257.82 -447.014)" fill="#FFFFFF"/>
</g>
<g id="Vector">
<use xlink:href="#path9_fill" transform="translate(2275.28 -447.014)" fill="#FFFFFF"/>
</g>
</g>
<g id="Group">
<g id="Vector">
<use xlink:href="#path10_fill" transform="translate(2181.75 -426.106)" fill="#EF7D00"/>
</g>
<g id="Vector">
<use xlink:href="#path11_fill" transform="translate(2186.58 -424.308)" fill="#EF7D00"/>
</g>
<g id="Vector">
<use xlink:href="#path12_fill" transform="translate(2191.41 -424.275)" fill="#EF7D00"/>
</g>
<g id="Vector">
<use xlink:href="#path13_fill" transform="translate(2196.31 -424.275)" fill="#EF7D00"/>
</g>
<g id="Vector">
<use xlink:href="#path14_fill" transform="translate(2201.94 -424.308)" fill="#EF7D00"/>
</g>
<g id="Vector">
<use xlink:href="#path15_fill" transform="translate(2206.8 -424.308)" fill="#EF7D00"/>
</g>
<g id="Vector">
<use xlink:href="#path16_fill" transform="translate(2211.6 -426.372)" fill="#EF7D00"/>
</g>
<g id="Vector">
<use xlink:href="#path17_fill" transform="translate(2214.07 -426.073)" fill="#EF7D00"/>
</g>
<g id="Vector">
<use xlink:href="#path18_fill" transform="translate(2216.27 -424.308)" fill="#EF7D00"/>
</g>
<g id="Vector">
<use xlink:href="#path19_fill" transform="translate(2220.9 -424.375)" fill="#EF7D00"/>
</g>
<g id="Vector">
<use xlink:href="#path20_fill" transform="translate(2227.93 -426.306)" fill="#EF7D00"/>
</g>
<g id="Vector">
<use xlink:href="#path21_fill" transform="translate(2232.73 -424.275)" fill="#EF7D00"/>
</g>
<g id="Vector">
<use xlink:href="#path22_fill" transform="translate(2235.86 -424.308)" fill="#EF7D00"/>
</g>
<g id="Vector">
<use xlink:href="#path23_fill" transform="translate(2240.72 -426.372)" fill="#EF7D00"/>
</g>
<g id="Vector">
<use xlink:href="#path24_fill" transform="translate(2245.16 -424.375)" fill="#EF7D00"/>
</g>
<g id="Vector">
<use xlink:href="#path25_fill" transform="translate(2249.99 -424.275)" fill="#EF7D00"/>
</g>
</g>
<g id="Vector">
<use xlink:href="#path26_fill" transform="translate(2168.59 -439.523)" fill="#FFFFFF"/>
</g>
</g>
</g>
</g>
</g>
<defs>
<linearGradient id="paint1_linear" x1="0" y1="0" x2="1" y2="0" gradientUnits="userSpaceOnUse" gradientTransform="matrix(0 45.4444 -45.4822 0 45.095 0.368245)">
<stop offset="0" stop-color="#F39200"/>
<stop offset="1" stop-color="#F07E00"/>
</linearGradient>
<path id="path0_fill" d="M 166 0L 0 0L 0 108L 166 108L 166 0Z"/>
<path id="path1_fill" d="M 0.034671 44.1788L 15.5951 1.49815C 15.9283 0.599261 16.7946 5.07999e-07 17.7609 5.07999e-07L 24.4249 5.07999e-07C 25.3912 5.07999e-07 26.2575 0.599261 26.5907 1.49815L 35.4538 25.8348L 38.8857 25.8348C 39.5855 25.8348 40.2185 26.2676 40.4518 26.9334L 41.8179 30.6954C 41.9512 31.0617 41.6846 31.4279 41.2848 31.4279L 37.4863 31.4279L 38.3193 33.6585L 41.7513 33.6585C 42.451 33.6585 43.0841 34.0913 43.3173 34.7571L 44.6834 38.5191C 44.8167 38.8853 44.5501 39.2515 44.1503 39.2515L 40.3518 39.2515L 42.1178 44.1122C 42.2511 44.4784 41.9845 44.8446 41.5847 44.8446L 34.6541 44.8446C 33.9544 44.8446 33.3213 44.4118 33.0881 43.746L 31.4554 39.2183L 10.4971 39.2183C 10.0973 39.2183 9.83074 38.8187 9.96402 38.4858L 11.3301 34.7238C 11.5634 34.058 12.1965 33.6252 12.8962 33.6252L 29.3895 33.6252L 28.5566 31.3946L 13.3293 31.3946C 12.9295 31.3946 12.6629 30.9951 12.7962 30.6621L 14.1623 26.9001C 14.3956 26.2343 15.0286 25.8015 15.7284 25.8015L 26.4907 25.8015L 19.9267 7.75709C 19.7601 7.25771 19.0604 7.25771 18.8604 7.75709L 5.7657 43.8126C 5.53246 44.4784 4.89938 44.9112 4.19967 44.9112L 0.567787 44.9112C 0.167948 44.9112 -0.0986088 44.5117 0.034671 44.1788Z"/>
<path id="path2_fill" d="M 9.86271 15.2478L 9.86271 15.0481C 9.89603 15.0481 9.99599 15.0481 10.1626 15.0148C 10.3292 14.9815 10.4958 14.9482 10.6624 14.8816C 10.829 14.815 10.9956 14.7152 11.1289 14.582C 11.2621 14.4488 11.3288 14.2824 11.3288 14.1159C 11.3288 13.9827 11.2955 13.783 11.2288 13.5166C 11.1622 13.2503 11.0289 12.8841 10.8956 12.4846C 10.7623 12.0851 10.5957 11.619 10.4291 11.1196C 10.2625 10.6202 10.0626 10.0875 9.86271 9.55487L 4.33159 9.55487C 4.13167 10.0875 3.93175 10.5869 3.73183 11.053C 3.53191 11.5191 3.332 12.0185 3.1654 12.4846C 2.86552 13.217 2.73224 13.7497 2.73224 14.0493C 2.73224 14.2158 2.79888 14.3822 2.89884 14.4821C 2.9988 14.6153 3.1654 14.6819 3.332 14.7817C 3.4986 14.8483 3.69851 14.9149 3.89843 14.9482C 4.09835 14.9815 4.29827 15.0148 4.46487 15.0481L 4.46487 15.2478L 5.08422e-07 15.2478L 5.08422e-07 15.0148C 0.36652 14.9815 0.666399 14.8816 0.932959 14.7152C 1.19952 14.5487 1.3328 14.4488 1.36612 14.4155C 1.46608 14.3157 1.63268 14.0826 1.8326 13.7164C 2.06584 13.3502 2.3324 12.8175 2.63228 12.1184C 2.93216 11.4525 3.23204 10.7201 3.59856 9.88779C 3.96507 9.05549 4.33159 8.18989 4.69811 7.32429C 5.06463 6.45869 5.46447 5.5598 5.83099 4.66091C 6.19751 3.76202 6.56403 2.92972 6.89723 2.164L 6.69731 1.69791C 6.93055 1.59803 7.16379 1.46486 7.36371 1.2984C 7.56363 1.13193 7.73023 0.998767 7.89683 0.832306C 8.06343 0.665845 8.16339 0.499386 8.29667 0.366217C 8.39663 0.199755 8.49659 0.0998767 8.52991 -1.89244e-14L 8.69651 -1.89244e-14C 9.12967 1.13194 9.5295 2.23058 9.92934 3.26264C 10.3292 4.2947 10.6957 5.29346 11.0289 6.22565C 11.3954 7.19112 11.7286 8.09001 12.0618 8.9889C 12.395 9.88779 12.7282 10.7534 13.0614 11.619C 13.228 12.0518 13.3613 12.418 13.4946 12.6843C 13.6279 12.984 13.7611 13.2836 13.9277 13.6498C 13.9611 13.7164 14.0277 13.8163 14.1277 13.9494C 14.2276 14.0826 14.3609 14.2158 14.5275 14.3822C 14.6941 14.5154 14.894 14.6486 15.1273 14.7817C 15.3605 14.8816 15.6271 14.9482 15.9603 14.9815L 15.9603 15.2146L 9.86271 15.2146L 9.86271 15.2478ZM 7.16379 2.69667C 7.06383 2.86313 6.96387 3.16276 6.79727 3.56227C 6.63067 3.96177 6.43075 4.42787 6.19751 4.96054C 5.96427 5.52651 5.69771 6.12577 5.43115 6.82491C 5.13127 7.52404 4.83139 8.28977 4.49819 9.08878L 9.66279 9.08878C 9.42955 8.45623 9.19631 7.85697 8.92975 7.22441C 8.69651 6.59186 8.46327 5.9926 8.23003 5.42664C 7.99679 4.86067 7.79687 4.32799 7.59695 3.8619C 7.43035 3.39581 7.29707 2.9963 7.16379 2.69667Z"/>
<path id="path3_fill" d="M 12.3284 14.9149L 12.3284 14.6819C 12.9281 14.6486 13.4279 14.5154 13.8278 14.3157C 14.2276 14.0826 14.4942 13.8496 14.6275 13.5499C 14.6941 13.3835 14.7607 13.1504 14.8274 12.8841C 14.8607 12.6178 14.894 12.3514 14.9273 12.0518C 14.9607 11.1529 14.9607 10.254 14.9607 9.45499C 14.9607 8.62269 14.9607 7.75709 14.9607 6.89149L 14.9607 0.998767C 14.4942 2.03083 14.0943 2.96301 13.6945 3.82861C 13.328 4.6942 12.9281 5.52651 12.5616 6.32552C 12.1951 7.15783 11.7953 7.99013 11.4287 8.82244C 11.0622 9.68804 10.6291 10.6202 10.1626 11.619C 10.0959 11.7522 9.99598 11.9852 9.8627 12.2848C 9.72942 12.5845 9.62947 12.8841 9.49619 13.1837C 9.36291 13.4834 9.26295 13.783 9.12967 14.0493C 9.02971 14.3157 8.96306 14.4821 8.92974 14.5487L 8.79647 14.5487C 8.36331 13.5166 7.93015 12.5179 7.46367 11.4858C 7.03051 10.4871 6.59735 9.48828 6.19751 8.5561C 5.79767 7.62392 5.39783 6.75832 5.03131 5.92602C 4.66479 5.09371 4.33159 4.39458 4.06503 3.76202C 3.76516 3.12947 3.53191 2.59679 3.33199 2.16399C 3.13207 1.7312 3.03212 1.43156 2.93216 1.29839C 2.93216 2.19728 2.93216 3.02959 2.93216 3.72873C 2.93216 4.42787 2.93216 5.127 2.89884 5.79285C 2.89884 6.49198 2.89884 7.19112 2.89884 7.95684C 2.89884 8.72256 2.89884 9.58816 2.89884 10.6202C 2.89884 11.2861 2.93216 11.8187 2.96548 12.3181C 2.9988 12.7842 3.09876 13.1837 3.26536 13.5166C 3.43196 13.8496 3.69851 14.0826 4.03171 14.2824C 4.36491 14.4821 4.83139 14.6153 5.43115 14.6819L 5.43115 14.8816L -5.08422e-07 14.8816L -5.08422e-07 14.6819C 0.499799 14.582 0.866318 14.4488 1.19952 14.2491C 1.4994 14.0493 1.73264 13.8163 1.93256 13.4834C 2.09916 13.1504 2.23244 12.7509 2.3324 12.2515C 2.43236 11.7522 2.46568 11.1529 2.46568 10.4538C 2.499 9.8545 2.499 9.15536 2.53232 8.35635C 2.53232 7.55734 2.56564 6.69174 2.56564 5.75956C 2.56564 5.36005 2.56564 5.02713 2.56564 4.7275C 2.56564 4.46116 2.56564 4.19482 2.56564 3.92848C 2.56564 3.66215 2.56564 3.39581 2.56564 3.12947C 2.56564 2.86313 2.56564 2.53021 2.53232 2.09741C 2.53232 1.6979 2.43236 1.39827 2.29908 1.16523C 2.13248 0.932182 1.96588 0.73243 1.76596 0.599261C 1.56604 0.466092 1.3328 0.366212 1.09956 0.299628C 0.866319 0.233044 0.666398 0.199753 0.499799 0.166461L 0.499799 0L 4.93135 0L 9.89603 11.2861C 10.4958 9.98767 11.0955 8.65598 11.6953 7.35758C 12.2617 6.05919 12.7949 4.89396 13.2613 3.82861C 13.7278 2.76325 14.0943 1.89766 14.3942 1.19852C 14.6941 0.499385 14.8607 0.0998767 14.894 0L 19.3256 0L 19.3256 0.199755C 18.7591 0.199755 18.326 0.332921 18.0261 0.565967C 17.7262 0.799012 17.5263 1.06535 17.4263 1.36498C 17.3264 1.59803 17.2931 1.96424 17.2597 2.46362C 17.2264 2.96301 17.2264 3.46239 17.1931 3.92848C 17.1931 4.59433 17.1598 5.22688 17.1598 5.85943C 17.1598 6.49199 17.1598 7.12454 17.1598 7.75709C 17.1598 8.48952 17.1598 9.25524 17.1598 9.98767C 17.1598 10.7201 17.1598 11.4858 17.1931 12.3181C 17.1931 12.5845 17.2264 12.8508 17.2597 13.1171C 17.2931 13.3835 17.3597 13.5832 17.4263 13.7497C 17.4263 13.783 17.493 13.8496 17.5929 13.9494C 17.6929 14.0493 17.8262 14.1492 17.9928 14.2824C 18.1594 14.4155 18.3593 14.5154 18.6259 14.582C 18.8591 14.6819 19.159 14.7152 19.4922 14.7485L 19.4922 14.9482L 12.3284 14.9482L 12.3284 14.9149Z"/>
<path id="path4_fill" d="M 9.82939 15.2478L 9.82939 15.0481C 9.86271 15.0481 9.96266 15.0481 10.1293 15.0148C 10.2959 14.9815 10.4625 14.9482 10.6291 14.8816C 10.7957 14.815 10.9623 14.7152 11.0955 14.582C 11.2288 14.4488 11.2955 14.2824 11.2955 14.1159C 11.2955 13.9827 11.2621 13.783 11.1955 13.5166C 11.1289 13.2503 10.9956 12.8841 10.8623 12.4846C 10.729 12.0851 10.5624 11.619 10.3958 11.1196C 10.2292 10.6202 10.0293 10.0875 9.82939 9.55487L 4.29827 9.55487C 4.09835 10.0875 3.89844 10.5869 3.69852 11.053C 3.4986 11.5191 3.29867 12.0185 3.13207 12.4846C 2.83219 13.217 2.69892 13.7497 2.69892 14.0493C 2.69892 14.2158 2.76556 14.3822 2.86552 14.4821C 2.96548 14.6153 3.13207 14.6819 3.29867 14.7817C 3.46527 14.8483 3.6652 14.9149 3.86512 14.9482C 4.06504 14.9815 4.26495 15.0148 4.43155 15.0481L 4.43155 15.2478L 9.4701e-15 15.2478L 9.4701e-15 15.0148C 0.366519 14.9815 0.6664 14.8816 0.93296 14.7152C 1.19952 14.5487 1.3328 14.4488 1.36612 14.4155C 1.46608 14.3157 1.63268 14.0826 1.8326 13.7164C 2.06584 13.3502 2.33239 12.8175 2.63227 12.1184C 2.93215 11.4525 3.23204 10.7201 3.59856 9.88779C 3.96508 9.05549 4.3316 8.18989 4.69811 7.32429C 5.06463 6.45869 5.46447 5.5598 5.83099 4.66091C 6.19751 3.76202 6.56403 2.92972 6.89723 2.164L 6.69731 1.69791C 6.93055 1.59803 7.16379 1.46486 7.36371 1.2984C 7.56363 1.13193 7.73023 0.998767 7.89683 0.832306C 8.06343 0.665845 8.16339 0.499386 8.29667 0.366217C 8.39663 0.199755 8.46327 0.0998767 8.52991 -1.89244e-14L 8.69651 -1.89244e-14C 9.12967 1.13194 9.52951 2.23058 9.92935 3.26264C 10.3292 4.2947 10.6957 5.29346 11.0289 6.22565C 11.3954 7.19112 11.7286 8.09001 12.0618 8.9889C 12.395 9.88779 12.7282 10.7534 13.0614 11.619C 13.228 12.0518 13.3613 12.418 13.4946 12.6843C 13.6279 12.984 13.7611 13.2836 13.9277 13.6498C 13.9611 13.7164 14.0277 13.8163 14.1277 13.9494C 14.2276 14.0826 14.3609 14.2158 14.5275 14.3822C 14.6941 14.5154 14.894 14.6486 15.1273 14.7817C 15.3605 14.8816 15.6271 14.9482 15.9603 14.9815L 15.9603 15.2146L 9.82939 15.2146L 9.82939 15.2478ZM 7.09715 2.69667C 6.99719 2.86313 6.89723 3.16276 6.73063 3.56227C 6.56403 3.96177 6.36411 4.42787 6.13087 4.96054C 5.89763 5.52651 5.63107 6.12577 5.36451 6.82491C 5.06463 7.52404 4.76475 8.28977 4.43155 9.08878L 9.59615 9.08878C 9.36291 8.45623 9.12967 7.85697 8.86311 7.22441C 8.62987 6.59186 8.39663 5.9926 8.16339 5.42664C 7.93015 4.86067 7.73023 4.32799 7.53031 3.8619C 7.36371 3.39581 7.23043 2.9963 7.09715 2.69667Z"/>
<path id="path5_fill" d="M 11.4287 14.9149C 11.2955 14.7818 11.2288 14.6819 11.1622 14.6486C 11.0955 14.582 11.0289 14.5154 10.9623 14.4155C 10.8956 14.3157 10.7957 14.2158 10.6957 14.0493C 10.5957 13.8829 10.4291 13.6498 10.1959 13.3169C 9.92935 12.9174 9.69611 12.5845 9.49619 12.2848C 9.29627 11.9852 9.09635 11.6523 8.89643 11.3527C 8.69651 11.053 8.46327 10.7534 8.23003 10.4205C 7.99679 10.1208 7.69691 9.75462 7.36371 9.38841C 7.09715 9.05549 6.79727 8.78915 6.46407 8.48952C 6.13087 8.22318 5.79767 8.05672 5.43115 7.95684C 5.16459 7.89026 4.96467 7.89026 4.83139 7.89026C 4.69811 7.89026 4.53151 7.89026 4.36491 7.85697C 4.36491 8.75586 4.36491 9.52158 4.36491 10.1874C 4.36491 10.8533 4.36491 11.4192 4.39823 11.852C 4.39823 12.2848 4.43155 12.6843 4.43155 12.984C 4.43155 13.3169 4.53152 13.5499 4.66479 13.783C 4.76475 13.9494 4.99799 14.1492 5.29787 14.349C 5.63107 14.5487 6.06423 14.6486 6.63067 14.6819L 6.63067 14.8816L 2.03369e-06 14.8816L 2.03369e-06 14.6819C 0.333202 14.6153 0.666401 14.5487 0.999601 14.4488C 1.3328 14.3489 1.56604 14.1825 1.73264 13.9494C 1.79928 13.8829 1.86592 13.7497 1.89924 13.5832C 1.93256 13.4168 1.96588 13.217 1.9992 13.0173C 2.03252 12.8175 2.03252 12.5845 2.06584 12.3514C 2.06584 12.1184 2.09915 11.8853 2.09915 11.6523C 2.09915 11.4525 2.09915 11.1862 2.09915 10.8533C 2.09915 10.5203 2.09916 10.1541 2.13248 9.75462C 2.13248 9.35512 2.13248 8.95561 2.13248 8.5561C 2.13248 8.1233 2.13248 7.7238 2.13248 7.35758L 2.13248 3.32922C 2.13248 3.09618 2.13248 2.82984 2.13248 2.5635C 2.13248 2.29716 2.09915 2.06412 2.09915 1.83107C 2.06583 1.59803 2.03252 1.39828 1.9992 1.19852C 1.96588 0.998769 1.89924 0.865596 1.79928 0.799012C 1.59936 0.565966 1.36612 0.432801 1.09956 0.366217C 0.832997 0.299632 0.533121 0.233046 0.166602 0.166461L 0.166602 0C 0.266562 0 0.566438 0 1.03292 0C 1.4994 0 2.03252 0 2.63228 0C 3.23204 0 3.83179 0 4.43155 0C 5.03131 0 5.49779 0 5.89763 0C 6.83059 0 7.66359 0.0332912 8.36331 0.0665834C 9.09634 0.133168 9.72943 0.299628 10.3292 0.63255C 10.9289 0.965473 11.4287 1.39827 11.7953 1.93095C 12.1618 2.46363 12.3617 3.16276 12.3617 3.99507C 12.3617 4.49445 12.2617 4.96054 12.0951 5.36005C 11.8952 5.75956 11.662 6.12577 11.3621 6.4254C 11.0622 6.72503 10.6957 6.99137 10.2625 7.22441C 9.8627 7.45746 9.39623 7.62392 8.96307 7.79038L 8.96307 7.85697C 9.19631 7.99014 9.42955 8.1566 9.66279 8.38964C 9.89603 8.62269 10.0959 8.88903 10.2959 9.18866C 10.6624 9.72133 11.0622 10.2873 11.4621 10.8866C 11.8952 11.4858 12.2617 12.0518 12.5949 12.5179C 13.0947 13.2503 13.5945 13.7497 14.0943 14.0826C 14.5941 14.4155 15.1606 14.6153 15.7937 14.7152L 15.7937 14.9149L 11.4287 14.9149ZM 9.3629 1.99753C 9.02971 1.46486 8.49659 1.03206 7.86351 0.699139C 7.53031 0.532678 7.19711 0.432801 6.83059 0.366217C 6.46407 0.299632 6.06423 0.266339 5.66439 0.266339C 5.36451 0.266339 5.13127 0.266336 4.96467 0.299628C 4.79807 0.299628 4.63147 0.332922 4.56483 0.332922C 4.56483 0.399507 4.53151 0.499382 4.53151 0.565967C 4.53151 0.632551 4.4982 0.699135 4.4982 0.799012C 4.4982 0.898888 4.49819 1.03206 4.46487 1.19852C 4.46487 1.36498 4.43155 1.63132 4.43155 1.93095C 4.43155 2.43033 4.39823 2.96301 4.39823 3.56227C 4.39823 4.16153 4.39823 4.76079 4.39823 5.32676C 4.39823 5.89272 4.39823 6.39211 4.39823 6.82491C 4.39823 7.22441 4.39823 7.49075 4.39823 7.62392C 4.96467 7.62392 5.49779 7.59063 5.99759 7.55734C 6.49739 7.52404 6.96387 7.42417 7.43035 7.25771C 7.86351 7.12454 8.26335 6.92479 8.56323 6.69174C 8.89643 6.45869 9.12967 6.19235 9.32959 5.89272C 9.52951 5.59309 9.66278 5.26017 9.76274 4.92725C 9.8627 4.59433 9.89602 4.22812 9.89602 3.8619C 9.89602 3.16276 9.72942 2.53021 9.3629 1.99753Z"/>
<path id="path6_fill" d="M 11.0955 14.9149C 11.0289 14.8816 10.9623 14.8483 10.8956 14.815C 10.829 14.7818 10.7623 14.6819 10.6624 14.582C 9.76275 13.5499 8.92975 12.5845 8.13007 11.6523C 7.33039 10.7201 6.49739 9.78792 5.6644 8.85574C 5.29788 8.45623 5.06463 8.18989 4.93135 8.1233C 4.79807 8.02343 4.69811 7.99014 4.59815 7.99014C 4.49819 7.99014 4.39823 8.02343 4.36491 8.05672C 4.33159 8.09001 4.29827 8.18989 4.26495 8.28976C 4.26495 9.02219 4.26495 9.68804 4.26495 10.3539C 4.26495 10.9864 4.26496 11.5524 4.29828 11.9852C 4.29828 12.3847 4.33159 12.7509 4.39823 13.1171C 4.43155 13.4501 4.53152 13.7164 4.6648 13.9162C 4.76476 14.0493 4.89803 14.1825 5.06463 14.2824C 5.23123 14.3822 5.39783 14.4488 5.59775 14.5154C 5.79767 14.582 5.99759 14.6153 6.16419 14.6486C 6.36411 14.6819 6.49739 14.7152 6.66399 14.7152L 6.66399 14.9149L 4.06738e-06 14.9149L 4.06738e-06 14.7152C 0.333204 14.6486 0.666403 14.582 0.999603 14.4821C 1.3328 14.3822 1.56604 14.2158 1.73264 14.016C 1.79928 13.9162 1.86592 13.8163 1.89924 13.6498C 1.93256 13.4834 1.96588 13.2836 1.9992 13.0838C 2.03252 12.8841 2.03251 12.651 2.03251 12.3847C 2.03251 12.1517 2.03251 11.9186 2.03251 11.6856C 2.03251 11.4858 2.03251 11.2195 2.03251 10.8866C 2.03251 10.5536 2.03251 10.1874 2.03251 9.82121C 2.03251 9.4217 2.03251 9.0222 2.03251 8.5894C 2.03251 8.1566 2.03251 7.75709 2.03251 7.39087L 2.03251 3.36252C 2.03251 2.82984 1.9992 2.36375 1.96588 1.89766C 1.93256 1.46486 1.83259 1.13194 1.69931 0.932184C 1.49939 0.699138 1.26616 0.532675 0.999603 0.399506C 0.733043 0.299629 0.399835 0.199753 0.0333159 0.166461L 0.0333159 0L 6.46407 0L 6.46407 0.199755C 6.19751 0.233048 5.93095 0.266336 5.69771 0.299628C 5.46447 0.33292 5.23123 0.466092 5.03131 0.599261C 4.83139 0.765722 4.66479 0.998767 4.53151 1.33169C 4.39823 1.66461 4.3316 2.09741 4.29828 2.66338C 4.29828 2.9963 4.26495 3.29593 4.26495 3.56227C 4.26495 3.82861 4.26495 4.16153 4.26495 4.52775C 4.26495 4.89396 4.26495 5.32676 4.26495 5.82614C 4.26495 6.32552 4.26495 6.95808 4.26495 7.7238C 4.49819 7.55734 4.86471 7.32429 5.26455 6.95807C 5.69771 6.59186 6.13087 6.19235 6.59735 5.72626C 7.06383 5.26017 7.53031 4.79408 7.96347 4.32799C 8.42995 3.82861 8.82979 3.4291 9.16299 3.06288C 9.39623 2.79655 9.59615 2.49692 9.79607 2.19729C 9.99599 1.89766 10.0626 1.63132 10.0626 1.39827C 10.0626 0.998766 9.92935 0.699139 9.66279 0.532678C 9.39623 0.366217 9.06302 0.233046 8.6965 0.166461L 8.6965 0L 14.2609 0L 14.2609 0.199755C 13.5612 0.26634 12.8282 0.565969 12.1285 1.09864C 11.3954 1.63132 10.6624 2.23058 9.92935 2.92972C 9.62947 3.19606 9.32958 3.46239 9.0297 3.79531C 8.72982 4.09494 8.42995 4.39458 8.13007 4.69421C 7.83019 4.99384 7.53031 5.29346 7.26375 5.5598C 6.99719 5.85943 6.73063 6.12577 6.49739 6.35882C 6.59735 6.49199 6.86391 6.79162 7.26375 7.25771C 7.66359 7.7238 8.13006 8.25647 8.6965 8.88902C 9.26294 9.52158 9.82939 10.1874 10.4625 10.8866C 11.0955 11.5857 11.6953 12.2848 12.2951 12.9174C 12.4283 13.0838 12.5949 13.2503 12.7615 13.4168C 12.9281 13.5832 13.1281 13.7164 13.2947 13.8496C 13.4613 13.9827 13.5945 14.0826 13.7278 14.1825C 13.8611 14.2824 13.9277 14.349 13.9611 14.349C 14.1277 14.4155 14.3942 14.4821 14.6941 14.5487C 14.994 14.6153 15.3605 14.6819 15.727 14.6819L 15.727 14.8816L 11.0955 14.8816L 11.0955 14.9149Z"/>
<path id="path7_fill" d="M 12.6949 14.9149L 2.03369e-06 14.9149L 2.03369e-06 14.7152C 0.333201 14.6486 0.666399 14.582 0.966278 14.4488C 1.26616 14.3157 1.4994 14.1492 1.69932 13.9162C 1.76596 13.8496 1.8326 13.7164 1.86592 13.5499C 1.89924 13.3835 1.93256 13.217 1.96588 12.984C 1.9992 12.7842 2.03252 12.5512 2.03252 12.3181C 2.03252 12.0851 2.06583 11.852 2.06583 11.6523C 2.06583 11.4525 2.06583 11.1862 2.06583 10.8533C 2.06583 10.5203 2.06583 10.1541 2.09915 9.75462C 2.09915 9.35512 2.09915 8.95561 2.09915 8.5561C 2.09915 8.1233 2.09915 7.7238 2.09915 7.35758L 2.09915 3.32922C 2.09915 3.09618 2.09915 2.82984 2.09915 2.5635C 2.09915 2.29716 2.06583 2.06412 2.06583 1.83107C 2.03251 1.59803 1.9992 1.39828 1.96588 1.19852C 1.93256 0.998769 1.86592 0.865596 1.76596 0.799012C 1.56604 0.565966 1.3328 0.432801 1.09956 0.366217C 0.866317 0.299632 0.566443 0.233048 0.199924 0.199755L 0.199924 0L 11.662 0L 13.0614 3.4291L 12.8615 3.52898C 11.7286 2.1307 10.6957 1.19852 9.69611 0.699139C 9.46287 0.599262 9.0297 0.499382 8.39662 0.399506C 7.76354 0.332921 6.99718 0.266339 6.06423 0.266339C 5.76435 0.266339 5.46447 0.266336 5.16459 0.299628C 4.86471 0.33292 4.63147 0.332924 4.49819 0.366217C 4.46487 0.599262 4.43155 1.03206 4.43155 1.73119C 4.39823 2.43033 4.39823 3.22934 4.39823 4.12823C 4.39823 4.66091 4.39823 5.09371 4.39823 5.45992C 4.39823 5.82614 4.39823 6.12577 4.39823 6.32552C 4.39823 6.55857 4.39823 6.72503 4.39823 6.8582C 4.39823 6.95808 4.39823 7.05795 4.39823 7.09125C 4.46487 7.09125 4.59815 7.09125 4.79807 7.09125C 4.99799 7.09125 5.23124 7.09124 5.53112 7.05795C 5.79767 7.05795 6.06423 7.02466 6.33079 6.99137C 6.59735 6.95808 6.83059 6.92478 6.99719 6.89149C 7.39703 6.79161 7.76355 6.65845 8.03011 6.49198C 8.29667 6.32552 8.52991 6.12577 8.69651 5.89272C 8.86311 5.65968 8.99638 5.39334 9.09634 5.06042C 9.1963 4.76079 9.29627 4.39458 9.36291 4.02836L 9.59614 4.02836L 9.59614 10.5536L 9.36291 10.5536C 9.26295 10.1208 9.09635 9.65475 8.86311 9.18866C 8.62987 8.72257 8.39663 8.35635 8.16339 8.1233C 7.93015 7.92355 7.66359 7.75709 7.36371 7.65721C 7.06383 7.52404 6.69731 7.45746 6.26415 7.42417C 6.06423 7.42417 5.89763 7.39087 5.73103 7.39087C 5.59775 7.39087 5.46447 7.39087 5.33119 7.39087C 5.19791 7.39087 5.06463 7.39087 4.93135 7.39087C 4.79807 7.39087 4.59815 7.39087 4.39823 7.39087C 4.36491 7.59063 4.36492 7.85697 4.36492 8.25647C 4.36492 8.62269 4.36492 9.0222 4.36492 9.4217C 4.36492 9.58816 4.36492 9.82121 4.36492 10.0543C 4.36492 10.2873 4.36492 10.5203 4.36492 10.7534C 4.36492 10.9864 4.36492 11.1862 4.36492 11.3859C 4.36492 11.5857 4.36492 11.7522 4.36492 11.8853C 4.36492 12.3181 4.39823 12.7509 4.43155 13.1504C 4.46487 13.5499 4.53151 13.8496 4.66479 14.016C 4.79807 14.2158 5.09795 14.349 5.56443 14.4155C 6.03091 14.5154 6.53071 14.5487 7.09715 14.5487C 7.33039 14.5487 7.63027 14.5487 7.99679 14.5154C 8.36331 14.5154 8.76315 14.4821 9.16299 14.4155C 9.59615 14.349 10.0293 14.2491 10.3958 14.0826C 10.7623 13.9162 11.1289 13.6831 11.4621 13.4168C 11.7953 13.1171 12.1285 12.7842 12.4617 12.3514C 12.7949 11.9186 13.1281 11.4192 13.4613 10.82L 13.6945 10.8866L 12.6949 14.9149Z"/>
<path id="path8_fill" d="M 15.5937 4.16153C 15.4938 3.92848 15.3605 3.66214 15.1939 3.39581C 15.0273 3.12947 14.894 2.86313 14.7274 2.63009C 14.5608 2.39704 14.4275 2.164 14.2609 1.96424C 14.0943 1.76449 13.9611 1.63132 13.8611 1.53144C 13.5612 1.26511 13.2613 1.06535 12.9281 0.965477C 12.5949 0.8656 12.1618 0.832308 11.6287 0.799016C 11.3621 0.799016 11.1289 0.799016 10.9289 0.799016C 10.729 0.799016 10.5291 0.799016 10.3625 0.799016C 10.1959 0.799016 9.99598 0.799016 9.76274 0.799016C 9.56282 0.799016 9.29627 0.799016 8.99639 0.799016C 8.99639 1.13194 8.99639 1.63132 8.99639 2.19729C 8.99639 2.79655 8.99639 3.4291 8.99639 4.06165C 8.99639 4.7275 8.99639 5.36005 8.99639 5.9926C 8.99639 6.62515 8.99639 7.12454 8.99639 7.55733L 8.99639 12.1517C 8.99639 12.5512 8.99639 12.9507 9.02971 13.3169C 9.06303 13.6831 9.12966 13.9494 9.22962 14.0826C 9.42954 14.3822 9.72942 14.582 10.0959 14.7152C 10.4625 14.815 10.829 14.9149 11.1289 14.9482L 11.1289 15.148L 4.39823 15.148L 4.39823 14.9482C 4.76475 14.9149 5.09795 14.8483 5.43115 14.7485C 5.76435 14.6486 6.09755 14.4155 6.39743 14.0493C 6.46407 13.9827 6.53071 13.8496 6.56403 13.7164C 6.59735 13.5499 6.63067 13.3835 6.66399 13.1837C 6.69731 12.984 6.69731 12.7509 6.69731 12.5179C 6.69731 12.2848 6.69731 12.0518 6.69731 11.8187C 6.69731 11.619 6.69731 11.3859 6.69731 11.053C 6.69731 10.7201 6.69731 10.3872 6.73063 9.98767C 6.73063 9.58816 6.73063 9.18866 6.73063 8.78915C 6.73063 8.38964 6.73063 7.99014 6.73063 7.59063L 6.73063 0.732427C 6.43075 0.732427 6.19751 0.732427 5.96427 0.732427C 5.76435 0.732427 5.56444 0.732427 5.36452 0.732427C 5.19792 0.732427 4.99799 0.732427 4.79807 0.732427C 4.59815 0.732427 4.36491 0.732427 4.09835 0.732427C 3.56523 0.732427 3.13208 0.799014 2.79888 0.932183C 2.46568 1.03206 2.13248 1.23181 1.86592 1.49815C 1.76596 1.59803 1.63268 1.7312 1.46608 1.93095C 1.3328 2.1307 1.1662 2.33045 0.999601 2.5635C 0.833001 2.79655 0.699723 3.0296 0.533123 3.29593C 0.399843 3.56227 0.266564 3.8286 0.199924 4.06165L 2.03369e-06 3.99507L 0.633079 0.0665824C 0.966279 0.133167 1.23284 0.199751 1.4994 0.233044C 1.76596 0.266336 2.1658 0.299629 2.6656 0.332921C 3.19872 0.332921 3.66519 0.366216 4.06503 0.366216C 4.46487 0.366216 4.86471 0.366216 5.26455 0.366216C 5.66439 0.366216 6.03091 0.366216 6.43075 0.366216C 6.83059 0.366216 7.29707 0.366216 7.83019 0.366216C 8.32999 0.366216 8.79647 0.366216 9.19631 0.366216C 9.59615 0.366216 10.0293 0.366216 10.3958 0.366216C 10.7957 0.366216 11.1955 0.366214 11.5953 0.332921C 11.9952 0.332921 12.495 0.332921 12.9948 0.332921C 13.4613 0.332921 13.8278 0.266336 14.1277 0.233044C 14.4275 0.166459 14.7274 0.0998757 15.0606 -1.016e-06L 15.727 4.02836L 15.5937 4.16153Z"/>
<path id="path9_fill" d="M 9.86271 12.8841C 9.59615 13.4168 9.22963 13.8496 8.72983 14.2158C 8.26335 14.582 7.69691 14.8816 7.03051 15.0481C 6.36411 15.2145 5.63107 15.3144 4.86472 15.3144C 4.19832 15.3144 3.59855 15.2811 3.13207 15.1813C 2.63227 15.1147 2.23243 15.0148 1.93255 14.8816C 1.59935 14.7485 1.36612 14.6486 1.19952 14.5487C 1.03292 14.4488 0.932963 14.4155 0.899643 14.4155C 0.866323 14.4155 0.766357 14.4821 0.633077 14.6486C 0.499797 14.815 0.366515 14.9815 0.266556 15.1147L 0.066644 15.1147L 0 10.9864L 0.199922 10.9864C 0.333202 11.3527 0.499799 11.7189 0.666399 12.0851C 0.866319 12.4513 1.06624 12.7842 1.29948 13.0838C 1.53272 13.3835 1.76596 13.6831 2.03252 13.9162C 2.29908 14.1492 2.53231 14.3157 2.76555 14.4488C 2.99879 14.582 3.29868 14.6819 3.69852 14.815C 4.09836 14.9482 4.46487 15.0148 4.83139 15.0148C 5.86431 15.0148 6.69731 14.7485 7.33039 14.1825C 7.96347 13.6165 8.29667 12.8508 8.29667 11.9186C 8.29667 11.5191 8.23002 11.1862 8.09674 10.8866C 7.96346 10.5869 7.79686 10.3539 7.59695 10.1208C 7.39703 9.92109 7.13047 9.72133 6.83059 9.55487C 6.53071 9.38841 6.23084 9.25524 5.89764 9.15536C 5.56444 9.02219 5.26455 8.92232 5.03131 8.85573C 4.79808 8.75586 4.56483 8.68927 4.33159 8.62269C 4.13167 8.55611 3.89843 8.45623 3.66519 8.38964C 3.43196 8.32306 3.1654 8.22318 2.8322 8.09001C 2.46568 7.95684 2.13247 7.75709 1.79928 7.52405C 1.46608 7.291 1.16619 6.99137 0.932955 6.65845C 0.699715 6.32552 0.466479 5.95931 0.3332 5.59309C 0.1666 5.19359 0.0999558 4.79408 0.0999558 4.32799C 0.0999558 3.59556 0.23324 2.92971 0.499799 2.39704C 0.766359 1.86436 1.13287 1.39827 1.59935 1.06535C 2.06583 0.699135 2.59896 0.432799 3.19872 0.266338C 3.79848 0.0998767 4.43155 -1.016e-06 5.09795 -1.016e-06C 5.73103 -1.016e-06 6.26415 0.0665835 6.69731 0.16646C 7.13047 0.266337 7.49699 0.399506 7.79687 0.499382C 8.06343 0.632551 8.29666 0.732428 8.42994 0.832305C 8.56322 0.932182 8.66319 0.998766 8.66319 0.998766C 8.69651 0.998766 8.79646 0.89889 8.92974 0.765721C 9.06302 0.59926 9.19631 0.432799 9.29626 0.266338L 9.52951 0.266338L 9.52951 4.09494L 9.29626 4.09494C 9.12967 3.62885 8.92975 3.19605 8.66319 2.72996C 8.39663 2.26387 8.09674 1.86437 7.76355 1.53144C 7.43035 1.16523 7.03051 0.898889 6.56403 0.665844C 6.13088 0.432798 5.63107 0.332921 5.09795 0.332921C 4.66479 0.332921 4.26496 0.399508 3.89844 0.532677C 3.53192 0.665846 3.19872 0.832306 2.89884 1.09864C 2.63228 1.33169 2.39904 1.66461 2.23244 2.03083C 2.06584 2.39704 1.9992 2.82984 1.9992 3.29593C 1.9992 4.02836 2.23244 4.62762 2.6656 5.06042C 3.09876 5.49322 3.6652 5.85944 4.39824 6.12577C 4.6648 6.22565 4.93135 6.32552 5.16459 6.4254C 5.39783 6.52528 5.63107 6.59186 5.86431 6.65845C 6.09755 6.72503 6.3308 6.82491 6.56403 6.89149C 6.79727 6.95807 7.06383 7.05795 7.33039 7.15783C 8.26335 7.49075 8.99639 7.99013 9.52951 8.65598C 10.0626 9.32182 10.2959 10.1208 10.2959 11.1196C 10.2625 11.7855 10.1293 12.3514 9.86271 12.8841Z"/>
<path id="path10_fill" d="M 3.93176 1.86437C 3.59856 2.46363 3.26535 3.09618 2.96547 3.69544L 2.96547 6.25894L 1.93256 6.25894L 1.93256 3.69544C 1.59936 3.06289 1.26616 2.46363 0.966278 1.86437C 0.633078 1.26511 0.333201 0.632554 1.01684e-06 0.0332943L 1.1662 0.0332943L 1.93256 1.56474C 2.03252 1.76449 2.13247 1.96424 2.19911 2.164C 2.29907 2.36375 2.36572 2.5635 2.46568 2.76325L 2.499 2.76325L 3.06544 1.53144L 3.79847 -1.89244e-14L 4.96467 -1.89244e-14C 4.59815 0.665845 4.26496 1.26511 3.93176 1.86437Z"/>
<path id="path11_fill" d="M 1.9992 -2.032e-06C 2.3324 -2.032e-06 2.63228 0.0665845 2.89884 0.199753C 3.1654 0.332922 3.36531 0.499387 3.53191 0.765725C 3.63187 0.932186 3.73183 1.16523 3.79847 1.39828C 3.86511 1.63132 3.86511 1.93095 3.86511 2.23058C 3.86511 2.5635 3.83179 2.86314 3.79847 3.09618C 3.73183 3.32923 3.66519 3.56227 3.56523 3.72873C 3.39863 3.99507 3.16539 4.22811 2.86551 4.36128C 2.56563 4.49445 2.23244 4.56104 1.89924 4.56104C 1.56604 4.56104 1.26616 4.49445 0.999599 4.39458C 0.73304 4.2947 0.533117 4.09494 0.366517 3.8619C 0.133278 3.49568 1.01684e-06 2.96301 1.01684e-06 2.26388C 1.01684e-06 2.03083 -2.03319e-06 1.79778 0.0333179 1.56474C 0.0666379 1.36498 0.133278 1.16523 0.199918 0.998765C 0.366517 0.665842 0.599759 0.432801 0.899639 0.233048C 1.23284 0.0665865 1.59936 -2.032e-06 1.9992 -2.032e-06ZM 1.96588 0.898892C 1.79928 0.898892 1.63268 0.932182 1.4994 1.03206C 1.36612 1.13194 1.26616 1.23181 1.19952 1.39828C 1.13288 1.53144 1.09956 1.66461 1.09956 1.79778C 1.06624 1.93095 1.06624 2.09741 1.06624 2.26388C 1.06624 2.43034 1.06624 2.5968 1.09956 2.72996C 1.13288 2.86313 1.1662 2.9963 1.19952 3.09618C 1.26616 3.26264 1.36612 3.36251 1.4994 3.46239C 1.63268 3.56226 1.79928 3.59556 1.96588 3.59556C 2.1658 3.59556 2.3324 3.52898 2.46568 3.4291C 2.63227 3.32923 2.73223 3.16276 2.79887 2.963C 2.83219 2.86313 2.86551 2.76325 2.86551 2.66338C 2.86551 2.53021 2.89884 2.36375 2.89884 2.19729C 2.89884 1.86436 2.86552 1.59803 2.76556 1.43157C 2.69892 1.26511 2.59895 1.13194 2.46568 1.03206C 2.26576 0.965475 2.13248 0.898892 1.96588 0.898892Z"/>
<path id="path12_fill" d="M 1.03292 1.89244e-14L 1.03292 2.63008C 1.03292 2.92971 1.09956 3.16276 1.23284 3.29593C 1.36612 3.4291 1.56604 3.52898 1.86592 3.52898C 2.09915 3.52898 2.29908 3.46239 2.46568 3.29593C 2.63227 3.12947 2.69891 2.92971 2.69891 2.63008L 2.69891 1.89244e-14L 3.69851 1.89244e-14L 3.69851 4.46116L 2.69891 4.46116L 2.69891 4.02836L 2.6656 4.02836C 2.53232 4.19482 2.36572 4.32799 2.13248 4.39458C 1.93256 4.46116 1.73264 4.52775 1.53272 4.52775C 1.06624 4.52775 0.699721 4.39457 0.433161 4.12823C 0.166602 3.8619 1.01684e-06 3.46239 1.01684e-06 2.92971L 1.01684e-06 1.89244e-14L 1.03292 1.89244e-14Z"/>
<path id="path13_fill" d="M 1.8326 0.932178C 1.59936 0.932178 1.39944 0.998767 1.23284 1.16523C 1.06624 1.33169 0.999599 1.53144 0.999599 1.83107L 0.999599 4.49445L 0 4.49445L 0 0.0332943L 0.999599 0.0332943L 0.999599 0.565972L 1.03292 0.565972C 1.29948 0.166465 1.666 -1.89244e-14 2.09916 -1.89244e-14C 2.26576 -1.89244e-14 2.43236 0.0332963 2.56564 0.0665885C 2.69892 0.0998808 2.83219 0.166465 2.96547 0.23305L 2.59896 1.16523C 2.46568 1.09864 2.36572 1.03206 2.23244 0.998767C 2.06584 0.932183 1.96588 0.932178 1.8326 0.932178Z"/>
<path id="path14_fill" d="M 1.99919 -2.032e-06C 2.33239 -2.032e-06 2.63228 0.0665845 2.89884 0.199753C 3.1654 0.332922 3.36531 0.499387 3.53191 0.765725C 3.63187 0.932186 3.73184 1.16523 3.79848 1.39828C 3.86511 1.63132 3.86511 1.93095 3.86511 2.23058C 3.86511 2.5635 3.83179 2.86314 3.79848 3.09618C 3.73184 3.32923 3.6652 3.56227 3.56524 3.72873C 3.39864 3.99507 3.1654 4.22811 2.86552 4.36128C 2.56564 4.49445 2.23244 4.56104 1.89924 4.56104C 1.56604 4.56104 1.26616 4.49445 0.999596 4.39458C 0.733037 4.2947 0.533119 4.09494 0.366519 3.8619C 0.13328 3.49568 -2.03369e-06 2.96301 -2.03369e-06 2.26388C -2.03369e-06 2.03083 0 1.79778 0.0333199 1.56474C 0.0666399 1.36498 0.13328 1.16523 0.19992 0.998765C 0.366519 0.665842 0.599761 0.432801 0.899641 0.233048C 1.23284 0.0665865 1.59936 -2.032e-06 1.99919 -2.032e-06ZM 1.96588 0.898892C 1.79928 0.898892 1.63268 0.932182 1.4994 1.03206C 1.36612 1.13194 1.26616 1.23181 1.19952 1.39828C 1.13288 1.53144 1.09956 1.66461 1.09956 1.79778C 1.06624 1.93095 1.06624 2.09741 1.06624 2.26388C 1.06624 2.43034 1.06624 2.5968 1.09956 2.72996C 1.13288 2.86313 1.1662 2.9963 1.19952 3.09618C 1.26616 3.26264 1.36612 3.36251 1.4994 3.46239C 1.63268 3.56226 1.79928 3.59556 1.96588 3.59556C 2.1658 3.59556 2.3324 3.52898 2.46568 3.4291C 2.63228 3.32923 2.73224 3.16276 2.79888 2.963C 2.8322 2.86313 2.86552 2.76325 2.86552 2.66338C 2.86552 2.53021 2.89884 2.36375 2.89884 2.19729C 2.89884 1.86436 2.86551 1.59803 2.76555 1.43157C 2.69891 1.26511 2.59896 1.13194 2.46568 1.03206C 2.29908 0.965475 2.13248 0.898892 1.96588 0.898892Z"/>
<path id="path15_fill" d="M 2.6656 4.49445L 2.6656 1.86437C 2.6656 1.56473 2.59895 1.36498 2.46567 1.19852C 2.33239 1.03206 2.13248 0.965471 1.8326 0.965471C 1.59936 0.965471 1.36612 1.03206 1.23284 1.19852C 1.06624 1.36498 0.999599 1.56473 0.999599 1.86437L 0.999599 4.49445L 0 4.49445L 0 0.0332922L 0.999599 0.0332922L 0.999599 0.499381L 1.03292 0.499381C 1.1662 0.33292 1.36612 0.199749 1.56604 0.133165C 1.76596 0.0332882 1.9992 -2.032e-06 2.19912 -2.032e-06C 2.6656 -2.032e-06 3.03211 0.133171 3.29867 0.399509C 3.56523 0.665847 3.69852 1.06535 3.69852 1.56474L 3.69852 4.49445L 2.6656 4.49445Z"/>
<path id="path16_fill" d="M 1.26616 6.55857C 1.09956 6.55857 0.932958 6.52528 0.766358 6.49199C 0.633078 6.4587 0.499799 6.39211 0.366519 6.29223C 0.26656 6.19236 0.166599 6.09248 0.0999588 5.92602C 0.0333189 5.75956 -2.03369e-06 5.59309 -2.03369e-06 5.36005L -2.03369e-06 4.06399e-06L 1.03292 4.06399e-06L 1.03292 5.19358C 1.03292 5.36005 1.06624 5.45992 1.13288 5.52651C 1.19952 5.59309 1.29948 5.62639 1.46608 5.62639L 1.63268 5.62639L 1.63268 6.52527L 1.26616 6.52527L 1.26616 6.55857Z"/>
<path id="path17_fill" d="M 1.01684e-06 0.93218L 1.01684e-06 2.032e-06L 0.9996 2.032e-06L 0.9996 0.93218L 1.01684e-06 0.93218ZM 1.01684e-06 6.25894L 1.01684e-06 1.79778L 0.9996 1.79778L 0.9996 6.25894L 1.01684e-06 6.25894Z"/>
<path id="path18_fill" d="M 2.69892 4.49445L 2.69892 1.86437C 2.69892 1.56473 2.63227 1.36498 2.49899 1.19852C 2.36571 1.03206 2.1658 0.965471 1.86592 0.965471C 1.63268 0.965471 1.43276 1.03206 1.26616 1.19852C 1.09956 1.36498 1.03292 1.56473 1.03292 1.86437L 1.03292 4.49445L -2.03369e-06 4.49445L -2.03369e-06 0.0332922L 1.03292 0.0332922L 1.03292 0.499381L 1.06624 0.499381C 1.19952 0.33292 1.39944 0.199749 1.59936 0.133165C 1.79928 0.0332882 2.03252 -2.032e-06 2.23244 -2.032e-06C 2.69892 -2.032e-06 3.06543 0.133171 3.33199 0.399509C 3.59855 0.665847 3.73184 1.06535 3.73184 1.56474L 3.73184 4.49445L 2.69892 4.49445Z"/>
<path id="path19_fill" d="M 1.03292 2.63009C 1.03292 2.76326 1.06624 2.89642 1.09956 3.02959C 1.13288 3.16276 1.19952 3.26264 1.26616 3.36251C 1.3328 3.46239 1.43276 3.52898 1.56604 3.59556C 1.69932 3.66215 1.83259 3.69543 1.99919 3.69543C 2.13247 3.69543 2.29907 3.66215 2.49899 3.59556C 2.69891 3.52898 2.89884 3.4291 3.06544 3.26264C 3.1654 3.39581 3.26535 3.49569 3.36531 3.62886C 3.46527 3.76202 3.56523 3.8619 3.66519 3.99507C 3.39863 4.22812 3.13207 4.39458 2.83219 4.49446C 2.53231 4.59433 2.26576 4.62762 1.96588 4.62762C 1.73264 4.62762 1.4994 4.59432 1.26616 4.52774C 1.03292 4.46116 0.833003 4.32799 0.633083 4.16153C 0.433163 3.99507 0.299875 3.76202 0.166596 3.46239C 0.0333159 3.16276 -4.06738e-06 2.79655 -4.06738e-06 2.33046C -4.06738e-06 1.89766 0.0666358 1.53144 0.166596 1.23181C 0.299875 0.932181 0.433163 0.699133 0.633083 0.532672C 0.833003 0.366211 1.03292 0.233048 1.26616 0.133171C 1.4994 0.0665865 1.73264 4.06399e-06 1.96588 4.06399e-06C 2.26576 4.06399e-06 2.53232 0.0665885 2.76556 0.166465C 2.9988 0.266342 3.19871 0.399507 3.36531 0.59926C 3.53191 0.799014 3.66519 0.998767 3.73183 1.26511C 3.83179 1.53144 3.86511 1.83108 3.86511 2.13071L 3.86511 2.5635L 1.03292 2.5635L 1.03292 2.63009ZM 1.89924 0.998771C 1.666 0.998771 1.46608 1.06535 1.29948 1.23181C 1.13288 1.39827 1.06624 1.63132 1.03292 1.93095L 2.73224 1.93095C 2.69892 1.63132 2.63228 1.39827 2.46568 1.23181C 2.3324 1.06535 2.13248 0.998771 1.89924 0.998771Z"/>
<path id="path20_fill" d="M 3.79847 4.19482C 3.79847 4.46116 3.76516 4.7275 3.73184 4.99383C 3.69852 5.26017 3.63187 5.52652 3.49859 5.75956C 3.39863 5.99261 3.23203 6.15906 2.99879 6.32552C 2.79887 6.45869 2.49899 6.55857 2.16579 6.55857C 1.96588 6.55857 1.76596 6.52527 1.56604 6.45869C 1.36612 6.39211 1.19952 6.25894 1.06624 6.09248L 1.03292 6.09248L 1.03292 6.52528L -2.03369e-06 6.52528L -2.03369e-06 -2.032e-06L 1.03292 -2.032e-06L 1.03292 2.49692L 1.06624 2.49692C 1.23284 2.33045 1.39944 2.23058 1.59936 2.1307C 1.79928 2.06411 1.99919 2.03083 2.16579 2.03083C 2.49899 2.03083 2.76555 2.09741 2.96547 2.23058C 3.16539 2.36375 3.33199 2.53021 3.46527 2.76326C 3.56523 2.96301 3.66519 3.19605 3.69851 3.46239C 3.76515 3.66214 3.79847 3.92848 3.79847 4.19482ZM 2.73224 4.26141C 2.73224 4.09495 2.73224 3.96177 2.69892 3.79531C 2.69892 3.62885 2.63228 3.49568 2.59896 3.36252C 2.53232 3.22935 2.46567 3.12947 2.33239 3.06289C 2.23243 2.9963 2.06584 2.92972 1.86592 2.92972C 1.666 2.92972 1.53272 2.96301 1.43276 3.06289C 1.3328 3.16276 1.23284 3.26264 1.1662 3.39581C 1.09956 3.52898 1.06624 3.66214 1.06624 3.8286C 1.03292 3.99507 1.03292 4.12824 1.03292 4.26141C 1.03292 4.39458 1.03292 4.56104 1.06624 4.69421C 1.06624 4.86067 1.13288 4.99383 1.1662 5.127C 1.23284 5.26017 1.29948 5.36005 1.43276 5.45992C 1.53272 5.5598 1.69932 5.5931 1.89924 5.5931C 2.09916 5.5931 2.23244 5.5598 2.36572 5.45992C 2.46568 5.36005 2.56563 5.26017 2.63227 5.127C 2.69891 4.99383 2.73224 4.86067 2.73224 4.69421C 2.73224 4.56104 2.73224 4.39458 2.73224 4.26141Z"/>
<path id="path21_fill" d="M 1.83259 0.932178C 1.59935 0.932178 1.39944 0.998767 1.23284 1.16523C 1.06624 1.33169 0.999594 1.53144 0.999594 1.83107L 0.999594 4.49445L -4.06738e-06 4.49445L -4.06738e-06 0.0332943L 0.999594 0.0332943L 0.999594 0.565972L 1.03292 0.565972C 1.29948 0.166465 1.666 -1.89244e-14 2.09916 -1.89244e-14C 2.26576 -1.89244e-14 2.43236 0.0332963 2.56564 0.0665885C 2.69892 0.0998808 2.8322 0.166465 2.96548 0.23305L 2.59896 1.16523C 2.46568 1.09864 2.36572 1.03206 2.23244 0.998767C 2.06584 0.932183 1.96587 0.932178 1.83259 0.932178Z"/>
<path id="path22_fill" d="M 1.9992 -2.032e-06C 2.3324 -2.032e-06 2.63227 0.0665845 2.89883 0.199753C 3.16539 0.332922 3.36531 0.499387 3.53191 0.765725C 3.63187 0.932186 3.73184 1.16523 3.79848 1.39828C 3.86512 1.63132 3.86511 1.93095 3.86511 2.23058C 3.86511 2.5635 3.8318 2.86314 3.79848 3.09618C 3.73184 3.32923 3.66519 3.56227 3.56523 3.72873C 3.39863 3.99507 3.16539 4.22811 2.86551 4.36128C 2.56563 4.49445 2.23243 4.56104 1.89924 4.56104C 1.56604 4.56104 1.26616 4.49445 0.999602 4.39458C 0.733043 4.2947 0.533115 4.09494 0.366515 3.8619C 0.133276 3.49568 4.06738e-06 2.96301 4.06738e-06 2.26388C 4.06738e-06 2.03083 -4.06887e-06 1.79778 0.0333159 1.56474C 0.0666358 1.36498 0.133276 1.16523 0.199916 0.998765C 0.366515 0.665842 0.599757 0.432801 0.899637 0.233048C 1.23284 0.0665865 1.59936 -2.032e-06 1.9992 -2.032e-06ZM 1.96588 0.898892C 1.79928 0.898892 1.63268 0.932182 1.4994 1.03206C 1.36612 1.13194 1.26616 1.23181 1.1662 1.39828C 1.09956 1.53144 1.06624 1.66461 1.06624 1.79778C 1.03292 1.93095 1.03291 2.09741 1.03291 2.26388C 1.03291 2.43034 1.03292 2.5968 1.06624 2.72996C 1.09956 2.86313 1.13288 2.9963 1.1662 3.09618C 1.23284 3.26264 1.3328 3.36251 1.46608 3.46239C 1.59936 3.56226 1.76596 3.59556 1.93256 3.59556C 2.13248 3.59556 2.29908 3.52898 2.43236 3.4291C 2.59896 3.32923 2.69892 3.16276 2.76556 2.963C 2.79888 2.86313 2.8322 2.76325 2.8322 2.66338C 2.8322 2.53021 2.86551 2.36375 2.86551 2.19729C 2.86551 1.86436 2.83219 1.59803 2.73223 1.43157C 2.66559 1.26511 2.56564 1.13194 2.43236 1.03206C 2.29908 0.965475 2.13248 0.898892 1.96588 0.898892Z"/>
<path id="path23_fill" d="M 2.96548 6.55857C 2.73224 6.22565 2.53232 5.89272 2.29908 5.5598C 2.09916 5.22688 1.86592 4.89396 1.63268 4.56103C 1.53272 4.66091 1.43275 4.79408 1.33279 4.89396C 1.23283 4.99383 1.13288 5.127 1.03292 5.22688L 1.03292 6.52527L -4.06738e-06 6.52527L -4.06738e-06 4.06399e-06L 1.03292 4.06399e-06L 1.03292 3.92848L 1.06624 3.92848L 1.93256 2.92972L 2.69891 2.09741L 3.93176 2.09741L 2.33239 3.82861C 2.63227 4.2947 2.93216 4.72749 3.23204 5.19358C 3.53191 5.65968 3.8318 6.09248 4.13168 6.55857L 2.96548 6.55857Z"/>
<path id="path24_fill" d="M 1.03292 2.63009C 1.03292 2.76326 1.06624 2.89642 1.09956 3.02959C 1.13288 3.16276 1.19952 3.26264 1.26616 3.36251C 1.3328 3.46239 1.43275 3.52898 1.56603 3.59556C 1.69931 3.66215 1.8326 3.69543 1.9992 3.69543C 2.13248 3.69543 2.29908 3.66215 2.499 3.59556C 2.69892 3.52898 2.89883 3.4291 3.06543 3.26264C 3.16539 3.39581 3.26536 3.49569 3.36532 3.62886C 3.46528 3.76202 3.56524 3.8619 3.6652 3.99507C 3.39864 4.22812 3.13208 4.39458 2.8322 4.49446C 2.53232 4.59433 2.26576 4.62762 1.96588 4.62762C 1.73264 4.62762 1.4994 4.59432 1.26616 4.52774C 1.03292 4.46116 0.832999 4.32799 0.633079 4.16153C 0.433159 3.99507 0.299882 3.76202 0.166602 3.46239C 0.0666419 3.16276 2.03369e-06 2.79655 2.03369e-06 2.33046C 2.03369e-06 1.89766 0.0666419 1.53144 0.166602 1.23181C 0.299882 0.932181 0.433159 0.699133 0.633079 0.532672C 0.832999 0.366211 1.03292 0.233048 1.26616 0.133171C 1.4994 0.0665865 1.73264 4.06399e-06 1.96588 4.06399e-06C 2.26576 4.06399e-06 2.53231 0.0665885 2.76555 0.166465C 2.99879 0.266342 3.19872 0.399507 3.36532 0.59926C 3.53192 0.799014 3.66519 0.998767 3.73183 1.26511C 3.83179 1.53144 3.86512 1.83108 3.86512 2.13071L 3.86512 2.5635L 1.03292 2.5635L 1.03292 2.63009ZM 1.89923 0.998771C 1.66599 0.998771 1.46608 1.06535 1.29948 1.23181C 1.13288 1.39827 1.06624 1.63132 1.03292 1.93095L 2.73223 1.93095C 2.69891 1.63132 2.63228 1.39827 2.46568 1.23181C 2.3324 1.06535 2.13247 0.998771 1.89923 0.998771Z"/>
<path id="path25_fill" d="M 1.86592 0.932178C 1.63268 0.932178 1.43276 0.998767 1.26616 1.16523C 1.09956 1.33169 1.03292 1.53144 1.03292 1.83107L 1.03292 4.49445L 2.03369e-06 4.49445L 2.03369e-06 0.0332943L 0.999601 0.0332943L 0.999601 0.565972L 1.03292 0.565972C 1.29948 0.166465 1.666 -1.89244e-14 2.09915 -1.89244e-14C 2.26575 -1.89244e-14 2.43235 0.0332963 2.56563 0.0665885C 2.69891 0.0998808 2.8322 0.166465 2.96548 0.23305L 2.59895 1.16523C 2.46567 1.09864 2.36571 1.03206 2.23243 0.998767C 2.09915 0.932183 1.96588 0.932178 1.86592 0.932178Z"/>
<path id="path26_fill" d="M 3.39863 1.69791C 3.39863 2.63009 2.63228 3.39581 1.69932 3.39581C 0.766359 3.39581 1.01684e-06 2.63009 1.01684e-06 1.69791C 1.01684e-06 0.765722 0.766359 -1.016e-06 1.69932 -1.016e-06C 2.63228 0.0332912 3.39863 0.765722 3.39863 1.69791Z"/>
</defs>
</svg>
