<svg xmlns="http://www.w3.org/2000/svg" viewBox="0 0 509.2 354.23"><title>Векторный смарт-объект1</title><path d="M385,556.59C382.57,536,374,517.86,360.3,504.27c-22.77-22.53-51-25.07-62.1-25.11h-.29c-11,.27-39,3.27-61.91,25a91.1,91.1,0,0,0-23.7,38l-1,3.14,19.58,10.74,4.85-2.11a3.25,3.25,0,0,1-1.74-3.46,3,3,0,0,1-2.1.76,3,3,0,0,1-2.91-2,11.87,11.87,0,0,1-7.46-4,3.58,3.58,0,0,1-.17-4.7A82.7,82.7,0,0,1,241.5,510c20.86-19.84,46.46-22.6,56.56-22.86h.12c10.1,0,35.83,2.35,56.51,22.81,23,22.78,23.81,52.92,22.64,67.15l-70-74.42L255.57,553l-1.68-1a3.58,3.58,0,0,1-3.63-.72c-1.72-1.51-5.91-1.51-8.06-2.15a17.07,17.07,0,0,1-4.88-2.23,4.08,4.08,0,0,1-.43.83h.19c3.06,0,3.88,3.46,2.47,5.33l17.29,9.79L307.07,514l75.45,80.2,1.56-7.5A100,100,0,0,0,385,556.59Z" transform="translate(-31.65 -479.16)" style="fill:#fff"/><path d="M184.4,541.53a24.47,24.47,0,0,0,4.07,5.14A23.82,23.82,0,0,0,192.9,550a81.86,81.86,0,0,0,7.79-6.37,83,83,0,0,0,9.91-11,93.27,93.27,0,0,0,20.15,17.1l7.29-7.36a72.53,72.53,0,0,0,6,4.43,70.53,70.53,0,0,0,11.51,6.1c13-13.89,22.82-24.34,29.92-31.77,3.58-3.76,11.14-11.7,21-22.76l.07-.08,99.18,110-38.81-22.73c-5.62-2.62-11.48-5.56-17.52-8.86q-7-3.81-13.23-7.65-3.92-14.5-7.84-29-6.56,5-13.46,10.09-8.14,6-16.11,11.51,4.83-6.51,9.92-13.1,6.74-8.75,13.43-17l-14-15.95-36.83,32.75,6.91.18-21.78,19.47h25.67q-17,6.72-34.34,13.81Q235.27,587,223,592.18q13.89-16.29,27.79-32.59l-14-6.73-7.61,6.91,9.38,2-31.69,27.61q5.94-8.4,11.86-16.81l-8.14.17,16.52-18.63q-5.9-3-12.09-6.51-3.39-1.93-6.55-3.89l-3.72,4.6,4.42,2-53.77,53.24q16.91-23.4,33.8-46.79l-24.28,15.68,4.6,2.48-33.82,24.07L153.77,581c-9.07,6.62-18.75,13.32-29,20-12.36,8-24.38,15.26-35.94,21.77Z" transform="translate(-31.65 -479.16)" style="fill:#fff"/><path d="M34.75,780c66.05-3.23,135-5.1,206.67-5.2,79.16-.11,155.08,2,227.46,5.63A1847.78,1847.78,0,0,0,34.75,780Z" transform="translate(-31.65 -479.16)" style="fill:#fff"/><path d="M33.45,704.61H467.6v-3.25H33.45Z" transform="translate(-31.65 -479.16)" style="fill:#fff"/><text transform="translate(0 272.27)" style="font-size:40.94281005859375px;fill:#fff;font-family:TwCenMT-CondensedBold, TwCenMT CondensedBold;font-weight:700;letter-spacing:0.19999791296155228em">SWIMMING <tspan x="275.99" y="0" style="letter-spacing:0.1849950880059391em">A</tspan><tspan x="308.62" y="0" style="letter-spacing:0.20400502678117552em">C</tspan><tspan x="340.72" y="0" style="letter-spacing:0.19998598702756534em">ADEMY</tspan></text><text transform="matrix(0.72, 0.69, -0.69, 0.72, 102.59, 299.04)" style="font-size:25.96501922607422px;fill:#123a49;font-family:Roboto-Black, Roboto"> </text><text transform="matrix(0.78, 0.62, -0.62, 0.78, 111.95, 307.57)" style="font-size:25.96501922607422px;fill:#123a49;font-family:Roboto-Black, Roboto"> </text><text transform="translate(122.03 315.22) rotate(33.35)" style="font-size:25.96501922607422px;fill:#123a49;font-family:Roboto-Black, Roboto"> </text><text transform="matrix(0.89, 0.45, -0.45, 0.89, 132.95, 322.23)" style="font-size:25.96501922607422px;fill:#fff;font-family:TwCenMT-CondensedBold, TwCenMT CondensedBold;font-weight:700">C</text><text transform="translate(154.01 332.13) rotate(17.83)" style="font-size:25.96501922607422px;fill:#fff;font-family:TwCenMT-CondensedBold, TwCenMT CondensedBold;font-weight:700">H</text><text transform="translate(177.68 338.97) rotate(11.56)" style="font-size:25.96501922607422px;fill:#fff;font-family:TwCenMT-CondensedBold, TwCenMT CondensedBold;font-weight:700">I</text><text transform="translate(191.07 341.5) rotate(6.69)" style="font-size:25.96501922607422px;fill:#fff;font-family:TwCenMT-CondensedBold, TwCenMT CondensedBold;font-weight:700">L</text><text transform="translate(210.86 343.54) rotate(0.91)" style="font-size:25.96501922607422px;fill:#fff;font-family:TwCenMT-CondensedBold, TwCenMT CondensedBold;font-weight:700">D</text><text transform="translate(235.89 343.51) rotate(-5.75)" style="font-size:25.96501922607422px;fill:#fff;font-family:TwCenMT-CondensedBold, TwCenMT CondensedBold;font-weight:700">R</text><text transform="matrix(0.97, -0.22, 0.22, 0.97, 257.58, 340.79)" style="font-size:25.96501922607422px;fill:#fff;font-family:TwCenMT-CondensedBold, TwCenMT CondensedBold;font-weight:700">E</text><text transform="matrix(0.94, -0.35, 0.35, 0.94, 277.74, 335.77)" style="font-size:25.96501922607422px;fill:#fff;font-family:TwCenMT-CondensedBold, TwCenMT CondensedBold;font-weight:700">N</text><text transform="translate(300.65 326.31) rotate(-26.99)" style="font-size:25.96501922607422px;fill:#fff;font-family:TwCenMT-CondensedBold, TwCenMT CondensedBold;font-weight:700">&apos;</text><text transform="matrix(0.84, -0.54, 0.54, 0.84, 311.68, 320.5)" style="font-size:25.96501922607422px;fill:#fff;font-family:TwCenMT-CondensedBold, TwCenMT CondensedBold;font-weight:700">S</text><text transform="matrix(0.79, -0.62, 0.62, 0.79, 328.56, 309.08)" style="font-size:25.96501922607422px;fill:#40588d;font-family:TwCenMT-CondensedBold, TwCenMT CondensedBold;font-weight:700"> </text><text transform="matrix(0.74, -0.67, 0.67, 0.74, 338.47, 300.95)" style="font-size:25.96501922607422px;fill:#40588d;font-family:TwCenMT-CondensedBold, TwCenMT CondensedBold;font-weight:700"> </text><text transform="matrix(0.69, -0.73, 0.73, 0.69, 347.76, 292.09)" style="font-size:25.96501922607422px;fill:#40588d;font-family:TwCenMT-CondensedBold, TwCenMT CondensedBold;font-weight:700"> </text><text transform="translate(356.33 282.57) rotate(-51.01)" style="font-size:25.96501922607422px;fill:#40588d;font-family:TwCenMT-CondensedBold, TwCenMT CondensedBold;font-weight:700"> </text><circle cx="330.97" cy="630.44" r="27.03" transform="translate(-409.79 215.8) rotate(-67.5)" style="fill:#fff"/><path d="M189.56,636.57c33.91-5.44,56.11.69,70.39,7.7,11,5.39,18.37,11.85,36.54,17.69,9.17,2.95,22.78,7.18,40.22,5.71,10.11-.85,18.1-3.33,27.45-6.24a193.82,193.82,0,0,0,25.59-10,141,141,0,0,1-116.39,60.22c-54.47-.51-72.48-34.07-140.41-43.37a233.24,233.24,0,0,0-42.74-1.88c23.81-13.76,43.63-15.88,54.39-16.06,18.69-.33,32.73,2.77,47,6.7,39.34,10.82,47.28,24.62,78.9,30.84a138.07,138.07,0,0,0,48.1.68c-23.71,2.52-39.51-2.43-49.61-7.49-13.21-6.62-18-14.08-41.88-28a180.19,180.19,0,0,0-25-12.16C197,639,192.64,637.52,189.56,636.57Z" transform="translate(-31.65 -479.16)" style="fill:#fff"/></svg>