<svg width="109" height="109" viewBox="0 0 109 109" version="1.1" xmlns="http://www.w3.org/2000/svg" xmlns:xlink="http://www.w3.org/1999/xlink">
<title>Group</title>
<desc>Created using Figma</desc>
<g id="Canvas" transform="translate(-1780 -2425)">
<g id="Group">
<g id="Vector">
<use xlink:href="#path0_fill" transform="translate(1780 2425)" fill="#5F1D0B"/>
</g>
<g id="Vector">
<use xlink:href="#path1_fill" transform="translate(1784.57 2429.62)" fill="#FD8330"/>
</g>
<g id="Vector">
<use xlink:href="#path2_fill" transform="translate(1853.3 2449.25)" fill="#BF4D00"/>
</g>
<g id="Vector">
<use xlink:href="#path3_fill" transform="translate(1858.08 2453.95)" fill="#FFDF40"/>
</g>
<g id="Vector">
<use xlink:href="#path4_fill" transform="translate(1789.63 2435.85)" fill="#FFF6E6"/>
</g>
<g id="Vector">
<use xlink:href="#path5_fill" transform="translate(1834.12 2493.31)" fill="#C95100"/>
</g>
</g>
</g>
<defs>
<path id="path0_fill" d="M 109 54.5C 109 84.0593 84.6084 109 54.5 109C 24.3916 109 5.81541e-06 84.9831 5.81541e-06 54.5C 5.81541e-06 24.9407 24.3916 -7.04749e-06 54.5 -7.04749e-06C 84.6084 -7.04749e-06 109 24.9407 109 54.5Z"/>
<path id="path1_fill" d="M 99.8532 49.8814C 99.8532 77.5932 77.3671 99.7627 49.9266 99.7627C 22.486 99.7627 -5.81541e-06 77.5932 -5.81541e-06 49.8814C -5.81541e-06 22.1695 22.486 -7.04749e-06 49.9266 -7.04749e-06C 77.3671 -7.04749e-06 99.8532 22.1695 99.8532 49.8814Z"/>
<path id="path2_fill" d="M 12.0743 13.6198C 9.02534 16.3909 4.45189 15.4672 1.78406 11.7723C -0.883773 8.0774 -0.502636 3.45875 2.54632 1.61129C 5.59527 -1.15989 10.1687 -0.236174 12.8365 3.45874C 15.5043 7.15366 15.1232 11.7723 12.0743 13.6198Z"/>
<path id="path3_fill" d="M 5.38844 6.14913C 3.86396 7.07286 1.95835 7.07286 0.814994 5.2254C -0.328363 3.37794 -0.328369 1.53048 1.19611 0.606755C 2.72058 -0.316974 4.62619 -0.31697 5.76955 1.53049C 6.91291 2.45422 6.91291 5.2254 5.38844 6.14913Z"/>
<path id="path4_fill" d="M 2.56245 49.192C -1.62986 51.9631 -2.77322 25.175 15.9016 10.3954C 33.052 -3.46058 53.2513 -0.689403 53.6324 3.00551C 54.0135 6.70043 37.6254 1.15807 20.8562 15.014C 3.70582 29.7937 7.89811 46.4208 2.56245 49.192Z"/>
<path id="path5_fill" d="M 41.1608 0.0438878C 45.7343 -0.879841 40.3986 12.9761 27.4406 23.1371C 14.8636 33.2981 -5.81541e-06 32.3744 -5.81541e-06 28.6795C -5.81541e-06 24.9846 11.8147 26.832 23.2482 18.5185C 37.7308 7.43372 36.5874 0.967617 41.1608 0.0438878Z"/>
</defs>
</svg>
