<svg width="60" height="67" viewBox="0 0 60 67" version="1.1" xmlns="http://www.w3.org/2000/svg" xmlns:xlink="http://www.w3.org/1999/xlink">
<title>Group</title>
<desc>Created using Figma</desc>
<g id="Canvas" transform="translate(-1603 -4527)">
<g id="Group">
<g id="Vector">
<use xlink:href="#path0_stroke" transform="translate(1604 4529)" fill="#EB5757"/>
</g>
<g id="Vector">
<use xlink:href="#path1_stroke" transform="translate(1632.51 4581.56)" fill="#EB5757"/>
</g>
<g id="Group">
<g id="Vector">
<use xlink:href="#path2_stroke" transform="translate(1617.29 4543.96)" fill="#EB5757"/>
</g>
<g id="Group">
<g id="Vector">
<use xlink:href="#path3_stroke" transform="translate(1620.3 4550.67)" fill="#EB5757"/>
</g>
<g id="Vector">
<use xlink:href="#path4_stroke" transform="translate(1623.47 4553.35)" fill="#EB5757"/>
</g>
</g>
<g id="Group">
<g id="Vector">
<use xlink:href="#path5_stroke" transform="translate(1634.13 4553.35)" fill="#EB5757"/>
</g>
</g>
<g id="Vector">
<use xlink:href="#path6_stroke" transform="translate(1617.29 4570.3)" fill="#EB5757"/>
</g>
</g>
</g>
</g>
<defs>
<path id="path0_stroke" d="M 56.7015 7.93784L 57.6946 7.82031L 57.5772 6.82827L 56.585 6.94465L 56.7015 7.93784ZM 28.5129 -6.54713e-06L 29.191 -0.734982L 28.5129 -1.36059L 27.8348 -0.734986L 28.5129 -6.54713e-06ZM 0.324105 7.93784L 0.440601 6.94465L -0.551563 6.82827L -0.668965 7.82031L 0.324105 7.93784ZM 28.5129 63.7173L 28.2312 64.6768L 28.5129 64.7595L 28.7945 64.6768L 28.5129 63.7173ZM 56.585 6.94465C 48.1167 7.93793 41.2547 6.00441 36.5086 3.82447C 34.1347 2.73408 32.2926 1.58301 31.0489 0.708784C 30.4273 0.271852 29.9561 -0.0953275 29.6434 -0.350296C 29.4871 -0.477758 29.3706 -0.577103 29.2948 -0.643012C 29.2569 -0.675963 29.2292 -0.700548 29.2119 -0.716101C 29.2032 -0.723877 29.1971 -0.729394 29.1936 -0.732569C 29.1919 -0.734157 29.1908 -0.735158 29.1903 -0.735564C 29.1901 -0.735767 29.19 -0.735821 29.1902 -0.735724C 29.1902 -0.735676 29.1904 -0.73549 29.1904 -0.735466C 29.1907 -0.735243 29.191 -0.734982 28.5129 -6.54713e-06C 27.8348 0.734969 27.8351 0.735306 27.8355 0.735681C 27.8357 0.735857 27.8362 0.736271 27.8366 0.736622C 27.8373 0.737325 27.8383 0.738179 27.8394 0.739183C 27.8415 0.741192 27.8444 0.743802 27.8479 0.747002C 27.855 0.753401 27.8646 0.762162 27.877 0.773199C 27.9016 0.795272 27.9367 0.826456 27.9823 0.866072C 28.0734 0.945301 28.2061 1.05829 28.3794 1.19963C 28.726 1.48226 29.2352 1.87853 29.8988 2.34499C 31.2255 3.27756 33.1726 4.4931 35.6738 5.64193C 40.6781 7.94043 47.9104 9.97584 56.818 8.93103L 56.585 6.94465ZM 28.5129 -6.54713e-06C 27.8348 -0.734986 27.8351 -0.735248 27.8353 -0.735471C 27.8353 -0.735495 27.8355 -0.73568 27.8356 -0.735728C 27.8357 -0.735825 27.8356 -0.735771 27.8354 -0.735568C 27.835 -0.735163 27.8339 -0.734161 27.8321 -0.732573C 27.8286 -0.729398 27.8225 -0.723881 27.8139 -0.716105C 27.7965 -0.700552 27.7688 -0.675967 27.7309 -0.643015C 27.6552 -0.577107 27.5386 -0.477761 27.3823 -0.350299C 27.0697 -0.0953307 26.5984 0.271849 25.9768 0.708781C 24.7331 1.58301 22.891 2.73408 20.517 3.82447C 15.7709 6.00441 8.9089 7.93793 0.440601 6.94465L 0.207609 8.93103C 9.11515 9.97584 16.3475 7.94043 21.3518 5.64193C 23.853 4.4931 25.8002 3.27756 27.1269 2.345C 27.7905 1.87853 28.2998 1.48226 28.6463 1.19963C 28.8196 1.0583 28.9523 0.945304 29.0434 0.866076C 29.089 0.826459 29.1241 0.795276 29.1488 0.773203C 29.1611 0.762166 29.1708 0.753405 29.1778 0.747006C 29.1813 0.743806 29.1842 0.741196 29.1864 0.739187C 29.1875 0.738183 29.1884 0.737329 29.1892 0.736626C 29.1895 0.736275 29.19 0.735861 29.1902 0.735686C 29.1906 0.735311 29.191 0.734973 28.5129 -6.54713e-06ZM 0.324105 7.93784C -0.668965 7.82031 -0.669028 7.82085 -0.669112 7.82156C -0.669168 7.82204 -0.669272 7.82292 -0.669382 7.82386C -0.669602 7.82575 -0.669902 7.82833 -0.67028 7.8316C -0.671035 7.83815 -0.6721 7.84746 -0.673453 7.85951C -0.67616 7.88361 -0.680022 7.91863 -0.684867 7.96427C -0.694556 8.05554 -0.708183 8.18928 -0.724383 8.36298C -0.756781 8.71037 -0.799485 9.21771 -0.841578 9.86494C -0.925749 11.1592 -1.00757 13.0142 -0.999487 15.2692C -0.983338 19.7753 -0.608201 25.8986 0.834372 32.3452C 3.71571 45.2214 10.9176 59.595 28.2312 64.6768L 28.7945 62.7578C 12.4861 57.971 5.59365 44.4549 2.7861 31.9085C 1.38423 25.6438 1.01631 19.6726 1.0005 15.262C 0.992603 13.0587 1.07258 11.2498 1.15421 9.99474C 1.19501 9.36733 1.2362 8.87866 1.26698 8.54871C 1.28236 8.38374 1.29514 8.25847 1.30396 8.17541C 1.30837 8.13388 1.31179 8.1029 1.31404 8.08279C 1.31517 8.07273 1.31601 8.06539 1.31654 8.06081C 1.31681 8.05851 1.31699 8.05691 1.3171 8.056C 1.31715 8.05555 1.31717 8.05539 1.3172 8.05516C 1.3172 8.05517 1.31718 8.05536 0.324105 7.93784ZM 28.7945 64.6768C 46.1081 59.595 53.31 45.2214 56.1913 32.3452C 57.6338 25.8986 58.009 19.7753 58.0251 15.2692C 58.0332 13.0142 57.9514 11.1592 57.8672 9.86494C 57.8251 9.21771 57.7824 8.71037 57.75 8.36298C 57.7338 8.18928 57.7201 8.05554 57.7105 7.96427C 57.7056 7.91863 57.7018 7.88361 57.699 7.85951C 57.6977 7.84746 57.6966 7.83814 57.6959 7.8316C 57.6955 7.82833 57.6952 7.82575 57.695 7.82386C 57.6949 7.82292 57.6948 7.82203 57.6947 7.82156C 57.6946 7.82085 57.6946 7.82031 56.7015 7.93784C 55.7084 8.05536 55.7084 8.05517 55.7084 8.05516C 55.7084 8.05539 55.7084 8.05555 55.7085 8.056C 55.7086 8.05691 55.7088 8.05852 55.709 8.06081C 55.7096 8.06539 55.7104 8.07273 55.7115 8.08279C 55.7138 8.1029 55.7172 8.13388 55.7216 8.17541C 55.7305 8.25848 55.7432 8.38374 55.7586 8.54871C 55.7894 8.87867 55.8306 9.36733 55.8714 9.99474C 55.953 11.2498 56.033 13.0587 56.0251 15.262C 56.0093 19.6726 55.6414 25.6438 54.2396 31.9085C 51.432 44.4549 44.5396 57.971 28.2312 62.7578L 28.7945 64.6768Z"/>
<path id="path1_stroke" d="M -0.999951 11.1559C -0.999951 11.7082 -0.552236 12.1559 4.88281e-05 12.1559C 0.552334 12.1559 1.00005 11.7082 1.00005 11.1559L -0.999951 11.1559ZM 1.00005 -6.54713e-06C 1.00005 -0.552291 0.552334 -1.00001 4.88281e-05 -1.00001C -0.552236 -1.00001 -0.999951 -0.552291 -0.999951 -6.54713e-06L 1.00005 -6.54713e-06ZM 1.00005 11.1559L 1.00005 -6.54713e-06L -0.999951 -6.54713e-06L -0.999951 11.1559L 1.00005 11.1559Z"/>
<path id="path2_stroke" d="M 30.0191 9.29636C 30.5028 9.56294 31.111 9.38695 31.3776 8.90327C 31.6442 8.41959 31.4682 7.81137 30.9845 7.54479L 30.0191 9.29636ZM 15.2241 6.54713e-06L 15.7068 -0.875779C 15.4058 -1.04165 15.0408 -1.04138 14.7401 -0.875058L 15.2241 6.54713e-06ZM -0.484006 7.54551C -0.967291 7.81281 -1.14237 8.42129 -0.875065 8.90458C -0.607756 9.38786 0.000721051 9.56294 0.484006 9.29563L -0.484006 7.54551ZM 30.9845 7.54479L 15.7068 -0.875779L 14.7414 0.875792L 30.0191 9.29636L 30.9845 7.54479ZM 14.7401 -0.875058L -0.484006 7.54551L 0.484006 9.29563L 15.7081 0.875071L 14.7401 -0.875058Z"/>
<path id="path3_stroke" d="M 5.25344e-05 16.7339L -0.999947 16.7339L -0.999947 17.7339L 5.25344e-05 17.7339L 5.25344e-05 16.7339ZM 24.423 16.7339L 24.423 17.7339L 25.423 17.7339L 25.423 16.7339L 24.423 16.7339ZM -0.999947 6.54713e-06L -0.999947 16.7339L 1.00005 16.7339L 1.00005 6.54713e-06L -0.999947 6.54713e-06ZM 5.25344e-05 17.7339L 24.423 17.7339L 24.423 15.7339L 5.25344e-05 15.7339L 5.25344e-05 17.7339ZM 25.423 16.7339L 25.423 6.54713e-06L 23.423 6.54713e-06L 23.423 16.7339L 25.423 16.7339Z"/>
<path id="path4_stroke" d="M 1 14.0522L 1 3.70074L -1 3.70074L -1 14.0522L 1 14.0522ZM 1 3.70074C 1 2.21774 2.21707 1.00001 3.71182 1.00001L 3.71182 -0.999993C 1.11813 -0.999993 -1 1.10755 -1 3.70074L 1 3.70074ZM 3.71182 1.00001C 5.20661 1.00001 6.42376 2.21779 6.42376 3.70074L 8.42376 3.70074C 8.42376 1.1075 6.30545 -0.999993 3.71182 -0.999993L 3.71182 1.00001ZM 6.42376 3.70074L 6.42376 14.0522L 8.42376 14.0522L 8.42376 3.70074L 6.42376 3.70074Z"/>
<path id="path5_stroke" d="M 8.42379 14.0522L 8.42379 3.70074L 6.42379 3.70074L 6.42379 14.0522L 8.42379 14.0522ZM 8.42379 3.70074C 8.42379 1.1075 6.30548 -0.999993 3.71184 -0.999993L 3.71184 1.00001C 5.20664 1.00001 6.42379 2.21779 6.42379 3.70074L 8.42379 3.70074ZM 3.71184 -0.999993C 1.11816 -0.999993 -0.999974 1.10755 -0.999974 3.70074L 1.00003 3.70074C 1.00003 2.21774 2.21709 1.00001 3.71184 1.00001L 3.71184 -0.999993ZM -0.999974 3.70074L -0.999974 14.0522L 1.00003 14.0522L 1.00003 3.70074L -0.999974 3.70074Z"/>
<path id="path6_stroke" d="M 0 2.8426L -1 2.8426L -1 3.8426L 0 3.8426L 0 2.8426ZM 30.4481 2.8426L 29.4481 2.8426L 29.4481 3.8426L 30.4481 3.8426L 30.4481 2.8426ZM 30.5018 1.8426L 0 1.8426L 0 3.8426L 30.5018 3.8426L 30.5018 1.8426ZM 1 2.8426L 1 2.35991L -1 2.35991L -1 2.8426L 1 2.8426ZM 1 2.35991C 1 1.62776 1.62534 0.999993 2.36694 0.999993L 2.36694 -1.00001C 0.52636 -1.00001 -1 0.517615 -1 2.35991L 1 2.35991ZM 2.36694 0.999993L 28.0811 0.999993L 28.0811 -1.00001L 2.36694 -1.00001L 2.36694 0.999993ZM 28.0811 0.999993C 28.8227 0.999993 29.4481 1.62783 29.4481 2.35991L 31.4481 2.35991C 31.4481 0.517543 29.9216 -1.00001 28.0811 -1.00001L 28.0811 0.999993ZM 29.4481 2.35991L 29.4481 2.8426L 31.4481 2.8426L 31.4481 2.35991L 29.4481 2.35991ZM 30.4481 3.8426L 30.5018 3.8426L 30.5018 1.8426L 30.4481 1.8426L 30.4481 3.8426Z"/>
</defs>
</svg>
