<svg width="72" height="48" viewBox="0 0 72 48" version="1.1" xmlns="http://www.w3.org/2000/svg" xmlns:xlink="http://www.w3.org/1999/xlink">
<title>Group</title>
<desc>Created using Figma</desc>
<g id="Canvas" transform="translate(-1595 -4874)">
<g id="Group">
<g id="Vector">
<use xlink:href="#path0_stroke" transform="translate(1596 4875)" fill="#EB5757"/>
</g>
<g id="Vector">
<use xlink:href="#path1_stroke" transform="translate(1642.1 4875)" fill="#EB5757"/>
</g>
<g id="Vector">
<use xlink:href="#path2_stroke" transform="translate(1619.02 4875)" fill="#EB5757"/>
</g>
<g id="Vector">
<use xlink:href="#path3_stroke" transform="translate(1619.02 4887.12)" fill="#EB5757"/>
</g>
<g id="Vector">
<use xlink:href="#path4_stroke" transform="translate(1607.51 4875)" fill="#EB5757"/>
</g>
<g id="Vector">
<use xlink:href="#path5_stroke" transform="translate(1630.59 4875)" fill="#EB5757"/>
</g>
<g id="Vector">
<use xlink:href="#path6_stroke" transform="translate(1596 4887.12)" fill="#EB5757"/>
</g>
<g id="Vector">
<use xlink:href="#path7_stroke" transform="translate(1630.59 4887.12)" fill="#EB5757"/>
</g>
</g>
</g>
<defs>
<path id="path0_stroke" d="M 11.5122 6.54713e-06L 12.2372 -0.688647C 12.0484 -0.887436 11.7863 -0.999993 11.5122 -0.999993C 11.238 -0.999993 10.9759 -0.887436 10.7871 -0.688647L 11.5122 6.54713e-06ZM -2.62672e-05 12.1213L -0.725117 11.4327C -1.00042 11.7225 -1.07663 12.1485 -0.918899 12.5159C -0.761165 12.8832 -0.399803 13.1213 -2.62672e-05 13.1213L -2.62672e-05 12.1213ZM 23.0243 12.1213L 23.0243 13.1213C 23.4241 13.1213 23.7855 12.8832 23.9432 12.5159C 24.1009 12.1485 24.0247 11.7225 23.7494 11.4327L 23.0243 12.1213ZM 10.7871 -0.688647L -0.725117 11.4327L 0.725064 12.81L 12.2372 0.68866L 10.7871 -0.688647ZM -2.62672e-05 13.1213L 11.5122 13.1213L 11.5122 11.1213L -2.62672e-05 11.1213L -2.62672e-05 13.1213ZM 11.5122 13.1213L 23.0243 13.1213L 23.0243 11.1213L 11.5122 11.1213L 11.5122 13.1213ZM 23.7494 11.4327L 12.2372 -0.688647L 10.7871 0.68866L 22.2992 12.81L 23.7494 11.4327Z"/>
<path id="path1_stroke" d="M 11.5122 6.54713e-06L 12.2357 -0.690333C 12.0467 -0.888389 11.7848 -1.00031 11.511 -0.999993C 11.2373 -0.999674 10.9756 -0.887143 10.7871 -0.688647L 11.5122 6.54713e-06ZM 23.0782 12.1213L 23.0782 13.1213C 23.4784 13.1213 23.84 12.8827 23.9975 12.5148C 24.155 12.1469 24.0779 11.7205 23.8016 11.431L 23.0782 12.1213ZM 1.31336e-05 12.1213L -0.725077 11.4327C -1.00039 11.7225 -1.07659 12.1485 -0.918859 12.5159C -0.761126 12.8832 -0.399764 13.1213 1.31336e-05 13.1213L 1.31336e-05 12.1213ZM 10.7887 0.690346L 22.3547 12.8116L 23.8016 11.431L 12.2357 -0.690333L 10.7887 0.690346ZM 23.0782 11.1213L 11.5122 11.1213L 11.5122 13.1213L 23.0782 13.1213L 23.0782 11.1213ZM 11.5122 11.1213L 1.31336e-05 11.1213L 1.31336e-05 13.1213L 11.5122 13.1213L 11.5122 11.1213ZM 0.725104 12.81L 12.2373 0.68866L 10.7871 -0.688647L -0.725077 11.4327L 0.725104 12.81Z"/>
<path id="path2_stroke" d="M 0 12.1213L -0.723486 11.431C -0.999759 11.7205 -1.0768 12.1469 -0.919331 12.5148C -0.761859 12.8827 -0.4002 13.1213 0 13.1213L 0 12.1213ZM 11.566 6.54713e-06L 12.2911 -0.688647C 12.1025 -0.887143 11.8409 -0.999674 11.5671 -0.999993C 11.2934 -1.00031 11.0315 -0.888389 10.8425 -0.690333L 11.566 6.54713e-06ZM 23.0782 12.1213L 23.0782 13.1213C 23.4779 13.1213 23.8393 12.8832 23.997 12.5159C 24.1548 12.1485 24.0786 11.7225 23.8032 11.4327L 23.0782 12.1213ZM 0.723486 12.8116L 12.2895 0.690346L 10.8425 -0.690333L -0.723486 11.431L 0.723486 12.8116ZM 10.8409 0.68866L 22.3531 12.81L 23.8032 11.4327L 12.2911 -0.688647L 10.8409 0.68866ZM 23.0782 11.1213L 0 11.1213L 0 13.1213L 23.0782 13.1213L 23.0782 11.1213Z"/>
<path id="path3_stroke" d="M 11.566 33.4677L 10.6208 33.7943C 10.7602 34.1976 11.14 34.468 11.5667 34.4677C 11.9933 34.4674 12.3728 34.1964 12.5116 33.793L 11.566 33.4677ZM 0 -6.54713e-06L 0 -1.00001C -0.323382 -1.00001 -0.626801 -0.843627 -0.814442 -0.580252C -1.00208 -0.316876 -1.05078 0.0209799 -0.945152 0.326625L 0 -6.54713e-06ZM 23.0782 -6.54713e-06L 24.0238 0.325267C 24.1289 0.0197103 24.0799 -0.317802 23.8922 -0.580836C 23.7045 -0.843871 23.4013 -1.00001 23.0782 -1.00001L 23.0782 -6.54713e-06ZM 12.5111 33.1411L 0.945152 -0.326638L -0.945152 0.326625L 10.6208 33.7943L 12.5111 33.1411ZM 0 0.999993L 23.0782 0.999993L 23.0782 -1.00001L 0 -1.00001L 0 0.999993ZM 22.1325 -0.32528L 10.6203 33.1424L 12.5116 33.793L 24.0238 0.325267L 22.1325 -0.32528Z"/>
<path id="path4_stroke" d="M -1.31336e-05 6.54713e-06L -1.31336e-05 -0.999993C -0.39979 -0.999993 -0.761152 -0.761892 -0.918886 -0.394548C -1.07662 -0.0272038 -1.00041 0.398786 -0.725104 0.68866L -1.31336e-05 6.54713e-06ZM 11.5122 12.1213L 10.7871 12.81C 10.9756 13.0085 11.2373 13.121 11.511 13.1213C 11.7848 13.1216 12.0467 13.0097 12.2357 12.8116L 11.5122 12.1213ZM 23.0781 6.54713e-06L 23.8016 0.690346C 24.0779 0.400807 24.1549 -0.025562 23.9975 -0.393478C 23.84 -0.761394 23.4783 -0.999993 23.0781 -0.999993L 23.0781 6.54713e-06ZM -0.725104 0.68866L 10.7871 12.81L 12.2373 11.4327L 0.725077 -0.688647L -0.725104 0.68866ZM 12.2357 12.8116L 23.8016 0.690346L 22.3547 -0.690333L 10.7887 11.431L 12.2357 12.8116ZM 23.0781 -0.999993L -1.31336e-05 -0.999993L -1.31336e-05 1.00001L 23.0781 1.00001L 23.0781 -0.999993Z"/>
<path id="path5_stroke" d="M 23.0244 6.54713e-06L 23.7495 0.68866C 24.0248 0.398786 24.101 -0.0272038 23.9432 -0.394548C 23.7855 -0.761892 23.4241 -0.999993 23.0244 -0.999993L 23.0244 6.54713e-06ZM 11.5122 12.1213L 10.7871 12.81C 10.9759 13.0087 11.238 13.1213 11.5122 13.1213C 11.7863 13.1213 12.0485 13.0087 12.2373 12.81L 11.5122 12.1213ZM 0 6.54713e-06L 0 -0.999993C -0.399777 -0.999993 -0.761139 -0.761892 -0.918873 -0.394548C -1.07661 -0.0272038 -1.0004 0.398786 -0.725091 0.68866L 0 6.54713e-06ZM 22.2993 -0.688647L 10.7871 11.4327L 12.2373 12.81L 23.7495 0.68866L 22.2993 -0.688647ZM 12.2373 11.4327L 0.725091 -0.688647L -0.725091 0.68866L 10.7871 12.81L 12.2373 11.4327ZM 0 1.00001L 23.0244 1.00001L 23.0244 -0.999993L 0 -0.999993L 0 1.00001Z"/>
<path id="path6_stroke" d="M 34.5903 33.4677L 33.895 34.1864C 34.2275 34.5081 34.7374 34.5597 35.1277 34.311C 35.5179 34.0624 35.6866 33.5784 35.5355 33.1411L 34.5903 33.4677ZM -2.62672e-05 -6.54713e-06L -2.62672e-05 -1.00001C -0.407492 -1.00001 -0.77421 -0.752781 -0.92703 -0.375058C -1.07985 0.00266465 -0.988209 0.435335 -0.695375 0.718666L -2.62672e-05 -6.54713e-06ZM 23.0243 -6.54713e-06L 23.9695 -0.326638C 23.8302 -0.729641 23.4507 -1.00001 23.0243 -1.00001L 23.0243 -6.54713e-06ZM 35.2857 32.749L 0.695322 -0.718679L -0.695375 0.718666L 33.895 34.1864L 35.2857 32.749ZM -2.62672e-05 0.999993L 23.0243 0.999993L 23.0243 -1.00001L -2.62672e-05 -1.00001L -2.62672e-05 0.999993ZM 22.0792 0.326625L 33.6452 33.7943L 35.5355 33.1411L 23.9695 -0.326638L 22.0792 0.326625Z"/>
<path id="path7_stroke" d="M 0 33.4677L -0.94562 33.1424C -1.09623 33.5803 -0.92656 34.0643 -0.53552 34.3122C -0.14448 34.5602 0.365645 34.5073 0.697463 34.1843L 0 33.4677ZM 11.5122 -6.54713e-06L 11.5122 -1.00001C 11.0853 -1.00001 10.7054 -0.728982 10.5666 -0.32528L 11.5122 -6.54713e-06ZM 34.5903 -6.54713e-06L 35.286 0.718316C 35.5787 0.434902 35.6701 0.00230785 35.5172 -0.375291C 35.3644 -0.75289 34.9977 -1.00001 34.5903 -1.00001L 34.5903 -6.54713e-06ZM 25.1762 9.11779L 25.8709 9.83708L 25.8719 9.83612L 25.1762 9.11779ZM 4.51881 29.0697L 3.82409 28.3504L 3.82135 28.3531L 4.51881 29.0697ZM 0.94562 33.793L 12.4578 0.325267L 10.5666 -0.32528L -0.94562 33.1424L 0.94562 33.793ZM 11.5122 0.999993L 34.5903 0.999993L 34.5903 -1.00001L 11.5122 -1.00001L 11.5122 0.999993ZM 33.8946 -0.718329L 24.4805 8.39947L 25.8719 9.83612L 35.286 0.718316L 33.8946 -0.718329ZM 24.4815 8.39851L 3.82409 28.3504L 5.21353 29.789L 25.8709 9.83708L 24.4815 8.39851ZM 3.82135 28.3531L -0.697463 32.7511L 0.697463 34.1843L 5.21627 29.7863L 3.82135 28.3531Z"/>
</defs>
</svg>
