<svg width="64" height="57" viewBox="0 0 64 57" version="1.1" xmlns="http://www.w3.org/2000/svg" xmlns:xlink="http://www.w3.org/1999/xlink">
<title>Group 3</title>
<desc>Created using Figma</desc>
<g id="Canvas" transform="translate(-2141 -1571)">
<g id="Group 3">
<g id="Vector">
<use xlink:href="#path0_fill" transform="translate(2170 1578.95)" fill="#FFFFFF"/>
</g>
<g id="Group 2">
<g id="Group">
<g id="Group">
<g id="Group">
<g id="Vector">
<use xlink:href="#path1_stroke" transform="translate(2153.92 1590.53)" fill="#FFFFFF"/>
</g>
<g id="Vector">
<use xlink:href="#path2_stroke" transform="translate(2142 1602.34)" fill="#FFFFFF"/>
</g>
<g id="Vector">
<use xlink:href="#path3_stroke" transform="translate(2143.58 1584.37)" fill="#FFFFFF"/>
</g>
<g id="Vector">
<use xlink:href="#path4_stroke" transform="translate(2148.91 1582.43)" fill="#FFFFFF"/>
</g>
<g id="Vector">
<use xlink:href="#path5_stroke" transform="translate(2152.06 1585.67)" fill="#FFFFFF"/>
</g>
</g>
<g id="Vector">
<use xlink:href="#path6_stroke" transform="translate(2157.58 1616.25)" fill="#FFFFFF"/>
</g>
<g id="Vector">
<use xlink:href="#path7_stroke" transform="translate(2158.65 1619.35)" fill="#FFFFFF"/>
</g>
</g>
</g>
<g id="Group">
<g id="Group">
<g id="Vector">
<use xlink:href="#path8_stroke" transform="translate(2175.57 1590.53)" fill="#FFFFFF"/>
</g>
<g id="Vector">
<use xlink:href="#path9_stroke" transform="translate(2186.33 1602.34)" fill="#FFFFFF"/>
</g>
<g id="Vector">
<use xlink:href="#path10_stroke" transform="translate(2196.82 1584.37)" fill="#FFFFFF"/>
</g>
<g id="Vector">
<use xlink:href="#path11_stroke" transform="translate(2193.97 1582.43)" fill="#FFFFFF"/>
</g>
<g id="Vector">
<use xlink:href="#path12_stroke" transform="translate(2191.71 1585.67)" fill="#FFFFFF"/>
</g>
</g>
<g id="Vector">
<use xlink:href="#path13_stroke" transform="translate(2175.57 1616.25)" fill="#FFFFFF"/>
</g>
<g id="Vector">
<use xlink:href="#path14_stroke" transform="translate(2175.57 1619.35)" fill="#FFFFFF"/>
</g>
</g>
<g id="Vector">
<use xlink:href="#path15_stroke" transform="matrix(0.376164 -0.926493 0.926707 0.375636 2155.53 1593.16)" fill="#FFFFFF"/>
</g>
<g id="Vector">
<use xlink:href="#path16_stroke" transform="translate(2162.96 1575.38)" fill="#FFFFFF"/>
</g>
</g>
</g>
</g>
<defs>
<path id="path0_fill" d="M 6.30667 4.17012L 6.30667 3.98477C 6.30667 2.40939 5.19374 1.11204 3.70982 0.880371L 3.70982 0L 2.59686 0L 2.59686 0.834019C 1.11294 1.11203 1.13214e-05 2.40941 1.13214e-05 3.93845C 1.13214e-05 5.28216 0.88109 6.44051 2.31864 6.99653C 2.50413 7.0892 2.68959 7.13555 2.92145 7.18188C 3.24606 7.27455 3.61708 7.41355 3.89532 7.55255C 4.73002 7.96957 5.24008 8.61827 5.24008 9.45229C 5.24008 10.5643 4.31267 11.491 3.19973 11.491C 2.08679 11.491 1.15933 10.6107 1.15933 9.49862L 1.15933 9.31327L 0.0463726 9.31327L 0.0463726 9.49862C 0.0463726 11.0277 1.20568 12.325 2.64322 12.5567L 2.64322 13.3907L 3.75618 13.3907L 3.75618 12.5567C 5.2401 12.2787 6.35303 10.9813 6.35303 9.45229C 6.35303 8.75727 6.12118 8.10856 5.61108 7.45988C 5.14736 6.85753 4.45179 6.57954 3.89532 6.34786C 3.7562 6.30153 3.57071 6.2552 3.43159 6.20886C 2.92149 6.02352 2.36499 5.83817 1.94764 5.56017C 1.48391 5.18949 1.15933 4.58713 1.15933 3.98477C 1.15933 2.87274 2.08679 1.94606 3.19973 1.94606C 4.31267 1.94606 5.24008 2.87274 5.24008 3.98477L 5.24008 4.17012L 6.30667 4.17012Z"/>
<path id="path1_stroke" d="M 16.0736 25.8509C 16.1482 26.1168 16.4243 26.2718 16.6901 26.1972C 16.956 26.1225 17.111 25.8465 17.0364 25.5806L 16.0736 25.8509ZM 15.4885 21.9163L 15.9699 21.7812L 15.9694 21.7797L 15.4885 21.9163ZM 8.90352 14.1784L 8.68962 14.6304L 8.6933 14.6321L 8.90352 14.1784ZM 6.26031 12.9274L 6.47421 12.4755L 6.47306 12.4749L 6.26031 12.9274ZM 3.06059 9.17427L 3.54233 9.04034L 3.54132 9.0368L 3.06059 9.17427ZM 1.76214 4.63347L 1.26601 4.57138L 1.25332 4.67273L 1.2814 4.77094L 1.76214 4.63347ZM 1.85491 3.89213L 2.35105 3.95422L 2.35128 3.95234L 1.85491 3.89213ZM 0.0463726 0.0463234L -0.307036 0.400021L -0.269041 0.437985L -0.22385 0.467013L 0.0463726 0.0463234ZM 0.35342 -0.353698C 0.158078 -0.54888 -0.158504 -0.548751 -0.353686 -0.353409C -0.548869 -0.158067 -0.54874 0.158515 -0.353398 0.353698L 0.35342 -0.353698ZM 17.0364 25.5806L 15.9699 21.7812L 15.0071 22.0514L 16.0736 25.8509L 17.0364 25.5806ZM 15.9694 21.7797C 14.9561 18.2119 12.4465 15.2691 9.11374 13.7248L 8.6933 14.6321C 11.76 16.0531 14.0732 18.7632 15.0075 22.0529L 15.9694 21.7797ZM 9.11742 13.7265L 6.47421 12.4755L 6.04641 13.3793L 8.68962 14.6303L 9.11742 13.7265ZM 6.47306 12.4749C 5.02394 11.7935 3.96581 10.5637 3.54232 9.04034L 2.57886 9.30819C 3.08282 11.121 4.34334 12.5785 6.04755 13.3799L 6.47306 12.4749ZM 3.54132 9.0368L 2.24287 4.496L 1.2814 4.77094L 2.57986 9.31173L 3.54132 9.0368ZM 2.25826 4.69556L 2.35104 3.95422L 1.35878 3.83004L 1.26601 4.57138L 2.25826 4.69556ZM 2.35128 3.95234C 2.55984 2.23307 1.77656 0.563417 0.316595 -0.374366L -0.22385 0.467013C 0.913048 1.19728 1.52097 2.49309 1.35855 3.83191L 2.35128 3.95234ZM 0.399782 -0.307374L 0.35342 -0.353698L -0.353398 0.353698L -0.307036 0.400021L 0.399782 -0.307374Z"/>
<path id="path2_stroke" d="M 15.4705 6.83877C 15.7384 6.77185 15.9014 6.50041 15.8344 6.2325C 15.7675 5.96459 15.4961 5.80166 15.2282 5.86858L 15.4705 6.83877ZM 14.7928 6.4L 14.7928 5.9L 14.7702 5.9L 14.7476 5.90205L 14.7928 6.4ZM 6.86314 2.83222L 7.2585 2.52613L 7.25769 2.52509L 6.86314 2.83222ZM -2.26429e-05 0.978833L -0.363982 0.636001L -0.667555 0.958281L -0.384382 1.29863L -2.26429e-05 0.978833ZM 5.37924 8.62406L 4.94551 8.87286L 4.94798 8.87707L 5.37924 8.62406ZM 12.5206 14.1379L 12.6417 13.6528L 12.6383 13.652L 12.5206 14.1379ZM 13.0771 14.2769L 12.9559 14.762L 12.9653 14.7643L 12.9747 14.7663L 13.0771 14.2769ZM 17.2256 17.9851C 17.3543 18.2294 17.6567 18.3231 17.901 18.1944C 18.1453 18.0657 18.239 17.7633 18.1104 17.519L 17.2256 17.9851ZM 15.2282 5.86858C 15.1119 5.89763 14.9876 5.9 14.7928 5.9L 14.7928 6.9C 14.969 6.9 15.2158 6.90239 15.4705 6.83877L 15.2282 5.86858ZM 14.7476 5.90205C 11.8691 6.16352 9.06297 4.85683 7.2585 2.52613L 6.46778 3.13831C 8.46587 5.71909 11.5954 7.1925 14.8381 6.89795L 14.7476 5.90205ZM 7.25769 2.52509C 5.23609 -0.0719889 3.36025 -0.658722 1.90541 -0.466731C 1.19986 -0.373623 0.63801 -0.101709 0.254895 0.143676C 0.0626785 0.26679 -0.0872508 0.38493 -0.191021 0.474226C -0.243003 0.518958 -0.283698 0.556706 -0.312621 0.584567C -0.327091 0.598506 -0.338643 0.609997 -0.347217 0.618682C -0.351504 0.623025 -0.35505 0.626669 -0.357846 0.62957C -0.359244 0.63102 -0.360455 0.632285 -0.361477 0.633358C -0.361989 0.633895 -0.362453 0.634384 -0.362871 0.634825C -0.363079 0.635045 -0.363358 0.635339 -0.363462 0.635449C -0.363727 0.635731 -0.363982 0.636001 -2.26429e-05 0.978833C 0.363936 1.32166 0.363705 1.32191 0.363484 1.32214C 0.363425 1.32221 0.363215 1.32243 0.363097 1.32255C 0.36286 1.3228 0.362667 1.32301 0.362517 1.32316C 0.362217 1.32348 0.362089 1.32361 0.362132 1.32357C 0.362219 1.32348 0.36299 1.32268 0.364437 1.32121C 0.367332 1.31828 0.372921 1.31269 0.381139 1.30477C 0.397592 1.28892 0.424464 1.26387 0.461243 1.23222C 0.534994 1.16875 0.647361 1.07984 0.794246 0.985757C 1.08933 0.796753 1.5129 0.593737 2.03624 0.524673C 3.03915 0.392322 4.59489 0.732283 6.46859 3.13935L 7.25769 2.52509ZM -2.26429e-05 0.978833C -0.384382 1.29863 -0.384394 1.29861 -0.384393 1.29861C -0.384376 1.29863 -0.384363 1.29865 -0.38433 1.29869C -0.384264 1.29877 -0.38415 1.29891 -0.383987 1.2991C -0.383662 1.29949 -0.383144 1.30012 -0.382435 1.30097C -0.381016 1.30268 -0.378833 1.30531 -0.375903 1.30885C -0.370042 1.31593 -0.361189 1.32664 -0.349474 1.34086C -0.326042 1.36931 -0.291162 1.41179 -0.245862 1.46738C -0.155256 1.57855 -0.0229938 1.74208 0.142699 1.95037C 0.474146 2.36703 0.939031 2.96239 1.47164 3.67578C 2.53852 5.10479 3.87003 6.99798 4.94553 8.87285L 5.81295 8.37527C 4.70894 6.4507 3.35082 4.52127 2.27295 3.07753C 1.73318 2.35454 1.2619 1.75099 0.925288 1.32783C 0.756949 1.11622 0.622203 0.949609 0.529309 0.835626C 0.482859 0.778632 0.446866 0.734786 0.422362 0.705039C 0.41011 0.690166 0.400729 0.678817 0.394349 0.671111C 0.391158 0.667258 0.388718 0.664315 0.387044 0.662299C 0.386207 0.66129 0.385562 0.660513 0.38511 0.659969C 0.384884 0.659697 0.384706 0.659484 0.384577 0.659329C 0.384513 0.659251 0.384453 0.659179 0.384421 0.65914C 0.384373 0.659083 0.384337 0.659039 -2.26429e-05 0.978833ZM 4.94798 8.87707C 6.58253 11.6631 9.19122 13.8459 12.4029 14.6238L 12.6383 13.652C 9.72874 12.9472 7.32929 10.9598 5.8105 8.37105L 4.94798 8.87707ZM 12.3994 14.623C 12.4922 14.6462 12.5849 14.6693 12.6777 14.6925C 12.7704 14.7157 12.8632 14.7388 12.9559 14.762L 13.1982 13.7918C 13.1055 13.7686 13.0127 13.7455 12.92 13.7223C 12.8272 13.6991 12.7345 13.676 12.6417 13.6528L 12.3994 14.623ZM 12.9747 14.7663C 14.8191 15.152 16.3658 16.3527 17.2256 17.9851L 18.1104 17.519C 17.1153 15.6299 15.3231 14.2358 13.1794 13.7875L 12.9747 14.7663Z"/>
<path id="path3_stroke" d="M 0.856642 18.1324C 0.916375 18.402 1.18336 18.5721 1.45296 18.5124C 1.72256 18.4526 1.8927 18.1856 1.83297 17.916L 0.856642 18.1324ZM -1.13214e-05 11.9544L -0.47541 11.7994L -0.517701 11.9292L -0.488174 12.0625L -1.13214e-05 11.9544ZM 3.8953 5.65609e-06L 4.01647 -0.485089L 3.56429 -0.598039L 3.4199 -0.154902L 3.8953 5.65609e-06ZM 5.5647 3.98478L 6.05236 4.09517L 6.05577 4.08012L 6.05824 4.06488L 5.5647 3.98478ZM 3.80257 11.769L 3.31491 11.6586L 3.28887 11.7737L 3.31699 11.8882L 3.80257 11.769ZM 4.52267 16.7997C 4.5885 17.0679 4.85927 17.2319 5.12745 17.1661C 5.39563 17.1003 5.55966 16.8295 5.49383 16.5613L 4.52267 16.7997ZM 1.83297 17.916L 0.488151 11.8462L -0.488174 12.0625L 0.856642 18.1324L 1.83297 17.916ZM 0.475387 12.1093L 4.37069 0.154913L 3.4199 -0.154902L -0.47541 11.7994L 0.475387 12.1093ZM 3.8953 5.65609e-06C 3.77412 0.485101 3.77377 0.485013 3.77343 0.484928C 3.77333 0.484902 3.773 0.484818 3.77279 0.484766C 3.77238 0.484662 3.772 0.484565 3.77165 0.484476C 3.77095 0.484297 3.77038 0.484149 3.76994 0.484033C 3.76905 0.483799 3.76866 0.483691 3.76875 0.483716C 3.76893 0.483765 3.77102 0.484344 3.77487 0.485514C 3.7826 0.48786 3.7973 0.492549 3.81785 0.500077C 3.85907 0.515179 3.92296 0.541392 4.00075 0.582507C 4.15657 0.664866 4.36419 0.804852 4.55918 1.03215C 4.9342 1.46933 5.33002 2.30963 5.07115 3.90468L 6.05824 4.06488C 6.35584 2.23116 5.91696 1.07907 5.31817 0.381056C 5.02625 0.0407598 4.71218 -0.172554 4.46804 -0.301595C 4.34585 -0.36618 4.24019 -0.410192 4.16185 -0.438891C 4.12263 -0.453263 4.09005 -0.463867 4.06544 -0.47134C 4.05313 -0.475079 4.04279 -0.478041 4.03458 -0.480305C 4.03047 -0.481437 4.0269 -0.482395 4.02387 -0.483189C 4.02236 -0.483586 4.02099 -0.483942 4.01975 -0.484258C 4.01913 -0.484417 4.01855 -0.484565 4.018 -0.484703C 4.01773 -0.484772 4.01735 -0.484869 4.01721 -0.484904C 4.01683 -0.484998 4.01647 -0.485089 3.8953 5.65609e-06ZM 5.07703 3.87439L 3.31491 11.6586L 4.29023 11.8794L 6.05236 4.09517L 5.07703 3.87439ZM 3.31699 11.8882L 4.52267 16.7997L 5.49383 16.5613L 4.28816 11.6498L 3.31699 11.8882Z"/>
<path id="path4_stroke" d="M -0.474988 3.08724C -0.561252 3.34956 -0.418529 3.63214 -0.156206 3.71841C 0.106117 3.80467 0.388702 3.66195 0.474966 3.39962L -0.474988 3.08724ZM 1.06658 0L 1.24036 -0.46883L 0.753728 -0.649205L 0.591603 -0.156195L 1.06658 0ZM 2.96784 4.91147L 2.48314 4.78873L 2.47959 4.80276L 2.47686 4.81697L 2.96784 4.91147ZM 1.3448 13.3444L 0.853816 13.2499L 0.831257 13.3671L 0.864073 13.4819L 1.3448 13.3444ZM 2.16253 18.0227C 2.23845 18.2882 2.51522 18.4418 2.78073 18.3659C 3.04623 18.29 3.19991 18.0132 3.12399 17.7477L 2.16253 18.0227ZM 0.474966 3.39962L 1.54156 0.156195L 0.591603 -0.156195L -0.474988 3.08724L 0.474966 3.39962ZM 1.06658 0C 0.892803 0.46883 0.892519 0.468724 0.892246 0.468623C 0.892169 0.468594 0.891906 0.468496 0.891752 0.468439C 0.891445 0.468324 0.891179 0.468224 0.890955 0.46814C 0.890508 0.467972 0.890227 0.467865 0.890111 0.46782C 0.889878 0.467731 0.890301 0.467892 0.891354 0.468307C 0.893462 0.469138 0.898082 0.470986 0.905018 0.473899C 0.918904 0.479731 0.941977 0.489792 0.972671 0.504457C 1.03419 0.533846 1.1255 0.58134 1.23435 0.649819C 1.45292 0.787329 1.73587 1.00543 1.99179 1.3257C 2.48699 1.9454 2.93331 3.01096 2.48314 4.78873L 3.45255 5.0342C 3.97621 2.96619 3.47189 1.57602 2.773 0.701433C 2.43188 0.274554 2.05692 -0.0141242 1.76685 -0.196611C 1.62137 -0.28813 1.49568 -0.353939 1.40376 -0.397851C 1.35774 -0.419838 1.32 -0.436429 1.29224 -0.448085C 1.27836 -0.453916 1.26696 -0.458522 1.25824 -0.461958C 1.25389 -0.463676 1.2502 -0.465103 1.24721 -0.466246C 1.24572 -0.466817 1.2444 -0.467318 1.24325 -0.467748C 1.24268 -0.467963 1.24215 -0.468161 1.24167 -0.468341C 1.24143 -0.468431 1.2411 -0.468554 1.24098 -0.468598C 1.24066 -0.468716 1.24036 -0.46883 1.06658 0ZM 2.47686 4.81697L 0.853816 13.2499L 1.83579 13.4389L 3.45883 5.00597L 2.47686 4.81697ZM 0.864073 13.4819L 2.16253 18.0227L 3.12399 17.7477L 1.82554 13.2069L 0.864073 13.4819Z"/>
<path id="path5_stroke" d="M 0.277263 -0.416091C 0.0474627 -0.569213 -0.262957 -0.507052 -0.416079 -0.277252C -0.569201 -0.0474514 -0.507041 0.262969 -0.277241 0.416091L 0.277263 -0.416091ZM 0.139095 0.0926751L 0.441132 -0.305789L 0.429007 -0.314979L 0.416347 -0.323415L 0.139095 0.0926751ZM 1.85491 4.44812L 1.3641 4.35261L 1.36329 4.35701L 1.85491 4.44812ZM 0.927463 9.45229L 0.435835 9.36118L 0.414225 9.47778L 0.447279 9.59166L 0.927463 9.45229ZM 1.79209 14.2251C 1.86907 14.4903 2.14645 14.6429 2.41165 14.5659C 2.67684 14.489 2.82943 14.2116 2.75246 13.9464L 1.79209 14.2251ZM -0.277241 0.416091L -0.138157 0.508766L 0.416347 -0.323415L 0.277263 -0.416091L -0.277241 0.416091ZM -0.162942 0.49114C 1.03991 1.4029 1.64996 2.88377 1.36412 4.35261L 2.34571 4.54363C 2.70908 2.67637 1.92789 0.821173 0.441132 -0.305789L -0.162942 0.49114ZM 1.36329 4.35701L 0.435835 9.36118L 1.41909 9.54341L 2.34654 4.53924L 1.36329 4.35701ZM 0.447279 9.59166L 1.79209 14.2251L 2.75246 13.9464L 1.40765 9.31293L 0.447279 9.59166Z"/>
<path id="path6_stroke" d="M 11.6952 8.40067C 11.9589 8.31867 12.1062 8.03844 12.0242 7.77475C 11.9422 7.51107 11.662 7.36378 11.3983 7.44578L 11.6952 8.40067ZM 2.45773 10.7496L 1.99379 10.9361C 2.09093 11.1778 2.35743 11.3044 2.60621 11.2271L 2.45773 10.7496ZM 2.26429e-05 4.63347L -0.169095 4.16294C -0.296911 4.20888 -0.400538 4.30484 -0.456148 4.42876C -0.511757 4.55267 -0.514563 4.69388 -0.463921 4.8199L 2.26429e-05 4.63347ZM 12.8916 0L 13.3916 0C 13.3916 -0.162777 13.3123 -0.315365 13.1792 -0.408998C 13.046 -0.502631 12.8756 -0.525588 12.7224 -0.470531L 12.8916 0ZM 12.3916 3.1044C 12.3916 3.38055 12.6154 3.6044 12.8916 3.6044C 13.1677 3.6044 13.3916 3.38055 13.3916 3.1044L 12.3916 3.1044ZM 11.3983 7.44578L 2.30926 10.2722L 2.60621 11.2271L 11.6952 8.40067L 11.3983 7.44578ZM 2.92168 10.5632L 0.463966 4.44704L -0.463921 4.8199L 1.99379 10.9361L 2.92168 10.5632ZM 0.169141 5.104L 13.0607 0.470531L 12.7224 -0.470531L -0.169095 4.16294L 0.169141 5.104ZM 12.3916 0L 12.3916 3.1044L 13.3916 3.1044L 13.3916 0L 12.3916 0Z"/>
<path id="path7_stroke" d="M -0.166301 3.69856C -0.426724 3.7904 -0.563388 4.07597 -0.471549 4.33639C -0.37971 4.59681 -0.0941452 4.73348 0.166278 4.64164L -0.166301 3.69856ZM 11.9913 0.471515C 12.2517 0.379676 12.3884 0.0941113 12.2965 -0.166312C 12.2047 -0.426735 11.9191 -0.563399 11.6587 -0.47156L 11.9913 0.471515ZM 0.166278 4.64164L 11.9913 0.471515L 11.6587 -0.47156L -0.166301 3.69856L 0.166278 4.64164Z"/>
<path id="path8_stroke" d="M -0.481403 25.5806C -0.556037 25.8465 -0.401014 26.1225 -0.135149 26.1972C 0.130716 26.2718 0.406746 26.1168 0.48138 25.8509L -0.481403 25.5806ZM 1.06658 21.9163L 0.585601 21.7797L 0.585189 21.7812L 1.06658 21.9163ZM 7.65146 14.1784L 7.86169 14.6321L 7.86536 14.6304L 7.65146 14.1784ZM 10.2947 12.9274L 10.082 12.4749L 10.0808 12.4755L 10.2947 12.9274ZM 13.4944 9.17427L 13.0137 9.0368L 13.0127 9.04034L 13.4944 9.17427ZM 14.7929 4.63347L 15.2736 4.77094L 15.3017 4.67275L 15.289 4.57142L 14.7929 4.63347ZM 14.7001 3.89213L 14.2038 3.95234L 14.204 3.95418L 14.7001 3.89213ZM 16.5086 0.0463234L 16.7788 0.467013L 16.8239 0.438069L 16.8618 0.400237L 16.5086 0.0463234ZM 16.9082 0.353913C 17.1037 0.15885 17.104 -0.157732 16.9089 -0.353193C 16.7139 -0.548654 16.3973 -0.548976 16.2018 -0.353913L 16.9082 0.353913ZM 0.48138 25.8509L 1.54797 22.0515L 0.585189 21.7812L -0.481403 25.5806L 0.48138 25.8509ZM 1.54756 22.0529C 2.48188 18.7632 4.79501 16.0531 7.86168 14.6321L 7.44124 13.7248C 4.1085 15.2691 1.59893 18.2119 0.585603 21.7797L 1.54756 22.0529ZM 7.86536 14.6304L 10.5086 13.3793L 10.0808 12.4755L 7.43757 13.7265L 7.86536 14.6304ZM 10.5075 13.3799C 12.2117 12.5785 13.4722 11.1209 13.9761 9.30819L 13.0127 9.04034C 12.5892 10.5637 11.5311 11.7935 10.082 12.4749L 10.5075 13.3799ZM 13.9751 9.31173L 15.2736 4.77094L 14.3121 4.496L 13.0137 9.0368L 13.9751 9.31173ZM 15.289 4.57142L 15.1963 3.83007L 14.204 3.95418L 14.2967 4.69552L 15.289 4.57142ZM 15.1965 3.83191C 15.0341 2.49308 15.6419 1.19727 16.7788 0.467013L 16.2384 -0.374366C 14.7784 0.563425 13.9952 2.23309 14.2038 3.95234L 15.1965 3.83191ZM 16.8618 0.400237L 16.9082 0.353913L 16.2018 -0.353913L 16.1554 -0.30759L 16.8618 0.400237Z"/>
<path id="path9_stroke" d="M 2.43983 5.86858C 2.17192 5.80166 1.90048 5.96459 1.83356 6.2325C 1.76663 6.50041 1.92957 6.77185 2.19748 6.83877L 2.43983 5.86858ZM 2.8751 6.4L 2.92033 5.90205L 2.89776 5.9L 2.8751 5.9L 2.8751 6.4ZM 10.8048 2.83222L 10.4102 2.52509L 10.4094 2.52613L 10.8048 2.83222ZM 17.668 0.978833L 18.0523 1.29862L 18.3355 0.958278L 18.0319 0.636001L 17.668 0.978833ZM 12.2888 8.62406L 12.72 8.87709L 12.7225 8.87285L 12.2888 8.62406ZM 5.14737 14.1379L 5.02965 13.6519L 5.02619 13.6528L 5.14737 14.1379ZM 4.59086 14.2769L 4.69321 14.7663L 4.70267 14.7643L 4.71204 14.762L 4.59086 14.2769ZM -0.442358 17.519C -0.571053 17.7633 -0.47732 18.0657 -0.233 18.1944C 0.0113206 18.3231 0.313709 18.2294 0.442403 17.9851L -0.442358 17.519ZM 2.19748 6.83877C 2.45216 6.90239 2.69892 6.9 2.8751 6.9L 2.8751 5.9C 2.6803 5.9 2.55612 5.89763 2.43983 5.86858L 2.19748 6.83877ZM 2.82987 6.89795C 6.07257 7.1925 9.20207 5.71909 11.2002 3.13831L 10.4094 2.52613C 8.60497 4.85683 5.7988 6.16352 2.92033 5.90205L 2.82987 6.89795ZM 11.1994 3.13935C 13.073 0.732283 14.6288 0.392322 15.6317 0.524673C 16.155 0.593737 16.5786 0.796753 16.8737 0.985757C 17.0206 1.07984 17.1329 1.16875 17.2067 1.23222C 17.2435 1.26387 17.2703 1.28892 17.2868 1.30477C 17.295 1.31269 17.3006 1.31828 17.3035 1.32121C 17.3049 1.32268 17.3057 1.32348 17.3058 1.32357C 17.3058 1.32361 17.3057 1.32348 17.3054 1.32316C 17.3053 1.32301 17.3051 1.3228 17.3048 1.32255C 17.3047 1.32243 17.3045 1.32221 17.3045 1.32214C 17.3042 1.32191 17.304 1.32166 17.668 0.978833C 18.0319 0.636001 18.0317 0.635731 18.0314 0.635449C 18.0313 0.635339 18.031 0.635045 18.0308 0.634825C 18.0304 0.634384 18.0299 0.633895 18.0294 0.633358C 18.0284 0.632285 18.0272 0.63102 18.0258 0.62957C 18.023 0.626669 18.0194 0.623025 18.0152 0.618682C 18.0066 0.609997 17.995 0.598506 17.9806 0.584567C 17.9516 0.556706 17.9109 0.518958 17.859 0.474226C 17.7552 0.38493 17.6053 0.26679 17.413 0.143676C 17.0299 -0.101709 16.4681 -0.373623 15.7625 -0.466731C 14.3077 -0.658722 12.4318 -0.0719889 10.4102 2.52509L 11.1994 3.13935ZM 17.668 0.978833C 17.2836 0.659043 17.2836 0.659086 17.2835 0.659144C 17.2835 0.659182 17.2834 0.659255 17.2834 0.659332C 17.2832 0.659487 17.2831 0.659701 17.2828 0.659973C 17.2824 0.660517 17.2817 0.661294 17.2809 0.662302C 17.2792 0.664319 17.2768 0.667261 17.2736 0.671114C 17.2672 0.67882 17.2578 0.690169 17.2456 0.705043C 17.2211 0.734789 17.1851 0.778635 17.1386 0.835629C 17.0457 0.949612 16.911 1.11622 16.7427 1.32784C 16.406 1.75099 15.9348 2.35455 15.395 3.07753C 14.3172 4.52127 12.9591 6.4507 11.855 8.37527L 12.7225 8.87285C 13.798 6.99797 15.1295 5.10479 16.1963 3.67578C 16.7289 2.96239 17.1938 2.36703 17.5252 1.95037C 17.6909 1.74208 17.8232 1.57855 17.9138 1.46737C 17.9591 1.41179 17.994 1.3693 18.0174 1.34086C 18.0291 1.32664 18.038 1.31593 18.0438 1.30885C 18.0468 1.30531 18.049 1.30268 18.0504 1.30097C 18.0511 1.30011 18.0516 1.29949 18.0519 1.2991C 18.0521 1.2989 18.0522 1.29876 18.0523 1.29869C 18.0523 1.29865 18.0523 1.29863 18.0523 1.29861C 18.0523 1.29861 18.0523 1.29862 17.668 0.978833ZM 11.8575 8.37105C 10.3387 10.9598 7.9392 12.9472 5.02966 13.652L 5.26508 14.6238C 8.47671 13.8459 11.0855 11.6631 12.72 8.87707L 11.8575 8.37105ZM 5.02619 13.6528C 4.93346 13.676 4.84071 13.6991 4.74796 13.7223C 4.6552 13.7455 4.56244 13.7686 4.46969 13.7918L 4.71204 14.762C 4.80477 14.7388 4.89752 14.7157 4.99027 14.6925C 5.08302 14.6693 5.17579 14.6462 5.26854 14.623L 5.02619 13.6528ZM 4.48851 13.7875C 2.3448 14.2358 0.552728 15.6299 -0.442358 17.519L 0.442403 17.9851C 1.30222 16.3527 2.84888 15.152 4.69321 14.7663L 4.48851 13.7875Z"/>
<path id="path10_stroke" d="M 3.82103 17.916C 3.7613 18.1856 3.93143 18.4526 4.20104 18.5124C 4.47064 18.5721 4.73762 18.402 4.79735 18.1324L 3.82103 17.916ZM 5.65401 11.9544L 6.14217 12.0625L 6.1717 11.9292L 6.12941 11.7994L 5.65401 11.9544ZM 1.7587 5.65609e-06L 2.2341 -0.154902L 2.0897 -0.598039L 1.63753 -0.485089L 1.7587 5.65609e-06ZM 0.0892988 3.98478L -0.404244 4.06488L -0.40177 4.08012L -0.398362 4.09518L 0.0892988 3.98478ZM 1.85148 11.769L 2.33706 11.8882L 2.36518 11.7737L 2.33914 11.6586L 1.85148 11.769ZM 0.16022 16.5613C 0.0943874 16.8295 0.258422 17.1003 0.526603 17.1661C 0.794783 17.2319 1.06555 17.0679 1.13139 16.7997L 0.16022 16.5613ZM 4.79735 18.1324L 6.14217 12.0625L 5.16584 11.8462L 3.82103 17.916L 4.79735 18.1324ZM 6.12941 11.7994L 2.2341 -0.154902L 1.2833 0.154913L 5.17861 12.1093L 6.12941 11.7994ZM 1.7587 5.65609e-06C 1.63753 -0.485089 1.63716 -0.484998 1.63679 -0.484904C 1.63665 -0.484869 1.63626 -0.484772 1.63599 -0.484703C 1.63544 -0.484565 1.63486 -0.484417 1.63424 -0.484258C 1.63301 -0.483942 1.63163 -0.483586 1.63012 -0.483189C 1.6271 -0.482395 1.62352 -0.481437 1.61942 -0.480305C 1.61121 -0.478041 1.60087 -0.475079 1.58855 -0.47134C 1.56394 -0.463867 1.53137 -0.453263 1.49214 -0.438891C 1.41381 -0.410192 1.30815 -0.36618 1.18596 -0.301595C 0.941815 -0.172554 0.627746 0.0407598 0.335826 0.381056C -0.262964 1.07907 -0.701847 2.23116 -0.404244 4.06488L 0.582841 3.90468C 0.323974 2.30963 0.719792 1.46933 1.09482 1.03215C 1.28981 0.804852 1.49743 0.664866 1.65325 0.582507C 1.73104 0.541392 1.79493 0.515179 1.83615 0.500077C 1.85669 0.492549 1.8714 0.48786 1.87912 0.485514C 1.88298 0.484344 1.88507 0.483765 1.88525 0.483716C 1.88533 0.483691 1.88494 0.483799 1.88406 0.484033C 1.88361 0.484149 1.88304 0.484297 1.88235 0.484476C 1.882 0.484565 1.88162 0.484661 1.88121 0.484766C 1.881 0.484818 1.88067 0.484902 1.88056 0.484928C 1.88022 0.485013 1.87987 0.485101 1.7587 5.65609e-06ZM -0.398362 4.09518L 1.36382 11.8794L 2.33914 11.6586L 0.576959 3.87438L -0.398362 4.09518ZM 1.3659 11.6498L 0.16022 16.5613L 1.13139 16.7997L 2.33706 11.8882L 1.3659 11.6498Z"/>
<path id="path11_stroke" d="M 2.6942 3.39962C 2.78046 3.66194 3.06304 3.80467 3.32536 3.71841C 3.58769 3.63215 3.73041 3.34957 3.64415 3.08724L 2.6942 3.39962ZM 2.10264 0L 2.57762 -0.156187L 2.4155 -0.649205L 1.92887 -0.468831L 2.10264 0ZM 0.201319 4.91147L 0.692308 4.81697L 0.689573 4.80276L 0.686021 4.78873L 0.201319 4.91147ZM 1.82436 13.3444L 2.30509 13.4819L 2.33791 13.3671L 2.31535 13.2499L 1.82436 13.3444ZM 0.0452279 17.7477C -0.0306898 18.0132 0.122998 18.29 0.3885 18.3659C 0.654002 18.4418 0.930777 18.2882 1.00669 18.0226L 0.0452279 17.7477ZM 3.64415 3.08724L 2.57762 -0.156187L 1.62766 0.156187L 2.6942 3.39962L 3.64415 3.08724ZM 2.10264 0C 1.92887 -0.468831 1.92856 -0.468717 1.92824 -0.4686C 1.92812 -0.468555 1.92779 -0.468432 1.92755 -0.468342C 1.92707 -0.468162 1.92654 -0.467964 1.92597 -0.467749C 1.92483 -0.467319 1.92351 -0.466819 1.92201 -0.466247C 1.91902 -0.465105 1.91534 -0.463678 1.91098 -0.461959C 1.90227 -0.458523 1.89086 -0.453918 1.87698 -0.448087C 1.84922 -0.43643 1.81148 -0.419839 1.76546 -0.397853C 1.67354 -0.353941 1.54784 -0.288133 1.40237 -0.196613C 1.11229 -0.0141274 0.737321 0.27455 0.396194 0.701428C -0.30271 1.57602 -0.807043 2.96619 -0.283383 5.0342L 0.686021 4.78873C 0.235858 3.01097 0.682184 1.9454 1.1774 1.3257C 1.43333 1.00544 1.71628 0.787332 1.93486 0.649821C 2.04371 0.581342 2.13503 0.533848 2.19654 0.504458C 2.22724 0.489793 2.25031 0.479733 2.2642 0.473901C 2.27113 0.470988 2.27576 0.469139 2.27786 0.468308C 2.27892 0.467893 2.27934 0.467733 2.27911 0.467821C 2.27899 0.467866 2.27871 0.467973 2.27826 0.468141C 2.27804 0.468225 2.27777 0.468325 2.27746 0.46844C 2.27731 0.468497 2.27705 0.468595 2.27697 0.468624C 2.2767 0.468726 2.27641 0.468831 2.10264 0ZM -0.28967 5.00597L 1.33337 13.4389L 2.31535 13.2499L 0.692308 4.81697L -0.28967 5.00597ZM 1.34363 13.2069L 0.0452279 17.7477L 1.00669 18.0226L 2.30509 13.4819L 1.34363 13.2069Z"/>
<path id="path12_stroke" d="M 2.54945 0.416143C 2.77928 0.263064 2.8415 -0.0473445 2.68842 -0.277174C 2.53534 -0.507003 2.22493 -0.569221 1.9951 -0.416143L 2.54945 0.416143ZM 2.13314 0.0926751L 1.85596 -0.323468L 1.84326 -0.315008L 1.8311 -0.305789L 2.13314 0.0926751ZM 0.417376 4.44812L 0.909023 4.357L 0.908169 4.35261L 0.417376 4.44812ZM 1.34483 9.45229L 1.82501 9.59166L 1.85806 9.47778L 1.83645 9.36118L 1.34483 9.45229ZM -0.480172 13.9464C -0.557143 14.2116 -0.404555 14.489 -0.139357 14.5659C 0.125841 14.6429 0.403224 14.4903 0.480195 14.2251L -0.480172 13.9464ZM 1.9951 -0.416143L 1.85596 -0.323468L 2.41031 0.508818L 2.54945 0.416143L 1.9951 -0.416143ZM 1.8311 -0.305789C 0.344336 0.821181 -0.43679 2.67638 -0.0734173 4.54363L 0.908169 4.35261C 0.622325 2.88376 1.23233 1.4029 2.43517 0.49114L 1.8311 -0.305789ZM -0.074252 4.53924L 0.853199 9.54341L 1.83645 9.36118L 0.909004 4.35701L -0.074252 4.53924ZM 0.864643 9.31293L -0.480172 13.9464L 0.480195 14.2251L 1.82501 9.59166L 0.864643 9.31293Z"/>
<path id="path13_stroke" d="M 1.44623 7.44556C 1.18242 7.36395 0.902401 7.51164 0.820782 7.77544C 0.739164 8.03925 0.886854 8.31927 1.15066 8.40089L 1.44623 7.44556ZM 10.4338 10.7496L 10.286 11.2273C 10.5347 11.3042 10.8007 11.1776 10.8978 10.9361L 10.4338 10.7496ZM 12.8916 4.63347L 13.3555 4.81991C 13.4062 4.69388 13.4034 4.55267 13.3478 4.42876C 13.2921 4.30484 13.1885 4.20888 13.0607 4.16294L 12.8916 4.63347ZM -1.13214e-05 0L 0.169106 -0.470531C 0.0159229 -0.525588 -0.154473 -0.502631 -0.287623 -0.408998C -0.420774 -0.315365 -0.500011 -0.162777 -0.500011 0L -1.13214e-05 0ZM -0.500011 3.1044C -0.500011 3.38055 -0.276154 3.6044 -1.13214e-05 3.6044C 0.276131 3.6044 0.499989 3.38055 0.499989 3.1044L -0.500011 3.1044ZM 1.15066 8.40089L 10.286 11.2273L 10.5816 10.272L 1.44623 7.44556L 1.15066 8.40089ZM 10.8978 10.9361L 13.3555 4.81991L 12.4276 4.44704L 9.96987 10.5632L 10.8978 10.9361ZM 13.0607 4.16294L 0.169106 -0.470531L -0.169129 0.470531L 12.7225 5.104L 13.0607 4.16294ZM -0.500011 0L -0.500011 3.1044L 0.499989 3.1044L 0.499989 0L -0.500011 0Z"/>
<path id="path14_stroke" d="M 11.6587 4.64164C 11.9191 4.73348 12.2047 4.59681 12.2965 4.33639C 12.3884 4.07597 12.2517 3.7904 11.9913 3.69856L 11.6587 4.64164ZM 0.166278 -0.47156C -0.0941452 -0.563399 -0.37971 -0.426735 -0.471549 -0.166312C -0.563388 0.0941113 -0.426724 0.379676 -0.166301 0.471515L 0.166278 -0.47156ZM 11.9913 3.69856L 0.166278 -0.47156L -0.166301 0.471515L 11.6587 4.64164L 11.9913 3.69856Z"/>
<path id="path15_stroke" d="M 26.6553 13.5856C 26.6553 20.8128 20.7999 26.6712 13.5776 26.6712L 13.5776 27.6712C 21.3528 27.6712 27.6553 21.3646 27.6553 13.5856L 26.6553 13.5856ZM 13.5776 26.6712C 6.35532 26.6712 0.500023 20.8128 0.500023 13.5856L -0.499977 13.5856C -0.499977 21.3646 5.80248 27.6712 13.5776 27.6712L 13.5776 26.6712ZM 0.500023 13.5856C 0.500023 6.35834 6.35532 0.500006 13.5776 0.500006L 13.5776 -0.499994C 5.80248 -0.499994 -0.499977 5.80661 -0.499977 13.5856L 0.500023 13.5856ZM 13.5776 0.500006C 20.7999 0.500006 26.6553 6.35835 26.6553 13.5856L 27.6553 13.5856C 27.6553 5.80661 21.3528 -0.499994 13.5776 -0.499994L 13.5776 0.500006Z"/>
<path id="path16_stroke" d="M 20.0894 10.2863C 20.0894 15.6907 15.7046 20.0726 10.2947 20.0726L 10.2947 21.0726C 16.2561 21.0726 21.0894 16.2438 21.0894 10.2863L 20.0894 10.2863ZM 10.2947 20.0726C 4.88485 20.0726 0.500011 15.6908 0.500011 10.2863L -0.499989 10.2863C -0.499989 16.2438 4.33333 21.0726 10.2947 21.0726L 10.2947 20.0726ZM 0.500011 10.2863C 0.500011 4.88186 4.88485 0.499994 10.2947 0.499994L 10.2947 -0.500006C 4.33333 -0.500006 -0.499989 4.32881 -0.499989 10.2863L 0.500011 10.2863ZM 10.2947 0.499994C 15.7046 0.499994 20.0894 4.88187 20.0894 10.2863L 21.0894 10.2863C 21.0894 4.32881 16.2561 -0.500006 10.2947 -0.500006L 10.2947 0.499994Z"/>
</defs>
</svg>
