<svg width="58" height="57" viewBox="0 0 58 57" version="1.1" xmlns="http://www.w3.org/2000/svg" xmlns:xlink="http://www.w3.org/1999/xlink">
<title>Group</title>
<desc>Created using Figma</desc>
<g id="Canvas" transform="translate(-1798 -1570)">
<g id="Group">
<g id="Group">
<g id="Vector">
<use xlink:href="#path0_stroke" transform="translate(1799 1611.64)" fill="#FFFFFF"/>
</g>
<g id="Vector">
<use xlink:href="#path1_stroke" transform="translate(1806.43 1611.59)" fill="#FFFFFF"/>
</g>
<g id="Vector">
<use xlink:href="#path2_stroke" transform="translate(1808.47 1619.99)" fill="#FFFFFF"/>
</g>
<g id="Vector">
<use xlink:href="#path3_stroke" transform="translate(1815.37 1611.64)" fill="#FFFFFF"/>
</g>
<g id="Vector">
<use xlink:href="#path4_stroke" transform="translate(1810.95 1611.59)" fill="#FFFFFF"/>
</g>
<g id="Vector">
<use xlink:href="#path5_stroke" transform="translate(1808.86 1616.22)" fill="#FFFFFF"/>
</g>
<g id="Vector">
<use xlink:href="#path6_stroke" transform="translate(1811.82 1619.99)" fill="#FFFFFF"/>
</g>
<g id="Vector">
<use xlink:href="#path7_stroke" transform="translate(1815.42 1622.18)" fill="#FFFFFF"/>
</g>
<g id="Vector">
<use xlink:href="#path8_stroke" transform="translate(1806.19 1599.29)" fill="#FFFFFF"/>
</g>
</g>
<g id="Group">
<g id="Vector">
<use xlink:href="#path9_stroke" transform="translate(1831.1 1583.35)" fill="#FFFFFF"/>
</g>
<g id="Vector">
<use xlink:href="#path10_stroke" transform="translate(1838.54 1583.35)" fill="#FFFFFF"/>
</g>
<g id="Vector">
<use xlink:href="#path11_stroke" transform="translate(1840.58 1591.7)" fill="#FFFFFF"/>
</g>
<g id="Vector">
<use xlink:href="#path12_stroke" transform="translate(1847.52 1583.35)" fill="#FFFFFF"/>
</g>
<g id="Vector">
<use xlink:href="#path13_stroke" transform="translate(1843.05 1583.35)" fill="#FFFFFF"/>
</g>
<g id="Vector">
<use xlink:href="#path14_stroke" transform="translate(1841.01 1587.98)" fill="#FFFFFF"/>
</g>
<g id="Vector">
<use xlink:href="#path15_stroke" transform="translate(1843.93 1591.7)" fill="#FFFFFF"/>
</g>
<g id="Vector">
<use xlink:href="#path16_stroke" transform="translate(1847.52 1593.9)" fill="#FFFFFF"/>
</g>
<g id="Vector">
<use xlink:href="#path17_stroke" transform="translate(1838.29 1571)" fill="#FFFFFF"/>
</g>
</g>
<g id="Vector">
<use xlink:href="#path18_stroke" transform="translate(1835.48 1605.68)" fill="#FFFFFF"/>
</g>
<g id="Vector">
<use xlink:href="#path19_stroke" transform="translate(1809.25 1580.3)" fill="#FFFFFF"/>
</g>
</g>
</g>
<defs>
<path id="path0_stroke" d="M 0.922832 4.19775L 0.653242 3.77666C 0.524014 3.85939 0.43993 3.99688 0.425156 4.14961L 0.922832 4.19775ZM 0.499953 14.3582C 0.499953 14.2318 0.554155 13.5521 0.642222 12.5529C 0.728619 11.5727 0.843878 10.3231 0.959212 9.09207C 1.07453 7.86121 1.18986 6.64965 1.27636 5.74575C 1.31961 5.29381 1.35565 4.91882 1.38088 4.65682C 1.39349 4.52582 1.4034 4.42307 1.41015 4.35308C 1.41353 4.31809 1.41612 4.29128 1.41787 4.27323C 1.41874 4.2642 1.4194 4.25737 1.41984 4.25279C 1.42006 4.2505 1.42023 4.24877 1.42034 4.24762C 1.4204 4.24704 1.42044 4.24661 1.42047 4.24632C 1.42048 4.24618 1.42049 4.24607 1.4205 4.246C 1.42051 4.24593 1.42051 4.24589 0.922832 4.19775C 0.425156 4.14961 0.425152 4.14965 0.425145 4.14972C 0.425138 4.14979 0.425127 4.1499 0.425113 4.15005C 0.425085 4.15034 0.425042 4.15078 0.424986 4.15136C 0.424874 4.15252 0.424707 4.15425 0.424484 4.15655C 0.42404 4.16115 0.423377 4.168 0.422503 4.17704C 0.420756 4.19513 0.418163 4.22197 0.414781 4.257C 0.408018 4.32707 0.398101 4.42989 0.385479 4.56098C 0.360236 4.82314 0.324177 5.19833 0.280906 5.65048C 0.194368 6.55477 0.0789742 7.76705 -0.0364274 8.99879C -0.151813 10.2304 -0.267274 11.4821 -0.353916 12.4651C -0.43889 13.4292 -0.500047 14.1745 -0.500047 14.3582L 0.499953 14.3582ZM 1.19242 4.61885L 7.74922 0.421107L 7.21004 -0.421084L 0.653242 3.77666L 1.19242 4.61885Z"/>
<path id="path1_stroke" d="M -2.37153e-05 -5.82295e-06L 0.357762 -0.349275C 0.210261 -0.500373 -0.01626 -0.542522 -0.208237 -0.45459C -0.400214 -0.366659 -0.516258 -0.167606 -0.49819 0.0427764L -2.37153e-05 -5.82295e-06ZM 0.680012 7.91849L 0.181845 7.96127C 0.197895 8.14815 0.317193 8.31033 0.490819 8.38131C 0.664446 8.45228 0.863192 8.42011 1.00556 8.29798L 0.680012 7.91849ZM 4.51691 4.62706L 4.84245 5.00656C 4.94734 4.91658 5.01031 4.78721 5.01642 4.64916C 5.02252 4.5111 4.97122 4.37667 4.87469 4.27779L 4.51691 4.62706ZM -0.49819 0.0427764L 0.181845 7.96127L 1.17818 7.8757L 0.498143 -0.0427881L -0.49819 0.0427764ZM 1.00556 8.29798L 4.84245 5.00656L 4.19136 4.24756L 0.354465 7.53899L 1.00556 8.29798ZM 4.87469 4.27779L 0.357762 -0.349275L -0.35781 0.349264L 4.15912 4.97633L 4.87469 4.27779Z"/>
<path id="path2_stroke" d="M 2.03833 0.125194C 2.10746 -0.142153 1.94678 -0.414927 1.67943 -0.484064C 1.41209 -0.553201 1.13931 -0.392519 1.07018 -0.125171L 2.03833 0.125194ZM -0.484123 5.88522C -0.55326 6.15257 -0.392578 6.42535 -0.12523 6.49448C 0.142117 6.56362 0.414892 6.40294 0.484028 6.13559L -0.484123 5.88522ZM 1.07018 -0.125171L -0.484123 5.88522L 0.484028 6.13559L 2.03833 0.125194L 1.07018 -0.125171Z"/>
<path id="path3_stroke" d="M 6.55685 4.19775L 7.05452 4.14961C 7.03975 3.99688 6.95567 3.85939 6.82644 3.77666L 6.55685 4.19775ZM 7.97961 14.3582C 7.97961 14.1745 7.91846 13.4292 7.8335 12.4651C 7.74686 11.4821 7.63142 10.2304 7.51605 8.99879C 7.40066 7.76705 7.28528 6.55478 7.19875 5.65049C 7.15549 5.19833 7.11943 4.82314 7.0942 4.56098C 7.08158 4.4299 7.07166 4.32707 7.0649 4.25701C 7.06152 4.22198 7.05892 4.19514 7.05718 4.17705C 7.0563 4.16801 7.05564 4.16115 7.0552 4.15656C 7.05497 4.15426 7.05481 4.15252 7.05469 4.15136C 7.05464 4.15078 7.05459 4.15035 7.05457 4.15006C 7.05455 4.14991 7.05454 4.1498 7.05453 4.14973C 7.05453 4.14965 7.05452 4.14961 6.55685 4.19775C 6.05917 4.24589 6.05917 4.24592 6.05918 4.24599C 6.05919 4.24607 6.0592 4.24617 6.05921 4.24632C 6.05924 4.2466 6.05928 4.24704 6.05934 4.24761C 6.05945 4.24876 6.05961 4.25049 6.05984 4.25278C 6.06028 4.25736 6.06094 4.2642 6.06181 4.27322C 6.06356 4.29128 6.06614 4.31808 6.06952 4.35308C 6.07628 4.42307 6.08619 4.52582 6.0988 4.65681C 6.12402 4.91881 6.16006 5.2938 6.2033 5.74574C 6.28979 6.64964 6.4051 7.86121 6.52041 9.09206C 6.63573 10.3231 6.75097 11.5727 6.83736 12.5529C 6.92541 13.5521 6.97961 14.2318 6.97961 14.3582L 7.97961 14.3582ZM 6.82644 3.77666L 0.269637 -0.421084L -0.269543 0.421107L 6.28726 4.61885L 6.82644 3.77666Z"/>
<path id="path4_stroke" d="M 4.46831 -5.82295e-06L 4.96648 0.042769C 4.98459 -0.168106 4.86796 -0.367538 4.67529 -0.455153C 4.48263 -0.542769 4.25567 -0.499584 4.10864 -0.347335L 4.46831 -5.82295e-06ZM 3.7884 7.91849L 3.46047 8.29593C 3.60249 8.41932 3.80176 8.45254 3.97614 8.3819C 4.15051 8.31126 4.27047 8.14871 4.28656 7.96126L 3.7884 7.91849ZM 0 4.62706L -0.35967 4.27973C -0.454958 4.3784 -0.505523 4.51189 -0.499521 4.64894C -0.49352 4.78598 -0.431479 4.91454 -0.327929 5.0045L 0 4.62706ZM 3.97015 -0.0427807L 3.29023 7.87571L 4.28656 7.96126L 4.96648 0.042769L 3.97015 -0.0427807ZM 4.11633 7.54104L 0.327929 4.24962L -0.327929 5.0045L 3.46047 8.29593L 4.11633 7.54104ZM 0.35967 4.97439L 4.82798 0.347324L 4.10864 -0.347335L -0.35967 4.27973L 0.35967 4.97439Z"/>
<path id="path5_stroke" d="M 2.08846 0L 2.41562 -0.378112C 2.22946 -0.539186 1.95375 -0.54079 1.76573 -0.381893L 2.08846 0ZM -2.37153e-05 1.76497L -0.322759 1.38307C -0.508069 1.53968 -0.554209 1.80672 -0.432192 2.01642L -2.37153e-05 1.76497ZM 1.1657 3.76844L 0.733533 4.0199C 0.823067 4.17378 0.98767 4.26844 1.1657 4.26844L 1.1657 3.76844ZM 2.96273 3.76844L 2.96273 4.26844C 3.14076 4.26844 3.30537 4.17377 3.39491 4.01988L 2.96273 3.76844ZM 4.12833 1.76497L 4.56051 2.01641C 4.68141 1.8086 4.6373 1.54416 4.45549 1.38685L 4.12833 1.76497ZM 1.76573 -0.381893L -0.322759 1.38307L 0.322711 2.14686L 2.4112 0.381893L 1.76573 -0.381893ZM -0.432192 2.01642L 0.733533 4.0199L 1.59787 3.51698L 0.432144 1.51351L -0.432192 2.01642ZM 1.1657 4.26844L 2.08846 4.26844L 2.08846 3.26844L 1.1657 3.26844L 1.1657 4.26844ZM 2.08846 4.26844L 2.96273 4.26844L 2.96273 3.26844L 2.08846 3.26844L 2.08846 4.26844ZM 3.39491 4.01988L 4.56051 2.01641L 3.69615 1.51353L 2.53055 3.517L 3.39491 4.01988ZM 4.45549 1.38685L 2.41562 -0.378112L 1.76131 0.378112L 3.80118 2.14308L 4.45549 1.38685Z"/>
<path id="path6_stroke" d="M 0.484102 -0.125162C 0.41497 -0.392511 0.142199 -0.553198 -0.12515 -0.484066C -0.392499 -0.414935 -0.553186 -0.142163 -0.484054 0.125186L 0.484102 -0.125162ZM 1.07013 6.13558C 1.13926 6.40293 1.41203 6.56362 1.67938 6.49449C 1.94673 6.42535 2.10741 6.15258 2.03828 5.88523L 1.07013 6.13558ZM -0.484054 0.125186L 1.07013 6.13558L 2.03828 5.88523L 0.484102 -0.125162L -0.484054 0.125186Z"/>
<path id="path7_stroke" d="M -2.37153e-05 -0.5C -0.276166 -0.5 -0.500024 -0.276142 -0.500024 0C -0.500024 0.276142 -0.276166 0.5 -2.37153e-05 0.5L -2.37153e-05 -0.5ZM 3.49691 0.5C 3.77305 0.5 3.99691 0.276142 3.99691 0C 3.99691 -0.276142 3.77305 -0.5 3.49691 -0.5L 3.49691 0.5ZM -2.37153e-05 0.5L 3.49691 0.5L 3.49691 -0.5L -2.37153e-05 -0.5L -2.37153e-05 0.5Z"/>
<path id="path8_stroke" d="M 10.0195 5.7242C 10.0195 2.33982 7.73889 -0.5 4.75975 -0.5L 4.75975 0.5C 7.02605 0.5 9.01953 2.71655 9.01953 5.7242L 10.0195 5.7242ZM 4.75975 -0.5C 1.77819 -0.5 -0.500024 2.39043 -0.500024 5.7242L 0.499976 5.7242C 0.499976 2.76135 2.49587 0.5 4.75975 0.5L 4.75975 -0.5ZM -0.500024 5.7242C -0.500024 9.10857 1.78061 11.9484 4.75975 11.9484L 4.75975 10.9484C 2.49345 10.9484 0.499976 8.73184 0.499976 5.7242L -0.500024 5.7242ZM 4.75975 11.9484C 7.74131 11.9484 10.0195 9.05797 10.0195 5.7242L 9.01953 5.7242C 9.01953 8.68705 7.02363 10.9484 4.75975 10.9484L 4.75975 11.9484Z"/>
<path id="path9_stroke" d="M 0.922761 4.19776L 0.65317 3.77666C 0.523941 3.8594 0.439856 3.99689 0.425084 4.14962L 0.922761 4.19776ZM 0.5 14.3582C 0.5 14.2318 0.554196 13.5521 0.642251 12.5529C 0.728638 11.5727 0.843881 10.3231 0.959201 9.09207C 1.0745 7.86121 1.18982 6.64965 1.27631 5.74575C 1.31955 5.29381 1.35559 4.91882 1.38081 4.65682C 1.39342 4.52582 1.40333 4.42307 1.41009 4.35308C 1.41346 4.31809 1.41605 4.29128 1.4178 4.27323C 1.41867 4.2642 1.41933 4.25736 1.41977 4.25279C 1.41999 4.2505 1.42016 4.24877 1.42027 4.24762C 1.42033 4.24704 1.42037 4.24661 1.4204 4.24632C 1.42041 4.24618 1.42042 4.24607 1.42043 4.246C 1.42044 4.24593 1.42044 4.24589 0.922761 4.19776C 0.425084 4.14962 0.42508 4.14966 0.425073 4.14973C 0.425066 4.14981 0.425055 4.14992 0.425041 4.15006C 0.425013 4.15035 0.424971 4.15079 0.424915 4.15137C 0.424802 4.15253 0.424635 4.15426 0.424413 4.15656C 0.423968 4.16116 0.423306 4.16801 0.422432 4.17706C 0.420684 4.19514 0.418092 4.22198 0.414711 4.25702C 0.407949 4.32708 0.398033 4.42991 0.385413 4.56099C 0.360173 4.82315 0.324118 5.19834 0.280853 5.6505C 0.194326 6.55478 0.078947 7.76706 -0.0364398 8.9988C -0.15181 10.2304 -0.267257 11.4821 -0.353888 12.4651C -0.438851 13.4292 -0.5 14.1745 -0.5 14.3582L 0.5 14.3582ZM 1.19235 4.61885L 7.74915 0.421083L 7.20997 -0.421106L 0.65317 3.77666L 1.19235 4.61885Z"/>
<path id="path10_stroke" d="M 2.37153e-05 -1.16459e-05L 0.35781 -0.349281C 0.210276 -0.500412 -0.0163069 -0.542543 -0.208304 -0.454544C -0.400301 -0.366545 -0.516298 -0.167398 -0.498121 0.0430206L 2.37153e-05 -1.16459e-05ZM 0.679941 7.87076L 0.181796 7.91379C 0.19788 8.09998 0.316449 8.26165 0.489194 8.33294C 0.661939 8.40424 0.860022 8.37325 1.00274 8.2526L 0.679941 7.87076ZM 4.51695 4.62705L 4.83975 5.00889C 4.94576 4.91927 5.00975 4.78961 5.01638 4.65095C 5.02302 4.5123 4.97171 4.37712 4.87474 4.27778L 4.51695 4.62705ZM -0.498121 0.0430206L 0.181796 7.91379L 1.17809 7.82773L 0.498168 -0.0430439L -0.498121 0.0430206ZM 1.00274 8.2526L 4.83975 5.00889L 4.19416 4.24521L 0.357143 7.48892L 1.00274 8.2526ZM 4.87474 4.27778L 0.35781 -0.349281L -0.357762 0.349258L 4.15917 4.97632L 4.87474 4.27778Z"/>
<path id="path11_stroke" d="M 2.03826 0.125162C 2.10739 -0.142187 1.9467 -0.414958 1.67935 -0.48409C 1.41201 -0.553221 1.13923 -0.392534 1.0701 -0.125185L 2.03826 0.125162ZM -0.484078 5.88524C -0.553209 6.15259 -0.392522 6.42536 -0.125173 6.49449C 0.142176 6.56362 0.414947 6.40294 0.484078 6.13559L -0.484078 5.88524ZM 1.0701 -0.125185L -0.484078 5.88524L 0.484078 6.13559L 2.03826 0.125162L 1.0701 -0.125185Z"/>
<path id="path12_stroke" d="M 6.55682 4.19776L 7.0545 4.14962C 7.03973 3.99689 6.95564 3.8594 6.82641 3.77666L 6.55682 4.19776ZM 7.97958 14.3582C 7.97958 14.1745 7.91844 13.4292 7.83347 12.4651C 7.74684 11.4821 7.63139 10.2304 7.51602 8.9988C 7.40064 7.76706 7.28526 6.55478 7.19873 5.6505C 7.15547 5.19834 7.11941 4.82315 7.09417 4.56099C 7.08155 4.42991 7.07164 4.32708 7.06487 4.25702C 7.06149 4.22198 7.0589 4.19514 7.05715 4.17706C 7.05628 4.16801 7.05562 4.16116 7.05517 4.15656C 7.05495 4.15426 7.05478 4.15253 7.05467 4.15137C 7.05461 4.15079 7.05457 4.15035 7.05454 4.15006C 7.05453 4.14992 7.05452 4.14981 7.05451 4.14973C 7.0545 4.14966 7.0545 4.14962 6.55682 4.19776C 6.05915 4.24589 6.05915 4.24593 6.05916 4.246C 6.05916 4.24607 6.05917 4.24618 6.05919 4.24632C 6.05921 4.24661 6.05926 4.24704 6.05931 4.24762C 6.05942 4.24877 6.05959 4.2505 6.05981 4.25279C 6.06025 4.25736 6.06092 4.2642 6.06179 4.27323C 6.06353 4.29128 6.06612 4.31809 6.0695 4.35308C 6.07625 4.42307 6.08616 4.52582 6.09877 4.65682C 6.124 4.91882 6.16003 5.29381 6.20328 5.74575C 6.28977 6.64965 6.40508 7.86121 6.52038 9.09207C 6.6357 10.3231 6.75095 11.5727 6.83733 12.5529C 6.92539 13.5521 6.97958 14.2318 6.97958 14.3582L 7.97958 14.3582ZM 6.82641 3.77666L 0.269615 -0.421106L -0.269568 0.421083L 6.28723 4.61885L 6.82641 3.77666Z"/>
<path id="path13_stroke" d="M 4.46836 -1.16459e-05L 4.96651 0.0430281C 4.98473 -0.167886 4.86815 -0.367417 4.67546 -0.455104C 4.48278 -0.542791 4.25575 -0.499625 4.10869 -0.347341L 4.46836 -1.16459e-05ZM 3.78833 7.87076L 3.46313 8.25056C 3.60551 8.37247 3.80412 8.40451 3.97761 8.33355C 4.1511 8.26259 4.27033 8.10055 4.28647 7.9138L 3.78833 7.87076ZM 4.74306e-05 4.62705L -0.359622 4.27972C -0.455346 4.37885 -0.505917 4.51308 -0.499392 4.65073C -0.492867 4.78837 -0.429824 4.91722 -0.325152 5.00685L 4.74306e-05 4.62705ZM 3.97022 -0.0430513L 3.29018 7.82772L 4.28647 7.9138L 4.96651 0.0430281L 3.97022 -0.0430513ZM 4.11353 7.49096L 0.325247 4.24726L -0.325152 5.00685L 3.46313 8.25056L 4.11353 7.49096ZM 0.359717 4.97438L 4.82803 0.347318L 4.10869 -0.347341L -0.359622 4.27972L 0.359717 4.97438Z"/>
<path id="path14_stroke" d="M 2.03994 -5.82295e-06L 2.36195 -0.382508C 2.17586 -0.539168 1.90403 -0.539172 1.71794 -0.382518L 2.03994 -5.82295e-06ZM -4.74306e-05 1.71727L -0.322049 1.33476C -0.505296 1.48902 -0.5534 1.75157 -0.436748 1.96077L -4.74306e-05 1.71727ZM 1.11706 3.72072L 0.68036 3.96422C 0.768656 4.12257 0.935756 4.22072 1.11706 4.22072L 1.11706 3.72072ZM 2.91409 3.72072L 2.91409 4.22072C 3.09212 4.22072 3.25672 4.12605 3.34625 3.97218L 2.91409 3.72072ZM 4.07981 1.71727L 4.51198 1.96873C 4.63418 1.75872 4.5877 1.49125 4.40182 1.33477L 4.07981 1.71727ZM 1.71794 -0.382518L -0.322049 1.33476L 0.321954 2.09978L 2.36194 0.382506L 1.71794 -0.382518ZM -0.436748 1.96077L 0.68036 3.96422L 1.55376 3.47721L 0.436653 1.47377L -0.436748 1.96077ZM 1.11706 4.22072L 2.03994 4.22072L 2.03994 3.22072L 1.11706 3.22072L 1.11706 4.22072ZM 2.03994 4.22072L 2.91409 4.22072L 2.91409 3.22072L 2.03994 3.22072L 2.03994 4.22072ZM 3.34625 3.97218L 4.51198 1.96873L 3.64764 1.46581L 2.48192 3.46926L 3.34625 3.97218ZM 4.40182 1.33477L 2.36195 -0.382508L 1.71793 0.382497L 3.7578 2.09977L 4.40182 1.33477Z"/>
<path id="path15_stroke" d="M 0.484028 -0.125194C 0.414892 -0.392542 0.142118 -0.553224 -0.12523 -0.484087C -0.392577 -0.414951 -0.553259 -0.142177 -0.484123 0.125171L 0.484028 -0.125194ZM 1.07018 6.1356C 1.13931 6.40294 1.41209 6.56362 1.67943 6.49449C 1.94678 6.42535 2.10746 6.15258 2.03833 5.88523L 1.07018 6.1356ZM -0.484123 0.125171L 1.07018 6.1356L 2.03833 5.88523L 0.484028 -0.125194L -0.484123 0.125171Z"/>
<path id="path16_stroke" d="M 2.37153e-05 -0.499988C -0.276119 -0.499988 -0.499976 -0.27613 -0.499976 1.2207e-05C -0.499976 0.276155 -0.276119 0.500012 2.37153e-05 0.500012L 2.37153e-05 -0.499988ZM 3.49696 0.500012C 3.7731 0.500012 3.99696 0.276155 3.99696 1.2207e-05C 3.99696 -0.27613 3.7731 -0.499988 3.49696 -0.499988L 3.49696 0.500012ZM 2.37153e-05 0.500012L 3.49696 0.500012L 3.49696 -0.499988L 2.37153e-05 -0.499988L 2.37153e-05 0.500012Z"/>
<path id="path17_stroke" d="M 9.01945 5.7242C 9.01945 8.69979 7.02998 10.9484 4.7598 10.9484L 4.7598 11.9484C 7.74709 11.9484 10.0195 9.07139 10.0195 5.7242L 9.01945 5.7242ZM 4.7598 10.9484C 2.4896 10.9484 0.500024 8.69978 0.500024 5.7242L -0.499976 5.7242C -0.499976 9.07141 1.77252 11.9484 4.7598 11.9484L 4.7598 10.9484ZM 0.500024 5.7242C 0.500024 2.74863 2.4896 0.500006 4.7598 0.500006L 4.7598 -0.499994C 1.77252 -0.499994 -0.499976 2.377 -0.499976 5.7242L 0.500024 5.7242ZM 4.7598 0.500006C 7.02998 0.500006 9.01945 2.74861 9.01945 5.7242L 10.0195 5.7242C 10.0195 2.37702 7.74709 -0.499994 4.7598 -0.499994L 4.7598 0.500006Z"/>
<path id="path18_stroke" d="M 0.134242 14.0766C 3.80525 13.0535 11.5236 9.77958 14.6575 0.154817L 13.7067 -0.154794C 10.7209 9.0149 3.38295 12.133 -0.134242 13.1133L 0.134242 14.0766Z"/>
<path id="path19_stroke" d="M 0.48035 14.0677C 1.47621 10.6211 4.64799 3.41185 13.992 0.47703L 13.6923 -0.477018C 3.90014 2.59857 0.563682 10.1768 -0.48035 13.7901L 0.48035 14.0677Z"/>
</defs>
</svg>
