<svg width="116" height="116" viewBox="0 0 116 116" version="1.1" xmlns="http://www.w3.org/2000/svg" xmlns:xlink="http://www.w3.org/1999/xlink">
<title>Group</title>
<desc>Created using Figma</desc>
<g id="Canvas" transform="translate(-1975 -2684)">
<g id="Group">
<g id="Group">
<g id="Vector">
<use xlink:href="#path0_fill" transform="translate(1993.94 2750.89)" fill="#570004"/>
</g>
<g id="Vector">
<use xlink:href="#path1_fill" transform="translate(1996.67 2753.82)" fill="#DB0000"/>
</g>
<g id="Vector">
<use xlink:href="#path2_fill" transform="translate(2018.97 2755.71)" fill="#AD0000"/>
</g>
<g id="Vector">
<use xlink:href="#path3_fill" transform="translate(1998.76 2759)" fill="#FFDA91"/>
</g>
<g id="Vector">
<use xlink:href="#path4_fill" transform="translate(2017.38 2774.38)" fill="#AD0000"/>
</g>
</g>
<g id="Group">
<g id="Vector">
<use xlink:href="#path5_fill" transform="translate(2042.72 2746.96)" fill="#570004"/>
</g>
<g id="Vector">
<use xlink:href="#path6_fill" transform="translate(2045.87 2750.01)" fill="#DB0000"/>
</g>
<g id="Vector">
<use xlink:href="#path7_fill" transform="translate(2058.62 2752.66)" fill="#AD0000"/>
</g>
<g id="Vector">
<use xlink:href="#path8_fill" transform="translate(2075.82 2756.68)" fill="#FFDA91"/>
</g>
<g id="Vector">
<use xlink:href="#path9_fill" transform="translate(2047.58 2770.24)" fill="#AD0000"/>
</g>
</g>
<g id="Vector">
<use xlink:href="#path10_fill" transform="translate(2023.49 2684)" fill="#570004"/>
</g>
<g id="Vector">
<use xlink:href="#path11_fill" transform="translate(1975 2684)" fill="#356612"/>
</g>
<g id="Vector">
<use xlink:href="#path12_fill" transform="translate(1980.73 2687.05)" fill="#72B740"/>
</g>
<g id="Group">
<g id="Vector">
<use xlink:href="#path13_fill" transform="translate(1978.82 2685.02)" fill="#356612"/>
</g>
</g>
</g>
</g>
<defs>
<path id="path0_fill" d="M 47.9 16.3807C 49.4279 29.5828 39.4969 42.7848 26.5104 47.8625C 13.1419 51.9247 1.30125 45.8314 0.15538 32.6294C -1.37245 19.4273 8.55843 6.22524 21.545 1.14752C 34.5315 -2.91466 46.3722 4.19415 47.9 16.3807Z"/>
<path id="path1_fill" d="M 42.1199 14.4647C 43.2657 25.6357 34.8627 37.8223 23.404 41.8845C 11.9452 45.9466 1.25045 39.8533 0.104576 28.6824C -1.0413 17.5114 7.36177 5.32487 18.8205 1.2627C 30.6612 -2.79948 40.974 3.29374 42.1199 14.4647Z"/>
<path id="path2_fill" d="M 12.1768 6.49167C 11.0309 8.52275 7.59331 9.53827 4.1557 8.52272C 1.10004 7.50718 -0.809743 4.46056 0.336128 2.42948C 1.482 0.398387 4.91961 -0.617126 8.35722 0.398418C 11.7948 1.41396 13.3227 4.46058 12.1768 6.49167Z"/>
<path id="path3_fill" d="M 3.73655 29.6031C 2.59068 31.6342 -2.75672 22.4943 1.82676 12.3389C 5.64634 3.19898 14.0494 -0.863243 14.8133 0.152301C 15.5772 1.16784 8.32002 4.21451 4.50045 13.3544C 0.680881 22.4943 5.26438 26.5565 3.73655 29.6031Z"/>
<path id="path4_fill" d="M 19.1185 -3.09919e-05C 20.2644 -3.09919e-05 18.7366 7.10881 12.6253 13.2021C 6.13202 19.2953 0.402675 22.3419 0.0207182 20.3108C -0.361239 18.2798 4.6042 17.2643 9.56965 12.1865C 15.681 6.09328 17.9727 -3.09919e-05 19.1185 -3.09919e-05Z"/>
<path id="path5_fill" d="M 0.649222 24.3731C -2.40644 37.5751 5.61465 48.7461 18.6012 48.7461C 31.5877 48.7461 44.5743 37.5751 47.63 24.3731C 50.6856 11.171 42.6645 0 29.678 0C 16.6914 0 3.70488 11.171 0.649222 24.3731Z"/>
<path id="path6_fill" d="M 0.554742 21.3264C -2.11896 33.513 5.13822 42.6528 16.5969 42.6528C 28.0556 42.6528 39.5144 33.513 41.8061 21.3264C 44.4798 9.13991 37.2227 3.09919e-05 25.7639 3.09919e-05C 14.6872 3.09919e-05 3.22844 10.1555 0.554742 21.3264Z"/>
<path id="path7_fill" d="M 0.0322921 6.49164C 0.0322921 8.52272 3.46992 9.53831 6.90753 8.52277C 10.7271 7.50723 13.4008 4.46061 13.4008 2.42952C 13.4008 0.398434 9.96317 -0.617157 6.52555 0.398387C 2.70598 1.41393 -0.349665 4.46055 0.0322921 6.49164Z"/>
<path id="path8_fill" d="M 0.0153261 28.8798C 0.397283 30.9109 9.56426 22.7865 9.56426 12.631C 9.94621 3.49115 3.45296 -1.58654 2.30709 0.44455C 1.16122 1.46009 7.27252 4.50676 6.89057 13.6467C 6.50861 21.771 -0.366631 25.8332 0.0153261 28.8798Z"/>
<path id="path9_fill" d="M 2.28261 0.0866799C 0.372822 -0.928864 -1.53693 7.19544 1.90069 13.2887C 5.3383 19.382 11.4496 21.413 11.8315 19.382C 12.2135 17.3509 6.86613 16.3354 3.81047 11.2576C 1.13677 6.17993 3.42848 1.10222 2.28261 0.0866799Z"/>
<path id="path10_fill" d="M 0.0226119 75.1502C 0.404569 71.088 16.8287 54.8394 22.5581 37.5751C 28.2874 20.3109 27.1416 7.10881 27.1416 7.10881L 35.5446 3.09919e-05C 35.5446 3.09919e-05 34.0168 17.2643 36.3085 36.5596C 38.9822 55.8549 45.8575 70.0725 43.9477 73.1192C 41.6559 77.1813 39.3642 74.1347 39.3642 74.1347C 39.3642 74.1347 33.2529 51.7927 31.7251 37.5751C 30.1972 23.3575 30.9612 19.2953 30.9612 19.2953C 30.9612 19.2953 30.9612 31.4819 23.322 45.6995C 16.0648 59.9171 4.22413 75.1502 4.22413 75.1502C 4.22413 75.1502 -0.359345 78.1968 0.0226119 75.1502Z"/>
<path id="path11_fill" d="M 84.4125 3.09919e-05C 84.4125 3.09919e-05 72.1899 68.0414 1.16564e-05 78.1969C 1.16564e-05 77.1813 18.7159 4.06221 84.4125 3.09919e-05Z"/>
<path id="path12_fill" d="M 75.2456 -1.5496e-05C 75.2456 -1.5496e-05 62.259 60.9326 1.16564e-05 69.057C 1.16564e-05 69.057 18.3339 4.06216 75.2456 -1.5496e-05Z"/>
<path id="path13_fill" d="M 3.05565 73.1191L 1.16564e-05 72.1036C 0.381969 72.1036 19.0979 66.0104 38.5777 35.544C 55.3838 9.13991 76.7734 1.5496e-05 77.9192 1.5496e-05L 79.4471 3.0466C 79.4471 3.0466 57.2936 12.1865 41.2514 37.5751C 20.6257 68.0414 3.81957 73.1191 3.05565 73.1191Z"/>
</defs>
</svg>
