<svg width="22" height="19" viewBox="0 0 22 19" version="1.1" xmlns="http://www.w3.org/2000/svg" xmlns:xlink="http://www.w3.org/1999/xlink">
<title>Group</title>
<desc>Created using Figma</desc>
<g id="Canvas" transform="translate(-1355 -633)">
<g id="Group">
<g id="Vector">
<use xlink:href="#path0_fill" transform="translate(1355 633)" fill="#828282"/>
</g>
<g id="Vector">
<use xlink:href="#path1_fill" transform="translate(1364.1 641.6)" fill="#828282"/>
</g>
<g id="Vector">
<use xlink:href="#path2_fill" transform="translate(1365.1 636)" fill="#828282"/>
</g>
<g id="Vector">
<use xlink:href="#path3_fill" transform="translate(1361.6 637)" fill="#828282"/>
</g>
<g id="Vector">
<use xlink:href="#path4_fill" transform="translate(1359 639.5)" fill="#828282"/>
</g>
<g id="Vector">
<use xlink:href="#path5_fill" transform="translate(1358.1 643)" fill="#828282"/>
</g>
<g id="Vector">
<use xlink:href="#path6_fill" transform="translate(1359 646.5)" fill="#828282"/>
</g>
<g id="Vector">
<use xlink:href="#path7_fill" transform="translate(1371.2 646.5)" fill="#828282"/>
</g>
<g id="Vector">
<use xlink:href="#path8_fill" transform="translate(1372.1 643)" fill="#828282"/>
</g>
<g id="Vector">
<use xlink:href="#path9_fill" transform="translate(1371.2 639.5)" fill="#828282"/>
</g>
<g id="Vector">
<use xlink:href="#path10_fill" transform="translate(1368.6 637)" fill="#828282"/>
</g>
</g>
</g>
<defs>
<path id="path0_fill" d="M 3.20001 18.7L 3.49999 19L 18.6 19L 18.9 18.7C 20.9 16.6 22 13.9 22 11C 22 5 17.1 0 11 0C 4.99999 0 -6.10352e-06 4.9 -6.10352e-06 11C 0.0999939 13.9 1.20001 16.7 3.20001 18.7ZM 11.1 2.09998C 16 2.09998 20.1 6.09998 20.1 11.1C 20.1 13.3 19.3 15.4 17.8 17.1L 4.39999 17.1C 2.89999 15.5 2.1 13.4 2.1 11.1C 2.1 6.09998 6.1 2.09998 11.1 2.09998Z"/>
<path id="path1_fill" d="M 2 7.4C 3.1 7.4 4 6.5 4 5.4C 4 5.2 3.99999 5.00002 3.89999 4.80002L 7.10001 1.4L 5.60001 -2.44141e-05L 2.39999 3.4C 2.29999 3.4 2.1 3.30002 2 3.30002C 0.9 3.30002 0 4.20002 0 5.30002C 0 6.50002 0.9 7.4 2 7.4Z"/>
<path id="path2_fill" d="M 1 2C 1.3 2 1.50001 1.90001 1.70001 1.70001C 1.90001 1.50001 2 1.2 2 1C 2 0.7 1.90001 0.499988 1.70001 0.299988C 1.30001 -0.100012 0.699988 -0.100012 0.299988 0.299988C 0.0999878 0.499988 0 0.7 0 1C 0 1.3 0.0999878 1.50001 0.299988 1.70001C 0.499988 1.90001 0.7 2 1 2Z"/>
<path id="path3_fill" d="M 1 2C 1.3 2 1.50001 1.90001 1.70001 1.70001C 1.90001 1.50001 2 1.2 2 1C 2 0.7 1.90001 0.499988 1.70001 0.299988C 1.30001 -0.100012 0.599988 -0.100012 0.299988 0.299988C 0.0999878 0.499988 0 0.7 0 1C 0 1.3 0.0999878 1.50001 0.299988 1.70001C 0.499988 1.80001 0.7 2 1 2Z"/>
<path id="path4_fill" d="M 0.999994 2C 1.29999 2 1.50001 1.90001 1.70001 1.70001C 1.90001 1.50001 1.99999 1.2 1.99999 1C 1.99999 0.7 1.90001 0.499988 1.70001 0.299988C 1.30001 -0.100012 0.700012 -0.100012 0.300012 0.299988C 0.100012 0.499988 -6.10352e-06 0.7 -6.10352e-06 1C -6.10352e-06 1.3 0.100012 1.50001 0.300012 1.70001C 0.500012 1.90001 0.799994 2 0.999994 2Z"/>
<path id="path5_fill" d="M 0.299988 1.70001C 0.499988 1.90001 0.7 2 1 2C 1.3 2 1.50001 1.90001 1.70001 1.70001C 1.90001 1.50001 2 1.2 2 1C 2 0.7 1.90001 0.499988 1.70001 0.299988C 1.30001 -0.100012 0.699988 -0.100012 0.299988 0.299988C 0.0999878 0.499988 0 0.7 0 1C 0 1.3 0.0999878 1.50001 0.299988 1.70001Z"/>
<path id="path6_fill" d="M 0.300012 0.299988C 0.100012 0.499988 -6.10352e-06 0.7 -6.10352e-06 1C -6.10352e-06 1.3 0.100012 1.50001 0.300012 1.70001C 0.500012 1.90001 0.699994 2 0.999994 2C 1.29999 2 1.50001 1.90001 1.70001 1.70001C 1.90001 1.50001 1.99999 1.2 1.99999 1C 1.99999 0.7 1.90001 0.499988 1.70001 0.299988C 1.40001 -0.100012 0.700012 -0.100012 0.300012 0.299988Z"/>
<path id="path7_fill" d="M 0.299994 0.299988C 0.0999939 0.499988 6.10352e-06 0.7 6.10352e-06 1C 6.10352e-06 1.3 0.0999939 1.50001 0.299994 1.70001C 0.499994 1.90001 0.800006 2 1.00001 2C 1.30001 2 1.49999 1.90001 1.69999 1.70001C 1.89999 1.50001 2.00001 1.3 2.00001 1C 2.00001 0.7 1.89999 0.499988 1.69999 0.299988C 1.29999 -0.100012 0.599994 -0.100012 0.299994 0.299988Z"/>
<path id="path8_fill" d="M 0.299988 0.299988C 0.0999878 0.499988 0 0.7 0 1C 0 1.3 0.0999878 1.50001 0.299988 1.70001C 0.499988 1.90001 0.7 2 1 2C 1.3 2 1.50001 1.90001 1.70001 1.70001C 1.90001 1.50001 2 1.3 2 1C 2 0.7 1.90001 0.499988 1.70001 0.299988C 1.30001 -0.100012 0.699988 -0.100012 0.299988 0.299988Z"/>
<path id="path9_fill" d="M 1.00001 2C 1.30001 2 1.49999 1.90001 1.69999 1.70001C 1.89999 1.50001 2.00001 1.2 2.00001 1C 2.00001 0.7 1.89999 0.499988 1.69999 0.299988C 1.29999 -0.100012 0.599994 -0.100012 0.299994 0.299988C 0.0999939 0.499988 6.10352e-06 0.7 6.10352e-06 1C 6.10352e-06 1.3 0.0999939 1.50001 0.299994 1.70001C 0.399994 1.90001 0.700006 2 1.00001 2Z"/>
<path id="path10_fill" d="M 1 2C 1.3 2 1.50001 1.90001 1.70001 1.70001C 1.90001 1.50001 2 1.2 2 1C 2 0.7 1.90001 0.499988 1.70001 0.299988C 1.30001 -0.100012 0.699988 -0.100012 0.299988 0.299988C 0.0999878 0.499988 0 0.7 0 1C 0 1.3 0.0999878 1.50001 0.299988 1.70001C 0.499988 1.80001 0.7 2 1 2Z"/>
</defs>
</svg>
