<svg width="60" height="60" viewBox="0 0 60 60" version="1.1" xmlns="http://www.w3.org/2000/svg" xmlns:xlink="http://www.w3.org/1999/xlink">
<title>Instagram</title>
<desc>Created using Figma</desc>
<g id="Canvas" transform="translate(-2140 -3839)">
<g id="Instagram">
<mask id="mask0_outline" mask-type="alpha">
<g id="back">
<use xlink:href="#path0_fill" transform="translate(2140 3839)" fill="#FFFFFF"/>
</g>
</mask>
<g id="Group" mask="url(#mask0_outline)">
<g id="back">
<use xlink:href="#path0_fill" transform="translate(2140 3839)" fill="#E2306C"/>
</g>
<g id="Exclude">
<use xlink:href="#path1_fill" transform="translate(2154 3853)" fill="#FFFFFF"/>
</g>
<g id="Path">
<use xlink:href="#path2_fill" transform="translate(2176.62 3858.54)" fill="#FFFFFF"/>
</g>
<g id="Exclude">
<use xlink:href="#path3_fill" transform="translate(2161.78 3860.78)" fill="#FFFFFF"/>
</g>
</g>
</g>
</g>
<defs>
<path id="path0_fill" fill-rule="evenodd" d="M 0 30C 0 13.4315 13.4315 0 30 0C 46.5685 0 60 13.4315 60 30C 60 46.5685 46.5685 60 30 60C 13.4315 60 0 46.5685 0 30Z"/>
<path id="path1_fill" fill-rule="evenodd" d="M 16.0015 0C 11.6561 0 11.1108 0.0190002 9.4041 0.0966677C 7.70075 0.174668 6.53807 0.444338 5.52072 0.840009C 4.46838 1.24868 3.5757 1.79535 2.68636 2.68503C 1.79635 3.57437 1.24968 4.46705 0.839675 5.51906C 0.443005 6.53673 0.173002 7.69975 0.0963343 9.40243C 0.0200002 11.1091 0 11.6548 0 16.0002C 0 20.3455 0.0193335 20.8892 0.0966677 22.5959C 0.175002 24.2993 0.444671 25.4619 0.840009 26.4793C 1.24901 27.5316 1.79569 28.4243 2.68536 29.3136C 3.57437 30.2036 4.46705 30.7517 5.51872 31.1603C 6.53673 31.556 7.69975 31.8257 9.40276 31.9037C 11.1094 31.9813 11.6545 32.0003 15.9995 32.0003C 20.3452 32.0003 20.8889 31.9813 22.5956 31.9037C 24.2989 31.8257 25.4629 31.556 26.4809 31.1603C 27.533 30.7517 28.4243 30.2036 29.3133 29.3136C 30.2033 28.4243 30.75 27.5316 31.16 26.4796C 31.5533 25.4619 31.8233 24.2989 31.9033 22.5962C 31.98 20.8896 32 20.3455 32 16.0002C 32 11.6548 31.98 11.1094 31.9033 9.40276C 31.8233 7.69941 31.5533 6.53674 31.16 5.51939C 30.75 4.46705 30.2033 3.57437 29.3133 2.68503C 28.4233 1.79502 27.5333 1.24835 26.4799 0.840009C 25.4599 0.444338 24.2966 0.174668 22.5932 0.0966677C 20.8866 0.0190002 20.3432 0 15.9965 0L 16.0015 0ZM 14.5662 2.88339C 14.9922 2.88273 15.4676 2.88339 16.0016 2.88339C 20.2736 2.88339 20.78 2.89873 22.467 2.9754C 24.027 3.04673 24.8737 3.3074 25.4377 3.5264C 26.1843 3.8164 26.7167 4.16307 27.2764 4.72308C 27.8364 5.28309 28.183 5.81643 28.4737 6.5631C 28.6927 7.12644 28.9537 7.97311 29.0247 9.53313C 29.1014 11.2198 29.118 11.7265 29.118 15.9965C 29.118 20.2666 29.1014 20.7732 29.0247 22.4599C 28.9534 24.0199 28.6927 24.8666 28.4737 25.43C 28.1837 26.1766 27.8364 26.7083 27.2764 27.268C 26.7163 27.828 26.1847 28.1747 25.4377 28.4647C 24.8743 28.6847 24.027 28.9447 22.467 29.016C 20.7803 29.0927 20.2736 29.1093 16.0016 29.1093C 11.7292 29.1093 11.2229 29.0927 9.53617 29.016C 7.97615 28.944 7.12948 28.6833 6.56514 28.4643C 5.81846 28.1743 5.28512 27.8277 4.72512 27.2676C 4.16511 26.7076 3.81844 26.1756 3.52777 25.4286C 3.30877 24.8653 3.04777 24.0186 2.97677 22.4586C 2.9001 20.7719 2.88477 20.2652 2.88477 15.9925C 2.88477 11.7198 2.9001 11.2158 2.97677 9.52913C 3.0481 7.96911 3.30877 7.12244 3.52777 6.55843C 3.81778 5.81176 4.16511 5.27842 4.72512 4.71841C 5.28512 4.15841 5.81846 3.81174 6.56514 3.52107C 7.12914 3.30107 7.97615 3.04106 9.53617 2.9694C 11.0122 2.90273 11.5842 2.88273 14.5662 2.87939L 14.5662 2.88339Z"/>
<path id="path2_fill" fill-rule="evenodd" d="M 1.92002 0.000666674C 0.860009 0.000666674 0 0.859676 0 1.92002C 0 2.98003 0.860009 3.84004 1.92002 3.84004C 2.98003 3.84004 3.84004 2.98003 3.84004 1.92002C 3.84004 0.860009 2.98003 0 1.92002 0L 1.92002 0.000666674Z"/>
<path id="path3_fill" fill-rule="evenodd" d="M 8.21675 0C 3.67904 0 0 3.67904 0 8.21675C 0 12.7545 3.67904 16.4318 8.21675 16.4318C 12.7545 16.4318 16.4322 12.7545 16.4322 8.21675C 16.4322 3.67904 12.7541 0 8.21642 0L 8.21675 0ZM 8.21693 2.8833C 11.1623 2.8833 13.5503 5.27099 13.5503 8.21669C 13.5503 11.1621 11.1623 13.5501 8.21693 13.5501C 5.27124 13.5501 2.88354 11.1621 2.88354 8.21669C 2.88354 5.27099 5.27124 2.8833 8.21693 2.8833Z"/>
</defs>
</svg>
