<svg width="140" height="79" viewBox="0 0 140 79" version="1.1" xmlns="http://www.w3.org/2000/svg" xmlns:xlink="http://www.w3.org/1999/xlink">
<title>Group</title>
<desc>Created using Figma</desc>
<g id="Canvas" transform="translate(-1354 -282)">
<g id="Group">
<g id="Group">
<g id="Vector">
<use xlink:href="#path0_fill" transform="translate(1401.06 282)" fill="url(#paint0_linear)"/>
</g>
<g id="Group">
<g id="Vector">
<use xlink:href="#path1_fill" transform="translate(1354 332.776)"/>
</g>
<g id="Vector">
<use xlink:href="#path2_fill" transform="translate(1378.1 333.12)"/>
</g>
<g id="Vector">
<use xlink:href="#path3_fill" transform="translate(1398.92 332.776)"/>
</g>
<g id="Vector">
<use xlink:href="#path4_fill" transform="translate(1416.21 333.085)"/>
</g>
<g id="Vector">
<use xlink:href="#path5_fill" transform="translate(1433.34 333.051)"/>
</g>
<g id="Vector">
<use xlink:href="#path6_fill" transform="translate(1450.39 333.12)"/>
</g>
<g id="Vector">
<use xlink:href="#path7_fill" transform="translate(1465.24 332.845)"/>
</g>
<g id="Vector">
<use xlink:href="#path8_fill" transform="translate(1483.33 332.845)"/>
</g>
</g>
<g id="Group">
<g id="Vector">
<use xlink:href="#path9_fill" transform="translate(1386.42 354.434)" fill="#EF7D00"/>
</g>
<g id="Vector">
<use xlink:href="#path10_fill" transform="translate(1391.43 356.29)" fill="#EF7D00"/>
</g>
<g id="Vector">
<use xlink:href="#path11_fill" transform="translate(1396.43 356.325)" fill="#EF7D00"/>
</g>
<g id="Vector">
<use xlink:href="#path12_fill" transform="translate(1401.51 356.29)" fill="#EF7D00"/>
</g>
<g id="Vector">
<use xlink:href="#path13_fill" transform="translate(1407.34 356.29)" fill="#EF7D00"/>
</g>
<g id="Vector">
<use xlink:href="#path14_fill" transform="translate(1412.38 356.29)" fill="#EF7D00"/>
</g>
<g id="Vector">
<use xlink:href="#path15_fill" transform="translate(1417.35 354.193)" fill="#EF7D00"/>
</g>
<g id="Vector">
<use xlink:href="#path16_fill" transform="translate(1419.91 354.468)" fill="#EF7D00"/>
</g>
<g id="Vector">
<use xlink:href="#path17_fill" transform="translate(1422.19 356.29)" fill="#EF7D00"/>
</g>
<g id="Vector">
<use xlink:href="#path18_fill" transform="translate(1426.99 356.221)" fill="#EF7D00"/>
</g>
<g id="Vector">
<use xlink:href="#path19_fill" transform="translate(1434.27 354.193)" fill="#EF7D00"/>
</g>
<g id="Vector">
<use xlink:href="#path20_fill" transform="translate(1439.24 356.29)" fill="#EF7D00"/>
</g>
<g id="Vector">
<use xlink:href="#path21_fill" transform="translate(1442.49 356.29)" fill="#EF7D00"/>
</g>
<g id="Vector">
<use xlink:href="#path22_fill" transform="translate(1447.56 354.193)" fill="#EF7D00"/>
</g>
<g id="Vector">
<use xlink:href="#path23_fill" transform="translate(1452.12 356.221)" fill="#EF7D00"/>
</g>
<g id="Vector">
<use xlink:href="#path24_fill" transform="translate(1457.13 356.29)" fill="#EF7D00"/>
</g>
</g>
<g id="Vector">
<use xlink:href="#path25_fill" transform="translate(1372.78 340.58)" fill="#06080B"/>
</g>
</g>
</g>
</g>
<defs>
<linearGradient id="paint0_linear" x1="0" y1="0" x2="1" y2="0" gradientUnits="userSpaceOnUse" gradientTransform="matrix(0 46.9261 -47.1275 0 46.7288 0.409198)">
<stop offset="0" stop-color="#F39200"/>
<stop offset="1" stop-color="#F07E00"/>
</linearGradient>
<path id="path0_fill" d="M 0.0359221 45.6192L 16.1592 1.547C 16.5045 0.618799 17.4021 0 18.4034 0L 25.343 0C 26.3442 0 27.2418 0.618799 27.5871 1.547L 36.7708 26.6771L 40.3269 26.6771C 41.052 26.6771 41.7079 27.124 41.9496 27.8116L 43.3651 31.6963C 43.5032 32.0744 43.227 32.4526 42.8127 32.4526L 38.8769 32.4526L 39.74 34.7559L 43.2961 34.7559C 44.0211 34.7559 44.6771 35.2028 44.9188 35.8903L 46.3343 39.775C 46.4724 40.1532 46.1962 40.5313 45.7819 40.5313L 41.846 40.5313L 43.6759 45.5505C 43.814 45.9286 43.5378 46.3068 43.1235 46.3068L 35.9422 46.3068C 35.2172 46.3068 34.5612 45.8599 34.3195 45.1723L 32.6278 40.497L 10.9114 40.497C 10.4971 40.497 10.2209 40.0844 10.359 39.7406L 11.7745 35.856C 12.0162 35.1684 12.6722 34.7215 13.3972 34.7215L 30.4872 34.7215L 29.6241 32.4182L 13.846 32.4182C 13.4317 32.4182 13.1555 32.0057 13.2936 31.6619L 14.7092 27.7772C 14.9508 27.0896 15.6068 26.6427 16.3319 26.6427L 27.4835 26.6427L 20.682 8.01001C 20.5094 7.49434 19.7844 7.49434 19.5772 8.01001L 5.97427 45.2411C 5.7326 45.9286 5.07661 46.3755 4.35158 46.3755L 0.588329 46.3755C 0.174025 46.4099 -0.102179 45.9974 0.0359221 45.6192Z"/>
<path id="path1_fill" d="M 10.254 15.745L 10.254 15.5387C 10.2885 15.5387 10.3921 15.5387 10.5647 15.5044C 10.7374 15.47 10.91 15.4356 11.0826 15.3668C 11.2552 15.2981 11.4279 15.195 11.566 15.0574C 11.7041 14.9199 11.7731 14.748 11.7731 14.5762C 11.7731 14.4386 11.7386 14.2324 11.6695 13.9574C 11.6005 13.6823 11.4624 13.3042 11.3243 12.8916C 11.1862 12.4791 11.0136 11.9978 10.8409 11.4822C 10.6683 10.9665 10.4612 10.4164 10.254 9.8664L 4.48829 9.8664C 4.28113 10.4164 4.07398 10.9321 3.86683 11.4134C 3.65968 11.8947 3.45253 12.4104 3.2799 12.8916C 2.96917 13.648 2.83107 14.198 2.83107 14.5074C 2.83107 14.6793 2.90012 14.8512 3.0037 14.9543C 3.10727 15.0918 3.2799 15.1606 3.45253 15.2637C 3.62515 15.3325 3.83231 15.4012 4.03946 15.4356C 4.24661 15.47 4.45376 15.5043 4.62639 15.5387L 4.62639 15.745L 0 15.745L 0 15.5044C 0.379778 15.47 0.690506 15.3668 0.966708 15.195C 1.24291 15.0231 1.38101 14.9199 1.41554 14.8856C 1.51911 14.7824 1.69174 14.5418 1.89889 14.1636C 2.14057 13.7855 2.41677 13.2354 2.7275 12.5135C 3.03822 11.8259 3.34895 11.0696 3.72873 10.2102C 4.10851 9.35074 4.48829 8.45692 4.86806 7.5631C 5.24784 6.66928 5.66215 5.74108 6.04192 4.81288C 6.4217 3.88468 6.80148 3.02524 7.14673 2.23455L 6.93958 1.75326C 7.18126 1.65013 7.42293 1.51262 7.63009 1.34073C 7.83724 1.16884 8.00986 1.03133 8.18249 0.859442C 8.35512 0.687553 8.45869 0.515667 8.59679 0.378156C 8.70037 0.206267 8.80395 0.103132 8.83847 -1.04912e-06L 9.0111 -1.04912e-06C 9.45993 1.16884 9.87423 2.30331 10.2885 3.36902C 10.7028 4.43473 11.0826 5.46606 11.4279 6.42863C 11.8076 7.42559 12.1529 8.35378 12.4981 9.28198C 12.8434 10.2102 13.1887 11.104 13.5339 11.9978C 13.7065 12.4447 13.8446 12.8229 13.9827 13.0979C 14.1208 13.4073 14.2589 13.7167 14.4316 14.0949C 14.4661 14.1636 14.5351 14.2668 14.6387 14.4043C 14.7423 14.5418 14.8804 14.6793 15.053 14.8512C 15.2256 14.9887 15.4328 15.1262 15.6745 15.2637C 15.9162 15.3668 16.1924 15.4356 16.5376 15.47L 16.5376 15.7106L 10.254 15.7106L 10.254 15.745ZM 7.42293 2.7846C 7.31936 2.95649 7.21578 3.26588 7.04316 3.67841C 6.87053 4.09095 6.66338 4.57224 6.4217 5.12228C 6.18002 5.7067 5.90382 6.3255 5.62762 7.04743C 5.31689 7.76936 5.00617 8.56005 4.66091 9.38512L 10.0123 9.38512C 9.77065 8.73194 9.52898 8.11314 9.25277 7.45996C 9.0111 6.80679 8.76942 6.18799 8.52774 5.60357C 8.28607 5.01915 8.07891 4.4691 7.87176 3.98782C 7.69914 3.50653 7.56104 3.094 7.42293 2.7846Z"/>
<path id="path2_fill" d="M 12.7398 15.4012L 12.7398 15.1606C 13.3613 15.1262 13.8792 14.9887 14.2935 14.7824C 14.7078 14.5418 14.984 14.3011 15.1221 13.9917C 15.1911 13.8198 15.2602 13.5792 15.3292 13.3042C 15.3637 13.0292 15.3983 12.7541 15.4328 12.4447C 15.4673 11.5165 15.4673 10.5883 15.4673 9.76327C 15.4673 8.90383 15.4673 8.01001 15.4673 7.11619L 15.4673 1.06571C 14.984 2.13142 14.5697 3.094 14.1554 3.98782C 13.7756 4.88164 13.3613 5.74108 12.9815 6.56614C 12.6017 7.42559 12.1874 8.28503 11.8076 9.14447C 11.4279 10.0383 10.979 11.0009 10.4957 12.0322C 10.4266 12.1697 10.3231 12.4104 10.185 12.7198C 10.0469 13.0292 9.94328 13.3386 9.80518 13.648C 9.66708 13.9574 9.5635 14.2668 9.4254 14.5418C 9.32182 14.8168 9.25277 14.9887 9.21825 15.0574L 9.08015 15.0574C 8.63132 13.9917 8.18249 12.9604 7.69914 11.8947C 7.25031 10.8634 6.80148 9.83203 6.38718 8.86945C 5.97287 7.90687 5.55857 7.01306 5.17879 6.15361C 4.79901 5.29417 4.45376 4.57224 4.17756 3.91906C 3.86683 3.26589 3.62515 2.71584 3.418 2.26893C 3.21085 1.82202 3.10727 1.51262 3.0037 1.37511C 3.0037 2.30331 3.0037 3.16275 3.0037 3.88468C 3.0037 4.60661 3.0037 5.32855 2.96917 6.0161C 2.96917 6.73803 2.96917 7.45996 2.96917 8.25065C 2.96917 9.04134 2.96917 9.93516 2.96917 11.0009C 2.96917 11.6884 3.0037 12.2385 3.03822 12.7541C 3.07275 13.2354 3.17633 13.648 3.34895 13.9917C 3.52158 14.3355 3.79778 14.5762 4.14303 14.7824C 4.48829 14.9887 4.97164 15.1262 5.59309 15.1949L 5.59309 15.4012L 1.05363e-06 15.4012L 1.05363e-06 15.1949C 0.51788 15.0918 0.897658 14.9543 1.24291 14.748C 1.55364 14.5418 1.79531 14.3011 2.00247 13.9574C 2.17509 13.6136 2.31319 13.201 2.41677 12.6854C 2.52035 12.1697 2.55487 11.5509 2.55487 10.829C 2.58939 10.2102 2.5894 9.48825 2.62392 8.66318C 2.62392 7.83812 2.65845 6.9443 2.65845 5.98172C 2.65845 5.56919 2.65845 5.22541 2.65845 4.91601C 2.65845 4.64099 2.65845 4.36597 2.65845 4.09095C 2.65845 3.81593 2.65845 3.5409 2.65845 3.26588C 2.65845 2.99086 2.65845 2.64709 2.62392 2.20018C 2.62392 1.78764 2.52034 1.47824 2.38224 1.2376C 2.20962 0.996955 2.03699 0.79069 1.82984 0.653179C 1.62269 0.515668 1.38101 0.412532 1.13933 0.343776C 0.897657 0.275021 0.690507 0.240645 0.51788 0.206267L 0.51788 -1.04912e-06L 5.10974 -1.04912e-06L 10.254 11.654C 10.8755 10.3133 11.4969 8.93821 12.1184 7.59748C 12.7053 6.25675 13.2577 5.05352 13.7411 3.95344C 14.2244 2.85335 14.6042 1.95953 14.9149 1.2376C 15.2256 0.515667 15.3983 0.103132 15.4328 -1.04912e-06L 20.0247 -1.04912e-06L 20.0247 0.206267C 19.4377 0.206267 18.9889 0.343775 18.6782 0.584419C 18.3674 0.825063 18.1603 1.10009 18.0567 1.40949C 17.9531 1.65013 17.9186 2.02829 17.8841 2.54395C 17.8496 3.05962 17.8496 3.57528 17.815 4.05657C 17.815 4.74413 17.7805 5.3973 17.7805 6.05048C 17.7805 6.70366 17.7805 7.35683 17.7805 8.01001C 17.7805 8.76632 17.7805 9.557 17.7805 10.3133C 17.7805 11.0696 17.7805 11.8603 17.815 12.7198C 17.815 12.9948 17.8496 13.2698 17.8841 13.5448C 17.9186 13.8198 17.9877 14.0261 18.0567 14.198C 18.0567 14.2324 18.1258 14.3011 18.2293 14.4043C 18.3329 14.5074 18.471 14.6105 18.6437 14.748C 18.8163 14.8856 19.0234 14.9887 19.2996 15.0574C 19.5413 15.1606 19.852 15.195 20.1973 15.2293L 20.1973 15.4356L 12.7398 15.4356L 12.7398 15.4012Z"/>
<path id="path3_fill" d="M 10.185 15.745L 10.185 15.5387C 10.2195 15.5387 10.3231 15.5387 10.4957 15.5044C 10.6683 15.47 10.8409 15.4356 11.0136 15.3668C 11.1862 15.2981 11.3588 15.195 11.4969 15.0574C 11.635 14.9199 11.7041 14.748 11.7041 14.5762C 11.7041 14.4386 11.6695 14.2324 11.6005 13.9574C 11.5314 13.6823 11.3933 13.3042 11.2552 12.8916C 11.1171 12.4791 10.9445 11.9978 10.7719 11.4822C 10.5993 10.9665 10.3921 10.4164 10.185 9.8664L 4.45376 9.8664C 4.24661 10.4164 4.03946 10.9321 3.8323 11.4134C 3.62515 11.8947 3.418 12.4104 3.24538 12.8916C 2.93465 13.648 2.79655 14.198 2.79655 14.5074C 2.79655 14.6793 2.8656 14.8512 2.96917 14.9543C 3.07275 15.0918 3.24538 15.1606 3.418 15.2637C 3.59063 15.3325 3.79778 15.4012 4.00493 15.4356C 4.21208 15.47 4.41923 15.5043 4.59186 15.5387L 4.59186 15.745L 2.10726e-06 15.745L 2.10726e-06 15.5044C 0.37978 15.47 0.690503 15.3668 0.966706 15.195C 1.24291 15.0231 1.38101 14.9199 1.41554 14.8856C 1.51911 14.7824 1.69174 14.5418 1.89889 14.1636C 2.14057 13.7855 2.41677 13.2354 2.7275 12.5135C 3.03822 11.8259 3.34895 11.0696 3.72873 10.2102C 4.10851 9.35074 4.48828 8.45692 4.86806 7.5631C 5.24784 6.66928 5.66215 5.74108 6.04192 4.81288C 6.4217 3.88468 6.80148 3.02524 7.14673 2.23455L 6.93958 1.75326C 7.18126 1.65013 7.42293 1.51262 7.63008 1.34073C 7.83724 1.16884 8.00986 1.03133 8.18249 0.859442C 8.35512 0.687553 8.45869 0.515667 8.59679 0.378156C 8.70037 0.206267 8.76942 0.103132 8.83847 -1.04912e-06L 9.0111 -1.04912e-06C 9.45992 1.16884 9.87423 2.30331 10.2885 3.36902C 10.7028 4.43473 11.0826 5.46606 11.4279 6.42863C 11.8076 7.42559 12.1529 8.35378 12.4982 9.28198C 12.8434 10.2102 13.1887 11.104 13.5339 11.9978C 13.7065 12.4447 13.8446 12.8229 13.9827 13.0979C 14.1208 13.4073 14.2589 13.7167 14.4316 14.0949C 14.4661 14.1636 14.5351 14.2668 14.6387 14.4043C 14.7423 14.5418 14.8804 14.6793 15.053 14.8512C 15.2256 14.9887 15.4328 15.1262 15.6745 15.2637C 15.9162 15.3668 16.1924 15.4356 16.5376 15.47L 16.5376 15.7106L 10.185 15.7106L 10.185 15.745ZM 7.35388 2.7846C 7.25031 2.95649 7.14673 3.26588 6.97411 3.67841C 6.80148 4.09095 6.59433 4.57224 6.35265 5.12228C 6.11097 5.7067 5.83477 6.3255 5.55857 7.04743C 5.28237 7.76936 4.93711 8.56005 4.59186 9.38512L 9.94328 9.38512C 9.7016 8.73194 9.45992 8.11314 9.18372 7.45996C 8.94205 6.80679 8.70037 6.18799 8.45869 5.60357C 8.21702 5.01915 8.00986 4.4691 7.80271 3.98782C 7.63008 3.50653 7.49198 3.094 7.35388 2.7846Z"/>
<path id="path4_fill" d="M 11.8422 15.4356C 11.7041 15.2981 11.635 15.195 11.566 15.1606C 11.4969 15.0918 11.4279 15.0231 11.3588 14.9199C 11.2898 14.8168 11.1862 14.7137 11.0826 14.5418C 10.979 14.3699 10.8064 14.1292 10.5647 13.7855C 10.2885 13.3729 10.0469 13.0292 9.8397 12.7198C 9.63255 12.4104 9.4254 12.0666 9.21825 11.7572C 9.0111 11.4478 8.76942 11.1384 8.52774 10.7946C 8.28606 10.4852 7.97534 10.107 7.63009 9.72889C 7.35389 9.38511 7.04316 9.11009 6.69791 8.80069C 6.35265 8.52567 6.0074 8.35379 5.62762 8.25065C 5.35142 8.1819 5.14427 8.18189 5.00616 8.18189C 4.86806 8.18189 4.72996 8.1819 4.52281 8.14752C 4.52281 9.07572 4.52281 9.86641 4.52281 10.554C 4.52281 11.2415 4.52281 11.8259 4.55733 12.2728C 4.55733 12.7198 4.59186 13.1323 4.59186 13.4417C 4.59186 13.7855 4.69544 14.0261 4.83354 14.2668C 4.93711 14.4386 5.17879 14.6449 5.48952 14.8512C 5.83477 15.0574 6.2836 15.1606 6.87053 15.195L 6.87053 15.4012L -1.05363e-06 15.4012L -1.05363e-06 15.195C 0.345252 15.1262 0.690504 15.0574 1.03576 14.9543C 1.38101 14.8512 1.62269 14.6793 1.79531 14.4386C 1.86436 14.3699 1.93341 14.2324 1.96794 14.0605C 2.00246 13.8886 2.03699 13.6823 2.07152 13.4761C 2.10604 13.2698 2.10604 13.0292 2.14057 12.7885C 2.14057 12.5479 2.17509 12.3072 2.17509 12.0666C 2.17509 11.8603 2.17509 11.5853 2.17509 11.2415C 2.17509 10.8977 2.17509 10.5196 2.20962 10.107C 2.20962 9.69452 2.20962 9.28198 2.20962 8.86945C 2.20962 8.42254 2.20962 8.01001 2.20962 7.63185L 2.20962 3.47215C 2.20962 3.2315 2.20962 2.95648 2.20962 2.68146C 2.20962 2.40644 2.17509 2.1658 2.17509 1.92515C 2.14057 1.68451 2.10604 1.47824 2.07152 1.27198C 2.03699 1.06571 1.96794 0.928201 1.86437 0.859445C 1.65722 0.618801 1.41554 0.481289 1.13933 0.412534C 0.863132 0.343778 0.552403 0.275021 0.172625 0.206265L 0.172625 2.09825e-06C 0.276201 2.09825e-06 0.586931 2.09825e-06 1.07028 2.09825e-06C 1.55364 2.09825e-06 2.10604 2.09825e-06 2.7275 2.09825e-06C 3.34895 2.09825e-06 3.97041 2.09825e-06 4.59186 2.09825e-06C 5.21332 2.09825e-06 5.69667 2.09825e-06 6.11097 2.09825e-06C 7.07768 2.09825e-06 7.94081 0.0343788 8.66585 0.0687565C 9.4254 0.137512 10.0814 0.309399 10.7028 0.653177C 11.3243 0.996954 11.8422 1.44386 12.222 1.99391C 12.6017 2.54395 12.8089 3.26589 12.8089 4.12533C 12.8089 4.64099 12.7053 5.12228 12.5327 5.53481C 12.3255 5.94734 12.0838 6.3255 11.7731 6.6349C 11.4624 6.9443 11.0826 7.21932 10.6338 7.45997C 10.2195 7.70061 9.73613 7.8725 9.2873 8.04439L 9.2873 8.11314C 9.52898 8.25065 9.77065 8.42254 10.0123 8.66319C 10.254 8.90383 10.4612 9.17885 10.6683 9.48825C 11.0481 10.0383 11.4624 10.6227 11.8767 11.2415C 12.3255 11.8603 12.7053 12.4447 13.0506 12.926C 13.5684 13.6823 14.0863 14.198 14.6042 14.5418C 15.1221 14.8856 15.709 15.0918 16.365 15.195L 16.365 15.4012L 11.8422 15.4012L 11.8422 15.4356ZM 9.73613 2.09704C 9.39087 1.547 8.83847 1.10009 8.18249 0.756311C 7.83724 0.584422 7.49199 0.481289 7.11221 0.412534C 6.73243 0.343778 6.31813 0.309399 5.90382 0.309399C 5.5931 0.309399 5.35142 0.309402 5.17879 0.343779C 5.00616 0.343779 4.83354 0.378154 4.76449 0.378154C 4.76449 0.446909 4.72996 0.550041 4.72996 0.618797C 4.72996 0.687552 4.69544 0.756312 4.69544 0.859445C 4.69544 0.962578 4.69544 1.10009 4.66091 1.27198C 4.66091 1.44387 4.62639 1.71889 4.62639 2.02829C 4.62639 2.54395 4.59186 3.09399 4.59186 3.71279C 4.59186 4.33159 4.59186 4.95039 4.59186 5.53481C 4.59186 6.11923 4.59186 6.6349 4.59186 7.08181C 4.59186 7.49434 4.59186 7.76937 4.59186 7.90688C 5.17879 7.90688 5.7312 7.8725 6.24908 7.83812C 6.76696 7.80374 7.25031 7.70061 7.73366 7.52872C 8.18249 7.39121 8.59679 7.18494 8.90752 6.9443C 9.25277 6.70366 9.49445 6.42863 9.7016 6.11923C 9.90876 5.80983 10.0469 5.46606 10.1504 5.12228C 10.254 4.7785 10.2885 4.40035 10.2885 4.02219C 10.254 3.30026 10.0814 2.64708 9.73613 2.09704Z"/>
<path id="path5_fill" d="M 11.4969 15.47C 11.4279 15.4356 11.3588 15.4012 11.2898 15.3668C 11.2207 15.3325 11.1517 15.2293 11.0481 15.1262C 10.1159 14.0605 9.25277 13.0635 8.42417 12.101C 7.59556 11.1384 6.73243 10.1758 5.8693 9.21323C 5.48952 8.8007 5.24784 8.52568 5.10974 8.45692C 4.97164 8.35379 4.86807 8.31941 4.76449 8.31941C 4.66091 8.31941 4.55733 8.35378 4.52281 8.38816C 4.48828 8.42254 4.45376 8.52568 4.41924 8.62881C 4.41924 9.38512 4.41924 10.0727 4.41924 10.7602C 4.41924 11.4134 4.41923 11.9978 4.45376 12.4447C 4.45376 12.8573 4.48829 13.2354 4.55734 13.6136C 4.59186 13.9574 4.69544 14.2324 4.83354 14.4386C 4.93712 14.5762 5.07522 14.7137 5.24784 14.8168C 5.42047 14.9199 5.5931 14.9887 5.80025 15.0574C 6.0074 15.1262 6.21455 15.1606 6.38718 15.195C 6.59433 15.2293 6.73243 15.2637 6.90506 15.2637L 6.90506 15.47L 1.05363e-06 15.47L 1.05363e-06 15.2637C 0.345254 15.1949 0.690507 15.1262 1.03576 15.0231C 1.38101 14.9199 1.62269 14.748 1.79531 14.5418C 1.86436 14.4386 1.93342 14.3355 1.96794 14.1636C 2.00247 13.9917 2.03699 13.7855 2.07152 13.5792C 2.10604 13.3729 2.10604 13.1323 2.10604 12.8573C 2.10604 12.6166 2.10604 12.376 2.10604 12.1353C 2.10604 11.9291 2.10604 11.654 2.10604 11.3103C 2.10604 10.9665 2.10604 10.5883 2.10604 10.2102C 2.10604 9.79765 2.10604 9.38512 2.10604 8.93821C 2.10604 8.4913 2.10604 8.07876 2.10604 7.70061L 2.10604 3.54091C 2.10604 2.99086 2.07152 2.50957 2.03699 2.02828C 2.00246 1.58137 1.89889 1.2376 1.76079 1.03133C 1.55364 0.790688 1.31196 0.618797 1.03576 0.481286C 0.759557 0.378153 0.414301 0.275021 0.0345232 0.240643L 0.0345232 0.0343798L 6.6979 0.0343798L 6.6979 0.240643C 6.4217 0.275021 6.1455 0.309399 5.90382 0.343777C 5.66214 0.378155 5.42047 0.515664 5.21331 0.653175C 5.00616 0.825063 4.83354 1.06571 4.69544 1.40949C 4.55733 1.75327 4.48828 2.20018 4.45376 2.7846C 4.45376 3.12837 4.41924 3.43777 4.41924 3.71279C 4.41924 3.98782 4.41924 4.33159 4.41924 4.70975C 4.41924 5.0879 4.41924 5.53481 4.41924 6.05048C 4.41924 6.56615 4.41924 7.21932 4.41924 8.01001C 4.66091 7.83812 5.04069 7.59748 5.455 7.21932C 5.90382 6.84117 6.35265 6.42863 6.83601 5.94735C 7.31936 5.46606 7.80271 4.98477 8.25154 4.50348C 8.73489 3.98782 9.14919 3.57528 9.49445 3.19713C 9.73612 2.92211 9.94328 2.61271 10.1504 2.30331C 10.3576 1.99391 10.4266 1.71889 10.4266 1.47824C 10.4266 1.06571 10.2885 0.756309 10.0123 0.58442C 9.73612 0.412532 9.39087 0.275024 9.0111 0.206268L 9.0111 -9.77074e-15L 14.7768 -9.77074e-15L 14.7768 0.206268C 14.0518 0.275024 13.2922 0.584422 12.5672 1.13447C 11.8076 1.68451 11.0481 2.30331 10.2885 3.02524C 9.97781 3.30026 9.66708 3.57528 9.35635 3.91906C 9.04562 4.22846 8.73489 4.53786 8.42417 4.84726C 8.11344 5.15666 7.80271 5.46606 7.52651 5.74108C 7.25031 6.05048 6.97411 6.3255 6.73243 6.56615C 6.83601 6.70366 7.11221 7.01306 7.52651 7.49434C 7.94082 7.97563 8.42417 8.52567 9.0111 9.17885C 9.59802 9.83203 10.185 10.5196 10.8409 11.2415C 11.4969 11.9634 12.1184 12.6854 12.7398 13.3386C 12.8779 13.5104 13.0506 13.6823 13.2232 13.8542C 13.3958 14.0261 13.603 14.1636 13.7756 14.3011C 13.9482 14.4386 14.0863 14.5418 14.2244 14.6449C 14.3625 14.748 14.4316 14.8168 14.4661 14.8168C 14.6387 14.8856 14.9149 14.9543 15.2256 15.0231C 15.5364 15.0918 15.9162 15.1606 16.2959 15.1606L 16.2959 15.3668L 11.4969 15.3668L 11.4969 15.47Z"/>
<path id="path6_fill" d="M 13.1541 15.4012L 4.21451e-06 15.4012L 4.21451e-06 15.1949C 0.345257 15.1262 0.690508 15.0574 1.00124 14.9199C 1.31196 14.7824 1.55363 14.6105 1.76078 14.3699C 1.82984 14.3011 1.89889 14.1636 1.93341 13.9917C 1.96794 13.8198 2.00247 13.648 2.03699 13.4073C 2.07152 13.201 2.10604 12.9604 2.10604 12.7198C 2.10604 12.4791 2.14057 12.2385 2.14057 12.0322C 2.14057 11.8259 2.14057 11.5509 2.14057 11.2071C 2.14057 10.8634 2.14057 10.4852 2.17509 10.0727C 2.17509 9.66014 2.17509 9.2476 2.17509 8.83507C 2.17509 8.38816 2.17509 7.97563 2.17509 7.59748L 2.17509 3.43777C 2.17509 3.19713 2.17509 2.9221 2.17509 2.64708C 2.17509 2.37206 2.14057 2.13142 2.14057 1.89077C 2.10604 1.65013 2.07152 1.44387 2.03699 1.2376C 2.00247 1.03133 1.93342 0.893823 1.82984 0.825067C 1.62269 0.584423 1.38101 0.446911 1.13933 0.378156C 0.897657 0.3094 0.586926 0.240645 0.207147 0.206267L 0.207147 -1.04912e-06L 12.0839 -1.04912e-06L 13.5339 3.5409L 13.3268 3.64404C 12.1529 2.20018 11.0826 1.2376 10.0469 0.721933C 9.80517 0.6188 9.35635 0.515664 8.70037 0.412531C 8.04439 0.343775 7.25031 0.275022 6.2836 0.275022C 5.97287 0.275022 5.66215 0.275024 5.35142 0.309402C 5.04069 0.343779 4.79902 0.343778 4.66092 0.378156C 4.62639 0.6188 4.59186 1.06571 4.59186 1.78764C 4.55734 2.50957 4.55733 3.33464 4.55733 4.26284C 4.55733 4.81288 4.55733 5.25979 4.55733 5.63795C 4.55733 6.0161 4.55733 6.3255 4.55733 6.53176C 4.55733 6.77241 4.55733 6.9443 4.55733 7.08181C 4.55733 7.18494 4.55733 7.28808 4.55733 7.32245C 4.62639 7.32245 4.76449 7.32245 4.97164 7.32245C 5.17879 7.32245 5.42046 7.32245 5.73119 7.28807C 6.00739 7.28807 6.2836 7.2537 6.55981 7.21932C 6.83601 7.18494 7.07769 7.15056 7.25031 7.11619C 7.66462 7.01305 8.04438 6.87554 8.32059 6.70365C 8.59679 6.53176 8.83847 6.3255 9.01109 6.08485C 9.18372 5.84421 9.32183 5.56919 9.4254 5.22541C 9.52898 4.91601 9.63255 4.53786 9.7016 4.15971L 9.94328 4.15971L 9.94328 10.8977L 9.7016 10.8977C 9.59802 10.4508 9.4254 9.96954 9.18372 9.48825C 8.94204 9.00696 8.70037 8.62881 8.4587 8.38817C 8.21702 8.1819 7.94081 8.01001 7.63008 7.90687C 7.31935 7.76936 6.93958 7.70061 6.49075 7.66623C 6.2836 7.66623 6.11097 7.63185 5.93835 7.63185C 5.80024 7.63185 5.66215 7.63185 5.52405 7.63185C 5.38595 7.63185 5.24784 7.63185 5.10974 7.63185C 4.97164 7.63185 4.76449 7.63185 4.55733 7.63185C 4.52281 7.83812 4.52281 8.11314 4.52281 8.52567C 4.52281 8.90383 4.52281 9.31636 4.52281 9.72889C 4.52281 9.90078 4.52281 10.1414 4.52281 10.3821C 4.52281 10.6227 4.52281 10.8634 4.52281 11.104C 4.52281 11.3446 4.52281 11.5509 4.52281 11.7572C 4.52281 11.9634 4.52281 12.1353 4.52281 12.2728C 4.52281 12.7198 4.55734 13.1667 4.59186 13.5792C 4.62639 13.9917 4.69544 14.3011 4.83354 14.473C 4.97164 14.6793 5.28237 14.8168 5.76572 14.8856C 6.24907 14.9887 6.76695 15.0231 7.35388 15.0231C 7.59556 15.0231 7.90629 15.0231 8.28607 14.9887C 8.66585 14.9887 9.08015 14.9543 9.49446 14.8856C 9.94328 14.8168 10.3921 14.7137 10.7719 14.5418C 11.1517 14.3699 11.5314 14.1292 11.8767 13.8542C 12.222 13.5448 12.5672 13.201 12.9125 12.7541C 13.2577 12.3072 13.603 11.7916 13.9482 11.1728L 14.1899 11.2415L 13.1541 15.4012Z"/>
<path id="path7_fill" d="M 16.1578 4.29721C 16.0543 4.05657 15.9161 3.78155 15.7435 3.50653C 15.5709 3.23151 15.4328 2.95649 15.2602 2.71584C 15.0875 2.4752 14.9494 2.23455 14.7768 2.02829C 14.6042 1.82202 14.4661 1.68451 14.3625 1.58138C 14.0518 1.30635 13.7411 1.10009 13.3958 0.996955C 13.0506 0.893822 12.6017 0.859444 12.0493 0.825066C 11.7731 0.825066 11.5314 0.825066 11.3243 0.825066C 11.1171 0.825066 10.91 0.825066 10.7374 0.825066C 10.5647 0.825066 10.3576 0.825066 10.1159 0.825066C 9.90875 0.825066 9.63256 0.825066 9.32183 0.825066C 9.32183 1.16884 9.32183 1.68451 9.32183 2.26893C 9.32183 2.88773 9.32183 3.54091 9.32183 4.19408C 9.32183 4.88164 9.32183 5.53481 9.32183 6.18799C 9.32183 6.84116 9.32183 7.35683 9.32183 7.80374L 9.32183 12.5479C 9.32183 12.9604 9.32182 13.3729 9.35635 13.7511C 9.39087 14.1292 9.45992 14.4043 9.5635 14.5418C 9.77065 14.8512 10.0814 15.0574 10.4612 15.195C 10.8409 15.2981 11.2207 15.4012 11.5314 15.4356L 11.5314 15.6419L 4.55733 15.6419L 4.55733 15.4356C 4.93711 15.4012 5.28237 15.3325 5.62762 15.2293C 5.97287 15.1262 6.31812 14.8856 6.62885 14.5074C 6.6979 14.4386 6.76695 14.3011 6.80148 14.1636C 6.836 13.9917 6.87053 13.8198 6.90506 13.6136C 6.93958 13.4073 6.93958 13.1667 6.93958 12.926C 6.93958 12.6854 6.93958 12.4447 6.93958 12.2041C 6.93958 11.9978 6.93958 11.7572 6.93958 11.4134C 6.93958 11.0696 6.93958 10.7258 6.9741 10.3133C 6.9741 9.90078 6.9741 9.48825 6.9741 9.07572C 6.9741 8.66319 6.9741 8.25065 6.9741 7.83812L 6.9741 0.756312C 6.66338 0.756312 6.4217 0.756312 6.18003 0.756312C 5.97287 0.756312 5.76572 0.756312 5.55856 0.756312C 5.38594 0.756312 5.17879 0.756312 4.97164 0.756312C 4.76449 0.756312 4.52281 0.756312 4.24661 0.756312C 3.6942 0.756312 3.24538 0.825064 2.90013 0.962575C 2.55487 1.06571 2.20961 1.27197 1.93341 1.547C 1.82984 1.65013 1.69174 1.78764 1.51911 1.99391C 1.38101 2.20017 1.20839 2.40644 1.03576 2.64709C 0.863136 2.88773 0.725027 3.12837 0.5524 3.4034C 0.414299 3.67842 0.276198 3.95344 0.207147 4.19408L 4.21451e-06 4.12532L 0.655982 0.0687575C 1.00124 0.137513 1.27744 0.206268 1.55364 0.240646C 1.82984 0.275024 2.24415 0.309397 2.76203 0.343775C 3.31443 0.343775 3.79778 0.378155 4.21208 0.378155C 4.62638 0.378155 5.04069 0.378155 5.45499 0.378155C 5.8693 0.378155 6.24907 0.378155 6.66338 0.378155C 7.07768 0.378155 7.56104 0.378155 8.11344 0.378155C 8.63132 0.378155 9.11467 0.378155 9.52897 0.378155C 9.94327 0.378155 10.3921 0.378155 10.7719 0.378155C 11.1862 0.378155 11.6005 0.378153 12.0148 0.343775C 12.4291 0.343775 12.947 0.343775 13.4649 0.343775C 13.9482 0.343775 14.328 0.275024 14.6387 0.240646C 14.9494 0.171891 15.2602 0.103131 15.6054 -2.09825e-06L 16.2959 4.1597L 16.1578 4.29721Z"/>
<path id="path8_fill" d="M 10.2195 13.3042C 9.94328 13.8542 9.5635 14.3011 9.04562 14.6793C 8.56226 15.0574 7.97534 15.3668 7.28484 15.5387C 6.59433 15.7106 5.83478 15.8137 5.04069 15.8137C 4.35019 15.8137 3.72873 15.7794 3.24538 15.6762C 2.7275 15.6075 2.31319 15.5044 2.00246 15.3668C 1.65721 15.2293 1.41554 15.1262 1.24291 15.0231C 1.07029 14.9199 0.966704 14.8856 0.932178 14.8856C 0.897653 14.8856 0.794081 14.9543 0.65598 15.1262C 0.517879 15.2981 0.379776 15.47 0.2762 15.6075L 0.0690463 15.6075L 2.10726e-06 11.3446L 0.207156 11.3446C 0.345257 11.7228 0.517881 12.101 0.690508 12.4791C 0.897659 12.8573 1.10481 13.201 1.34649 13.5104C 1.58816 13.8198 1.82984 14.1292 2.10605 14.3699C 2.38225 14.6105 2.62392 14.7824 2.8656 14.9199C 3.10727 15.0574 3.41801 15.1606 3.83231 15.2981C 4.24661 15.4356 4.62639 15.5044 5.00617 15.5044C 6.07645 15.5044 6.93958 15.2293 7.59556 14.6449C 8.25154 14.0605 8.59679 13.2698 8.59679 12.3072C 8.59679 11.8947 8.52774 11.5509 8.38964 11.2415C 8.25154 10.9321 8.07891 10.6915 7.87176 10.4508C 7.66461 10.2446 7.38841 10.0383 7.07768 9.86641C 6.76696 9.69452 6.45622 9.557 6.11097 9.45387C 5.76572 9.31636 5.455 9.21323 5.21332 9.14447C 4.97164 9.04134 4.72996 8.97259 4.48829 8.90383C 4.28114 8.83507 4.03946 8.73194 3.79778 8.66319C 3.55611 8.59443 3.2799 8.4913 2.93465 8.35378C 2.55487 8.21627 2.20962 8.01001 1.86436 7.76936C 1.51911 7.52872 1.20838 7.21932 0.966706 6.87554C 0.725029 6.53176 0.483356 6.15361 0.345255 5.77546C 0.172628 5.36292 0.103574 4.95039 0.103574 4.4691C 0.103574 3.71279 0.241679 3.02524 0.517881 2.4752C 0.794083 1.92515 1.17386 1.44387 1.65721 1.10009C 2.14056 0.721934 2.69298 0.446909 3.31443 0.275021C 3.93589 0.103132 4.59186 -2.09825e-06 5.28236 -2.09825e-06C 5.93834 -2.09825e-06 6.49076 0.0687533 6.93958 0.171886C 7.38841 0.27502 7.76819 0.412531 8.07891 0.515664C 8.35512 0.653175 8.59679 0.756308 8.73489 0.859441C 8.87299 0.962574 8.97657 1.03133 8.97657 1.03133C 9.0111 1.03133 9.11467 0.928197 9.25277 0.790686C 9.39087 0.618798 9.52898 0.446909 9.63255 0.275021L 9.87423 0.275021L 9.87423 4.22846L 9.63255 4.22846C 9.45993 3.74717 9.25278 3.30026 8.97657 2.81898C 8.70037 2.33769 8.38964 1.92515 8.04439 1.58138C 7.69913 1.20322 7.28483 0.928196 6.80148 0.687552C 6.35265 0.446908 5.83477 0.343775 5.28236 0.343775C 4.83354 0.343775 4.41923 0.412533 4.03945 0.550044C 3.65967 0.687554 3.31442 0.859442 3.00369 1.13446C 2.72749 1.37511 2.48582 1.71889 2.31319 2.09704C 2.14056 2.4752 2.07152 2.92211 2.07152 3.4034C 2.07152 4.15971 2.3132 4.7785 2.76202 5.22542C 3.21085 5.67233 3.79778 6.05048 4.55733 6.3255C 4.83353 6.42863 5.10974 6.53177 5.35142 6.6349C 5.5931 6.73803 5.83478 6.80679 6.07645 6.87554C 6.31813 6.9443 6.5598 7.04743 6.80148 7.11619C 7.04315 7.18495 7.31936 7.28807 7.59556 7.39121C 8.56227 7.73498 9.32183 8.25065 9.87423 8.9382C 10.4266 9.62576 10.6683 10.4508 10.6683 11.4822C 10.6338 12.1353 10.4957 12.7541 10.2195 13.3042Z"/>
<path id="path9_fill" d="M 4.07398 1.92515C 3.72873 2.54395 3.38348 3.19713 3.07275 3.81593L 3.07275 6.46301L 2.00247 6.46301L 2.00247 3.81593C 1.65721 3.16275 1.31196 2.54395 1.00123 1.92515C 0.655981 1.30635 0.345253 0.653178 5.26814e-07 0.0343788L 1.20839 0.0343788L 2.00247 1.61575C 2.10604 1.82202 2.20962 2.02828 2.27867 2.23455C 2.38224 2.44082 2.4513 2.64708 2.55487 2.85335L 2.5894 2.85335L 3.17633 1.58138L 3.93588 -1.04912e-06L 5.14427 -1.04912e-06C 4.76449 0.653176 4.41923 1.30635 4.07398 1.92515Z"/>
<path id="path10_fill" d="M 2.07152 2.09825e-06C 2.41677 2.09825e-06 2.7275 0.0687544 3.0037 0.206265C 3.2799 0.343776 3.48705 0.515664 3.65968 0.790686C 3.76326 0.962574 3.86683 1.20322 3.93588 1.44387C 4.00493 1.68451 4.00493 1.99391 4.00493 2.30331C 4.00493 2.64709 3.97041 2.95648 3.93588 3.19713C 3.86683 3.43777 3.79778 3.67842 3.6942 3.85031C 3.52158 4.12533 3.2799 4.36597 2.96917 4.50348C 2.65845 4.64099 2.31319 4.70975 1.96794 4.70975C 1.62269 4.70975 1.31196 4.64099 1.03576 4.53786C 0.759557 4.43473 0.552404 4.22846 0.379778 3.98781C 0.138101 3.60966 5.26814e-07 3.05962 5.26814e-07 2.33768C 5.26814e-07 2.09704 0 1.8564 0.0345253 1.61575C 0.0690506 1.40949 0.138101 1.20322 0.207152 1.03133C 0.379778 0.687557 0.621454 0.446911 0.932182 0.240645C 1.27743 0.0687565 1.65721 2.09825e-06 2.07152 2.09825e-06ZM 2.03699 0.9282C 1.86437 0.9282 1.69174 0.962575 1.55364 1.06571C 1.41554 1.16884 1.31196 1.27198 1.24291 1.44387C 1.17386 1.58138 1.13933 1.71889 1.13933 1.8564C 1.10481 1.99391 1.10481 2.16579 1.10481 2.33768C 1.10481 2.50957 1.10481 2.68146 1.13933 2.81897C 1.17386 2.95649 1.20838 3.09399 1.24291 3.19713C 1.31196 3.36901 1.41554 3.47215 1.55364 3.57528C 1.69174 3.67842 1.86437 3.71279 2.03699 3.71279C 2.24414 3.71279 2.41677 3.64404 2.55487 3.5409C 2.7275 3.43777 2.83107 3.26588 2.90012 3.05962C 2.93465 2.95648 2.96917 2.85335 2.96917 2.75022C 2.96917 2.61271 3.0037 2.44082 3.0037 2.26893C 3.0037 1.92515 2.96917 1.65013 2.8656 1.47824C 2.79655 1.30635 2.69297 1.16884 2.55487 1.06571C 2.38225 0.962575 2.20962 0.9282 2.03699 0.9282Z"/>
<path id="path11_fill" d="M 1.07028 -1.04912e-06L 1.07028 2.71584C 1.07028 3.02524 1.13933 3.26589 1.27743 3.4034C 1.41554 3.54091 1.62269 3.64404 1.93342 3.64404C 2.17509 3.64404 2.38225 3.57529 2.55487 3.4034C 2.7275 3.23151 2.79655 3.02524 2.79655 2.71584L 2.79655 -1.04912e-06L 3.83231 -1.04912e-06L 3.83231 4.60662L 2.79655 4.60662L 2.79655 4.15971L 2.76202 4.15971C 2.62392 4.33159 2.4513 4.4691 2.20962 4.53786C 2.00247 4.60661 1.79531 4.67537 1.58816 4.67537C 1.10481 4.67537 0.72503 4.53786 0.448828 4.26284C 0.172625 3.98782 5.26814e-07 3.57528 5.26814e-07 3.02524L 5.26814e-07 -1.04912e-06L 1.07028 -1.04912e-06Z"/>
<path id="path12_fill" d="M 1.89889 0.962574C 1.65722 0.962574 1.45006 1.03133 1.27744 1.20322C 1.10481 1.34073 1.03576 1.58138 1.03576 1.89078L 1.03576 4.64099L 2.10726e-06 4.64099L 2.10726e-06 0.0343767L 1.03576 0.0343767L 1.03576 0.584422L 1.07028 0.584422C 1.34648 0.17189 1.72626 2.09825e-06 2.17509 2.09825e-06C 2.34772 2.09825e-06 2.52035 0.0343788 2.65845 0.0687565C 2.79655 0.103134 2.93465 0.17189 3.07275 0.240645L 2.69297 1.20322C 2.55487 1.13447 2.4513 1.06571 2.31319 1.03133C 2.17509 0.996956 2.03699 0.962574 1.89889 0.962574Z"/>
<path id="path13_fill" d="M 2.07152 2.09825e-06C 2.41677 2.09825e-06 2.7275 0.0687544 3.0037 0.206265C 3.2799 0.343776 3.48706 0.515664 3.65968 0.790686C 3.76326 0.962574 3.86683 1.20322 3.93588 1.44387C 4.00493 1.68451 4.00493 1.99391 4.00493 2.30331C 4.00493 2.64709 3.9704 2.95648 3.93588 3.19713C 3.86683 3.43777 3.79778 3.67842 3.6942 3.85031C 3.52158 4.12533 3.2799 4.36597 2.96918 4.50348C 2.65845 4.64099 2.31319 4.70975 1.96794 4.70975C 1.62269 4.70975 1.31196 4.64099 1.03576 4.53786C 0.759556 4.43473 0.552407 4.22846 0.37978 3.98781C 0.138103 3.60966 -9.81267e-15 3.05962 -9.81267e-15 2.33768C -9.81267e-15 2.09704 2.10674e-06 1.8564 0.0345274 1.61575C 0.0690527 1.40949 0.138103 1.20322 0.207154 1.03133C 0.37978 0.687557 0.621454 0.446911 0.932181 0.240645C 1.27743 0.0687565 1.65721 2.09825e-06 2.07152 2.09825e-06ZM 2.03699 0.9282C 1.86436 0.9282 1.69174 0.962575 1.55364 1.06571C 1.41554 1.16884 1.31196 1.27198 1.24291 1.44387C 1.17386 1.58138 1.13934 1.71889 1.13934 1.8564C 1.10481 1.99391 1.10481 2.16579 1.10481 2.33768C 1.10481 2.50957 1.10481 2.68146 1.13934 2.81897C 1.17386 2.95649 1.20839 3.09399 1.24291 3.19713C 1.31196 3.36901 1.41554 3.47215 1.55364 3.57528C 1.69174 3.67842 1.86436 3.71279 2.03699 3.71279C 2.24414 3.71279 2.41677 3.64404 2.55487 3.5409C 2.72749 3.43777 2.83107 3.26588 2.90012 3.05962C 2.93465 2.95648 2.96918 2.85335 2.96918 2.75022C 2.96918 2.61271 3.0037 2.44082 3.0037 2.26893C 3.0037 1.92515 2.96918 1.65013 2.8656 1.47824C 2.79655 1.30635 2.69297 1.16884 2.55487 1.06571C 2.38224 0.962575 2.20962 0.9282 2.03699 0.9282Z"/>
<path id="path14_fill" d="M 2.76202 4.64099L 2.76202 1.92515C 2.76202 1.61575 2.69297 1.40949 2.55487 1.2376C 2.41677 1.06571 2.20962 0.996954 1.89889 0.996954C 1.65722 0.996954 1.41554 1.06571 1.27744 1.2376C 1.10481 1.40949 1.03576 1.61575 1.03576 1.92515L 1.03576 4.64099L 2.10726e-06 4.64099L 2.10726e-06 0.0343767L 1.03576 0.0343767L 1.03576 0.515668L 1.07028 0.515668C 1.20838 0.343779 1.41554 0.206266 1.62269 0.137511C 1.82984 0.0343777 2.07152 2.09825e-06 2.27867 2.09825e-06C 2.76202 2.09825e-06 3.1418 0.137512 3.418 0.412534C 3.6942 0.687555 3.8323 1.10009 3.8323 1.61575L 3.8323 4.64099L 2.76202 4.64099Z"/>
<path id="path15_fill" d="M 1.31196 6.73803C 1.13934 6.73803 0.966709 6.70365 0.794082 6.66928C 0.655981 6.6349 0.517881 6.56615 0.37978 6.46301C 0.276204 6.35988 0.172627 6.25674 0.103577 6.08486C 0.0345263 5.91297 0 5.74108 0 5.50043L 0 0L 1.07029 0L 1.07029 5.36293C 1.07029 5.53481 1.10481 5.63795 1.17386 5.7067C 1.24291 5.77546 1.34648 5.80983 1.51911 5.80983L 1.69174 5.80983L 1.69174 6.73803L 1.31196 6.73803Z"/>
<path id="path16_fill" d="M -2.10726e-06 0.962578L -2.10726e-06 1.04912e-06L 1.03576 1.04912e-06L 1.03576 0.962578L -2.10726e-06 0.962578ZM -2.10726e-06 6.46301L -2.10726e-06 1.8564L 1.03576 1.8564L 1.03576 6.46301L -2.10726e-06 6.46301Z"/>
<path id="path17_fill" d="M 2.79655 4.64099L 2.79655 1.92515C 2.79655 1.61575 2.7275 1.40949 2.5894 1.2376C 2.45129 1.06571 2.24415 0.996954 1.93342 0.996954C 1.69174 0.996954 1.48459 1.06571 1.31196 1.2376C 1.13934 1.40949 1.07029 1.61575 1.07029 1.92515L 1.07029 4.64099L 0 4.64099L 0 0.0343767L 1.07029 0.0343767L 1.07029 0.515668L 1.10481 0.515668C 1.24291 0.343779 1.45006 0.206266 1.65721 0.137511C 1.86437 0.0343777 2.10604 2.09825e-06 2.31319 2.09825e-06C 2.79655 2.09825e-06 3.17633 0.137512 3.45253 0.412534C 3.72873 0.687555 3.86683 1.10009 3.86683 1.61575L 3.86683 4.64099L 2.79655 4.64099Z"/>
<path id="path18_fill" d="M 1.07028 2.71584C 1.07028 2.85335 1.10481 2.99086 1.13933 3.12837C 1.17386 3.26588 1.24291 3.36902 1.31196 3.47215C 1.38101 3.57528 1.48459 3.64404 1.62269 3.71279C 1.76079 3.78155 1.89889 3.81593 2.07151 3.81593C 2.20962 3.81593 2.38224 3.78155 2.58939 3.71279C 2.79655 3.64404 3.0037 3.5409 3.17633 3.36902C 3.2799 3.50653 3.38348 3.60966 3.48705 3.74717C 3.59063 3.88468 3.6942 3.98781 3.79778 4.12532C 3.52158 4.36597 3.24537 4.53786 2.93465 4.64099C 2.62392 4.74412 2.34772 4.7785 2.03699 4.7785C 1.79532 4.7785 1.55364 4.74413 1.31196 4.67537C 1.07028 4.60661 0.863133 4.4691 0.655981 4.29721C 0.44883 4.12532 0.310725 3.88468 0.172624 3.57528C 0.0345232 3.26588 -2.10726e-06 2.88773 -2.10726e-06 2.40644C -2.10726e-06 1.95953 0.0690484 1.58138 0.172624 1.27198C 0.310725 0.962578 0.44883 0.721932 0.655981 0.550044C 0.863133 0.378155 1.07028 0.240645 1.31196 0.137512C 1.55364 0.0687565 1.79532 -2.09825e-06 2.03699 -2.09825e-06C 2.34772 -2.09825e-06 2.62392 0.0687533 2.8656 0.171887C 3.10727 0.27502 3.31443 0.412532 3.48705 0.618798C 3.65968 0.825064 3.79778 1.03133 3.86683 1.30635C 3.97041 1.58137 4.00493 1.89078 4.00493 2.20018L 4.00493 2.64709L 1.07028 2.64709L 1.07028 2.71584ZM 1.96794 0.996955C 1.72627 0.996955 1.51911 1.06571 1.34649 1.2376C 1.17386 1.40949 1.10481 1.65013 1.07028 1.95953L 2.83107 1.95953C 2.79655 1.65013 2.7275 1.40949 2.55487 1.2376C 2.41677 1.10009 2.20962 0.996955 1.96794 0.996955Z"/>
<path id="path19_fill" d="M 3.93588 4.33159C 3.93588 4.60662 3.90136 4.88164 3.86683 5.15666C 3.8323 5.43168 3.76326 5.7067 3.62515 5.94735C 3.52158 6.18799 3.34895 6.35988 3.10728 6.53177C 2.90012 6.66928 2.5894 6.77241 2.24414 6.77241C 2.03699 6.77241 1.82984 6.73803 1.62269 6.66928C 1.41554 6.60052 1.24291 6.46301 1.10481 6.29112L 1.07029 6.29112L 1.07029 6.73803L -9.81267e-15 6.73803L -9.81267e-15 0L 1.07029 0L 1.07029 2.57833L 1.10481 2.57833C 1.27743 2.40644 1.45006 2.3033 1.65721 2.20017C 1.86437 2.13142 2.07152 2.09704 2.24414 2.09704C 2.5894 2.09704 2.8656 2.1658 3.07275 2.30331C 3.2799 2.44082 3.45253 2.61271 3.59063 2.85335C 3.6942 3.05962 3.79778 3.30026 3.83231 3.57528C 3.90136 3.81592 3.93588 4.09095 3.93588 4.33159ZM 2.83107 4.43472C 2.83107 4.26284 2.83107 4.12533 2.79655 3.95344C 2.79655 3.78155 2.7275 3.64404 2.69297 3.50653C 2.62392 3.36902 2.55487 3.26588 2.41677 3.19713C 2.31319 3.12837 2.14057 3.05961 1.93342 3.05961C 1.72627 3.05961 1.58816 3.094 1.48459 3.19713C 1.38101 3.30026 1.27744 3.4034 1.20838 3.54091C 1.13933 3.67842 1.10481 3.81593 1.10481 3.98782C 1.07028 4.15971 1.07029 4.29721 1.07029 4.43472C 1.07029 4.57223 1.07028 4.74412 1.10481 4.88163C 1.10481 5.05352 1.17386 5.19104 1.20838 5.32855C 1.27744 5.46606 1.34649 5.56919 1.48459 5.67232C 1.58816 5.77546 1.76079 5.80983 1.96794 5.80983C 2.17509 5.80983 2.3132 5.77546 2.4513 5.67232C 2.55487 5.56919 2.65844 5.46606 2.72749 5.32855C 2.79655 5.19104 2.83107 5.05352 2.83107 4.88163C 2.83107 4.74412 2.83107 4.57223 2.83107 4.43472Z"/>
<path id="path20_fill" d="M 1.89889 0.962574C 1.65721 0.962574 1.45006 1.03133 1.27744 1.20322C 1.10481 1.34073 1.03576 1.58138 1.03576 1.89078L 1.03576 4.64099L -2.10726e-06 4.64099L -2.10726e-06 0.0343767L 1.03576 0.0343767L 1.03576 0.584422L 1.07028 0.584422C 1.34649 0.17189 1.72626 2.09825e-06 2.17509 2.09825e-06C 2.34772 2.09825e-06 2.52035 0.0343788 2.65845 0.0687565C 2.79655 0.103134 2.93465 0.17189 3.07275 0.240645L 2.69297 1.20322C 2.55487 1.13447 2.4513 1.06571 2.3132 1.03133C 2.14057 0.996956 2.03699 0.962574 1.89889 0.962574Z"/>
<path id="path21_fill" d="M 2.07151 2.09825e-06C 2.41677 2.09825e-06 2.7275 0.0687544 3.0037 0.206265C 3.2799 0.343776 3.48705 0.515664 3.65968 0.790686C 3.76325 0.962574 3.86684 1.20322 3.93589 1.44387C 4.00494 1.68451 4.00493 1.99391 4.00493 2.30331C 4.00493 2.64709 3.97041 2.95648 3.93589 3.19713C 3.86684 3.43777 3.79778 3.67842 3.6942 3.85031C 3.52158 4.12533 3.2799 4.36597 2.96917 4.50348C 2.65844 4.64099 2.31319 4.70975 1.96794 4.70975C 1.62269 4.70975 1.31196 4.64099 1.03575 4.53786C 0.759552 4.43473 0.552402 4.22846 0.379776 3.98781C 0.138099 3.60966 -4.21451e-06 3.05962 -4.21451e-06 2.33768C -4.21451e-06 2.09704 -2.10674e-06 1.8564 0.0345232 1.61575C 0.0690484 1.40949 0.138099 1.20322 0.20715 1.03133C 0.379776 0.687557 0.621455 0.446911 0.932183 0.240645C 1.27744 0.0687565 1.65721 2.09825e-06 2.07151 2.09825e-06ZM 2.037 0.9282C 1.86437 0.9282 1.69173 0.962575 1.55363 1.06571C 1.41553 1.16884 1.31196 1.27198 1.20838 1.44387C 1.13933 1.58138 1.10481 1.71889 1.10481 1.8564C 1.07028 1.99391 1.07028 2.16579 1.07028 2.33768C 1.07028 2.50957 1.07028 2.68146 1.10481 2.81897C 1.13933 2.95649 1.17386 3.09399 1.20838 3.19713C 1.27743 3.36901 1.38102 3.47215 1.51912 3.57528C 1.65722 3.67842 1.82984 3.71279 2.00247 3.71279C 2.20962 3.71279 2.38225 3.64404 2.52035 3.5409C 2.69297 3.43777 2.79655 3.26588 2.8656 3.05962C 2.90013 2.95648 2.93464 2.85335 2.93464 2.75022C 2.93464 2.61271 2.96917 2.44082 2.96917 2.26893C 2.96917 1.92515 2.93465 1.65013 2.83107 1.47824C 2.76202 1.30635 2.65845 1.16884 2.52035 1.06571C 2.38225 0.962575 2.20962 0.9282 2.037 0.9282Z"/>
<path id="path22_fill" d="M 3.03822 6.73803C 2.79654 6.39426 2.58939 6.05048 2.34771 5.7067C 2.14056 5.36293 1.89889 5.01915 1.65721 4.67537C 1.55363 4.7785 1.45006 4.91602 1.34648 5.01915C 1.24291 5.12228 1.13933 5.25979 1.03576 5.36293L 1.03576 6.70366L 0 6.70366L 0 0L 1.07029 0L 1.07029 4.02219L 1.10481 4.02219L 2.00246 2.99086L 2.79655 2.13142L 4.07398 2.13142L 2.41677 3.91906C 2.7275 4.40035 3.03823 4.84726 3.34896 5.32855C 3.65968 5.80983 3.9704 6.25675 4.28113 6.73803L 3.03822 6.73803Z"/>
<path id="path23_fill" d="M 1.07028 2.71584C 1.07028 2.85335 1.10481 2.99086 1.13933 3.12837C 1.17386 3.26588 1.24291 3.36902 1.31196 3.47215C 1.38101 3.57528 1.48458 3.64404 1.62269 3.71279C 1.76079 3.78155 1.89889 3.81593 2.07152 3.81593C 2.20962 3.81593 2.38225 3.78155 2.5894 3.71279C 2.79655 3.64404 3.0037 3.5409 3.17632 3.36902C 3.2799 3.50653 3.38347 3.60966 3.48705 3.74717C 3.59062 3.88468 3.69421 3.98781 3.79778 4.12532C 3.52158 4.36597 3.24538 4.53786 2.93465 4.64099C 2.62393 4.74412 2.34772 4.7785 2.03699 4.7785C 1.79532 4.7785 1.55364 4.74413 1.31196 4.67537C 1.07028 4.60661 0.863134 4.4691 0.655982 4.29721C 0.448831 4.12532 0.310732 3.88468 0.172631 3.57528C 0.0690548 3.26588 4.21451e-06 2.88773 4.21451e-06 2.40644C 4.21451e-06 1.95953 0.0690548 1.58138 0.172631 1.27198C 0.310732 0.962578 0.448831 0.721932 0.655982 0.550044C 0.863134 0.378155 1.07028 0.240645 1.31196 0.137512C 1.55364 0.0687565 1.79532 -2.09825e-06 2.03699 -2.09825e-06C 2.34772 -2.09825e-06 2.62392 0.0687533 2.8656 0.171887C 3.10728 0.27502 3.31442 0.412532 3.48705 0.618798C 3.65968 0.825064 3.79778 1.03133 3.86683 1.30635C 3.9704 1.58137 4.00493 1.89078 4.00493 2.20018L 4.00493 2.64709L 1.07028 2.64709L 1.07028 2.71584ZM 2.00247 0.996955C 1.76079 0.996955 1.55364 1.06571 1.38102 1.2376C 1.20839 1.40949 1.13933 1.65013 1.10481 1.95953L 2.8656 1.95953C 2.83107 1.65013 2.76203 1.40949 2.5894 1.2376C 2.41677 1.10009 2.20962 0.996955 2.00247 0.996955Z"/>
<path id="path24_fill" d="M 1.93341 0.962574C 1.69173 0.962574 1.48459 1.03133 1.31196 1.20322C 1.13933 1.34073 1.07028 1.58138 1.07028 1.89078L 1.07028 4.64099L 4.21451e-06 4.64099L 4.21451e-06 0.0343767L 1.03576 0.0343767L 1.03576 0.584422L 1.07028 0.584422C 1.34648 0.17189 1.72626 2.09825e-06 2.17509 2.09825e-06C 2.34772 2.09825e-06 2.52034 0.0343788 2.65844 0.0687565C 2.79655 0.103134 2.93465 0.17189 3.07275 0.240645L 2.69297 1.20322C 2.55487 1.13447 2.45129 1.06571 2.31319 1.03133C 2.17509 0.996956 2.03699 0.962574 1.93341 0.962574Z"/>
<path id="path25_fill" d="M 3.52158 1.75326C 3.52158 2.71584 2.7275 3.50653 1.76079 3.50653C 0.794081 3.50653 5.26814e-07 2.71584 5.26814e-07 1.75326C 5.26814e-07 0.790688 0.794081 -2.09825e-06 1.76079 -2.09825e-06C 2.76202 -2.09825e-06 3.52158 0.790688 3.52158 1.75326Z"/>
</defs>
</svg>
