<svg width="20" height="24" viewBox="0 0 20 24" version="1.1" xmlns="http://www.w3.org/2000/svg" xmlns:xlink="http://www.w3.org/1999/xlink">
<title>Vector</title>
<desc>Created using Figma</desc>
<g id="Canvas" transform="translate(-1356 -827)">
<g id="Vector">
<use xlink:href="#path0_fill" transform="translate(1356 827)" fill="#828282"/>
</g>
</g>
<defs>
<path id="path0_fill" d="M 20 15.5L 20 1L 14 1L 14 3L 13 3L 13 0L 7 0L 7 3L 6 3L 6 1L 0 1L 0 15.5L 10 23.3L 20 15.5ZM 2 3L 4 3L 4 5L 9 5L 9 2L 11 2L 11 5L 16 5L 16 3L 18 3L 18 14.5L 10 20.7L 2 14.5L 2 3Z"/>
</defs>
</svg>
