<svg width="24" height="23" viewBox="0 0 24 23" version="1.1" xmlns="http://www.w3.org/2000/svg" xmlns:xlink="http://www.w3.org/1999/xlink">
<title>Group</title>
<desc>Created using Figma</desc>
<g id="Canvas" transform="translate(-1354 -689)">
<g id="Group">
<g id="Vector">
<use xlink:href="#path0_fill" transform="translate(1354 689)" fill="#828282"/>
</g>
<g id="Vector">
<use xlink:href="#path1_fill" transform="translate(1357 695)" fill="#828282"/>
</g>
<g id="Vector">
<use xlink:href="#path1_fill" transform="translate(1371 695)" fill="#828282"/>
</g>
<g id="Vector">
<use xlink:href="#path2_fill" transform="translate(1362 692)" fill="#828282"/>
</g>
<g id="Vector">
<use xlink:href="#path3_fill" transform="translate(1354 704)" fill="#828282"/>
</g>
<g id="Vector">
<use xlink:href="#path3_fill" transform="translate(1354 707)" fill="#828282"/>
</g>
<g id="Vector">
<use xlink:href="#path3_fill" transform="translate(1354 710)" fill="#828282"/>
</g>
</g>
</g>
<defs>
<path id="path0_fill" d="M 0 14L 24 14L 24 0L 0 0L 0 14ZM 2 2L 22 2L 22 12L 2 12L 2 2Z"/>
<path id="path1_fill" d="M 4 0L 0 0L 0 2L 4 2L 4 0Z"/>
<path id="path2_fill" d="M 4 0C 1.8 0 0 1.8 0 4C 0 6.2 1.8 8 4 8C 6.2 8 8 6.2 8 4C 8 1.8 6.2 0 4 0ZM 4 6C 2.9 6 2 5.1 2 4C 2 2.9 2.9 2 4 2C 5.1 2 6 2.9 6 4C 6 5.1 5.1 6 4 6Z"/>
<path id="path3_fill" d="M 24 0L 0 0L 0 2L 24 2L 24 0Z"/>
</defs>
</svg>
