<svg width="631" height="345" viewBox="0 0 631 345" version="1.1" xmlns="http://www.w3.org/2000/svg" xmlns:xlink="http://www.w3.org/1999/xlink">
<title>Group 5</title>
<desc>Created using Figma</desc>
<g id="Canvas" transform="translate(437 -2849)">
<g id="Group 5">
<g id="Vector">
<use xlink:href="#path0_fill" transform="translate(-387.26 2901.69)" fill="url(#paint0_linear)"/>
</g>
<g id="Vector">
<use xlink:href="#path1_fill" transform="translate(-207.744 2901.69)" fill="url(#paint1_linear)"/>
</g>
<g id="Vector">
<use xlink:href="#path2_fill" transform="translate(-33.5641 2901.69)" fill="url(#paint2_linear)"/>
</g>
<g id="Vector">
<use xlink:href="#path3_fill" transform="translate(-437 2849)" fill="url(#paint3_linear)"/>
</g>
<g id="Vector">
<use xlink:href="#path4_fill" transform="translate(-437 2849)" fill="url(#paint4_linear)"/>
</g>
</g>
</g>
<defs>
<linearGradient id="paint0_linear" x1="0" y1="0" x2="1" y2="0" gradientUnits="userSpaceOnUse" gradientTransform="matrix(-0.0904449 96.5442 -96.5379 -0.0904391 132.619 -22.1933)">
<stop offset="0" stop-color="#FFFFFF" stop-opacity="0"/>
<stop offset="1" stop-color="#FFFFFF"/>
</linearGradient>
<linearGradient id="paint1_linear" x1="0" y1="0" x2="1" y2="0" gradientUnits="userSpaceOnUse" gradientTransform="matrix(0.250196 103.544 -100.032 0.241709 131.51 -22.3594)">
<stop offset="0" stop-color="#FFFFFF" stop-opacity="0"/>
<stop offset="1" stop-color="#FFFFFF"/>
</linearGradient>
<linearGradient id="paint2_linear" x1="0" y1="0" x2="1" y2="0" gradientUnits="userSpaceOnUse" gradientTransform="matrix(0.404351 106.544 -106.297 0.403412 137.308 -22.4402)">
<stop offset="0" stop-color="#FFFFFF" stop-opacity="0"/>
<stop offset="1" stop-color="#FFFFFF"/>
</linearGradient>
<linearGradient id="paint3_linear" x1="0" y1="0" x2="1" y2="0" gradientUnits="userSpaceOnUse" gradientTransform="matrix(-2.11478e-14 595 -294.546 -1.55581e-08 462.205 -89.0442)">
<stop offset="0" stop-color="#FFFFFF" stop-opacity="0"/>
<stop offset="1" stop-color="#FFFFFF"/>
</linearGradient>
<linearGradient id="paint4_linear" x1="0" y1="0" x2="1" y2="0" gradientUnits="userSpaceOnUse" gradientTransform="matrix(-2.11478e-14 595 -294.546 -1.55581e-08 462.205 -89.0442)">
<stop offset="0" stop-color="#FFFFFF" stop-opacity="0"/>
<stop offset="1" stop-color="#FFFFFF"/>
</linearGradient>
<path id="path0_fill" d="M 9.1473 0L 168.844 0C 168.844 0 166.938 9.52906 165.795 20.9639C 164.27 32.3988 163.127 45.7395 163.127 45.7395L 0 45.7395C 0 45.7395 1.52454 33.9234 4.19251 20.5828C 6.86047 7.24209 9.1473 0 9.1473 0Z"/>
<path id="path1_fill" d="M 4.57365 0L 158.553 0C 158.553 0 160.078 9.1479 161.221 21.3451C 162.365 33.1611 163.127 45.7395 163.127 45.7395L 0 45.7395C 0 45.7395 0.762284 33.9234 2.28683 20.5828C 3.81138 6.47976 4.57365 0 4.57365 0Z"/>
<path id="path2_fill" d="M 159.315 0L 0 0C 0 0 1.9057 9.52906 3.04911 20.9639C 4.57366 32.3988 5.71706 45.7395 5.71706 45.7395L 168.463 45.7395C 168.463 45.7395 166.938 33.9234 164.27 20.5828C 161.602 7.24209 159.315 0 159.315 0Z"/>
<path id="path3_fill" d="M 630.401 178.003C 630.401 86.1427 606.39 0.762325 576.661 0L 54.1215 0C 24.0117 0 -3.63481e-07 85.7615 -3.63481e-07 178.003C -3.63481e-07 270.244 24.3928 344.952 54.1215 344.952L 576.661 344.952C 606.39 343.808 630.401 269.482 630.401 178.003ZM 28.2042 178.003C 28.2042 107.488 45.3554 28.9683 75.4652 28.9683L 554.936 28.9683C 585.046 28.9683 602.578 107.488 602.578 178.003C 602.578 248.137 583.522 304.168 556.08 304.168C 535.117 304.168 98.7146 304.549 74.703 304.549C 45.3554 304.549 28.2042 247.755 28.2042 178.003Z"/>
<path id="path4_fill" d="M 630.401 178.003C 630.401 86.1427 606.39 0.762325 576.661 0L 54.1215 0C 24.0117 0 -3.63481e-07 85.7615 -3.63481e-07 178.003C -3.63481e-07 270.244 24.3928 344.952 54.1215 344.952L 576.661 344.952C 606.39 343.808 630.401 269.482 630.401 178.003ZM 28.2042 178.003C 28.2042 107.488 45.3554 19.4393 75.4652 19.4393L 554.936 19.4393C 585.046 19.4393 602.578 107.488 602.578 178.003C 602.578 248.137 583.522 322.844 556.08 322.844C 535.117 322.844 98.7146 323.226 74.703 323.226C 45.3554 323.226 28.2042 247.755 28.2042 178.003Z"/>
</defs>
</svg>
