<svg width="650" height="364" viewBox="0 0 650 364" version="1.1" xmlns="http://www.w3.org/2000/svg" xmlns:xlink="http://www.w3.org/1999/xlink">
<title>Group 6</title>
<desc>Created using Figma</desc>
<g id="Canvas" transform="translate(-1510 -2392)">
<g id="Group 6">
<g id="Group 5">
<g id="Vector">
<use xlink:href="#path0_fill" transform="translate(1573.74 2455.69)" fill="url(#paint0_linear)"/>
</g>
<g id="Vector">
<use xlink:href="#path1_fill" transform="translate(1753.26 2455.69)" fill="url(#paint1_linear)"/>
</g>
<g id="Vector">
<use xlink:href="#path2_fill" transform="translate(1927.44 2455.69)" fill="url(#paint2_linear)"/>
</g>
<g id="Vector">
<use xlink:href="#path3_fill" transform="translate(1524 2403)" fill="url(#paint3_linear)"/>
</g>
<g id="Vector">
<use xlink:href="#path4_fill" transform="translate(1524 2403)" fill="#FFFFFF" fill-opacity="0.69"/>
</g>
</g>
<g id="Group 4">
<g id="Vector">
<use xlink:href="#path5_fill" transform="translate(1515.34 2396.56)" fill="url(#paint5_linear)"/>
</g>
<g id="Vector">
<use xlink:href="#path6_fill" transform="translate(1510 2392.37)" fill="url(#paint6_linear)"/>
</g>
<g id="Vector">
<use xlink:href="#path7_fill" transform="translate(2087.42 2557.8)" fill="#FFFFFF" fill-opacity="0.79" style="mix-blend-mode:screen"/>
</g>
<g id="Vector">
<use xlink:href="#path8_fill" transform="translate(2087.42 2549.03)" fill="url(#paint8_linear)"/>
</g>
<g id="Vector">
<use xlink:href="#path9_fill" transform="translate(2092.76 2550.17)" fill="url(#paint9_linear)"/>
</g>
<g id="Vector">
<use xlink:href="#path10_fill" transform="translate(2087.42 2578)" fill="url(#paint10_linear)"/>
</g>
<g id="Vector">
<use xlink:href="#path11_fill" transform="translate(1534.39 2557.8)" fill="#FFFFFF" fill-opacity="0.74"/>
</g>
<g id="Vector">
<use xlink:href="#path12_fill" transform="translate(1529.44 2549.03)" fill="url(#paint12_linear)"/>
</g>
<g id="Vector">
<use xlink:href="#path13_fill" transform="translate(1529.44 2550.17)" fill="url(#paint13_linear)"/>
</g>
<g id="Vector">
<use xlink:href="#path14_fill" transform="translate(1529.44 2578)" fill="url(#paint14_linear)"/>
</g>
</g>
</g>
</g>
<defs>
<linearGradient id="paint0_linear" x1="0" y1="0" x2="1" y2="0" gradientUnits="userSpaceOnUse" gradientTransform="matrix(-0.0904449 96.5442 -96.5379 -0.0904391 132.619 -22.1933)">
<stop offset="0" stop-color="#FFFFFF" stop-opacity="0"/>
<stop offset="1" stop-color="#FFFFFF"/>
</linearGradient>
<linearGradient id="paint1_linear" x1="0" y1="0" x2="1" y2="0" gradientUnits="userSpaceOnUse" gradientTransform="matrix(0.250196 103.544 -100.032 0.241709 131.51 -22.3594)">
<stop offset="0" stop-color="#FFFFFF" stop-opacity="0"/>
<stop offset="1" stop-color="#FFFFFF"/>
</linearGradient>
<linearGradient id="paint2_linear" x1="0" y1="0" x2="1" y2="0" gradientUnits="userSpaceOnUse" gradientTransform="matrix(0.404351 106.544 -106.297 0.403412 137.308 -22.4402)">
<stop offset="0" stop-color="#FFFFFF" stop-opacity="0"/>
<stop offset="1" stop-color="#FFFFFF"/>
</linearGradient>
<linearGradient id="paint3_linear" x1="0" y1="0" x2="1" y2="0" gradientUnits="userSpaceOnUse" gradientTransform="matrix(-2.11478e-14 595 -294.546 -1.55581e-08 462.205 -89.0442)">
<stop offset="0" stop-color="#FFFFFF" stop-opacity="0"/>
<stop offset="1" stop-color="#FFFFFF"/>
</linearGradient>
<linearGradient id="paint5_linear" x1="0" y1="0" x2="1" y2="0" gradientUnits="userSpaceOnUse" gradientTransform="matrix(0 -355.16 355.137 0 142.105 355.336)">
<stop offset="0" stop-color="#FFF700"/>
<stop offset="0.1298" stop-color="#F78300"/>
<stop offset="0.44" stop-color="#F7C100"/>
<stop offset="0.6731" stop-color="#FFB700"/>
<stop offset="0.8577" stop-color="#B37329"/>
<stop offset="1" stop-color="#B37866"/>
</linearGradient>
<linearGradient id="paint6_linear" x1="0" y1="0" x2="1" y2="0" gradientUnits="userSpaceOnUse" gradientTransform="matrix(0 -363.822 363.798 0 143.111 363.862)">
<stop offset="0" stop-color="#FFD900"/>
<stop offset="0.0172718" stop-color="#FAD300"/>
<stop offset="0.0414279" stop-color="#EBC000"/>
<stop offset="0.0696378" stop-color="#D2A300"/>
<stop offset="0.1009" stop-color="#B07900"/>
<stop offset="0.1343" stop-color="#854400"/>
<stop offset="0.1455" stop-color="#753100"/>
<stop offset="0.2577" stop-color="#B87100"/>
<stop offset="0.2971" stop-color="#C57800"/>
<stop offset="0.3728" stop-color="#D98300"/>
<stop offset="0.4243" stop-color="#E08700"/>
<stop offset="0.6613" stop-color="#FFB700"/>
<stop offset="0.7769" stop-color="#FFE600"/>
<stop offset="0.8931" stop-color="#ED9836"/>
<stop offset="1" stop-color="#FFFD91"/>
</linearGradient>
<linearGradient id="paint8_linear" x1="0" y1="0" x2="1" y2="0" gradientUnits="userSpaceOnUse" gradientTransform="matrix(40.3567 -40.3586 40.356 40.3594 -13.6133 15.0035)">
<stop offset="0" stop-color="#FFE585"/>
<stop offset="0.2833" stop-color="#FFD363"/>
<stop offset="0.6155" stop-color="#FFE600"/>
<stop offset="1" stop-color="#FFFD91"/>
</linearGradient>
<linearGradient id="paint9_linear" x1="0" y1="0" x2="1" y2="0" gradientUnits="userSpaceOnUse" gradientTransform="matrix(38.2738 -38.2763 38.2738 38.2763 0.0846122 28.7301)">
<stop offset="0" stop-color="#E08700"/>
<stop offset="0.3266" stop-color="#FFB700"/>
<stop offset="0.7061" stop-color="#FFE600"/>
<stop offset="1" stop-color="#FF9191"/>
</linearGradient>
<linearGradient id="paint10_linear" x1="0" y1="0" x2="1" y2="0" gradientUnits="userSpaceOnUse" gradientTransform="matrix(11.7135 -11.7139 11.7131 11.7143 15.0298 14.6803)">
<stop offset="0" stop-color="#80521D"/>
<stop offset="0.575" stop-color="#FF7B00"/>
<stop offset="1" stop-color="#855000"/>
</linearGradient>
<linearGradient id="paint12_linear" x1="0" y1="0" x2="1" y2="0" gradientUnits="userSpaceOnUse" gradientTransform="matrix(-40.3583 -40.3609 -40.3583 40.3609 66.8003 15.0039)">
<stop offset="0" stop-color="#FFE585"/>
<stop offset="0.2833" stop-color="#FFD363"/>
<stop offset="0.6155" stop-color="#FFE600"/>
<stop offset="1" stop-color="#FFFD91"/>
</linearGradient>
<linearGradient id="paint13_linear" x1="0" y1="0" x2="1" y2="0" gradientUnits="userSpaceOnUse" gradientTransform="matrix(-38.2769 -38.2794 -38.2769 38.2794 47.7687 28.7301)">
<stop offset="0" stop-color="#E08700"/>
<stop offset="0.3266" stop-color="#FFB700"/>
<stop offset="0.7061" stop-color="#FFE600"/>
<stop offset="1" stop-color="#FF9191"/>
</linearGradient>
<linearGradient id="paint14_linear" x1="0" y1="0" x2="1" y2="0" gradientUnits="userSpaceOnUse" gradientTransform="matrix(-11.7154 -11.7162 -11.7154 11.7162 38.1572 14.6805)">
<stop offset="0" stop-color="#80521D"/>
<stop offset="0.575" stop-color="#FF7B00"/>
<stop offset="1" stop-color="#855000"/>
</linearGradient>
<path id="path0_fill" d="M 9.1473 0L 168.844 0C 168.844 0 166.938 9.52906 165.795 20.9639C 164.27 32.3988 163.127 45.7395 163.127 45.7395L 0 45.7395C 0 45.7395 1.52454 33.9235 4.19251 20.5828C 6.86047 7.24209 9.1473 0 9.1473 0Z"/>
<path id="path1_fill" d="M 4.57365 0L 158.553 0C 158.553 0 160.078 9.1479 161.221 21.3451C 162.365 33.1611 163.127 45.7395 163.127 45.7395L 0 45.7395C 0 45.7395 0.762284 33.9235 2.28683 20.5828C 3.81138 6.47976 4.57365 0 4.57365 0Z"/>
<path id="path2_fill" d="M 159.315 0L 0 0C 0 0 1.9057 9.52906 3.04911 20.9639C 4.57366 32.3988 5.71706 45.7395 5.71706 45.7395L 168.463 45.7395C 168.463 45.7395 166.938 33.9235 164.27 20.5828C 161.602 7.24209 159.315 0 159.315 0Z"/>
<path id="path3_fill" d="M 630.401 178.003C 630.401 86.1427 606.39 0.762325 576.661 0L 54.1215 0C 24.0117 0 -3.63481e-07 85.7615 -3.63481e-07 178.003C -3.63481e-07 270.244 24.3928 344.952 54.1215 344.952L 576.661 344.952C 606.39 343.808 630.401 269.482 630.401 178.003ZM 28.2042 178.003C 28.2042 107.488 45.3554 28.9683 75.4652 28.9683L 554.936 28.9683C 585.046 28.9683 602.578 107.488 602.578 178.003C 602.578 248.137 583.522 304.168 556.08 304.168C 535.117 304.168 98.7146 304.549 74.703 304.549C 45.3554 304.549 28.2042 247.755 28.2042 178.003Z"/>
<path id="path4_fill" d="M 630.401 178.003C 630.401 86.1427 606.39 0.762325 576.661 0L 54.1215 0C 24.0117 0 -3.63481e-07 85.7615 -3.63481e-07 178.003C -3.63481e-07 270.244 24.3928 344.952 54.1215 344.952L 576.661 344.952C 606.39 343.808 630.401 269.482 630.401 178.003ZM 28.2042 178.003C 28.2042 107.488 45.3554 19.4393 75.4652 19.4393L 554.936 19.4393C 585.046 19.4393 602.578 107.488 602.578 178.003C 602.578 248.137 583.522 322.844 556.08 322.844C 535.117 322.844 98.7146 323.226 74.703 323.226C 45.3554 323.226 28.2042 247.755 28.2042 178.003Z"/>
<path id="path5_fill" d="M 639.168 177.622C 639.168 80.0441 614.775 0.762322 584.665 -2.90804e-06L 54.8838 -2.90804e-06C 24.3928 -2.90804e-06 -9.08702e-08 79.6629 -9.08702e-08 177.622C -9.08702e-08 275.58 24.7739 355.243 54.8838 355.243L 584.665 355.243C 614.775 354.481 639.168 275.199 639.168 177.622ZM 28.5853 177.622C 28.5853 102.533 46.1176 13.7218 76.2275 13.7218L 562.178 13.7218C 592.669 13.7218 610.582 102.533 610.582 177.622C 610.582 251.948 591.144 341.14 563.321 341.14C 541.978 341.14 99.858 341.521 75.4652 341.521C 46.1176 341.521 28.5853 252.329 28.5853 177.622Z"/>
<path id="path6_fill" d="M 649.839 181.814C 649.839 81.9499 625.066 0.762327 594.575 2.90804e-06L 56.0272 2.90804e-06C 25.1551 2.90804e-06 0 81.5687 0 181.814C 0 282.06 25.1551 363.629 56.0272 363.629L 594.575 363.629C 625.066 362.866 649.839 282.06 649.839 181.814ZM 28.9665 181.814C 28.9665 104.82 46.4988 13.7218 77.3709 13.7218L 571.706 13.7218C 602.578 13.7218 620.873 104.82 620.873 181.814C 620.873 258.047 601.054 349.145 572.85 349.145C 551.125 349.145 101.383 349.526 76.6086 349.526C 46.4988 349.526 28.9665 258.047 28.9665 181.814Z"/>
<path id="path7_fill" d="M 37.7326 46.1206L 37.3515 51.0757L 0 28.5872L 48.0234 -5.81607e-06L 48.0234 51.0757L 37.7326 46.1206Z"/>
<path id="path8_fill" d="M 5.3359 29.7307L 0 28.9683L 48.0234 -2.90804e-06L 53.3593 1.14348L 5.3359 29.7307Z"/>
<path id="path9_fill" d="M 48.0233 57.5555L -2.32628e-05 28.5872L 48.0233 -5.81607e-06L 48.0233 57.5555Z"/>
<path id="path10_fill" d="M 53.3593 29.7306L 5.3359 0.762319L 0 5.81607e-06L 47.261 27.0625L 53.3593 29.7306Z"/>
<path id="path11_fill" d="M 10.6719 46.1206L 11.053 51.0757L 48.0233 28.5872L 3.63481e-07 -5.81607e-06L 3.63481e-07 51.0757L 10.6719 46.1206Z"/>
<path id="path12_fill" d="M 47.6422 29.7307L 52.9781 28.9683L 4.95479 -2.90804e-06L -3.63481e-07 1.14348L 47.6422 29.7307Z"/>
<path id="path13_fill" d="M -3.63481e-07 57.5555L 47.6422 28.5872L -3.63481e-07 -5.81607e-06L -3.63481e-07 57.5555Z"/>
<path id="path14_fill" d="M -3.63481e-07 29.7306L 47.6422 0.762319L 52.9781 5.81607e-06L 6.0982 27.0625L -3.63481e-07 29.7306Z"/>
</defs>
</svg>
