<svg width="132" height="35" viewBox="0 0 132 35" version="1.1" xmlns="http://www.w3.org/2000/svg" xmlns:xlink="http://www.w3.org/1999/xlink">
<title>Group</title>
<desc>Created using Figma</desc>
<g id="Canvas" transform="translate(-1604 -2687)">
<g id="Group">
<g id="Vector">
<use xlink:href="#path0_fill" transform="translate(1604.29 2687.01)" fill="#570004"/>
</g>
<g id="Vector">
<use xlink:href="#path1_fill" transform="translate(1610 2689.3)" fill="#FF0000"/>
</g>
<g id="Group">
<g id="Vector">
<use xlink:href="#path2_fill" transform="translate(1621.29 2695.78)" fill="#FFFFFF"/>
</g>
<g id="Vector">
<use xlink:href="#path3_fill" transform="translate(1654.83 2696.16)" fill="#FFFFFF"/>
</g>
<g id="Vector">
<use xlink:href="#path4_fill" transform="translate(1686.47 2695.4)" fill="#FFFFFF"/>
</g>
</g>
</g>
</g>
<defs>
<path id="path0_fill" d="M 130.204 26.3002C 132.49 30.8742 129.06 33.9235 121.818 33.9235C 90.1841 33.9235 58.5497 34.3046 27.6775 34.3046C 20.4359 34.3046 11.6697 31.2553 8.62064 26.6814C 4.80926 20.9639 2.1413 14.8653 0.235611 9.1479C -1.28894 4.57395 4.80926 0.762313 12.0509 0.762313C 44.8287 0.381151 77.6065 0.381162 111.147 0C 118.769 0 124.486 3.43045 124.868 8.38556C 125.63 14.103 127.536 20.5828 130.204 26.3002Z"/>
<path id="path1_fill" d="M 118.387 22.4886C 120.293 26.3002 118.387 28.9683 111.527 28.9683C 81.4172 28.9683 51.6884 29.3495 21.9597 29.3495C 15.0992 29.3495 9.38216 26.6814 7.09533 22.8697C 4.04623 17.9146 1.7594 12.9595 0.234853 8.0044C -0.90856 4.19277 2.14054 1.1435 9.00102 0.762336C 39.8732 0.381174 70.7453 0.381156 102.38 -5.81608e-06C 109.621 -5.81608e-06 113.052 3.0493 113.814 6.86093C 114.576 12.5784 116.101 17.5335 118.387 22.4886Z"/>
<path id="path2_fill" d="M 28.5853 12.1972C 28.9665 12.5784 28.9664 13.3407 28.9664 13.7218C 28.9664 14.103 28.5853 14.4842 28.2042 14.8653C 27.823 15.2465 27.4419 15.6277 26.6796 15.6277C 25.9174 16.0088 25.5362 16.0088 24.3928 16.39C 23.6305 16.39 22.4871 16.7711 21.7248 16.7711C 20.5814 16.7711 19.438 16.7711 18.2946 16.7711C 15.2455 16.7711 12.1964 16.7711 8.76616 16.7711C 8.38503 16.7711 8.00389 16.7711 7.62275 16.7711C 7.24162 16.7711 6.86047 16.39 6.47934 16.0088C 3.81137 11.0537 1.52455 6.09859 2.90785e-06 1.14348C 2.90785e-06 0.762319 -2.92489e-06 0.76233 0.381135 0.381168C 0.762272 0.381168 1.14341 1.16322e-05 1.52455 1.16322e-05C 4.19251 1.16322e-05 7.24161 1.16322e-05 9.90957 1.16322e-05C 12.1964 1.16322e-05 14.1021 5.82175e-06 15.2455 0.381168C 16.7701 0.381168 17.9135 0.762319 19.0569 1.14348C 20.2003 1.52464 20.9626 1.90582 21.7248 2.28698C 22.4871 2.66814 22.8683 3.43047 22.8683 4.19279C 22.8683 4.57395 22.8683 4.9551 22.8683 5.33626C 22.8683 5.71742 22.4871 6.0986 22.4871 6.47976C 22.106 6.86092 21.7248 7.24207 21.3437 7.24207C 20.9626 7.62323 20.2003 7.62325 19.438 8.00441C 20.5814 8.00441 21.3437 8.38557 22.4871 8.38557C 23.6305 8.76673 24.3928 8.76672 25.1551 9.14788C 25.9173 9.52905 26.6796 9.91022 27.0608 10.2914C 28.2042 11.4349 28.5853 11.816 28.5853 12.1972ZM 18.2946 4.9551C 18.2946 4.57394 17.9135 4.1928 17.5323 3.81163C 17.1512 3.43047 16.7701 3.04929 16.0078 3.04929C 15.2455 2.66813 14.4832 2.66814 13.7209 2.66814C 12.9587 2.66814 11.8153 2.66814 10.2907 2.66814C 8.76616 2.66814 6.86048 2.66814 5.33593 2.66814C 5.71706 4.57395 6.47934 6.0986 7.24161 8.00441C 9.1473 8.00441 11.053 8.00441 12.5775 8.00441C 13.721 8.00441 14.8644 8.00442 15.6266 7.62326C 16.3889 7.62326 16.7701 7.24208 17.1512 6.86092C 17.5323 6.47975 17.9135 6.47976 17.9135 6.0986C 18.6757 5.71744 18.6757 5.33627 18.2946 4.9551ZM 23.6305 12.5783C 23.2494 12.1972 22.8682 11.816 22.4871 11.4349C 22.106 11.0537 21.3437 10.6725 20.5814 10.6725C 19.8191 10.2914 19.0569 10.2914 17.9135 9.91023C 16.7701 9.91023 15.6266 9.91023 14.1021 9.91023C 12.1964 9.91023 10.2907 9.91023 8.38502 9.91023C 9.1473 11.816 10.2907 13.7218 11.4341 15.6277C 13.721 15.6277 16.0078 15.6277 18.2946 15.6277C 19.438 15.6277 20.2003 15.6277 20.9626 15.6277C 21.7248 15.6277 22.4871 15.2465 22.8683 15.2465C 23.2494 14.8653 23.6305 14.8653 24.0117 14.4842C 24.0117 13.3407 24.0117 12.9595 23.6305 12.5783Z"/>
<path id="path3_fill" d="M 31.2533 15.6277C 31.6344 15.6277 31.6344 16.0088 31.6344 16.0088L 31.6344 16.39C 31.6344 16.39 31.2533 16.39 30.8721 16.39C 30.491 16.39 30.1099 16.39 29.3476 16.39C 28.5853 16.39 28.2042 16.39 27.823 16.39C 27.4419 16.39 27.0608 16.39 27.0608 16.39C 26.6796 16.39 26.6796 16.39 26.6796 16.39L 26.2985 16.39C 24.3928 15.2465 22.8682 13.7218 21.3437 12.5783C 16.3889 12.5783 11.053 12.5783 6.09819 12.5783C 5.71706 13.7218 5.33592 15.2465 4.95479 16.39C 4.95479 16.39 4.95479 16.39 4.95479 16.7712C 4.95479 16.7712 4.95479 16.7712 4.57365 16.7712C 4.57365 16.7712 4.19251 16.7712 3.81138 16.7712C 3.43024 16.7712 3.0491 16.7712 2.66797 16.7712C 2.28683 16.7712 1.52455 16.7712 1.14341 16.7712C 0.762272 16.7712 0.381132 16.7712 0.381132 16.7712C 0.381132 16.7712 0 16.7711 0 16.39L 0 16.0088C 1.14341 11.0537 3.43023 5.71743 6.09819 0.381162C 6.09819 0.381162 6.0982 0.381168 6.47934 5.81608e-06L 6.86047 5.81608e-06C 7.24161 5.81608e-06 7.24161 5.81608e-06 7.62275 5.81608e-06C 8.00389 5.81608e-06 8.38503 5.81608e-06 9.14731 5.81608e-06C 9.90958 5.81608e-06 10.2907 5.81608e-06 10.6718 5.81608e-06C 11.053 5.81608e-06 11.4341 5.81608e-06 11.8153 5.81608e-06C 12.1964 5.81608e-06 12.1964 5.81608e-06 12.5775 5.81608e-06C 12.5775 5.81608e-06 12.9587 0 12.9587 0.381162C 18.2946 5.33627 24.3928 10.6725 31.2533 15.6277ZM 10.2907 2.28697C 8.76617 4.95511 7.62275 8.0044 6.86047 10.6725C 11.053 10.6725 15.2455 10.6725 19.438 10.6725C 16.0078 7.62323 12.9587 4.95511 10.2907 2.28697Z"/>
<path id="path4_fill" d="M 30.1099 16.7711C 30.1099 16.7711 30.1099 17.1523 30.1099 16.7711C 29.7287 17.1523 29.3476 17.1523 28.9665 17.1523C 28.5853 17.1523 28.2042 17.1523 27.4419 17.1523C 27.0608 17.1523 26.6796 17.1523 26.2985 17.1523C 25.9174 17.1523 25.5362 17.1523 25.5362 17.1523C 25.1551 17.1523 25.1551 17.1523 25.1551 17.1523C 25.1551 17.1523 24.7739 17.1523 24.7739 16.7711C 22.8682 15.6276 21.3437 14.103 19.8192 12.9595C 19.0569 12.5784 18.6757 12.1972 17.9135 11.816C 17.5323 11.4349 16.7701 11.0537 16.0078 10.6725C 15.2455 10.2914 14.4832 10.2914 13.721 9.91023C 12.9587 9.91023 11.8153 9.52905 10.6718 9.52905C 9.52843 9.52905 8.38503 9.52905 7.24162 9.52905C 8.00389 11.816 9.1473 14.103 10.2907 16.39C 10.2907 16.39 10.2907 16.39 9.90958 16.39C 9.90958 16.39 9.52844 16.39 9.1473 16.39C 8.76617 16.39 8.38503 16.39 8.00389 16.39C 7.62276 16.39 7.24161 16.39 6.86047 16.39C 6.47933 16.39 6.09821 16.39 6.09821 16.39C 5.71707 16.39 5.71706 16.39 5.71706 16.39C 5.71706 16.39 5.71707 16.39 5.33593 16.39C 2.66797 11.4349 0.762272 6.0986 -2.90785e-06 1.14349C -2.90785e-06 0.762325 5.82138e-06 0.381174 0.381143 0.381174C 0.762281 0.381174 1.14342 -1.16322e-05 1.52455 -1.16322e-05C 4.19252 -1.16322e-05 6.86047 -1.16322e-05 9.52844 -1.16322e-05C 10.2907 -1.16322e-05 11.4341 -1.16322e-05 11.8153 -1.16322e-05C 12.5775 -1.16322e-05 12.9587 -1.16322e-05 13.3398 -1.16322e-05C 14.8644 -1.16322e-05 16.0078 0.381174 17.1512 0.381174C 18.2946 0.762336 19.438 0.762325 20.2003 1.14349C 20.9626 1.52465 21.7248 1.90582 22.106 2.28699C 22.4871 2.66815 22.8682 3.43045 22.8682 3.81161C 22.8682 4.19277 22.8682 4.9551 22.8682 5.33627C 22.4871 5.71743 22.106 6.0986 21.7248 6.47976C 21.3437 6.86093 20.5814 7.24208 19.8192 7.24208C 19.0569 7.62324 18.2946 7.62326 17.1512 8.00442C 17.9135 8.00442 18.2946 8.38558 19.0569 8.38558C 19.438 8.38558 20.2003 8.76673 20.5814 9.14789C 20.9626 9.52905 21.7248 9.52907 22.106 9.91023C 22.4871 10.2914 23.2494 10.6725 23.6305 11.0537C 25.1551 12.1972 26.6796 13.3407 28.5853 14.4842C 29.7287 16.0088 29.7287 16.39 30.1099 16.7711C 30.1099 16.7711 30.1099 16.39 30.1099 16.7711ZM 18.6757 4.95511C 18.6757 4.19279 17.9135 3.81162 17.1512 3.43045C 16.3889 3.04929 15.2455 2.66815 13.721 2.28699C 13.3398 2.28699 12.5775 2.28699 12.1964 2.28699C 11.4341 2.28699 10.6719 2.28699 9.90958 2.28699C 8.38503 2.28699 7.24161 2.28699 5.71706 2.28699C 6.0982 4.1928 6.47934 6.09861 7.24162 8.00442C 8.76617 8.00442 10.2907 8.00442 12.1964 8.00442C 13.3398 8.00442 14.4832 8.0044 15.6266 7.62323C 16.3889 7.62323 17.1512 7.24208 17.9135 6.86092C 18.2946 6.47976 18.6757 6.47977 19.0569 6.09861C 18.6757 5.71745 18.6757 5.33627 18.6757 4.95511Z"/>
</defs>
</svg>
