<svg width="120" height="120" viewBox="0 0 120 120" version="1.1" xmlns="http://www.w3.org/2000/svg" xmlns:xlink="http://www.w3.org/1999/xlink">
<title>Group</title>
<desc>Created using Figma</desc>
<g id="Canvas" transform="translate(-1779 -2684)">
<g id="Group">
<g id="Vector">
<use xlink:href="#path0_fill" transform="translate(1779.76 2684)" fill="#570004"/>
</g>
<g id="Vector">
<use xlink:href="#path1_fill" transform="translate(1784.62 2687.1)" fill="#FFBB00"/>
</g>
<g id="Vector">
<use xlink:href="#path2_fill" transform="translate(1779 2768.83)" fill="#570004"/>
</g>
<g id="Vector">
<use xlink:href="#path3_fill" transform="translate(1783.56 2771.93)" fill="#FF8000"/>
</g>
<g id="Vector">
<use xlink:href="#path4_fill" transform="translate(1840.52 2775.03)" fill="#570004"/>
</g>
<g id="Group">
<g id="Vector">
<use xlink:href="#path5_fill" transform="translate(1839 2768.83)" fill="#570004"/>
</g>
</g>
<g id="Vector">
<use xlink:href="#path6_fill" transform="translate(1843.94 2778.14)" fill="#FFBB00"/>
</g>
<g id="Vector">
<use xlink:href="#path7_fill" transform="translate(1849.25 2780.21)" fill="#FFD152"/>
</g>
<g id="Vector">
<use xlink:href="#path8_fill" transform="translate(1804.82 2692.36)" fill="#FFD152"/>
</g>
</g>
</g>
<defs>
<path id="path0_fill" d="M 101.393 71.3788C 96.8356 53.7927 96.0761 25.8619 93.0382 17.5861C 90.3799 7.24133 76.3293 3.15697e-05 59.2406 3.15697e-05C 42.152 3.15697e-05 28.1013 8.27581 25.4431 17.5861C 22.4051 26.8964 21.6456 53.7927 17.0886 71.3788C 12.5317 88.9649 -1.1589e-05 93.1028 -1.1589e-05 99.3097C -1.1589e-05 105.517 119.241 105.517 119.241 99.3097C 118.481 93.1028 105.95 88.9649 101.393 71.3788Z"/>
<path id="path1_fill" d="M 92.3538 67.2409C 88.1766 51.7238 87.4171 24.8274 84.7589 16.5516C 82.4804 7.2413 69.569 -1.57848e-05 53.9993 -1.57848e-05C 38.4297 -1.57848e-05 25.898 7.2413 23.2398 16.5516C 20.5815 24.8274 19.822 50.6893 15.6448 67.2409C 11.4676 82.758 4.25238 87.9304 0.0751546 93.1028C -3.34257 97.2407 110.961 97.2407 107.544 93.1028C 102.607 86.8959 96.5311 82.758 92.3538 67.2409Z"/>
<path id="path2_fill" d="M 119.241 14.4827C 119.241 22.7585 92.6584 28.9654 59.6204 28.9654C 26.5823 28.9654 0 22.7585 0 14.4827C 0 6.20687 26.5823 0 59.6204 0C 92.6584 0 119.241 6.20687 119.241 14.4827Z"/>
<path id="path3_fill" d="M 110.127 11.3792C 110.127 17.5861 85.4432 22.7585 55.0634 22.7585C 24.6836 22.7585 -1.1589e-05 17.5861 -1.1589e-05 11.3792C -1.1589e-05 5.17239 24.6836 3.15697e-05 55.0634 3.15697e-05C 85.4432 3.15697e-05 110.127 5.17239 110.127 11.3792Z"/>
<path id="path4_fill" d="M 27.3418 14.4827C 27.3418 22.7585 21.2659 28.9653 13.6709 28.9653C 6.07597 28.9653 -1.1589e-05 22.7585 -1.1589e-05 14.4827C -1.1589e-05 6.20685 6.07597 -1.57848e-05 13.6709 -1.57848e-05C 21.2659 -1.57848e-05 27.3418 6.20685 27.3418 14.4827Z"/>
<path id="path5_fill" d="M 6.45571 13.4482L 1.1589e-05 0L 14.8101 1.03446L 15.5697 9.3103L 6.45571 13.4482ZM 6.45571 4.13792L 7.97471 7.2413L 11.3924 5.17238L 11.3924 4.13792L 6.45571 4.13792Z"/>
<path id="path6_fill" d="M 20.5064 11.3792C 20.5064 17.5861 15.9494 22.7584 10.2532 22.7584C 4.55698 22.7584 -5.79449e-06 17.5861 -5.79449e-06 11.3792C -5.79449e-06 5.17238 4.55698 1.57848e-05 10.2532 1.57848e-05C 15.9494 1.57848e-05 20.5064 5.17238 20.5064 11.3792Z"/>
<path id="path7_fill" d="M 9.87343 5.17236C 9.87343 8.27579 7.59496 10.3447 4.93673 10.3447C 2.2785 10.3447 0 8.27579 0 5.17236C 0 2.06894 2.2785 -1.57848e-05 4.93673 -1.57848e-05C 7.59496 -1.57848e-05 9.87343 2.06894 9.87343 5.17236Z"/>
<path id="path8_fill" d="M 30.0001 0.946634C 28.1013 -2.15679 15.5697 3.01565 13.2912 7.15355C 10.6329 11.2915 9.87343 51.636 6.83545 60.9462C 4.17722 69.222 1.1589e-05 75.4289 1.1589e-05 75.4289C 1.1589e-05 75.4289 12.5317 72.3255 22.0254 72.3255C 28.4811 72.3255 29.2406 69.2221 30.0001 58.8773C 30.7595 50.6015 31.8988 4.05006 30.0001 0.946634Z"/>
</defs>
</svg>
