<?xml version="1.0" standalone="no"?>
<!DOCTYPE svg PUBLIC "-//W3C//DTD SVG 1.1//EN" "http://www.w3.org/Graphics/SVG/1.1/DTD/svg11.dtd" >
<svg xmlns="http://www.w3.org/2000/svg" xmlns:xlink="http://www.w3.org/1999/xlink" version="1.1">
<metadata>
Created by FontForge 20160407 at Mon Jul  4 15:20:21 2016
 By Jimmy Warting
Copyright (c) 2008-2012 by Jos Buivenga/exljbris. All rights reserved.
</metadata>
<defs>
<font id="MuseoCyrillic-300" horiz-adv-x="568" >
  <font-face 
    font-family="Museo Cyrillic"
    font-weight="300"
    font-stretch="normal"
    units-per-em="1000"
    panose-1="2 0 0 0 0 0 0 0 0 0"
    ascent="771"
    descent="-229"
    x-height="503"
    cap-height="703"
    bbox="-104 -237 1088 883.25"
    underline-thickness="50"
    underline-position="-100"
    unicode-range="U+0020-FB04"
  />
<missing-glyph horiz-adv-x="510" 
d="M505 0h-500v700h500v-700zM85 650l170 -255l170 255h-340zM455 605l-170 -255l170 -255v510zM55 605v-510l170 255zM255 305l-170 -255h340z" />
    <glyph glyph-name="f_f" unicode="ff" horiz-adv-x="595" 
d="M156 0h-68v446h-63v57h63v18c0 77 27 133 66 156c40 24 72 31 107 31l31 -2v-61c-6 1 -14 2 -24 2c-24 0 -43 -5 -70 -21c-25 -16 -42 -53 -42 -106v-17h227v18c0 77 27 133 66 156c40 24 72 31 107 31l31 -2v-61c-6 1 -14 2 -24 2c-24 0 -43 -5 -70 -21
c-25 -16 -42 -53 -42 -106v-17h128v-57h-128v-446h-68v446h-227v-446z" />
    <glyph glyph-name="fi" unicode="fi" horiz-adv-x="541" 
d="M156 0h-68v446h-63v57h63v18c0 77 27 133 66 156c40 24 72 31 107 31l31 -2v-61c-7 1 -15 2 -25 2c-24 0 -44 -5 -69 -21c-25 -15 -42 -53 -42 -105v-18h238c43 0 61 -18 61 -61v-361c0 -15 7 -22 22 -22h42v-59h-71c-43 0 -61 18 -61 61v363c0 15 -7 22 -22 22h-209
v-446zM451 617h-66v86h66v-86z" />
    <glyph glyph-name="fl" unicode="fl" horiz-adv-x="537" 
d="M156 0h-68v446h-63v57h63v18c0 63 20 112 44 136c43 40 93 46 129 46h127c43 0 61 -18 61 -61v-561c0 -15 7 -22 22 -22h42v-59h-71c-43 0 -61 18 -61 61v561c0 15 -7 22 -22 22h-91c-75 0 -112 -41 -112 -123v-18h128v-57h-128v-446z" />
    <glyph glyph-name="f_f_i" unicode="ffi" horiz-adv-x="836" 
d="M156 0h-68v446h-63v57h63v18c0 77 27 133 66 156c40 24 72 31 107 31l31 -2v-61c-7 1 -15 2 -24 2c-39 0 -112 -15 -112 -127v-17h227v18c0 77 27 133 66 156c40 24 72 31 107 31l31 -2v-61c-7 1 -15 2 -24 2c-39 0 -112 -15 -112 -127v-17h238c43 0 61 -18 61 -61v-361
c0 -15 7 -22 22 -22h42v-59h-71c-43 0 -61 18 -61 61v363c0 15 -7 22 -22 22h-209v-446h-68v446h-227v-446zM746 617h-66v86h66v-86z" />
    <glyph glyph-name="f_f_l" unicode="ffl" horiz-adv-x="832" 
d="M156 0h-68v446h-63v57h63v21c0 76 25 130 64 153c40 24 71 31 107 31l33 -2v-61c-7 1 -16 2 -26 2c-40 0 -110 -16 -110 -124v-20h227v18c0 63 20 112 44 136c12 12 27 22 44 29c35 16 57 17 85 17h127c43 0 61 -18 61 -61v-561c0 -15 7 -22 22 -22h42v-59h-71
c-43 0 -61 18 -61 61v561c0 15 -7 22 -22 22h-91c-75 0 -112 -41 -112 -123v-18h128v-57h-128v-446h-68v446h-227v-446z" />
    <glyph glyph-name="f_j" unicode="fj" horiz-adv-x="548" 
d="M156 0h-68v446h-63v57h63v18c0 77 27 133 66 156c40 24 72 31 107 31l31 -2v-61c-7 1 -15 2 -24 2c-39 0 -112 -15 -112 -127v-17h261c43 0 61 -18 61 -61v-461c0 -79 -27 -133 -67 -156c-40 -24 -72 -31 -108 -31l-29 3v59c6 -1 13 -1 22 -1c24 0 45 5 70 21
c27 16 44 55 44 108v440c0 15 -7 22 -22 22h-232v-446zM475 617h-66v86h66v-86z" />
    <glyph glyph-name=".notdef" horiz-adv-x="510" 
d="M505 0h-500v700h500v-700zM85 650l170 -255l170 255h-340zM455 605l-170 -255l170 -255v510zM55 605v-510l170 255zM255 305l-170 -255h340z" />
    <glyph glyph-name="NULL" horiz-adv-x="0" 
 />
    <glyph glyph-name="CR" horiz-adv-x="333" 
 />
    <glyph glyph-name="space" unicode=" " horiz-adv-x="272" 
 />
    <glyph glyph-name="exclam" unicode="!" horiz-adv-x="254" 
d="M159 184h-64l-3 519h70zM166 0h-77v77h77v-77z" />
    <glyph glyph-name="quotedbl" unicode="&#x22;" horiz-adv-x="313" 
d="M247 545h-59v168h59v-168zM125 545h-58v168h58v-168z" />
    <glyph glyph-name="numbersign" unicode="#" horiz-adv-x="707" 
d="M207 0h-61l34 195h-142l10 56h141l35 196h-141l9 56h142l35 200h61l-35 -200h173l35 200h61l-35 -200h140l-10 -56h-140l-34 -196h139l-9 -56h-140l-34 -195h-61l34 195h-173zM285 447l-34 -196h172l35 196h-173z" />
    <glyph glyph-name="dollar" unicode="$" 
d="M67 108l-7 12l52 42c3 -5 7 -13 28 -38c29 -34 77 -68 150 -71c83 0 140 54 140 125c0 173 -348 137 -348 362c0 44 16 82 49 114s77 51 131 58v95h57v-93c42 -4 80 -16 113 -35c34 -19 51 -48 51 -85v-50h-67v33c0 41 -53 73 -118 73c-88 0 -144 -48 -144 -109
c-1 -84 88 -115 173 -155c30 -15 58 -30 84 -45c52 -29 90 -87 90 -160c0 -49 -17 -91 -50 -128s-77 -58 -132 -63v-93h-57v93c-52 5 -103 28 -132 52s-54 50 -63 66z" />
    <glyph glyph-name="percent" unicode="%" horiz-adv-x="705" 
d="M183 437c-39 0 -72 13 -99 40s-41 60 -41 99c0 38 14 71 41 98s60 41 99 41s72 -14 99 -41c28 -27 42 -60 42 -98c0 -39 -14 -72 -41 -99s-61 -40 -100 -40zM121 0h-71l535 703h72zM265 576c0 45 -37 83 -82 83s-80 -38 -80 -83c0 -47 35 -83 80 -83s82 36 82 83z
M381 126c0 39 14 72 41 99s60 41 99 41s72 -14 99 -41c28 -27 42 -60 42 -99c0 -38 -14 -71 -42 -98c-27 -27 -60 -40 -99 -40s-72 13 -99 40s-41 60 -41 98zM441 127c0 -47 35 -83 80 -83s82 36 82 83c0 45 -37 83 -82 83s-80 -38 -80 -83z" />
    <glyph glyph-name="ampersand" unicode="&#x26;" horiz-adv-x="631" 
d="M47 196c0 83 48 160 128 183v2c-5 1 -11 3 -34 19c-28 21 -63 62 -63 137c0 53 19 95 56 128c38 33 89 50 152 50c23 0 53 -4 69 -8l12 -3l-19 -57c-22 5 -41 7 -58 7c-81 0 -141 -49 -141 -121c0 -47 20 -127 152 -127h146v97h69v-97h93v-62h-93v-103
c0 -164 -87 -253 -231 -253c-69 0 -126 20 -171 59c-45 40 -67 90 -67 149zM119 198c0 -41 15 -76 45 -104c30 -27 70 -41 121 -41c101 0 162 61 162 190v101h-145c-119 0 -183 -55 -183 -146z" />
    <glyph glyph-name="quotesingle" unicode="'" horiz-adv-x="193" 
d="M126 545h-59v168h59v-168z" />
    <glyph glyph-name="parenleft" unicode="(" horiz-adv-x="251" 
d="M222 -95h-63c-77 125 -115 268 -115 427c0 148 36 281 108 398h64c-73 -123 -109 -254 -109 -393c0 -154 38 -298 115 -432z" />
    <glyph glyph-name="parenright" unicode=")" horiz-adv-x="251" 
d="M93 -95h-64c77 134 115 278 115 432c0 141 -36 272 -109 393h64c72 -115 108 -248 108 -398c0 -159 -38 -301 -114 -427z" />
    <glyph glyph-name="asterisk" unicode="*" horiz-adv-x="477" 
d="M237 463l-86 -126l-53 38l94 120v2l-146 42l19 63l145 -53l-7 154h68l-6 -154l145 52l21 -61l-148 -43v-2l94 -120l-53 -39l-85 127h-2z" />
    <glyph glyph-name="plus" unicode="+" 
d="M254 255h-231v58h231v255h61v-255h230v-58h-230v-255h-61v255z" />
    <glyph glyph-name="comma" unicode="," horiz-adv-x="235" 
d="M88 -97h-57l57 179h73z" />
    <glyph glyph-name="hyphen" unicode="-" horiz-adv-x="407" 
d="M345 253h-283v62h283v-62z" />
    <glyph glyph-name="period" unicode="." horiz-adv-x="200" 
d="M139 0h-77v80h77v-80z" />
    <glyph glyph-name="slash" unicode="/" horiz-adv-x="397" 
d="M104 -42h-64l254 784h63z" />
    <glyph glyph-name="zero" unicode="0" horiz-adv-x="593" 
d="M297 -12c-162 0 -243 121 -243 364c0 71 7 133 21 185c29 104 105 178 222 178c161 0 242 -121 242 -363c0 -243 -81 -364 -242 -364zM297 53c124 0 170 112 170 299c0 199 -57 298 -170 298c-114 0 -171 -99 -171 -298c0 -61 5 -112 14 -154c19 -84 72 -145 157 -145z
" />
    <glyph glyph-name="one" unicode="1" horiz-adv-x="437" 
d="M424 0h-382v62h157v516l1 39h-2c-5 -10 -16 -24 -35 -42l-75 -74l-44 44l159 158h66v-641h155v-62z" />
    <glyph glyph-name="two" unicode="2" horiz-adv-x="558" 
d="M38 69c0 48 13 90 38 125c52 72 130 109 202 149c73 41 132 98 132 174s-57 132 -144 132c-68 0 -124 -36 -124 -76v-33h-67v52c0 89 121 123 194 123c65 0 116 -19 155 -57c39 -37 58 -84 58 -140c0 -91 -59 -161 -132 -205c-103 -64 -242 -120 -240 -231
c0 -13 8 -20 24 -20h293c15 0 22 7 22 22v47h66v-70c0 -43 -18 -61 -61 -61h-353c-47 0 -63 20 -63 69z" />
    <glyph glyph-name="three" unicode="3" horiz-adv-x="544" 
d="M46 76l-9 10l42 52c4 -4 8 -10 32 -30c33 -24 85 -54 152 -54c43 0 80 14 111 43s47 65 47 109c0 45 -17 81 -50 108s-73 40 -120 40h-49l-16 41l172 208l36 39v2c-13 -2 -31 -3 -56 -3h-183c-15 0 -22 -7 -22 -22v-47h-65v70c0 44 16 61 59 61h357v-46l-207 -243
c88 -5 216 -56 216 -207c0 -60 -22 -112 -67 -155c-44 -43 -99 -64 -164 -64c-110 0 -190 62 -216 88z" />
    <glyph glyph-name="four" unicode="4" horiz-adv-x="575" 
d="M367 194h-347v46l342 463h75v-448h111v-61h-111v-194h-70v194zM101 254v-2c19 2 38 3 58 3h208v288l4 68h-2c-11 -19 -23 -37 -35 -54l-197 -259z" />
    <glyph glyph-name="five" unicode="5" horiz-adv-x="535" 
d="M48 78l-7 10l44 49c3 -4 5 -10 25 -29c26 -24 72 -54 138 -54c50 0 91 16 124 47s50 70 50 117c0 48 -18 87 -53 118s-77 47 -128 47c-47 0 -98 -16 -119 -29l-16 -10l-37 15l30 283c5 44 20 61 61 61h232c43 0 60 -18 60 -61v-70h-66v47c0 15 -7 22 -22 22h-177
c-13 0 -20 -7 -22 -22l-18 -159l-6 -40h2c29 17 65 26 106 26c71 0 129 -22 175 -67c47 -44 70 -98 70 -162c0 -63 -24 -117 -71 -162s-105 -67 -175 -67c-110 0 -180 63 -200 90z" />
    <glyph glyph-name="six" unicode="6" horiz-adv-x="563" 
d="M302 -12c-75 0 -137 30 -184 91s-70 137 -70 230c0 180 92 406 309 406c47 0 95 -13 115 -22l15 -7l-27 -61c-29 17 -63 25 -102 25c-47 0 -88 -15 -123 -44c-69 -57 -103 -145 -111 -245h2c32 53 103 85 178 85c65 0 117 -21 158 -63c41 -41 61 -95 61 -160
c0 -71 -21 -128 -63 -171s-95 -64 -158 -64zM124 264c0 -51 17 -99 51 -144c35 -45 77 -67 127 -67c93 0 151 70 151 169c0 97 -63 162 -159 162c-45 0 -85 -13 -119 -38s-51 -53 -51 -82z" />
    <glyph glyph-name="seven" unicode="7" horiz-adv-x="512" 
d="M159 0h-78l306 576l39 65v2c-12 -1 -30 -2 -53 -2h-253c-15 0 -22 -7 -22 -22v-47h-66v70c0 43 17 61 60 61h415v-48z" />
    <glyph glyph-name="eight" unicode="8" horiz-adv-x="571" 
d="M47 198c0 95 80 162 112 179l13 7v2c-5 3 -11 5 -34 22c-27 22 -62 63 -62 123c0 51 19 95 57 130c38 36 90 54 156 54c65 0 117 -17 156 -52s58 -80 58 -135c0 -84 -59 -148 -85 -166l-9 -8v-2c73 -37 113 -84 113 -161c0 -55 -23 -103 -69 -143
c-45 -40 -101 -60 -167 -60c-65 0 -122 19 -169 57s-70 89 -70 153zM282 403c34 -13 55 -19 62 -19c15 0 33 15 55 46c23 31 34 63 34 96c0 75 -59 124 -144 124c-88 0 -143 -50 -143 -119c0 -67 45 -95 136 -128zM119 201c0 -45 16 -81 49 -108s73 -40 118 -40
c43 0 81 13 114 39c33 27 50 60 50 100c0 67 -43 96 -134 132c-44 19 -71 28 -82 28c-18 0 -42 -16 -71 -47s-44 -65 -44 -104z" />
    <glyph glyph-name="nine" unicode="9" horiz-adv-x="563" 
d="M91 10l-15 7l26 61c29 -17 63 -25 102 -25c47 0 88 15 123 44c71 59 104 146 112 246h-2c-32 -53 -104 -86 -179 -86c-64 0 -116 21 -157 62c-41 42 -61 96 -61 161c0 71 21 128 62 171c42 43 95 64 158 64c75 0 136 -30 183 -91c47 -60 71 -137 71 -230
s-25 -189 -73 -270c-47 -81 -132 -136 -236 -136c-45 0 -94 11 -114 22zM269 319c45 0 85 13 119 38s51 53 51 82c0 50 -17 98 -52 143s-77 68 -126 68c-93 0 -151 -70 -151 -169c0 -97 63 -162 159 -162z" />
    <glyph glyph-name="colon" unicode=":" horiz-adv-x="200" 
d="M139 423h-77v80h77v-80zM139 0h-77v80h77v-80z" />
    <glyph glyph-name="semicolon" unicode=";" horiz-adv-x="260" 
d="M183 423h-77v80h77v-80zM114 -97h-57l48 179h73z" />
    <glyph glyph-name="less" unicode="&#x3c;" 
d="M497 57l-452 202v50l452 202v-67l-368 -159v-2l368 -159v-67z" />
    <glyph glyph-name="equal" unicode="=" 
d="M517 342h-466v58h466v-58zM517 168h-466v58h466v-58z" />
    <glyph glyph-name="greater" unicode="&#x3e;" 
d="M522 259l-452 -202v67l368 159v2l-368 159v67l452 -202v-50z" />
    <glyph glyph-name="question" unicode="?" horiz-adv-x="446" 
d="M221 184h-67v45c0 157 174 183 174 307c0 65 -55 115 -131 115c-40 0 -85 -18 -105 -31l-15 -11l-38 50c5 4 11 9 20 15c9 7 27 15 55 26s57 16 86 16c57 0 105 -17 143 -50s57 -76 57 -127c0 -61 -28 -112 -64 -145c-50 -46 -115 -92 -115 -167v-43zM226 0h-77v77h77
v-77z" />
    <glyph glyph-name="at" unicode="@" horiz-adv-x="759" 
d="M405 609c84 0 146 -18 185 -54c40 -36 60 -81 60 -135v-315h71v-56h-269c-57 0 -104 19 -143 56c-38 38 -57 83 -57 136s19 98 57 135c38 38 86 57 143 57h130c-3 68 -61 118 -172 118c-81 0 -150 -30 -207 -91c-56 -61 -84 -133 -84 -218c0 -86 28 -159 84 -218
c57 -59 127 -88 212 -88v-60c-103 0 -190 36 -261 107c-70 71 -105 157 -105 259s35 189 104 260c70 71 154 107 252 107zM458 105h124v275h-122c-39 0 -72 -14 -99 -41c-26 -27 -39 -59 -39 -97s13 -70 39 -97c27 -27 59 -40 97 -40z" />
    <glyph glyph-name="A" unicode="A" horiz-adv-x="656" 
d="M44 0h-32v62h12c19 0 31 7 36 22l230 619h75l230 -619c5 -15 17 -22 36 -22h13v-62h-33c-25 0 -43 4 -54 11c-10 7 -19 23 -28 47l-62 166h-279l-61 -166c-17 -48 -32 -58 -83 -58zM300 536l-92 -251h241l-93 251l-28 91h-2c-10 -39 -19 -69 -26 -91z" />
    <glyph glyph-name="B" unicode="B" horiz-adv-x="598" 
d="M102 61v580h-65v62h299c112 0 190 -69 190 -177c0 -72 -30 -123 -89 -153v-2c71 -20 117 -89 117 -174c0 -61 -20 -109 -60 -144c-39 -35 -89 -53 -150 -53h-181c-43 0 -61 18 -61 61zM172 641v-243h164c71 0 118 50 118 123s-45 120 -120 120h-162zM172 338v-254
c0 -15 7 -22 22 -22h150c85 0 138 53 138 137s-57 139 -138 139h-172z" />
    <glyph glyph-name="C" unicode="C" horiz-adv-x="693" 
d="M39 357c0 101 33 186 99 255c67 69 149 103 248 103c37 0 75 -5 113 -14s72 -26 103 -50c31 -23 47 -52 47 -85v-58h-66v39c0 31 -21 55 -63 74s-86 28 -132 28c-79 0 -144 -28 -197 -83s-79 -124 -79 -209s27 -156 80 -215s120 -88 199 -88c117 -1 192 64 221 89l9 10
l40 -51c-5 -7 -10 -13 -45 -40c-17 -13 -36 -24 -56 -34c-39 -20 -105 -40 -170 -40c-102 0 -186 35 -252 106s-99 159 -99 263z" />
    <glyph glyph-name="D" unicode="D" horiz-adv-x="714" 
d="M102 61v580h-65v62h283c107 0 193 -31 257 -94c64 -62 96 -148 96 -257c0 -111 -32 -197 -96 -259s-150 -93 -257 -93h-157c-43 0 -61 18 -61 61zM172 641v-557c0 -15 7 -22 22 -22h119c176 0 287 105 287 290c0 184 -111 289 -287 289h-141z" />
    <glyph glyph-name="E" unicode="E" horiz-adv-x="560" 
d="M102 61v580h-65v62h402c43 0 61 -18 61 -61v-70h-65v47c0 15 -7 22 -22 22h-241v-256h265v-62h-265v-239c0 -15 7 -22 22 -22h248c15 0 22 7 22 22v47h65v-70c0 -43 -18 -61 -61 -61h-305c-43 0 -61 18 -61 61z" />
    <glyph glyph-name="F" unicode="F" horiz-adv-x="499" 
d="M172 0h-70v641h-65v62h374c43 0 61 -18 61 -61v-70h-65v47c0 15 -7 22 -22 22h-213v-264h256v-62h-256v-315z" />
    <glyph glyph-name="G" unicode="G" horiz-adv-x="720" 
d="M39 353c0 101 34 187 101 257s150 105 249 105c48 0 92 -7 133 -22c41 -14 71 -28 88 -43l25 -21l-41 -52l-26 20c-11 8 -34 19 -69 32s-72 20 -109 20c-79 0 -145 -28 -198 -85s-80 -127 -80 -211c0 -86 26 -157 79 -214s119 -85 199 -85c111 0 185 65 212 92l9 11v87
c0 15 -7 22 -22 22h-43v62h70c43 0 61 -18 61 -61v-267h-64v53l1 30h-2c-4 -5 -9 -12 -38 -33c-15 -11 -30 -20 -47 -29c-32 -16 -89 -33 -145 -33c-97 0 -178 35 -244 104s-99 156 -99 261z" />
    <glyph glyph-name="H" unicode="H" horiz-adv-x="749" 
d="M173 0h-70v619c0 15 -7 22 -22 22h-43v62h74c43 0 61 -18 61 -61v-259h404v259c0 43 18 61 61 61h74v-62h-43c-15 0 -22 -7 -22 -22v-619h-70v321h-404v-321z" />
    <glyph glyph-name="I" unicode="I" horiz-adv-x="287" 
d="M244 0h-201v62h66v579h-66v62h201v-62h-67v-579h67v-62z" />
    <glyph glyph-name="J" unicode="J" horiz-adv-x="495" 
d="M20 197v28h70v-24c0 -103 57 -147 128 -147c72 0 128 45 128 145v420c0 15 -7 22 -22 22h-174v62h205c43 0 61 -18 61 -61v-445c0 -71 -19 -123 -58 -158c-39 -34 -85 -51 -140 -51s-101 17 -140 52s-58 87 -58 157z" />
    <glyph glyph-name="K" unicode="K" horiz-adv-x="588" 
d="M173 0h-70v619c0 15 -7 22 -22 22h-43v62h74c43 0 61 -18 61 -61v-244h84c29 0 49 8 59 25l170 280h80l-181 -295c-11 -17 -24 -31 -31 -36l-5 -3v-2c11 -4 23 -17 34 -40l122 -242c9 -20 22 -23 51 -23h20v-62h-37c-29 0 -50 3 -62 9c-12 7 -24 21 -35 44l-128 257
c-8 17 -29 26 -64 26h-77v-336z" />
    <glyph glyph-name="L" unicode="L" horiz-adv-x="529" 
d="M102 61v558c0 15 -7 22 -22 22h-43v62h74c43 0 61 -18 61 -61v-558c0 -15 7 -22 22 -22h234c15 0 22 7 22 22v47h65v-70c0 -43 -18 -61 -61 -61h-291c-43 0 -61 18 -61 61z" />
    <glyph glyph-name="M" unicode="M" horiz-adv-x="847" 
d="M90 0h-67v62h37c14 0 21 7 22 22l49 619h71l186 -409l35 -83h2c12 31 23 59 34 83l186 409h71l50 -619c1 -15 8 -22 22 -22h37v-62h-67c-43 0 -58 17 -61 61l-34 427l-2 98h-2c-14 -41 -26 -74 -37 -98l-167 -357h-63l-166 357l-37 100h-2c1 -41 0 -75 -3 -100l-33 -427
c-3 -44 -18 -61 -61 -61z" />
    <glyph glyph-name="N" unicode="N" horiz-adv-x="752" 
d="M112 0h-74v62h43c15 0 22 7 22 22v619h64l359 -501l57 -92h2c-3 37 -5 67 -5 92v440c0 43 18 61 61 61h74v-62h-43c-15 0 -22 -7 -22 -22v-619h-64l-359 501c-15 20 -37 56 -49 77l-9 15h-2c4 -37 6 -67 6 -92v-440c0 -43 -18 -61 -61 -61z" />
    <glyph glyph-name="O" unicode="O" horiz-adv-x="791" 
d="M38 356c0 101 35 186 104 255s154 104 254 104s185 -35 254 -104s104 -154 104 -255c0 -103 -35 -190 -105 -261c-69 -71 -154 -107 -253 -107c-100 0 -185 36 -254 107s-104 158 -104 261zM111 356c0 -85 28 -156 83 -215c55 -58 123 -87 202 -87s146 29 201 87
c56 59 84 130 84 215c0 83 -28 152 -83 208c-55 57 -123 85 -202 85s-147 -28 -202 -85c-55 -56 -83 -125 -83 -208z" />
    <glyph glyph-name="P" unicode="P" horiz-adv-x="573" 
d="M172 0h-70v641h-65v62h298c63 0 115 -19 156 -58s61 -90 61 -154c0 -65 -20 -117 -61 -156s-93 -59 -156 -59h-163v-276zM172 641v-303h154c93 0 153 58 153 153c0 93 -59 150 -152 150h-155z" />
    <glyph glyph-name="Q" unicode="Q" horiz-adv-x="791" 
d="M38 356c0 101 34 186 103 255s154 104 253 104c101 0 187 -35 256 -104s104 -154 104 -255c0 -92 -29 -173 -88 -242l86 -86l-43 -45l-86 87c-64 -55 -140 -82 -229 -82c-99 0 -184 36 -253 107s-103 158 -103 261zM111 356c0 -85 27 -156 82 -215
c55 -58 122 -87 201 -87c65 0 132 27 160 48l20 16l-84 85l43 45l83 -86c43 55 65 120 65 194c0 83 -28 152 -83 208s-123 84 -204 84c-80 0 -147 -28 -202 -84c-54 -56 -81 -125 -81 -208z" />
    <glyph glyph-name="R" unicode="R" horiz-adv-x="610" 
d="M172 0h-70v641h-65v62h299c59 0 108 -18 145 -55c38 -36 57 -84 57 -145c0 -103 -61 -172 -137 -188v-2c10 -5 18 -15 25 -28l101 -200c9 -20 22 -23 50 -23h14v-62h-31c-29 0 -50 3 -62 9c-12 7 -24 21 -35 44l-101 201c-19 36 -31 42 -71 42h-119v-296zM172 641v-283
h157c84 0 136 55 136 143c0 87 -52 140 -135 140h-158z" />
    <glyph glyph-name="S" unicode="S" horiz-adv-x="510" 
d="M41 78l-9 10l43 51c4 -4 8 -10 32 -30c31 -27 84 -54 150 -56c39 0 72 12 99 35s40 53 40 90c0 173 -347 139 -347 357c0 50 20 92 60 127s92 53 155 53c27 0 53 -3 80 -10s52 -20 75 -39s35 -43 35 -72v-50h-66v33c0 21 -12 38 -37 52s-54 21 -87 21
c-87 0 -143 -50 -143 -113c0 -163 347 -123 347 -355c0 -55 -20 -101 -59 -138s-90 -56 -154 -56c-53 0 -108 16 -141 35c-33 20 -61 40 -73 55z" />
    <glyph glyph-name="T" unicode="T" horiz-adv-x="617" 
d="M343 0h-70v641h-173c-15 0 -22 -7 -22 -22v-47h-64v74c0 43 14 57 57 57h475c43 0 57 -14 57 -57v-74h-64v47c0 15 -7 22 -22 22h-174v-641z" />
    <glyph glyph-name="U" unicode="U" horiz-adv-x="707" 
d="M93 241v378c0 15 -7 22 -22 22h-43v62h74c43 0 61 -18 61 -61v-398c0 -116 74 -190 190 -190s190 73 190 192v396c0 43 18 61 61 61h74v-62h-43c-15 0 -22 -7 -22 -22v-378c0 -76 -24 -137 -72 -184c-47 -46 -110 -69 -187 -69c-78 0 -141 23 -189 69
c-48 47 -72 108 -72 184z" />
    <glyph glyph-name="V" unicode="V" horiz-adv-x="651" 
d="M363 0h-75l-231 619c-5 15 -17 22 -36 22h-9v62h30c25 0 43 -4 53 -11c11 -7 20 -23 29 -47l173 -473l27 -91h2c10 37 19 67 27 91l174 473c9 24 18 40 28 47c11 7 29 11 54 11h30v-62h-9c-19 0 -31 -7 -36 -22z" />
    <glyph glyph-name="W" unicode="W" horiz-adv-x="944" 
d="M310 0h-84l-161 619c-4 15 -16 22 -37 22h-11v62h31c52 0 73 -11 85 -58l121 -485l16 -75h2c5 26 11 51 18 75l155 540h70l141 -540l16 -75h2c4 26 9 51 15 75l122 485c12 47 32 58 85 58h31v-62h-11c-21 0 -33 -7 -37 -22l-162 -619h-83l-131 489l-22 104h-2
c-9 -39 -17 -73 -26 -103z" />
    <glyph glyph-name="X" unicode="X" horiz-adv-x="572" 
d="M96 0h-80l224 367l-152 248c-11 17 -27 26 -50 26h-21v62h36c51 0 70 -11 98 -56l89 -151l46 -80h2c14 29 28 56 42 80l91 151c28 45 46 56 97 56h37v-62h-21c-23 0 -40 -9 -51 -26l-152 -248l225 -367h-80l-146 242l-45 77h-2c-14 -27 -28 -53 -43 -78z" />
    <glyph glyph-name="Y" unicode="Y" horiz-adv-x="595" 
d="M333 0h-70v306l-189 309c-10 17 -25 26 -46 26h-16v62h26c25 0 44 -3 56 -10c13 -7 26 -22 40 -46l120 -199l43 -79h2c14 28 28 54 43 79l119 199c15 24 28 39 40 46s31 10 56 10h27v-62h-16c-21 0 -37 -9 -47 -26l-188 -309v-306z" />
    <glyph glyph-name="Z" unicode="Z" horiz-adv-x="588" 
d="M497 0h-467v49l377 528c16 21 36 45 45 56l7 8v2c-12 -1 -29 -2 -52 -2h-280c-15 0 -22 -7 -22 -22v-47h-65v70c0 43 18 61 61 61h444v-49l-377 -528c-16 -21 -36 -45 -45 -56l-7 -8v-2c12 1 29 2 52 2h303c15 0 22 7 22 22v47h65v-70c0 -43 -18 -61 -61 -61z" />
    <glyph glyph-name="bracketleft" unicode="[" horiz-adv-x="261" 
d="M83 -34v703c0 43 18 61 61 61h75v-56h-51c-15 0 -22 -7 -22 -22v-669c0 -15 7 -22 22 -22h51v-56h-75c-43 0 -61 18 -61 61z" />
    <glyph glyph-name="backslash" unicode="\" horiz-adv-x="397" 
d="M357 -42h-64l-254 784h64z" />
    <glyph glyph-name="bracketright" unicode="]" horiz-adv-x="261" 
d="M42 -95v56h50c15 0 22 7 22 22v669c0 15 -7 22 -22 22h-50v56h74c43 0 61 -18 61 -61v-703c0 -43 -18 -61 -61 -61h-74z" />
    <glyph glyph-name="asciicircum" unicode="^" horiz-adv-x="606" 
d="M139 250h-66l198 453h47l199 -453h-66l-156 370z" />
    <glyph glyph-name="underscore" unicode="_" horiz-adv-x="550" 
d="M17 -58v58h516v-58h-516z" />
    <glyph glyph-name="grave" unicode="`" horiz-adv-x="360" 
d="M239 752h-59l-87 119h76z" />
    <glyph glyph-name="a" unicode="a" horiz-adv-x="514" 
d="M31 135c0 117 103 175 308 175h28v7c0 103 -36 141 -129 141c-21 0 -43 -3 -65 -10s-33 -18 -33 -34v-32h-66v48c0 32 29 58 66 69c37 12 70 16 97 16c75 0 126 -17 155 -51c29 -33 43 -81 43 -142v-241c0 -15 7 -22 22 -22h42v-59h-69c-43 0 -60 19 -60 59l1 38h-2
c2 0 -44 -109 -168 -109c-46 0 -86 13 -120 39c-33 26 -50 62 -50 108zM100 141c0 -51 42 -96 113 -96c46 0 83 19 111 58c29 39 43 82 43 130v23h-29c-56 0 -88 -2 -147 -15c-57 -13 -91 -48 -91 -100z" />
    <glyph glyph-name="b" unicode="b" horiz-adv-x="569" 
d="M138 0h-65v622c0 15 -7 22 -22 22h-42v59h71c43 0 61 -18 61 -61v-182l-2 -42h2c3 5 4 12 23 33c24 29 71 64 148 64c67 0 120 -24 159 -73c40 -49 60 -112 60 -191s-21 -142 -64 -191c-42 -48 -96 -72 -163 -72c-95 0 -145 62 -160 87l-5 10h-2c1 -11 1 -25 1 -41v-44z
M139 250c0 -55 14 -102 41 -142c28 -40 67 -60 118 -60c47 0 85 18 116 55s47 86 47 148c0 121 -66 202 -159 202c-92 0 -163 -68 -163 -203z" />
    <glyph glyph-name="c" unicode="c" horiz-adv-x="524" 
d="M37 251c0 77 25 140 75 189c51 50 114 75 189 75c23 0 48 -3 73 -9c25 -5 49 -17 72 -34s34 -39 34 -64v-45h-63v29c0 19 -13 34 -39 45c-25 11 -51 17 -77 17c-55 0 -102 -19 -139 -57c-37 -37 -56 -86 -56 -146s19 -109 57 -146c39 -37 86 -55 141 -55
c80 0 139 45 156 64l6 7l31 -51c-4 -4 -7 -9 -32 -29c-32 -25 -88 -51 -165 -53c-75 0 -138 24 -188 73s-75 113 -75 190z" />
    <glyph glyph-name="d" unicode="d" horiz-adv-x="584" 
d="M265 515c95 0 146 -59 159 -85l5 -9h2c-1 11 -2 24 -2 38v163c0 15 -7 22 -22 22h-42v59h71c43 0 61 -18 61 -61v-561c0 -15 7 -22 22 -22h42v-59h-70c-40 0 -60 19 -60 56l2 32h-2c-3 -5 -4 -12 -24 -35c-23 -31 -70 -63 -149 -65c-67 0 -120 24 -160 73
c-39 49 -59 112 -59 191s21 142 63 190c42 49 96 73 163 73zM268 49c92 0 163 68 163 203c0 55 -14 103 -42 142c-28 40 -67 60 -118 60c-46 0 -85 -18 -116 -55s-47 -86 -47 -147c0 -123 65 -203 160 -203z" />
    <glyph glyph-name="e" unicode="e" horiz-adv-x="533" 
d="M37 251c0 80 24 144 71 192c48 48 107 72 178 72c67 0 118 -22 155 -67c37 -44 55 -99 55 -165c0 -11 -2 -33 -2 -34h-386c1 -62 20 -111 57 -146s83 -53 138 -53c87 -1 145 57 153 60l31 -52c-62 -47 -124 -70 -186 -70c-75 0 -138 25 -189 74c-50 49 -75 112 -75 189z
M111 303h316c-4 100 -63 156 -143 156c-87 0 -157 -57 -173 -156z" />
    <glyph glyph-name="f" unicode="f" horiz-adv-x="300" 
d="M156 0h-68v446h-63v57h63v18c0 77 27 133 66 156c40 24 72 31 107 31l31 -2v-61c-6 1 -14 2 -24 2c-24 0 -43 -5 -70 -21c-25 -15 -42 -53 -42 -105v-18h128v-57h-128v-446z" />
    <glyph glyph-name="g" unicode="g" horiz-adv-x="578" 
d="M84 -170l26 57c42 -23 87 -35 136 -35c105 0 176 51 176 158v44l2 36h-2c-31 -58 -84 -87 -159 -87c-67 0 -122 24 -163 72s-61 110 -61 186s20 137 59 184s93 70 160 70c108 -1 149 -55 163 -77l4 -9h2c-1 6 -1 12 -1 19c0 37 19 55 58 55h70v-59h-42
c-15 0 -22 -7 -22 -22v-410c0 -75 -23 -130 -70 -167c-46 -37 -103 -55 -171 -55c-57 0 -112 13 -165 40zM274 64c88 0 150 60 150 197c0 129 -53 193 -159 193c-97 0 -156 -72 -156 -192s65 -198 165 -198z" />
    <glyph glyph-name="h" unicode="h" horiz-adv-x="592" 
d="M141 0h-68v622c0 15 -7 22 -22 22h-42v59h71c43 0 61 -18 61 -59v-213l-2 -41h2c12 30 35 58 70 85s78 40 129 40c121 0 169 -66 169 -195v-239c0 -15 7 -22 22 -22h42v-59h-71c-43 0 -61 18 -61 61v241c0 45 -3 74 -18 103c-15 31 -45 46 -92 46c-43 0 -81 -13 -115 -40
c-33 -27 -56 -61 -67 -103c-5 -18 -8 -40 -8 -67v-241z" />
    <glyph glyph-name="i" unicode="i" horiz-adv-x="240" 
d="M149 617h-65v86h65v-86zM86 61v361c0 15 -7 22 -22 22h-42v59h71c43 0 61 -18 61 -61v-361c0 -15 7 -22 22 -22h42v-59h-71c-43 0 -61 18 -61 61z" />
    <glyph glyph-name="j" unicode="j" horiz-adv-x="224" 
d="M150 617h-65v86h65v-86zM87 -16v438c0 15 -7 22 -22 22h-42v59h71c43 0 61 -18 61 -61v-461c0 -79 -27 -133 -68 -156c-40 -24 -72 -31 -108 -31l-29 3v59c6 -1 13 -1 22 -1c39 0 115 15 115 129z" />
    <glyph glyph-name="k" unicode="k" horiz-adv-x="488" 
d="M141 0h-68v622c0 15 -7 22 -22 22h-42v59h71c44 0 61 -15 61 -58v-334h51c26 0 45 8 58 24l129 168h82l-145 -184c-15 -19 -29 -31 -34 -34l-4 -2v-2c11 -5 21 -17 32 -37l91 -163c9 -17 19 -22 46 -22h27v-59h-47c-51 0 -64 9 -87 50l-100 180c-8 15 -26 22 -53 22h-46
v-252z" />
    <glyph glyph-name="l" unicode="l" horiz-adv-x="230" 
d="M74 61v561c0 15 -7 22 -22 22h-42v59h71c43 0 61 -18 61 -61v-561c0 -15 7 -22 22 -22h42v-59h-71c-43 0 -61 18 -61 61z" />
    <glyph glyph-name="m" unicode="m" horiz-adv-x="929" 
d="M156 0h-68v422c0 15 -7 22 -22 22h-42v59h70c40 0 60 -19 60 -56v-23l-1 -36h2c12 35 36 64 71 89s72 38 111 38c89 0 141 -42 155 -126h2c15 35 39 65 73 89c34 25 71 37 112 37c119 0 167 -66 167 -195v-239c0 -15 7 -22 22 -22h42v-59h-71c-43 0 -61 18 -61 61v242
c0 95 -24 150 -108 150c-37 0 -70 -14 -100 -42c-29 -28 -49 -61 -60 -100c-6 -22 -9 -46 -9 -73v-238h-68v303c0 44 -4 71 -17 102c-13 32 -43 48 -88 48c-39 0 -74 -14 -104 -43c-29 -29 -50 -64 -61 -105c-5 -19 -7 -42 -7 -67v-238z" />
    <glyph glyph-name="n" unicode="n" horiz-adv-x="607" 
d="M156 0h-68v422c0 15 -7 22 -22 22h-42v59h69c41 0 61 -19 61 -56v-23l-2 -36h2c13 31 36 59 70 86c35 27 78 41 131 41c121 0 169 -66 169 -195v-239c0 -15 7 -22 22 -22h42v-59h-71c-43 0 -61 18 -61 61v241c0 95 -22 149 -110 149c-43 0 -81 -13 -115 -40
c-33 -26 -56 -60 -67 -102c-5 -19 -8 -41 -8 -68v-241z" />
    <glyph glyph-name="o" unicode="o" horiz-adv-x="604" 
d="M37 254c0 74 26 136 77 186s114 75 188 75s137 -25 188 -75s77 -112 77 -186c0 -75 -26 -139 -77 -190s-114 -76 -188 -76s-137 25 -188 76s-77 115 -77 190zM106 254c0 -58 19 -107 57 -146s84 -59 139 -59s101 20 139 59s57 88 57 146c0 57 -19 104 -57 142
c-38 39 -84 58 -139 58s-101 -19 -139 -58c-38 -38 -57 -85 -57 -142z" />
    <glyph glyph-name="p" unicode="p" horiz-adv-x="584" 
d="M156 -200h-68v622c0 15 -7 22 -22 22h-42v59h68c40 0 60 -18 60 -53l-1 -34h2c3 5 4 11 23 34c24 31 72 65 151 65c67 0 120 -24 159 -73c40 -49 60 -112 60 -191s-21 -142 -64 -191c-42 -48 -96 -72 -162 -72c-95 0 -146 60 -159 85l-5 10h-2c1 -12 2 -27 2 -44v-239z
M154 250c0 -55 14 -102 42 -142s67 -60 117 -60c47 0 85 18 116 55s47 86 47 148c0 121 -66 202 -159 202s-163 -68 -163 -203z" />
    <glyph glyph-name="q" unicode="q" horiz-adv-x="584" 
d="M265 515c96 0 149 -62 161 -87l5 -10h2c-1 9 -1 20 -1 33c0 35 20 52 60 52h69v-59h-42c-15 0 -22 -7 -22 -22v-622h-68v241l2 44h-2c-3 -5 -4 -11 -23 -34c-24 -28 -71 -63 -148 -63c-67 0 -120 24 -160 73c-39 49 -59 112 -59 191s21 142 63 190c42 49 96 73 163 73z
M268 49c92 0 163 68 163 203c0 55 -14 103 -42 142c-28 40 -67 60 -118 60c-46 0 -85 -18 -116 -55s-47 -86 -47 -147c0 -123 65 -203 160 -203z" />
    <glyph glyph-name="r" unicode="r" horiz-adv-x="350" 
d="M156 0h-68v422c0 15 -7 22 -22 22h-42v59h69c41 0 61 -19 61 -57v-34l-2 -38h2c27 80 84 134 159 134l28 -3v-67c-9 1 -17 2 -26 2c-68 0 -122 -53 -146 -130c-9 -28 -13 -61 -13 -98v-212z" />
    <glyph glyph-name="s" unicode="s" horiz-adv-x="434" 
d="M36 67l-7 9l40 46l18 -21c8 -8 25 -19 52 -33s55 -21 84 -21c60 0 106 29 106 80c0 40 -44 69 -100 90c-79 29 -184 68 -182 162c0 88 74 136 179 136c21 0 42 -3 63 -8c44 -9 90 -39 90 -83v-43h-63v24c0 33 -47 52 -87 52c-71 0 -113 -26 -113 -74
c0 -113 283 -87 283 -254c0 -41 -17 -75 -51 -102c-33 -26 -75 -39 -126 -39c-103 0 -165 56 -186 79z" />
    <glyph glyph-name="t" unicode="t" horiz-adv-x="300" 
d="M84 183v263h-66v57h67v139h67v-139h127v-57h-127v-256c0 -118 75 -133 114 -133l23 2v-61c-8 -1 -18 -2 -30 -2c-28 0 -51 2 -86 17c-47 22 -89 69 -89 170z" />
    <glyph glyph-name="u" unicode="u" horiz-adv-x="601" 
d="M82 183v239c0 15 -7 22 -22 22h-42v59h71c43 0 61 -18 61 -59v-243c0 -95 22 -149 110 -149c55 0 100 21 134 62c35 41 52 91 52 148v241h68v-422c0 -15 7 -22 22 -22h42v-59h-70c-41 0 -61 19 -61 56v23l2 36h-2c-12 -31 -35 -60 -70 -87c-34 -27 -76 -40 -126 -40
c-117 0 -169 63 -169 195z" />
    <glyph glyph-name="v" unicode="v" horiz-adv-x="518" 
d="M296 0h-74l-164 421c-6 15 -18 23 -35 23h-9v59h27c48 0 63 -10 80 -55l121 -314l17 -59h2c5 23 11 42 17 59l121 314c17 45 32 55 79 55h26v-59h-9c-18 0 -30 -8 -35 -23z" />
    <glyph glyph-name="w" unicode="w" horiz-adv-x="844" 
d="M283 0h-76l-144 421c-5 15 -17 23 -34 23h-14v59h35c49 0 64 -9 79 -56l104 -319l14 -54h2c5 20 11 38 16 54l124 373h67l124 -373l15 -54h2c4 19 9 37 15 54l103 319c15 47 30 56 79 56h35v-59h-14c-17 0 -29 -8 -34 -23l-144 -421h-76l-123 358l-15 54h-2
c-5 -19 -10 -37 -16 -54z" />
    <glyph glyph-name="x" unicode="x" horiz-adv-x="484" 
d="M102 0h-80l176 262l-109 161c-10 14 -26 21 -47 21h-21v59h37c25 0 43 -3 54 -10s25 -22 40 -45l73 -112l16 -30h2l17 30l72 112c15 23 28 38 39 45s30 10 55 10h37v-59h-21c-21 0 -36 -7 -46 -20l-110 -162l176 -262h-79l-123 187l-17 28h-2l-17 -28z" />
    <glyph glyph-name="y" unicode="y" horiz-adv-x="533" 
d="M113 -210c-41 0 -82 20 -97 36l-12 13l32 49c1 -3 33 -37 75 -37c39 0 70 27 93 82l30 69l-177 419c-7 15 -18 23 -35 23h-10v59h31c45 0 60 -10 77 -55l129 -314l18 -54h2c5 19 10 37 17 54l124 314c17 45 31 55 78 55h31v-59h-10c-17 0 -29 -8 -35 -23l-217 -526
c-27 -65 -79 -105 -144 -105z" />
    <glyph glyph-name="z" unicode="z" horiz-adv-x="503" 
d="M410 0h-372v44l282 353l40 46v2c-11 -1 -28 -2 -49 -2h-185c-15 0 -22 -7 -22 -22v-39h-63v60c0 43 18 61 61 61h349v-45l-283 -352l-41 -46v-2c12 1 29 2 51 2h208c15 0 22 7 22 22v39h63v-60c0 -43 -18 -61 -61 -61z" />
    <glyph glyph-name="braceleft" unicode="{" horiz-adv-x="301" 
d="M110 83v95c0 81 -54 110 -76 112l-9 2v62s85 10 85 115v82c0 63 19 111 40 135c39 38 82 45 109 44h16v-56h-10c-17 0 -32 -3 -55 -19c-21 -15 -37 -51 -37 -106v-98c0 -77 -51 -115 -72 -123l-8 -4v-2s80 -25 80 -127v-110c0 -55 16 -91 37 -106c23 -16 38 -19 55 -19
h10v-56c-4 -1 -9 -1 -16 -1c-21 0 -39 1 -70 16c-40 20 -79 65 -79 164z" />
    <glyph glyph-name="bar" unicode="|" horiz-adv-x="228" 
d="M145 -157h-63v945h63v-945z" />
    <glyph glyph-name="braceright" unicode="}" horiz-adv-x="301" 
d="M27 -96v56h10c17 0 31 3 54 19c23 15 37 51 37 106v110c0 80 50 116 72 124l8 3v2s-80 29 -80 127v98c0 55 -14 91 -37 106c-23 16 -37 19 -54 19h-10v56h16c20 0 39 -1 68 -16c41 -20 80 -63 80 -163v-82c0 -63 36 -102 64 -109l21 -6v-62s-85 -10 -85 -114v-95
c0 -63 -18 -111 -41 -135c-36 -38 -83 -47 -107 -45z" />
    <glyph glyph-name="asciitilde" unicode="~" horiz-adv-x="578" 
d="M120 209h-58c0 103 42 155 127 155c49 0 88 -25 108 -52c21 -27 54 -52 91 -52c53 0 71 49 71 100h58c0 -105 -47 -155 -126 -155c-49 0 -89 27 -110 52c-20 25 -53 52 -90 52c-53 0 -71 -49 -71 -100z" />
    <glyph glyph-name="uni00A0" unicode="&#xa0;" horiz-adv-x="272" 
 />
    <glyph glyph-name="exclamdown" unicode="&#xa1;" horiz-adv-x="228" 
d="M152 426h-77v77h77v-77zM149 -200h-70l3 519h64z" />
    <glyph glyph-name="cent" unicode="&#xa2;" 
d="M324 -39h-57v111c-63 7 -113 37 -148 89s-53 116 -53 191s18 139 53 190c35 52 85 82 148 89v111h57v-111c81 -9 140 -59 179 -148l-64 -24c-31 72 -77 108 -140 108c-53 0 -93 -20 -121 -60s-42 -92 -42 -155c0 -128 56 -215 163 -215c63 0 109 36 140 107l64 -24
c-41 -91 -100 -141 -179 -148v-111z" />
    <glyph glyph-name="sterling" unicode="&#xa3;" 
d="M469 0h-423v62h63v264h-44v55h44v149c0 53 19 97 58 132s89 53 149 53c56 0 114 -24 138 -43l18 -14l-42 -50c-33 28 -71 42 -114 42c-85 0 -137 -53 -137 -124v-145h192v-55h-192v-264h263c15 0 22 7 22 22v47h66v-70c0 -43 -18 -61 -61 -61z" />
    <glyph glyph-name="currency" unicode="&#xa4;" horiz-adv-x="608" 
d="M205 0h-70v180h-73v55h73v75h-73v59h73v275h-65v59h279c64 0 116 -18 156 -53s60 -82 60 -143c0 -60 -20 -108 -61 -144c-40 -35 -92 -53 -155 -53h-144v-75h252v-55h-252v-180zM205 644v-275h135c95 0 153 54 153 139s-58 136 -153 136h-135z" />
    <glyph glyph-name="yen" unicode="&#xa5;" horiz-adv-x="608" 
d="M269 213h-161v52h161v41l-28 46h-137v51h104v2l-131 214c-9 15 -25 22 -48 22h-11v62h23c51 0 72 -9 99 -56l120 -199l43 -78h2c14 27 28 53 43 78l119 199c28 47 48 56 99 56h24v-62h-12c-23 0 -39 -7 -48 -22l-130 -214v-2h100v-51h-133l-28 -46v-41h161v-52h-161v-213
h-70v213z" />
    <glyph glyph-name="section" unicode="&#xa7;" horiz-adv-x="402" 
d="M195 85h-60l-69 434c-2 12 -3 24 -3 35c0 47 16 85 47 115c32 31 74 46 125 46c41 0 84 -18 103 -31l13 -11l-36 -47c-23 19 -49 29 -80 29c-64 0 -110 -40 -110 -107c0 -10 1 -20 3 -30zM64 -30l-14 10l35 48c23 -20 50 -30 81 -30c63 0 110 42 110 109
c0 11 -1 22 -4 32l-65 429h59l69 -434c2 -13 3 -24 3 -35c0 -47 -16 -85 -48 -115c-31 -31 -73 -46 -124 -46c-41 0 -85 17 -102 32z" />
    <glyph glyph-name="dieresis" unicode="&#xa8;" horiz-adv-x="493" 
d="M366 785h-59v86h59v-86zM216 785h-59v86h59v-86z" />
    <glyph glyph-name="copyright" unicode="&#xa9;" horiz-adv-x="804" 
d="M47 352c0 101 34 186 103 257s153 106 250 106c99 0 184 -35 253 -106c70 -71 105 -156 105 -257c0 -102 -35 -188 -104 -259c-69 -70 -154 -105 -254 -105c-98 0 -181 35 -250 106s-103 157 -103 258zM105 352c0 -87 28 -161 85 -221c57 -59 127 -89 210 -89
c85 0 156 30 213 89c57 60 86 134 86 221s-29 160 -87 219c-57 60 -128 90 -212 90c-83 0 -153 -30 -210 -90c-57 -59 -85 -132 -85 -219zM410 556c86 0 141 -58 157 -84l6 -9l-46 -31c-3 5 -8 12 -14 19c-6 8 -19 18 -39 31s-41 19 -62 19c-47 0 -83 -15 -110 -44
c-26 -29 -39 -65 -39 -106s13 -77 39 -106c27 -29 63 -44 110 -44c58 0 100 44 110 62l5 7l46 -31c-3 -5 -6 -11 -26 -32c-26 -28 -71 -61 -137 -61c-63 0 -114 20 -151 60s-55 88 -55 144s19 104 56 145s87 61 150 61z" />
    <glyph glyph-name="ordfeminine" unicode="&#xaa;" horiz-adv-x="437" 
d="M181 382c-60 0 -110 37 -110 96c0 73 63 110 190 110h13c-1 56 -20 77 -71 77c-35 0 -52 -7 -52 -20v-24h-53v39c0 13 7 24 22 33c29 17 59 20 84 20c93 0 125 -46 125 -123v-142c0 -6 3 -9 9 -9h29v-51h-47c-27 0 -41 13 -42 39l-1 12h-2l-9 -16c-8 -12 -44 -41 -85 -41
zM188 430c52 0 85 51 86 114h-11c-90 0 -135 -21 -135 -63c0 -28 23 -51 60 -51zM372 264h-303v47h303v-47z" />
    <glyph glyph-name="guillemotleft" unicode="&#xab;" horiz-adv-x="512" 
d="M389 77l-164 205l164 206h74l-164 -206l164 -205h-74zM283 77h-74l-164 205l164 206h74l-164 -206z" />
    <glyph glyph-name="logicalnot" unicode="&#xac;" horiz-adv-x="604" 
d="M476 342h-406v58h466v-242h-60v184z" />
    <glyph glyph-name="uni00AD" unicode="&#xad;" horiz-adv-x="407" 
d="M345 253h-283v62h283v-62z" />
    <glyph glyph-name="registered" unicode="&#xae;" horiz-adv-x="804" 
d="M47 352c0 101 34 186 103 257s153 106 250 106c99 0 184 -35 253 -106c70 -71 105 -156 105 -257c0 -102 -35 -188 -104 -259c-69 -70 -154 -105 -254 -105c-98 0 -181 35 -250 106s-103 157 -103 258zM105 352c0 -87 28 -161 85 -221c57 -59 127 -89 210 -89
c85 0 156 30 213 89c57 60 86 134 86 221s-29 160 -87 219c-57 60 -128 90 -212 90c-83 0 -153 -30 -210 -90c-57 -59 -85 -132 -85 -219zM338 157h-57v343h-35v47h174c71 0 118 -47 118 -116c0 -55 -34 -94 -74 -103v-2c7 -3 14 -10 21 -21l45 -90c4 -9 13 -13 27 -13h10
v-45h-29c-32 0 -44 5 -56 30l-54 106c-8 15 -20 22 -36 22h-54v-158zM338 500v-141h73c43 0 69 27 69 72c0 44 -26 69 -69 69h-73z" />
    <glyph glyph-name="overscore" unicode="&#xaf;" horiz-adv-x="461" 
d="M358 785h-246v54h246v-54z" />
    <glyph glyph-name="degree" unicode="&#xb0;" horiz-adv-x="369" 
d="M184 436c-39 0 -72 13 -99 40s-41 60 -41 99c0 38 14 71 41 98s60 41 99 41s72 -14 99 -41c28 -27 42 -60 42 -98c0 -39 -14 -72 -41 -99s-61 -40 -100 -40zM265 575c0 45 -36 83 -81 83s-81 -38 -81 -83c0 -47 36 -83 81 -83s81 36 81 83z" />
    <glyph glyph-name="plusminus" unicode="&#xb1;" 
d="M254 255h-231v58h231v255h61v-255h230v-58h-230v-255h-61v255zM41 -162v58h486v-58h-486z" />
    <glyph glyph-name="twosuperior" unicode="&#xb2;" horiz-adv-x="376" 
d="M292 265h-212c-32 0 -45 13 -45 50c0 41 13 73 41 100c15 13 27 23 38 30s26 17 47 29l49 29c23 16 49 47 49 82c0 41 -31 72 -79 72c-37 0 -68 -19 -68 -40v-26h-54v39c0 26 13 46 40 60s55 21 83 21c84 0 136 -53 136 -126c0 -40 -12 -70 -43 -97
c-15 -13 -27 -22 -38 -29c-10 -7 -26 -16 -47 -28c-21 -13 -38 -23 -49 -31c-21 -15 -47 -45 -47 -77c0 -4 3 -6 8 -6h175c4 0 6 2 6 6v36h54v-50c0 -31 -13 -44 -44 -44z" />
    <glyph glyph-name="threesuperior" unicode="&#xb3;" horiz-adv-x="376" 
d="M186 257c-52 0 -107 30 -130 54l-18 18l40 38l14 -16c7 -6 19 -14 38 -25c19 -10 38 -15 57 -15c48 0 88 37 88 86s-42 81 -94 81h-34l-11 34l96 117l23 24v2c-11 -2 -23 -3 -36 -3h-94c-7 0 -11 -4 -11 -11v-28h-54v43c0 35 11 47 47 47h221v-39l-118 -138
c31 -3 60 -16 85 -39s38 -53 38 -91c0 -40 -15 -73 -44 -100c-29 -26 -63 -39 -103 -39z" />
    <glyph glyph-name="acute" unicode="&#xb4;" horiz-adv-x="371" 
d="M174 752h-59l70 119h76z" />
    <glyph glyph-name="mu" unicode="&#xb5;" horiz-adv-x="638" 
d="M170 -200h-63v622c0 15 -7 22 -22 22h-42v59h71c43 0 61 -18 61 -59v-243c0 -95 22 -149 110 -149c55 0 100 21 134 62c35 41 52 91 52 148v241h68v-422c0 -15 7 -22 22 -22h42v-59h-70c-41 0 -61 19 -61 56v23l2 36h-2c-3 -7 -5 -15 -28 -44c-11 -15 -23 -28 -36 -39
c-27 -23 -77 -44 -132 -44c-49 0 -89 17 -101 32l-9 10h-2c4 -34 6 -59 6 -76v-154z" />
    <glyph glyph-name="mu" unicode="&#x3bc;" horiz-adv-x="638" 
d="M170 -200h-63v622c0 15 -7 22 -22 22h-42v59h71c43 0 61 -18 61 -59v-243c0 -95 22 -149 110 -149c55 0 100 21 134 62c35 41 52 91 52 148v241h68v-422c0 -15 7 -22 22 -22h42v-59h-70c-41 0 -61 19 -61 56v23l2 36h-2c-3 -7 -5 -15 -28 -44c-11 -15 -23 -28 -36 -39
c-27 -23 -77 -44 -132 -44c-49 0 -89 17 -101 32l-9 10h-2c4 -34 6 -59 6 -76v-154z" />
    <glyph glyph-name="paragraph" unicode="&#xb6;" horiz-adv-x="562" 
d="M332 -50h-57v291c-65 0 -122 22 -169 67s-70 100 -70 165s23 119 70 163c47 45 103 67 168 67h239v-62h-181v-691zM452 -50h-58v631h58v-631z" />
    <glyph glyph-name="middot" unicode="&#xb7;" horiz-adv-x="200" 
d="M139 248h-77v80h77v-80z" />
    <glyph glyph-name="cedilla" unicode="&#xb8;" horiz-adv-x="413" 
d="M147 -90l-15 -1l26 111l40 -7v-8l-12 -60c43 -7 71 -32 71 -71c0 -53 -42 -79 -97 -79l-49 5v48c13 -4 27 -6 42 -6c34 0 51 11 51 34s-19 34 -57 34z" />
    <glyph glyph-name="onesuperior" unicode="&#xb9;" horiz-adv-x="376" 
d="M320 265h-244v52h94v275l1 34h-2c-3 -7 -8 -12 -13 -17l-46 -45l-36 37l103 102h50v-386h93v-52z" />
    <glyph glyph-name="ordmasculine" unicode="&#xba;" horiz-adv-x="465" 
d="M65 550c0 46 16 85 49 116c33 32 72 48 118 48s85 -16 118 -48c33 -31 49 -70 49 -116c0 -47 -16 -87 -49 -119c-32 -32 -71 -48 -118 -48s-86 16 -119 48c-32 32 -48 72 -48 119zM344 550c0 65 -49 114 -112 114s-112 -49 -112 -114c0 -67 49 -116 112 -116
s112 49 112 116zM385 264h-303v47h303v-47z" />
    <glyph glyph-name="guillemotright" unicode="&#xbb;" horiz-adv-x="512" 
d="M303 77h-74l164 205l-164 206h74l164 -206zM123 77h-74l164 205l-164 206h74l164 -206z" />
    <glyph glyph-name="onequarter" unicode="&#xbc;" horiz-adv-x="842" 
d="M307 0h-63l297 703h62zM296 265h-242v52h94v275l1 34h-2c-4 -7 -8 -12 -13 -17l-46 -45l-36 37l102 102h51v-386h91v-52zM682 117h-211v37l208 284h60v-269h67v-52h-67v-117h-57v117zM539 169v-1c9 1 16 1 21 1h123v153l1 39h-2c-5 -9 -10 -18 -16 -27l-113 -149z" />
    <glyph glyph-name="onehalf" unicode="&#xbd;" horiz-adv-x="831" 
d="M293 0h-63l297 703h62zM293 265h-243v52h94v275l1 34h-2c-3 -7 -8 -12 -13 -17l-46 -45l-36 37l103 102h50v-386h92v-52zM491 50c0 27 7 52 21 73c14 22 28 38 42 48c15 10 35 23 62 38l49 29c24 16 50 47 50 82c0 41 -31 72 -80 72c-37 0 -67 -19 -67 -40v-25h-55v38
c0 27 14 47 41 60c27 14 55 21 82 21c84 0 137 -53 137 -126c0 -40 -12 -70 -43 -97c-15 -13 -28 -22 -38 -29s-26 -16 -47 -28c-32 -19 -44 -26 -67 -45c-21 -19 -30 -38 -30 -62c0 -5 3 -7 8 -7h176c4 0 6 2 6 7v35h54v-50c0 -29 -15 -44 -44 -44h-213
c-32 0 -44 13 -44 50z" />
    <glyph glyph-name="threequarters" unicode="&#xbe;" horiz-adv-x="847" 
d="M310 0h-63l297 703h62zM190 257c-53 0 -108 30 -132 54l-17 18l41 38l14 -16c6 -6 18 -14 37 -25c19 -10 38 -15 57 -15c48 0 88 37 88 86s-42 81 -94 81h-34l-11 34l96 117l23 24v2c-11 -2 -23 -3 -35 -3h-95c-7 0 -10 -4 -10 -11v-28h-55v43c0 35 12 47 48 47h220v-39
l-118 -138c31 -3 60 -16 85 -39s38 -53 38 -91c0 -40 -14 -73 -43 -100c-29 -26 -63 -39 -103 -39zM687 117h-211v37l207 284h60v-269h67v-52h-67v-117h-56v117zM543 169v-1c9 1 16 1 21 1h123v153l1 39h-2c-5 -9 -10 -18 -16 -27l-112 -149z" />
    <glyph glyph-name="questiondown" unicode="&#xbf;" horiz-adv-x="439" 
d="M294 426h-77v77h77v-77zM43 -33c0 61 28 111 63 144c51 49 116 92 116 168v40h67v-43c0 -59 -27 -108 -62 -141c-49 -47 -113 -93 -113 -165c0 -65 55 -115 132 -115c40 0 85 18 105 31l15 11l38 -50c-5 -4 -11 -9 -20 -15c-9 -7 -27 -15 -55 -26s-57 -16 -86 -16
c-58 0 -106 17 -144 50c-37 33 -56 75 -56 127z" />
    <glyph glyph-name="Agrave" unicode="&#xc0;" horiz-adv-x="656" 
d="M44 0h-32v62h12c19 0 31 7 36 22l230 619h75l230 -619c5 -15 17 -22 36 -22h13v-62h-33c-25 0 -43 4 -54 11c-10 7 -19 23 -28 47l-62 166h-279l-61 -166c-17 -48 -32 -58 -83 -58zM300 536l-92 -251h241l-93 251l-28 91h-2c-10 -39 -19 -69 -26 -91zM357 752h-59
l-87 119h76z" />
    <glyph glyph-name="Aacute" unicode="&#xc1;" horiz-adv-x="656" 
d="M44 0h-32v62h12c19 0 31 7 36 22l230 619h75l230 -619c5 -15 17 -22 36 -22h13v-62h-33c-25 0 -43 4 -54 11c-10 7 -19 23 -28 47l-62 166h-279l-61 -166c-17 -48 -32 -58 -83 -58zM300 536l-92 -251h241l-93 251l-28 91h-2c-10 -39 -19 -69 -26 -91zM357 752h-59l70 119
h76z" />
    <glyph glyph-name="Acircumflex" unicode="&#xc2;" horiz-adv-x="656" 
d="M44 0h-32v62h12c19 0 31 7 36 22l230 619h75l230 -619c5 -15 17 -22 36 -22h13v-62h-33c-25 0 -43 4 -54 11c-10 7 -19 23 -28 47l-62 166h-279l-61 -166c-17 -48 -32 -58 -83 -58zM300 536l-92 -251h241l-93 251l-28 91h-2c-10 -39 -19 -69 -26 -91zM273 752h-63l83 119
h70l83 -119h-63l-54 81h-2z" />
    <glyph glyph-name="Atilde" unicode="&#xc3;" horiz-adv-x="656" 
d="M44 0h-32v62h12c19 0 31 7 36 22l230 619h75l230 -619c5 -15 17 -22 36 -22h13v-62h-33c-25 0 -43 4 -54 11c-10 7 -19 23 -28 47l-62 166h-279l-61 -166c-17 -48 -32 -58 -83 -58zM300 536l-92 -251h241l-93 251l-28 91h-2c-10 -39 -19 -69 -26 -91zM222 755h-52
c0 78 31 117 93 117c58 0 89 -72 126 -72c29 0 41 34 41 69h52c0 -78 -31 -117 -93 -117c-60 -3 -89 74 -127 71c-27 0 -40 -23 -40 -68z" />
    <glyph glyph-name="Adieresis" unicode="&#xc4;" horiz-adv-x="656" 
d="M44 0h-32v62h12c19 0 31 7 36 22l230 619h75l230 -619c5 -15 17 -22 36 -22h13v-62h-33c-25 0 -43 4 -54 11c-10 7 -19 23 -28 47l-62 166h-279l-61 -166c-17 -48 -32 -58 -83 -58zM300 536l-92 -251h241l-93 251l-28 91h-2c-10 -39 -19 -69 -26 -91zM433 785h-59v86h59
v-86zM283 785h-59v86h59v-86z" />
    <glyph glyph-name="Aring" unicode="&#xc5;" horiz-adv-x="656" 
d="M44 0h-32v62h12c19 0 31 7 36 22l230 619h75l230 -619c5 -15 17 -22 36 -22h13v-62h-33c-25 0 -43 4 -54 11c-10 7 -19 23 -28 47l-62 166h-279l-61 -166c-17 -48 -32 -58 -83 -58zM300 536l-92 -251h241l-93 251l-28 91h-2c-10 -39 -19 -69 -26 -91zM380 761
c-28 -27 -76 -27 -105 0c-28 27 -28 75 0 102c29 27 77 27 105 0c29 -27 29 -75 0 -102zM328 779c19 0 33 14 33 33c0 44 -66 44 -66 0c0 -19 13 -33 33 -33z" />
    <glyph glyph-name="AE" unicode="&#xc6;" horiz-adv-x="827" 
d="M36 0h-26v62h9c18 0 30 7 35 22l239 619h413c43 0 61 -18 61 -61v-70h-65v47c0 15 -7 22 -22 22h-233v-256h257v-62h-257v-239c0 -17 8 -22 29 -22h233c15 0 22 7 22 22v47h65v-70c0 -43 -18 -61 -61 -61h-287c-52 0 -71 13 -71 61v262h-159l-99 -265
c-17 -48 -32 -58 -83 -58zM337 641l-95 -256h135v256h-40z" />
    <glyph glyph-name="Ccedilla" unicode="&#xc7;" horiz-adv-x="694" 
d="M347 -90l-15 -1l19 81c-92 9 -167 47 -225 116s-87 153 -87 251c0 101 33 186 100 255s149 103 248 103c37 0 74 -5 112 -14c39 -9 73 -26 104 -50s47 -52 47 -85v-58h-66v39c0 31 -21 55 -63 74s-86 28 -132 28c-79 0 -145 -28 -198 -83s-79 -124 -79 -209
s26 -156 79 -215s119 -88 198 -88c115 0 197 62 223 88l10 10l40 -50c-5 -5 -10 -12 -45 -39c-17 -13 -35 -24 -54 -34c-37 -19 -104 -40 -168 -41l-8 -43c43 -7 70 -32 70 -71c0 -55 -41 -79 -96 -79l-49 5v48c13 -4 26 -6 41 -6c34 0 51 11 51 34s-19 34 -57 34z" />
    <glyph glyph-name="Egrave" unicode="&#xc8;" horiz-adv-x="560" 
d="M102 61v580h-65v62h402c43 0 61 -18 61 -61v-70h-65v47c0 15 -7 22 -22 22h-241v-256h265v-62h-265v-239c0 -15 7 -22 22 -22h248c15 0 22 7 22 22v47h65v-70c0 -43 -18 -61 -61 -61h-305c-43 0 -61 18 -61 61zM319 752h-59l-87 119h76z" />
    <glyph glyph-name="Eacute" unicode="&#xc9;" horiz-adv-x="560" 
d="M102 61v580h-65v62h402c43 0 61 -18 61 -61v-70h-65v47c0 15 -7 22 -22 22h-241v-256h265v-62h-265v-239c0 -15 7 -22 22 -22h248c15 0 22 7 22 22v47h65v-70c0 -43 -18 -61 -61 -61h-305c-43 0 -61 18 -61 61zM319 752h-59l70 119h76z" />
    <glyph glyph-name="Ecircumflex" unicode="&#xca;" horiz-adv-x="560" 
d="M102 61v580h-65v62h402c43 0 61 -18 61 -61v-70h-65v47c0 15 -7 22 -22 22h-241v-256h265v-62h-265v-239c0 -15 7 -22 22 -22h248c15 0 22 7 22 22v47h65v-70c0 -43 -18 -61 -61 -61h-305c-43 0 -61 18 -61 61zM235 752h-63l83 119h70l83 -119h-63l-54 81h-2z" />
    <glyph glyph-name="Edieresis" unicode="&#xcb;" horiz-adv-x="560" 
d="M102 61v580h-65v62h402c43 0 61 -18 61 -61v-70h-65v47c0 15 -7 22 -22 22h-241v-256h265v-62h-265v-239c0 -15 7 -22 22 -22h248c15 0 22 7 22 22v47h65v-70c0 -43 -18 -61 -61 -61h-305c-43 0 -61 18 -61 61zM395 785h-59v86h59v-86zM245 785h-59v86h59v-86z" />
    <glyph glyph-name="Igrave" unicode="&#xcc;" horiz-adv-x="287" 
d="M244 0h-201v62h66v579h-66v62h201v-62h-67v-579h67v-62zM173 752h-59l-87 119h76z" />
    <glyph glyph-name="Iacute" unicode="&#xcd;" horiz-adv-x="287" 
d="M244 0h-201v62h66v579h-66v62h201v-62h-67v-579h67v-62zM172 752h-59l70 119h76z" />
    <glyph glyph-name="Icircumflex" unicode="&#xce;" horiz-adv-x="287" 
d="M88 752h-63l83 119h70l83 -119h-63l-54 81h-2zM244 0h-201v62h66v579h-66v62h201v-62h-67v-579h67v-62z" />
    <glyph glyph-name="Idieresis" unicode="&#xcf;" horiz-adv-x="287" 
d="M244 0h-201v62h66v579h-66v62h201v-62h-67v-579h67v-62zM249 785h-59v86h59v-86zM99 785h-59v86h59v-86z" />
    <glyph glyph-name="Eth" unicode="&#xd0;" horiz-adv-x="716" 
d="M104 61v262h-49v60h49v258h-65v62h283c107 0 193 -31 257 -94c64 -62 96 -148 96 -257c0 -111 -32 -197 -96 -259s-150 -93 -257 -93h-157c-43 0 -61 18 -61 61zM174 323v-239c0 -15 7 -22 22 -22h119c176 0 287 105 287 290c0 184 -111 289 -287 289h-141v-258h165v-60
h-165z" />
    <glyph glyph-name="Ntilde" unicode="&#xd1;" horiz-adv-x="752" 
d="M112 0h-74v62h43c15 0 22 7 22 22v619h64l359 -501l57 -92h2c-3 37 -5 67 -5 92v440c0 43 18 61 61 61h74v-62h-43c-15 0 -22 -7 -22 -22v-619h-64l-359 501c-15 20 -37 56 -49 77l-9 15h-2c4 -37 6 -67 6 -92v-440c0 -43 -18 -61 -61 -61zM281 755h-52
c0 78 31 117 93 117c58 0 89 -72 126 -72c29 0 41 34 41 69h52c0 -78 -31 -117 -93 -117c-60 -3 -89 74 -127 71c-27 0 -40 -23 -40 -68z" />
    <glyph glyph-name="Ograve" unicode="&#xd2;" horiz-adv-x="791" 
d="M38 356c0 101 35 186 104 255s154 104 254 104s185 -35 254 -104s104 -154 104 -255c0 -103 -35 -190 -105 -261c-69 -71 -154 -107 -253 -107c-100 0 -185 36 -254 107s-104 158 -104 261zM111 356c0 -85 28 -156 83 -215c55 -58 123 -87 202 -87s146 29 201 87
c56 59 84 130 84 215c0 83 -28 152 -83 208c-55 57 -123 85 -202 85s-147 -28 -202 -85c-55 -56 -83 -125 -83 -208zM422 752h-59l-87 119h76z" />
    <glyph glyph-name="Oacute" unicode="&#xd3;" horiz-adv-x="791" 
d="M38 356c0 101 35 186 104 255s154 104 254 104s185 -35 254 -104s104 -154 104 -255c0 -103 -35 -190 -105 -261c-69 -71 -154 -107 -253 -107c-100 0 -185 36 -254 107s-104 158 -104 261zM111 356c0 -85 28 -156 83 -215c55 -58 123 -87 202 -87s146 29 201 87
c56 59 84 130 84 215c0 83 -28 152 -83 208c-55 57 -123 85 -202 85s-147 -28 -202 -85c-55 -56 -83 -125 -83 -208zM421 752h-59l70 119h76z" />
    <glyph glyph-name="Ocircumflex" unicode="&#xd4;" horiz-adv-x="791" 
d="M337 752h-63l83 119h70l83 -119h-63l-54 81h-2zM38 356c0 101 35 186 104 255s154 104 254 104s185 -35 254 -104s104 -154 104 -255c0 -103 -35 -190 -105 -261c-69 -71 -154 -107 -253 -107c-100 0 -185 36 -254 107s-104 158 -104 261zM111 356c0 -85 28 -156 83 -215
c55 -58 123 -87 202 -87s146 29 201 87c56 59 84 130 84 215c0 83 -28 152 -83 208c-55 57 -123 85 -202 85s-147 -28 -202 -85c-55 -56 -83 -125 -83 -208z" />
    <glyph glyph-name="Otilde" unicode="&#xd5;" horiz-adv-x="791" 
d="M287 755h-52c0 78 31 117 93 117c58 0 89 -72 126 -72c29 0 41 34 41 69h52c0 -78 -31 -117 -93 -117c-60 -3 -89 74 -127 71c-27 0 -40 -23 -40 -68zM38 356c0 101 35 186 104 255s154 104 254 104s185 -35 254 -104s104 -154 104 -255c0 -103 -35 -190 -105 -261
c-69 -71 -154 -107 -253 -107c-100 0 -185 36 -254 107s-104 158 -104 261zM111 356c0 -85 28 -156 83 -215c55 -58 123 -87 202 -87s146 29 201 87c56 59 84 130 84 215c0 83 -28 152 -83 208c-55 57 -123 85 -202 85s-147 -28 -202 -85c-55 -56 -83 -125 -83 -208z" />
    <glyph glyph-name="Odieresis" unicode="&#xd6;" horiz-adv-x="791" 
d="M38 356c0 101 35 186 104 255s154 104 254 104s185 -35 254 -104s104 -154 104 -255c0 -103 -35 -190 -105 -261c-69 -71 -154 -107 -253 -107c-100 0 -185 36 -254 107s-104 158 -104 261zM111 356c0 -85 28 -156 83 -215c55 -58 123 -87 202 -87s146 29 201 87
c56 59 84 130 84 215c0 83 -28 152 -83 208c-55 57 -123 85 -202 85s-147 -28 -202 -85c-55 -56 -83 -125 -83 -208zM497 785h-59v86h59v-86zM347 785h-59v86h59v-86z" />
    <glyph glyph-name="multiply" unicode="&#xd7;" 
d="M70 0l-41 41l215 243l-215 243l41 41l214 -241l214 241l41 -41l-217 -243l217 -243l-41 -41l-214 241z" />
    <glyph glyph-name="Oslash" unicode="&#xd8;" horiz-adv-x="791" 
d="M156 -24l-42 29l50 69c-79 68 -126 170 -126 282c0 101 35 186 104 255s154 104 254 104c68 0 131 -18 188 -54l48 67l42 -30l-48 -66c80 -68 128 -165 128 -276c0 -103 -35 -190 -105 -261c-69 -71 -154 -107 -253 -107c-71 0 -135 19 -191 56zM205 131l340 475
c-45 29 -95 43 -149 43c-79 0 -147 -28 -202 -85c-55 -56 -83 -125 -83 -208c0 -91 31 -166 94 -225zM584 574l-340 -475c47 -30 98 -45 152 -45c79 0 146 29 201 87c56 59 84 130 84 215c0 89 -32 161 -97 218z" />
    <glyph glyph-name="Ugrave" unicode="&#xd9;" horiz-adv-x="707" 
d="M93 241v378c0 15 -7 22 -22 22h-43v62h74c43 0 61 -18 61 -61v-398c0 -116 74 -190 190 -190s190 73 190 192v396c0 43 18 61 61 61h74v-62h-43c-15 0 -22 -7 -22 -22v-378c0 -76 -24 -137 -72 -184c-47 -46 -110 -69 -187 -69c-78 0 -141 23 -189 69
c-48 47 -72 108 -72 184zM375 752h-59l-87 119h76z" />
    <glyph glyph-name="Uacute" unicode="&#xda;" horiz-adv-x="707" 
d="M93 241v378c0 15 -7 22 -22 22h-43v62h74c43 0 61 -18 61 -61v-398c0 -116 74 -190 190 -190s190 73 190 192v396c0 43 18 61 61 61h74v-62h-43c-15 0 -22 -7 -22 -22v-378c0 -76 -24 -137 -72 -184c-47 -46 -110 -69 -187 -69c-78 0 -141 23 -189 69
c-48 47 -72 108 -72 184zM383 752h-59l70 119h76z" />
    <glyph glyph-name="Ucircumflex" unicode="&#xdb;" horiz-adv-x="707" 
d="M93 241v378c0 15 -7 22 -22 22h-43v62h74c43 0 61 -18 61 -61v-398c0 -116 74 -190 190 -190s190 73 190 192v396c0 43 18 61 61 61h74v-62h-43c-15 0 -22 -7 -22 -22v-378c0 -76 -24 -137 -72 -184c-47 -46 -110 -69 -187 -69c-78 0 -141 23 -189 69
c-48 47 -72 108 -72 184zM299 752h-63l83 119h70l83 -119h-63l-54 81h-2z" />
    <glyph glyph-name="Udieresis" unicode="&#xdc;" horiz-adv-x="707" 
d="M93 241v378c0 15 -7 22 -22 22h-43v62h74c43 0 61 -18 61 -61v-398c0 -116 74 -190 190 -190s190 73 190 192v396c0 43 18 61 61 61h74v-62h-43c-15 0 -22 -7 -22 -22v-378c0 -76 -24 -137 -72 -184c-47 -46 -110 -69 -187 -69c-78 0 -141 23 -189 69
c-48 47 -72 108 -72 184zM459 785h-59v86h59v-86zM309 785h-59v86h59v-86z" />
    <glyph glyph-name="Yacute" unicode="&#xdd;" horiz-adv-x="595" 
d="M333 0h-70v306l-189 309c-10 17 -25 26 -46 26h-16v62h26c25 0 44 -3 56 -10c13 -7 26 -22 40 -46l120 -199l43 -79h2c14 28 28 54 43 79l119 199c15 24 28 39 40 46s31 10 56 10h27v-62h-16c-21 0 -37 -9 -47 -26l-188 -309v-306zM327 752h-59l70 119h76z" />
    <glyph glyph-name="Thorn" unicode="&#xde;" horiz-adv-x="575" 
d="M173 0h-70v619c0 15 -7 22 -22 22h-43v62h74c43 0 61 -18 61 -61v-64h162c63 0 115 -19 156 -58s61 -90 61 -155c0 -64 -21 -116 -62 -155s-93 -59 -157 -59h-160v-151zM173 516v-303h153c93 0 154 57 154 152s-60 151 -153 151h-154z" />
    <glyph glyph-name="germandbls" unicode="&#xdf;" horiz-adv-x="570" 
d="M94 0h-69v59h40c15 0 22 7 22 22v450c0 57 20 101 60 134c41 33 88 50 142 50c52 0 94 -15 126 -44s48 -64 48 -105c0 -44 -28 -86 -56 -109c-27 -23 -55 -53 -55 -80s30 -53 69 -80c56 -37 127 -87 127 -166c0 -45 -16 -81 -48 -106c-31 -25 -69 -37 -114 -37
c-57 0 -115 24 -138 44l-18 14l26 53c4 -4 10 -9 17 -14s22 -13 44 -22s43 -14 64 -14c56 0 97 28 97 84c0 44 -49 88 -98 116c-49 29 -98 77 -98 126c0 37 28 74 56 97c28 24 56 58 56 93c0 47 -40 89 -108 89c-35 0 -65 -12 -92 -35c-26 -23 -39 -54 -39 -93v-465
c0 -43 -18 -61 -61 -61z" />
    <glyph glyph-name="agrave" unicode="&#xe0;" horiz-adv-x="514" 
d="M31 135c0 117 103 175 308 175h28v7c0 103 -36 141 -129 141c-21 0 -43 -3 -65 -10s-33 -18 -33 -34v-32h-66v48c0 32 29 58 66 69c37 12 70 16 97 16c75 0 126 -17 155 -51c29 -33 43 -81 43 -142v-241c0 -15 7 -22 22 -22h42v-59h-69c-43 0 -60 19 -60 59l1 38h-2
c2 0 -44 -109 -168 -109c-46 0 -86 13 -120 39c-33 26 -50 62 -50 108zM100 141c0 -51 42 -96 113 -96c46 0 83 19 111 58c29 39 43 82 43 130v23h-29c-56 0 -88 -2 -147 -15c-57 -13 -91 -48 -91 -100zM280 585h-59l-87 119h76z" />
    <glyph glyph-name="aacute" unicode="&#xe1;" horiz-adv-x="514" 
d="M31 135c0 117 103 175 308 175h28v7c0 103 -36 141 -129 141c-21 0 -43 -3 -65 -10s-33 -18 -33 -34v-32h-66v48c0 32 29 58 66 69c37 12 70 16 97 16c75 0 126 -17 155 -51c29 -33 43 -81 43 -142v-241c0 -15 7 -22 22 -22h42v-59h-69c-43 0 -60 19 -60 59l1 38h-2
c2 0 -44 -109 -168 -109c-46 0 -86 13 -120 39c-33 26 -50 62 -50 108zM100 141c0 -51 42 -96 113 -96c46 0 83 19 111 58c29 39 43 82 43 130v23h-29c-56 0 -88 -2 -147 -15c-57 -13 -91 -48 -91 -100zM280 585h-59l70 119h76z" />
    <glyph glyph-name="acircumflex" unicode="&#xe2;" horiz-adv-x="514" 
d="M31 135c0 117 103 175 308 175h28v7c0 103 -36 141 -129 141c-21 0 -43 -3 -65 -10s-33 -18 -33 -34v-32h-66v48c0 32 29 58 66 69c37 12 70 16 97 16c75 0 126 -17 155 -51c29 -33 43 -81 43 -142v-241c0 -15 7 -22 22 -22h42v-59h-69c-43 0 -60 19 -60 59l1 38h-2
c2 0 -44 -109 -168 -109c-46 0 -86 13 -120 39c-33 26 -50 62 -50 108zM100 141c0 -51 42 -96 113 -96c46 0 83 19 111 58c29 39 43 82 43 130v23h-29c-56 0 -88 -2 -147 -15c-57 -13 -91 -48 -91 -100zM196 585h-63l83 119h70l83 -119h-63l-54 81h-2z" />
    <glyph glyph-name="atilde" unicode="&#xe3;" horiz-adv-x="514" 
d="M31 135c0 117 103 175 308 175h28v7c0 103 -36 141 -129 141c-21 0 -43 -3 -65 -10s-33 -18 -33 -34v-32h-66v48c0 32 29 58 66 69c37 12 70 16 97 16c75 0 126 -17 155 -51c29 -33 43 -81 43 -142v-241c0 -15 7 -22 22 -22h42v-59h-69c-43 0 -60 19 -60 59l1 38h-2
c2 0 -44 -109 -168 -109c-46 0 -86 13 -120 39c-33 26 -50 62 -50 108zM100 141c0 -51 42 -96 113 -96c46 0 83 19 111 58c29 39 43 82 43 130v23h-29c-56 0 -88 -2 -147 -15c-57 -13 -91 -48 -91 -100zM145 588h-52c0 78 31 117 93 117c58 0 89 -72 126 -72
c29 0 41 34 41 69h52c0 -78 -31 -117 -93 -117c-68 0 -82 71 -127 71c-27 0 -40 -23 -40 -68z" />
    <glyph glyph-name="adieresis" unicode="&#xe4;" horiz-adv-x="514" 
d="M31 135c0 117 103 175 308 175h28v7c0 103 -36 141 -129 141c-21 0 -43 -3 -65 -10s-33 -18 -33 -34v-32h-66v48c0 32 29 58 66 69c37 12 70 16 97 16c75 0 126 -17 155 -51c29 -33 43 -81 43 -142v-241c0 -15 7 -22 22 -22h42v-59h-69c-43 0 -60 19 -60 59l1 38h-2
c2 0 -44 -109 -168 -109c-46 0 -86 13 -120 39c-33 26 -50 62 -50 108zM100 141c0 -51 42 -96 113 -96c46 0 83 19 111 58c29 39 43 82 43 130v23h-29c-56 0 -88 -2 -147 -15c-57 -13 -91 -48 -91 -100zM357 618h-59v86h59v-86zM207 618h-59v86h59v-86z" />
    <glyph glyph-name="aring" unicode="&#xe5;" horiz-adv-x="514" 
d="M31 135c0 117 103 175 308 175h28v7c0 103 -36 141 -129 141c-21 0 -43 -3 -65 -10s-33 -18 -33 -34v-32h-66v48c0 32 29 58 66 69c37 12 70 16 97 16c75 0 126 -17 155 -51c29 -33 43 -81 43 -142v-241c0 -15 7 -22 22 -22h42v-59h-69c-43 0 -60 19 -60 59l1 38h-2
c2 0 -44 -109 -168 -109c-46 0 -86 13 -120 39c-33 26 -50 62 -50 108zM100 141c0 -51 42 -96 113 -96c46 0 83 19 111 58c29 39 43 82 43 130v23h-29c-56 0 -88 -2 -147 -15c-57 -13 -91 -48 -91 -100zM303 594c-28 -27 -76 -27 -105 0c-28 27 -28 75 0 102
c29 27 77 27 105 0c29 -27 29 -75 0 -102zM251 612c19 0 33 14 33 33c0 44 -66 44 -66 0c0 -19 13 -33 33 -33z" />
    <glyph glyph-name="ae" unicode="&#xe6;" horiz-adv-x="850" 
d="M32 137c-4 80 51 124 107 145c19 8 41 13 66 16c52 7 79 8 127 8h35v12c0 103 -37 140 -129 140c-21 0 -43 -3 -65 -10s-33 -18 -33 -34v-32h-65v48c0 28 17 49 51 63c34 15 72 22 113 22c94 0 152 -35 174 -104h2c41 69 104 104 189 104c65 0 117 -22 154 -66
c37 -43 56 -98 56 -163l-3 -34h-378c3 -129 79 -202 188 -202c53 0 110 25 133 46l18 15l32 -52c-4 -4 -8 -8 -33 -25c-32 -21 -85 -46 -153 -46c-103 0 -183 52 -222 140h-2c-5 -19 -18 -44 -46 -79s-80 -61 -143 -61c-49 0 -90 13 -123 39c-33 27 -50 63 -50 110zM437 306
h306c-4 99 -65 151 -141 151c-87 0 -149 -54 -165 -151zM102 141c0 -53 42 -96 113 -96c45 0 82 19 110 58s42 83 42 131v18h-58c-53 0 -87 -2 -134 -17c-47 -13 -73 -46 -73 -94z" />
    <glyph glyph-name="ccedilla" unicode="&#xe7;" horiz-adv-x="526" 
d="M37 251c0 77 25 140 76 189c51 50 114 75 189 75c23 0 48 -3 73 -9c25 -5 49 -17 72 -34s34 -39 34 -64v-45h-64v29c0 19 -13 34 -38 45s-51 17 -77 17c-55 0 -102 -19 -139 -57c-37 -37 -56 -86 -56 -146s19 -109 57 -146c39 -37 86 -55 141 -55c60 0 120 29 144 53
l18 18l31 -51c-4 -4 -7 -9 -32 -28c-33 -24 -88 -54 -167 -54l-8 -43c43 -7 70 -32 70 -71c0 -55 -41 -79 -96 -79l-49 5v48c13 -4 26 -6 41 -6c34 0 51 11 51 34s-19 34 -57 34l-15 -1l20 83c-65 9 -117 37 -158 84s-61 106 -61 175z" />
    <glyph glyph-name="egrave" unicode="&#xe8;" horiz-adv-x="533" 
d="M37 251c0 80 24 144 71 192c48 48 107 72 178 72c67 0 118 -22 155 -67c37 -44 55 -99 55 -165c0 -11 -2 -33 -2 -34h-386c1 -62 20 -111 57 -146s83 -53 138 -53c87 -1 145 57 153 60l31 -52c-62 -47 -124 -70 -186 -70c-75 0 -138 25 -189 74c-50 49 -75 112 -75 189z
M111 303h316c-4 100 -63 156 -143 156c-87 0 -157 -57 -173 -156zM327 556h-59l-87 119h76z" />
    <glyph glyph-name="eacute" unicode="&#xe9;" horiz-adv-x="533" 
d="M37 251c0 80 24 144 71 192c48 48 107 72 178 72c67 0 118 -22 155 -67c37 -44 55 -99 55 -165c0 -11 -2 -33 -2 -34h-386c1 -62 20 -111 57 -146s83 -53 138 -53c87 -1 145 57 153 60l31 -52c-62 -47 -124 -70 -186 -70c-75 0 -138 25 -189 74c-50 49 -75 112 -75 189z
M111 303h316c-4 100 -63 156 -143 156c-87 0 -157 -57 -173 -156zM311 585h-59l70 119h76z" />
    <glyph glyph-name="ecircumflex" unicode="&#xea;" horiz-adv-x="533" 
d="M37 251c0 80 24 144 71 192c48 48 107 72 178 72c67 0 118 -22 155 -67c37 -44 55 -99 55 -165c0 -11 -2 -33 -2 -34h-386c1 -62 20 -111 57 -146s83 -53 138 -53c87 -1 145 57 153 60l31 -52c-62 -47 -124 -70 -186 -70c-75 0 -138 25 -189 74c-50 49 -75 112 -75 189z
M111 303h316c-4 100 -63 156 -143 156c-87 0 -157 -57 -173 -156zM227 585h-63l83 119h70l83 -119h-63l-54 81h-2z" />
    <glyph glyph-name="edieresis" unicode="&#xeb;" horiz-adv-x="533" 
d="M37 251c0 80 24 144 71 192c48 48 107 72 178 72c67 0 118 -22 155 -67c37 -44 55 -99 55 -165c0 -11 -2 -33 -2 -34h-386c1 -62 20 -111 57 -146s83 -53 138 -53c87 -1 145 57 153 60l31 -52c-62 -47 -124 -70 -186 -70c-75 0 -138 25 -189 74c-50 49 -75 112 -75 189z
M111 303h316c-4 100 -63 156 -143 156c-87 0 -157 -57 -173 -156zM387 618h-59v86h59v-86zM237 618h-59v86h59v-86z" />
    <glyph glyph-name="igrave" unicode="&#xec;" horiz-adv-x="240" 
d="M86 61v361c0 15 -7 22 -22 22h-42v59h71c43 0 61 -18 61 -61v-361c0 -15 7 -22 22 -22h42v-59h-71c-43 0 -61 18 -61 61zM142 584h-59l-87 119h76z" />
    <glyph glyph-name="iacute" unicode="&#xed;" horiz-adv-x="240" 
d="M142 584h-59l69 119h76zM86 61v361c0 15 -7 22 -22 22h-42v59h71c43 0 61 -18 61 -61v-361c0 -15 7 -22 22 -22h42v-59h-71c-43 0 -61 18 -61 61z" />
    <glyph glyph-name="icircumflex" unicode="&#xee;" horiz-adv-x="240" 
d="M58 584h-64l84 119h69l84 -119h-63l-54 81h-2zM86 61v361c0 15 -7 22 -22 22h-42v59h71c43 0 61 -18 61 -61v-361c0 -15 7 -22 22 -22h42v-59h-71c-43 0 -61 18 -61 61z" />
    <glyph glyph-name="idieresis" unicode="&#xef;" horiz-adv-x="240" 
d="M203 617h-59v86h59v-86zM78 617h-59v86h59v-86zM86 61v361c0 15 -7 22 -22 22h-42v59h71c43 0 61 -18 61 -61v-361c0 -15 7 -22 22 -22h42v-59h-71c-43 0 -61 18 -61 61z" />
    <glyph glyph-name="eth" unicode="&#xf0;" horiz-adv-x="558" 
d="M38 232c0 64 21 119 63 165c43 47 101 70 176 70c57 0 110 -22 129 -41l15 -13h2c-23 65 -64 118 -124 159l-176 -80l-14 48l136 63c-43 22 -90 39 -142 51l19 58c77 -19 143 -44 197 -77l131 59l13 -48l-97 -45c101 -79 151 -188 151 -328c0 -133 -73 -285 -248 -285
c-71 0 -127 24 -169 73c-41 49 -62 106 -62 171zM108 231c0 -49 15 -92 44 -128s69 -54 119 -54c57 0 101 21 131 64s45 92 45 147c0 43 -15 79 -45 107s-69 42 -118 42c-57 0 -100 -18 -131 -53c-30 -35 -45 -76 -45 -125z" />
    <glyph glyph-name="ntilde" unicode="&#xf1;" horiz-adv-x="607" 
d="M156 0h-68v422c0 15 -7 22 -22 22h-42v59h69c41 0 61 -19 61 -56v-23l-2 -36h2c13 31 36 59 70 86c35 27 78 41 131 41c121 0 169 -66 169 -195v-239c0 -15 7 -22 22 -22h42v-59h-71c-43 0 -61 18 -61 61v241c0 95 -22 149 -110 149c-43 0 -81 -13 -115 -40
c-33 -26 -56 -60 -67 -102c-5 -19 -8 -41 -8 -68v-241zM211 588h-52c0 78 31 117 93 117c58 0 89 -72 126 -72c29 0 41 34 41 69h52c0 -78 -31 -117 -93 -117c-68 0 -82 71 -127 71c-27 0 -40 -23 -40 -68z" />
    <glyph glyph-name="ograve" unicode="&#xf2;" horiz-adv-x="604" 
d="M37 254c0 74 26 136 77 186s114 75 188 75s137 -25 188 -75s77 -112 77 -186c0 -75 -26 -139 -77 -190s-114 -76 -188 -76s-137 25 -188 76s-77 115 -77 190zM106 254c0 -58 19 -107 57 -146s84 -59 139 -59s101 20 139 59s57 88 57 146c0 57 -19 104 -57 142
c-38 39 -84 58 -139 58s-101 -19 -139 -58c-38 -38 -57 -85 -57 -142zM331 585h-59l-87 119h76z" />
    <glyph glyph-name="oacute" unicode="&#xf3;" horiz-adv-x="604" 
d="M37 254c0 74 26 136 77 186s114 75 188 75s137 -25 188 -75s77 -112 77 -186c0 -75 -26 -139 -77 -190s-114 -76 -188 -76s-137 25 -188 76s-77 115 -77 190zM106 254c0 -58 19 -107 57 -146s84 -59 139 -59s101 20 139 59s57 88 57 146c0 57 -19 104 -57 142
c-38 39 -84 58 -139 58s-101 -19 -139 -58c-38 -38 -57 -85 -57 -142zM331 585h-59l70 119h76z" />
    <glyph glyph-name="ocircumflex" unicode="&#xf4;" horiz-adv-x="604" 
d="M247 585h-63l83 119h70l83 -119h-63l-54 81h-2zM37 254c0 74 26 136 77 186s114 75 188 75s137 -25 188 -75s77 -112 77 -186c0 -75 -26 -139 -77 -190s-114 -76 -188 -76s-137 25 -188 76s-77 115 -77 190zM106 254c0 -58 19 -107 57 -146s84 -59 139 -59s101 20 139 59
s57 88 57 146c0 57 -19 104 -57 142c-38 39 -84 58 -139 58s-101 -19 -139 -58c-38 -38 -57 -85 -57 -142z" />
    <glyph glyph-name="otilde" unicode="&#xf5;" horiz-adv-x="604" 
d="M37 254c0 74 26 136 77 186s114 75 188 75s137 -25 188 -75s77 -112 77 -186c0 -75 -26 -139 -77 -190s-114 -76 -188 -76s-137 25 -188 76s-77 115 -77 190zM106 254c0 -58 19 -107 57 -146s84 -59 139 -59s101 20 139 59s57 88 57 146c0 57 -19 104 -57 142
c-38 39 -84 58 -139 58s-101 -19 -139 -58c-38 -38 -57 -85 -57 -142zM196 588h-52c0 78 31 117 93 117c58 0 89 -72 126 -72c29 0 41 34 41 69h52c0 -78 -31 -117 -93 -117c-68 0 -82 71 -127 71c-27 0 -40 -23 -40 -68z" />
    <glyph glyph-name="odieresis" unicode="&#xf6;" horiz-adv-x="604" 
d="M37 254c0 74 26 136 77 186s114 75 188 75s137 -25 188 -75s77 -112 77 -186c0 -75 -26 -139 -77 -190s-114 -76 -188 -76s-137 25 -188 76s-77 115 -77 190zM106 254c0 -58 19 -107 57 -146s84 -59 139 -59s101 20 139 59s57 88 57 146c0 57 -19 104 -57 142
c-38 39 -84 58 -139 58s-101 -19 -139 -58c-38 -38 -57 -85 -57 -142zM407 618h-59v86h59v-86zM257 618h-59v86h59v-86z" />
    <glyph glyph-name="divide" unicode="&#xf7;" 
d="M320 433h-75v74h75v-74zM528 255h-490v58h490v-58zM320 61h-75v74h75v-74z" />
    <glyph glyph-name="oslash" unicode="&#xf8;" horiz-adv-x="604" 
d="M135 -33l-40 30l36 51c-63 52 -94 121 -94 206c0 74 26 136 77 186s114 75 188 75c50 0 96 -12 137 -37l39 55l40 -30l-39 -54c59 -51 88 -116 88 -195c0 -75 -26 -139 -77 -190s-114 -76 -188 -76c-47 0 -90 11 -129 32zM170 102l231 324c-32 19 -65 28 -99 28
c-55 0 -101 -19 -139 -58c-38 -38 -57 -85 -57 -142c0 -61 21 -111 64 -152zM440 394l-229 -321c29 -16 59 -24 91 -24c55 0 101 20 139 59s57 88 57 146c0 55 -19 101 -58 140z" />
    <glyph glyph-name="ugrave" unicode="&#xf9;" horiz-adv-x="601" 
d="M82 183v239c0 15 -7 22 -22 22h-42v59h71c43 0 61 -18 61 -59v-243c0 -95 22 -149 110 -149c55 0 100 21 134 62c35 41 52 91 52 148v241h68v-422c0 -15 7 -22 22 -22h42v-59h-70c-41 0 -61 19 -61 56v23l2 36h-2c-12 -31 -35 -60 -70 -87c-34 -27 -76 -40 -126 -40
c-117 0 -169 63 -169 195zM321 585h-59l-87 119h76z" />
    <glyph glyph-name="uacute" unicode="&#xfa;" horiz-adv-x="601" 
d="M82 183v239c0 15 -7 22 -22 22h-42v59h71c43 0 61 -18 61 -59v-243c0 -95 22 -149 110 -149c55 0 100 21 134 62c35 41 52 91 52 148v241h68v-422c0 -15 7 -22 22 -22h42v-59h-70c-41 0 -61 19 -61 56v23l2 36h-2c-12 -31 -35 -60 -70 -87c-34 -27 -76 -40 -126 -40
c-117 0 -169 63 -169 195zM321 585h-59l70 119h76z" />
    <glyph glyph-name="ucircumflex" unicode="&#xfb;" horiz-adv-x="601" 
d="M82 183v239c0 15 -7 22 -22 22h-42v59h71c43 0 61 -18 61 -59v-243c0 -95 22 -149 110 -149c55 0 100 21 134 62c35 41 52 91 52 148v241h68v-422c0 -15 7 -22 22 -22h42v-59h-70c-41 0 -61 19 -61 56v23l2 36h-2c-12 -31 -35 -60 -70 -87c-34 -27 -76 -40 -126 -40
c-117 0 -169 63 -169 195zM237 585h-63l83 119h70l83 -119h-63l-54 81h-2z" />
    <glyph glyph-name="udieresis" unicode="&#xfc;" horiz-adv-x="601" 
d="M82 183v239c0 15 -7 22 -22 22h-42v59h71c43 0 61 -18 61 -59v-243c0 -95 22 -149 110 -149c55 0 100 21 134 62c35 41 52 91 52 148v241h68v-422c0 -15 7 -22 22 -22h42v-59h-70c-41 0 -61 19 -61 56v23l2 36h-2c-12 -31 -35 -60 -70 -87c-34 -27 -76 -40 -126 -40
c-117 0 -169 63 -169 195zM397 618h-59v86h59v-86zM247 618h-59v86h59v-86z" />
    <glyph glyph-name="yacute" unicode="&#xfd;" horiz-adv-x="533" 
d="M4 -161l32 49c21 -25 46 -37 75 -37c39 0 70 27 93 82l30 69l-177 419c-7 15 -18 23 -35 23h-10v59h31c45 0 60 -10 77 -55l129 -314l18 -54h2c5 19 10 37 17 54l124 314c17 45 31 55 78 55h31v-59h-10c-17 0 -29 -8 -35 -23l-217 -526c-27 -65 -79 -105 -144 -105
c-41 0 -82 20 -97 36zM292 585h-59l70 119h76z" />
    <glyph glyph-name="thorn" unicode="&#xfe;" horiz-adv-x="571" 
d="M142 -200h-68v822c0 15 -7 22 -22 22h-42v59h71c43 0 61 -18 61 -61v-179l-2 -44h2c33 64 89 96 169 96c68 0 122 -24 161 -73c40 -48 60 -111 60 -190s-20 -142 -60 -191c-39 -49 -93 -73 -161 -73c-101 0 -151 60 -164 84l-5 10h-2c1 -12 2 -27 2 -44v-238zM304 49
c95 0 158 80 158 203c0 61 -15 109 -44 146s-67 56 -114 56c-96 0 -164 -64 -164 -203s71 -202 164 -202z" />
    <glyph glyph-name="ydieresis" unicode="&#xff;" horiz-adv-x="533" 
d="M4 -161l32 49c21 -25 46 -37 75 -37c39 0 70 27 93 82l30 69l-177 419c-7 15 -18 23 -35 23h-10v59h31c45 0 60 -10 77 -55l129 -314l18 -54h2c5 19 10 37 17 54l124 314c17 45 31 55 78 55h31v-59h-10c-17 0 -29 -8 -35 -23l-217 -526c-27 -65 -79 -105 -144 -105
c-41 0 -82 20 -97 36zM368 618h-59v86h59v-86zM218 618h-59v86h59v-86z" />
    <glyph glyph-name="Amacron" unicode="&#x100;" horiz-adv-x="656" 
d="M44 0h-32v62h12c19 0 31 7 36 22l230 619h75l230 -619c5 -15 17 -22 36 -22h13v-62h-33c-25 0 -43 4 -54 11c-10 7 -19 23 -28 47l-62 166h-279l-61 -166c-17 -48 -32 -58 -83 -58zM300 536l-92 -251h241l-93 251l-28 91h-2c-10 -39 -19 -69 -26 -91zM451 785h-246v54
h246v-54z" />
    <glyph glyph-name="amacron" unicode="&#x101;" horiz-adv-x="514" 
d="M31 135c0 117 103 175 308 175h28v7c0 103 -36 141 -129 141c-21 0 -43 -3 -65 -10s-33 -18 -33 -34v-32h-66v48c0 32 29 58 66 69c37 12 70 16 97 16c75 0 126 -17 155 -51c29 -33 43 -81 43 -142v-241c0 -15 7 -22 22 -22h42v-59h-69c-43 0 -60 19 -60 59l1 38h-2
c2 0 -44 -109 -168 -109c-46 0 -86 13 -120 39c-33 26 -50 62 -50 108zM100 141c0 -51 42 -96 113 -96c46 0 83 19 111 58c29 39 43 82 43 130v23h-29c-56 0 -88 -2 -147 -15c-57 -13 -91 -48 -91 -100zM374 618h-246v54h246v-54z" />
    <glyph glyph-name="Abreve" unicode="&#x102;" horiz-adv-x="656" 
d="M44 0h-32v62h12c19 0 31 7 36 22l230 619h75l230 -619c5 -15 17 -22 36 -22h13v-62h-33c-25 0 -43 4 -54 11c-10 7 -19 23 -28 47l-62 166h-279l-61 -166c-17 -48 -32 -58 -83 -58zM300 536l-92 -251h241l-93 251l-28 91h-2c-10 -39 -19 -69 -26 -91zM214 856v15h52v-13
c0 -41 26 -62 62 -62c35 0 61 21 61 62v13h52v-15c0 -67 -52 -107 -113 -107s-114 40 -114 107z" />
    <glyph glyph-name="abreve" unicode="&#x103;" horiz-adv-x="514" 
d="M31 135c0 117 103 175 308 175h28v7c0 103 -36 141 -129 141c-21 0 -43 -3 -65 -10s-33 -18 -33 -34v-32h-66v48c0 32 29 58 66 69c37 12 70 16 97 16c75 0 126 -17 155 -51c29 -33 43 -81 43 -142v-241c0 -15 7 -22 22 -22h42v-59h-69c-43 0 -60 19 -60 59l1 38h-2
c2 0 -44 -109 -168 -109c-46 0 -86 13 -120 39c-33 26 -50 62 -50 108zM100 141c0 -51 42 -96 113 -96c46 0 83 19 111 58c29 39 43 82 43 130v23h-29c-56 0 -88 -2 -147 -15c-57 -13 -91 -48 -91 -100zM137 689v15h52v-13c0 -41 26 -62 62 -62c35 0 61 21 61 62v13h52v-15
c0 -67 -52 -107 -113 -107s-114 40 -114 107z" />
    <glyph glyph-name="Aogonek" unicode="&#x104;" horiz-adv-x="656" 
d="M44 0h-32v62h12c19 0 31 7 36 22l230 619h75l230 -619c5 -15 17 -22 36 -22h13v-62c-49 -37 -73 -70 -73 -99c0 -27 26 -44 47 -47l15 -3l-15 -56c-5 0 -13 0 -38 8c-33 10 -72 33 -72 84c0 43 23 81 70 115v2c-27 5 -37 18 -49 54l-62 166h-279l-61 -166
c-17 -48 -32 -58 -83 -58zM300 536l-92 -251h241l-93 251l-28 91h-2c-10 -39 -19 -69 -26 -91z" />
    <glyph glyph-name="aogonek" unicode="&#x105;" horiz-adv-x="514" 
d="M31 137c0 115 103 173 309 173h27v7c0 103 -37 141 -129 141c-21 0 -43 -3 -65 -10s-33 -18 -33 -34v-32h-66v48c0 32 29 58 66 69c39 12 71 16 98 16c74 0 125 -17 154 -51s43 -81 43 -142v-241c0 -15 7 -22 22 -22h42v-59c-49 -37 -73 -70 -73 -99c0 -27 27 -44 48 -47
l15 -3l-16 -56c-5 0 -13 0 -38 8c-33 10 -72 33 -72 84c0 41 22 78 66 111v2h-10c-33 0 -49 19 -49 56v7l1 34h-2c-28 -61 -82 -109 -165 -109c-47 0 -88 13 -122 39c-34 27 -51 63 -51 110zM101 141c0 -51 41 -96 112 -96c46 0 83 19 111 58c29 39 43 83 43 130v23h-28
c-18 0 -33 0 -46 -1c-25 -1 -75 -4 -104 -15c-46 -15 -88 -41 -88 -99z" />
    <glyph glyph-name="Cacute" unicode="&#x106;" horiz-adv-x="693" 
d="M39 357c0 101 33 186 99 255c67 69 149 103 248 103c37 0 75 -5 113 -14s72 -26 103 -50c31 -23 47 -52 47 -85v-58h-66v39c0 31 -21 55 -63 74s-86 28 -132 28c-79 0 -144 -28 -197 -83s-79 -124 -79 -209s27 -156 80 -215s120 -88 199 -88c117 -1 192 64 221 89l9 10
l40 -51c-5 -7 -10 -13 -45 -40c-17 -13 -36 -24 -56 -34c-39 -20 -105 -40 -170 -40c-102 0 -186 35 -252 106s-99 159 -99 263zM412 752h-59l70 119h76z" />
    <glyph glyph-name="cacute" unicode="&#x107;" horiz-adv-x="524" 
d="M37 251c0 77 25 140 75 189c51 50 114 75 189 75c23 0 48 -3 73 -9c25 -5 49 -17 72 -34s34 -39 34 -64v-45h-63v29c0 19 -13 34 -39 45c-25 11 -51 17 -77 17c-55 0 -102 -19 -139 -57c-37 -37 -56 -86 -56 -146s19 -109 57 -146c39 -37 86 -55 141 -55
c80 0 139 45 156 64l6 7l31 -51c-4 -4 -7 -9 -32 -29c-32 -25 -88 -51 -165 -53c-75 0 -138 24 -188 73s-75 113 -75 190zM316 585h-59l70 119h76z" />
    <glyph glyph-name="Ccircumflex" unicode="&#x108;" horiz-adv-x="693" 
d="M39 357c0 101 33 186 99 255c67 69 149 103 248 103c37 0 75 -5 113 -14s72 -26 103 -50c31 -23 47 -52 47 -85v-58h-66v39c0 31 -21 55 -63 74s-86 28 -132 28c-79 0 -144 -28 -197 -83s-79 -124 -79 -209s27 -156 80 -215s120 -88 199 -88c117 -1 192 64 221 89l9 10
l40 -51c-5 -7 -10 -13 -45 -40c-17 -13 -36 -24 -56 -34c-39 -20 -105 -40 -170 -40c-102 0 -186 35 -252 106s-99 159 -99 263zM328 752h-63l83 119h70l83 -119h-63l-54 81h-2z" />
    <glyph glyph-name="ccircumflex" unicode="&#x109;" horiz-adv-x="524" 
d="M37 251c0 77 25 140 75 189c51 50 114 75 189 75c23 0 48 -3 73 -9c25 -5 49 -17 72 -34s34 -39 34 -64v-45h-63v29c0 19 -13 34 -39 45c-25 11 -51 17 -77 17c-55 0 -102 -19 -139 -57c-37 -37 -56 -86 -56 -146s19 -109 57 -146c39 -37 86 -55 141 -55
c80 0 139 45 156 64l6 7l31 -51c-4 -4 -7 -9 -32 -29c-32 -25 -88 -51 -165 -53c-75 0 -138 24 -188 73s-75 113 -75 190zM232 585h-63l83 119h70l83 -119h-63l-54 81h-2z" />
    <glyph glyph-name="Cdotaccent" unicode="&#x10a;" horiz-adv-x="693" 
d="M39 357c0 101 33 186 99 255c67 69 149 103 248 103c37 0 75 -5 113 -14s72 -26 103 -50c31 -23 47 -52 47 -85v-58h-66v39c0 31 -21 55 -63 74s-86 28 -132 28c-79 0 -144 -28 -197 -83s-79 -124 -79 -209s27 -156 80 -215s120 -88 199 -88c117 -1 192 64 221 89l9 10
l40 -51c-5 -7 -10 -13 -45 -40c-17 -13 -36 -24 -56 -34c-39 -20 -105 -40 -170 -40c-102 0 -186 35 -252 106s-99 159 -99 263zM416 785h-66v86h66v-86z" />
    <glyph glyph-name="cdotaccent" unicode="&#x10b;" horiz-adv-x="524" 
d="M37 251c0 77 25 140 75 189c51 50 114 75 189 75c23 0 48 -3 73 -9c25 -5 49 -17 72 -34s34 -39 34 -64v-45h-63v29c0 19 -13 34 -39 45c-25 11 -51 17 -77 17c-55 0 -102 -19 -139 -57c-37 -37 -56 -86 -56 -146s19 -109 57 -146c39 -37 86 -55 141 -55
c80 0 139 45 156 64l6 7l31 -51c-4 -4 -7 -9 -32 -29c-32 -25 -88 -51 -165 -53c-75 0 -138 24 -188 73s-75 113 -75 190zM320 618h-66v86h66v-86z" />
    <glyph glyph-name="Ccaron" unicode="&#x10c;" horiz-adv-x="693" 
d="M39 357c0 101 33 186 99 255c67 69 149 103 248 103c37 0 75 -5 113 -14s72 -26 103 -50c31 -23 47 -52 47 -85v-58h-66v39c0 31 -21 55 -63 74s-86 28 -132 28c-79 0 -144 -28 -197 -83s-79 -124 -79 -209s27 -156 80 -215s120 -88 199 -88c117 -1 192 64 221 89l9 10
l40 -51c-5 -7 -10 -13 -45 -40c-17 -13 -36 -24 -56 -34c-39 -20 -105 -40 -170 -40c-102 0 -186 35 -252 106s-99 159 -99 263zM417 752h-69l-84 119h64l54 -80h2l54 80h63z" />
    <glyph glyph-name="ccaron" unicode="&#x10d;" horiz-adv-x="524" 
d="M37 251c0 77 25 140 75 189c51 50 114 75 189 75c23 0 48 -3 73 -9c25 -5 49 -17 72 -34s34 -39 34 -64v-45h-63v29c0 19 -13 34 -39 45c-25 11 -51 17 -77 17c-55 0 -102 -19 -139 -57c-37 -37 -56 -86 -56 -146s19 -109 57 -146c39 -37 86 -55 141 -55
c80 0 139 45 156 64l6 7l31 -51c-4 -4 -7 -9 -32 -29c-32 -25 -88 -51 -165 -53c-75 0 -138 24 -188 73s-75 113 -75 190zM321 585h-69l-84 119h64l54 -80h2l54 80h63z" />
    <glyph glyph-name="Dcaron" unicode="&#x10e;" horiz-adv-x="714" 
d="M379 752h-69l-84 119h64l54 -80h2l54 80h63zM102 61v580h-65v62h283c107 0 193 -31 257 -94c64 -62 96 -148 96 -257c0 -111 -32 -197 -96 -259s-150 -93 -257 -93h-157c-43 0 -61 18 -61 61zM172 641v-557c0 -15 7 -22 22 -22h119c176 0 287 105 287 290
c0 184 -111 289 -287 289h-141z" />
    <glyph glyph-name="dcaron" unicode="&#x10f;" horiz-adv-x="584" 
d="M558 702h62c5 -16 7 -32 7 -48c0 -24 -8 -54 -24 -89h-53c13 31 19 58 19 80c0 19 -4 38 -11 57zM265 515c95 0 146 -59 159 -85l5 -9h2c-1 11 -2 24 -2 38v163c0 15 -7 22 -22 22h-42v59h71c43 0 61 -18 61 -61v-561c0 -15 7 -22 22 -22h42v-59h-70c-40 0 -60 19 -60 56
l2 32h-2c-3 -5 -4 -12 -24 -35c-23 -31 -70 -63 -149 -65c-67 0 -120 24 -160 73c-39 49 -59 112 -59 191s21 142 63 190c42 49 96 73 163 73zM268 49c92 0 163 68 163 203c0 55 -14 103 -42 142c-28 40 -67 60 -118 60c-46 0 -85 -18 -116 -55s-47 -86 -47 -147
c0 -123 65 -203 160 -203z" />
    <glyph glyph-name="Dcroat" unicode="&#x110;" horiz-adv-x="716" 
d="M104 61v262h-49v60h49v258h-65v62h283c107 0 193 -31 257 -94c64 -62 96 -148 96 -257c0 -111 -32 -197 -96 -259s-150 -93 -257 -93h-157c-43 0 -61 18 -61 61zM174 323v-239c0 -15 7 -22 22 -22h119c176 0 287 105 287 290c0 184 -111 289 -287 289h-141v-258h165v-60
h-165z" />
    <glyph glyph-name="dslash" unicode="&#x111;" horiz-adv-x="584" 
d="M265 515c95 0 146 -59 159 -85l5 -9h2c-1 11 -2 24 -2 38v107h-131v51h131v86h68v-86h80v-51h-80v-485c0 -15 7 -22 22 -22h42v-59h-70c-40 0 -60 19 -60 56l2 32h-2c-3 -5 -4 -12 -24 -35c-23 -31 -70 -63 -149 -65c-67 0 -120 24 -160 73c-39 49 -59 112 -59 191
s21 142 63 190c42 49 96 73 163 73zM268 49c92 0 163 68 163 203c0 55 -14 103 -42 142c-28 40 -67 60 -118 60c-46 0 -85 -18 -116 -55s-47 -86 -47 -147c0 -123 65 -203 160 -203z" />
    <glyph glyph-name="Emacron" unicode="&#x112;" horiz-adv-x="560" 
d="M102 61v580h-65v62h402c43 0 61 -18 61 -61v-70h-65v47c0 15 -7 22 -22 22h-241v-256h265v-62h-265v-239c0 -15 7 -22 22 -22h248c15 0 22 7 22 22v47h65v-70c0 -43 -18 -61 -61 -61h-305c-43 0 -61 18 -61 61zM413 785h-246v54h246v-54z" />
    <glyph glyph-name="emacron" unicode="&#x113;" horiz-adv-x="533" 
d="M37 251c0 80 24 144 71 192c48 48 107 72 178 72c67 0 118 -22 155 -67c37 -44 55 -99 55 -165c0 -11 -2 -33 -2 -34h-386c1 -62 20 -111 57 -146s83 -53 138 -53c87 -1 145 57 153 60l31 -52c-62 -47 -124 -70 -186 -70c-75 0 -138 25 -189 74c-50 49 -75 112 -75 189z
M111 303h316c-4 100 -63 156 -143 156c-87 0 -157 -57 -173 -156zM405 618h-246v54h246v-54z" />
    <glyph glyph-name="Ebreve" unicode="&#x114;" horiz-adv-x="560" 
d="M102 61v580h-65v62h402c43 0 61 -18 61 -61v-70h-65v47c0 15 -7 22 -22 22h-241v-256h265v-62h-265v-239c0 -15 7 -22 22 -22h248c15 0 22 7 22 22v47h65v-70c0 -43 -18 -61 -61 -61h-305c-43 0 -61 18 -61 61zM176 856v15h52v-13c0 -41 26 -62 62 -62c35 0 61 21 61 62
v13h52v-15c0 -67 -52 -107 -113 -107s-114 40 -114 107z" />
    <glyph glyph-name="ebreve" unicode="&#x115;" horiz-adv-x="533" 
d="M37 251c0 80 24 144 71 192c48 48 107 72 178 72c67 0 118 -22 155 -67c37 -44 55 -99 55 -165c0 -11 -2 -33 -2 -34h-386c1 -62 20 -111 57 -146s83 -53 138 -53c87 -1 145 57 153 60l31 -52c-62 -47 -124 -70 -186 -70c-75 0 -138 25 -189 74c-50 49 -75 112 -75 189z
M111 303h316c-4 100 -63 156 -143 156c-87 0 -157 -57 -173 -156zM168 689v15h52v-13c0 -41 26 -62 62 -62c35 0 61 21 61 62v13h52v-15c0 -67 -52 -107 -113 -107s-114 40 -114 107z" />
    <glyph glyph-name="Edotaccent" unicode="&#x116;" horiz-adv-x="560" 
d="M102 61v580h-65v62h402c43 0 61 -18 61 -61v-70h-65v47c0 15 -7 22 -22 22h-241v-256h265v-62h-265v-239c0 -15 7 -22 22 -22h248c15 0 22 7 22 22v47h65v-70c0 -43 -18 -61 -61 -61h-305c-43 0 -61 18 -61 61zM323 785h-66v86h66v-86z" />
    <glyph glyph-name="edotaccent" unicode="&#x117;" horiz-adv-x="533" 
d="M37 251c0 80 24 144 71 192c48 48 107 72 178 72c67 0 118 -22 155 -67c37 -44 55 -99 55 -165c0 -11 -2 -33 -2 -34h-386c1 -62 20 -111 57 -146s83 -53 138 -53c87 -1 145 57 153 60l31 -52c-62 -47 -124 -70 -186 -70c-75 0 -138 25 -189 74c-50 49 -75 112 -75 189z
M111 303h316c-4 100 -63 156 -143 156c-87 0 -157 -57 -173 -156zM315 618h-66v86h66v-86z" />
    <glyph glyph-name="Eogonek" unicode="&#x118;" horiz-adv-x="560" 
d="M102 61v580h-65v62h402c43 0 61 -18 61 -61v-70h-65v47c0 15 -7 22 -22 22h-241v-256h265v-62h-265v-239c0 -15 7 -22 22 -22h248c15 0 22 7 22 22v47h65v-70c0 -23 -7 -40 -20 -52l-15 -11c-15 -13 -17 -16 -32 -28c-22 -19 -38 -43 -38 -69c0 -27 26 -44 46 -47l16 -3
l-16 -56c-5 0 -13 0 -38 8c-32 10 -71 33 -71 84c0 41 21 78 64 111v2h-262c-43 0 -61 18 -61 61z" />
    <glyph glyph-name="eogonek" unicode="&#x119;" horiz-adv-x="534" 
d="M37 251c0 80 24 144 71 192c48 48 107 72 177 72c67 0 118 -22 155 -67c37 -44 56 -99 56 -165c0 -11 -2 -32 -2 -33h-386c1 -61 20 -110 57 -147c38 -36 84 -54 138 -54c85 0 147 55 153 61l31 -52c-7 -7 -24 -20 -53 -40c-56 -39 -92 -76 -92 -117c0 -27 26 -44 46 -47
l16 -3l-15 -56c-5 0 -13 0 -38 8c-33 10 -72 33 -72 84c0 34 18 68 55 102v2c-11 -2 -23 -3 -34 -3c-75 0 -138 25 -188 74s-75 112 -75 189zM111 301h316c-4 101 -64 158 -143 158c-87 0 -157 -59 -173 -158z" />
    <glyph glyph-name="Ecaron" unicode="&#x11a;" horiz-adv-x="560" 
d="M102 61v580h-65v62h402c43 0 61 -18 61 -61v-70h-65v47c0 15 -7 22 -22 22h-241v-256h265v-62h-265v-239c0 -15 7 -22 22 -22h248c15 0 22 7 22 22v47h65v-70c0 -43 -18 -61 -61 -61h-305c-43 0 -61 18 -61 61zM324 752h-69l-84 119h64l54 -80h2l54 80h63z" />
    <glyph glyph-name="ecaron" unicode="&#x11b;" horiz-adv-x="533" 
d="M37 251c0 80 24 144 71 192c48 48 107 72 178 72c67 0 118 -22 155 -67c37 -44 55 -99 55 -165c0 -11 -2 -33 -2 -34h-386c1 -62 20 -111 57 -146s83 -53 138 -53c87 -1 145 57 153 60l31 -52c-62 -47 -124 -70 -186 -70c-75 0 -138 25 -189 74c-50 49 -75 112 -75 189z
M111 303h316c-4 100 -63 156 -143 156c-87 0 -157 -57 -173 -156zM316 585h-69l-84 119h64l54 -80h2l54 80h63z" />
    <glyph glyph-name="Gcircumflex" unicode="&#x11c;" horiz-adv-x="720" 
d="M39 353c0 101 34 187 101 257s150 105 249 105c48 0 92 -7 133 -22c41 -14 71 -28 88 -43l25 -21l-41 -52l-26 20c-11 8 -34 19 -69 32s-72 20 -109 20c-79 0 -145 -28 -198 -85s-80 -127 -80 -211c0 -86 26 -157 79 -214s119 -85 199 -85c111 0 185 65 212 92l9 11v87
c0 15 -7 22 -22 22h-43v62h70c43 0 61 -18 61 -61v-267h-64v53l1 30h-2c-4 -5 -9 -12 -38 -33c-15 -11 -30 -20 -47 -29c-32 -16 -89 -33 -145 -33c-97 0 -178 35 -244 104s-99 156 -99 261zM331 752h-63l83 119h70l83 -119h-63l-54 81h-2z" />
    <glyph glyph-name="gcircumflex" unicode="&#x11d;" horiz-adv-x="577" 
d="M84 -170l26 57c42 -23 87 -35 136 -35c105 0 176 51 176 158v44l2 36h-2c-31 -58 -84 -87 -159 -87c-67 0 -122 24 -163 72s-61 110 -61 186s20 137 59 184s93 70 160 70c108 -1 149 -55 163 -77l4 -9h2c-1 6 -1 12 -1 19c0 37 19 55 58 55h70v-59h-42
c-15 0 -22 -7 -22 -22v-410c0 -75 -23 -130 -70 -167c-46 -37 -103 -55 -171 -55c-57 0 -112 13 -165 40zM274 64c88 0 150 60 150 197c0 129 -53 193 -159 193c-97 0 -156 -72 -156 -192s65 -198 165 -198zM230 585h-63l83 119h70l83 -119h-63l-54 81h-2z" />
    <glyph glyph-name="Gbreve" unicode="&#x11e;" horiz-adv-x="720" 
d="M39 353c0 101 34 187 101 257s150 105 249 105c48 0 92 -7 133 -22c41 -14 71 -28 88 -43l25 -21l-41 -52l-26 20c-11 8 -34 19 -69 32s-72 20 -109 20c-79 0 -145 -28 -198 -85s-80 -127 -80 -211c0 -86 26 -157 79 -214s119 -85 199 -85c111 0 185 65 212 92l9 11v87
c0 15 -7 22 -22 22h-43v62h70c43 0 61 -18 61 -61v-267h-64v53l1 30h-2c-4 -5 -9 -12 -38 -33c-15 -11 -30 -20 -47 -29c-32 -16 -89 -33 -145 -33c-97 0 -178 35 -244 104s-99 156 -99 261zM273 856v15h52v-13c0 -41 26 -62 62 -62c35 0 61 21 61 62v13h52v-15
c0 -67 -52 -107 -113 -107s-114 40 -114 107z" />
    <glyph glyph-name="gbreve" unicode="&#x11f;" horiz-adv-x="577" 
d="M84 -170l26 57c42 -23 87 -35 136 -35c105 0 176 51 176 158v44l2 36h-2c-31 -58 -84 -87 -159 -87c-67 0 -122 24 -163 72s-61 110 -61 186s20 137 59 184s93 70 160 70c108 -1 149 -55 163 -77l4 -9h2c-1 6 -1 12 -1 19c0 37 19 55 58 55h70v-59h-42
c-15 0 -22 -7 -22 -22v-410c0 -75 -23 -130 -70 -167c-46 -37 -103 -55 -171 -55c-57 0 -112 13 -165 40zM274 64c88 0 150 60 150 197c0 129 -53 193 -159 193c-97 0 -156 -72 -156 -192s65 -198 165 -198zM172 689v15h52v-13c0 -41 26 -62 62 -62c35 0 61 21 61 62v13h52
v-15c0 -67 -52 -107 -113 -107s-114 40 -114 107z" />
    <glyph glyph-name="Gdotaccent" unicode="&#x120;" horiz-adv-x="720" 
d="M39 353c0 101 34 187 101 257s150 105 249 105c48 0 92 -7 133 -22c41 -14 71 -28 88 -43l25 -21l-41 -52l-26 20c-11 8 -34 19 -69 32s-72 20 -109 20c-79 0 -145 -28 -198 -85s-80 -127 -80 -211c0 -86 26 -157 79 -214s119 -85 199 -85c111 0 185 65 212 92l9 11v87
c0 15 -7 22 -22 22h-43v62h70c43 0 61 -18 61 -61v-267h-64v53l1 30h-2c-4 -5 -9 -12 -38 -33c-15 -11 -30 -20 -47 -29c-32 -16 -89 -33 -145 -33c-97 0 -178 35 -244 104s-99 156 -99 261zM419 785h-66v86h66v-86z" />
    <glyph glyph-name="gdotaccent" unicode="&#x121;" horiz-adv-x="577" 
d="M84 -170l26 57c42 -23 87 -35 136 -35c105 0 176 51 176 158v44l2 36h-2c-31 -58 -84 -87 -159 -87c-67 0 -122 24 -163 72s-61 110 -61 186s20 137 59 184s93 70 160 70c108 -1 149 -55 163 -77l4 -9h2c-1 6 -1 12 -1 19c0 37 19 55 58 55h70v-59h-42
c-15 0 -22 -7 -22 -22v-410c0 -75 -23 -130 -70 -167c-46 -37 -103 -55 -171 -55c-57 0 -112 13 -165 40zM274 64c88 0 150 60 150 197c0 129 -53 193 -159 193c-97 0 -156 -72 -156 -192s65 -198 165 -198zM319 618h-66v86h66v-86z" />
    <glyph glyph-name="Gcommaaccent" unicode="&#x122;" horiz-adv-x="720" 
d="M39 353c0 101 34 187 101 257s150 105 249 105c48 0 92 -7 133 -22c41 -14 71 -28 88 -43l25 -21l-41 -52l-26 20c-11 8 -34 19 -69 32s-72 20 -109 20c-79 0 -145 -28 -198 -85s-80 -127 -80 -211c0 -86 26 -157 79 -214s119 -85 199 -85c111 0 185 65 212 92l9 11v87
c0 15 -7 22 -22 22h-43v62h70c43 0 61 -18 61 -61v-267h-64v53l1 30h-2c-4 -5 -9 -12 -38 -33c-15 -11 -30 -20 -47 -29c-32 -16 -89 -33 -145 -33c-97 0 -178 35 -244 104s-99 156 -99 261zM346 -63h62c5 -16 7 -32 7 -48c0 -24 -8 -54 -24 -89h-53c13 32 19 59 19 80
c0 19 -4 38 -11 57z" />
    <glyph glyph-name="gcommaaccent" unicode="&#x123;" horiz-adv-x="577" 
d="M307 565h-62c-5 16 -7 32 -7 48c0 24 8 54 24 89h53c-13 -32 -19 -59 -19 -80c0 -19 4 -38 11 -57zM84 -170l26 57c42 -23 87 -35 136 -35c105 0 176 51 176 158v44l2 36h-2c-31 -58 -84 -87 -159 -87c-67 0 -122 24 -163 72s-61 110 -61 186s20 137 59 184s93 70 160 70
c108 -1 149 -55 163 -77l4 -9h2c-1 6 -1 12 -1 19c0 37 19 55 58 55h70v-59h-42c-15 0 -22 -7 -22 -22v-410c0 -75 -23 -130 -70 -167c-46 -37 -103 -55 -171 -55c-57 0 -112 13 -165 40zM274 64c88 0 150 60 150 197c0 129 -53 193 -159 193c-97 0 -156 -72 -156 -192
s65 -198 165 -198z" />
    <glyph glyph-name="Hcircumflex" unicode="&#x124;" horiz-adv-x="749" 
d="M173 0h-70v619c0 15 -7 22 -22 22h-43v62h74c43 0 61 -18 61 -61v-259h404v259c0 43 18 61 61 61h74v-62h-43c-15 0 -22 -7 -22 -22v-619h-70v321h-404v-321zM319 752h-63l83 119h70l83 -119h-63l-54 81h-2z" />
    <glyph glyph-name="hcircumflex" unicode="&#x125;" horiz-adv-x="592" 
d="M141 0h-68v622c0 15 -7 22 -22 22h-42v59h71c43 0 61 -18 61 -59v-213l-2 -41h2c12 30 35 58 70 85s78 40 129 40c121 0 169 -66 169 -195v-239c0 -15 7 -22 22 -22h42v-59h-71c-43 0 -61 18 -61 61v241c0 45 -3 74 -18 103c-15 31 -45 46 -92 46c-43 0 -81 -13 -115 -40
c-33 -27 -56 -61 -67 -103c-5 -18 -8 -40 -8 -67v-241zM55 752h-63l83 119h70l83 -119h-63l-54 81h-2z" />
    <glyph glyph-name="Hbar" unicode="&#x126;" horiz-adv-x="753" 
d="M174 0h-70v512h-65v53h65v138h70v-138h404v138h70v-138h65v-53h-65v-512h-70v321h-404v-321zM174 512v-129h404v129h-404z" />
    <glyph glyph-name="hbar" unicode="&#x127;" horiz-adv-x="592" 
d="M141 0h-68v566h-79v51h79v86h68v-86h131v-51h-131v-135l-2 -41h2c8 21 26 48 57 76c32 28 85 49 142 49c121 0 169 -66 169 -195v-239c0 -15 7 -22 22 -22h42v-59h-71c-43 0 -61 18 -61 61v241c0 45 -3 72 -18 103s-45 46 -92 46c-55 0 -101 -20 -137 -61
c-35 -40 -53 -90 -53 -149v-241z" />
    <glyph glyph-name="Itilde" unicode="&#x128;" horiz-adv-x="287" 
d="M38 755h-52c0 78 31 117 93 117c58 0 89 -72 126 -72c29 0 41 34 41 69h52c0 -78 -31 -117 -93 -117c-60 -3 -89 74 -127 71c-27 0 -40 -23 -40 -68zM244 0h-201v62h66v579h-66v62h201v-62h-67v-579h67v-62z" />
    <glyph glyph-name="itilde" unicode="&#x129;" horiz-adv-x="240" 
d="M28 587h-51c0 78 28 117 83 117c49 0 76 -70 100 -70c23 0 34 22 34 67h50c0 -78 -27 -117 -82 -117c-56 0 -71 70 -100 70c-23 0 -34 -22 -34 -67zM86 61v361c0 15 -7 22 -22 22h-42v59h71c43 0 61 -18 61 -61v-361c0 -15 7 -22 22 -22h42v-59h-71c-43 0 -61 18 -61 61z
" />
    <glyph glyph-name="Imacron" unicode="&#x12a;" horiz-adv-x="287" 
d="M244 0h-201v62h66v579h-66v62h201v-62h-67v-579h67v-62zM267 785h-246v54h246v-54z" />
    <glyph glyph-name="imacron" unicode="&#x12b;" horiz-adv-x="240" 
d="M220 617h-214v54h214v-54zM86 61v361c0 15 -7 22 -22 22h-42v59h71c43 0 61 -18 61 -61v-361c0 -15 7 -22 22 -22h42v-59h-71c-43 0 -61 18 -61 61z" />
    <glyph glyph-name="Ibreve" unicode="&#x12c;" horiz-adv-x="287" 
d="M30 856v15h52v-13c0 -41 26 -62 62 -62c35 0 61 21 61 62v13h52v-15c0 -67 -52 -107 -113 -107s-114 40 -114 107zM244 0h-201v62h66v579h-66v62h201v-62h-67v-579h67v-62z" />
    <glyph glyph-name="ibreve" unicode="&#x12d;" horiz-adv-x="240" 
d="M-1 688v15h53v-13c-6 -83 128 -83 122 0v13h53v-15c0 -67 -53 -107 -114 -107s-114 40 -114 107zM86 61v361c0 15 -7 22 -22 22h-42v59h71c43 0 61 -18 61 -61v-361c0 -15 7 -22 22 -22h42v-59h-71c-43 0 -61 18 -61 61z" />
    <glyph glyph-name="Iogonek" unicode="&#x12e;" horiz-adv-x="287" 
d="M173 0h-130v62h66v579h-66v62h201v-62h-67v-579h67v-62c-49 -37 -73 -70 -73 -99c0 -27 26 -44 47 -47l15 -3l-15 -56c-5 0 -13 0 -38 8c-33 10 -72 33 -72 84c0 42 22 79 65 111v2z" />
    <glyph glyph-name="iogonek" unicode="&#x12f;" horiz-adv-x="240" 
d="M149 617h-65v86h65v-86zM86 83v339c0 15 -7 22 -22 22h-42v59h71c43 0 61 -18 61 -61v-361c0 -15 7 -22 22 -22h42v-59c-48 -37 -72 -70 -72 -99c0 -27 26 -44 46 -47l16 -3l-16 -56c-5 0 -13 0 -38 8c-33 10 -72 33 -72 84c0 40 22 77 65 111v2h-10c-39 0 -51 28 -51 83
z" />
    <glyph glyph-name="Idot" unicode="&#x130;" horiz-adv-x="287" 
d="M244 0h-201v62h66v579h-66v62h201v-62h-67v-579h67v-62zM175 785h-66v86h66v-86z" />
    <glyph glyph-name="dotlessi" unicode="&#x131;" horiz-adv-x="241" 
d="M86 61v361c0 15 -7 22 -22 22h-42v59h71c43 0 61 -18 61 -61v-361c0 -15 7 -22 22 -22h42v-59h-71c-43 0 -61 18 -61 61z" />
    <glyph glyph-name="IJ" unicode="&#x132;" horiz-adv-x="633" 
d="M338 -5v65c98 0 147 56 147 168v391c0 15 -7 22 -22 22h-119v62h150c43 0 61 -18 61 -61v-414c0 -155 -72 -233 -217 -233zM244 0h-201v62h66v579h-66v62h201v-62h-67v-579h67v-62z" />
    <glyph glyph-name="ij" unicode="&#x133;" horiz-adv-x="464" 
d="M149 617h-65v86h65v-86zM86 61v361c0 15 -7 22 -22 22h-42v59h71c43 0 61 -18 61 -61v-361c0 -15 7 -22 22 -22h42v-59h-71c-43 0 -61 18 -61 61zM390 617h-65v86h65v-86zM327 -16v438c0 15 -7 22 -22 22h-42v59h71c43 0 61 -18 61 -61v-461c0 -79 -27 -133 -68 -156
c-40 -24 -72 -31 -108 -31l-29 3v59c6 -1 13 -1 22 -1c39 0 115 15 115 129z" />
    <glyph glyph-name="Jcircumflex" unicode="&#x134;" horiz-adv-x="495" 
d="M20 197v28h70v-24c0 -103 57 -147 128 -147c72 0 128 45 128 145v420c0 15 -7 22 -22 22h-174v62h205c43 0 61 -18 61 -61v-445c0 -71 -19 -123 -58 -158c-39 -34 -85 -51 -140 -51s-101 17 -140 52s-58 87 -58 157zM220 752h-63l83 119h70l83 -119h-63l-54 81h-2z" />
    <glyph glyph-name="jcircumflex" unicode="&#x135;" horiz-adv-x="224" 
d="M40 584h-63l84 119h69l84 -119h-63l-55 82zM87 -17v440c0 15 -8 22 -24 22h-40v58h70c43 0 61 -15 61 -58v-464c0 -79 -27 -133 -67 -156c-40 -24 -72 -31 -108 -31l-29 3v59c6 -1 13 -2 22 -2c39 0 115 15 115 129z" />
    <glyph glyph-name="Kcommaaccent" unicode="&#x136;" horiz-adv-x="588" 
d="M173 0h-70v619c0 15 -7 22 -22 22h-43v62h74c43 0 61 -18 61 -61v-244h84c29 0 49 8 59 25l170 280h80l-181 -295c-11 -17 -24 -31 -31 -36l-5 -3v-2c11 -4 23 -17 34 -40l122 -242c9 -20 22 -23 51 -23h20v-62h-37c-29 0 -50 3 -62 9c-12 7 -24 21 -35 44l-128 257
c-8 17 -29 26 -64 26h-77v-336zM275 -63h62c5 -16 7 -32 7 -48c0 -24 -8 -54 -24 -89h-53c13 32 19 59 19 80c0 19 -4 38 -11 57z" />
    <glyph glyph-name="kcommaaccent" unicode="&#x137;" horiz-adv-x="488" 
d="M141 0h-68v622c0 15 -7 22 -22 22h-42v59h71c44 0 61 -15 61 -58v-334h51c26 0 45 8 58 24l129 168h82l-145 -184c-15 -19 -29 -31 -34 -34l-4 -2v-2c11 -5 21 -17 32 -37l91 -163c9 -17 19 -22 46 -22h27v-59h-47c-51 0 -64 9 -87 50l-100 180c-8 15 -26 22 -53 22h-46
v-252zM219 -63h62c5 -16 7 -32 7 -48c0 -24 -8 -54 -24 -89h-53c13 32 19 59 19 80c0 19 -4 38 -11 57z" />
    <glyph glyph-name="kgreenlandic" unicode="&#x138;" horiz-adv-x="501" 
d="M156 0h-68v422c0 15 -7 22 -22 22h-42v59h71c44 0 61 -15 61 -58v-157h51c27 0 46 8 58 24l137 191h82l-153 -206c-15 -19 -28 -31 -33 -34l-3 -2v-2c8 -4 18 -16 30 -37l79 -141c9 -17 19 -22 46 -22h32v-59h-52c-51 0 -64 9 -87 50l-88 157c-8 15 -26 22 -53 22h-46
v-229z" />
    <glyph glyph-name="Lacute" unicode="&#x139;" horiz-adv-x="529" 
d="M102 61v558c0 15 -7 22 -22 22h-43v62h74c43 0 61 -18 61 -61v-558c0 -15 7 -22 22 -22h234c15 0 22 7 22 22v47h65v-70c0 -43 -18 -61 -61 -61h-291c-43 0 -61 18 -61 61zM171 752h-59l70 119h76z" />
    <glyph glyph-name="lacute" unicode="&#x13a;" horiz-adv-x="230" 
d="M74 61v561c0 15 -7 22 -22 22h-42v59h71c43 0 61 -18 61 -61v-561c0 -15 7 -22 22 -22h42v-59h-71c-43 0 -61 18 -61 61zM127 752h-59l70 119h76z" />
    <glyph glyph-name="Lcommaaccent" unicode="&#x13b;" horiz-adv-x="529" 
d="M102 61v558c0 15 -7 22 -22 22h-43v62h74c43 0 61 -18 61 -61v-558c0 -15 7 -22 22 -22h234c15 0 22 7 22 22v47h65v-70c0 -43 -18 -61 -61 -61h-291c-43 0 -61 18 -61 61zM274 -63h62c5 -16 7 -32 7 -48c0 -24 -8 -54 -24 -89h-53c13 32 19 59 19 80c0 19 -4 38 -11 57z
" />
    <glyph glyph-name="lcommaaccent" unicode="&#x13c;" horiz-adv-x="230" 
d="M74 61v561c0 15 -7 22 -22 22h-42v59h71c43 0 61 -18 61 -61v-561c0 -15 7 -22 22 -22h42v-59h-71c-43 0 -61 18 -61 61zM91 -63h62c5 -16 7 -32 7 -48c0 -24 -8 -54 -24 -89h-53c13 32 19 59 19 80c0 19 -4 38 -11 57z" />
    <glyph glyph-name="Lcaron" unicode="&#x13d;" horiz-adv-x="529" 
d="M263 702h62c5 -16 7 -32 7 -48c0 -24 -8 -54 -24 -89h-53c13 31 19 58 19 80c0 19 -4 38 -11 57zM102 61v558c0 15 -7 22 -22 22h-43v62h74c43 0 61 -18 61 -61v-558c0 -15 7 -22 22 -22h234c15 0 22 7 22 22v47h65v-70c0 -43 -18 -61 -61 -61h-291c-43 0 -61 18 -61 61z
" />
    <glyph glyph-name="lcaron" unicode="&#x13e;" horiz-adv-x="230" 
d="M203 702h62c5 -16 7 -32 7 -48c0 -24 -8 -54 -24 -89h-53c13 31 19 58 19 80c0 19 -4 38 -11 57zM74 61v561c0 15 -7 22 -22 22h-42v59h71c43 0 61 -18 61 -61v-561c0 -15 7 -22 22 -22h42v-59h-71c-43 0 -61 18 -61 61z" />
    <glyph glyph-name="Ldot" unicode="&#x13f;" horiz-adv-x="529" 
d="M102 61v558c0 15 -7 22 -22 22h-43v62h74c43 0 61 -18 61 -61v-558c0 -15 7 -22 22 -22h234c15 0 22 7 22 22v47h65v-70c0 -43 -18 -61 -61 -61h-291c-43 0 -61 18 -61 61zM373 331h-77v80h77v-80z" />
    <glyph glyph-name="ldot" unicode="&#x140;" horiz-adv-x="284" 
d="M74 61v561c0 15 -7 22 -22 22h-42v59h71c43 0 61 -18 61 -61v-561c0 -15 7 -22 22 -22h42v-59h-71c-43 0 -61 18 -61 61zM288 331h-77v80h77v-80z" />
    <glyph glyph-name="Lslash" unicode="&#x141;" horiz-adv-x="532" 
d="M106 61v277l-64 -36v70l64 37v210c0 15 -7 22 -22 22h-43v62h74c43 0 61 -18 61 -61v-193l109 64v-71l-109 -63v-295c0 -15 7 -22 22 -22h233c15 0 22 7 22 22v47h66v-70c0 -43 -18 -61 -61 -61h-291c-43 0 -61 18 -61 61z" />
    <glyph glyph-name="lslash" unicode="&#x142;" horiz-adv-x="244" 
d="M86 61v294l-85 -48v71l85 49v195c0 15 -7 22 -22 22h-42v59h71c43 0 61 -18 61 -61v-176l83 48v-72l-83 -48v-313c0 -15 7 -22 22 -22h42v-59h-71c-43 0 -61 18 -61 61z" />
    <glyph glyph-name="Nacute" unicode="&#x143;" horiz-adv-x="752" 
d="M112 0h-74v62h43c15 0 22 7 22 22v619h64l359 -501l57 -92h2c-3 37 -5 67 -5 92v440c0 43 18 61 61 61h74v-62h-43c-15 0 -22 -7 -22 -22v-619h-64l-359 501c-15 20 -37 56 -49 77l-9 15h-2c4 -37 6 -67 6 -92v-440c0 -43 -18 -61 -61 -61zM416 752h-59l70 119h76z" />
    <glyph glyph-name="nacute" unicode="&#x144;" horiz-adv-x="607" 
d="M156 0h-68v422c0 15 -7 22 -22 22h-42v59h69c41 0 61 -19 61 -56v-23l-2 -36h2c13 31 36 59 70 86c35 27 78 41 131 41c121 0 169 -66 169 -195v-239c0 -15 7 -22 22 -22h42v-59h-71c-43 0 -61 18 -61 61v241c0 95 -22 149 -110 149c-43 0 -81 -13 -115 -40
c-33 -26 -56 -60 -67 -102c-5 -19 -8 -41 -8 -68v-241zM346 585h-59l70 119h76z" />
    <glyph glyph-name="Ncommaaccent" unicode="&#x145;" horiz-adv-x="752" 
d="M112 0h-74v62h43c15 0 22 7 22 22v619h64l359 -501l57 -92h2c-3 37 -5 67 -5 92v440c0 43 18 61 61 61h74v-62h-43c-15 0 -22 -7 -22 -22v-619h-64l-359 501c-15 20 -37 56 -49 77l-9 15h-2c4 -37 6 -67 6 -92v-440c0 -43 -18 -61 -61 -61zM339 -63h62c5 -16 7 -32 7 -48
c0 -24 -8 -54 -24 -89h-53c13 32 19 59 19 80c0 19 -4 38 -11 57z" />
    <glyph glyph-name="ncommaaccent" unicode="&#x146;" horiz-adv-x="607" 
d="M156 0h-68v422c0 15 -7 22 -22 22h-42v59h69c41 0 61 -19 61 -56v-23l-2 -36h2c13 31 36 59 70 86c35 27 78 41 131 41c121 0 169 -66 169 -195v-239c0 -15 7 -22 22 -22h42v-59h-71c-43 0 -61 18 -61 61v241c0 95 -22 149 -110 149c-43 0 -81 -13 -115 -40
c-33 -26 -56 -60 -67 -102c-5 -19 -8 -41 -8 -68v-241zM287 -63h62c5 -16 7 -32 7 -48c0 -24 -8 -54 -24 -89h-53c13 32 19 59 19 80c0 19 -4 38 -11 57z" />
    <glyph glyph-name="Ncaron" unicode="&#x147;" horiz-adv-x="752" 
d="M112 0h-74v62h43c15 0 22 7 22 22v619h64l359 -501l57 -92h2c-3 37 -5 67 -5 92v440c0 43 18 61 61 61h74v-62h-43c-15 0 -22 -7 -22 -22v-619h-64l-359 501c-15 20 -37 56 -49 77l-9 15h-2c4 -37 6 -67 6 -92v-440c0 -43 -18 -61 -61 -61zM421 752h-69l-84 119h64
l54 -80h2l54 80h63z" />
    <glyph glyph-name="ncaron" unicode="&#x148;" horiz-adv-x="607" 
d="M156 0h-68v422c0 15 -7 22 -22 22h-42v59h69c41 0 61 -19 61 -56v-23l-2 -36h2c13 31 36 59 70 86c35 27 78 41 131 41c121 0 169 -66 169 -195v-239c0 -15 7 -22 22 -22h42v-59h-71c-43 0 -61 18 -61 61v241c0 95 -22 149 -110 149c-43 0 -81 -13 -115 -40
c-33 -26 -56 -60 -67 -102c-5 -19 -8 -41 -8 -68v-241zM351 585h-69l-84 119h64l54 -80h2l54 80h63z" />
    <glyph glyph-name="napostrophe" unicode="&#x149;" horiz-adv-x="607" 
d="M-24 702h62c5 -16 7 -32 7 -48c0 -24 -8 -54 -24 -89h-53c13 31 19 58 19 80c0 19 -4 38 -11 57zM156 0h-68v422c0 15 -7 22 -22 22h-42v59h69c41 0 61 -19 61 -56v-23l-2 -36h2c13 31 36 59 70 86c35 27 78 41 131 41c121 0 169 -66 169 -195v-239c0 -15 7 -22 22 -22
h42v-59h-71c-43 0 -61 18 -61 61v241c0 95 -22 149 -110 149c-43 0 -81 -13 -115 -40c-33 -26 -56 -60 -67 -102c-5 -19 -8 -41 -8 -68v-241z" />
    <glyph glyph-name="Eng" unicode="&#x14a;" horiz-adv-x="752" 
d="M112 0h-74v62h43c15 0 22 7 22 22v619h64l359 -501l57 -92h2c-3 37 -5 67 -5 92v440c0 43 18 61 61 61h74v-62h-43c-15 0 -22 -7 -22 -22v-607c0 -166 -110 -217 -209 -217v65c37 0 69 12 97 35s42 59 42 108v7l-353 491c-15 20 -37 56 -49 77l-9 15h-2
c4 -37 6 -67 6 -92v-440c0 -43 -18 -61 -61 -61z" />
    <glyph glyph-name="eng" unicode="&#x14b;" horiz-adv-x="587" 
d="M156 0h-68v422c0 15 -7 22 -22 22h-42v59h69c41 0 61 -19 61 -56v-23l-2 -36h2c13 31 36 59 70 86c35 27 78 41 131 41c121 0 169 -66 169 -195v-343c0 -79 -27 -133 -68 -156c-40 -24 -71 -31 -107 -31l-30 3v59c6 -1 13 -1 22 -1c39 0 115 15 115 129v322
c0 95 -22 149 -110 149c-43 0 -81 -13 -115 -40c-33 -27 -56 -61 -67 -103c-5 -18 -8 -40 -8 -67v-241z" />
    <glyph glyph-name="Omacron" unicode="&#x14c;" horiz-adv-x="791" 
d="M38 356c0 101 35 186 104 255s154 104 254 104s185 -35 254 -104s104 -154 104 -255c0 -103 -35 -190 -105 -261c-69 -71 -154 -107 -253 -107c-100 0 -185 36 -254 107s-104 158 -104 261zM111 356c0 -85 28 -156 83 -215c55 -58 123 -87 202 -87s146 29 201 87
c56 59 84 130 84 215c0 83 -28 152 -83 208c-55 57 -123 85 -202 85s-147 -28 -202 -85c-55 -56 -83 -125 -83 -208zM515 785h-246v54h246v-54z" />
    <glyph glyph-name="omacron" unicode="&#x14d;" horiz-adv-x="604" 
d="M37 254c0 74 26 136 77 186s114 75 188 75s137 -25 188 -75s77 -112 77 -186c0 -75 -26 -139 -77 -190s-114 -76 -188 -76s-137 25 -188 76s-77 115 -77 190zM106 254c0 -58 19 -107 57 -146s84 -59 139 -59s101 20 139 59s57 88 57 146c0 57 -19 104 -57 142
c-38 39 -84 58 -139 58s-101 -19 -139 -58c-38 -38 -57 -85 -57 -142zM425 618h-246v54h246v-54z" />
    <glyph glyph-name="Obreve" unicode="&#x14e;" horiz-adv-x="791" 
d="M38 356c0 101 35 186 104 255s154 104 254 104s185 -35 254 -104s104 -154 104 -255c0 -103 -35 -190 -105 -261c-69 -71 -154 -107 -253 -107c-100 0 -185 36 -254 107s-104 158 -104 261zM111 356c0 -85 28 -156 83 -215c55 -58 123 -87 202 -87s146 29 201 87
c56 59 84 130 84 215c0 83 -28 152 -83 208c-55 57 -123 85 -202 85s-147 -28 -202 -85c-55 -56 -83 -125 -83 -208zM279 856v15h52v-13c0 -41 26 -62 62 -62c35 0 61 21 61 62v13h52v-15c0 -67 -52 -107 -113 -107s-114 40 -114 107z" />
    <glyph glyph-name="obreve" unicode="&#x14f;" horiz-adv-x="604" 
d="M37 254c0 74 26 136 77 186s114 75 188 75s137 -25 188 -75s77 -112 77 -186c0 -75 -26 -139 -77 -190s-114 -76 -188 -76s-137 25 -188 76s-77 115 -77 190zM106 254c0 -58 19 -107 57 -146s84 -59 139 -59s101 20 139 59s57 88 57 146c0 57 -19 104 -57 142
c-38 39 -84 58 -139 58s-101 -19 -139 -58c-38 -38 -57 -85 -57 -142zM188 689v15h52v-13c0 -41 26 -62 62 -62c35 0 61 21 61 62v13h52v-15c0 -67 -52 -107 -113 -107s-114 40 -114 107z" />
    <glyph glyph-name="Ohungarumlaut" unicode="&#x150;" horiz-adv-x="791" 
d="M38 356c0 101 35 186 104 255s154 104 254 104s185 -35 254 -104s104 -154 104 -255c0 -103 -35 -190 -105 -261c-69 -71 -154 -107 -253 -107c-100 0 -185 36 -254 107s-104 158 -104 261zM111 356c0 -85 28 -156 83 -215c55 -58 123 -87 202 -87s146 29 201 87
c56 59 84 130 84 215c0 83 -28 152 -83 208c-55 57 -123 85 -202 85s-147 -28 -202 -85c-55 -56 -83 -125 -83 -208zM486 752h-59l70 119h76zM358 752h-64l66 119h65z" />
    <glyph glyph-name="ohungarumlaut" unicode="&#x151;" horiz-adv-x="604" 
d="M37 254c0 74 26 136 77 186s114 75 188 75s137 -25 188 -75s77 -112 77 -186c0 -75 -26 -139 -77 -190s-114 -76 -188 -76s-137 25 -188 76s-77 115 -77 190zM106 254c0 -58 19 -107 57 -146s84 -59 139 -59s101 20 139 59s57 88 57 146c0 57 -19 104 -57 142
c-38 39 -84 58 -139 58s-101 -19 -139 -58c-38 -38 -57 -85 -57 -142zM396 585h-59l70 119h76zM268 585h-64l66 119h65z" />
    <glyph glyph-name="OE" unicode="&#x152;" horiz-adv-x="917" 
d="M38 352c0 102 32 188 96 257c65 69 146 104 244 104c16 0 41 -2 74 -5c34 -3 57 -5 68 -5h276c43 0 61 -18 61 -61v-70h-65v47c0 15 -7 22 -22 22h-233v-256h256v-62h-256v-261h261c15 0 22 7 22 22v47h66v-70c0 -41 -19 -61 -56 -61h-309c-11 0 -34 -2 -68 -5
s-59 -5 -75 -5c-98 0 -179 35 -244 104c-64 69 -96 155 -96 258zM111 352c0 -85 25 -156 74 -212c49 -55 114 -83 193 -83c39 0 68 2 89 7v574c-23 5 -53 8 -89 8c-79 0 -144 -28 -193 -84c-49 -55 -74 -125 -74 -210z" />
    <glyph glyph-name="oe" unicode="&#x153;" horiz-adv-x="994" 
d="M301 515c100 0 185 -51 228 -135h2c40 85 119 135 216 135c67 0 118 -22 155 -67c37 -44 56 -99 56 -165l-3 -34h-386c3 -63 22 -112 59 -147s83 -52 137 -52c53 0 110 25 133 46l18 15l32 -52c-5 -5 -13 -12 -24 -20c-10 -8 -31 -19 -64 -32c-32 -13 -65 -19 -98 -19
c-104 0 -189 52 -229 137h-2c-44 -85 -127 -137 -230 -137c-74 0 -137 24 -188 73s-76 112 -76 190s25 141 76 190s114 74 188 74zM573 303h314c-5 100 -64 155 -141 155c-87 0 -157 -58 -173 -155zM497 254c0 59 -19 107 -58 144c-38 37 -84 56 -138 56s-100 -19 -138 -57
s-57 -87 -57 -146s19 -108 56 -145c38 -37 84 -56 139 -56s101 19 139 56c38 38 57 87 57 148z" />
    <glyph glyph-name="Racute" unicode="&#x154;" horiz-adv-x="610" 
d="M172 0h-70v641h-65v62h299c59 0 108 -18 145 -55c38 -36 57 -84 57 -145c0 -103 -61 -172 -137 -188v-2c10 -5 18 -15 25 -28l101 -200c9 -20 22 -23 50 -23h14v-62h-31c-29 0 -50 3 -62 9c-12 7 -24 21 -35 44l-101 201c-19 36 -31 42 -71 42h-119v-296zM172 641v-283
h157c84 0 136 55 136 143c0 87 -52 140 -135 140h-158zM307 752h-59l70 119h76z" />
    <glyph glyph-name="racute" unicode="&#x155;" horiz-adv-x="350" 
d="M156 0h-68v422c0 15 -7 22 -22 22h-42v59h69c41 0 61 -19 61 -57v-34l-2 -38h2c27 80 84 134 159 134l28 -3v-67c-9 1 -17 2 -26 2c-68 0 -122 -53 -146 -130c-9 -28 -13 -61 -13 -98v-212zM215 585h-59l70 119h76z" />
    <glyph glyph-name="Rcommaaccent" unicode="&#x156;" horiz-adv-x="610" 
d="M172 0h-70v641h-65v62h299c59 0 108 -18 145 -55c38 -36 57 -84 57 -145c0 -103 -61 -172 -137 -188v-2c10 -5 18 -15 25 -28l101 -200c9 -20 22 -23 50 -23h14v-62h-31c-29 0 -50 3 -62 9c-12 7 -24 21 -35 44l-101 201c-19 36 -31 42 -71 42h-119v-296zM172 641v-283
h157c84 0 136 55 136 143c0 87 -52 140 -135 140h-158zM294 -63h62c5 -16 7 -32 7 -48c0 -24 -8 -54 -24 -89h-53c13 32 19 59 19 80c0 19 -4 38 -11 57z" />
    <glyph glyph-name="rcommaaccent" unicode="&#x157;" horiz-adv-x="350" 
d="M156 0h-68v422c0 15 -7 22 -22 22h-42v59h69c41 0 61 -19 61 -57v-34l-2 -38h2c27 80 84 134 159 134l28 -3v-67c-9 1 -17 2 -26 2c-68 0 -122 -53 -146 -130c-9 -28 -13 -61 -13 -98v-212zM94 -63h62c5 -16 7 -32 7 -48c0 -24 -8 -54 -24 -89h-53c13 32 19 59 19 80
c0 19 -4 38 -11 57z" />
    <glyph glyph-name="Rcaron" unicode="&#x158;" horiz-adv-x="610" 
d="M172 0h-70v641h-65v62h299c59 0 108 -18 145 -55c38 -36 57 -84 57 -145c0 -103 -61 -172 -137 -188v-2c10 -5 18 -15 25 -28l101 -200c9 -20 22 -23 50 -23h14v-62h-31c-29 0 -50 3 -62 9c-12 7 -24 21 -35 44l-101 201c-19 36 -31 42 -71 42h-119v-296zM172 641v-283
h157c84 0 136 55 136 143c0 87 -52 140 -135 140h-158zM312 752h-69l-84 119h64l54 -80h2l54 80h63z" />
    <glyph glyph-name="rcaron" unicode="&#x159;" horiz-adv-x="350" 
d="M221 585h-69l-84 119h64l54 -80h2l54 80h63zM156 0h-68v422c0 15 -7 22 -22 22h-42v59h69c41 0 61 -19 61 -57v-34l-2 -38h2c27 80 84 134 159 134l28 -3v-67c-9 1 -17 2 -26 2c-68 0 -122 -53 -146 -130c-9 -28 -13 -61 -13 -98v-212z" />
    <glyph glyph-name="Sacute" unicode="&#x15a;" horiz-adv-x="510" 
d="M41 78l-9 10l43 51c4 -4 8 -10 32 -30c31 -27 84 -54 150 -56c39 0 72 12 99 35s40 53 40 90c0 173 -347 139 -347 357c0 50 20 92 60 127s92 53 155 53c27 0 53 -3 80 -10s52 -20 75 -39s35 -43 35 -72v-50h-66v33c0 21 -12 38 -37 52s-54 21 -87 21
c-87 0 -143 -50 -143 -113c0 -163 347 -123 347 -355c0 -55 -20 -101 -59 -138s-90 -56 -154 -56c-53 0 -108 16 -141 35c-33 20 -61 40 -73 55zM289 752h-59l70 119h76z" />
    <glyph glyph-name="sacute" unicode="&#x15b;" horiz-adv-x="434" 
d="M36 67l-7 9l40 46l18 -21c8 -8 25 -19 52 -33s55 -21 84 -21c60 0 106 29 106 80c0 40 -44 69 -100 90c-79 29 -184 68 -182 162c0 88 74 136 179 136c21 0 42 -3 63 -8c44 -9 90 -39 90 -83v-43h-63v24c0 33 -47 52 -87 52c-71 0 -113 -26 -113 -74
c0 -113 283 -87 283 -254c0 -41 -17 -75 -51 -102c-33 -26 -75 -39 -126 -39c-103 0 -165 56 -186 79zM248 585h-59l70 119h76z" />
    <glyph glyph-name="Scircumflex" unicode="&#x15c;" horiz-adv-x="510" 
d="M41 78l-9 10l43 51c4 -4 8 -10 32 -30c31 -27 84 -54 150 -56c39 0 72 12 99 35s40 53 40 90c0 173 -347 139 -347 357c0 50 20 92 60 127s92 53 155 53c27 0 53 -3 80 -10s52 -20 75 -39s35 -43 35 -72v-50h-66v33c0 21 -12 38 -37 52s-54 21 -87 21
c-87 0 -143 -50 -143 -113c0 -163 347 -123 347 -355c0 -55 -20 -101 -59 -138s-90 -56 -154 -56c-53 0 -108 16 -141 35c-33 20 -61 40 -73 55zM205 752h-63l83 119h70l83 -119h-63l-54 81h-2z" />
    <glyph glyph-name="scircumflex" unicode="&#x15d;" horiz-adv-x="434" 
d="M36 67l-7 9l40 46l18 -21c8 -8 25 -19 52 -33s55 -21 84 -21c60 0 106 29 106 80c0 40 -44 69 -100 90c-79 29 -184 68 -182 162c0 88 74 136 179 136c21 0 42 -3 63 -8c44 -9 90 -39 90 -83v-43h-63v24c0 33 -47 52 -87 52c-71 0 -113 -26 -113 -74
c0 -113 283 -87 283 -254c0 -41 -17 -75 -51 -102c-33 -26 -75 -39 -126 -39c-103 0 -165 56 -186 79zM165 585h-63l83 119h70l83 -119h-63l-54 81h-2z" />
    <glyph glyph-name="Scedilla" unicode="&#x15e;" horiz-adv-x="511" 
d="M40 79l-8 9l43 51c4 -4 8 -10 32 -30c33 -27 84 -54 151 -56c39 0 72 12 99 35s40 53 40 90c0 173 -347 139 -347 357c0 50 20 92 60 127s92 53 155 53c27 0 53 -3 80 -10s52 -20 75 -39s35 -43 35 -72v-50h-66v33c0 21 -12 38 -37 52s-54 21 -87 21
c-87 0 -143 -50 -143 -113c0 -163 347 -123 347 -355c0 -52 -18 -97 -54 -134s-84 -57 -143 -60l-8 -43c41 -7 70 -32 70 -71c0 -55 -41 -79 -96 -79l-50 5v48c13 -4 27 -6 42 -6c34 0 51 11 51 34s-19 34 -57 34l-15 -1l18 81c-99 8 -166 66 -187 89z" />
    <glyph glyph-name="scedilla" unicode="&#x15f;" horiz-adv-x="435" 
d="M35 68l-6 8l40 46l18 -21c8 -8 25 -19 52 -33s55 -21 84 -21c60 0 106 29 106 80c0 40 -44 69 -100 90c-79 29 -184 68 -182 162c0 88 74 136 179 136c21 0 42 -3 63 -8c44 -9 90 -39 90 -83v-43h-63v24c0 33 -47 52 -87 52c-71 0 -113 -26 -113 -74
c0 -113 283 -87 283 -254c0 -81 -71 -137 -168 -141l-9 -43c43 -7 71 -32 71 -71c0 -53 -42 -79 -97 -79l-49 5v48c13 -4 27 -6 42 -6c34 0 51 11 51 34s-19 34 -57 34l-15 -1l19 82c-86 9 -136 59 -152 77z" />
    <glyph glyph-name="Scaron" unicode="&#x160;" horiz-adv-x="510" 
d="M41 78l-9 10l43 51c4 -4 8 -10 32 -30c31 -27 84 -54 150 -56c39 0 72 12 99 35s40 53 40 90c0 173 -347 139 -347 357c0 50 20 92 60 127s92 53 155 53c27 0 53 -3 80 -10s52 -20 75 -39s35 -43 35 -72v-50h-66v33c0 21 -12 38 -37 52s-54 21 -87 21
c-87 0 -143 -50 -143 -113c0 -163 347 -123 347 -355c0 -55 -20 -101 -59 -138s-90 -56 -154 -56c-53 0 -108 16 -141 35c-33 20 -61 40 -73 55zM294 752h-69l-84 119h64l54 -80h2l54 80h63z" />
    <glyph glyph-name="scaron" unicode="&#x161;" horiz-adv-x="434" 
d="M36 67l-7 9l40 46l18 -21c8 -8 25 -19 52 -33s55 -21 84 -21c60 0 106 29 106 80c0 40 -44 69 -100 90c-79 29 -184 68 -182 162c0 88 74 136 179 136c21 0 42 -3 63 -8c44 -9 90 -39 90 -83v-43h-63v24c0 33 -47 52 -87 52c-71 0 -113 -26 -113 -74
c0 -113 283 -87 283 -254c0 -41 -17 -75 -51 -102c-33 -26 -75 -39 -126 -39c-103 0 -165 56 -186 79zM255 585h-69l-84 119h64l54 -80h2l54 80h63z" />
    <glyph glyph-name="Tcommaaccent" unicode="&#x162;" horiz-adv-x="617" 
d="M286 0h-13v641h-173c-15 0 -22 -7 -22 -22v-47h-64v74c0 43 14 57 57 57h475c43 0 57 -14 57 -57v-74h-64v47c0 15 -7 22 -22 22h-174v-641h-13l-11 -55c43 -7 71 -32 71 -71c0 -55 -41 -79 -97 -79l-49 5v48c13 -4 27 -6 42 -6c34 0 51 11 51 34s-19 34 -57 34l-15 -1z
" />
    <glyph glyph-name="tcommaaccent" unicode="&#x163;" horiz-adv-x="300" 
d="M84 183v263h-66v57h67v139h67v-139h127v-57h-127v-256c0 -118 75 -133 114 -133l23 2v-61c-8 -1 -18 -2 -30 -2c-17 0 -33 2 -48 5l-10 -56c41 -7 70 -32 70 -71c0 -55 -41 -79 -96 -79l-50 5v48c13 -4 27 -6 42 -6c34 0 51 11 51 34s-19 34 -57 34l-15 -1l25 105
c-58 28 -87 84 -87 169z" />
    <glyph glyph-name="Tcaron" unicode="&#x164;" horiz-adv-x="617" 
d="M343 752h-69l-84 119h64l54 -80h2l54 80h63zM343 0h-70v641h-173c-15 0 -22 -7 -22 -22v-47h-64v74c0 43 14 57 57 57h475c43 0 57 -14 57 -57v-74h-64v47c0 15 -7 22 -22 22h-174v-641z" />
    <glyph glyph-name="tcaron" unicode="&#x165;" horiz-adv-x="300" 
d="M220 702h62c5 -16 7 -32 7 -48c0 -24 -8 -54 -24 -89h-53c13 31 19 58 19 80c0 19 -4 38 -11 57zM84 183v263h-66v57h67v139h67v-139h127v-57h-127v-256c0 -118 75 -133 114 -133l23 2v-61c-8 -1 -18 -2 -30 -2c-28 0 -51 2 -86 17c-47 22 -89 69 -89 170z" />
    <glyph glyph-name="Tbar" unicode="&#x166;" horiz-adv-x="631" 
d="M350 0h-70v324h-160v57h160v260h-173c-15 0 -22 -7 -22 -22v-47h-65v74c0 43 14 57 57 57h476c43 0 57 -14 57 -57v-74h-65v47c0 15 -7 22 -22 22h-173v-260h166v-57h-166v-324z" />
    <glyph glyph-name="tbar" unicode="&#x167;" horiz-adv-x="304" 
d="M84 183v95h-66v53h66v115h-66v57h67v139h67v-139h127v-57h-127v-115h127v-53h-127v-90c0 -115 75 -131 114 -131l23 2v-61c-8 -1 -18 -2 -29 -2c-28 0 -52 2 -87 17c-46 22 -89 69 -89 170z" />
    <glyph glyph-name="Utilde" unicode="&#x168;" horiz-adv-x="707" 
d="M248 755h-52c0 78 31 117 93 117c58 0 89 -72 126 -72c29 0 41 34 41 69h52c0 -78 -31 -117 -93 -117c-60 -3 -89 74 -127 71c-27 0 -40 -23 -40 -68zM93 241v378c0 15 -7 22 -22 22h-43v62h74c43 0 61 -18 61 -61v-398c0 -116 74 -190 190 -190s190 73 190 192v396
c0 43 18 61 61 61h74v-62h-43c-15 0 -22 -7 -22 -22v-378c0 -76 -24 -137 -72 -184c-47 -46 -110 -69 -187 -69c-78 0 -141 23 -189 69c-48 47 -72 108 -72 184z" />
    <glyph glyph-name="utilde" unicode="&#x169;" horiz-adv-x="601" 
d="M82 183v239c0 15 -7 22 -22 22h-42v59h71c43 0 61 -18 61 -59v-243c0 -95 22 -149 110 -149c55 0 100 21 134 62c35 41 52 91 52 148v241h68v-422c0 -15 7 -22 22 -22h42v-59h-70c-41 0 -61 19 -61 56v23l2 36h-2c-12 -31 -35 -60 -70 -87c-34 -27 -76 -40 -126 -40
c-117 0 -169 63 -169 195zM186 588h-52c0 78 31 117 93 117c58 0 89 -72 126 -72c29 0 41 34 41 69h52c0 -78 -31 -117 -93 -117c-68 0 -82 71 -127 71c-27 0 -40 -23 -40 -68z" />
    <glyph glyph-name="Umacron" unicode="&#x16a;" horiz-adv-x="707" 
d="M93 241v378c0 15 -7 22 -22 22h-43v62h74c43 0 61 -18 61 -61v-398c0 -116 74 -190 190 -190s190 73 190 192v396c0 43 18 61 61 61h74v-62h-43c-15 0 -22 -7 -22 -22v-378c0 -76 -24 -137 -72 -184c-47 -46 -110 -69 -187 -69c-78 0 -141 23 -189 69
c-48 47 -72 108 -72 184zM477 785h-246v54h246v-54z" />
    <glyph glyph-name="umacron" unicode="&#x16b;" horiz-adv-x="601" 
d="M82 183v239c0 15 -7 22 -22 22h-42v59h71c43 0 61 -18 61 -59v-243c0 -95 22 -149 110 -149c55 0 100 21 134 62c35 41 52 91 52 148v241h68v-422c0 -15 7 -22 22 -22h42v-59h-70c-41 0 -61 19 -61 56v23l2 36h-2c-12 -31 -35 -60 -70 -87c-34 -27 -76 -40 -126 -40
c-117 0 -169 63 -169 195zM415 618h-246v54h246v-54z" />
    <glyph glyph-name="Ubreve" unicode="&#x16c;" horiz-adv-x="707" 
d="M93 241v378c0 15 -7 22 -22 22h-43v62h74c43 0 61 -18 61 -61v-398c0 -116 74 -190 190 -190s190 73 190 192v396c0 43 18 61 61 61h74v-62h-43c-15 0 -22 -7 -22 -22v-378c0 -76 -24 -137 -72 -184c-47 -46 -110 -69 -187 -69c-78 0 -141 23 -189 69
c-48 47 -72 108 -72 184zM241 856v15h52v-13c0 -41 26 -62 62 -62c35 0 61 21 61 62v13h52v-15c0 -67 -52 -107 -113 -107s-114 40 -114 107z" />
    <glyph glyph-name="ubreve" unicode="&#x16d;" horiz-adv-x="601" 
d="M82 183v239c0 15 -7 22 -22 22h-42v59h71c43 0 61 -18 61 -59v-243c0 -95 22 -149 110 -149c55 0 100 21 134 62c35 41 52 91 52 148v241h68v-422c0 -15 7 -22 22 -22h42v-59h-70c-41 0 -61 19 -61 56v23l2 36h-2c-12 -31 -35 -60 -70 -87c-34 -27 -76 -40 -126 -40
c-117 0 -169 63 -169 195zM179 689v15h52v-13c0 -41 26 -62 62 -62c35 0 61 21 61 62v13h52v-15c0 -67 -52 -107 -113 -107s-114 40 -114 107z" />
    <glyph glyph-name="Uring" unicode="&#x16e;" horiz-adv-x="707" 
d="M93 241v378c0 15 -7 22 -22 22h-43v62h74c43 0 61 -18 61 -61v-398c0 -116 74 -190 190 -190s190 73 190 192v396c0 43 18 61 61 61h74v-62h-43c-15 0 -22 -7 -22 -22v-378c0 -76 -24 -137 -72 -184c-47 -46 -110 -69 -187 -69c-78 0 -141 23 -189 69
c-48 47 -72 108 -72 184zM406 761c-28 -27 -76 -27 -105 0c-28 27 -28 75 0 102c29 27 77 27 105 0c29 -27 29 -75 0 -102zM354 779c19 0 33 14 33 33c0 44 -66 44 -66 0c0 -19 13 -33 33 -33z" />
    <glyph glyph-name="uring" unicode="&#x16f;" horiz-adv-x="601" 
d="M82 183v239c0 15 -7 22 -22 22h-42v59h71c43 0 61 -18 61 -59v-243c0 -95 22 -149 110 -149c55 0 100 21 134 62c35 41 52 91 52 148v241h68v-422c0 -15 7 -22 22 -22h42v-59h-70c-41 0 -61 19 -61 56v23l2 36h-2c-12 -31 -35 -60 -70 -87c-34 -27 -76 -40 -126 -40
c-117 0 -169 63 -169 195zM344 594c-28 -27 -76 -27 -105 0c-28 27 -28 75 0 102c29 27 77 27 105 0c29 -27 29 -75 0 -102zM292 612c19 0 33 14 33 33c0 44 -66 44 -66 0c0 -19 13 -33 33 -33z" />
    <glyph glyph-name="Uhungarumlaut" unicode="&#x170;" horiz-adv-x="707" 
d="M93 241v378c0 15 -7 22 -22 22h-43v62h74c43 0 61 -18 61 -61v-398c0 -116 74 -190 190 -190s190 73 190 192v396c0 43 18 61 61 61h74v-62h-43c-15 0 -22 -7 -22 -22v-378c0 -76 -24 -137 -72 -184c-47 -46 -110 -69 -187 -69c-78 0 -141 23 -189 69
c-48 47 -72 108 -72 184zM448 752h-59l70 119h76zM320 752h-64l66 119h65z" />
    <glyph glyph-name="uhungarumlaut" unicode="&#x171;" horiz-adv-x="601" 
d="M82 183v239c0 15 -7 22 -22 22h-42v59h71c43 0 61 -18 61 -59v-243c0 -95 22 -149 110 -149c55 0 100 21 134 62c35 41 52 91 52 148v241h68v-422c0 -15 7 -22 22 -22h42v-59h-70c-41 0 -61 19 -61 56v23l2 36h-2c-12 -31 -35 -60 -70 -87c-34 -27 -76 -40 -126 -40
c-117 0 -169 63 -169 195zM386 585h-59l70 119h76zM258 585h-64l66 119h65z" />
    <glyph glyph-name="Uogonek" unicode="&#x172;" horiz-adv-x="710" 
d="M93 241v378c0 15 -7 22 -22 22h-43v62h74c43 0 61 -18 61 -61v-398c0 -116 74 -190 190 -190s190 73 190 192v396c0 43 18 61 61 61h74v-62h-43c-15 0 -22 -7 -22 -22v-384c0 -97 -45 -171 -136 -222c-64 -37 -96 -75 -96 -112c0 -27 26 -44 47 -47l16 -3l-16 -56
c-5 0 -13 0 -38 8c-33 10 -72 33 -72 84c0 35 17 68 51 101v2c-7 -1 -13 -1 -19 -1c-76 0 -138 23 -186 70c-47 47 -71 107 -71 182z" />
    <glyph glyph-name="uogonek" unicode="&#x173;" horiz-adv-x="601" 
d="M83 183v239c0 15 -7 22 -22 22h-42v59h71c52 0 61 -22 61 -87v-215c0 -95 21 -149 109 -149c55 0 100 21 134 62c35 41 52 91 52 148v241h68v-422c0 -15 7 -22 22 -22h42v-59c-48 -37 -72 -70 -72 -99c0 -27 26 -44 46 -47l16 -3l-16 -56c-5 0 -13 0 -38 8
c-33 10 -72 33 -72 84c0 43 22 80 67 112v2h-10c-35 0 -52 18 -52 55v23l2 35h-2c-3 -7 -5 -15 -28 -44c-11 -15 -23 -28 -36 -39c-27 -21 -77 -43 -132 -43c-117 0 -168 62 -168 195z" />
    <glyph glyph-name="Wcircumflex" unicode="&#x174;" horiz-adv-x="944" 
d="M310 0h-84l-161 619c-4 15 -16 22 -37 22h-11v62h31c52 0 73 -11 85 -58l121 -485l16 -75h2c5 26 11 51 18 75l155 540h70l141 -540l16 -75h2c4 26 9 51 15 75l122 485c12 47 32 58 85 58h31v-62h-11c-21 0 -33 -7 -37 -22l-162 -619h-83l-131 489l-22 104h-2
c-9 -39 -17 -73 -26 -103zM424 752h-63l83 119h70l83 -119h-63l-54 81h-2z" />
    <glyph glyph-name="wcircumflex" unicode="&#x175;" horiz-adv-x="844" 
d="M283 0h-76l-144 421c-5 15 -17 23 -34 23h-14v59h35c49 0 64 -9 79 -56l104 -319l14 -54h2c5 20 11 38 16 54l124 373h67l124 -373l15 -54h2c4 19 9 37 15 54l103 319c15 47 30 56 79 56h35v-59h-14c-17 0 -29 -8 -34 -23l-144 -421h-76l-123 358l-15 54h-2
c-5 -19 -10 -37 -16 -54zM366 585h-63l83 119h70l83 -119h-63l-54 81h-2z" />
    <glyph glyph-name="Ycircumflex" unicode="&#x176;" horiz-adv-x="595" 
d="M333 0h-70v306l-189 309c-10 17 -25 26 -46 26h-16v62h26c25 0 44 -3 56 -10c13 -7 26 -22 40 -46l120 -199l43 -79h2c14 28 28 54 43 79l119 199c15 24 28 39 40 46s31 10 56 10h27v-62h-16c-21 0 -37 -9 -47 -26l-188 -309v-306zM243 752h-63l83 119h70l83 -119h-63
l-54 81h-2z" />
    <glyph glyph-name="ycircumflex" unicode="&#x177;" horiz-adv-x="533" 
d="M4 -161l32 49c21 -25 46 -37 75 -37c39 0 70 27 93 82l30 69l-177 419c-7 15 -18 23 -35 23h-10v59h31c45 0 60 -10 77 -55l129 -314l18 -54h2c5 19 10 37 17 54l124 314c17 45 31 55 78 55h31v-59h-10c-17 0 -29 -8 -35 -23l-217 -526c-27 -65 -79 -105 -144 -105
c-41 0 -82 20 -97 36zM208 585h-63l83 119h70l83 -119h-63l-54 81h-2z" />
    <glyph glyph-name="Ydieresis" unicode="&#x178;" horiz-adv-x="595" 
d="M333 0h-70v306l-189 309c-10 17 -25 26 -46 26h-16v62h26c25 0 44 -3 56 -10c13 -7 26 -22 40 -46l120 -199l43 -79h2c14 28 28 54 43 79l119 199c15 24 28 39 40 46s31 10 56 10h27v-62h-16c-21 0 -37 -9 -47 -26l-188 -309v-306zM403 785h-59v86h59v-86zM253 785h-59
v86h59v-86z" />
    <glyph glyph-name="Zacute" unicode="&#x179;" horiz-adv-x="588" 
d="M497 0h-467v49l377 528c16 21 36 45 45 56l7 8v2c-12 -1 -29 -2 -52 -2h-280c-15 0 -22 -7 -22 -22v-47h-65v70c0 43 18 61 61 61h444v-49l-377 -528c-16 -21 -36 -45 -45 -56l-7 -8v-2c12 1 29 2 52 2h303c15 0 22 7 22 22v47h65v-70c0 -43 -18 -61 -61 -61zM332 752
h-59l70 119h76z" />
    <glyph glyph-name="zacute" unicode="&#x17a;" horiz-adv-x="503" 
d="M410 0h-372v44l282 353l40 46v2c-11 -1 -28 -2 -49 -2h-185c-15 0 -22 -7 -22 -22v-39h-63v60c0 43 18 61 61 61h349v-45l-283 -352l-41 -46v-2c12 1 29 2 51 2h208c15 0 22 7 22 22v39h63v-60c0 -43 -18 -61 -61 -61zM285 585h-59l70 119h76z" />
    <glyph glyph-name="Zdotaccent" unicode="&#x17b;" horiz-adv-x="588" 
d="M497 0h-467v49l377 528c16 21 36 45 45 56l7 8v2c-12 -1 -29 -2 -52 -2h-280c-15 0 -22 -7 -22 -22v-47h-65v70c0 43 18 61 61 61h444v-49l-377 -528c-16 -21 -36 -45 -45 -56l-7 -8v-2c12 1 29 2 52 2h303c15 0 22 7 22 22v47h65v-70c0 -43 -18 -61 -61 -61zM336 785
h-66v86h66v-86z" />
    <glyph glyph-name="zdotaccent" unicode="&#x17c;" horiz-adv-x="503" 
d="M410 0h-372v44l282 353l40 46v2c-11 -1 -28 -2 -49 -2h-185c-15 0 -22 -7 -22 -22v-39h-63v60c0 43 18 61 61 61h349v-45l-283 -352l-41 -46v-2c12 1 29 2 51 2h208c15 0 22 7 22 22v39h63v-60c0 -43 -18 -61 -61 -61zM289 618h-66v86h66v-86z" />
    <glyph glyph-name="Zcaron" unicode="&#x17d;" horiz-adv-x="588" 
d="M497 0h-467v49l377 528c16 21 36 45 45 56l7 8v2c-12 -1 -29 -2 -52 -2h-280c-15 0 -22 -7 -22 -22v-47h-65v70c0 43 18 61 61 61h444v-49l-377 -528c-16 -21 -36 -45 -45 -56l-7 -8v-2c12 1 29 2 52 2h303c15 0 22 7 22 22v47h65v-70c0 -43 -18 -61 -61 -61zM337 752
h-69l-84 119h64l54 -80h2l54 80h63z" />
    <glyph glyph-name="zcaron" unicode="&#x17e;" horiz-adv-x="503" 
d="M410 0h-372v44l282 353l40 46v2c-11 -1 -28 -2 -49 -2h-185c-15 0 -22 -7 -22 -22v-39h-63v60c0 43 18 61 61 61h349v-45l-283 -352l-41 -46v-2c12 1 29 2 51 2h208c15 0 22 7 22 22v39h63v-60c0 -43 -18 -61 -61 -61zM290 585h-69l-84 119h64l54 -80h2l54 80h63z" />
    <glyph glyph-name="longs" unicode="&#x17f;" horiz-adv-x="242" 
d="M156 0h-68v446h-63v57h63v18c0 77 27 133 66 156c40 24 72 31 107 31l31 -2v-61c-6 1 -14 2 -24 2c-24 0 -43 -5 -70 -21c-25 -15 -42 -53 -42 -105v-521z" />
    <glyph glyph-name="florin" unicode="&#x192;" 
d="M78 -54l6 60c7 -1 14 -2 23 -2c39 0 114 16 123 129l21 232h-80v57h85l9 99c5 63 29 113 56 138c45 40 98 50 134 49l31 -2l-6 -61c-6 1 -14 2 -24 2c-41 0 -112 -15 -123 -129l-10 -96h110v-57h-114l-21 -235c-15 -164 -133 -187 -189 -186z" />
    <glyph glyph-name="Scommaaccent" unicode="&#x218;" horiz-adv-x="510" 
d="M41 78l-9 10l43 51c4 -4 8 -10 32 -30c31 -27 84 -54 150 -56c39 0 72 12 99 35s40 53 40 90c0 173 -347 139 -347 357c0 50 20 92 60 127s92 53 155 53c27 0 53 -3 80 -10s52 -20 75 -39s35 -43 35 -72v-50h-66v33c0 21 -12 38 -37 52s-54 21 -87 21
c-87 0 -143 -50 -143 -113c0 -163 347 -123 347 -355c0 -55 -20 -101 -59 -138s-90 -56 -154 -56c-53 0 -108 16 -141 35c-33 20 -61 40 -73 55zM223 -63h62c5 -16 7 -32 7 -48c0 -24 -8 -54 -24 -89h-53c13 32 19 59 19 80c0 19 -4 38 -11 57z" />
    <glyph glyph-name="scommaaccent" unicode="&#x219;" horiz-adv-x="434" 
d="M36 67l-7 9l40 46l18 -21c8 -8 25 -19 52 -33s55 -21 84 -21c60 0 106 29 106 80c0 40 -44 69 -100 90c-79 29 -184 68 -182 162c0 88 74 136 179 136c21 0 42 -3 63 -8c44 -9 90 -39 90 -83v-43h-63v24c0 33 -47 52 -87 52c-71 0 -113 -26 -113 -74
c0 -113 283 -87 283 -254c0 -41 -17 -75 -51 -102c-33 -26 -75 -39 -126 -39c-103 0 -165 56 -186 79zM187 -63h62c5 -16 7 -32 7 -48c0 -24 -8 -54 -24 -89h-53c13 32 19 59 19 80c0 19 -4 38 -11 57z" />
    <glyph glyph-name="uni021A" unicode="&#x21a;" horiz-adv-x="617" 
d="M343 0h-70v641h-173c-15 0 -22 -7 -22 -22v-47h-64v74c0 43 14 57 57 57h475c43 0 57 -14 57 -57v-74h-64v47c0 15 -7 22 -22 22h-174v-641zM275 -63h62c5 -16 7 -32 7 -48c0 -24 -8 -54 -24 -89h-53c13 32 19 59 19 80c0 19 -4 38 -11 57z" />
    <glyph glyph-name="uni021B" unicode="&#x21b;" horiz-adv-x="300" 
d="M84 183v263h-66v57h67v139h67v-139h127v-57h-127v-256c0 -118 75 -133 114 -133l23 2v-61c-8 -1 -18 -2 -30 -2c-28 0 -51 2 -86 17c-47 22 -89 69 -89 170zM151 -63h62c5 -16 7 -32 7 -48c0 -24 -8 -54 -24 -89h-53c13 32 19 59 19 80c0 19 -4 38 -11 57z" />
    <glyph glyph-name="circumflex" unicode="&#x2c6;" horiz-adv-x="470" 
d="M180 752h-63l83 119h70l83 -119h-63l-54 81h-2z" />
    <glyph glyph-name="caron" unicode="&#x2c7;" horiz-adv-x="474" 
d="M269 752h-69l-84 119h64l54 -80h2l54 80h63z" />
    <glyph glyph-name="breve" unicode="&#x2d8;" horiz-adv-x="485" 
d="M119 856v15h52v-13c0 -41 26 -62 62 -62c35 0 61 21 61 62v13h52v-15c0 -67 -52 -107 -113 -107s-114 40 -114 107z" />
    <glyph glyph-name="dotaccent" unicode="&#x2d9;" horiz-adv-x="223" 
d="M144 785h-66v86h66v-86z" />
    <glyph glyph-name="ring" unicode="&#x2da;" horiz-adv-x="376" 
d="M240 761c-28 -27 -76 -27 -105 0c-28 27 -28 75 0 102c29 27 77 27 105 0c29 -27 29 -75 0 -102zM188 779c19 0 33 14 33 33c0 44 -66 44 -66 0c0 -19 13 -33 33 -33z" />
    <glyph glyph-name="ogonek" unicode="&#x2db;" horiz-adv-x="343" 
d="M105 -113c0 23 8 46 23 68c16 22 32 38 47 49l23 15l53 -11l-23 -17c-9 -7 -22 -20 -37 -39s-23 -36 -23 -51c0 -27 26 -44 46 -47l16 -3l-15 -56c-5 0 -13 0 -38 8c-33 10 -72 33 -72 84z" />
    <glyph glyph-name="tilde" unicode="&#x2dc;" horiz-adv-x="492" 
d="M141 755h-52c0 78 31 117 93 117c58 0 89 -72 126 -72c29 0 41 34 41 69h52c0 -78 -31 -117 -93 -117c-60 -3 -89 74 -127 71c-27 0 -40 -23 -40 -68z" />
    <glyph glyph-name="hungarumlaut" unicode="&#x2dd;" horiz-adv-x="516" 
d="M297 752h-59l70 119h76zM169 752h-64l66 119h65z" />
    <glyph glyph-name="uni0400" unicode="&#x400;" horiz-adv-x="560" 
d="M102 61v580h-65v62h402c43 0 61 -18 61 -61v-70h-65v47c0 15 -7 22 -22 22h-241v-256h265v-62h-265v-239c0 -15 7 -22 22 -22h248c15 0 22 7 22 22v47h65v-70c0 -43 -18 -61 -61 -61h-305c-43 0 -61 18 -61 61zM345 752h-59l-87 119h76z" />
    <glyph glyph-name="uni0401" unicode="&#x401;" horiz-adv-x="560" 
d="M102 61v580h-65v62h402c43 0 61 -18 61 -61v-70h-65v47c0 15 -7 22 -22 22h-241v-256h265v-62h-265v-239c0 -15 7 -22 22 -22h248c15 0 22 7 22 22v47h65v-70c0 -43 -18 -61 -61 -61h-305c-43 0 -61 18 -61 61zM407 785h-59v86h59v-86zM257 785h-59v86h59v-86z" />
    <glyph glyph-name="uni0402" unicode="&#x402;" horiz-adv-x="729" 
d="M303 0h-70v643h-134c-15 0 -22 -7 -22 -22v-49h-62v74c0 43 14 57 57 57h466v-60h-235v-231l-2 -31h2c61 29 122 44 183 44c141 0 221 -84 221 -211c0 -74 -21 -130 -63 -169c-42 -38 -95 -57 -158 -57c-7 0 -16 0 -28 1l-19 1v60c1 0 28 -2 40 -2c44 0 81 13 112 38
c31 26 46 68 46 125c0 91 -53 150 -161 150c-57 0 -122 -19 -151 -35l-22 -11v-315z" />
    <glyph glyph-name="uni0403" unicode="&#x403;" horiz-adv-x="497" 
d="M172 0h-70v641h-65v62h386c43 0 61 -18 61 -61v-70h-65v47c0 15 -7 22 -22 22h-225v-641zM300 752h-59l70 119h76z" />
    <glyph glyph-name="uni0404" unicode="&#x404;" horiz-adv-x="691" 
d="M509 320h-396c7 -77 36 -140 87 -191c52 -51 116 -76 191 -76c43 0 83 8 121 24s65 32 82 48l26 24l39 -49c-5 -7 -10 -14 -45 -39c-17 -13 -36 -24 -55 -34c-39 -20 -105 -39 -169 -39c-102 0 -186 35 -253 106c-66 71 -99 159 -99 262c0 102 33 187 99 256
c67 69 149 103 248 103c37 0 75 -5 113 -14c39 -9 73 -26 104 -50c31 -23 47 -52 47 -85v-56h-66v39c0 31 -21 55 -63 73c-42 19 -86 28 -133 28c-75 0 -139 -25 -190 -76s-80 -115 -85 -194h397v-60z" />
    <glyph glyph-name="uni0405" unicode="&#x405;" horiz-adv-x="510" 
d="M41 78l-9 10l43 51c4 -4 8 -10 32 -30c31 -27 84 -54 150 -56c39 0 72 12 99 35s40 53 40 90c0 173 -347 139 -347 357c0 50 20 92 60 127s92 53 155 53c27 0 53 -3 80 -10s52 -20 75 -39s35 -43 35 -72v-50h-66v33c0 21 -12 38 -37 52s-54 21 -87 21
c-87 0 -143 -50 -143 -113c0 -163 347 -123 347 -355c0 -55 -20 -101 -59 -138s-90 -56 -154 -56c-53 0 -108 16 -141 35c-33 20 -61 40 -73 55z" />
    <glyph glyph-name="uni0406" unicode="&#x406;" horiz-adv-x="284" 
d="M243 0h-201v62h66v579h-66v62h201v-62h-67v-579h67v-62z" />
    <glyph glyph-name="uni0407" unicode="&#x407;" horiz-adv-x="284" 
d="M247 785h-60v86h60v-86zM96 785h-59v86h59v-86zM242 0h-200v62h66v579h-66v62h200v-62h-66v-579h66v-62z" />
    <glyph glyph-name="uni0408" unicode="&#x408;" horiz-adv-x="495" 
d="M20 197v28h70v-24c0 -103 57 -147 128 -147c72 0 128 45 128 145v420c0 15 -7 22 -22 22h-174v62h205c43 0 61 -18 61 -61v-445c0 -71 -19 -123 -58 -158c-39 -34 -85 -51 -140 -51s-101 17 -140 52s-58 87 -58 157z" />
    <glyph glyph-name="uni0409" unicode="&#x409;" horiz-adv-x="914" 
d="M10 -7v65c125 15 165 179 165 498v85h-66v62h363c43 0 61 -18 61 -61v-239h137c64 0 117 -17 158 -50c42 -33 63 -82 63 -147c0 -131 -90 -206 -223 -206h-144c-43 0 -61 18 -61 61v558c0 15 -7 22 -22 22h-197v-85c0 -88 -3 -162 -9 -223c-5 -60 -16 -117 -32 -170
c-32 -107 -96 -162 -193 -170zM533 342v-259c0 -15 7 -22 22 -22h115c93 0 149 53 149 144c0 89 -54 137 -149 137h-137z" />
    <glyph glyph-name="uni040A" unicode="&#x40a;" horiz-adv-x="987" 
d="M173 0h-70v619c0 15 -7 22 -22 22h-43v62h74c43 0 61 -18 61 -61v-241h362v302h70v-302h142c63 0 115 -16 156 -49s62 -81 62 -144c0 -66 -21 -117 -62 -154c-41 -36 -94 -54 -159 -54h-148c-43 0 -61 18 -61 61v279h-362v-340zM605 340v-257c0 -15 7 -22 22 -22h119
c91 0 146 54 146 146c0 84 -54 133 -146 133h-141z" />
    <glyph glyph-name="uni040B" unicode="&#x40b;" horiz-adv-x="760" 
d="M303 0h-70v643h-134c-15 0 -22 -7 -22 -22v-49h-62v74c0 43 14 57 57 57h466v-60h-235v-236l-2 -33h2c58 34 122 51 192 51c129 0 193 -66 193 -199v-144c0 -13 7 -20 22 -20h43v-62h-74c-43 0 -61 18 -61 61v151c0 100 -41 149 -134 149c-72 0 -144 -28 -181 -56v-305z
" />
    <glyph glyph-name="uni040C" unicode="&#x40c;" horiz-adv-x="588" 
d="M173 0h-70v619c0 15 -7 22 -22 22h-43v62h74c43 0 61 -18 61 -61v-244h84c29 0 49 8 59 25l170 280h80l-181 -295c-11 -17 -24 -31 -31 -36l-5 -3v-2c11 -4 23 -17 34 -40l122 -242c9 -20 22 -23 51 -23h20v-62h-37c-29 0 -50 3 -62 9c-12 7 -24 21 -35 44l-128 257
c-8 17 -29 26 -64 26h-77v-336zM329 752h-59l70 119h76z" />
    <glyph glyph-name="uni040D" unicode="&#x40d;" horiz-adv-x="755" 
d="M171 0h-68v619c0 15 -7 22 -22 22h-43v62h74c43 0 61 -18 61 -61v-442l-6 -94h2c25 41 46 73 62 96l354 501h68v-619c0 -15 7 -22 22 -22h43v-62h-74c-43 0 -61 18 -61 61v442l5 95h-2c-23 -40 -43 -72 -59 -95zM415 752h-59l-87 119h76z" />
    <glyph glyph-name="uni040E" unicode="&#x40e;" horiz-adv-x="607" 
d="M91 31l34 53c25 -21 50 -32 77 -32c45 0 66 29 90 94l-229 473c-7 15 -19 22 -34 22h-19v62h38c44 0 59 -11 80 -58l160 -338l39 -89h2l31 89l123 338c17 48 32 58 83 58h31v-62h-13c-18 0 -30 -7 -35 -21l-201 -517c-30 -77 -77 -115 -140 -115c-45 0 -84 14 -117 43z
M172 854v17h59v-14c-5 -92 151 -92 147 0v14h58v-17c0 -72 -60 -117 -132 -117s-132 45 -132 117z" />
    <glyph glyph-name="uni040F" unicode="&#x40f;" horiz-adv-x="727" 
d="M102 61v558c0 15 -7 22 -22 22h-43v62h74c43 0 61 -18 61 -61v-558c0 -15 7 -22 22 -22h338c15 0 22 7 22 22v558c0 43 18 61 61 61h74v-62h-43c-15 0 -22 -7 -22 -22v-558c0 -43 -17 -61 -60 -61h-168v-140h-65v140h-168c-43 0 -61 18 -61 61z" />
    <glyph glyph-name="uni0410" unicode="&#x410;" horiz-adv-x="656" 
d="M44 0h-32v62h12c19 0 31 7 36 22l230 619h75l230 -619c5 -15 17 -22 36 -22h13v-62h-33c-25 0 -43 4 -54 11c-10 7 -19 23 -28 47l-62 166h-279l-61 -166c-17 -48 -32 -58 -83 -58zM300 536l-92 -251h241l-93 251l-28 91h-2c-10 -39 -19 -69 -26 -91z" />
    <glyph glyph-name="uni0411" unicode="&#x411;" horiz-adv-x="578" 
d="M102 61v580h-65v62h397c43 0 61 -18 61 -61v-70h-66v47c0 15 -7 22 -22 22h-235v-233h150c64 0 117 -18 160 -53s65 -84 65 -149s-21 -115 -64 -152c-42 -36 -96 -54 -161 -54h-159c-43 0 -61 18 -61 61zM172 347v-264c0 -15 7 -22 22 -22h130c92 0 150 55 150 144
c0 88 -58 142 -150 142h-152z" />
    <glyph glyph-name="uni0412" unicode="&#x412;" horiz-adv-x="601" 
d="M102 61v580h-65v62h302c112 0 190 -69 190 -177c0 -73 -30 -124 -90 -153v-2c72 -20 118 -89 118 -174c0 -61 -20 -109 -60 -144c-39 -35 -89 -53 -150 -53h-184c-43 0 -61 18 -61 61zM172 641v-243h167c71 0 119 50 119 123c0 72 -47 120 -120 120h-166zM172 338v-254
c0 -15 7 -22 22 -22h154c84 0 137 53 137 137s-55 139 -138 139h-175z" />
    <glyph glyph-name="uni0413" unicode="&#x413;" horiz-adv-x="497" 
d="M172 0h-70v641h-65v62h386c43 0 61 -18 61 -61v-70h-65v47c0 15 -7 22 -22 22h-225v-641z" />
    <glyph glyph-name="uni0414" unicode="&#x414;" horiz-adv-x="704" 
d="M10 -140v142c0 43 17 60 60 60h19c33 44 59 97 77 160c19 63 30 120 34 169s6 108 6 175v75h-63v62h389c43 0 61 -18 61 -61v-580h26c43 0 60 -17 60 -60v-142h-66v118c0 15 -7 22 -21 22h-495c-14 0 -21 -7 -21 -22v-118h-66zM164 62h359v557c0 15 -7 22 -22 22h-228
v-77c0 -230 -36 -397 -109 -502z" />
    <glyph glyph-name="uni0415" unicode="&#x415;" horiz-adv-x="560" 
d="M102 61v580h-65v62h402c43 0 61 -18 61 -61v-70h-65v47c0 15 -7 22 -22 22h-241v-256h265v-62h-265v-239c0 -15 7 -22 22 -22h248c15 0 22 7 22 22v47h65v-70c0 -43 -18 -61 -61 -61h-305c-43 0 -61 18 -61 61z" />
    <glyph glyph-name="uni0416" unicode="&#x416;" horiz-adv-x="847" 
d="M88 0h-79l200 326c11 17 26 32 34 36l6 4v2c-11 5 -22 19 -34 40l-118 210c-9 15 -27 23 -52 23h-20v62h34c28 0 47 -3 58 -10c11 -6 23 -20 36 -43l126 -223c11 -20 33 -30 65 -30h45v306h68v-306h45c33 0 55 10 66 30l126 223c13 23 24 37 35 43c11 7 30 10 58 10h34
v-62h-20c-25 0 -42 -8 -51 -23l-119 -210c-11 -19 -24 -33 -29 -37l-5 -3v-2c15 -7 29 -20 41 -40l200 -326h-80l-185 306c-16 25 -33 31 -62 31h-54v-337h-68v337h-53c-29 0 -50 -10 -62 -31z" />
    <glyph glyph-name="uni0417" unicode="&#x417;" horiz-adv-x="516" 
d="M22 78l44 51c37 -43 104 -77 169 -77c47 0 87 13 119 40s48 62 48 106c0 84 -65 136 -150 136h-86v60h71c39 0 73 12 100 36c27 25 41 56 41 95c0 75 -46 126 -138 126c-69 0 -127 -33 -127 -74v-32h-66v49c0 28 11 52 34 71c47 39 105 50 162 50c133 0 207 -71 207 -182
c0 -73 -35 -126 -106 -159v-2c80 -21 130 -87 130 -176c0 -62 -22 -112 -67 -151c-44 -38 -101 -57 -171 -57c-87 0 -169 37 -214 90z" />
    <glyph glyph-name="uni0418" unicode="&#x418;" horiz-adv-x="755" 
d="M171 0h-68v619c0 15 -7 22 -22 22h-43v62h74c43 0 61 -18 61 -61v-442l-6 -94h2c25 41 46 73 62 96l354 501h68v-619c0 -15 7 -22 22 -22h43v-62h-74c-43 0 -61 18 -61 61v442l5 95h-2c-23 -40 -43 -72 -59 -95z" />
    <glyph glyph-name="uni0419" unicode="&#x419;" horiz-adv-x="755" 
d="M171 0h-68v619c0 15 -7 22 -22 22h-43v62h74c43 0 61 -18 61 -61v-442l-6 -94h2c25 41 46 73 62 96l354 501h68v-619c0 -15 7 -22 22 -22h43v-62h-74c-43 0 -61 18 -61 61v442l5 95h-2c-23 -40 -43 -72 -59 -95zM237 854v17h59v-14c-5 -92 151 -92 147 0v14h58v-17
c0 -72 -60 -117 -132 -117s-132 45 -132 117z" />
    <glyph glyph-name="uni041A" unicode="&#x41a;" horiz-adv-x="588" 
d="M173 0h-70v619c0 15 -7 22 -22 22h-43v62h74c43 0 61 -18 61 -61v-244h84c29 0 49 8 59 25l170 280h80l-181 -295c-11 -17 -24 -31 -31 -36l-5 -3v-2c11 -4 23 -17 34 -40l122 -242c9 -20 22 -23 51 -23h20v-62h-37c-29 0 -50 3 -62 9c-12 7 -24 21 -35 44l-128 257
c-8 17 -29 26 -64 26h-77v-336z" />
    <glyph glyph-name="uni041B" unicode="&#x41b;" horiz-adv-x="667" 
d="M10 -4v65c125 17 168 183 168 504v76h-66v62h391c43 0 61 -18 61 -61v-558c0 -15 7 -22 22 -22h43v-62h-74c-43 0 -61 18 -61 61v558c0 15 -7 22 -22 22h-227v-76c0 -141 -7 -243 -28 -340c-29 -140 -92 -217 -207 -229z" />
    <glyph glyph-name="uni041C" unicode="&#x41c;" horiz-adv-x="847" 
d="M90 0h-67v62h37c14 0 21 7 22 22l49 619h71l186 -409l35 -83h2c12 31 23 59 34 83l186 409h71l50 -619c1 -15 8 -22 22 -22h37v-62h-67c-43 0 -58 17 -61 61l-34 427l-2 98h-2c-14 -41 -26 -74 -37 -98l-167 -357h-63l-166 357l-37 100h-2c1 -41 0 -75 -3 -100l-33 -427
c-3 -44 -18 -61 -61 -61z" />
    <glyph glyph-name="uni041D" unicode="&#x41d;" horiz-adv-x="749" 
d="M173 0h-70v619c0 15 -7 22 -22 22h-43v62h74c43 0 61 -18 61 -61v-259h404v259c0 43 18 61 61 61h74v-62h-43c-15 0 -22 -7 -22 -22v-619h-70v321h-404v-321z" />
    <glyph glyph-name="uni041E" unicode="&#x41e;" horiz-adv-x="791" 
d="M38 356c0 101 35 186 104 255s154 104 254 104s185 -35 254 -104s104 -154 104 -255c0 -103 -35 -190 -105 -261c-69 -71 -154 -107 -253 -107c-100 0 -185 36 -254 107s-104 158 -104 261zM111 356c0 -85 28 -156 83 -215c55 -58 123 -87 202 -87s146 29 201 87
c56 59 84 130 84 215c0 83 -28 152 -83 208c-55 57 -123 85 -202 85s-147 -28 -202 -85c-55 -56 -83 -125 -83 -208z" />
    <glyph glyph-name="uni041F" unicode="&#x41f;" horiz-adv-x="738" 
d="M172 0h-70v641h-65v62h537c43 0 61 -18 61 -61v-558c0 -15 7 -22 22 -22h43v-62h-74c-43 0 -61 18 -61 61v558c0 15 -7 22 -22 22h-371v-641z" />
    <glyph glyph-name="uni0420" unicode="&#x420;" horiz-adv-x="573" 
d="M172 0h-70v641h-65v62h298c63 0 115 -19 156 -58s61 -90 61 -154c0 -65 -20 -117 -61 -156s-93 -59 -156 -59h-163v-276zM172 641v-303h154c93 0 153 58 153 153c0 93 -59 150 -152 150h-155z" />
    <glyph glyph-name="uni0421" unicode="&#x421;" horiz-adv-x="693" 
d="M39 357c0 101 33 186 99 255c67 69 149 103 248 103c37 0 75 -5 113 -14s72 -26 103 -50c31 -23 47 -52 47 -85v-58h-66v39c0 31 -21 55 -63 74s-86 28 -132 28c-79 0 -144 -28 -197 -83s-79 -124 -79 -209s27 -156 80 -215s120 -88 199 -88c117 -1 192 64 221 89l9 10
l40 -51c-5 -7 -10 -13 -45 -40c-17 -13 -36 -24 -56 -34c-39 -20 -105 -40 -170 -40c-102 0 -186 35 -252 106s-99 159 -99 263z" />
    <glyph glyph-name="uni0422" unicode="&#x422;" horiz-adv-x="617" 
d="M343 0h-70v641h-173c-15 0 -22 -7 -22 -22v-47h-64v74c0 43 14 57 57 57h475c43 0 57 -14 57 -57v-74h-64v47c0 15 -7 22 -22 22h-174v-641z" />
    <glyph glyph-name="uni0423" unicode="&#x423;" horiz-adv-x="607" 
d="M91 31l34 53c25 -21 50 -32 77 -32c45 0 66 29 90 94l-229 473c-7 15 -19 22 -34 22h-19v62h38c44 0 59 -11 80 -58l160 -338l39 -89h2l31 89l123 338c17 48 32 58 83 58h31v-62h-13c-18 0 -30 -7 -35 -21l-201 -517c-30 -77 -77 -115 -140 -115c-45 0 -84 14 -117 43z
" />
    <glyph glyph-name="uni0424" unicode="&#x424;" horiz-adv-x="805" 
d="M36 373c0 89 30 160 90 213c61 53 141 80 241 80v84h70v-84c100 0 180 -27 241 -80s91 -124 91 -213c0 -90 -30 -162 -91 -215c-60 -53 -140 -79 -241 -79v-91h-70v91c-100 0 -180 26 -241 79c-60 53 -90 125 -90 215zM437 606v-467c161 0 259 86 259 234
c0 147 -98 233 -259 233zM108 373c0 -148 99 -234 259 -234v467c-160 0 -259 -86 -259 -233z" />
    <glyph glyph-name="uni0425" unicode="&#x425;" horiz-adv-x="572" 
d="M96 0h-80l224 367l-152 248c-11 17 -27 26 -50 26h-21v62h36c51 0 70 -11 98 -56l89 -151l46 -80h2c14 29 28 56 42 80l91 151c28 45 46 56 97 56h37v-62h-21c-23 0 -40 -9 -51 -26l-152 -248l225 -367h-80l-146 242l-45 77h-2c-14 -27 -28 -53 -43 -78z" />
    <glyph glyph-name="uni0426" unicode="&#x426;" horiz-adv-x="734" 
d="M102 61v558c0 15 -7 22 -22 22h-43v62h74c43 0 61 -18 61 -61v-558c0 -15 7 -22 22 -22h361v641h70v-641h20c43 0 60 -17 60 -60v-142h-65v118c0 15 -7 22 -21 22h-456c-43 0 -61 18 -61 61z" />
    <glyph glyph-name="uni0427" unicode="&#x427;" horiz-adv-x="628" 
d="M291 277c-141 0 -211 66 -211 199v143c0 15 -7 22 -22 22h-43v62h74c43 0 61 -18 61 -61v-152c0 -100 45 -149 152 -149c64 0 131 27 168 55v307h70v-703h-70v296l2 33h-2c-59 -35 -119 -52 -179 -52z" />
    <glyph glyph-name="uni0428" unicode="&#x428;" horiz-adv-x="997" 
d="M102 61v558c0 15 -7 22 -22 22h-43v62h74c43 0 61 -18 61 -61v-558c0 -15 7 -22 22 -22h269v641h70v-641h270c15 0 22 7 22 22v558c0 43 18 61 61 61h74v-62h-43c-15 0 -22 -7 -22 -22v-558c0 -43 -18 -61 -61 -61h-671c-43 0 -61 18 -61 61z" />
    <glyph glyph-name="uni0429" unicode="&#x429;" horiz-adv-x="1008" 
d="M102 61v558c0 15 -7 22 -22 22h-43v62h74c43 0 61 -18 61 -61v-558c0 -15 7 -22 22 -22h269v641h70v-641h291v641h70v-641h28c43 0 60 -17 60 -60v-142h-64v118c0 15 -7 22 -22 22h-733c-43 0 -61 18 -61 61z" />
    <glyph glyph-name="uni042A" unicode="&#x42a;" horiz-adv-x="712" 
d="M247 61v580h-146c-15 0 -22 -7 -22 -22v-47h-65v74c0 43 14 57 57 57h311v-62h-65v-223h153c65 0 117 -18 158 -54s61 -87 61 -153c0 -67 -21 -119 -63 -156s-97 -55 -164 -55h-154c-43 0 -61 18 -61 61zM317 356v-272c0 -15 7 -22 22 -22h125c95 0 152 55 152 148
c0 95 -56 146 -152 146h-147z" />
    <glyph glyph-name="uni042B" unicode="&#x42b;" horiz-adv-x="818" 
d="M645 61v642h70v-619c0 -15 7 -22 22 -22h43v-62h-74c-43 0 -61 18 -61 61zM102 61v558c0 15 -7 22 -22 22h-43v62h74c43 0 61 -18 61 -61v-222h149c64 0 116 -18 157 -55c41 -36 61 -87 61 -152c0 -67 -21 -120 -63 -157c-41 -37 -96 -56 -163 -56h-150
c-43 0 -61 18 -61 61zM172 358v-274c0 -15 7 -22 22 -22h121c95 0 151 54 151 150c0 92 -58 146 -151 146h-143z" />
    <glyph glyph-name="uni042C" unicode="&#x42c;" horiz-adv-x="563" 
d="M102 61v558c0 15 -7 22 -22 22h-43v62h74c43 0 61 -18 61 -61v-222h150c65 0 117 -18 158 -54s61 -87 61 -153c0 -67 -21 -120 -63 -157s-97 -56 -164 -56h-151c-43 0 -61 18 -61 61zM172 358v-274c0 -15 7 -22 22 -22h122c95 0 152 55 152 151c0 93 -56 145 -152 145
h-144z" />
    <glyph glyph-name="uni042D" unicode="&#x42d;" horiz-adv-x="692" 
d="M33 95l38 49c22 -24 54 -45 97 -64c43 -18 88 -27 134 -27c75 0 138 25 190 76s81 115 87 192h-394v60h394c-4 78 -32 142 -84 193c-51 51 -115 76 -191 76c-81 2 -197 -37 -197 -101v-39h-66v56c0 45 27 81 82 108s116 41 181 41c101 0 185 -34 250 -102
c66 -68 99 -153 99 -255c0 -103 -33 -191 -100 -263c-66 -71 -150 -107 -251 -107c-53 0 -104 10 -153 31s-87 46 -116 76z" />
    <glyph glyph-name="uni042E" unicode="&#x42e;" horiz-adv-x="1035" 
d="M173 0h-70v619c0 15 -7 22 -22 22h-43v62h74c43 0 61 -18 61 -61v-259h129c5 94 41 173 108 236c67 64 146 96 239 96c97 0 180 -35 247 -104c68 -69 102 -154 102 -255c0 -103 -34 -190 -102 -261c-67 -71 -150 -107 -247 -107c-91 0 -170 32 -236 95s-103 143 -110 238
h-130v-321zM373 356c0 -85 27 -156 80 -215c54 -58 119 -87 196 -87s142 29 195 87c54 59 81 130 81 215c0 83 -27 152 -81 208c-53 57 -118 85 -195 85s-142 -28 -196 -85c-53 -56 -80 -125 -80 -208z" />
    <glyph glyph-name="uni042F" unicode="&#x42f;" horiz-adv-x="609" 
d="M49 0h-30v62h13c26 0 43 8 52 23l111 187c8 13 19 24 24 28l4 2v2c-17 1 -47 14 -86 41s-69 83 -69 152c0 63 20 113 61 150s94 56 159 56h284v-62h-65v-641h-70v285h-108c-39 0 -51 -7 -72 -44l-111 -187c-13 -23 -26 -37 -38 -44c-11 -7 -31 -10 -59 -10zM293 347h144
v294h-144c-93 0 -152 -54 -152 -146c0 -91 64 -148 152 -148z" />
    <glyph glyph-name="uni0430" unicode="&#x430;" horiz-adv-x="514" 
d="M31 135c0 117 103 175 308 175h28v7c0 103 -36 141 -129 141c-21 0 -43 -3 -65 -10s-33 -18 -33 -34v-32h-66v48c0 32 29 58 66 69c37 12 70 16 97 16c75 0 126 -17 155 -51c29 -33 43 -81 43 -142v-241c0 -15 7 -22 22 -22h42v-59h-69c-43 0 -60 19 -60 59l1 38h-2
c2 0 -44 -109 -168 -109c-46 0 -86 13 -120 39c-33 26 -50 62 -50 108zM100 141c0 -51 42 -96 113 -96c46 0 83 19 111 58c29 39 43 82 43 130v23h-29c-56 0 -88 -2 -147 -15c-57 -13 -91 -48 -91 -100z" />
    <glyph glyph-name="uni0431" unicode="&#x431;" horiz-adv-x="558" 
d="M285 -12c-81 0 -140 27 -178 82c-37 55 -56 128 -56 218c0 87 11 155 33 206c23 51 66 90 131 118l122 55c48 20 59 30 59 55v28h66v-37c0 -55 -22 -73 -90 -101l-130 -57c-95 -43 -123 -112 -127 -208h1c39 73 102 109 187 109c63 0 114 -21 153 -63
c40 -41 60 -98 60 -169s-22 -128 -65 -171s-98 -65 -166 -65zM125 225c0 -109 69 -177 161 -177c45 0 83 16 114 47c31 32 46 75 46 128s-15 96 -45 127s-67 47 -111 47c-49 0 -88 -16 -119 -49s-46 -74 -46 -123z" />
    <glyph glyph-name="uni0432" unicode="&#x432;" horiz-adv-x="497" 
d="M86 56v388h-64v59h245c104 0 166 -45 166 -128c0 -55 -25 -92 -76 -110v-2c64 -13 102 -62 102 -122c0 -87 -69 -141 -182 -141h-135c-40 0 -56 17 -56 56zM154 450v-165h106c67 0 103 32 103 85s-35 80 -106 80h-103zM154 234v-160c0 -14 7 -21 20 -21h94
c81 0 121 30 121 90c0 59 -43 91 -122 91h-113z" />
    <glyph glyph-name="uni0433" unicode="&#x433;" horiz-adv-x="425" 
d="M156 0h-68v444h-64v59h322c44 0 61 -15 61 -58v-63h-58v40c0 15 -7 22 -22 22h-171v-444z" />
    <glyph glyph-name="uni0434" unicode="&#x434;" horiz-adv-x="569" 
d="M10 -120v120c0 40 17 58 60 58h7c63 73 94 192 94 357v29h-63v59h307c43 0 61 -18 61 -61v-384h19c43 0 60 -18 60 -58v-120h-64v98c0 15 -7 22 -22 22h-373c-15 0 -22 -7 -22 -22v-98h-64zM150 58h258v364c0 15 -7 22 -22 22h-149v-28c0 -162 -29 -281 -87 -358z" />
    <glyph glyph-name="uni0435" unicode="&#x435;" horiz-adv-x="533" 
d="M37 251c0 80 24 144 71 192c48 48 107 72 177 72c67 0 118 -22 155 -67c37 -44 56 -99 56 -165c0 -7 -1 -18 -2 -33h-386c1 -62 20 -111 57 -147c38 -36 84 -54 138 -54c57 0 108 20 153 61l31 -52c-47 -43 -120 -70 -187 -70c-75 0 -138 25 -188 74s-75 112 -75 189z
M111 301h316c-4 101 -64 158 -143 158c-87 0 -157 -59 -173 -158z" />
    <glyph glyph-name="uni0436" unicode="&#x436;" horiz-adv-x="717" 
d="M99 0h-81l127 210c16 25 38 41 49 44l9 2v2c-17 5 -30 18 -41 39l-62 125c-9 17 -20 22 -48 22h-21v59h37c52 0 69 -7 90 -50l65 -133c12 -23 34 -34 65 -34h38v217h66v-217h37c31 0 53 11 64 34l66 133c21 43 38 50 89 50h38v-59h-22c-28 0 -38 -5 -47 -22l-62 -125
c-9 -19 -26 -32 -35 -36l-6 -3v-2c21 -3 40 -18 57 -46l128 -210h-80l-109 182c-18 29 -45 44 -82 44h-36v-226h-66v226h-37c-37 0 -64 -15 -82 -44z" />
    <glyph glyph-name="uni0437" unicode="&#x437;" horiz-adv-x="428" 
d="M26 61l36 47c36 -41 81 -61 136 -61c67 0 121 34 121 98c0 57 -43 89 -122 89h-62v52h53c72 0 113 30 113 87c0 56 -40 85 -103 85c-47 0 -93 -18 -93 -53v-23h-60v42c0 29 16 52 47 67c32 16 69 24 112 24c100 0 167 -48 167 -135c0 -57 -26 -96 -78 -115v-2
c57 -12 95 -54 95 -121c0 -49 -18 -87 -55 -114c-36 -27 -80 -40 -132 -40c-68 0 -126 24 -175 73z" />
    <glyph glyph-name="uni0438" unicode="&#x438;" horiz-adv-x="604" 
d="M152 0h-65v422c0 15 -7 22 -21 22h-42v59h68c43 0 60 -18 60 -59v-272c0 -19 -2 -47 -3 -66l-1 -13h2c3 9 21 35 54 79l247 331h66v-422c0 -15 7 -22 21 -22h41v-59h-67c-43 0 -61 17 -61 60v272c0 39 2 65 5 78h-2c-5 -11 -23 -37 -54 -78z" />
    <glyph glyph-name="uni0439" unicode="&#x439;" horiz-adv-x="604" 
d="M152 0h-65v422c0 15 -7 22 -21 22h-42v59h68c43 0 60 -18 60 -59v-272c0 -19 -2 -47 -3 -66l-1 -13h2c3 9 21 35 54 79l247 331h66v-422c0 -15 7 -22 21 -22h41v-59h-67c-43 0 -61 17 -61 60v272c0 39 2 65 5 78h-2c-5 -11 -23 -37 -54 -78zM168 687v17h59v-14
c-5 -92 151 -92 147 0v14h58v-17c0 -72 -60 -117 -132 -117s-132 45 -132 117z" />
    <glyph glyph-name="uni043A" unicode="&#x43a;" horiz-adv-x="504" 
d="M156 0h-68v422c0 15 -7 22 -22 22h-42v59h71c43 0 61 -18 61 -61v-145h50c27 0 46 8 58 25l132 181h80l-146 -198c-13 -19 -27 -31 -34 -34l-4 -2v-2c11 -5 22 -18 34 -37l90 -149c11 -17 19 -22 46 -22h27v-59h-47c-51 0 -64 9 -87 50l-99 165c-9 15 -26 22 -52 22h-48
v-237z" />
    <glyph glyph-name="uni043B" unicode="&#x43b;" horiz-adv-x="522" 
d="M11 -4v62c51 0 90 56 107 133s25 149 25 214v39h-64v59h295c43 0 61 -18 61 -61v-361c0 -15 7 -22 22 -22h42v-59h-71c-43 0 -61 18 -61 61v361c0 15 -7 22 -22 22h-136v-40c0 -21 -1 -44 -3 -67c-3 -45 -9 -120 -28 -177c-29 -86 -76 -164 -167 -164z" />
    <glyph glyph-name="uni043C" unicode="&#x43c;" horiz-adv-x="712" 
d="M74 0h-55v59h29c12 0 19 7 20 20l35 424h72l151 -315l30 -64h1l30 64l151 315h71l35 -424c1 -13 8 -20 20 -20h29v-59h-55c-40 0 -52 16 -55 55l-22 265l-2 89h-2c-7 -22 -17 -47 -30 -75l-138 -276h-67l-137 276c-11 23 -22 51 -27 66l-3 10h-2c0 -42 -1 -72 -2 -90
l-22 -265c-3 -39 -15 -55 -55 -55z" />
    <glyph glyph-name="uni043D" unicode="&#x43d;" horiz-adv-x="605" 
d="M156 0h-68v422c0 15 -7 22 -22 22h-42v59h71c43 0 61 -18 61 -61v-154h293v215h68v-422c0 -15 7 -22 22 -22h42v-59h-71c-43 0 -61 18 -61 61v167h-293v-228z" />
    <glyph glyph-name="uni043E" unicode="&#x43e;" horiz-adv-x="604" 
d="M37 254c0 74 26 136 77 186s114 75 188 75s137 -25 188 -75s77 -112 77 -186c0 -75 -26 -139 -77 -190s-114 -76 -188 -76s-137 25 -188 76s-77 115 -77 190zM106 254c0 -58 19 -107 57 -146s84 -59 139 -59s101 20 139 59s57 88 57 146c0 57 -19 104 -57 142
c-38 39 -84 58 -139 58s-101 -19 -139 -58c-38 -38 -57 -85 -57 -142z" />
    <glyph glyph-name="uni043F" unicode="&#x43f;" horiz-adv-x="590" 
d="M156 0h-68v444h-64v59h418c43 0 61 -18 61 -61v-361c0 -15 7 -22 22 -22h42v-59h-71c-43 0 -61 18 -61 61v361c0 15 -7 22 -22 22h-257v-444z" />
    <glyph glyph-name="uni0440" unicode="&#x440;" horiz-adv-x="584" 
d="M156 -200h-68v622c0 15 -7 22 -22 22h-42v59h68c40 0 60 -18 60 -53l-1 -34h2c3 5 4 11 23 34c24 31 72 65 151 65c67 0 120 -24 159 -73c40 -49 60 -112 60 -191s-21 -142 -64 -191c-42 -48 -96 -72 -162 -72c-95 0 -146 60 -159 85l-5 10h-2c1 -12 2 -27 2 -44v-239z
M154 250c0 -55 14 -102 42 -142s67 -60 117 -60c47 0 85 18 116 55s47 86 47 148c0 121 -66 202 -159 202s-163 -68 -163 -203z" />
    <glyph glyph-name="uni0441" unicode="&#x441;" horiz-adv-x="524" 
d="M37 251c0 77 25 140 75 189c51 50 114 75 189 75c23 0 48 -3 73 -9c25 -5 49 -17 72 -34s34 -39 34 -64v-45h-63v29c0 19 -13 34 -39 45c-25 11 -51 17 -77 17c-55 0 -102 -19 -139 -57c-37 -37 -56 -86 -56 -146s19 -109 57 -146c39 -37 86 -55 141 -55
c80 0 139 45 156 64l6 7l31 -51c-4 -4 -7 -9 -32 -29c-32 -25 -88 -51 -165 -53c-75 0 -138 24 -188 73s-75 113 -75 190z" />
    <glyph glyph-name="uni0442" unicode="&#x442;" horiz-adv-x="514" 
d="M291 0h-68v443h-125c-15 0 -22 -7 -22 -22v-39h-58v62c0 43 17 59 61 59h356c44 0 61 -16 61 -59v-62h-58v39c0 15 -7 22 -22 22h-125v-443z" />
    <glyph glyph-name="uni0443" unicode="&#x443;" horiz-adv-x="533" 
d="M113 -210c-41 0 -82 20 -97 36l-12 13l32 49c1 -3 33 -37 75 -37c39 0 70 27 93 82l30 69l-177 419c-7 15 -18 23 -35 23h-10v59h31c45 0 60 -10 77 -55l129 -314l18 -54h2c5 19 10 37 17 54l124 314c17 45 31 55 78 55h31v-59h-10c-17 0 -29 -8 -35 -23l-217 -526
c-27 -65 -79 -105 -144 -105z" />
    <glyph glyph-name="uni0444" unicode="&#x444;" horiz-adv-x="709" 
d="M38 254c0 74 26 134 77 180s120 69 206 69v119c0 15 -7 22 -22 22h-42v59h71c43 0 61 -18 61 -61v-139c85 0 154 -23 205 -69c52 -46 78 -106 78 -180c0 -75 -26 -136 -78 -183c-51 -47 -120 -70 -205 -71v-200h-68v200c-86 1 -155 24 -206 71s-77 108 -77 183zM389 443
v-384c65 0 117 18 155 54c39 36 58 83 58 141c0 57 -19 102 -58 137c-38 35 -90 53 -155 52zM107 254c0 -117 82 -195 214 -195v384c-66 1 -118 -17 -157 -52c-38 -35 -57 -80 -57 -137z" />
    <glyph glyph-name="uni0445" unicode="&#x445;" horiz-adv-x="485" 
d="M102 0h-80l176 262l-109 161c-10 14 -26 21 -47 21h-21v59h37c25 0 43 -3 54 -10s25 -22 40 -45l73 -112l16 -30h2l17 30l72 112c15 23 28 38 39 45s30 10 55 10h37v-59h-21c-21 0 -36 -7 -46 -20l-110 -162l176 -262h-79l-123 187l-17 28h-2l-17 -28z" />
    <glyph glyph-name="uni0446" unicode="&#x446;" horiz-adv-x="588" 
d="M87 60v362c0 15 -7 22 -22 22h-42v59h71c43 0 61 -18 61 -61v-361c0 -15 7 -22 21 -22h251v444h68v-445h19c43 0 60 -18 60 -58v-120h-65v98c0 15 -7 22 -21 22h-341c-43 0 -60 17 -60 60z" />
    <glyph glyph-name="uni0447" unicode="&#x447;" horiz-adv-x="522" 
d="M241 183c-107 0 -161 51 -161 154v85c0 15 -7 22 -22 22h-40v59h69c44 0 60 -20 60 -61v-92c0 -63 24 -105 108 -105c46 0 89 14 128 41v217h68v-503h-68v191l2 34h-2c-36 -25 -94 -42 -142 -42z" />
    <glyph glyph-name="uni0448" unicode="&#x448;" horiz-adv-x="805" 
d="M87 60v362c0 15 -7 22 -22 22h-42v59h71c43 0 61 -18 61 -61v-361c0 -15 7 -22 21 -22h192v444h68v-444h193c15 0 22 7 22 22v361c0 43 18 61 61 61h71v-59h-42c-15 0 -22 -7 -22 -22v-362c0 -43 -18 -60 -61 -60h-511c-43 0 -60 17 -60 60z" />
    <glyph glyph-name="uni0449" unicode="&#x449;" horiz-adv-x="812" 
d="M87 60v362c0 15 -7 22 -22 22h-42v59h71c43 0 61 -18 61 -61v-362c0 -15 7 -22 21 -22h192v445h68v-445h215v445h68v-446h25c43 0 60 -18 60 -58v-119h-64v98c0 15 -7 22 -22 22h-571c-43 0 -60 17 -60 60z" />
    <glyph glyph-name="uni044A" unicode="&#x44a;" horiz-adv-x="567" 
d="M190 56v368c0 15 -7 22 -21 22h-73c-14 0 -21 -7 -21 -22v-41h-57v62c0 43 17 58 61 58h118c43 0 61 -18 61 -61v-132h109c108 0 177 -60 177 -156c0 -92 -70 -154 -177 -154h-121c-40 0 -56 17 -56 56zM258 257v-182c0 -15 7 -22 20 -22h84c69 0 112 40 112 101
c0 63 -40 103 -112 103h-104z" />
    <glyph glyph-name="uni044B" unicode="&#x44b;" horiz-adv-x="679" 
d="M523 61v442h68v-422c0 -15 7 -22 22 -22h42v-59h-71c-43 0 -61 18 -61 61zM87 56v366c0 15 -7 22 -22 22h-42v59h71c41 0 61 -19 61 -58v-136h108c107 0 174 -59 174 -155c0 -92 -67 -154 -174 -154h-120c-40 0 -56 17 -56 56zM155 256v-181c0 -15 7 -22 20 -22h82
c71 0 110 40 110 101c0 64 -38 102 -110 102h-102z" />
    <glyph glyph-name="uni044C" unicode="&#x44c;" horiz-adv-x="462" 
d="M87 56v366c0 15 -7 22 -22 22h-42v59h71c40 0 60 -19 61 -58v-136h111c105 0 171 -59 171 -155c0 -92 -67 -154 -171 -154h-123c-40 0 -56 17 -56 56zM155 256v-181c0 -15 7 -22 20 -22h86c67 0 107 40 107 101c0 63 -38 102 -107 102h-106z" />
    <glyph glyph-name="uni044D" unicode="&#x44d;" horiz-adv-x="525" 
d="M30 65l29 51c42 -46 97 -69 165 -69c51 0 95 16 132 49s58 76 63 128h-258v53h258c-5 53 -26 96 -63 129s-78 50 -125 50c-31 0 -60 -6 -89 -18c-28 -11 -42 -26 -42 -45v-27h-61v40c0 29 18 55 55 76c37 22 83 33 138 33c71 0 132 -25 181 -75c50 -50 75 -113 75 -189
c0 -77 -25 -141 -75 -190s-113 -73 -188 -73c-81 0 -146 26 -195 77z" />
    <glyph glyph-name="uni044E" unicode="&#x44e;" horiz-adv-x="801" 
d="M156 0h-68v422c0 15 -7 22 -22 22h-42v59h71c43 0 61 -18 61 -61v-161h100c6 67 33 122 81 167s105 67 171 67c72 0 133 -25 182 -75c50 -50 75 -112 75 -186c0 -75 -25 -139 -75 -190c-49 -51 -110 -76 -181 -76c-67 0 -124 22 -171 67s-74 101 -81 169h-101v-224z
M322 254c0 -58 18 -107 54 -146c37 -39 81 -59 133 -59s96 20 132 59s54 88 54 146c0 57 -18 104 -54 142c-36 39 -80 58 -132 58s-96 -19 -133 -58c-36 -38 -54 -85 -54 -142z" />
    <glyph glyph-name="uni044F" unicode="&#x44f;" horiz-adv-x="506" 
d="M50 0h-30v60h16c28 0 39 4 51 21l69 99c11 14 19 23 26 28v2c-71 12 -119 65 -119 142c0 45 16 82 47 109c31 28 71 42 120 42h252v-59h-64v-444h-68v193h-69c-17 0 -28 -2 -35 -6s-16 -14 -27 -31l-75 -106c-15 -21 -28 -35 -39 -41s-29 -9 -55 -9zM249 247h101v204
h-107c-71 0 -111 -40 -111 -101c0 -63 46 -103 117 -103z" />
    <glyph glyph-name="uni0450" unicode="&#x450;" horiz-adv-x="533" 
d="M37 251c0 80 24 144 71 192c48 48 107 72 178 72c67 0 118 -22 155 -67c37 -44 55 -99 55 -165c0 -11 -2 -33 -2 -34h-386c1 -62 20 -111 57 -146s83 -53 138 -53c87 -1 145 57 153 60l31 -52c-62 -47 -124 -70 -186 -70c-75 0 -138 25 -189 74c-50 49 -75 112 -75 189z
M111 303h316c-4 100 -63 156 -143 156c-87 0 -157 -57 -173 -156zM327 585h-59l-87 119h76z" />
    <glyph glyph-name="uni0451" unicode="&#x451;" horiz-adv-x="533" 
d="M37 251c0 80 24 144 71 192c48 48 107 72 178 72c67 0 118 -22 155 -67c37 -44 55 -99 55 -165c0 -11 -2 -33 -2 -34h-386c1 -62 20 -111 57 -146s83 -53 138 -53c87 -1 145 57 153 60l31 -52c-62 -47 -124 -70 -186 -70c-75 0 -138 25 -189 74c-50 49 -75 112 -75 189z
M111 303h316c-4 100 -63 156 -143 156c-87 0 -157 -57 -173 -156zM384 618h-59v86h59v-86zM234 618h-59v86h59v-86z" />
    <glyph glyph-name="uni0452" unicode="&#x452;" horiz-adv-x="575" 
d="M141 0h-68v565h-65v54h65v84h68v-84h223v-54h-223v-189l-2 -41h2c8 20 18 38 30 55c25 33 82 70 153 70c123 0 185 -70 185 -195v-288c0 -64 -20 -114 -45 -139c-43 -40 -93 -49 -130 -48l-30 2v60c6 -1 13 -2 22 -2c39 0 115 15 115 129v268c0 99 -42 149 -126 149
c-83 0 -142 -56 -166 -143c-5 -18 -8 -40 -8 -67v-186z" />
    <glyph glyph-name="uni0453" unicode="&#x453;" horiz-adv-x="425" 
d="M156 0h-68v444h-64v59h322c44 0 61 -15 61 -58v-63h-58v40c0 15 -7 22 -22 22h-171v-444zM249 585h-59l70 119h76z" />
    <glyph glyph-name="uni0454" unicode="&#x454;" horiz-adv-x="523" 
d="M37 251c0 77 25 140 75 189c51 50 114 75 189 75c23 0 48 -3 73 -9c25 -5 49 -17 72 -34s34 -39 34 -64v-42h-61v27c0 19 -13 35 -39 46c-26 12 -53 18 -81 18c-51 0 -95 -16 -132 -49c-37 -32 -57 -74 -62 -127h260v-53h-260c5 -54 26 -98 63 -131s82 -50 134 -50
c84 0 142 43 158 62l7 7l30 -50c-4 -4 -7 -9 -32 -28c-32 -23 -88 -48 -165 -50c-75 0 -138 24 -188 73s-75 113 -75 190z" />
    <glyph glyph-name="uni0455" unicode="&#x455;" horiz-adv-x="434" 
d="M36 67l-7 9l40 46l18 -21c8 -8 25 -19 52 -33s55 -21 84 -21c60 0 106 29 106 80c0 40 -44 69 -100 90c-79 29 -184 68 -182 162c0 88 74 136 179 136c21 0 42 -3 63 -8c44 -9 90 -39 90 -83v-43h-63v24c0 33 -47 52 -87 52c-71 0 -113 -26 -113 -74
c0 -113 283 -87 283 -254c0 -41 -17 -75 -51 -102c-33 -26 -75 -39 -126 -39c-103 0 -165 56 -186 79z" />
    <glyph glyph-name="uni0456" unicode="&#x456;" horiz-adv-x="240" 
d="M149 617h-65v86h65v-86zM86 61v361c0 15 -7 22 -22 22h-42v59h71c43 0 61 -18 61 -61v-361c0 -15 7 -22 22 -22h42v-59h-71c-43 0 -61 18 -61 61z" />
    <glyph glyph-name="uni0457" unicode="&#x457;" horiz-adv-x="240" 
d="M203 617h-59v86h59v-86zM78 617h-59v86h59v-86zM86 61v361c0 15 -7 22 -22 22h-42v59h71c43 0 61 -18 61 -61v-361c0 -15 7 -22 22 -22h42v-59h-71c-43 0 -61 18 -61 61z" />
    <glyph glyph-name="uni0458" unicode="&#x458;" horiz-adv-x="224" 
d="M150 617h-65v86h65v-86zM87 -16v438c0 15 -7 22 -22 22h-42v59h71c43 0 61 -18 61 -61v-461c0 -79 -27 -133 -68 -156c-40 -24 -72 -31 -108 -31l-29 3v59c6 -1 13 -1 22 -1c39 0 115 15 115 129z" />
    <glyph glyph-name="uni0459" unicode="&#x459;" horiz-adv-x="717" 
d="M10 -4v61c51 0 89 56 108 133c19 79 26 150 26 217v37h-64v59h265c41 0 61 -19 61 -58v-135h108c111 0 180 -58 180 -154c0 -92 -67 -156 -180 -156h-120c-40 0 -56 17 -56 56v367c0 15 -7 22 -22 22h-106v-37c0 -56 -2 -109 -19 -192c-8 -41 -19 -77 -32 -108
c-27 -61 -81 -112 -149 -112zM406 256v-181c0 -14 7 -21 20 -21h83c73 -1 117 39 117 102s-41 100 -117 100h-103z" />
    <glyph glyph-name="uni045A" unicode="&#x45a;" horiz-adv-x="793" 
d="M156 0h-68v422c0 15 -7 22 -22 22h-42v59h71c43 0 61 -18 61 -61v-137h263v198h68v-197h104c109 0 179 -57 179 -149c0 -95 -70 -157 -179 -157h-116c-40 0 -56 17 -56 56v192h-263v-248zM487 251v-176c0 -14 7 -21 20 -21h80c72 0 114 39 114 102c0 59 -41 95 -114 95
h-100z" />
    <glyph glyph-name="uni045B" unicode="&#x45b;" horiz-adv-x="593" 
d="M141 0h-68v565h-65v54h65v84h68v-84h223v-54h-223v-187l-2 -42h2c12 31 35 59 70 86s78 40 129 40c120 0 169 -67 169 -195v-186c0 -15 7 -22 22 -22h42v-59h-71c-43 0 -61 18 -61 61v188c0 45 -3 74 -18 103c-15 31 -45 46 -92 46c-43 0 -81 -13 -115 -40
c-33 -27 -56 -61 -67 -103c-5 -19 -8 -41 -8 -68v-187z" />
    <glyph glyph-name="uni045C" unicode="&#x45c;" horiz-adv-x="504" 
d="M156 0h-68v422c0 15 -7 22 -22 22h-42v59h71c43 0 61 -18 61 -61v-145h50c27 0 46 8 58 25l132 181h80l-146 -198c-13 -19 -27 -31 -34 -34l-4 -2v-2c11 -5 22 -18 34 -37l90 -149c11 -17 19 -22 46 -22h27v-59h-47c-51 0 -64 9 -87 50l-99 165c-9 15 -26 22 -52 22h-48
v-237zM282 585h-59l70 119h76z" />
    <glyph glyph-name="uni045D" unicode="&#x45d;" horiz-adv-x="604" 
d="M152 0h-65v422c0 15 -7 22 -21 22h-42v59h68c43 0 60 -18 60 -59v-272c0 -19 -2 -47 -3 -66l-1 -13h2c3 9 21 35 54 79l247 331h66v-422c0 -15 7 -22 21 -22h41v-59h-67c-43 0 -61 17 -61 60v272c0 39 2 65 5 78h-2c-5 -11 -23 -37 -54 -78zM357 585h-59l-87 119h76z" />
    <glyph glyph-name="uni045E" unicode="&#x45e;" horiz-adv-x="533" 
d="M113 -210c-41 0 -82 20 -97 36l-12 13l32 49c1 -3 33 -37 75 -37c39 0 70 27 93 82l30 69l-177 419c-7 15 -18 23 -35 23h-10v59h31c45 0 60 -10 77 -55l129 -314l18 -54h2c5 19 10 37 17 54l124 314c17 45 31 55 78 55h31v-59h-10c-17 0 -29 -8 -35 -23l-217 -526
c-27 -65 -79 -105 -144 -105zM136 687v17h59v-14c-5 -92 151 -92 147 0v14h58v-17c0 -72 -60 -117 -132 -117s-132 45 -132 117z" />
    <glyph glyph-name="uni045F" unicode="&#x45f;" horiz-adv-x="572" 
d="M87 60v362c0 15 -7 22 -22 22h-42v59h71c43 0 61 -18 61 -61v-361c0 -15 7 -22 21 -22h220c14 0 21 7 21 22v361c0 43 18 61 61 61h71v-59h-42c-15 0 -22 -7 -22 -22v-362c0 -43 -17 -60 -60 -60h-107v-120h-64v120h-107c-43 0 -60 17 -60 60z" />
    <glyph glyph-name="uni0462" unicode="&#x462;" horiz-adv-x="663" 
d="M195 61v473h-183v61h183v108h70v-108h199v-61h-199v-127h158c63 0 115 -17 156 -50s62 -82 62 -145c0 -67 -21 -119 -63 -156c-41 -37 -93 -56 -155 -56h-167c-43 0 -61 18 -61 61zM265 346v-263c0 -15 7 -22 22 -22h134c89 0 148 55 148 150c0 88 -59 135 -148 135h-156
z" />
    <glyph glyph-name="uni0463" unicode="&#x463;" horiz-adv-x="510" 
d="M130 56v405h-120v54h120v188h68v-188h168v-54h-168v-148h112c108 0 177 -59 177 -155c0 -93 -70 -158 -177 -158h-123c-41 0 -57 16 -57 56zM198 260v-185c0 -15 7 -22 20 -22h87c69 0 112 43 112 104c0 64 -40 103 -112 103h-107z" />
    <glyph glyph-name="uni0472" unicode="&#x472;" horiz-adv-x="791" 
d="M38 356c0 101 34 186 102 255c69 69 154 104 256 104s187 -35 255 -104c69 -69 103 -154 103 -255c0 -103 -34 -191 -103 -262s-154 -106 -255 -106s-186 35 -255 106s-103 159 -103 262zM395 52c77 0 141 26 194 77c53 52 84 118 91 197h-570c7 -79 38 -144 91 -196
s118 -78 194 -78zM110 385h570c-7 77 -37 140 -90 190c-53 51 -118 76 -195 76s-142 -25 -195 -76c-53 -50 -83 -113 -90 -190z" />
    <glyph glyph-name="uni0473" unicode="&#x473;" horiz-adv-x="602" 
d="M36 254c0 74 26 136 77 186s114 75 188 75s137 -25 188 -75c52 -50 78 -112 78 -186c0 -75 -26 -139 -78 -190c-51 -51 -114 -76 -188 -76s-137 25 -188 76s-77 115 -77 190zM301 46c51 0 95 17 132 52c38 35 60 78 65 131h-394c5 -53 27 -96 64 -131s82 -52 133 -52z
M104 279h394c-6 52 -28 95 -65 128s-81 50 -132 50s-95 -17 -132 -50s-59 -76 -65 -128z" />
    <glyph glyph-name="uni0474" unicode="&#x474;" horiz-adv-x="683" 
d="M355 0h-75l-262 703h78l193 -531l27 -91h2c10 37 19 67 27 91l152 443c13 39 28 63 45 73s45 15 86 15h44v-63h-22c-29 0 -49 -3 -60 -10c-10 -6 -19 -22 -28 -47z" />
    <glyph glyph-name="uni0475" unicode="&#x475;" horiz-adv-x="538" 
d="M286 0h-73l-196 503h74l142 -369l17 -59h2c6 23 12 42 17 59l98 279c23 68 54 90 125 90h35v-62h-23c-47 0 -63 -10 -80 -58z" />
    <glyph glyph-name="uni048A" unicode="&#x48a;" horiz-adv-x="773" 
d="M171 0h-68v619c0 15 -7 22 -22 22h-43v62h74c43 0 61 -18 61 -61v-442l-6 -94h2c25 41 46 73 62 96l354 501h68v-619c0 -15 7 -22 22 -22h76v-45l-65 -157h-56l44 140h-30c-43 0 -61 18 -61 61v442l5 95h-2c-23 -40 -43 -72 -59 -95zM250 854v17h59v-14
c-5 -92 151 -92 147 0v14h58v-17c0 -72 -60 -117 -132 -117s-132 45 -132 117z" />
    <glyph glyph-name="uni048B" unicode="&#x48b;" horiz-adv-x="617" 
d="M152 0h-65v422c0 15 -7 22 -21 22h-42v59h68c43 0 60 -18 60 -59v-272c0 -19 -2 -47 -3 -66l-1 -13h2c3 9 21 35 54 79l247 331h66v-422c0 -15 7 -22 21 -22h59v-42l-57 -137h-52l37 120h-13c-43 0 -61 17 -61 60v272c0 39 2 65 5 78h-2c-5 -11 -23 -37 -54 -78zM173 687
v17h59v-14c-5 -92 151 -92 147 0v14h58v-17c0 -72 -60 -117 -132 -117s-132 45 -132 117z" />
    <glyph glyph-name="uni048C" unicode="&#x48c;" horiz-adv-x="645" 
d="M171 61v517h-159v58h159v114h70v-114h175v-58h-175v-158h155c65 0 120 -18 163 -54c43 -35 65 -86 65 -152c0 -67 -21 -120 -63 -158c-42 -37 -95 -56 -160 -56h-169c-43 0 -61 18 -61 61zM241 359v-276c0 -15 7 -22 22 -22h136c95 0 152 57 152 152
c0 93 -62 146 -157 146h-153z" />
    <glyph glyph-name="uni048D" unicode="&#x48d;" horiz-adv-x="510" 
d="M131 56l-1 405h-120v54h120v188h68v-188h168v-54h-168l1 -148h111c108 0 177 -59 177 -155c0 -93 -70 -158 -177 -158h-123c-40 0 -56 17 -56 56zM199 260v-185c0 -15 7 -22 20 -22h86c69 0 112 43 112 104c0 64 -40 103 -112 103h-106z" />
    <glyph glyph-name="uni048E" unicode="&#x48e;" horiz-adv-x="595" 
d="M172 0h-70v641h-65v62h302c63 0 115 -19 156 -58s61 -90 61 -154c0 -69 -23 -123 -69 -164l63 -87l-43 -33l-66 90c-30 -14 -64 -21 -102 -21h-167v-276zM405 347l-68 95l44 33l69 -96c25 27 38 64 38 109c0 96 -60 153 -156 153h-160v-307h160c29 0 53 4 73 13z" />
    <glyph glyph-name="uni048F" unicode="&#x48f;" horiz-adv-x="597" 
d="M156 -200h-68v622c0 15 -7 22 -22 22h-43v59h69c40 0 60 -18 60 -53v-34h2c3 5 4 11 23 34c24 31 70 65 150 65c67 0 120 -24 159 -73c40 -48 60 -111 60 -190c0 -78 -21 -141 -62 -190l56 -67l-42 -36l-55 66c-36 -25 -77 -37 -123 -37c-95 0 -146 60 -159 85l-5 10h-2
c1 -12 2 -27 2 -44v-239zM402 74l-71 86l42 35l68 -82c25 37 38 83 38 137c0 61 -15 110 -46 147c-30 37 -69 56 -116 56c-92 0 -163 -69 -163 -204c0 -55 14 -102 42 -143c29 -40 68 -60 118 -60c33 0 63 9 88 28z" />
    <glyph glyph-name="uni0490" unicode="&#x490;" horiz-adv-x="488" 
d="M172 0h-70v641h-65v62h349c15 0 22 7 22 22v54h65v-77c0 -43 -18 -61 -61 -61h-240v-641z" />
    <glyph glyph-name="uni0491" unicode="&#x491;" horiz-adv-x="395" 
d="M156 0h-68v444h-64v59h277c15 0 22 7 22 22v47h60v-70c0 -43 -17 -58 -61 -58h-166v-444z" />
    <glyph glyph-name="uni0492" unicode="&#x492;" horiz-adv-x="501" 
d="M176 0h-70v315h-65v58h65v268h-65v62h382c43 0 61 -18 61 -61v-70h-66v47c0 15 -7 22 -22 22h-220v-268h159v-58h-159v-315z" />
    <glyph glyph-name="uni0493" unicode="&#x493;" horiz-adv-x="427" 
d="M88 215h-63v53h63v176h-64v59h322c44 0 61 -15 61 -58v-63h-58v40c0 15 -7 22 -22 22h-171v-176h131v-53h-131v-215h-68v215z" />
    <glyph glyph-name="uni0494" unicode="&#x494;" horiz-adv-x="586" 
d="M172 0h-70v643h-65v60h390c43 0 60 -17 60 -60v-66h-61v44c0 15 -7 22 -22 22h-232v-260c32 16 96 34 145 34c122 0 234 -51 234 -281c0 -213 -94 -310 -241 -310v59c113 0 170 84 170 251c0 157 -55 219 -172 219c-41 0 -87 -11 -136 -33v-322z" />
    <glyph glyph-name="uni0495" unicode="&#x495;" horiz-adv-x="488" 
d="M156 0h-68v444h-64v59h326c44 0 61 -14 61 -55v-66h-58v41c0 14 -7 21 -21 21h-176v-198c39 20 78 30 118 30c65 0 111 -20 139 -61c29 -41 43 -90 43 -148c0 -119 -48 -210 -143 -273l-34 50c74 49 111 122 111 219c0 89 -36 153 -125 153c-40 0 -76 -10 -109 -31v-185z
" />
    <glyph glyph-name="uni0496" unicode="&#x496;" horiz-adv-x="881" 
d="M88 0h-79l200 326c11 17 26 32 34 36l6 4v2c-11 5 -22 19 -34 40l-118 210c-9 15 -27 23 -52 23h-20v62h34c28 0 47 -3 58 -10c11 -6 23 -20 36 -43l126 -223c11 -20 33 -30 65 -30h45v306h68v-306h45c33 0 55 10 66 30l126 223c13 23 24 37 35 43c11 7 30 10 58 10h34
v-62h-20c-25 0 -42 -8 -51 -23l-119 -210c-11 -19 -24 -33 -29 -37l-5 -3v-2c15 -7 29 -20 41 -40l162 -264h29c43 0 61 -17 61 -60v-142h-65v118c0 13 -6 21 -18 22h-49l-185 306c-16 25 -33 31 -62 31h-54v-337h-68v337h-53c-29 0 -50 -10 -62 -31z" />
    <glyph glyph-name="uni0497" unicode="&#x497;" horiz-adv-x="741" 
d="M99 0h-81l127 210c16 25 38 41 49 44l9 2v2c-17 5 -30 18 -41 39l-62 125c-9 17 -20 22 -48 22h-21v59h37c52 0 69 -7 90 -50l65 -133c12 -23 34 -34 65 -34h38v217h66v-217h37c31 0 53 11 64 34l66 133c21 43 38 50 89 50h38v-59h-22c-28 0 -38 -5 -47 -22l-62 -125
c-9 -19 -26 -32 -35 -36l-6 -3v-2c21 -3 40 -18 57 -46l92 -152h13c43 0 60 -18 60 -58v-120h-65v98c0 13 -5 21 -16 22h-36l-109 182c-18 29 -45 44 -82 44h-36v-226h-66v226h-37c-37 0 -64 -15 -82 -44z" />
    <glyph glyph-name="uni0498" unicode="&#x498;" horiz-adv-x="517" 
d="M22 78l44 51c37 -43 104 -77 169 -77c47 0 87 13 119 40s48 62 48 106c0 84 -65 136 -150 136h-86v60h71c39 0 73 12 100 36c27 25 41 56 41 95c0 75 -46 126 -138 126c-69 0 -127 -33 -127 -74v-32h-66v49c0 28 11 52 34 71c47 39 105 50 162 50c133 0 207 -71 207 -182
c0 -73 -35 -126 -106 -159v-2c80 -21 130 -87 130 -176c0 -55 -18 -102 -55 -139s-85 -59 -144 -66v-131h-64v129c-81 7 -144 37 -189 89z" />
    <glyph glyph-name="uni0499" unicode="&#x499;" horiz-adv-x="428" 
d="M26 61l36 47c36 -41 81 -61 136 -61c67 0 121 34 121 98c0 57 -43 89 -122 89h-62v52h53c72 0 113 30 113 87c0 56 -40 85 -103 85c-47 0 -93 -18 -93 -53v-23h-60v42c0 29 16 52 47 67c32 16 69 24 112 24c100 0 167 -48 167 -135c0 -57 -26 -96 -78 -115v-2
c57 -12 95 -54 95 -121c0 -83 -61 -137 -145 -150v-112h-63v109c-61 5 -112 29 -154 72z" />
    <glyph glyph-name="uni049A" unicode="&#x49a;" horiz-adv-x="599" 
d="M173 0h-70v619c0 15 -7 22 -22 22h-43v62h74c43 0 61 -18 61 -61v-244h84c29 0 49 8 59 25l170 280h80l-181 -295c-11 -17 -24 -31 -31 -36l-5 -3v-2c12 -4 24 -17 35 -40l132 -265h24c43 0 61 -17 61 -60v-142h-65v118c0 15 -7 22 -21 22h-48l-153 310
c-8 17 -29 26 -64 26h-77v-336z" />
    <glyph glyph-name="uni049B" unicode="&#x49b;" horiz-adv-x="503" 
d="M156 0h-68v422c0 15 -7 22 -22 22h-42v59h71c44 0 61 -15 61 -58v-146h51c27 0 46 8 58 24l131 180h80l-145 -196c-13 -19 -28 -31 -33 -34l-5 -2v-2c10 -5 21 -17 32 -37l104 -174h17c35 0 52 -19 52 -58v-120h-65v98c0 15 -5 22 -16 22h-32l-130 217
c-9 15 -26 22 -53 22h-46v-239z" />
    <glyph glyph-name="uni049C" unicode="&#x49c;" horiz-adv-x="655" 
d="M310 211h-57v125h-80v-336h-70v619c0 15 -7 22 -22 22h-43v62h74c43 0 61 -18 61 -61v-244h80v125h57v-125h15c29 0 49 8 59 25l168 280h81l-180 -295c-11 -17 -24 -31 -31 -36l-5 -3v-2c12 -4 24 -17 35 -40l120 -242c9 -20 22 -23 51 -23h19v-62h-37c-29 0 -50 3 -62 9
c-12 7 -24 21 -35 44l-126 257c-8 17 -29 26 -64 26h-8v-125z" />
    <glyph glyph-name="uni049D" unicode="&#x49d;" horiz-adv-x="551" 
d="M271 122h-53v117h-62v-239h-68v422c0 15 -7 22 -22 22h-43v59h72c44 0 61 -15 61 -58v-146h62v97h53v-97c25 0 43 8 55 24l122 180h79l-137 -197c-13 -19 -27 -30 -32 -33l-4 -2v-2c10 -5 21 -18 32 -38l76 -150c9 -17 19 -22 46 -22h27v-59h-47c-51 0 -64 9 -87 50
l-85 167c-9 13 -24 21 -45 22v-117z" />
    <glyph glyph-name="uni049E" unicode="&#x49e;" horiz-adv-x="599" 
d="M112 529h-95v57h95v117h70v-117h104v-57h-104v-131h86c29 0 49 8 59 25l170 280h80l-181 -295c-11 -17 -23 -31 -30 -36l-5 -3v-2c11 -4 23 -17 34 -40l122 -242c9 -20 22 -23 50 -23h20v-62h-37c-29 0 -50 3 -62 9c-12 7 -24 21 -35 44l-128 257c-8 17 -29 26 -64 26
h-79v-336h-70v529z" />
    <glyph glyph-name="uni049F" unicode="&#x49f;" horiz-adv-x="496" 
d="M80 529h-66v53h66v121h68v-121h128v-53h-128v-218h52c25 0 44 8 57 24l130 168h82l-145 -184c-15 -19 -29 -31 -34 -34l-4 -2v-2c10 -5 21 -17 32 -37l90 -163c11 -17 19 -22 46 -22h27v-59h-46c-51 0 -65 7 -88 50l-100 180c-7 15 -25 22 -53 22h-46v-252h-68v529z" />
    <glyph glyph-name="uni04A0" unicode="&#x4a0;" horiz-adv-x="727" 
d="M318 0h-70v641h-147c-15 0 -22 -7 -22 -22v-47h-65v75c0 43 14 56 57 56h312v-62h-65v-243h78c29 0 49 8 59 25l170 280h81l-182 -295c-11 -17 -23 -31 -30 -36l-5 -3v-2c11 -4 23 -17 34 -40l122 -242c9 -20 22 -23 50 -23h20v-62h-37c-29 0 -50 3 -62 9
c-12 7 -24 21 -35 44l-127 257c-9 17 -31 26 -64 26h-72v-336z" />
    <glyph glyph-name="uni04A1" unicode="&#x4a1;" horiz-adv-x="601" 
d="M259 0h-68v425c0 14 -7 21 -20 21h-75c-14 0 -21 -7 -21 -21v-42h-57v65c0 41 17 55 61 55h119c44 0 61 -15 61 -58v-148h45c27 0 45 8 56 25l132 181h82l-146 -198c-13 -19 -27 -31 -34 -34l-4 -2v-2c11 -5 22 -18 33 -37l91 -149c11 -17 19 -22 46 -22h27v-59h-47
c-25 0 -43 3 -54 9s-22 20 -34 41l-98 165c-9 15 -27 22 -53 22h-42v-237z" />
    <glyph glyph-name="uni04A2" unicode="&#x4a2;" horiz-adv-x="769" 
d="M173 0h-70v619c0 15 -7 22 -22 22h-43v62h74c43 0 61 -18 61 -61v-259h404v259c0 43 18 61 61 61h74v-62h-43c-15 0 -22 -7 -22 -22v-557h31c43 0 60 -17 60 -60v-142h-65v118c0 15 -7 22 -21 22h-75v321h-404v-321z" />
    <glyph glyph-name="uni04A3" unicode="&#x4a3;" horiz-adv-x="611" 
d="M517 0h-68v229h-293v-229h-68v422c0 15 -7 22 -22 22h-42v59h71c43 0 61 -18 61 -61v-154h293v215h68v-445h21c43 0 58 -17 58 -58v-120h-64v98c0 13 -5 21 -15 22z" />
    <glyph glyph-name="uni04A4" unicode="&#x4a4;" horiz-adv-x="929" 
d="M173 0h-70v619c0 15 -7 22 -22 22h-43v62h74c43 0 61 -18 61 -61v-259h366v258h-65v62h385c43 0 57 -15 57 -58v-73h-65v47c0 15 -7 22 -22 22h-220v-641h-70v321h-366v-321z" />
    <glyph glyph-name="uni04A5" unicode="&#x4a5;" horiz-adv-x="738" 
d="M156 0h-68v422c0 15 -7 22 -22 22h-42v59h71c43 0 61 -18 61 -61v-162h261v166h-63v57h305c44 0 61 -14 61 -55v-64h-58v41c0 14 -7 21 -20 21h-157v-446h-68v221h-261v-221z" />
    <glyph glyph-name="uni04A6" unicode="&#x4a6;" horiz-adv-x="984" 
d="M173 0h-70v641h-66v62h479c43 0 61 -18 61 -61v-247c44 23 92 34 144 34c122 0 234 -53 234 -291c0 -215 -94 -312 -241 -312v59c49 0 90 19 122 57s48 103 48 196c0 167 -55 231 -172 231c-39 0 -84 -11 -135 -34v-335h-70v619c0 15 -7 22 -22 22h-312v-641z" />
    <glyph glyph-name="uni04A7" unicode="&#x4a7;" horiz-adv-x="790" 
d="M154 0h-68v444h-55v59h478v-59h-56v-173c40 20 80 30 119 30c47 0 86 -12 116 -35c61 -45 78 -110 78 -190c0 -122 -48 -216 -143 -282l-35 50c74 52 111 129 111 232c0 109 -46 163 -137 163c-38 0 -74 -10 -109 -30v-209h-68v444h-231v-444z" />
    <glyph glyph-name="uni04A8" unicode="&#x4a8;" horiz-adv-x="901" 
d="M39 361c0 101 36 191 88 247c53 56 115 92 179 107l16 -64c-57 -16 -107 -49 -149 -99s-63 -114 -63 -193c0 -87 25 -159 74 -218c50 -59 118 -88 204 -88c45 0 90 8 136 25c-111 73 -175 189 -175 329c0 201 137 296 256 296c71 0 131 -25 178 -76
c48 -50 72 -122 72 -217c0 -128 -75 -250 -191 -331c43 -13 90 -19 139 -19h42v-60h-43c-74 0 -142 13 -205 40c-69 -35 -139 -52 -209 -52c-104 0 -188 34 -253 102c-64 69 -96 159 -96 271zM421 408c0 -128 61 -238 170 -298c57 33 104 77 139 130s53 110 53 170
c0 77 -17 135 -52 172c-34 38 -76 57 -126 57c-46 0 -88 -20 -127 -60c-38 -39 -57 -96 -57 -171z" />
    <glyph glyph-name="uni04A9" unicode="&#x4a9;" horiz-adv-x="748" 
d="M37 258c0 67 19 123 56 167s81 74 130 90l22 -58c-37 -13 -70 -36 -99 -71c-28 -35 -42 -78 -42 -129c0 -61 18 -112 54 -151s90 -59 163 -59c37 0 73 6 108 18c-85 53 -138 136 -138 239c0 58 20 108 60 149s90 62 150 62s108 -19 145 -57c37 -37 56 -87 56 -148
c0 -92 -54 -178 -138 -241c31 -7 62 -11 93 -11h47v-58h-45c-57 0 -110 10 -161 30c-57 -28 -116 -42 -177 -42c-92 0 -162 25 -211 76s-73 115 -73 194zM358 305c0 -92 54 -167 138 -210c84 48 139 123 139 212c0 93 -55 150 -135 150c-39 0 -73 -14 -101 -43
c-27 -29 -41 -65 -41 -109z" />
    <glyph glyph-name="uni04AA" unicode="&#x4aa;" horiz-adv-x="693" 
d="M39 357c0 101 33 186 99 255c67 69 149 103 248 103c37 0 75 -5 113 -14s72 -26 103 -50c31 -23 47 -52 47 -85v-58h-66v39c0 31 -21 55 -63 74s-86 28 -132 28c-79 0 -144 -28 -197 -83s-79 -124 -79 -209s27 -156 80 -215s120 -88 199 -88c117 -1 192 64 221 89l9 10
l40 -51c-5 -5 -9 -12 -41 -36c-15 -12 -32 -23 -49 -33c-35 -19 -94 -39 -151 -43v-130h-64v130c-93 8 -170 47 -229 116s-88 153 -88 251z" />
    <glyph glyph-name="uni04AB" unicode="&#x4ab;" horiz-adv-x="526" 
d="M37 251c0 77 25 140 75 189c51 50 114 75 189 75c23 0 48 -3 73 -9c25 -5 49 -17 72 -34s34 -39 34 -64v-45h-63v29c0 19 -13 34 -39 45c-25 11 -51 17 -77 17c-55 0 -102 -19 -139 -57c-37 -37 -56 -86 -56 -146s19 -109 57 -146c39 -37 86 -55 141 -55
c80 0 139 45 156 64l6 7l31 -51c-3 -4 -6 -9 -29 -26c-28 -23 -77 -49 -145 -55v-109h-64v111c-65 9 -119 37 -160 84s-62 106 -62 176z" />
    <glyph glyph-name="uni04AC" unicode="&#x4ac;" horiz-adv-x="620" 
d="M349 0h-76v641h-173c-15 0 -22 -7 -22 -22v-47h-64v74c0 43 14 57 57 57h475c43 0 57 -14 57 -57v-74h-64v47c0 15 -7 22 -22 22h-174v-579h32c43 0 60 -17 60 -60v-142h-65v118c0 15 -7 22 -21 22z" />
    <glyph glyph-name="uni04AD" unicode="&#x4ad;" horiz-adv-x="517" 
d="M291 0h-68v443h-125c-15 0 -22 -7 -22 -22v-39h-58v62c0 43 17 59 61 59h356c44 0 61 -16 61 -59v-62h-58v39c0 15 -7 22 -22 22h-125v-385h22c41 0 58 -18 58 -58v-120h-64v98c0 13 -5 21 -16 22z" />
    <glyph glyph-name="uni04AE" unicode="&#x4ae;" horiz-adv-x="595" 
d="M333 0h-70v306l-189 309c-10 17 -25 26 -46 26h-16v62h26c25 0 44 -3 56 -10c13 -7 26 -22 40 -46l120 -199l43 -79h2c14 28 28 54 43 79l119 199c15 24 28 39 40 46s31 10 56 10h27v-62h-16c-21 0 -37 -9 -47 -26l-188 -309v-306z" />
    <glyph glyph-name="uni04AF" unicode="&#x4af;" horiz-adv-x="517" 
d="M225 -200v231l-168 390c-7 15 -18 23 -35 23h-9v59h27c47 0 60 -10 80 -55l116 -282l22 -59h2c7 23 14 42 21 59l116 282c20 45 33 55 80 55h27v-59h-9c-17 0 -28 -8 -35 -23l-168 -390v-231h-67z" />
    <glyph glyph-name="uni04B0" unicode="&#x4b0;" horiz-adv-x="595" 
d="M263 250h-128v55h128v1l-189 309c-10 17 -25 26 -46 26h-16v62h26c25 0 44 -3 56 -10c13 -7 26 -22 40 -46l120 -199l43 -79h2c14 28 28 54 43 79l119 199c15 24 28 39 40 46s31 10 56 10h27v-62h-17c-21 0 -36 -9 -46 -26l-188 -309v-1h125v-55h-125v-250h-70v250z" />
    <glyph glyph-name="uni04B1" unicode="&#x4b1;" horiz-adv-x="517" 
d="M225 0h-115v54h105l-158 367c-7 15 -18 23 -35 23h-9v59h27c47 0 60 -10 80 -55l116 -282l22 -59h2c7 23 14 42 21 59l116 282c20 45 33 55 80 55h27v-59h-9c-17 0 -28 -8 -35 -23l-158 -367h105v-54h-115v-200h-67v200z" />
    <glyph glyph-name="uni04B2" unicode="&#x4b2;" horiz-adv-x="603" 
d="M96 0h-80l224 367l-152 248c-11 17 -27 26 -50 26h-21v62h36c51 0 70 -11 98 -56l89 -151l46 -80h2c14 29 28 56 42 80l91 151c28 45 46 56 97 56h37v-62h-21c-23 0 -40 -9 -51 -26l-152 -248l187 -305h30c43 0 61 -17 61 -60v-142h-65v118c0 13 -6 21 -18 22h-50
l-146 242l-45 77h-2c-14 -27 -28 -53 -43 -78z" />
    <glyph glyph-name="uni04B3" unicode="&#x4b3;" horiz-adv-x="504" 
d="M102 0h-80l176 262l-109 161c-10 14 -26 21 -47 21h-21v59h37c25 0 43 -3 54 -10s25 -22 40 -45l73 -112l16 -30h2l17 30l72 112c15 23 28 38 39 45s30 10 55 10h37v-59h-21c-21 0 -36 -7 -46 -20l-110 -162l137 -204h14c41 0 58 -18 58 -58v-120h-65v98
c0 15 -6 22 -17 22h-30l-123 187l-17 28h-2l-17 -28z" />
    <glyph glyph-name="uni04B4" unicode="&#x4b4;" horiz-adv-x="897" 
d="M255 61v580h-154c-15 0 -22 -7 -22 -22v-47h-65v74c0 43 14 57 57 57h437c43 0 56 -14 56 -57v-74h-62v47c0 15 -7 22 -22 22h-155v-557c0 -15 7 -22 22 -22h368v641h70v-641h26c43 0 60 -17 60 -60v-142h-64v118c0 15 -7 22 -22 22h-469c-43 0 -61 18 -61 61z" />
    <glyph glyph-name="uni04B5" unicode="&#x4b5;" horiz-adv-x="715" 
d="M199 60v385h-109c-13 0 -20 -7 -20 -21v-40h-52v63c0 43 17 56 61 56h307c44 0 61 -13 61 -56v-63h-52v40c0 14 -7 21 -21 21h-107v-364c0 -15 7 -22 21 -22h269v444h68v-445h13c40 0 60 -19 60 -58v-120h-65v98c0 15 -7 22 -21 22h-353c-43 0 -60 17 -60 60z" />
    <glyph glyph-name="uni04B6" unicode="&#x4b6;" horiz-adv-x="657" 
d="M291 277c-141 0 -211 66 -211 199v143c0 15 -7 22 -22 22h-43v62h74c43 0 61 -18 61 -61v-152c0 -100 45 -149 152 -149c64 0 131 27 168 55v307h70v-641h32c43 0 60 -17 60 -60v-142h-65v118c0 15 -7 22 -21 22h-76v296l2 33h-2c-59 -35 -119 -52 -179 -52z" />
    <glyph glyph-name="uni04B7" unicode="&#x4b7;" horiz-adv-x="545" 
d="M241 183c-107 0 -161 51 -161 154v85c0 15 -7 22 -22 22h-40v59h69c44 0 60 -20 60 -61v-92c0 -63 24 -105 108 -105c46 0 89 14 128 41v217h68v-445h22c41 0 58 -18 58 -58v-120h-65v98c0 15 -6 22 -17 22h-66v191l2 34h-2c-36 -25 -94 -42 -142 -42z" />
    <glyph glyph-name="uni04B8" unicode="&#x4b8;" horiz-adv-x="636" 
d="M337 169h-56v109c-132 0 -202 70 -202 198v143c0 15 -7 22 -22 22h-43v62h74c43 0 61 -18 61 -61v-151c0 -95 44 -144 132 -149v143h56v-141c57 7 104 24 141 52v307h70v-703h-70v297l2 32h-2c-46 -25 -93 -40 -141 -47v-113z" />
    <glyph glyph-name="uni04B9" unicode="&#x4b9;" horiz-adv-x="535" 
d="M246 184h-1c-111 0 -165 57 -165 157v81c0 15 -7 22 -22 22h-40v59h69c40 0 60 -20 60 -61v-89c0 -63 23 -104 99 -108v125h53v-122c34 5 66 18 97 38v217h68v-503h-68v193l2 34h-2c-26 -18 -58 -31 -97 -38v-85h-53v80z" />
    <glyph glyph-name="uni04BA" unicode="&#x4ba;" horiz-adv-x="634" 
d="M173 0h-70v619c0 15 -7 22 -22 22h-43v62h74c43 0 61 -18 61 -61v-200l-2 -33h2c59 33 123 50 191 50c130 0 195 -66 195 -199v-176c0 -15 7 -22 22 -22h43v-62h-74c-43 0 -61 18 -61 61v185c0 100 -41 149 -136 149c-71 0 -143 -27 -180 -55v-340z" />
    <glyph glyph-name="uni04BB" unicode="&#x4bb;" horiz-adv-x="592" 
d="M141 0h-68v622c0 15 -7 22 -22 22h-42v59h71c43 0 61 -18 61 -59v-213l-2 -41h2c12 30 35 58 70 85s78 40 129 40c121 0 169 -66 169 -195v-239c0 -15 7 -22 22 -22h42v-59h-71c-43 0 -61 18 -61 61v241c0 45 -3 74 -18 103c-15 31 -45 46 -92 46c-43 0 -81 -13 -115 -40
c-33 -27 -56 -61 -67 -103c-5 -18 -8 -40 -8 -67v-241z" />
    <glyph glyph-name="uni04BC" unicode="&#x4bc;" horiz-adv-x="830" 
d="M182 356h-8c-91 0 -146 58 -146 153c0 32 2 59 7 80l8 42h66l-9 -42c-5 -23 -7 -48 -7 -75c0 -59 28 -100 84 -100h10c12 88 47 160 104 216c57 57 128 85 213 85s154 -29 205 -86s77 -136 77 -237l-1 -36h-530c-1 -94 24 -168 76 -222s115 -81 189 -81
c84 0 160 29 227 87l35 -56l-2 -1c-57 -53 -130 -84 -219 -93c-15 -1 -31 -2 -47 -2c-96 0 -175 33 -238 100s-94 153 -94 260v8zM258 414h456c3 123 -66 237 -210 238c-67 0 -122 -23 -166 -69c-44 -45 -71 -102 -80 -169z" />
    <glyph glyph-name="uni04BD" unicode="&#x4bd;" horiz-adv-x="640" 
d="M145 249h-4c-77 0 -116 44 -116 133c0 27 4 52 13 77h60c-9 -25 -14 -49 -14 -72c0 -55 21 -83 62 -83h3c10 65 38 117 83 154c46 38 100 57 161 57c67 0 118 -22 155 -67c37 -44 56 -99 56 -165l-2 -34h-386c1 -62 20 -111 57 -146s83 -53 138 -53s110 25 133 46l18 15
l33 -52c-5 -5 -13 -12 -24 -20c-10 -8 -31 -19 -64 -32c-32 -13 -65 -19 -99 -19c-75 0 -138 24 -188 73c-49 49 -74 111 -75 188zM219 303h315c-4 100 -64 155 -141 155c-87 0 -158 -58 -174 -155z" />
    <glyph glyph-name="uni04BE" unicode="&#x4be;" horiz-adv-x="830" 
d="M182 356h-8c-91 0 -146 58 -146 153c0 32 2 59 7 80l8 42h66l-9 -42c-5 -23 -7 -48 -7 -75c0 -59 28 -100 84 -100h10c12 88 47 160 104 216c57 57 128 85 213 85s154 -29 205 -86s77 -136 77 -237l-1 -36h-530c-1 -94 24 -168 76 -222s115 -81 189 -81
c84 0 160 29 227 87l35 -56l-2 -2c-58 -53 -132 -83 -222 -92c-7 -1 -14 -1 -21 -1v-129h-65v131c-86 9 -156 46 -210 111c-53 65 -80 147 -80 246v8zM258 414h456c3 123 -66 237 -210 238c-67 0 -122 -23 -166 -69c-44 -45 -71 -102 -80 -169z" />
    <glyph glyph-name="uni04BF" unicode="&#x4bf;" horiz-adv-x="642" 
d="M146 249h-4c-77 0 -116 44 -116 133c0 27 4 52 13 77h60c-9 -25 -14 -49 -14 -72c0 -55 21 -83 62 -83h3c10 65 38 117 83 154c46 38 100 57 161 57c67 0 118 -22 155 -67c37 -44 56 -99 56 -165l-2 -34h-386c1 -62 20 -111 57 -146s83 -53 138 -53s110 25 134 46l17 15
l33 -52c-5 -5 -13 -11 -22 -19c-9 -7 -29 -18 -60 -31c-30 -13 -61 -20 -93 -21v-108h-64v113c-62 11 -113 39 -152 85c-39 47 -58 104 -59 171zM220 303h315c-4 100 -64 155 -141 155c-87 0 -158 -58 -174 -155z" />
    <glyph glyph-name="uni04C0" unicode="&#x4c0;" horiz-adv-x="287" 
d="M244 0h-201v62h66v579h-66v62h201v-62h-67v-579h67v-62z" />
    <glyph glyph-name="uni04C1" unicode="&#x4c1;" horiz-adv-x="847" 
d="M88 0h-79l200 326c11 17 26 32 34 36l6 4v2c-11 5 -22 19 -34 40l-118 210c-9 15 -27 23 -52 23h-20v62h34c28 0 47 -3 58 -10c11 -6 23 -20 36 -43l126 -223c11 -20 33 -30 65 -30h45v306h68v-306h45c33 0 55 10 66 30l126 223c13 23 24 37 35 43c11 7 30 10 58 10h34
v-62h-20c-25 0 -42 -8 -51 -23l-119 -210c-11 -19 -24 -33 -29 -37l-5 -3v-2c15 -7 29 -20 41 -40l200 -326h-80l-185 306c-16 25 -33 31 -62 31h-54v-337h-68v337h-53c-29 0 -50 -10 -62 -31zM292 854v17h59v-14c-5 -92 151 -92 147 0v14h58v-17c0 -72 -60 -117 -132 -117
s-132 45 -132 117z" />
    <glyph glyph-name="uni04C2" unicode="&#x4c2;" horiz-adv-x="717" 
d="M99 0h-81l127 210c16 25 38 41 49 44l9 2v2c-17 5 -30 18 -41 39l-62 125c-9 17 -20 22 -48 22h-21v59h37c52 0 69 -7 90 -50l65 -133c12 -23 34 -34 65 -34h38v217h66v-217h37c31 0 53 11 64 34l66 133c21 43 38 50 89 50h38v-59h-22c-28 0 -38 -5 -47 -22l-62 -125
c-9 -19 -26 -32 -35 -36l-6 -3v-2c21 -3 40 -18 57 -46l128 -210h-80l-109 182c-18 29 -45 44 -82 44h-36v-226h-66v226h-37c-37 0 -64 -15 -82 -44zM227 687v17h59v-14c-5 -92 151 -92 147 0v14h58v-17c0 -72 -60 -117 -132 -117s-132 45 -132 117z" />
    <glyph glyph-name="uni04C3" unicode="&#x4c3;" horiz-adv-x="609" 
d="M173 0h-70v619c0 15 -7 22 -22 22h-43v62h74c43 0 61 -18 61 -61v-244h84c29 0 49 8 59 25l172 280h80l-170 -274c-13 -21 -25 -36 -38 -45v-1c87 -24 147 -73 172 -129c25 -55 32 -94 32 -137c0 -92 -22 -163 -67 -214c-44 -51 -101 -77 -170 -77v60c46 0 85 18 117 55
c33 37 49 95 49 176c0 73 -23 127 -68 164s-102 55 -173 55h-79v-336z" />
    <glyph glyph-name="uni04C4" unicode="&#x4c4;" horiz-adv-x="501" 
d="M156 0h-68v422c0 15 -7 22 -22 22h-42v59h71c41 0 61 -19 61 -58v-157h34c29 0 51 10 66 31l131 184h80l-140 -193c-16 -21 -26 -31 -31 -33l-2 -1v-2c69 -16 119 -53 140 -100c23 -45 30 -82 30 -125c0 -124 -63 -208 -146 -255l-33 52c74 39 111 106 111 203
c0 117 -71 179 -188 179h-52v-228z" />
    <glyph glyph-name="uni04C5" unicode="&#x4c5;" horiz-adv-x="684" 
d="M10 -4v65c125 17 168 183 168 504v76h-66v62h391c43 0 61 -18 61 -61v-558c0 -15 7 -22 22 -22h77v-45l-66 -157h-55l44 140h-31c-43 0 -61 18 -61 61v558c0 15 -7 22 -22 22h-227v-76c0 -141 -7 -243 -28 -340c-29 -140 -92 -217 -207 -229z" />
    <glyph glyph-name="uni04C6" unicode="&#x4c6;" horiz-adv-x="537" 
d="M11 -4v62c51 0 90 56 107 133s25 149 25 214v39h-64v59h295c43 0 61 -18 61 -61v-361c0 -15 7 -22 22 -22h69v-42l-57 -137h-52l37 120h-26c-43 0 -61 18 -61 61v361c0 15 -7 22 -22 22h-136v-40c0 -21 -1 -44 -3 -67c-3 -45 -9 -120 -28 -177
c-29 -86 -76 -164 -167 -164z" />
    <glyph glyph-name="uni04C7" unicode="&#x4c7;" horiz-adv-x="752" 
d="M173 0h-70v619c0 15 -7 22 -22 22h-43v62h74c43 0 61 -18 61 -61v-259h407v259c0 43 17 61 60 61h75v-62h-43c-15 0 -22 -7 -22 -22v-587c0 -183 -115 -206 -184 -206v60c42 0 114 17 114 145v290h-407v-321z" />
    <glyph glyph-name="uni04C8" unicode="&#x4c8;" horiz-adv-x="606" 
d="M156 0h-68v422c0 15 -7 22 -22 22h-42v59h71c43 0 61 -18 61 -61v-154h293v154c0 43 19 61 62 61h71v-59h-42c-15 0 -22 -7 -22 -22v-382c0 -66 -13 -117 -38 -152c-25 -36 -60 -67 -106 -94l-36 53c71 36 111 89 111 193v188h-293v-228z" />
    <glyph glyph-name="uni04C9" unicode="&#x4c9;" horiz-adv-x="768" 
d="M173 0h-70v619c0 15 -7 22 -22 22h-43v62h74c43 0 61 -18 61 -61v-259h404v259c0 43 18 61 61 61h74v-62h-43c-15 0 -22 -7 -22 -22v-557h99v-45l-66 -157h-55l46 140h-94v321h-404v-321z" />
    <glyph glyph-name="uni04CA" unicode="&#x4ca;" horiz-adv-x="612" 
d="M156 0h-68v422c0 15 -7 22 -22 22h-42v59h71c43 0 61 -18 61 -61v-154h293v215h68v-422c0 -15 7 -22 22 -22h53v-42l-57 -137h-52l37 120h-10c-43 0 -61 18 -61 61v167h-293v-228z" />
    <glyph glyph-name="uni04CB" unicode="&#x4cb;" horiz-adv-x="628" 
d="M291 277c-141 0 -211 66 -211 199v143c0 15 -7 22 -22 22h-43v62h74c43 0 61 -18 61 -61v-152c0 -100 45 -149 152 -149c64 0 131 27 168 55v307h70v-703h-104c-14 0 -21 -7 -21 -22v-118h-65v142c0 43 18 60 61 60h59v234l2 33h-2c-59 -35 -119 -52 -179 -52z" />
    <glyph glyph-name="uni04CC" unicode="&#x4cc;" horiz-adv-x="521" 
d="M302 -120v115c0 41 15 59 58 59h22v141l2 34h-2c-40 -28 -87 -42 -142 -42c-107 0 -161 51 -161 154v81c0 15 -7 22 -22 22h-40v59h69c44 0 61 -20 61 -61v-88c0 -64 24 -106 107 -106c47 0 90 14 128 42v213h68v-503h-66c-12 0 -18 -7 -18 -22v-98h-64z" />
    <glyph glyph-name="uni04CD" unicode="&#x4cd;" horiz-adv-x="867" 
d="M90 0h-67v62h37c14 0 21 7 22 22l49 619h71l186 -409l35 -83h2c12 31 23 59 34 83l186 409h71l50 -619c1 -15 8 -22 22 -22h78v-45l-66 -157h-55l43 140h-30c-43 0 -58 17 -61 61l-34 427l-2 98h-2c-14 -41 -26 -74 -37 -98l-167 -357h-63l-166 357l-37 100h-2
c1 -41 0 -75 -3 -100l-33 -427c-3 -44 -18 -61 -61 -61z" />
    <glyph glyph-name="uni04CE" unicode="&#x4ce;" horiz-adv-x="730" 
d="M74 0h-55v59h29c12 0 19 7 20 20l35 424h72l151 -315l30 -64h1l30 64l151 315h71l35 -424c1 -13 8 -20 20 -20h63v-42l-57 -137h-52l37 120h-17c-40 0 -52 16 -55 55l-22 265l-2 89h-2c-7 -22 -17 -47 -30 -75l-138 -276h-67l-137 276c-11 23 -22 51 -27 66l-3 10h-2
c0 -42 -1 -72 -2 -90l-22 -265c-3 -39 -15 -55 -55 -55z" />
    <glyph glyph-name="uni04CF" unicode="&#x4cf;" horiz-adv-x="287" 
d="M244 0h-201v59h66v585h-66v59h201v-59h-67v-585h67v-59z" />
    <glyph glyph-name="uni04D0" unicode="&#x4d0;" horiz-adv-x="656" 
d="M44 0h-32v62h12c19 0 31 7 36 22l230 619h75l230 -619c5 -15 17 -22 36 -22h13v-62h-33c-25 0 -43 4 -54 11c-10 7 -19 23 -28 47l-62 166h-279l-61 -166c-17 -48 -32 -58 -83 -58zM300 536l-92 -251h241l-93 251l-28 91h-2c-10 -39 -19 -69 -26 -91zM195 854v17h59v-14
c-5 -92 151 -92 147 0v14h58v-17c0 -72 -60 -117 -132 -117s-132 45 -132 117z" />
    <glyph glyph-name="uni04D1" unicode="&#x4d1;" horiz-adv-x="514" 
d="M31 135c0 117 103 175 308 175h28v7c0 103 -36 141 -129 141c-21 0 -43 -3 -65 -10s-33 -18 -33 -34v-32h-66v48c0 32 29 58 66 69c37 12 70 16 97 16c75 0 126 -17 155 -51c29 -33 43 -81 43 -142v-241c0 -15 7 -22 22 -22h42v-59h-69c-43 0 -60 19 -60 59l1 38h-2
c2 0 -44 -109 -168 -109c-46 0 -86 13 -120 39c-33 26 -50 62 -50 108zM100 141c0 -51 42 -96 113 -96c46 0 83 19 111 58c29 39 43 82 43 130v23h-29c-56 0 -88 -2 -147 -15c-57 -13 -91 -48 -91 -100zM126 687v17h59v-14c-5 -92 151 -92 147 0v14h58v-17
c0 -72 -60 -117 -132 -117s-132 45 -132 117z" />
    <glyph glyph-name="uni04D2" unicode="&#x4d2;" horiz-adv-x="656" 
d="M44 0h-32v62h12c19 0 31 7 36 22l230 619h75l230 -619c5 -15 17 -22 36 -22h13v-62h-33c-25 0 -43 4 -54 11c-10 7 -19 23 -28 47l-62 166h-279l-61 -166c-17 -48 -32 -58 -83 -58zM300 536l-92 -251h241l-93 251l-28 91h-2c-10 -39 -19 -69 -26 -91zM431 785h-59v86h59
v-86zM281 785h-59v86h59v-86z" />
    <glyph glyph-name="uni04D3" unicode="&#x4d3;" horiz-adv-x="514" 
d="M31 135c0 117 103 175 308 175h28v7c0 103 -36 141 -129 141c-21 0 -43 -3 -65 -10s-33 -18 -33 -34v-32h-66v48c0 32 29 58 66 69c37 12 70 16 97 16c75 0 126 -17 155 -51c29 -33 43 -81 43 -142v-241c0 -15 7 -22 22 -22h42v-59h-69c-43 0 -60 19 -60 59l1 38h-2
c2 0 -44 -109 -168 -109c-46 0 -86 13 -120 39c-33 26 -50 62 -50 108zM100 141c0 -51 42 -96 113 -96c46 0 83 19 111 58c29 39 43 82 43 130v23h-29c-56 0 -88 -2 -147 -15c-57 -13 -91 -48 -91 -100zM354 618h-59v86h59v-86zM204 618h-59v86h59v-86z" />
    <glyph glyph-name="uni04D4" unicode="&#x4d4;" horiz-adv-x="827" 
d="M36 0h-26v62h9c18 0 30 7 35 22l239 619h413c43 0 61 -18 61 -61v-70h-65v47c0 15 -7 22 -22 22h-233v-256h257v-62h-257v-239c0 -17 8 -22 29 -22h233c15 0 22 7 22 22v47h65v-70c0 -43 -18 -61 -61 -61h-287c-52 0 -71 13 -71 61v262h-159l-99 -265
c-17 -48 -32 -58 -83 -58zM337 641l-95 -256h135v256h-40z" />
    <glyph glyph-name="uni04D5" unicode="&#x4d5;" horiz-adv-x="850" 
d="M32 137c-4 80 51 124 107 145c19 8 41 13 66 16c52 7 79 8 127 8h35v12c0 103 -37 140 -129 140c-21 0 -43 -3 -65 -10s-33 -18 -33 -34v-32h-65v48c0 28 17 49 51 63c34 15 72 22 113 22c94 0 152 -35 174 -104h2c41 69 104 104 189 104c65 0 117 -22 154 -66
c37 -43 56 -98 56 -163l-3 -34h-378c3 -129 79 -202 188 -202c53 0 110 25 133 46l18 15l32 -52c-4 -4 -8 -8 -33 -25c-32 -21 -85 -46 -153 -46c-103 0 -183 52 -222 140h-2c-5 -19 -18 -44 -46 -79s-80 -61 -143 -61c-49 0 -90 13 -123 39c-33 27 -50 63 -50 110zM437 306
h306c-4 99 -65 151 -141 151c-87 0 -149 -54 -165 -151zM102 141c0 -53 42 -96 113 -96c45 0 82 19 110 58s42 83 42 131v18h-58c-53 0 -87 -2 -134 -17c-47 -13 -73 -46 -73 -94z" />
    <glyph glyph-name="uni04D6" unicode="&#x4d6;" horiz-adv-x="560" 
d="M102 61v580h-65v62h402c43 0 61 -18 61 -61v-70h-65v47c0 15 -7 22 -22 22h-241v-256h265v-62h-265v-239c0 -15 7 -22 22 -22h248c15 0 22 7 22 22v47h65v-70c0 -43 -18 -61 -61 -61h-305c-43 0 -61 18 -61 61zM165 854v17h59v-14c-5 -92 151 -92 147 0v14h58v-17
c0 -72 -60 -117 -132 -117s-132 45 -132 117z" />
    <glyph glyph-name="uni04D7" unicode="&#x4d7;" horiz-adv-x="533" 
d="M37 251c0 80 24 144 71 192c48 48 107 72 178 72c67 0 118 -22 155 -67c37 -44 55 -99 55 -165c0 -11 -2 -33 -2 -34h-386c1 -62 20 -111 57 -146s83 -53 138 -53c87 -1 145 57 153 60l31 -52c-62 -47 -124 -70 -186 -70c-75 0 -138 25 -189 74c-50 49 -75 112 -75 189z
M111 303h316c-4 100 -63 156 -143 156c-87 0 -157 -57 -173 -156zM148 687v17h59v-14c-5 -92 151 -92 147 0v14h58v-17c0 -72 -60 -117 -132 -117s-132 45 -132 117z" />
    <glyph glyph-name="uni04D8" unicode="&#x4d8;" horiz-adv-x="689" 
d="M40 341l2 39h534c-2 79 -27 144 -74 194c-47 51 -108 76 -182 76c-39 0 -78 -7 -116 -20s-64 -24 -77 -33s-24 -17 -32 -24l-37 51c5 5 13 13 46 33c17 11 35 20 54 27c39 16 104 31 168 31c95 0 173 -33 232 -100c60 -67 90 -153 90 -260s-28 -195 -85 -264
s-133 -103 -228 -103c-181 0 -295 118 -295 353zM574 321h-462c0 -179 77 -269 230 -269c68 0 123 24 166 73s65 115 66 196z" />
    <glyph glyph-name="uni04D9" unicode="&#x4d9;" horiz-adv-x="535" 
d="M37 233l3 36h386c-1 55 -19 99 -54 134c-34 35 -76 52 -125 52c-60 0 -122 -25 -149 -45l-20 -15l-30 51c65 46 133 69 204 69s130 -25 175 -74c46 -49 69 -112 69 -189c0 -83 -23 -147 -68 -194s-103 -70 -172 -70c-141 0 -219 97 -219 245zM423 215h-315
c4 -120 63 -170 150 -170c43 0 81 14 113 43s49 72 52 127z" />
    <glyph glyph-name="uni04DA" unicode="&#x4da;" horiz-adv-x="689" 
d="M447 784h-60v86h60v-86zM296 784h-59v86h59v-86zM40 341l2 39h534c-2 79 -27 144 -74 194c-47 51 -108 76 -182 76c-39 0 -78 -7 -116 -20s-64 -24 -77 -33s-24 -17 -32 -24l-37 51c5 5 13 13 46 33c17 11 35 20 54 27c39 16 104 31 168 31c95 0 173 -33 232 -100
c60 -67 90 -153 90 -260s-28 -195 -85 -264s-133 -103 -228 -103c-181 0 -295 118 -295 353zM574 321h-462c0 -179 77 -269 230 -269c68 0 123 24 166 73s65 115 66 196z" />
    <glyph glyph-name="uni04DB" unicode="&#x4db;" horiz-adv-x="534" 
d="M37 233l3 36h386c-1 55 -19 99 -54 134c-34 35 -76 52 -125 52c-60 0 -122 -25 -149 -45l-20 -15l-30 51c65 46 133 69 204 69s130 -25 175 -74c46 -49 69 -112 69 -189c0 -83 -23 -147 -68 -194s-103 -70 -172 -70c-141 0 -219 97 -219 245zM423 215h-315
c4 -120 63 -170 150 -170c43 0 81 14 113 43s49 72 52 127zM360 618h-59v86h59v-86zM210 618h-59v86h59v-86z" />
    <glyph glyph-name="uni04DC" unicode="&#x4dc;" horiz-adv-x="847" 
d="M88 0h-79l200 326c11 17 26 32 34 36l6 4v2c-11 5 -22 19 -34 40l-118 210c-9 15 -27 23 -52 23h-20v62h34c28 0 47 -3 58 -10c11 -6 23 -20 36 -43l126 -223c11 -20 33 -30 65 -30h45v306h68v-306h45c33 0 55 10 66 30l126 223c13 23 24 37 35 43c11 7 30 10 58 10h34
v-62h-20c-25 0 -42 -8 -51 -23l-119 -210c-11 -19 -24 -33 -29 -37l-5 -3v-2c15 -7 29 -20 41 -40l200 -326h-80l-185 306c-16 25 -33 31 -62 31h-54v-337h-68v337h-53c-29 0 -50 -10 -62 -31zM530 785h-59v86h59v-86zM380 785h-59v86h59v-86z" />
    <glyph glyph-name="uni04DD" unicode="&#x4dd;" horiz-adv-x="717" 
d="M99 0h-81l127 210c16 25 38 41 49 44l9 2v2c-17 5 -30 18 -41 39l-62 125c-9 17 -20 22 -48 22h-21v59h37c52 0 69 -7 90 -50l65 -133c12 -23 34 -34 65 -34h38v217h66v-217h37c31 0 53 11 64 34l66 133c21 43 38 50 89 50h38v-59h-22c-28 0 -38 -5 -47 -22l-62 -125
c-9 -19 -26 -32 -35 -36l-6 -3v-2c21 -3 40 -18 57 -46l128 -210h-80l-109 182c-18 29 -45 44 -82 44h-36v-226h-66v226h-37c-37 0 -64 -15 -82 -44zM463 618h-59v86h59v-86zM313 618h-59v86h59v-86z" />
    <glyph glyph-name="uni04DE" unicode="&#x4de;" horiz-adv-x="516" 
d="M22 78l44 51c37 -43 104 -77 169 -77c47 0 87 13 119 40s48 62 48 106c0 84 -65 136 -150 136h-86v60h71c39 0 73 12 100 36c27 25 41 56 41 95c0 75 -46 126 -138 126c-69 0 -127 -33 -127 -74v-32h-66v49c0 28 11 52 34 71c47 39 105 50 162 50c133 0 207 -71 207 -182
c0 -73 -35 -126 -106 -159v-2c80 -21 130 -87 130 -176c0 -62 -22 -112 -67 -151c-44 -38 -101 -57 -171 -57c-87 0 -169 37 -214 90zM360 785h-59v86h59v-86zM210 785h-59v86h59v-86z" />
    <glyph glyph-name="uni04DF" unicode="&#x4df;" horiz-adv-x="428" 
d="M26 61l36 47c36 -41 81 -61 136 -61c67 0 121 34 121 98c0 57 -43 89 -122 89h-62v52h53c72 0 113 30 113 87c0 56 -40 85 -103 85c-47 0 -93 -18 -93 -53v-23h-60v42c0 29 16 52 47 67c32 16 69 24 112 24c100 0 167 -48 167 -135c0 -57 -26 -96 -78 -115v-2
c57 -12 95 -54 95 -121c0 -49 -18 -87 -55 -114c-36 -27 -80 -40 -132 -40c-68 0 -126 24 -175 73zM317 618h-59v86h59v-86zM167 618h-59v86h59v-86z" />
    <glyph glyph-name="uni04E0" unicode="&#x4e0;" horiz-adv-x="497" 
d="M26 53l32 55c40 -33 103 -57 158 -57c104 0 173 60 173 147c0 76 -37 118 -126 130c-18 3 -67 4 -146 4v49l199 221c12 15 29 29 37 36l6 5l-1 2c-19 -1 -39 -2 -62 -2h-171c-15 0 -22 -7 -22 -22v-39h-63v61c0 43 18 60 61 60h339v-53l-211 -234l-27 -25v-2
c45 -1 76 -3 91 -6c111 -17 166 -77 166 -180c0 -63 -23 -115 -68 -154s-102 -59 -173 -59c-70 0 -134 21 -192 63z" />
    <glyph glyph-name="uni04E1" unicode="&#x4e1;" horiz-adv-x="463" 
d="M7 -147l32 55c40 -33 103 -57 158 -57c104 0 173 60 173 147c0 76 -37 118 -126 130c-18 3 -67 4 -146 4v49l199 221c12 15 29 29 37 36l6 5l-1 2c-19 -1 -39 -2 -62 -2h-171c-15 0 -22 -7 -22 -22v-39h-63v61c0 43 18 60 61 60h339v-53l-211 -234l-27 -25v-2
c45 -1 76 -3 91 -6c111 -17 166 -77 166 -180c0 -63 -23 -115 -68 -154s-102 -59 -173 -59c-70 0 -134 21 -192 63z" />
    <glyph glyph-name="uni04E2" unicode="&#x4e2;" horiz-adv-x="755" 
d="M171 0h-68v619c0 15 -7 22 -22 22h-43v62h74c43 0 61 -18 61 -61v-442l-6 -94h2c25 41 46 73 62 96l354 501h68v-619c0 -15 7 -22 22 -22h43v-62h-74c-43 0 -61 18 -61 61v442l5 95h-2c-23 -40 -43 -72 -59 -95zM505 786h-246v54h246v-54z" />
    <glyph glyph-name="uni04E3" unicode="&#x4e3;" horiz-adv-x="604" 
d="M152 0h-65v422c0 15 -7 22 -21 22h-42v59h68c43 0 60 -18 60 -59v-272c0 -19 -2 -47 -3 -66l-1 -13h2c3 9 21 35 54 79l247 331h66v-422c0 -15 7 -22 21 -22h41v-59h-67c-43 0 -61 17 -61 60v272c0 39 2 65 5 78h-2c-5 -11 -23 -37 -54 -78zM426 618h-246v54h246v-54z
" />
    <glyph glyph-name="uni04E4" unicode="&#x4e4;" horiz-adv-x="755" 
d="M171 0h-68v619c0 15 -7 22 -22 22h-43v62h74c43 0 61 -18 61 -61v-442l-6 -94h2c25 41 46 73 62 96l354 501h68v-619c0 -15 7 -22 22 -22h43v-62h-74c-43 0 -61 18 -61 61v442l5 95h-2c-23 -40 -43 -72 -59 -95zM482 785h-59v86h59v-86zM332 785h-59v86h59v-86z" />
    <glyph glyph-name="uni04E5" unicode="&#x4e5;" horiz-adv-x="604" 
d="M152 0h-65v422c0 15 -7 22 -21 22h-42v59h68c43 0 60 -18 60 -59v-272c0 -19 -2 -47 -3 -66l-1 -13h2c3 9 21 35 54 79l247 331h66v-422c0 -15 7 -22 21 -22h41v-59h-67c-43 0 -61 17 -61 60v272c0 39 2 65 5 78h-2c-5 -11 -23 -37 -54 -78zM411 618h-59v86h59v-86z
M261 618h-59v86h59v-86z" />
    <glyph glyph-name="uni04E6" unicode="&#x4e6;" horiz-adv-x="791" 
d="M38 356c0 101 35 186 104 255s154 104 254 104s185 -35 254 -104s104 -154 104 -255c0 -103 -35 -190 -105 -261c-69 -71 -154 -107 -253 -107c-100 0 -185 36 -254 107s-104 158 -104 261zM111 356c0 -85 28 -156 83 -215c55 -58 123 -87 202 -87s146 29 201 87
c56 59 84 130 84 215c0 83 -28 152 -83 208c-55 57 -123 85 -202 85s-147 -28 -202 -85c-55 -56 -83 -125 -83 -208zM498 785h-59v86h59v-86zM348 785h-59v86h59v-86z" />
    <glyph glyph-name="uni04E7" unicode="&#x4e7;" horiz-adv-x="602" 
d="M37 254c0 74 26 136 77 186s114 75 188 75s137 -25 188 -75s77 -112 77 -186c0 -75 -26 -139 -77 -190s-114 -76 -188 -76s-137 25 -188 76s-77 115 -77 190zM106 254c0 -58 19 -107 57 -146s84 -59 139 -59s101 20 139 59s57 88 57 146c0 57 -19 104 -57 142
c-38 39 -84 58 -139 58s-101 -19 -139 -58c-38 -38 -57 -85 -57 -142zM407 617h-59v86h59v-86zM257 617h-59v86h59v-86z" />
    <glyph glyph-name="uni04E8" unicode="&#x4e8;" horiz-adv-x="791" 
d="M38 356c0 101 34 186 102 255c69 69 154 104 256 104s187 -35 255 -104c69 -69 103 -154 103 -255c0 -103 -34 -191 -103 -262s-154 -106 -255 -106s-186 35 -255 106s-103 159 -103 262zM395 52c77 0 141 26 194 77c53 52 84 118 91 197h-570c7 -79 38 -144 91 -196
s118 -78 194 -78zM110 385h570c-7 77 -37 140 -90 190c-53 51 -118 76 -195 76s-142 -25 -195 -76c-53 -50 -83 -113 -90 -190z" />
    <glyph glyph-name="uni04E9" unicode="&#x4e9;" horiz-adv-x="602" 
d="M36 254c0 74 26 136 77 186s114 75 188 75s137 -25 188 -75c52 -50 78 -112 78 -186c0 -75 -26 -139 -78 -190c-51 -51 -114 -76 -188 -76s-137 25 -188 76s-77 115 -77 190zM301 46c51 0 95 17 132 52c38 35 60 78 65 131h-394c5 -53 27 -96 64 -131s82 -52 133 -52z
M104 279h394c-6 52 -28 95 -65 128s-81 50 -132 50s-95 -17 -132 -50s-59 -76 -65 -128z" />
    <glyph glyph-name="uni04EA" unicode="&#x4ea;" horiz-adv-x="791" 
d="M38 356c0 101 34 186 102 255c69 69 154 104 256 104s187 -35 255 -104c69 -69 103 -154 103 -255c0 -103 -34 -191 -103 -262s-154 -106 -255 -106s-186 35 -255 106s-103 159 -103 262zM395 52c77 0 141 26 194 77c53 52 84 118 91 197h-570c7 -79 38 -144 91 -196
s118 -78 194 -78zM110 385h570c-7 77 -37 140 -90 190c-53 51 -118 76 -195 76s-142 -25 -195 -76c-53 -50 -83 -113 -90 -190zM351 785h-59v86h59v-86zM501 785h-59v86h59v-86z" />
    <glyph glyph-name="uni04EB" unicode="&#x4eb;" horiz-adv-x="604" 
d="M36 254c0 74 26 136 77 186s114 75 188 75s137 -25 188 -75c52 -50 78 -112 78 -186c0 -75 -26 -139 -78 -190c-51 -51 -114 -76 -188 -76s-137 25 -188 76s-77 115 -77 190zM301 46c51 0 95 17 132 52c38 35 60 78 65 131h-394c5 -53 27 -96 64 -131s82 -52 133 -52z
M104 279h394c-6 52 -28 95 -65 128s-81 50 -132 50s-95 -17 -132 -50s-59 -76 -65 -128zM261 589h-59v86h59v-86zM411 589h-59v86h59v-86z" />
    <glyph glyph-name="uni04EC" unicode="&#x4ec;" horiz-adv-x="692" 
d="M33 95l38 49c22 -24 54 -45 97 -64c43 -18 88 -27 134 -27c75 0 138 25 190 76s81 115 87 192h-394v60h394c-4 78 -32 142 -84 193c-51 51 -115 76 -191 76c-81 2 -197 -37 -197 -101v-39h-66v56c0 45 27 81 82 108s116 41 181 41c101 0 185 -34 250 -102
c66 -68 99 -153 99 -255c0 -103 -33 -191 -100 -263c-66 -71 -150 -107 -251 -107c-53 0 -104 10 -153 31s-87 46 -116 76zM425 785h-59v86h59v-86zM275 785h-59v86h59v-86z" />
    <glyph glyph-name="uni04ED" unicode="&#x4ed;" horiz-adv-x="525" 
d="M30 65l29 51c42 -46 97 -69 165 -69c51 0 95 16 132 49s58 76 63 128h-258v53h258c-5 53 -26 96 -63 129s-78 50 -125 50c-31 0 -60 -6 -89 -18c-28 -11 -42 -26 -42 -45v-27h-61v40c0 29 18 55 55 76c37 22 83 33 138 33c71 0 132 -25 181 -75c50 -50 75 -113 75 -189
c0 -77 -25 -141 -75 -190s-113 -73 -188 -73c-81 0 -146 26 -195 77zM353 618h-59v86h59v-86zM203 618h-59v86h59v-86z" />
    <glyph glyph-name="uni04EE" unicode="&#x4ee;" horiz-adv-x="607" 
d="M91 31l34 53c25 -21 50 -32 77 -32c45 0 66 29 90 94l-229 473c-7 15 -19 22 -34 22h-19v62h38c44 0 59 -11 80 -58l160 -338l39 -89h2l31 89l123 338c17 48 32 58 83 58h31v-62h-13c-18 0 -30 -7 -35 -21l-201 -517c-30 -77 -77 -115 -140 -115c-45 0 -84 14 -117 43z
M433 786h-246v54h246v-54z" />
    <glyph glyph-name="uni04EF" unicode="&#x4ef;" horiz-adv-x="533" 
d="M5 -161l32 49c21 -25 46 -37 74 -37c40 0 71 27 94 82l30 69l-177 419c-7 15 -18 23 -35 23h-10v59h30c45 0 59 -10 78 -55l129 -314l17 -54h2c5 19 11 37 17 54l124 314c17 45 33 55 78 55h32v-59h-11c-17 0 -28 -8 -35 -23l-216 -526c-27 -65 -79 -105 -144 -105
c-41 0 -82 20 -98 36zM391 618h-246v53h246v-53z" />
    <glyph glyph-name="uni04F0" unicode="&#x4f0;" horiz-adv-x="607" 
d="M91 31l34 53c25 -21 50 -32 77 -32c45 0 66 29 90 94l-229 473c-7 15 -19 22 -34 22h-19v62h38c44 0 59 -11 80 -58l160 -338l39 -89h2l31 89l123 338c17 48 32 58 83 58h31v-62h-13c-18 0 -30 -7 -35 -21l-201 -517c-30 -77 -77 -115 -140 -115c-45 0 -84 14 -117 43z
M413 785h-59v86h59v-86zM263 785h-59v86h59v-86z" />
    <glyph glyph-name="uni04F1" unicode="&#x4f1;" horiz-adv-x="533" 
d="M4 -161l32 49c21 -25 46 -37 75 -37c39 0 70 27 93 82l30 69l-177 419c-7 15 -18 23 -35 23h-10v59h31c45 0 60 -10 77 -55l129 -314l18 -54h2c5 19 10 37 17 54l124 314c17 45 31 55 78 55h31v-59h-10c-17 0 -29 -8 -35 -23l-217 -526c-27 -65 -79 -105 -144 -105
c-41 0 -82 20 -97 36zM371 618h-59v86h59v-86zM221 618h-59v86h59v-86z" />
    <glyph glyph-name="uni04F2" unicode="&#x4f2;" horiz-adv-x="607" 
d="M91 31l34 53c25 -21 50 -32 77 -32c45 0 66 29 90 94l-229 473c-7 15 -19 22 -34 22h-19v62h38c44 0 59 -11 80 -58l160 -338l39 -89h2l31 89l123 338c17 48 32 58 83 58h31v-62h-13c-18 0 -30 -7 -35 -21l-201 -517c-30 -77 -77 -115 -140 -115c-45 0 -84 14 -117 43z
M395 752h-59l70 119h76zM267 752h-64l66 119h65z" />
    <glyph glyph-name="uni04F3" unicode="&#x4f3;" horiz-adv-x="533" 
d="M4 -161l32 49c21 -25 46 -37 75 -37c39 0 70 27 93 82l30 69l-177 419c-7 15 -18 23 -35 23h-10v59h31c45 0 60 -10 77 -55l129 -314l18 -54h2c5 19 10 37 17 54l124 314c17 45 31 55 78 55h31v-59h-10c-17 0 -29 -8 -35 -23l-217 -526c-27 -65 -79 -105 -144 -105
c-41 0 -82 20 -97 36zM355 585h-59l70 119h76zM227 585h-64l66 119h65z" />
    <glyph glyph-name="uni04F4" unicode="&#x4f4;" horiz-adv-x="628" 
d="M291 277c-141 0 -211 66 -211 199v143c0 15 -7 22 -22 22h-43v62h74c43 0 61 -18 61 -61v-152c0 -100 45 -149 152 -149c64 0 131 27 168 55v307h70v-703h-70v296l2 33h-2c-59 -35 -119 -52 -179 -52zM392 785h-59v86h59v-86zM242 785h-59v86h59v-86z" />
    <glyph glyph-name="uni04F5" unicode="&#x4f5;" horiz-adv-x="522" 
d="M241 183c-107 0 -161 51 -161 154v85c0 15 -7 22 -22 22h-40v59h69c44 0 60 -20 60 -61v-92c0 -63 24 -105 108 -105c46 0 89 14 128 41v217h68v-503h-68v191l2 34h-2c-36 -25 -94 -42 -142 -42zM365 618h-59v86h59v-86zM215 618h-59v86h59v-86z" />
    <glyph glyph-name="uni04F6" unicode="&#x4f6;" horiz-adv-x="499" 
d="M178 0h-76v641h-65v62h386c43 0 61 -18 61 -61v-70h-65v47c0 15 -7 22 -22 22h-225v-579h32c43 0 60 -17 60 -60v-142h-65v118c0 15 -7 22 -21 22z" />
    <glyph glyph-name="uni04F7" unicode="&#x4f7;" horiz-adv-x="426" 
d="M153 0h-65v444h-64v59h322c44 0 61 -15 61 -58v-63h-58v40c0 15 -7 22 -22 22h-171v-386h21c43 0 58 -17 58 -58v-120h-64v98c0 15 -6 22 -18 22z" />
    <glyph glyph-name="uni04F8" unicode="&#x4f8;" horiz-adv-x="818" 
d="M645 61v642h70v-619c0 -15 7 -22 22 -22h43v-62h-74c-43 0 -61 18 -61 61zM102 61v558c0 15 -7 22 -22 22h-43v62h74c43 0 61 -18 61 -61v-222h149c64 0 116 -18 157 -55c41 -36 61 -87 61 -152c0 -67 -21 -120 -63 -157c-41 -37 -96 -56 -163 -56h-150
c-43 0 -61 18 -61 61zM172 358v-274c0 -15 7 -22 22 -22h121c95 0 151 54 151 150c0 92 -58 146 -151 146h-143zM516 785h-59v86h59v-86zM366 785h-59v86h59v-86z" />
    <glyph glyph-name="uni04F9" unicode="&#x4f9;" horiz-adv-x="679" 
d="M523 61v442h68v-422c0 -15 7 -22 22 -22h42v-59h-71c-43 0 -61 18 -61 61zM87 56v366c0 15 -7 22 -22 22h-42v59h71c41 0 61 -19 61 -58v-136h108c107 0 174 -59 174 -155c0 -92 -67 -154 -174 -154h-120c-40 0 -56 17 -56 56zM155 256v-181c0 -15 7 -22 20 -22h82
c71 0 110 40 110 101c0 64 -38 102 -110 102h-102zM442 618h-59v86h59v-86zM292 618h-59v86h59v-86z" />
    <glyph glyph-name="uni0524" unicode="&#x524;" horiz-adv-x="753" 
d="M173 0h-70v641h-66v62h543c43 0 61 -18 61 -61v-580h30c43 0 60 -17 60 -60v-142h-64v118c0 15 -7 22 -21 22h-75v619c0 15 -7 22 -22 22h-376v-641z" />
    <glyph glyph-name="uni0525" unicode="&#x525;" horiz-adv-x="598" 
d="M154 0h-68v443h-55v60h414c43 0 61 -18 61 -61v-383h20c41 0 60 -18 60 -59v-120h-65v98c0 15 -7 22 -21 22h-62v421c0 15 -7 22 -22 22h-262v-443z" />
    <glyph glyph-name="uni1E9E" unicode="&#x1e9e;" horiz-adv-x="620" 
d="M109 0h-74v62h43c15 0 22 7 22 22v432c0 53 18 97 54 133c37 36 82 54 135 54h263v-48l-156 -223l-26 -35v-2h31c51 -2 93 -22 128 -61c35 -38 53 -83 53 -134c0 -55 -20 -103 -59 -142s-87 -58 -142 -58h-95v62h91c39 0 70 13 95 40s38 60 38 98s-12 70 -37 97
s-56 40 -94 40h-91v49l136 196c17 27 33 49 40 54l4 5v2c-5 -1 -19 -2 -43 -2h-131c-72 0 -124 -55 -124 -124v-456c0 -43 -18 -61 -61 -61z" />
    <glyph glyph-name="endash" unicode="&#x2013;" horiz-adv-x="624" 
d="M562 255h-500v58h500v-58z" />
    <glyph glyph-name="emdash" unicode="&#x2014;" horiz-adv-x="824" 
d="M762 255h-700v58h700v-58z" />
    <glyph glyph-name="quoteleft" unicode="&#x2018;" horiz-adv-x="206" 
d="M124 540h-71l57 172h53z" />
    <glyph glyph-name="quoteright" unicode="&#x2019;" horiz-adv-x="202" 
d="M111 542h-54l39 171h71z" />
    <glyph glyph-name="quotesinglbase" unicode="&#x201a;" horiz-adv-x="227" 
d="M99 -90h-53l39 172h70z" />
    <glyph glyph-name="quotedblleft" unicode="&#x201c;" horiz-adv-x="324" 
d="M243 540h-71l56 172h53zM124 540h-71l57 172h53z" />
    <glyph glyph-name="quotedblright" unicode="&#x201d;" horiz-adv-x="320" 
d="M229 542h-54l39 171h71zM111 542h-54l39 171h71z" />
    <glyph glyph-name="quotedblbase" unicode="&#x201e;" horiz-adv-x="345" 
d="M218 -90h-54l39 172h71zM99 -90h-53l39 172h70z" />
    <glyph glyph-name="dagger" unicode="&#x2020;" horiz-adv-x="400" 
d="M231 -50h-66v495h-117v58h117v200h66v-200h122v-58h-122v-495z" />
    <glyph glyph-name="daggerdbl" unicode="&#x2021;" horiz-adv-x="407" 
d="M168 179h-117v58h117v208h-117v58h117v200h67v-200h121v-58h-121v-208h121v-58h-121v-229h-67v229z" />
    <glyph glyph-name="bullet" unicode="&#x2022;" horiz-adv-x="438" 
d="M320 190c-28 -28 -62 -42 -101 -42s-73 14 -101 42s-42 62 -42 101s14 73 42 101s62 42 101 42s73 -14 101 -42s42 -62 42 -101s-14 -73 -42 -101z" />
    <glyph glyph-name="ellipsis" unicode="&#x2026;" horiz-adv-x="670" 
d="M609 0h-77v80h77v-80zM374 0h-77v80h77v-80zM139 0h-77v80h77v-80z" />
    <glyph glyph-name="perthousand" unicode="&#x2030;" horiz-adv-x="1040" 
d="M191 437c-39 0 -73 13 -100 40s-41 60 -41 99c0 38 14 71 41 98c28 27 61 41 100 41s72 -14 99 -41s41 -60 41 -98c0 -39 -14 -72 -41 -99s-60 -40 -99 -40zM129 0h-72l535 703h72zM272 576c0 45 -36 83 -81 83s-81 -38 -81 -83c0 -47 36 -83 81 -83s81 36 81 83z
M725 126c0 39 14 72 41 99s60 41 99 41s72 -14 99 -41c28 -27 42 -60 42 -99c0 -38 -14 -71 -42 -98c-27 -27 -60 -40 -99 -40s-72 13 -99 40s-41 60 -41 98zM388 126c0 39 14 72 41 99c28 27 61 41 100 41s72 -14 99 -41c28 -27 42 -60 42 -99c0 -38 -14 -71 -42 -98
c-27 -27 -60 -40 -99 -40s-72 13 -100 40c-27 27 -41 60 -41 98zM784 127c0 -47 36 -83 81 -83s81 36 81 83c0 45 -36 83 -81 83s-81 -38 -81 -83zM448 127c0 -47 36 -83 81 -83s81 36 81 83c0 45 -36 83 -81 83s-81 -38 -81 -83z" />
    <glyph glyph-name="guilsinglleft" unicode="&#x2039;" horiz-adv-x="333" 
d="M283 77h-74l-164 205l164 206h74l-164 -206z" />
    </font>
</defs>
</svg>
