<svg width="61" height="73" viewBox="0 0 61 73" version="1.1" xmlns="http://www.w3.org/2000/svg" xmlns:xlink="http://www.w3.org/1999/xlink">
<g id="Canvas" fill="none">
<g id="Group">
<g id="Vector">
<path d="M 16.5491 22.9684L 17.6565 24.8649C 18.0871 25.599 19.01 25.8437 19.7482 25.4154L 21.8399 24.1919C 22.5781 23.7637 22.8242 22.8461 22.3936 22.1119L 21.2863 20.2154C 22.6397 18.8695 23.5009 17.279 23.9931 15.566L 26.2079 15.566C 27.0692 15.566 27.7459 14.8931 27.7459 14.0366L 27.7459 11.5895C 27.7459 10.7331 27.0692 10.0601 26.2079 10.0601L 23.9931 10.0601C 23.5009 8.34718 22.6397 6.75661 21.2863 5.41072L 22.3936 3.51427C 22.8242 2.78015 22.5781 1.86249 21.8399 1.43425L 19.7482 0.210719C 19.01 -0.217517 18.0871 0.0272044 17.6565 0.761323L 16.5491 2.65778C 14.765 2.16837 12.9194 2.16837 11.1968 2.65778L 10.0894 0.761323C 9.65876 0.0272044 8.73593 -0.217517 7.99768 0.210719L 5.90603 1.43425C 5.16778 1.86249 4.92168 2.78015 5.35233 3.51427L 6.45966 5.41072C 5.1062 6.75661 4.24497 8.34718 3.7528 10.0601L 1.53799 10.0601C 0.676699 10.0601 -3.00395e-05 10.7331 -3.00395e-05 11.5895L -3.00395e-05 14.0366C -3.00395e-05 14.8931 0.676699 15.566 1.53799 15.566L 3.7528 15.566C 4.24497 17.279 5.1062 18.8695 6.45966 20.2154L 5.35233 22.1119C 4.92168 22.8461 5.16778 23.7637 5.90603 24.1919L 7.99768 25.4154C 8.73593 25.8437 9.65876 25.599 10.0894 24.8649L 11.1968 22.9684C 12.9194 23.3966 14.765 23.3966 16.5491 22.9684Z" stroke-width="2" stroke-miterlimit="10" transform="translate(1.06592 45.8211)" stroke="#F2994A"/>
</g>
<g id="Vector_2">
<path d="M 22.086 30.4319L 23.5625 33.0013C 24.1162 33.9801 25.4081 34.2861 26.3925 33.7355L 29.2224 32.1449C 30.2067 31.5943 30.5143 30.3096 29.9606 29.3307L 28.4842 26.8225C 30.2683 25.0484 31.4371 22.9072 32.0524 20.6437L 35.0054 20.6437C 36.1128 20.6437 37.0355 19.726 37.0355 18.6248L 37.0355 15.3825C 37.0355 14.2813 36.1128 13.3637 35.0054 13.3637L 32.0524 13.3637C 31.4371 11.1001 30.2683 8.95897 28.4842 7.18485L 29.9606 4.67662C 30.5143 3.6978 30.2067 2.47428 29.2224 1.86252L 26.3925 0.271866C 25.4081 -0.278723 24.1777 0.0272045 23.5625 1.00603L 22.086 3.57541C 19.7482 2.96365 17.2874 2.96365 14.9496 3.57541L 13.4731 1.00603C 12.9194 0.0272045 11.6275 -0.278723 10.6431 0.271866L 7.81312 1.86252C 6.82879 2.4131 6.52121 3.6978 7.0749 4.67662L 8.55141 7.18485C 6.76731 8.95897 5.59838 11.1001 4.98317 13.3637L 2.03022 13.3637C 0.922843 13.3637 0 14.2813 0 15.3825L 0 18.6248C 0 19.726 0.922843 20.6437 2.03022 20.6437L 4.98317 20.6437C 5.59838 22.9072 6.76731 25.0484 8.55141 26.8225L 7.0749 29.3307C 6.52121 30.3096 6.82879 31.5331 7.81312 32.1449L 10.6431 33.7355C 11.6275 34.2861 12.8579 33.9801 13.4731 33.0013L 14.9496 30.4319C 17.2874 31.0437 19.7482 31.0437 22.086 30.4319Z" stroke-width="2" stroke-miterlimit="10" transform="translate(22.1674 19.5764)" stroke="#F2994A"/>
</g>
<g id="Vector_3">
<path d="M 24.4281 15.2036L 26.6428 15.02C 27.5041 14.9588 28.1192 14.2247 28.0577 13.3683L 27.8732 10.9212C 27.8117 10.0647 27.0734 9.45294 26.2121 9.51412L 23.9974 9.69768C 23.3822 7.92356 22.2748 6.45528 20.9213 5.29292L 21.9056 3.27414C 22.2748 2.47885 21.9672 1.56118 21.1674 1.19412L 18.9527 0.154078C 18.1529 -0.212981 17.2301 0.0929466 16.861 0.888242L 15.8766 2.90702C 14.1541 2.60114 12.3084 2.72354 10.5243 3.3353L 9.29386 1.50001C 8.80169 0.827065 7.81736 0.64355 7.14063 1.13296L 5.11048 2.53998C 4.43375 3.02939 4.24921 4.00822 4.74137 4.68116L 5.97179 6.51645C 4.80289 7.92351 4.00309 9.5753 3.63397 11.3494L 1.41923 11.533C 0.557939 11.5942 -0.0572999 12.3282 0.00422093 13.1847L 0.188814 15.6318C 0.250334 16.4882 0.988555 17.1 1.84985 17.0389L 4.06458 16.8553C 4.67979 18.6294 5.78717 20.0976 7.14063 21.26L 6.15631 23.2788C 5.78718 24.0741 6.09483 24.9918 6.8946 25.3589L 9.10934 26.3988C 9.90911 26.7659 10.8319 26.46 11.2011 25.6647L 12.1854 23.6459C 13.908 23.9518 15.7536 23.8294 17.5377 23.2177L 18.7681 25.053C 19.2603 25.7259 20.2446 25.9094 20.9213 25.42L 22.9515 24.0129C 23.6283 23.5235 23.8128 22.5447 23.3206 21.8718L 22.0902 20.0365C 23.2591 18.6294 24.0589 16.9777 24.4281 15.2036Z" stroke-width="2" stroke-miterlimit="10" transform="translate(1 1.34119)" stroke="#F2994A"/>
</g>
<g id="Vector_4">
<path d="M 7.99773 3.97646C 7.99773 1.7741 6.21362 -1.49357e-05 3.99887 -1.49357e-05C 1.78412 -1.49357e-05 1.50197e-05 1.7741 1.50197e-05 3.97646C 1.50197e-05 6.17882 1.78412 7.95293 3.99887 7.95293C 6.21362 7.95293 7.99773 6.17882 7.99773 3.97646Z" stroke-width="2" stroke-miterlimit="10" transform="translate(11.0322 10.6106)" stroke="#F2994A"/>
</g>
<g id="Vector_5">
<path d="M 7.99768 3.97646C 7.99768 1.7741 6.21358 -1.49357e-05 3.99883 -1.49357e-05C 1.78408 -1.49357e-05 -3.00395e-05 1.7741 -3.00395e-05 3.97646C -3.00395e-05 6.17882 1.78408 7.95293 3.99883 7.95293C 6.21358 7.95293 7.99768 6.17882 7.99768 3.97646Z" stroke-width="2" stroke-miterlimit="10" transform="translate(10.9091 54.6577)" stroke="#F2994A"/>
</g>
<g id="Vector_6">
<path d="M 7.13644 3.54825C 7.13644 5.50789 5.53886 7.09645 3.5682 7.09645C 1.59753 7.09645 3.00395e-05 5.50789 3.00395e-05 3.54825C 3.00395e-05 1.58862 1.59753 -1.49357e-05 3.5682 -1.49357e-05C 5.53886 -1.49357e-05 7.13644 1.58862 7.13644 3.54825Z" stroke-width="2" stroke-miterlimit="10" transform="translate(37.1171 32.94)" stroke="#F2994A"/>
</g>
</g>
</g>
</svg>

