<svg width="73" height="68" viewBox="0 0 73 68" version="1.1" xmlns="http://www.w3.org/2000/svg" xmlns:xlink="http://www.w3.org/1999/xlink">
<g id="Canvas" fill="none">
<g id="Group">
<g id="Vector">
<path d="M 45.3409 5.93409L 2.76841 5.93409C 1.23039 5.93409 -3.00395e-05 4.71056 -3.00395e-05 3.18115L -3.00395e-05 2.75294C -3.00395e-05 1.22353 1.23039 0 2.76841 0L 45.3409 0C 46.8789 0 48.1093 1.22353 48.1093 2.75294L 48.1093 3.18115C 48.1093 4.71056 46.8789 5.93409 45.3409 5.93409Z" stroke-width="2" stroke-miterlimit="10" stroke-linecap="round" stroke-linejoin="round" transform="translate(12.0122 60.2542)" stroke="#F2994A"/>
</g>
<g id="Vector_2">
<path d="M 17.718 0L 11.0738 0C 4.98321 0 1.50197e-05 4.9553 1.50197e-05 11.0118L 1.50197e-05 11.9294L 28.7917 11.9294L 28.7917 11.0118C 28.7917 4.89412 23.8701 0 17.718 0Z" stroke-width="2" stroke-miterlimit="10" stroke-linecap="round" stroke-linejoin="round" transform="translate(21.6709 48.3248)" stroke="#F2994A"/>
</g>
<g id="Vector_3">
<path d="M 4.88281e-05 4.83293L 4.88281e-05 -2.98714e-05" stroke-width="2" stroke-miterlimit="10" stroke-linecap="round" stroke-linejoin="round" transform="translate(36.0669 1.34119)" stroke="#F2994A"/>
</g>
<g id="Vector_4">
<path d="M 4.88281e-05 35.2989L 4.88281e-05 2.98714e-05" stroke-width="2" stroke-miterlimit="10" stroke-linecap="round" stroke-linejoin="round" transform="translate(36.0669 13.026)" stroke="#F2994A"/>
</g>
<g id="Vector_5">
<path d="M 6.89035 3.42586C 6.89035 1.52938 5.35235 -1.49357e-05 3.4452 -1.49357e-05C 1.53805 -1.49357e-05 -3.00395e-05 1.52938 -3.00395e-05 3.42586C -3.00395e-05 5.32233 1.53805 6.8518 3.4452 6.8518C 5.35235 6.8518 6.89035 5.32233 6.89035 3.42586Z" stroke-width="2" stroke-miterlimit="10" stroke-linecap="round" stroke-linejoin="round" transform="translate(32.6217 6.17415)" stroke="#F2994A"/>
</g>
<g id="Vector_6">
<path d="M 22.0245 -1.49357e-05C 22.0245 6.05646 17.1028 10.9506 11.0122 10.9506C 4.92164 10.9506 3.00395e-05 6.05646 3.00395e-05 -1.49357e-05L 22.0245 -1.49357e-05Z" stroke-width="2" stroke-miterlimit="10" stroke-linecap="round" stroke-linejoin="round" transform="translate(1 27.2801)" stroke="#F2994A"/>
</g>
<g id="Group_2">
<g id="Vector_7">
<path d="M -3.00395e-05 9.17648L 6.45966 0" stroke-width="2" stroke-miterlimit="10" stroke-linecap="round" stroke-linejoin="round" transform="translate(5.55237 11.6189)" stroke="#F2994A"/>
</g>
<g id="Vector_8">
<path d="M 6.45966 9.17648L -3.00395e-05 0" stroke-width="2" stroke-miterlimit="10" stroke-linecap="round" stroke-linejoin="round" transform="translate(12.0122 11.6189)" stroke="#F2994A"/>
</g>
</g>
<g id="Vector_9">
<path d="M 20.6095 -2.98714e-05L -3.00395e-05 2.01883" stroke-width="2" stroke-miterlimit="10" stroke-linecap="round" stroke-linejoin="round" transform="translate(12.0122 9.60001)" stroke="#F2994A"/>
</g>
<g id="Vector_10">
<path d="M -1.50197e-05 -1.49357e-05C -1.50197e-05 6.05646 4.92167 10.9506 11.0122 10.9506C 17.1028 10.9506 22.0245 6.05646 22.0245 -1.49357e-05L -1.50197e-05 -1.49357e-05Z" stroke-width="2" stroke-miterlimit="10" stroke-linecap="round" stroke-linejoin="round" transform="translate(49.1708 27.2801)" stroke="#F2994A"/>
</g>
<g id="Group_3">
<g id="Vector_11">
<path d="M 6.45971 9.17648L 1.50197e-05 0" stroke-width="2" stroke-miterlimit="10" stroke-linecap="round" stroke-linejoin="round" transform="translate(60.1216 11.6189)" stroke="#F2994A"/>
</g>
<g id="Vector_12">
<path d="M 1.50197e-05 9.17648L 6.45971 0" stroke-width="2" stroke-miterlimit="10" stroke-linecap="round" stroke-linejoin="round" transform="translate(53.6619 11.6189)" stroke="#F2994A"/>
</g>
</g>
<g id="Vector_13">
<path d="M 1.50197e-05 -2.98714e-05L 20.6095 2.01883" stroke-width="2" stroke-miterlimit="10" stroke-linecap="round" stroke-linejoin="round" transform="translate(39.5121 9.60001)" stroke="#F2994A"/>
</g>
</g>
</g>
</svg>

