<svg width="53" height="38" viewBox="0 0 53 38" version="1.1" xmlns="http://www.w3.org/2000/svg" xmlns:xlink="http://www.w3.org/1999/xlink">
<title>Group</title>
<desc>Created using Figma</desc>
<g id="Canvas" transform="translate(-1837 -456)">
<g id="Group">
<g id="Vector">
<use xlink:href="#path0_fill" transform="translate(1837 456)" fill="#FF3838"/>
</g>
</g>
</g>
<defs>
<path id="path0_fill" d="M 34.5347 27.6368C 34.4497 27.7849 34.4011 27.9454 34.2919 28.0565C 31.7181 30.6862 28.9866 33.1431 25.7937 34.9703C 21.6296 37.3407 17.1255 38.3654 12.3544 37.8839C 7.58329 37.4024 3.67413 35.3653 1.33106 30.8961C 0.10489 28.5257 -0.174336 25.9701 0.0927495 23.3404C 0.529799 19.0193 2.25372 15.2414 4.77889 11.8093C 7.9475 7.48818 11.7838 3.95724 16.7128 1.80904C 19.9299 0.413949 23.3049 -0.314462 26.8256 0.129992C 30.492 0.599138 33.1871 2.59918 35.0688 5.75974C 35.7608 6.92026 36.295 8.19189 36.9263 9.47587C 37.4726 8.61166 38.0068 7.74744 38.541 6.88322C 39.5729 5.21652 40.6048 3.53747 41.6731 1.89546C 41.8067 1.68558 42.1345 1.45101 42.3651 1.45101C 45.2545 1.42632 48.156 1.42632 51.0454 1.43866C 51.1425 1.43866 51.2397 1.46335 51.4096 1.50039C 51.179 1.88312 50.9969 2.21646 50.7905 2.53745C 47.3062 8.09313 43.8098 13.6611 40.3134 19.2045C 40.0342 19.6366 39.9735 20.007 40.1435 20.5132C 41.1147 23.4144 41.9888 26.3404 42.9964 29.217C 44.1862 32.6369 46.7113 34.1554 50.1956 34.1184C 51.1061 34.106 52.0166 34.0443 53 33.9949C 52.9029 34.1554 52.8665 34.2912 52.7815 34.3776C 50.232 37.1925 47.0998 38.353 43.3728 37.7234C 39.3179 37.0444 37.0234 34.3283 35.6151 30.6492C 35.3116 29.8467 35.1174 29.0072 34.8625 28.18C 34.8139 28.0318 34.7532 27.896 34.7046 27.7479C 34.6439 27.7108 34.5832 27.6738 34.5347 27.6368ZM 8.10532 26.538C 8.20244 27.1306 8.32384 28.3281 8.62735 29.464C 9.0644 31.0813 9.96278 32.4146 11.5653 33.0937C 13.4228 33.8838 15.2559 33.6122 17.0527 32.8714C 19.3715 31.9208 21.3139 30.3652 23.1228 28.6491C 26.3521 25.612 28.9016 22.007 31.2811 18.2785C 31.4146 18.0687 31.4268 17.723 31.3782 17.476C 31.1961 16.4266 30.9897 15.3772 30.7348 14.3402C 30.152 11.9451 29.5086 9.5623 28.3189 7.38941C 26.7649 4.53749 24.4947 3.50044 21.6053 4.24119C 19.59 4.75972 18.0118 5.96962 16.5792 7.42645C 14.139 9.92033 12.3423 12.8587 10.8005 15.9698C 9.2465 19.1057 8.23886 22.4021 8.10532 26.538Z"/>
</defs>
</svg>
