<svg width="67" height="63" viewBox="0 0 67 63" version="1.1" xmlns="http://www.w3.org/2000/svg" xmlns:xlink="http://www.w3.org/1999/xlink">
<title>Group</title>
<desc>Created using Figma</desc>
<g id="Canvas" transform="translate(-1993 -4525)">
<g id="Group">
<g id="Vector">
<use xlink:href="#path0_stroke" transform="translate(1994 4526)" fill="#EB5757"/>
</g>
<g id="Vector">
<use xlink:href="#path1_stroke" transform="translate(1998.63 4543.86)" fill="#EB5757"/>
</g>
<g id="Vector">
<use xlink:href="#path2_stroke" transform="translate(1998.63 4576.85)" fill="#EB5757"/>
</g>
<g id="Vector">
<use xlink:href="#path3_stroke" transform="translate(1998.57 4547.94)" fill="#EB5757"/>
</g>
<g id="Vector">
<use xlink:href="#path4_stroke" transform="translate(1998.57 4571.64)" fill="#EB5757"/>
</g>
<g id="Vector">
<use xlink:href="#path4_stroke" transform="translate(2021.17 4571.64)" fill="#EB5757"/>
</g>
<g id="Vector">
<use xlink:href="#path5_stroke" transform="translate(2043.71 4571.64)" fill="#EB5757"/>
</g>
<g id="Vector">
<use xlink:href="#path3_stroke" transform="translate(2021.17 4547.94)" fill="#EB5757"/>
</g>
<g id="Vector">
<use xlink:href="#path6_stroke" transform="translate(2043.71 4547.94)" fill="#EB5757"/>
</g>
<g id="Group">
<g id="Vector">
<use xlink:href="#path7_stroke" transform="translate(2000.4 4553.14)" fill="#EB5757"/>
</g>
<g id="Vector">
<use xlink:href="#path7_stroke" transform="translate(2007.13 4553.14)" fill="#EB5757"/>
</g>
</g>
<g id="Vector">
<use xlink:href="#path7_stroke" transform="translate(2023 4553.14)" fill="#EB5757"/>
</g>
<g id="Vector">
<use xlink:href="#path7_stroke" transform="translate(2029.72 4553.14)" fill="#EB5757"/>
</g>
<g id="Vector">
<use xlink:href="#path8_stroke" transform="translate(2045.54 4553.14)" fill="#EB5757"/>
</g>
<g id="Vector">
<use xlink:href="#path7_stroke" transform="translate(2052.31 4553.14)" fill="#EB5757"/>
</g>
<g id="Vector">
<use xlink:href="#path9_stroke" transform="translate(1994 4581.99)" fill="#EB5757"/>
</g>
</g>
</g>
<defs>
<path id="path0_stroke" d="M 32.3309 -6.54713e-06L 32.8139 -0.875667C 32.513 -1.04157 32.1481 -1.04145 31.8474 -0.875328L 32.3309 -6.54713e-06ZM -2.62672e-05 17.8602L -0.483569 16.9848C -0.882822 17.2054 -1.08224 17.6682 -0.968355 18.1098C -0.854471 18.5515 -0.456148 18.8602 -2.62672e-05 18.8602L -2.62672e-05 17.8602ZM 64.7156 17.8602L 64.7156 18.8602C 65.1719 18.8602 65.5703 18.5513 65.684 18.1095C 65.7978 17.6677 65.5981 17.2048 65.1985 16.9845L 64.7156 17.8602ZM 31.8474 -0.875328L -0.483569 16.9848L 0.483516 18.7355L 32.8145 0.875314L 31.8474 -0.875328ZM -2.62672e-05 18.8602L 64.7156 18.8602L 64.7156 16.8602L -2.62672e-05 16.8602L -2.62672e-05 18.8602ZM 65.1985 16.9845L 32.8139 -0.875667L 31.848 0.875654L 64.2327 18.7358L 65.1985 16.9845Z"/>
<path id="path1_stroke" d="M 55.4091 4.0762L 55.4091 5.0762L 56.4091 5.0762L 56.4091 4.0762L 55.4091 4.0762ZM 2.62672e-05 4.0762L -0.999974 4.0762L -0.999974 5.0762L 2.62672e-05 5.0762L 2.62672e-05 4.0762ZM 54.4091 3.27357e-06L 54.4091 4.0762L 56.4091 4.0762L 56.4091 3.27357e-06L 54.4091 3.27357e-06ZM 55.4091 3.0762L 2.62672e-05 3.0762L 2.62672e-05 5.0762L 55.4091 5.0762L 55.4091 3.0762ZM 1.00003 4.0762L 1.00003 3.27357e-06L -0.999974 3.27357e-06L -0.999974 4.0762L 1.00003 4.0762Z"/>
<path id="path2_stroke" d="M 55.4091 3.27357e-06L 56.4091 3.27357e-06L 56.4091 -0.999997L 55.4091 -0.999997L 55.4091 3.27357e-06ZM 2.62672e-05 3.27357e-06L 2.62672e-05 -0.999997L -0.999974 -0.999997L -0.999974 3.27357e-06L 2.62672e-05 3.27357e-06ZM 56.4091 5.14888L 56.4091 3.27357e-06L 54.4091 3.27357e-06L 54.4091 5.14888L 56.4091 5.14888ZM 55.4091 -0.999997L 2.62672e-05 -0.999997L 2.62672e-05 1L 55.4091 1L 55.4091 -0.999997ZM -0.999974 3.27357e-06L -0.999974 5.14888L 1.00003 5.14888L 1.00003 3.27357e-06L -0.999974 3.27357e-06Z"/>
<path id="path3_stroke" d="M 10.3287 3.43259L 11.3287 3.43259L 11.3287 2.43259L 10.3287 2.43259L 10.3287 3.43259ZM 6.77822 3.43259L 7.77822 3.43259L 7.77822 2.43259L 6.77822 2.43259L 6.77822 3.43259ZM 3.55051 3.43259L 3.55051 2.43259L 2.55051 2.43259L 2.55051 3.43259L 3.55051 3.43259ZM -2.62672e-05 6.54713e-06L -2.62672e-05 -0.999993L -1.00003 -0.999993L -1.00003 6.54713e-06L -2.62672e-05 6.54713e-06ZM 10.2749 6.54713e-06L 11.2749 6.54713e-06L 11.2749 -0.999993L 10.2749 -0.999993L 10.2749 6.54713e-06ZM 10.2749 3.43259L 9.27491 3.43259L 9.27491 4.43259L 10.2749 4.43259L 10.2749 3.43259ZM 9.32869 3.43259C 9.32869 3.84287 8.9723 4.20251 8.55342 4.20251L 8.55342 6.20251C 10.0712 6.20251 11.3287 4.95313 11.3287 3.43259L 9.32869 3.43259ZM 8.55342 4.20251C 8.13459 4.20251 7.77822 3.84292 7.77822 3.43259L 5.77822 3.43259C 5.77822 4.95309 7.03563 6.20251 8.55342 6.20251L 8.55342 4.20251ZM 6.77822 2.43259L 3.55051 2.43259L 3.55051 4.43259L 6.77822 4.43259L 6.77822 2.43259ZM 2.55051 3.43259C 2.55051 3.84287 2.19412 4.20251 1.77524 4.20251L 1.77524 6.20251C 3.29299 6.20251 4.55051 4.95314 4.55051 3.43259L 2.55051 3.43259ZM 1.77524 4.20251C 1.35636 4.20251 0.999974 3.84287 0.999974 3.43259L -1.00003 3.43259C -1.00003 4.95314 0.257496 6.20251 1.77524 6.20251L 1.77524 4.20251ZM 0.999974 3.43259L 0.999974 6.54713e-06L -1.00003 6.54713e-06L -1.00003 3.43259L 0.999974 3.43259ZM -2.62672e-05 1.00001L 10.2749 1.00001L 10.2749 -0.999993L -2.62672e-05 -0.999993L -2.62672e-05 1.00001ZM 9.27491 6.54713e-06L 9.27491 3.43259L 11.2749 3.43259L 11.2749 6.54713e-06L 9.27491 6.54713e-06ZM 10.2749 4.43259L 10.3287 4.43259L 10.3287 2.43259L 10.2749 2.43259L 10.2749 4.43259Z"/>
<path id="path4_stroke" d="M 10.3287 1.76993L 10.3287 2.76993L 11.3287 2.76993L 11.3287 1.76993L 10.3287 1.76993ZM 6.77822 1.76993L 6.77822 2.76993L 7.77822 2.76993L 7.77822 1.76993L 6.77822 1.76993ZM 3.55051 1.76993L 2.55051 1.76993L 2.55051 2.76993L 3.55051 2.76993L 3.55051 1.76993ZM -2.62672e-05 5.20251L -1.00003 5.20251L -1.00003 6.20251L -2.62672e-05 6.20251L -2.62672e-05 5.20251ZM 10.2749 5.20251L 10.2749 6.20251L 11.2749 6.20251L 11.2749 5.20251L 10.2749 5.20251ZM 10.2749 1.76993L 10.2749 0.769932L 9.27491 0.769932L 9.27491 1.76993L 10.2749 1.76993ZM 11.3287 1.76993C 11.3287 0.249397 10.0712 -1 8.55342 -1L 8.55342 0.999997C 8.97229 0.999997 9.32869 1.35964 9.32869 1.76993L 11.3287 1.76993ZM 8.55342 -1C 7.03562 -1 5.77822 0.249444 5.77822 1.76993L 7.77822 1.76993C 7.77822 1.35959 8.1346 0.999997 8.55342 0.999997L 8.55342 -1ZM 6.77822 0.769932L 3.55051 0.769932L 3.55051 2.76993L 6.77822 2.76993L 6.77822 0.769932ZM 4.55051 1.76993C 4.55051 0.249396 3.293 -1 1.77524 -1L 1.77524 0.999997C 2.19411 0.999997 2.55051 1.35964 2.55051 1.76993L 4.55051 1.76993ZM 1.77524 -1C 0.257484 -1 -1.00003 0.249397 -1.00003 1.76993L 0.999974 1.76993C 0.999974 1.35964 1.35637 0.999997 1.77524 0.999997L 1.77524 -1ZM -1.00003 1.76993L -1.00003 5.20251L 0.999974 5.20251L 0.999974 1.76993L -1.00003 1.76993ZM -2.62672e-05 6.20251L 10.2749 6.20251L 10.2749 4.20251L -2.62672e-05 4.20251L -2.62672e-05 6.20251ZM 11.2749 5.20251L 11.2749 1.76993L 9.27491 1.76993L 9.27491 5.20251L 11.2749 5.20251ZM 10.2749 2.76993L 10.3287 2.76993L 10.3287 0.769932L 10.2749 0.769932L 10.2749 2.76993Z"/>
<path id="path5_stroke" d="M 10.3287 1.76993L 10.3287 2.76993L 11.3287 2.76993L 11.3287 1.76993L 10.3287 1.76993ZM 6.77817 1.76993L 6.77817 2.76993L 7.77817 2.76993L 7.77817 1.76993L 6.77817 1.76993ZM 3.55046 1.76993L 2.55046 1.76993L 2.55046 2.76993L 3.55046 2.76993L 3.55046 1.76993ZM -1.31336e-05 5.20251L -1.00001 5.20251L -1.00001 6.20251L -1.31336e-05 6.20251L -1.31336e-05 5.20251ZM 10.2749 5.20251L 10.2749 6.20251L 11.2749 6.20251L 11.2749 5.20251L 10.2749 5.20251ZM 10.2749 1.76993L 10.2749 0.769932L 9.27485 0.769932L 9.27485 1.76993L 10.2749 1.76993ZM 11.3287 1.76993C 11.3287 0.249397 10.0712 -1 8.55343 -1L 8.55343 0.999997C 8.9723 0.999997 9.3287 1.35964 9.3287 1.76993L 11.3287 1.76993ZM 8.55343 -1C 7.03568 -1 5.77817 0.249397 5.77817 1.76993L 7.77817 1.76993C 7.77817 1.35964 8.13457 0.999997 8.55343 0.999997L 8.55343 -1ZM 6.77817 0.769932L 3.55046 0.769932L 3.55046 2.76993L 6.77817 2.76993L 6.77817 0.769932ZM 4.55046 1.76993C 4.55046 0.249444 3.29306 -1 1.77525 -1L 1.77525 0.999997C 2.19408 0.999997 2.55046 1.35959 2.55046 1.76993L 4.55046 1.76993ZM 1.77525 -1C 0.257498 -1 -1.00001 0.249397 -1.00001 1.76993L 0.999987 1.76993C 0.999987 1.35964 1.35638 0.999997 1.77525 0.999997L 1.77525 -1ZM -1.00001 1.76993L -1.00001 5.20251L 0.999987 5.20251L 0.999987 1.76993L -1.00001 1.76993ZM -1.31336e-05 6.20251L 10.2749 6.20251L 10.2749 4.20251L -1.31336e-05 4.20251L -1.31336e-05 6.20251ZM 11.2749 5.20251L 11.2749 1.76993L 9.27485 1.76993L 9.27485 5.20251L 11.2749 5.20251ZM 10.2749 2.76993L 10.3287 2.76993L 10.3287 0.769932L 10.2749 0.769932L 10.2749 2.76993Z"/>
<path id="path6_stroke" d="M 10.3287 3.43259L 11.3287 3.43259L 11.3287 2.43259L 10.3287 2.43259L 10.3287 3.43259ZM 6.77817 3.43259L 7.77817 3.43259L 7.77817 2.43259L 6.77817 2.43259L 6.77817 3.43259ZM 3.55046 3.43259L 3.55046 2.43259L 2.55046 2.43259L 2.55046 3.43259L 3.55046 3.43259ZM -1.31336e-05 6.54713e-06L -1.31336e-05 -0.999993L -1.00001 -0.999993L -1.00001 6.54713e-06L -1.31336e-05 6.54713e-06ZM 10.2749 6.54713e-06L 11.2749 6.54713e-06L 11.2749 -0.999993L 10.2749 -0.999993L 10.2749 6.54713e-06ZM 10.2749 3.43259L 9.27485 3.43259L 9.27485 4.43259L 10.2749 4.43259L 10.2749 3.43259ZM 9.3287 3.43259C 9.3287 3.84287 8.97232 4.20251 8.55343 4.20251L 8.55343 6.20251C 10.0712 6.20251 11.3287 4.95314 11.3287 3.43259L 9.3287 3.43259ZM 8.55343 4.20251C 8.13455 4.20251 7.77817 3.84287 7.77817 3.43259L 5.77817 3.43259C 5.77817 4.95314 7.03569 6.20251 8.55343 6.20251L 8.55343 4.20251ZM 6.77817 2.43259L 3.55046 2.43259L 3.55046 4.43259L 6.77817 4.43259L 6.77817 2.43259ZM 2.55046 3.43259C 2.55046 3.84292 2.19409 4.20251 1.77525 4.20251L 1.77525 6.20251C 3.29305 6.20251 4.55046 4.95309 4.55046 3.43259L 2.55046 3.43259ZM 1.77525 4.20251C 1.35637 4.20251 0.999987 3.84287 0.999987 3.43259L -1.00001 3.43259C -1.00001 4.95314 0.25751 6.20251 1.77525 6.20251L 1.77525 4.20251ZM 0.999987 3.43259L 0.999987 6.54713e-06L -1.00001 6.54713e-06L -1.00001 3.43259L 0.999987 3.43259ZM -1.31336e-05 1.00001L 10.2749 1.00001L 10.2749 -0.999993L -1.31336e-05 -0.999993L -1.31336e-05 1.00001ZM 9.27485 6.54713e-06L 9.27485 3.43259L 11.2749 3.43259L 11.2749 6.54713e-06L 9.27485 6.54713e-06ZM 10.2749 4.43259L 10.3287 4.43259L 10.3287 2.43259L 10.2749 2.43259L 10.2749 4.43259Z"/>
<path id="path7_stroke" d="M -1.00002 -3.27357e-06L -1.00002 18.5038L 0.999976 18.5038L 0.999976 -3.27357e-06L -1.00002 -3.27357e-06Z"/>
<path id="path8_stroke" d="M -1 -3.27357e-06L -1 18.5038L 1 18.5038L 1 -3.27357e-06L -1 -3.27357e-06Z"/>
<path id="path9_stroke" d="M 64.7156 4.39799L 64.7156 5.39799L 65.7156 5.39799L 65.7156 4.39799L 64.7156 4.39799ZM -2.62672e-05 4.39799L -1.00003 4.39799L -1.00003 5.39799L -2.62672e-05 5.39799L -2.62672e-05 4.39799ZM 64.7156 3.39799L -2.62672e-05 3.39799L -2.62672e-05 5.39799L 64.7156 5.39799L 64.7156 3.39799ZM 0.999974 4.39799L 0.999974 4.29074L -1.00003 4.29074L -1.00003 4.39799L 0.999974 4.39799ZM 0.999974 4.29074C 0.999974 2.48594 2.48606 1.00001 4.30359 1.00001L 4.30359 -0.999993C 1.38715 -0.999993 -1.00003 1.37573 -1.00003 4.29074L 0.999974 4.29074ZM 4.30359 1.00001L 60.412 1.00001L 60.412 -0.999993L 4.30359 -0.999993L 4.30359 1.00001ZM 60.412 1.00001C 62.2295 1.00001 63.7156 2.48594 63.7156 4.29074L 65.7156 4.29074C 65.7156 1.37573 63.3284 -0.999993 60.412 -0.999993L 60.412 1.00001ZM 63.7156 4.29074L 63.7156 4.39799L 65.7156 4.39799L 65.7156 4.29074L 63.7156 4.29074Z"/>
</defs>
</svg>
