<svg width="60" height="67" viewBox="0 0 60 67" version="1.1" xmlns="http://www.w3.org/2000/svg" xmlns:xlink="http://www.w3.org/1999/xlink">
<g id="Canvas" fill="none">
<g id="Group">
<g id="Vector">
<path d="M 56.7015 7.93784C 39.3256 9.97593 28.5129 -6.54713e-06 28.5129 -6.54713e-06C 28.5129 -6.54713e-06 17.7 9.97593 0.324105 7.93784C 0.324105 7.93784 -5.10913 53.8486 28.5129 63.7173C 62.1349 53.8486 56.7015 7.93784 56.7015 7.93784Z" stroke-width="2" stroke-miterlimit="10" stroke-linecap="round" transform="translate(1 2)" stroke="#F2994A"/>
</g>
<g id="Vector_2">
<path d="M 4.88281e-05 11.1559L 4.88281e-05 -6.54713e-06" stroke-width="2" stroke-miterlimit="10" stroke-linecap="round" transform="translate(29.5125 54.5615)" stroke="#F2994A"/>
</g>
<g id="Group_2">
<g id="Vector_3">
<path d="M 30.5018 8.42057L 15.2241 6.54713e-06L 0 8.42057" stroke-width="2" stroke-miterlimit="10" stroke-linecap="round" stroke-linejoin="round" transform="translate(14.2886 16.9639)" stroke="#F2994A"/>
</g>
<g id="Group_3">
<g id="Vector_4">
<path d="M 5.25344e-05 6.54713e-06L 5.25344e-05 16.7339L 24.423 16.7339L 24.423 6.54713e-06" stroke-width="2" stroke-miterlimit="10" transform="translate(17.3013 23.6681)" stroke="#F2994A"/>
</g>
<g id="Vector_5">
<path d="M 0 14.0522L 0 3.70074C 0 1.66264 1.6676 6.54713e-06 3.71182 6.54713e-06C 5.75603 6.54713e-06 7.42376 1.66264 7.42376 3.70074L 7.42376 14.0522" stroke-width="2" stroke-miterlimit="10" transform="translate(20.4751 26.3497)" stroke="#F2994A"/>
</g>
</g>
<g id="Group_4">
<g id="Vector_6">
<path d="M 7.42379 14.0522L 7.42379 3.70074C 7.42379 1.66264 5.75606 6.54713e-06 3.71184 6.54713e-06C 1.66762 6.54713e-06 2.62672e-05 1.66264 2.62672e-05 3.70074L 2.62672e-05 14.0522" stroke-width="2" stroke-miterlimit="10" transform="translate(31.1262 26.3497)" stroke="#F2994A"/>
</g>
</g>
<g id="Vector_7">
<path d="M 30.5018 2.8426L 0 2.8426L 0 2.35991C 0 1.07269 1.07585 -6.54713e-06 2.36694 -6.54713e-06L 28.0811 -6.54713e-06C 29.3721 -6.54713e-06 30.4481 1.07269 30.4481 2.35991L 30.4481 2.8426L 30.5018 2.8426Z" stroke-width="2" stroke-miterlimit="10" transform="translate(14.2886 43.2981)" stroke="#F2994A"/>
</g>
</g>
</g>
</g>
</svg>

