<svg width="67" height="63" viewBox="0 0 67 63" version="1.1" xmlns="http://www.w3.org/2000/svg" xmlns:xlink="http://www.w3.org/1999/xlink">
<g id="Canvas" fill="none">
<g id="Group">
<g id="Vector">
<path d="M 32.3309 -6.54713e-06L -2.62672e-05 17.8602L 64.7156 17.8602L 32.3309 -6.54713e-06Z" stroke-width="2" stroke-miterlimit="10" stroke-linejoin="round" transform="translate(1 1)" stroke="#F2994A"/>
</g>
<g id="Vector_2">
<path d="M 55.4091 3.27357e-06L 55.4091 4.0762L 2.62672e-05 4.0762L 2.62672e-05 3.27357e-06" stroke-width="2" stroke-miterlimit="10" transform="translate(5.62659 18.8601)" stroke="#F2994A"/>
</g>
<g id="Vector_3">
<path d="M 55.4091 5.14888L 55.4091 3.27357e-06L 2.62672e-05 3.27357e-06L 2.62672e-05 5.14888" stroke-width="2" stroke-miterlimit="10" transform="translate(5.62659 51.8451)" stroke="#F2994A"/>
</g>
<g id="Vector_4">
<path d="M 10.3287 3.43259C 10.3287 4.398 9.52174 5.20251 8.55342 5.20251C 7.58511 5.20251 6.77822 4.398 6.77822 3.43259L 3.55051 3.43259C 3.55051 4.398 2.74355 5.20251 1.77524 5.20251C 0.806928 5.20251 -2.62672e-05 4.398 -2.62672e-05 3.43259L -2.62672e-05 6.54713e-06L 10.2749 6.54713e-06L 10.2749 3.43259L 10.3287 3.43259Z" stroke-width="2" stroke-miterlimit="10" transform="translate(5.57263 22.9363)" stroke="#F2994A"/>
</g>
<g id="Vector_5">
<path d="M 10.3287 1.76993C 10.3287 0.804518 9.52174 -3.27357e-06 8.55342 -3.27357e-06C 7.58511 -3.27357e-06 6.77822 0.804518 6.77822 1.76993L 3.55051 1.76993C 3.55051 0.804518 2.74355 -3.27357e-06 1.77524 -3.27357e-06C 0.806928 -3.27357e-06 -2.62672e-05 0.804518 -2.62672e-05 1.76993L -2.62672e-05 5.20251L 10.2749 5.20251L 10.2749 1.76993L 10.3287 1.76993Z" stroke-width="2" stroke-miterlimit="10" transform="translate(5.57263 46.6426)" stroke="#F2994A"/>
</g>
<g id="Vector_6">
<path d="M 10.3287 1.76993C 10.3287 0.804518 9.52174 -3.27357e-06 8.55342 -3.27357e-06C 7.58511 -3.27357e-06 6.77822 0.804518 6.77822 1.76993L 3.55051 1.76993C 3.55051 0.804518 2.74355 -3.27357e-06 1.77524 -3.27357e-06C 0.806928 -3.27357e-06 -2.62672e-05 0.804518 -2.62672e-05 1.76993L -2.62672e-05 5.20251L 10.2749 5.20251L 10.2749 1.76993L 10.3287 1.76993Z" stroke-width="2" stroke-miterlimit="10" transform="translate(28.1666 46.6426)" stroke="#F2994A"/>
</g>
<g id="Vector_7">
<path d="M 10.3287 1.76993C 10.3287 0.804518 9.52175 -3.27357e-06 8.55343 -3.27357e-06C 7.58512 -3.27357e-06 6.77817 0.804518 6.77817 1.76993L 3.55046 1.76993C 3.55046 0.804518 2.74357 -3.27357e-06 1.77525 -3.27357e-06C 0.806941 -3.27357e-06 -1.31336e-05 0.804518 -1.31336e-05 1.76993L -1.31336e-05 5.20251L 10.2749 5.20251L 10.2749 1.76993L 10.3287 1.76993Z" stroke-width="2" stroke-miterlimit="10" transform="translate(50.7069 46.6426)" stroke="#F2994A"/>
</g>
<g id="Vector_8">
<path d="M 10.3287 3.43259C 10.3287 4.398 9.52174 5.20251 8.55342 5.20251C 7.58511 5.20251 6.77822 4.398 6.77822 3.43259L 3.55051 3.43259C 3.55051 4.398 2.74355 5.20251 1.77524 5.20251C 0.806928 5.20251 -2.62672e-05 4.398 -2.62672e-05 3.43259L -2.62672e-05 6.54713e-06L 10.2749 6.54713e-06L 10.2749 3.43259L 10.3287 3.43259Z" stroke-width="2" stroke-miterlimit="10" transform="translate(28.1666 22.9363)" stroke="#F2994A"/>
</g>
<g id="Vector_9">
<path d="M 10.3287 3.43259C 10.3287 4.398 9.52175 5.20251 8.55343 5.20251C 7.58512 5.20251 6.77817 4.398 6.77817 3.43259L 3.55046 3.43259C 3.55046 4.398 2.74357 5.20251 1.77525 5.20251C 0.806941 5.20251 -1.31336e-05 4.398 -1.31336e-05 3.43259L -1.31336e-05 6.54713e-06L 10.2749 6.54713e-06L 10.2749 3.43259L 10.3287 3.43259Z" stroke-width="2" stroke-miterlimit="10" transform="translate(50.7069 22.9363)" stroke="#F2994A"/>
</g>
<g id="Group_2">
<g id="Vector_10">
<path d="M -2.44141e-05 -3.27357e-06L -2.44141e-05 18.5038" stroke-width="2" stroke-miterlimit="10" transform="translate(7.40161 28.1388)" stroke="#F2994A"/>
</g>
<g id="Vector_11">
<path d="M -2.44141e-05 -3.27357e-06L -2.44141e-05 18.5038" stroke-width="2" stroke-miterlimit="10" transform="translate(14.126 28.1388)" stroke="#F2994A"/>
</g>
</g>
<g id="Vector_12">
<path d="M -2.44141e-05 -3.27357e-06L -2.44141e-05 18.5038" stroke-width="2" stroke-miterlimit="10" transform="translate(29.9956 28.1388)" stroke="#F2994A"/>
</g>
<g id="Vector_13">
<path d="M -2.44141e-05 -3.27357e-06L -2.44141e-05 18.5038" stroke-width="2" stroke-miterlimit="10" transform="translate(36.7201 28.1388)" stroke="#F2994A"/>
</g>
<g id="Vector_14">
<path d="M 0 -3.27357e-06L 0 18.5038" stroke-width="2" stroke-miterlimit="10" transform="translate(52.5359 28.1388)" stroke="#F2994A"/>
</g>
<g id="Vector_15">
<path d="M -2.44141e-05 -3.27357e-06L -2.44141e-05 18.5038" stroke-width="2" stroke-miterlimit="10" transform="translate(59.314 28.1388)" stroke="#F2994A"/>
</g>
<g id="Vector_16">
<path d="M 64.7156 4.39799L -2.62672e-05 4.39799L -2.62672e-05 4.29074C -2.62672e-05 1.93083 1.9366 6.54713e-06 4.30359 6.54713e-06L 60.412 6.54713e-06C 62.779 6.54713e-06 64.7156 1.93083 64.7156 4.29074L 64.7156 4.39799Z" stroke-width="2" stroke-miterlimit="10" transform="translate(1 56.9939)" stroke="#F2994A"/>
</g>
</g>
</g>
</svg>

