<svg width="72" height="48" viewBox="0 0 72 48" version="1.1" xmlns="http://www.w3.org/2000/svg" xmlns:xlink="http://www.w3.org/1999/xlink">
<g id="Canvas" fill="none">
<g id="Group">
<g id="Vector">
<path d="M 11.5122 6.54713e-06L -2.62672e-05 12.1213L 11.5122 12.1213L 23.0243 12.1213L 11.5122 6.54713e-06Z" stroke-width="2" stroke-miterlimit="10" stroke-linecap="round" stroke-linejoin="round" transform="translate(1 1)" stroke="#F2994A"/>
</g>
<g id="Vector_2">
<path d="M 11.5122 6.54713e-06L 23.0782 12.1213L 11.5122 12.1213L 1.31336e-05 12.1213L 11.5122 6.54713e-06Z" stroke-width="2" stroke-miterlimit="10" stroke-linecap="round" stroke-linejoin="round" transform="translate(47.1025 1)" stroke="#F2994A"/>
</g>
<g id="Vector_3">
<path d="M 0 12.1213L 11.566 6.54713e-06L 23.0782 12.1213L 0 12.1213Z" stroke-width="2" stroke-miterlimit="10" stroke-linecap="round" stroke-linejoin="round" transform="translate(24.0244 1)" stroke="#F2994A"/>
</g>
<g id="Vector_4">
<path d="M 11.566 33.4677L 0 -6.54713e-06L 23.0782 -6.54713e-06L 11.566 33.4677Z" stroke-width="2" stroke-miterlimit="10" stroke-linecap="round" stroke-linejoin="round" transform="translate(24.0244 13.1212)" stroke="#F2994A"/>
</g>
<g id="Vector_5">
<path d="M -1.31336e-05 6.54713e-06L 11.5122 12.1213L 23.0781 6.54713e-06L -1.31336e-05 6.54713e-06Z" stroke-width="2" stroke-miterlimit="10" stroke-linecap="round" stroke-linejoin="round" transform="translate(12.5122 1)" stroke="#F2994A"/>
</g>
<g id="Vector_6">
<path d="M 23.0244 6.54713e-06L 11.5122 12.1213L 0 6.54713e-06L 23.0244 6.54713e-06Z" stroke-width="2" stroke-miterlimit="10" stroke-linecap="round" stroke-linejoin="round" transform="translate(35.5903 1)" stroke="#F2994A"/>
</g>
<g id="Vector_7">
<path d="M 34.5903 33.4677L -2.62672e-05 -6.54713e-06L 23.0243 -6.54713e-06L 34.5903 33.4677Z" stroke-width="2" stroke-miterlimit="10" stroke-linecap="round" stroke-linejoin="round" transform="translate(1 13.1212)" stroke="#F2994A"/>
</g>
<g id="Vector_8">
<path d="M 0 33.4677L 11.5122 -6.54713e-06L 34.5903 -6.54713e-06L 25.1762 9.1178L 4.51881 29.0697L 0 33.4677Z" stroke-width="2" stroke-miterlimit="10" stroke-linecap="round" stroke-linejoin="round" transform="translate(35.5903 13.1212)" stroke="#F2994A"/>
</g>
</g>
</g>
</svg>

